<?xml version="1.0" encoding="utf-8"?>
<svg xmlns="http://www.w3.org/2000/svg" xmlns:xlink="http://www.w3.org/1999/xlink" width="600" height="400" viewBox="0 0 2400 1600">
<defs>
  <clipPath id="clip630">
    <rect x="0" y="0" width="2400" height="1600"/>
  </clipPath>
</defs>
<path clip-path="url(#clip630)" d="M0 1600 L2400 1600 L2400 0 L0 0  Z" fill="#ffffff" fill-rule="evenodd" fill-opacity="1"/>
<defs>
  <clipPath id="clip631">
    <rect x="480" y="0" width="1681" height="1600"/>
  </clipPath>
</defs>
<path clip-path="url(#clip630)" d="M242.135 1423.18 L2352.76 1423.18 L2352.76 123.472 L242.135 123.472  Z" fill="#ffffff" fill-rule="evenodd" fill-opacity="1"/>
<defs>
  <clipPath id="clip632">
    <rect x="242" y="123" width="2112" height="1301"/>
  </clipPath>
</defs>
<polyline clip-path="url(#clip632)" style="stroke:#000000; stroke-linecap:round; stroke-linejoin:round; stroke-width:2; stroke-opacity:0.1; fill:none" points="467.799,1423.18 467.799,123.472 "/>
<polyline clip-path="url(#clip632)" style="stroke:#000000; stroke-linecap:round; stroke-linejoin:round; stroke-width:2; stroke-opacity:0.1; fill:none" points="744.347,1423.18 744.347,123.472 "/>
<polyline clip-path="url(#clip632)" style="stroke:#000000; stroke-linecap:round; stroke-linejoin:round; stroke-width:2; stroke-opacity:0.1; fill:none" points="1020.9,1423.18 1020.9,123.472 "/>
<polyline clip-path="url(#clip632)" style="stroke:#000000; stroke-linecap:round; stroke-linejoin:round; stroke-width:2; stroke-opacity:0.1; fill:none" points="1297.45,1423.18 1297.45,123.472 "/>
<polyline clip-path="url(#clip632)" style="stroke:#000000; stroke-linecap:round; stroke-linejoin:round; stroke-width:2; stroke-opacity:0.1; fill:none" points="1573.99,1423.18 1573.99,123.472 "/>
<polyline clip-path="url(#clip632)" style="stroke:#000000; stroke-linecap:round; stroke-linejoin:round; stroke-width:2; stroke-opacity:0.1; fill:none" points="1850.54,1423.18 1850.54,123.472 "/>
<polyline clip-path="url(#clip632)" style="stroke:#000000; stroke-linecap:round; stroke-linejoin:round; stroke-width:2; stroke-opacity:0.1; fill:none" points="2127.09,1423.18 2127.09,123.472 "/>
<polyline clip-path="url(#clip632)" style="stroke:#000000; stroke-linecap:round; stroke-linejoin:round; stroke-width:2; stroke-opacity:0.1; fill:none" points="242.135,1423.18 2352.76,1423.18 "/>
<polyline clip-path="url(#clip632)" style="stroke:#000000; stroke-linecap:round; stroke-linejoin:round; stroke-width:2; stroke-opacity:0.1; fill:none" points="242.135,1232.05 2352.76,1232.05 "/>
<polyline clip-path="url(#clip632)" style="stroke:#000000; stroke-linecap:round; stroke-linejoin:round; stroke-width:2; stroke-opacity:0.1; fill:none" points="242.135,1040.91 2352.76,1040.91 "/>
<polyline clip-path="url(#clip632)" style="stroke:#000000; stroke-linecap:round; stroke-linejoin:round; stroke-width:2; stroke-opacity:0.1; fill:none" points="242.135,849.779 2352.76,849.779 "/>
<polyline clip-path="url(#clip632)" style="stroke:#000000; stroke-linecap:round; stroke-linejoin:round; stroke-width:2; stroke-opacity:0.1; fill:none" points="242.135,658.646 2352.76,658.646 "/>
<polyline clip-path="url(#clip632)" style="stroke:#000000; stroke-linecap:round; stroke-linejoin:round; stroke-width:2; stroke-opacity:0.1; fill:none" points="242.135,467.512 2352.76,467.512 "/>
<polyline clip-path="url(#clip632)" style="stroke:#000000; stroke-linecap:round; stroke-linejoin:round; stroke-width:2; stroke-opacity:0.1; fill:none" points="242.135,276.379 2352.76,276.379 "/>
<polyline clip-path="url(#clip630)" style="stroke:#000000; stroke-linecap:round; stroke-linejoin:round; stroke-width:4; stroke-opacity:1; fill:none" points="242.135,1423.18 2352.76,1423.18 "/>
<polyline clip-path="url(#clip630)" style="stroke:#000000; stroke-linecap:round; stroke-linejoin:round; stroke-width:4; stroke-opacity:1; fill:none" points="467.799,1423.18 467.799,1404.28 "/>
<polyline clip-path="url(#clip630)" style="stroke:#000000; stroke-linecap:round; stroke-linejoin:round; stroke-width:4; stroke-opacity:1; fill:none" points="744.347,1423.18 744.347,1404.28 "/>
<polyline clip-path="url(#clip630)" style="stroke:#000000; stroke-linecap:round; stroke-linejoin:round; stroke-width:4; stroke-opacity:1; fill:none" points="1020.9,1423.18 1020.9,1404.28 "/>
<polyline clip-path="url(#clip630)" style="stroke:#000000; stroke-linecap:round; stroke-linejoin:round; stroke-width:4; stroke-opacity:1; fill:none" points="1297.45,1423.18 1297.45,1404.28 "/>
<polyline clip-path="url(#clip630)" style="stroke:#000000; stroke-linecap:round; stroke-linejoin:round; stroke-width:4; stroke-opacity:1; fill:none" points="1573.99,1423.18 1573.99,1404.28 "/>
<polyline clip-path="url(#clip630)" style="stroke:#000000; stroke-linecap:round; stroke-linejoin:round; stroke-width:4; stroke-opacity:1; fill:none" points="1850.54,1423.18 1850.54,1404.28 "/>
<polyline clip-path="url(#clip630)" style="stroke:#000000; stroke-linecap:round; stroke-linejoin:round; stroke-width:4; stroke-opacity:1; fill:none" points="2127.09,1423.18 2127.09,1404.28 "/>
<path clip-path="url(#clip630)" d="M422.359 1468.75 L452.035 1468.75 L452.035 1472.69 L422.359 1472.69 L422.359 1468.75 Z" fill="#000000" fill-rule="nonzero" fill-opacity="1" /><path clip-path="url(#clip630)" d="M460.947 1451.02 L483.169 1451.02 L483.169 1453.01 L470.623 1485.58 L465.738 1485.58 L477.544 1454.96 L460.947 1454.96 L460.947 1451.02 Z" fill="#000000" fill-rule="nonzero" fill-opacity="1" /><path clip-path="url(#clip630)" d="M492.335 1451.02 L510.692 1451.02 L510.692 1454.96 L496.618 1454.96 L496.618 1463.43 Q497.636 1463.08 498.655 1462.92 Q499.673 1462.73 500.692 1462.73 Q506.479 1462.73 509.859 1465.9 Q513.238 1469.08 513.238 1474.49 Q513.238 1480.07 509.766 1483.17 Q506.294 1486.25 499.974 1486.25 Q497.798 1486.25 495.53 1485.88 Q493.285 1485.51 490.877 1484.77 L490.877 1480.07 Q492.96 1481.2 495.183 1481.76 Q497.405 1482.32 499.882 1482.32 Q503.886 1482.32 506.224 1480.21 Q508.562 1478.1 508.562 1474.49 Q508.562 1470.88 506.224 1468.77 Q503.886 1466.67 499.882 1466.67 Q498.007 1466.67 496.132 1467.08 Q494.28 1467.5 492.335 1468.38 L492.335 1451.02 Z" fill="#000000" fill-rule="nonzero" fill-opacity="1" /><path clip-path="url(#clip630)" d="M698.41 1468.75 L728.086 1468.75 L728.086 1472.69 L698.41 1472.69 L698.41 1468.75 Z" fill="#000000" fill-rule="nonzero" fill-opacity="1" /><path clip-path="url(#clip630)" d="M738.225 1451.02 L756.581 1451.02 L756.581 1454.96 L742.507 1454.96 L742.507 1463.43 Q743.526 1463.08 744.544 1462.92 Q745.563 1462.73 746.581 1462.73 Q752.368 1462.73 755.748 1465.9 Q759.127 1469.08 759.127 1474.49 Q759.127 1480.07 755.655 1483.17 Q752.183 1486.25 745.864 1486.25 Q743.688 1486.25 741.419 1485.88 Q739.174 1485.51 736.766 1484.77 L736.766 1480.07 Q738.85 1481.2 741.072 1481.76 Q743.294 1482.32 745.771 1482.32 Q749.776 1482.32 752.114 1480.21 Q754.452 1478.1 754.452 1474.49 Q754.452 1470.88 752.114 1468.77 Q749.776 1466.67 745.771 1466.67 Q743.896 1466.67 742.021 1467.08 Q740.169 1467.5 738.225 1468.38 L738.225 1451.02 Z" fill="#000000" fill-rule="nonzero" fill-opacity="1" /><path clip-path="url(#clip630)" d="M778.34 1454.1 Q774.729 1454.1 772.901 1457.66 Q771.095 1461.2 771.095 1468.33 Q771.095 1475.44 772.901 1479.01 Q774.729 1482.55 778.34 1482.55 Q781.975 1482.55 783.78 1479.01 Q785.609 1475.44 785.609 1468.33 Q785.609 1461.2 783.78 1457.66 Q781.975 1454.1 778.34 1454.1 M778.34 1450.39 Q784.151 1450.39 787.206 1455 Q790.285 1459.58 790.285 1468.33 Q790.285 1477.06 787.206 1481.67 Q784.151 1486.25 778.34 1486.25 Q772.53 1486.25 769.452 1481.67 Q766.396 1477.06 766.396 1468.33 Q766.396 1459.58 769.452 1455 Q772.53 1450.39 778.34 1450.39 Z" fill="#000000" fill-rule="nonzero" fill-opacity="1" /><path clip-path="url(#clip630)" d="M975.457 1468.75 L1005.13 1468.75 L1005.13 1472.69 L975.457 1472.69 L975.457 1468.75 Z" fill="#000000" fill-rule="nonzero" fill-opacity="1" /><path clip-path="url(#clip630)" d="M1019.25 1481.64 L1035.57 1481.64 L1035.57 1485.58 L1013.63 1485.58 L1013.63 1481.64 Q1016.29 1478.89 1020.87 1474.26 Q1025.48 1469.61 1026.66 1468.27 Q1028.91 1465.74 1029.79 1464.01 Q1030.69 1462.25 1030.69 1460.56 Q1030.69 1457.8 1028.74 1456.07 Q1026.82 1454.33 1023.72 1454.33 Q1021.52 1454.33 1019.07 1455.09 Q1016.64 1455.86 1013.86 1457.41 L1013.86 1452.69 Q1016.68 1451.55 1019.14 1450.97 Q1021.59 1450.39 1023.63 1450.39 Q1029 1450.39 1032.19 1453.08 Q1035.39 1455.77 1035.39 1460.26 Q1035.39 1462.39 1034.58 1464.31 Q1033.79 1466.2 1031.68 1468.8 Q1031.1 1469.47 1028 1472.69 Q1024.9 1475.88 1019.25 1481.64 Z" fill="#000000" fill-rule="nonzero" fill-opacity="1" /><path clip-path="url(#clip630)" d="M1045.43 1451.02 L1063.79 1451.02 L1063.79 1454.96 L1049.72 1454.96 L1049.72 1463.43 Q1050.73 1463.08 1051.75 1462.92 Q1052.77 1462.73 1053.79 1462.73 Q1059.58 1462.73 1062.96 1465.9 Q1066.34 1469.08 1066.34 1474.49 Q1066.34 1480.07 1062.86 1483.17 Q1059.39 1486.25 1053.07 1486.25 Q1050.9 1486.25 1048.63 1485.88 Q1046.38 1485.51 1043.97 1484.77 L1043.97 1480.07 Q1046.06 1481.2 1048.28 1481.76 Q1050.5 1482.32 1052.98 1482.32 Q1056.98 1482.32 1059.32 1480.21 Q1061.66 1478.1 1061.66 1474.49 Q1061.66 1470.88 1059.32 1468.77 Q1056.98 1466.67 1052.98 1466.67 Q1051.1 1466.67 1049.23 1467.08 Q1047.38 1467.5 1045.43 1468.38 L1045.43 1451.02 Z" fill="#000000" fill-rule="nonzero" fill-opacity="1" /><path clip-path="url(#clip630)" d="M1297.45 1454.1 Q1293.83 1454.1 1292.01 1457.66 Q1290.2 1461.2 1290.2 1468.33 Q1290.2 1475.44 1292.01 1479.01 Q1293.83 1482.55 1297.45 1482.55 Q1301.08 1482.55 1302.89 1479.01 Q1304.71 1475.44 1304.71 1468.33 Q1304.71 1461.2 1302.89 1457.66 Q1301.08 1454.1 1297.45 1454.1 M1297.45 1450.39 Q1303.26 1450.39 1306.31 1455 Q1309.39 1459.58 1309.39 1468.33 Q1309.39 1477.06 1306.31 1481.67 Q1303.26 1486.25 1297.45 1486.25 Q1291.64 1486.25 1288.56 1481.67 Q1285.5 1477.06 1285.5 1468.33 Q1285.5 1459.58 1288.56 1455 Q1291.64 1450.39 1297.45 1450.39 Z" fill="#000000" fill-rule="nonzero" fill-opacity="1" /><path clip-path="url(#clip630)" d="M1553.27 1481.64 L1569.58 1481.64 L1569.58 1485.58 L1547.64 1485.58 L1547.64 1481.64 Q1550.3 1478.89 1554.89 1474.26 Q1559.49 1469.61 1560.67 1468.27 Q1562.92 1465.74 1563.8 1464.01 Q1564.7 1462.25 1564.7 1460.56 Q1564.7 1457.8 1562.76 1456.07 Q1560.83 1454.33 1557.73 1454.33 Q1555.53 1454.33 1553.08 1455.09 Q1550.65 1455.86 1547.87 1457.41 L1547.87 1452.69 Q1550.7 1451.55 1553.15 1450.97 Q1555.6 1450.39 1557.64 1450.39 Q1563.01 1450.39 1566.2 1453.08 Q1569.4 1455.77 1569.4 1460.26 Q1569.4 1462.39 1568.59 1464.31 Q1567.8 1466.2 1565.7 1468.8 Q1565.12 1469.47 1562.02 1472.69 Q1558.91 1475.88 1553.27 1481.64 Z" fill="#000000" fill-rule="nonzero" fill-opacity="1" /><path clip-path="url(#clip630)" d="M1579.45 1451.02 L1597.8 1451.02 L1597.8 1454.96 L1583.73 1454.96 L1583.73 1463.43 Q1584.75 1463.08 1585.76 1462.92 Q1586.78 1462.73 1587.8 1462.73 Q1593.59 1462.73 1596.97 1465.9 Q1600.35 1469.08 1600.35 1474.49 Q1600.35 1480.07 1596.88 1483.17 Q1593.4 1486.25 1587.08 1486.25 Q1584.91 1486.25 1582.64 1485.88 Q1580.39 1485.51 1577.99 1484.77 L1577.99 1480.07 Q1580.07 1481.2 1582.29 1481.76 Q1584.51 1482.32 1586.99 1482.32 Q1591 1482.32 1593.33 1480.21 Q1595.67 1478.1 1595.67 1474.49 Q1595.67 1470.88 1593.33 1468.77 Q1591 1466.67 1586.99 1466.67 Q1585.12 1466.67 1583.24 1467.08 Q1581.39 1467.5 1579.45 1468.38 L1579.45 1451.02 Z" fill="#000000" fill-rule="nonzero" fill-opacity="1" /><path clip-path="url(#clip630)" d="M1825.24 1451.02 L1843.6 1451.02 L1843.6 1454.96 L1829.52 1454.96 L1829.52 1463.43 Q1830.54 1463.08 1831.56 1462.92 Q1832.58 1462.73 1833.6 1462.73 Q1839.39 1462.73 1842.77 1465.9 Q1846.14 1469.08 1846.14 1474.49 Q1846.14 1480.07 1842.67 1483.17 Q1839.2 1486.25 1832.88 1486.25 Q1830.71 1486.25 1828.44 1485.88 Q1826.19 1485.51 1823.78 1484.77 L1823.78 1480.07 Q1825.87 1481.2 1828.09 1481.76 Q1830.31 1482.32 1832.79 1482.32 Q1836.79 1482.32 1839.13 1480.21 Q1841.47 1478.1 1841.47 1474.49 Q1841.47 1470.88 1839.13 1468.77 Q1836.79 1466.67 1832.79 1466.67 Q1830.91 1466.67 1829.04 1467.08 Q1827.19 1467.5 1825.24 1468.38 L1825.24 1451.02 Z" fill="#000000" fill-rule="nonzero" fill-opacity="1" /><path clip-path="url(#clip630)" d="M1865.36 1454.1 Q1861.75 1454.1 1859.92 1457.66 Q1858.11 1461.2 1858.11 1468.33 Q1858.11 1475.44 1859.92 1479.01 Q1861.75 1482.55 1865.36 1482.55 Q1868.99 1482.55 1870.8 1479.01 Q1872.63 1475.44 1872.63 1468.33 Q1872.63 1461.2 1870.8 1457.66 Q1868.99 1454.1 1865.36 1454.1 M1865.36 1450.39 Q1871.17 1450.39 1874.22 1455 Q1877.3 1459.58 1877.3 1468.33 Q1877.3 1477.06 1874.22 1481.67 Q1871.17 1486.25 1865.36 1486.25 Q1859.55 1486.25 1856.47 1481.67 Q1853.41 1477.06 1853.41 1468.33 Q1853.41 1459.58 1856.47 1455 Q1859.55 1450.39 1865.36 1450.39 Z" fill="#000000" fill-rule="nonzero" fill-opacity="1" /><path clip-path="url(#clip630)" d="M2100.95 1451.02 L2123.17 1451.02 L2123.17 1453.01 L2110.62 1485.58 L2105.74 1485.58 L2117.54 1454.96 L2100.95 1454.96 L2100.95 1451.02 Z" fill="#000000" fill-rule="nonzero" fill-opacity="1" /><path clip-path="url(#clip630)" d="M2132.34 1451.02 L2150.69 1451.02 L2150.69 1454.96 L2136.62 1454.96 L2136.62 1463.43 Q2137.64 1463.08 2138.65 1462.92 Q2139.67 1462.73 2140.69 1462.73 Q2146.48 1462.73 2149.86 1465.9 Q2153.24 1469.08 2153.24 1474.49 Q2153.24 1480.07 2149.77 1483.17 Q2146.29 1486.25 2139.97 1486.25 Q2137.8 1486.25 2135.53 1485.88 Q2133.28 1485.51 2130.88 1484.77 L2130.88 1480.07 Q2132.96 1481.2 2135.18 1481.76 Q2137.4 1482.32 2139.88 1482.32 Q2143.89 1482.32 2146.22 1480.21 Q2148.56 1478.1 2148.56 1474.49 Q2148.56 1470.88 2146.22 1468.77 Q2143.89 1466.67 2139.88 1466.67 Q2138.01 1466.67 2136.13 1467.08 Q2134.28 1467.5 2132.34 1468.38 L2132.34 1451.02 Z" fill="#000000" fill-rule="nonzero" fill-opacity="1" /><path clip-path="url(#clip630)" d="M1132.3 1526.86 L1123.58 1550.51 L1141.06 1550.51 L1132.3 1526.86 M1128.67 1520.52 L1135.96 1520.52 L1154.07 1568.04 L1147.39 1568.04 L1143.06 1555.85 L1121.64 1555.85 L1117.31 1568.04 L1110.53 1568.04 L1128.67 1520.52 Z" fill="#000000" fill-rule="nonzero" fill-opacity="1" /><path clip-path="url(#clip630)" d="M1190.39 1546.53 L1190.39 1568.04 L1184.53 1568.04 L1184.53 1546.72 Q1184.53 1541.66 1182.56 1539.14 Q1180.59 1536.63 1176.64 1536.63 Q1171.9 1536.63 1169.16 1539.65 Q1166.42 1542.68 1166.42 1547.9 L1166.42 1568.04 L1160.53 1568.04 L1160.53 1532.4 L1166.42 1532.4 L1166.42 1537.93 Q1168.52 1534.72 1171.36 1533.13 Q1174.22 1531.54 1177.95 1531.54 Q1184.09 1531.54 1187.24 1535.36 Q1190.39 1539.14 1190.39 1546.53 Z" fill="#000000" fill-rule="nonzero" fill-opacity="1" /><path clip-path="url(#clip630)" d="M1225.53 1549.81 Q1225.53 1543.44 1222.89 1539.94 Q1220.28 1536.44 1215.53 1536.44 Q1210.82 1536.44 1208.18 1539.94 Q1205.57 1543.44 1205.57 1549.81 Q1205.57 1556.14 1208.18 1559.64 Q1210.82 1563.14 1215.53 1563.14 Q1220.28 1563.14 1222.89 1559.64 Q1225.53 1556.14 1225.53 1549.81 M1231.39 1563.62 Q1231.39 1572.72 1227.34 1577.15 Q1223.3 1581.6 1214.96 1581.6 Q1211.87 1581.6 1209.14 1581.13 Q1206.4 1580.68 1203.82 1579.72 L1203.82 1574.03 Q1206.4 1575.43 1208.91 1576.1 Q1211.43 1576.76 1214.04 1576.76 Q1219.8 1576.76 1222.66 1573.74 Q1225.53 1570.75 1225.53 1564.67 L1225.53 1561.77 Q1223.71 1564.92 1220.88 1566.48 Q1218.05 1568.04 1214.1 1568.04 Q1207.55 1568.04 1203.54 1563.05 Q1199.52 1558.05 1199.52 1549.81 Q1199.52 1541.53 1203.54 1536.53 Q1207.55 1531.54 1214.1 1531.54 Q1218.05 1531.54 1220.88 1533.1 Q1223.71 1534.66 1225.53 1537.81 L1225.53 1532.4 L1231.39 1532.4 L1231.39 1563.62 Z" fill="#000000" fill-rule="nonzero" fill-opacity="1" /><path clip-path="url(#clip630)" d="M1243.45 1518.52 L1249.3 1518.52 L1249.3 1568.04 L1243.45 1568.04 L1243.45 1518.52 Z" fill="#000000" fill-rule="nonzero" fill-opacity="1" /><path clip-path="url(#clip630)" d="M1292.05 1548.76 L1292.05 1551.62 L1265.12 1551.62 Q1265.51 1557.67 1268.75 1560.85 Q1272.03 1564 1277.85 1564 Q1281.23 1564 1284.38 1563.17 Q1287.56 1562.35 1290.68 1560.69 L1290.68 1566.23 Q1287.53 1567.57 1284.22 1568.27 Q1280.91 1568.97 1277.5 1568.97 Q1268.97 1568.97 1263.98 1564 Q1259.01 1559.04 1259.01 1550.57 Q1259.01 1541.82 1263.72 1536.69 Q1268.47 1531.54 1276.49 1531.54 Q1283.68 1531.54 1287.85 1536.18 Q1292.05 1540.8 1292.05 1548.76 M1286.19 1547.04 Q1286.13 1542.23 1283.49 1539.37 Q1280.88 1536.5 1276.55 1536.5 Q1271.65 1536.5 1268.69 1539.27 Q1265.76 1542.04 1265.31 1547.07 L1286.19 1547.04 Z" fill="#000000" fill-rule="nonzero" fill-opacity="1" /><path clip-path="url(#clip630)" d="M1321.84 1518.52 L1335.34 1518.52 L1335.34 1523.07 L1327.7 1523.07 L1327.7 1572.09 L1335.34 1572.09 L1335.34 1576.64 L1321.84 1576.64 L1321.84 1518.52 Z" fill="#000000" fill-rule="nonzero" fill-opacity="1" /><path clip-path="url(#clip630)" d="M1371.27 1537.81 L1371.27 1518.52 L1377.13 1518.52 L1377.13 1568.04 L1371.27 1568.04 L1371.27 1562.7 Q1369.43 1565.88 1366.59 1567.44 Q1363.79 1568.97 1359.85 1568.97 Q1353.38 1568.97 1349.31 1563.81 Q1345.27 1558.65 1345.27 1550.25 Q1345.27 1541.85 1349.31 1536.69 Q1353.38 1531.54 1359.85 1531.54 Q1363.79 1531.54 1366.59 1533.1 Q1369.43 1534.62 1371.27 1537.81 M1351.32 1550.25 Q1351.32 1556.71 1353.96 1560.4 Q1356.63 1564.07 1361.28 1564.07 Q1365.92 1564.07 1368.6 1560.4 Q1371.27 1556.71 1371.27 1550.25 Q1371.27 1543.79 1368.6 1540.13 Q1365.92 1536.44 1361.28 1536.44 Q1356.63 1536.44 1353.96 1540.13 Q1351.32 1543.79 1351.32 1550.25 Z" fill="#000000" fill-rule="nonzero" fill-opacity="1" /><path clip-path="url(#clip630)" d="M1419.68 1548.76 L1419.68 1551.62 L1392.76 1551.62 Q1393.14 1557.67 1396.38 1560.85 Q1399.66 1564 1405.49 1564 Q1408.86 1564 1412.01 1563.17 Q1415.19 1562.35 1418.31 1560.69 L1418.31 1566.23 Q1415.16 1567.57 1411.85 1568.27 Q1408.54 1568.97 1405.14 1568.97 Q1396.61 1568.97 1391.61 1564 Q1386.64 1559.04 1386.64 1550.57 Q1386.64 1541.82 1391.36 1536.69 Q1396.1 1531.54 1404.12 1531.54 Q1411.31 1531.54 1415.48 1536.18 Q1419.68 1540.8 1419.68 1548.76 M1413.83 1547.04 Q1413.76 1542.23 1411.12 1539.37 Q1408.51 1536.5 1404.18 1536.5 Q1399.28 1536.5 1396.32 1539.27 Q1393.39 1542.04 1392.95 1547.07 L1413.83 1547.04 Z" fill="#000000" fill-rule="nonzero" fill-opacity="1" /><path clip-path="url(#clip630)" d="M1452.75 1549.81 Q1452.75 1543.44 1450.11 1539.94 Q1447.5 1536.44 1442.76 1536.44 Q1438.05 1536.44 1435.41 1539.94 Q1432.8 1543.44 1432.8 1549.81 Q1432.8 1556.14 1435.41 1559.64 Q1438.05 1563.14 1442.76 1563.14 Q1447.5 1563.14 1450.11 1559.64 Q1452.75 1556.14 1452.75 1549.81 M1458.61 1563.62 Q1458.61 1572.72 1454.57 1577.15 Q1450.52 1581.6 1442.19 1581.6 Q1439.1 1581.6 1436.36 1581.13 Q1433.62 1580.68 1431.05 1579.72 L1431.05 1574.03 Q1433.62 1575.43 1436.14 1576.1 Q1438.65 1576.76 1441.26 1576.76 Q1447.02 1576.76 1449.89 1573.74 Q1452.75 1570.75 1452.75 1564.67 L1452.75 1561.77 Q1450.94 1564.92 1448.11 1566.48 Q1445.27 1568.04 1441.33 1568.04 Q1434.77 1568.04 1430.76 1563.05 Q1426.75 1558.05 1426.75 1549.81 Q1426.75 1541.53 1430.76 1536.53 Q1434.77 1531.54 1441.33 1531.54 Q1445.27 1531.54 1448.11 1533.1 Q1450.94 1534.66 1452.75 1537.81 L1452.75 1532.4 L1458.61 1532.4 L1458.61 1563.62 Z" fill="#000000" fill-rule="nonzero" fill-opacity="1" /><path clip-path="url(#clip630)" d="M1484.36 1518.52 L1484.36 1576.64 L1470.86 1576.64 L1470.86 1572.09 L1478.47 1572.09 L1478.47 1523.07 L1470.86 1523.07 L1470.86 1518.52 L1484.36 1518.52 Z" fill="#000000" fill-rule="nonzero" fill-opacity="1" /><polyline clip-path="url(#clip630)" style="stroke:#000000; stroke-linecap:round; stroke-linejoin:round; stroke-width:4; stroke-opacity:1; fill:none" points="242.135,1423.18 242.135,123.472 "/>
<polyline clip-path="url(#clip630)" style="stroke:#000000; stroke-linecap:round; stroke-linejoin:round; stroke-width:4; stroke-opacity:1; fill:none" points="242.135,1423.18 261.032,1423.18 "/>
<polyline clip-path="url(#clip630)" style="stroke:#000000; stroke-linecap:round; stroke-linejoin:round; stroke-width:4; stroke-opacity:1; fill:none" points="242.135,1232.05 261.032,1232.05 "/>
<polyline clip-path="url(#clip630)" style="stroke:#000000; stroke-linecap:round; stroke-linejoin:round; stroke-width:4; stroke-opacity:1; fill:none" points="242.135,1040.91 261.032,1040.91 "/>
<polyline clip-path="url(#clip630)" style="stroke:#000000; stroke-linecap:round; stroke-linejoin:round; stroke-width:4; stroke-opacity:1; fill:none" points="242.135,849.779 261.032,849.779 "/>
<polyline clip-path="url(#clip630)" style="stroke:#000000; stroke-linecap:round; stroke-linejoin:round; stroke-width:4; stroke-opacity:1; fill:none" points="242.135,658.646 261.032,658.646 "/>
<polyline clip-path="url(#clip630)" style="stroke:#000000; stroke-linecap:round; stroke-linejoin:round; stroke-width:4; stroke-opacity:1; fill:none" points="242.135,467.512 261.032,467.512 "/>
<polyline clip-path="url(#clip630)" style="stroke:#000000; stroke-linecap:round; stroke-linejoin:round; stroke-width:4; stroke-opacity:1; fill:none" points="242.135,276.379 261.032,276.379 "/>
<path clip-path="url(#clip630)" d="M114.26 1423.63 L143.936 1423.63 L143.936 1427.57 L114.26 1427.57 L114.26 1423.63 Z" fill="#000000" fill-rule="nonzero" fill-opacity="1" /><path clip-path="url(#clip630)" d="M154.075 1405.9 L172.431 1405.9 L172.431 1409.84 L158.357 1409.84 L158.357 1418.31 Q159.376 1417.96 160.394 1417.8 Q161.413 1417.61 162.431 1417.61 Q168.218 1417.61 171.598 1420.78 Q174.977 1423.96 174.977 1429.37 Q174.977 1434.95 171.505 1438.05 Q168.033 1441.13 161.714 1441.13 Q159.538 1441.13 157.269 1440.76 Q155.024 1440.39 152.616 1439.65 L152.616 1434.95 Q154.7 1436.08 156.922 1436.64 Q159.144 1437.2 161.621 1437.2 Q165.626 1437.2 167.964 1435.09 Q170.302 1432.98 170.302 1429.37 Q170.302 1425.76 167.964 1423.65 Q165.626 1421.55 161.621 1421.55 Q159.746 1421.55 157.871 1421.96 Q156.019 1422.38 154.075 1423.26 L154.075 1405.9 Z" fill="#000000" fill-rule="nonzero" fill-opacity="1" /><path clip-path="url(#clip630)" d="M194.19 1408.98 Q190.579 1408.98 188.75 1412.54 Q186.945 1416.08 186.945 1423.21 Q186.945 1430.32 188.75 1433.89 Q190.579 1437.43 194.19 1437.43 Q197.825 1437.43 199.63 1433.89 Q201.459 1430.32 201.459 1423.21 Q201.459 1416.08 199.63 1412.54 Q197.825 1408.98 194.19 1408.98 M194.19 1405.27 Q200 1405.27 203.056 1409.88 Q206.135 1414.46 206.135 1423.21 Q206.135 1431.94 203.056 1436.55 Q200 1441.13 194.19 1441.13 Q188.38 1441.13 185.301 1436.55 Q182.246 1431.94 182.246 1423.21 Q182.246 1414.46 185.301 1409.88 Q188.38 1405.27 194.19 1405.27 Z" fill="#000000" fill-rule="nonzero" fill-opacity="1" /><path clip-path="url(#clip630)" d="M114.26 1232.5 L143.936 1232.5 L143.936 1236.43 L114.26 1236.43 L114.26 1232.5 Z" fill="#000000" fill-rule="nonzero" fill-opacity="1" /><path clip-path="url(#clip630)" d="M166.876 1218.84 L155.07 1237.29 L166.876 1237.29 L166.876 1218.84 M165.649 1214.77 L171.528 1214.77 L171.528 1237.29 L176.459 1237.29 L176.459 1241.18 L171.528 1241.18 L171.528 1249.33 L166.876 1249.33 L166.876 1241.18 L151.274 1241.18 L151.274 1236.66 L165.649 1214.77 Z" fill="#000000" fill-rule="nonzero" fill-opacity="1" /><path clip-path="url(#clip630)" d="M194.19 1217.85 Q190.579 1217.85 188.75 1221.41 Q186.945 1224.95 186.945 1232.08 Q186.945 1239.19 188.75 1242.75 Q190.579 1246.29 194.19 1246.29 Q197.825 1246.29 199.63 1242.75 Q201.459 1239.19 201.459 1232.08 Q201.459 1224.95 199.63 1221.41 Q197.825 1217.85 194.19 1217.85 M194.19 1214.14 Q200 1214.14 203.056 1218.75 Q206.135 1223.33 206.135 1232.08 Q206.135 1240.81 203.056 1245.41 Q200 1250 194.19 1250 Q188.38 1250 185.301 1245.41 Q182.246 1240.81 182.246 1232.08 Q182.246 1223.33 185.301 1218.75 Q188.38 1214.14 194.19 1214.14 Z" fill="#000000" fill-rule="nonzero" fill-opacity="1" /><path clip-path="url(#clip630)" d="M114.26 1041.36 L143.936 1041.36 L143.936 1045.3 L114.26 1045.3 L114.26 1041.36 Z" fill="#000000" fill-rule="nonzero" fill-opacity="1" /><path clip-path="url(#clip630)" d="M168.195 1039.56 Q171.552 1040.28 173.427 1042.54 Q175.325 1044.81 175.325 1048.15 Q175.325 1053.26 171.806 1056.06 Q168.288 1058.86 161.806 1058.86 Q159.63 1058.86 157.315 1058.42 Q155.024 1058.01 152.57 1057.15 L152.57 1052.64 Q154.515 1053.77 156.829 1054.35 Q159.144 1054.93 161.667 1054.93 Q166.065 1054.93 168.357 1053.19 Q170.672 1051.46 170.672 1048.15 Q170.672 1045.09 168.519 1043.38 Q166.39 1041.64 162.57 1041.64 L158.542 1041.64 L158.542 1037.8 L162.755 1037.8 Q166.204 1037.8 168.033 1036.43 Q169.862 1035.04 169.862 1032.45 Q169.862 1029.79 167.964 1028.38 Q166.089 1026.94 162.57 1026.94 Q160.649 1026.94 158.45 1027.36 Q156.251 1027.78 153.612 1028.66 L153.612 1024.49 Q156.274 1023.75 158.589 1023.38 Q160.927 1023.01 162.987 1023.01 Q168.311 1023.01 171.413 1025.44 Q174.514 1027.85 174.514 1031.97 Q174.514 1034.84 172.871 1036.83 Q171.227 1038.79 168.195 1039.56 Z" fill="#000000" fill-rule="nonzero" fill-opacity="1" /><path clip-path="url(#clip630)" d="M194.19 1026.71 Q190.579 1026.71 188.75 1030.28 Q186.945 1033.82 186.945 1040.95 Q186.945 1048.05 188.75 1051.62 Q190.579 1055.16 194.19 1055.16 Q197.825 1055.16 199.63 1051.62 Q201.459 1048.05 201.459 1040.95 Q201.459 1033.82 199.63 1030.28 Q197.825 1026.71 194.19 1026.71 M194.19 1023.01 Q200 1023.01 203.056 1027.61 Q206.135 1032.2 206.135 1040.95 Q206.135 1049.67 203.056 1054.28 Q200 1058.86 194.19 1058.86 Q188.38 1058.86 185.301 1054.28 Q182.246 1049.67 182.246 1040.95 Q182.246 1032.2 185.301 1027.61 Q188.38 1023.01 194.19 1023.01 Z" fill="#000000" fill-rule="nonzero" fill-opacity="1" /><path clip-path="url(#clip630)" d="M114.26 850.231 L143.936 850.231 L143.936 854.166 L114.26 854.166 L114.26 850.231 Z" fill="#000000" fill-rule="nonzero" fill-opacity="1" /><path clip-path="url(#clip630)" d="M158.056 863.124 L174.376 863.124 L174.376 867.059 L152.431 867.059 L152.431 863.124 Q155.093 860.37 159.677 855.74 Q164.283 851.087 165.464 849.745 Q167.709 847.222 168.589 845.485 Q169.491 843.726 169.491 842.036 Q169.491 839.282 167.547 837.546 Q165.626 835.81 162.524 835.81 Q160.325 835.81 157.871 836.573 Q155.44 837.337 152.663 838.888 L152.663 834.166 Q155.487 833.032 157.94 832.453 Q160.394 831.874 162.431 831.874 Q167.802 831.874 170.996 834.56 Q174.19 837.245 174.19 841.735 Q174.19 843.865 173.38 845.786 Q172.593 847.684 170.487 850.277 Q169.908 850.948 166.806 854.166 Q163.704 857.36 158.056 863.124 Z" fill="#000000" fill-rule="nonzero" fill-opacity="1" /><path clip-path="url(#clip630)" d="M194.19 835.578 Q190.579 835.578 188.75 839.143 Q186.945 842.685 186.945 849.814 Q186.945 856.921 188.75 860.485 Q190.579 864.027 194.19 864.027 Q197.825 864.027 199.63 860.485 Q201.459 856.921 201.459 849.814 Q201.459 842.685 199.63 839.143 Q197.825 835.578 194.19 835.578 M194.19 831.874 Q200 831.874 203.056 836.481 Q206.135 841.064 206.135 849.814 Q206.135 858.541 203.056 863.147 Q200 867.731 194.19 867.731 Q188.38 867.731 185.301 863.147 Q182.246 858.541 182.246 849.814 Q182.246 841.064 185.301 836.481 Q188.38 831.874 194.19 831.874 Z" fill="#000000" fill-rule="nonzero" fill-opacity="1" /><path clip-path="url(#clip630)" d="M114.26 659.097 L143.936 659.097 L143.936 663.032 L114.26 663.032 L114.26 659.097 Z" fill="#000000" fill-rule="nonzero" fill-opacity="1" /><path clip-path="url(#clip630)" d="M154.839 671.991 L162.477 671.991 L162.477 645.625 L154.167 647.292 L154.167 643.033 L162.431 641.366 L167.107 641.366 L167.107 671.991 L174.746 671.991 L174.746 675.926 L154.839 675.926 L154.839 671.991 Z" fill="#000000" fill-rule="nonzero" fill-opacity="1" /><path clip-path="url(#clip630)" d="M194.19 644.445 Q190.579 644.445 188.75 648.009 Q186.945 651.551 186.945 658.681 Q186.945 665.787 188.75 669.352 Q190.579 672.894 194.19 672.894 Q197.825 672.894 199.63 669.352 Q201.459 665.787 201.459 658.681 Q201.459 651.551 199.63 648.009 Q197.825 644.445 194.19 644.445 M194.19 640.741 Q200 640.741 203.056 645.347 Q206.135 649.931 206.135 658.681 Q206.135 667.407 203.056 672.014 Q200 676.597 194.19 676.597 Q188.38 676.597 185.301 672.014 Q182.246 667.407 182.246 658.681 Q182.246 649.931 185.301 645.347 Q188.38 640.741 194.19 640.741 Z" fill="#000000" fill-rule="nonzero" fill-opacity="1" /><path clip-path="url(#clip630)" d="M194.19 453.311 Q190.579 453.311 188.75 456.876 Q186.945 460.418 186.945 467.547 Q186.945 474.654 188.75 478.218 Q190.579 481.76 194.19 481.76 Q197.825 481.76 199.63 478.218 Q201.459 474.654 201.459 467.547 Q201.459 460.418 199.63 456.876 Q197.825 453.311 194.19 453.311 M194.19 449.607 Q200 449.607 203.056 454.214 Q206.135 458.797 206.135 467.547 Q206.135 476.274 203.056 480.88 Q200 485.464 194.19 485.464 Q188.38 485.464 185.301 480.88 Q182.246 476.274 182.246 467.547 Q182.246 458.797 185.301 454.214 Q188.38 449.607 194.19 449.607 Z" fill="#000000" fill-rule="nonzero" fill-opacity="1" /><path clip-path="url(#clip630)" d="M154.839 289.724 L162.477 289.724 L162.477 263.358 L154.167 265.025 L154.167 260.766 L162.431 259.099 L167.107 259.099 L167.107 289.724 L174.746 289.724 L174.746 293.659 L154.839 293.659 L154.839 289.724 Z" fill="#000000" fill-rule="nonzero" fill-opacity="1" /><path clip-path="url(#clip630)" d="M194.19 262.178 Q190.579 262.178 188.75 265.742 Q186.945 269.284 186.945 276.414 Q186.945 283.52 188.75 287.085 Q190.579 290.627 194.19 290.627 Q197.825 290.627 199.63 287.085 Q201.459 283.52 201.459 276.414 Q201.459 269.284 199.63 265.742 Q197.825 262.178 194.19 262.178 M194.19 258.474 Q200 258.474 203.056 263.08 Q206.135 267.664 206.135 276.414 Q206.135 285.14 203.056 289.747 Q200 294.33 194.19 294.33 Q188.38 294.33 185.301 289.747 Q182.246 285.14 182.246 276.414 Q182.246 267.664 185.301 263.08 Q188.38 258.474 194.19 258.474 Z" fill="#000000" fill-rule="nonzero" fill-opacity="1" /><path clip-path="url(#clip630)" d="M57.2247 862.557 L44.4614 862.557 L44.4614 873.061 L39.1779 873.061 L39.1779 856.192 L59.58 856.192 Q62.2218 859.916 63.5904 864.403 Q64.9272 868.891 64.9272 873.984 Q64.9272 885.124 58.4342 891.426 Q51.9093 897.696 40.2919 897.696 Q28.6427 897.696 22.1496 891.426 Q15.6248 885.124 15.6248 873.984 Q15.6248 869.337 16.7706 865.167 Q17.9164 860.966 20.1444 857.433 L26.9876 857.433 Q23.9639 860.998 22.4361 865.008 Q20.9083 869.018 20.9083 873.443 Q20.9083 882.164 25.7781 886.556 Q30.6479 890.916 40.2919 890.916 Q49.9041 890.916 54.7739 886.556 Q59.6436 882.164 59.6436 873.443 Q59.6436 870.037 59.0707 867.363 Q58.466 864.69 57.2247 862.557 Z" fill="#000000" fill-rule="nonzero" fill-opacity="1" /><path clip-path="url(#clip630)" d="M58.3387 803.515 L64.0042 803.515 L64.0042 822.612 L58.3387 822.612 Q55.2513 816.979 49.9678 813.828 Q44.6842 810.677 38.2549 810.677 Q30.616 810.677 26.0009 814.878 Q21.3858 819.08 21.3858 825.954 Q21.3858 832.829 26.0327 837.063 Q30.6479 841.264 38.2549 841.264 Q44.6842 841.264 49.9678 838.113 Q55.2513 834.93 58.3387 829.265 L64.0042 829.265 L64.0042 848.362 L58.3387 848.362 L58.3387 838.208 Q53.9145 843.237 49.1721 845.561 Q44.4296 847.852 38.5732 847.852 Q28.4517 847.852 22.1815 841.741 Q15.9112 835.662 15.9112 825.954 Q15.9112 816.31 22.1815 810.168 Q28.4199 804.056 38.2549 804.056 Q44.4296 804.056 49.1402 806.316 Q53.8509 808.576 58.3387 813.7 L58.3387 803.515 Z" fill="#000000" fill-rule="nonzero" fill-opacity="1" /><path clip-path="url(#clip630)" d="M14.479 774.711 L14.479 761.215 L19.0304 761.215 L19.0304 768.854 L68.0464 768.854 L68.0464 761.215 L72.5979 761.215 L72.5979 774.711 L14.479 774.711 Z" fill="#000000" fill-rule="nonzero" fill-opacity="1" /><path clip-path="url(#clip630)" d="M33.7671 725.281 L14.479 725.281 L14.479 719.424 L64.0042 719.424 L64.0042 725.281 L58.657 725.281 Q61.8398 727.127 63.3994 729.96 Q64.9272 732.761 64.9272 736.707 Q64.9272 743.168 59.771 747.243 Q54.6147 751.285 46.212 751.285 Q37.8093 751.285 32.6531 747.243 Q27.4968 743.168 27.4968 736.707 Q27.4968 732.761 29.0564 729.96 Q30.5842 727.127 33.7671 725.281 M46.212 745.237 Q52.6732 745.237 56.3653 742.596 Q60.0256 739.922 60.0256 735.275 Q60.0256 730.628 56.3653 727.954 Q52.6732 725.281 46.212 725.281 Q39.7508 725.281 36.0905 727.954 Q32.3984 730.628 32.3984 735.275 Q32.3984 739.922 36.0905 742.596 Q39.7508 745.237 46.212 745.237 Z" fill="#000000" fill-rule="nonzero" fill-opacity="1" /><path clip-path="url(#clip630)" d="M41.3104 700.677 L58.7206 700.677 L58.7206 690.365 Q58.7206 685.177 56.5881 682.694 Q54.4238 680.18 49.9996 680.18 Q45.5436 680.18 43.4429 682.694 Q41.3104 685.177 41.3104 690.365 L41.3104 700.677 M21.7677 700.677 L36.0905 700.677 L36.0905 691.161 Q36.0905 686.45 34.34 684.158 Q32.5576 681.835 28.9291 681.835 Q25.3325 681.835 23.5501 684.158 Q21.7677 686.45 21.7677 691.161 L21.7677 700.677 M16.4842 707.107 L16.4842 690.683 Q16.4842 683.331 19.5397 679.352 Q22.5952 675.374 28.2289 675.374 Q32.5894 675.374 35.1675 677.411 Q37.7456 679.448 38.3822 683.394 Q39.4007 678.652 42.6472 676.042 Q45.8619 673.4 50.6998 673.4 Q57.0655 673.4 60.5348 677.729 Q64.0042 682.058 64.0042 690.047 L64.0042 707.107 L16.4842 707.107 Z" fill="#000000" fill-rule="nonzero" fill-opacity="1" /><path clip-path="url(#clip630)" d="M14.479 648.956 L72.5979 648.956 L72.5979 662.451 L68.0464 662.451 L68.0464 654.844 L19.0304 654.844 L19.0304 662.451 L14.479 662.451 L14.479 648.956 Z" fill="#000000" fill-rule="nonzero" fill-opacity="1" /><path clip-path="url(#clip630)" d="M1114.53 20.1573 L1103.43 50.2555 L1125.67 50.2555 L1114.53 20.1573 M1109.91 12.096 L1119.19 12.096 L1142.23 72.576 L1133.73 72.576 L1128.22 57.061 L1100.96 57.061 L1095.45 72.576 L1086.82 72.576 L1109.91 12.096 Z" fill="#000000" fill-rule="nonzero" fill-opacity="1" /><path clip-path="url(#clip630)" d="M1177.03 34.1734 Q1175.78 33.4443 1174.28 33.1202 Q1172.82 32.7556 1171.04 32.7556 Q1164.72 32.7556 1161.31 36.8875 Q1157.95 40.9789 1157.95 48.6757 L1157.95 72.576 L1150.46 72.576 L1150.46 27.2059 L1157.95 27.2059 L1157.95 34.2544 Q1160.3 30.1225 1164.07 28.1376 Q1167.84 26.1121 1173.22 26.1121 Q1173.99 26.1121 1174.93 26.2337 Q1175.86 26.3147 1176.99 26.5172 L1177.03 34.1734 Z" fill="#000000" fill-rule="nonzero" fill-opacity="1" /><path clip-path="url(#clip630)" d="M1209.68 34.1734 Q1208.43 33.4443 1206.93 33.1202 Q1205.47 32.7556 1203.69 32.7556 Q1197.37 32.7556 1193.96 36.8875 Q1190.6 40.9789 1190.6 48.6757 L1190.6 72.576 L1183.11 72.576 L1183.11 27.2059 L1190.6 27.2059 L1190.6 34.2544 Q1192.95 30.1225 1196.72 28.1376 Q1200.49 26.1121 1205.87 26.1121 Q1206.64 26.1121 1207.58 26.2337 Q1208.51 26.3147 1209.64 26.5172 L1209.68 34.1734 Z" fill="#000000" fill-rule="nonzero" fill-opacity="1" /><path clip-path="url(#clip630)" d="M1238.12 49.7694 Q1229.09 49.7694 1225.6 51.8354 Q1222.12 53.9013 1222.12 58.8839 Q1222.12 62.8538 1224.71 65.2034 Q1227.34 67.5124 1231.84 67.5124 Q1238.04 67.5124 1241.77 63.1374 Q1245.53 58.7219 1245.53 51.4303 L1245.53 49.7694 L1238.12 49.7694 M1252.99 46.6907 L1252.99 72.576 L1245.53 72.576 L1245.53 65.6895 Q1242.98 69.8214 1239.17 71.8063 Q1235.37 73.7508 1229.86 73.7508 Q1222.89 73.7508 1218.76 69.8619 Q1214.67 65.9325 1214.67 59.3701 Q1214.67 51.7138 1219.77 47.825 Q1224.91 43.9361 1235.08 43.9361 L1245.53 43.9361 L1245.53 43.2069 Q1245.53 38.0623 1242.13 35.2672 Q1238.77 32.4315 1232.65 32.4315 Q1228.76 32.4315 1225.08 33.3632 Q1221.39 34.295 1217.99 36.1584 L1217.99 29.2718 Q1222.08 27.692 1225.93 26.9223 Q1229.77 26.1121 1233.42 26.1121 Q1243.26 26.1121 1248.13 31.2163 Q1252.99 36.3204 1252.99 46.6907 Z" fill="#000000" fill-rule="nonzero" fill-opacity="1" /><path clip-path="url(#clip630)" d="M1287.22 76.7889 Q1284.06 84.8907 1281.06 87.3618 Q1278.06 89.8329 1273.04 89.8329 L1267.08 89.8329 L1267.08 83.5945 L1271.46 83.5945 Q1274.54 83.5945 1276.24 82.1361 Q1277.94 80.6778 1280.01 75.2496 L1281.34 71.8468 L1262.99 27.2059 L1270.89 27.2059 L1285.07 62.6918 L1299.25 27.2059 L1307.15 27.2059 L1287.22 76.7889 Z" fill="#000000" fill-rule="nonzero" fill-opacity="1" /><path clip-path="url(#clip630)" d="M1373.66 49.3643 Q1373.66 41.2625 1370.3 36.8065 Q1366.98 32.3505 1360.94 32.3505 Q1354.95 32.3505 1351.59 36.8065 Q1348.26 41.2625 1348.26 49.3643 Q1348.26 57.4256 1351.59 61.8816 Q1354.95 66.3376 1360.94 66.3376 Q1366.98 66.3376 1370.3 61.8816 Q1373.66 57.4256 1373.66 49.3643 M1381.12 66.9452 Q1381.12 78.5308 1375.97 84.1616 Q1370.83 89.8329 1360.21 89.8329 Q1356.28 89.8329 1352.8 89.2252 Q1349.32 88.6581 1346.04 87.4428 L1346.04 80.1917 Q1349.32 81.9741 1352.52 82.8248 Q1355.72 83.6755 1359.04 83.6755 Q1366.37 83.6755 1370.02 79.8271 Q1373.66 76.0193 1373.66 68.282 L1373.66 64.5957 Q1371.35 68.6061 1367.75 70.5911 Q1364.14 72.576 1359.12 72.576 Q1350.78 72.576 1345.67 66.2161 Q1340.57 59.8562 1340.57 49.3643 Q1340.57 38.832 1345.67 32.472 Q1350.78 26.1121 1359.12 26.1121 Q1364.14 26.1121 1367.75 28.0971 Q1371.35 30.082 1373.66 34.0924 L1373.66 27.2059 L1381.12 27.2059 L1381.12 66.9452 Z" fill="#000000" fill-rule="nonzero" fill-opacity="1" /><path clip-path="url(#clip630)" d="M1417.09 49.7694 Q1408.06 49.7694 1404.57 51.8354 Q1401.09 53.9013 1401.09 58.8839 Q1401.09 62.8538 1403.68 65.2034 Q1406.31 67.5124 1410.81 67.5124 Q1417.01 67.5124 1420.73 63.1374 Q1424.5 58.7219 1424.5 51.4303 L1424.5 49.7694 L1417.09 49.7694 M1431.96 46.6907 L1431.96 72.576 L1424.5 72.576 L1424.5 65.6895 Q1421.95 69.8214 1418.14 71.8063 Q1414.33 73.7508 1408.82 73.7508 Q1401.86 73.7508 1397.73 69.8619 Q1393.63 65.9325 1393.63 59.3701 Q1393.63 51.7138 1398.74 47.825 Q1403.88 43.9361 1414.05 43.9361 L1424.5 43.9361 L1424.5 43.2069 Q1424.5 38.0623 1421.1 35.2672 Q1417.74 32.4315 1411.62 32.4315 Q1407.73 32.4315 1404.04 33.3632 Q1400.36 34.295 1396.96 36.1584 L1396.96 29.2718 Q1401.05 27.692 1404.9 26.9223 Q1408.74 26.1121 1412.39 26.1121 Q1422.23 26.1121 1427.09 31.2163 Q1431.96 36.3204 1431.96 46.6907 Z" fill="#000000" fill-rule="nonzero" fill-opacity="1" /><path clip-path="url(#clip630)" d="M1447.31 27.2059 L1454.76 27.2059 L1454.76 72.576 L1447.31 72.576 L1447.31 27.2059 M1447.31 9.54393 L1454.76 9.54393 L1454.76 18.9825 L1447.31 18.9825 L1447.31 9.54393 Z" fill="#000000" fill-rule="nonzero" fill-opacity="1" /><path clip-path="url(#clip630)" d="M1508.07 45.1919 L1508.07 72.576 L1500.62 72.576 L1500.62 45.4349 Q1500.62 38.994 1498.11 35.7938 Q1495.6 32.5936 1490.57 32.5936 Q1484.54 32.5936 1481.05 36.4419 Q1477.57 40.2903 1477.57 46.9338 L1477.57 72.576 L1470.07 72.576 L1470.07 27.2059 L1477.57 27.2059 L1477.57 34.2544 Q1480.24 30.163 1483.85 28.1376 Q1487.49 26.1121 1492.23 26.1121 Q1500.05 26.1121 1504.06 30.9732 Q1508.07 35.7938 1508.07 45.1919 Z" fill="#000000" fill-rule="nonzero" fill-opacity="1" /><polyline clip-path="url(#clip632)" style="stroke:#009af9; stroke-linecap:round; stroke-linejoin:round; stroke-width:4; stroke-opacity:1; fill:none" points="2293.02,10734.1 2289.04,1783.91 2285.06,1588.62 2281.07,1475.08 2277.09,1395.36 2273.11,1334.42 2269.13,1285.6 2265.15,1245.32 2261.16,1211.49 2257.18,1182.73 2253.2,1158.15 2249.22,1137.09 2245.23,1119.1 2241.25,1103.85 2237.27,1091.09 2233.29,1080.65 2229.3,1072.41 2225.32,1066.31 2221.34,1062.32 2217.36,1060.47 2213.38,1060.83 2209.39,1063.54 2205.41,1068.8 2201.43,1076.92 2197.45,1088.36 2193.46,1103.82 2189.48,1124.37 2185.5,1151.81 2181.52,1189.45 2177.53,1244.33 2173.55,1336.43 2169.57,1598.84 2165.59,1412.34 2161.61,1268.24 2157.62,1190.43 2153.64,1136.84 2149.66,1096.16 2145.68,1063.68 2141.69,1036.98 2137.71,1014.66 2133.73,995.835 2129.75,979.92 2125.76,966.515 2121.78,955.335 2117.8,946.181 2113.82,938.915 2109.84,933.446 2105.85,929.723 2101.87,927.731 2097.89,927.49 2093.91,929.054 2089.92,932.522 2085.94,938.04 2081.96,945.822 2077.98,956.171 2073.99,969.522 2070.01,986.517 2066.03,1008.13 2062.05,1035.96 2058.07,1072.81 2054.08,1124.4 2050.1,1205.53 2046.12,1384.83 2042.14,1382.34 2038.15,1198.04 2034.17,1111.91 2030.19,1055.32 2026.21,1013.46 2022.22,980.62 2018.24,953.975 2014.26,931.938 2010.28,913.53 2006.3,898.107 2002.31,885.232 1998.33,874.598 1994.35,865.991 1990.37,859.26 1986.38,854.306 1982.4,851.071 1978.42,849.532 1974.44,849.702 1970.45,851.628 1966.47,855.399 1962.49,861.15 1958.51,869.075 1954.53,879.455 1950.54,892.688 1946.56,909.355 1942.58,930.333 1938.6,957.02 1934.61,991.829 1930.63,1039.47 1926.65,1111.24 1922.67,1249.21 1918.68,1429.46 1914.7,1160.71 1910.72,1062.14 1906.74,1000.67 1902.76,956.3 1898.77,921.971 1894.79,894.376 1890.81,871.7 1886.83,852.844 1882.84,837.099 1878.86,823.982 1874.88,813.161 1870.9,804.402 1866.91,797.538 1862.93,792.461 1858.95,789.102 1854.97,787.431 1850.99,787.452 1847,789.203 1843.02,792.762 1839.04,798.251 1835.06,805.85 1831.07,815.814 1827.09,828.509 1823.11,844.46 1819.13,864.456 1815.14,889.733 1811.16,922.378 1807.18,966.317 1803.2,1030.38 1799.22,1142.77 1795.23,6353.21 1791.25,1139.08 1787.27,1022.99 1783.29,955.235 1779.3,907.598 1775.32,871.251 1771.34,842.265 1767.36,818.555 1763.37,798.881 1759.39,782.455 1755.41,768.748 1751.43,757.392 1747.45,748.13 1743.46,740.779 1739.48,735.214 1735.5,731.353 1731.52,729.15 1727.53,728.597 1723.55,729.713 1719.57,732.554 1715.59,737.216 1711.6,743.84 1707.62,752.629 1703.64,763.87 1699.66,777.971 1695.68,795.526 1691.69,817.432 1687.71,845.117 1683.73,881.063 1679.75,930.132 1675.76,1004.12 1671.78,1148.38 1667.8,1294.05 1663.82,1046.37 1659.83,951.019 1655.85,891.317 1651.87,848.295 1647.89,815.161 1643.91,788.704 1639.92,767.154 1635.94,749.444 1631.96,734.882 1627.98,723.009 1623.99,713.506 1620.01,706.16 1616.03,700.826 1612.05,697.42 1608.07,695.902 1604.08,696.282 1600.1,698.611 1596.12,702.992 1592.14,709.586 1588.15,718.633 1584.17,730.483 1580.19,745.641 1576.21,764.867 1572.22,789.35 1568.24,821.079 1564.26,863.756 1560.28,925.542 1556.3,1031.36 1552.31,1450.01 1548.33,1057.18 1544.35,934.092 1540.37,864.717 1536.38,816.951 1532.4,781.24 1528.42,753.451 1524.44,731.446 1520.45,714.003 1516.47,700.389 1512.49,690.169 1508.51,683.11 1504.53,679.136 1500.54,678.322 1496.56,680.899 1492.58,687.307 1488.6,698.291 1484.61,715.104 1480.63,739.958 1476.65,777.174 1472.67,836.927 1468.68,954.818 1464.7,1230 1460.72,883.127 1456.74,769.693 1452.76,697.177 1448.77,642.766 1444.79,598.745 1440.81,561.548 1436.83,529.227 1432.84,500.597 1428.86,474.885 1424.88,451.554 1420.9,430.218 1416.91,410.587 1412.93,392.44 1408.95,375.602 1404.97,359.936 1400.99,345.327 1397,331.681 1393.02,318.922 1389.04,306.984 1385.06,295.809 1381.07,285.351 1377.09,275.568 1373.11,266.424 1369.13,257.888 1365.14,249.932 1361.16,242.532 1357.18,235.666 1353.2,229.317 1349.22,223.467 1345.23,218.101 1341.25,213.207 1337.27,208.772 1333.29,204.788 1329.3,201.246 1325.32,198.137 1321.34,195.455 1317.36,193.195 1313.37,191.352 1309.39,189.922 1305.41,188.903 1301.43,188.292 1297.45,188.088 1293.46,188.292 1289.48,188.903 1285.5,189.922 1281.52,191.352 1277.53,193.195 1273.55,195.455 1269.57,198.137 1265.59,201.246 1261.6,204.788 1257.62,208.772 1253.64,213.207 1249.66,218.101 1245.68,223.467 1241.69,229.317 1237.71,235.666 1233.73,242.532 1229.75,249.932 1225.76,257.888 1221.78,266.424 1217.8,275.568 1213.82,285.351 1209.83,295.809 1205.85,306.984 1201.87,318.922 1197.89,331.681 1193.91,345.327 1189.92,359.936 1185.94,375.602 1181.96,392.44 1177.98,410.587 1173.99,430.218 1170.01,451.554 1166.03,474.885 1162.05,500.597 1158.06,529.227 1154.08,561.548 1150.1,598.745 1146.12,642.766 1142.14,697.177 1138.15,769.693 1134.17,883.127 1130.19,1230 1126.21,954.818 1122.22,836.927 1118.24,777.174 1114.26,739.958 1110.28,715.104 1106.29,698.291 1102.31,687.307 1098.33,680.899 1094.35,678.322 1090.37,679.136 1086.38,683.11 1082.4,690.169 1078.42,700.389 1074.44,714.003 1070.45,731.446 1066.47,753.451 1062.49,781.24 1058.51,816.951 1054.52,864.717 1050.54,934.092 1046.56,1057.18 1042.58,1450.01 1038.6,1031.36 1034.61,925.542 1030.63,863.756 1026.65,821.079 1022.67,789.35 1018.68,764.867 1014.7,745.641 1010.72,730.483 1006.74,718.633 1002.75,709.586 998.772,702.992 994.79,698.611 990.808,696.282 986.826,695.902 982.843,697.42 978.861,700.826 974.879,706.16 970.896,713.506 966.914,723.009 962.932,734.882 958.949,749.444 954.967,767.154 950.985,788.704 947.003,815.161 943.02,848.295 939.038,891.317 935.056,951.019 931.073,1046.37 927.091,1294.05 923.109,1148.38 919.126,1004.12 915.144,930.132 911.162,881.063 907.179,845.117 903.197,817.432 899.215,795.526 895.233,777.971 891.25,763.87 887.268,752.629 883.286,743.84 879.303,737.216 875.321,732.554 871.339,729.713 867.356,728.597 863.374,729.15 859.392,731.353 855.41,735.214 851.427,740.779 847.445,748.13 843.463,757.392 839.48,768.748 835.498,782.455 831.516,798.881 827.533,818.555 823.551,842.265 819.569,871.251 815.586,907.598 811.604,955.235 807.622,1022.99 803.64,1139.08 799.657,6353.21 795.675,1142.77 791.693,1030.38 787.71,966.317 783.728,922.378 779.746,889.733 775.763,864.456 771.781,844.46 767.799,828.509 763.817,815.814 759.834,805.85 755.852,798.251 751.87,792.762 747.887,789.203 743.905,787.452 739.923,787.431 735.94,789.102 731.958,792.461 727.976,797.538 723.993,804.402 720.011,813.161 716.029,823.982 712.047,837.099 708.064,852.844 704.082,871.7 700.1,894.376 696.117,921.971 692.135,956.3 688.153,1000.67 684.17,1062.14 680.188,1160.71 676.206,1429.46 672.224,1249.21 668.241,1111.24 664.259,1039.47 660.277,991.829 656.294,957.02 652.312,930.333 648.33,909.355 644.347,892.688 640.365,879.455 636.383,869.075 632.4,861.15 628.418,855.399 624.436,851.628 620.454,849.702 616.471,849.532 612.489,851.071 608.507,854.306 604.524,859.26 600.542,865.991 596.56,874.598 592.577,885.232 588.595,898.107 584.613,913.53 580.631,931.938 576.648,953.975 572.666,980.62 568.684,1013.46 564.701,1055.32 560.719,1111.91 556.737,1198.04 552.754,1382.34 548.772,1384.83 544.79,1205.53 540.807,1124.4 536.825,1072.81 532.843,1035.96 528.861,1008.13 524.878,986.517 520.896,969.522 516.914,956.171 512.931,945.822 508.949,938.04 504.967,932.522 500.984,929.054 497.002,927.49 493.02,927.731 489.038,929.723 485.055,933.446 481.073,938.915 477.091,946.181 473.108,955.335 469.126,966.515 465.144,979.92 461.161,995.835 457.179,1014.66 453.197,1036.98 449.214,1063.68 445.232,1096.16 441.25,1136.84 437.268,1190.43 433.285,1268.24 429.303,1412.34 425.321,1598.84 421.338,1336.43 417.356,1244.33 413.374,1189.45 409.391,1151.81 405.409,1124.37 401.427,1103.82 397.445,1088.36 393.462,1076.92 389.48,1068.8 385.498,1063.54 381.515,1060.83 377.533,1060.47 373.551,1062.32 369.568,1066.31 365.586,1072.41 361.604,1080.65 357.621,1091.09 353.639,1103.85 349.657,1119.1 345.675,1137.09 341.692,1158.15 337.71,1182.73 333.728,1211.49 329.745,1245.32 325.763,1285.6 321.781,1334.42 317.798,1395.36 313.816,1475.08 309.834,1588.62 305.852,1783.91 301.869,10734.1 "/>
<polyline clip-path="url(#clip632)" style="stroke:#e26f46; stroke-linecap:round; stroke-linejoin:round; stroke-width:4; stroke-opacity:1; fill:none" points="2293.02,5478.18 2289.04,1728.24 2285.06,1648.65 2281.07,1604.24 2277.09,1575.37 2273.11,1555.98 2269.13,1543.52 2265.15,1536.82 2261.16,1535.42 2257.18,1539.35 2253.2,1549.17 2249.22,1566.08 2245.23,1592.48 2241.25,1633.41 2237.27,1701.62 2233.29,1850 2229.3,1925.63 2225.32,1701.76 2221.34,1603.82 2217.36,1539.21 2213.38,1490.74 2209.39,1452.04 2205.41,1420.05 2201.43,1393.04 2197.45,1369.96 2193.46,1350.1 2189.48,1333.01 2185.5,1318.33 2181.52,1305.85 2177.53,1295.38 2173.55,1286.82 2169.57,1280.09 2165.59,1275.16 2161.61,1272.03 2157.62,1270.74 2153.64,1271.36 2149.66,1274.02 2145.68,1278.89 2141.69,1286.25 2137.71,1296.47 2133.73,1310.09 2129.75,1327.95 2125.76,1351.35 2121.78,1382.55 2117.8,1425.81 2113.82,1491.11 2109.84,1612.59 2105.85,1931.21 2101.87,1562.6 2097.89,1453.79 2093.91,1387.15 2089.92,1339.05 2085.94,1301.62 2081.96,1271.27 2077.98,1246.05 2073.99,1224.78 2070.01,1206.72 2066.03,1191.37 2062.05,1178.37 2058.07,1167.48 2054.08,1158.52 2050.1,1151.38 2046.12,1145.99 2042.14,1142.31 2038.15,1140.33 2034.17,1140.09 2030.19,1141.67 2026.21,1145.17 2022.22,1150.78 2018.24,1158.72 2014.26,1169.36 2010.28,1183.19 2006.3,1200.96 2002.31,1223.83 1998.33,1253.75 1994.35,1294.32 1990.37,1353.41 1986.38,1454.63 1982.4,1815.61 1978.42,1489.34 1974.44,1360.16 1970.45,1287.12 1966.47,1236.06 1962.49,1197.03 1958.51,1165.73 1954.53,1139.92 1950.54,1118.29 1946.56,1099.99 1942.58,1084.49 1938.6,1071.38 1934.61,1060.42 1930.63,1051.41 1926.65,1044.21 1922.67,1038.76 1918.68,1034.99 1914.7,1032.91 1910.72,1032.54 1906.74,1033.94 1902.76,1037.21 1898.77,1042.51 1894.79,1050.07 1890.81,1060.21 1886.83,1073.37 1882.84,1090.24 1878.86,1111.85 1874.88,1139.91 1870.9,1177.44 1866.91,1230.81 1862.93,1317.13 1858.95,1528.97 1854.97,1440.87 1850.99,1279.49 1847,1197.68 1843.02,1142.46 1839.04,1100.96 1835.06,1067.98 1831.07,1040.92 1827.09,1018.29 1823.11,999.161 1819.13,982.928 1815.14,969.17 1811.16,957.594 1807.18,947.995 1803.2,940.228 1799.22,934.201 1795.23,929.86 1791.25,927.188 1787.27,926.2 1783.29,926.951 1779.3,929.531 1775.32,934.084 1771.34,940.814 1767.36,950.012 1763.37,962.096 1759.39,977.677 1755.41,997.679 1751.43,1023.59 1747.45,1058.02 1743.46,1106.15 1739.48,1180.85 1735.5,1335.11 1731.52,1416.08 1727.53,1197.09 1723.55,1103.6 1719.57,1043.05 1715.59,998.305 1711.6,963.026 1707.62,934.165 1703.64,910.022 1699.66,889.561 1695.68,872.106 1691.69,857.197 1687.71,844.515 1683.73,833.834 1679.75,824.998 1675.76,817.9 1671.78,812.477 1667.8,808.702 1663.82,806.584 1659.83,806.163 1655.85,807.523 1651.87,810.791 1647.89,816.153 1643.91,823.877 1639.92,834.341 1635.94,848.099 1631.96,865.98 1627.98,889.298 1623.99,920.293 1620.01,963.258 1616.03,1028.15 1612.05,1149.12 1608.07,1467.12 1604.08,1097.8 1600.1,988.17 1596.12,920.606 1592.14,871.487 1588.15,832.939 1584.17,801.361 1580.19,774.804 1576.21,752.103 1572.22,732.507 1568.24,715.508 1564.26,700.757 1560.28,688.005 1556.3,677.078 1552.31,667.855 1548.33,660.26 1544.35,654.255 1540.37,649.837 1536.38,647.035 1532.4,645.918 1528.42,646.597 1524.44,649.239 1520.45,654.084 1516.47,661.474 1512.49,671.907 1508.51,686.123 1504.53,705.28 1500.54,731.317 1496.56,767.823 1492.58,822.661 1488.6,919.439 1484.61,1275.78 1480.63,944.636 1476.65,810.365 1472.67,731.99 1468.68,675.345 1464.7,630.454 1460.72,593.003 1456.74,560.73 1452.76,532.297 1448.77,506.845 1444.79,483.792 1440.81,462.722 1436.83,443.328 1432.84,425.377 1428.86,408.689 1424.88,393.119 1420.9,378.551 1416.91,364.89 1412.93,352.057 1408.95,339.985 1404.97,328.618 1400.99,317.909 1397,307.815 1393.02,298.301 1389.04,289.335 1385.06,280.89 1381.07,272.941 1377.09,265.468 1373.11,258.45 1369.13,251.873 1365.14,245.719 1361.16,239.976 1357.18,234.632 1353.2,229.675 1349.22,225.098 1345.23,220.89 1341.25,217.044 1337.27,213.553 1333.29,210.412 1329.3,207.615 1325.32,205.157 1321.34,203.035 1317.36,201.244 1313.37,199.783 1309.39,198.649 1305.41,197.841 1301.43,197.356 1297.45,197.194 1293.46,197.356 1289.48,197.841 1285.5,198.649 1281.52,199.783 1277.53,201.244 1273.55,203.035 1269.57,205.157 1265.59,207.615 1261.6,210.412 1257.62,213.553 1253.64,217.044 1249.66,220.89 1245.68,225.098 1241.69,229.675 1237.71,234.632 1233.73,239.976 1229.75,245.719 1225.76,251.873 1221.78,258.45 1217.8,265.468 1213.82,272.941 1209.83,280.89 1205.85,289.335 1201.87,298.301 1197.89,307.815 1193.91,317.909 1189.92,328.618 1185.94,339.985 1181.96,352.057 1177.98,364.89 1173.99,378.551 1170.01,393.119 1166.03,408.689 1162.05,425.377 1158.06,443.328 1154.08,462.722 1150.1,483.792 1146.12,506.845 1142.14,532.297 1138.15,560.73 1134.17,593.003 1130.19,630.454 1126.21,675.345 1122.22,731.99 1118.24,810.365 1114.26,944.636 1110.28,1275.78 1106.29,919.439 1102.31,822.661 1098.33,767.823 1094.35,731.317 1090.37,705.28 1086.38,686.123 1082.4,671.907 1078.42,661.474 1074.44,654.084 1070.45,649.239 1066.47,646.597 1062.49,645.918 1058.51,647.035 1054.52,649.837 1050.54,654.255 1046.56,660.26 1042.58,667.855 1038.6,677.078 1034.61,688.005 1030.63,700.757 1026.65,715.508 1022.67,732.507 1018.68,752.103 1014.7,774.804 1010.72,801.361 1006.74,832.939 1002.75,871.487 998.772,920.606 994.79,988.17 990.808,1097.8 986.826,1467.12 982.843,1149.12 978.861,1028.15 974.879,963.258 970.896,920.293 966.914,889.298 962.932,865.98 958.949,848.099 954.967,834.341 950.985,823.877 947.003,816.153 943.02,810.791 939.038,807.523 935.056,806.163 931.073,806.584 927.091,808.702 923.109,812.477 919.126,817.9 915.144,824.998 911.162,833.834 907.179,844.515 903.197,857.197 899.215,872.106 895.233,889.561 891.25,910.022 887.268,934.165 883.286,963.026 879.303,998.305 875.321,1043.05 871.339,1103.6 867.356,1197.09 863.374,1416.08 859.392,1335.11 855.41,1180.85 851.427,1106.15 847.445,1058.02 843.463,1023.59 839.48,997.679 835.498,977.677 831.516,962.096 827.533,950.012 823.551,940.814 819.569,934.084 815.586,929.531 811.604,926.951 807.622,926.2 803.64,927.188 799.657,929.86 795.675,934.201 791.693,940.228 787.71,947.995 783.728,957.594 779.746,969.17 775.763,982.928 771.781,999.161 767.799,1018.29 763.817,1040.92 759.834,1067.98 755.852,1100.96 751.87,1142.46 747.887,1197.68 743.905,1279.49 739.923,1440.87 735.94,1528.97 731.958,1317.13 727.976,1230.81 723.993,1177.44 720.011,1139.91 716.029,1111.85 712.047,1090.24 708.064,1073.37 704.082,1060.21 700.1,1050.07 696.117,1042.51 692.135,1037.21 688.153,1033.94 684.17,1032.54 680.188,1032.91 676.206,1034.99 672.224,1038.76 668.241,1044.21 664.259,1051.41 660.277,1060.42 656.294,1071.38 652.312,1084.49 648.33,1099.99 644.347,1118.29 640.365,1139.92 636.383,1165.73 632.4,1197.03 628.418,1236.06 624.436,1287.12 620.454,1360.16 616.471,1489.34 612.489,1815.61 608.507,1454.63 604.524,1353.41 600.542,1294.32 596.56,1253.75 592.577,1223.83 588.595,1200.96 584.613,1183.19 580.631,1169.36 576.648,1158.72 572.666,1150.78 568.684,1145.17 564.701,1141.67 560.719,1140.09 556.737,1140.33 552.754,1142.31 548.772,1145.99 544.79,1151.38 540.807,1158.52 536.825,1167.48 532.843,1178.37 528.861,1191.37 524.878,1206.72 520.896,1224.78 516.914,1246.05 512.931,1271.27 508.949,1301.62 504.967,1339.05 500.984,1387.15 497.002,1453.79 493.02,1562.6 489.038,1931.21 485.055,1612.59 481.073,1491.11 477.091,1425.81 473.108,1382.55 469.126,1351.35 465.144,1327.95 461.161,1310.09 457.179,1296.47 453.197,1286.25 449.214,1278.89 445.232,1274.02 441.25,1271.36 437.268,1270.74 433.285,1272.03 429.303,1275.16 425.321,1280.09 421.338,1286.82 417.356,1295.38 413.374,1305.85 409.391,1318.33 405.409,1333.01 401.427,1350.1 397.445,1369.96 393.462,1393.04 389.48,1420.05 385.498,1452.04 381.515,1490.74 377.533,1539.21 373.551,1603.82 369.568,1701.76 365.586,1925.63 361.604,1850 357.621,1701.62 353.639,1633.41 349.657,1592.48 345.675,1566.08 341.692,1549.17 337.71,1539.35 333.728,1535.42 329.745,1536.82 325.763,1543.52 321.781,1555.98 317.798,1575.37 313.816,1604.24 309.834,1648.65 305.852,1728.24 301.869,5478.18 "/>
<polyline clip-path="url(#clip632)" style="stroke:#3da44d; stroke-linecap:round; stroke-linejoin:round; stroke-width:4; stroke-opacity:1; fill:none" points="2293.02,10774.3 2289.04,2401.01 2285.06,2204.28 2281.07,2089.29 2277.09,2008.11 2273.11,1945.72 2269.13,1895.43 2265.15,1853.68 2261.16,1818.36 2257.18,1788.12 2253.2,1762.04 2249.22,1739.49 2245.23,1719.99 2241.25,1703.23 2237.27,1688.95 2233.29,1676.98 2229.3,1667.2 2225.32,1659.56 2221.34,1654.02 2217.36,1650.62 2213.38,1649.42 2209.39,1650.55 2205.41,1654.24 2201.43,1660.77 2197.45,1670.62 2193.46,1684.47 2189.48,1703.42 2185.5,1729.25 2181.52,1765.27 2177.53,1818.51 2173.55,1908.98 2169.57,2169.73 2165.59,1981.58 2161.61,1835.82 2157.62,1756.34 2153.64,1701.07 2149.66,1658.7 2145.68,1624.53 2141.69,1596.13 2137.71,1572.09 2133.73,1551.55 2129.75,1533.9 2125.76,1518.76 2121.78,1505.83 2117.8,1494.92 2113.82,1485.89 2109.84,1478.65 2105.85,1473.14 2101.87,1469.36 2097.89,1467.31 2093.91,1467.07 2089.92,1468.72 2085.94,1472.4 2081.96,1478.34 2077.98,1486.84 2073.99,1498.33 2070.01,1513.46 2066.03,1533.2 2062.05,1559.13 2058.07,1594.08 2054.08,1643.76 2050.1,1722.97 2046.12,1900.34 2042.14,1895.9 2038.15,1709.64 2034.17,1621.55 2030.19,1562.98 2026.21,1519.13 2022.22,1484.29 2018.24,1455.63 2014.26,1431.57 2010.28,1411.13 2006.3,1393.66 2002.31,1378.72 1998.33,1366.01 1994.35,1355.32 1990.37,1346.49 1986.38,1339.42 1982.4,1334.06 1978.42,1330.39 1974.44,1328.4 1970.45,1328.17 1966.47,1329.76 1962.49,1333.31 1958.51,1339.03 1954.53,1347.19 1950.54,1358.19 1946.56,1372.6 1942.58,1391.31 1938.6,1415.72 1934.61,1448.23 1930.63,1493.56 1926.65,1562.99 1922.67,1698.62 1918.68,1876.51 1914.7,1605.38 1910.72,1504.41 1906.74,1440.53 1902.76,1393.73 1898.77,1356.95 1894.79,1326.89 1890.81,1301.73 1886.83,1280.37 1882.84,1262.1 1878.86,1246.44 1874.88,1233.06 1870.9,1221.72 1866.91,1212.26 1862.93,1204.56 1858.95,1198.56 1854.97,1194.22 1850.99,1191.56 1847,1190.6 1843.02,1191.43 1839.04,1194.17 1835.06,1198.99 1831.07,1206.16 1827.09,1216.03 1823.11,1229.14 1819.13,1246.26 1815.14,1268.64 1811.16,1298.37 1807.18,1339.36 1803.2,1400.45 1799.22,1509.84 1795.23,6295.31 1791.25,1500.07 1787.27,1380.92 1783.29,1310.05 1779.3,1259.28 1775.32,1219.77 1771.34,1187.6 1767.36,1160.67 1763.37,1137.76 1759.39,1118.06 1755.41,1101.06 1751.43,1086.38 1747.45,1073.77 1743.46,1063.05 1739.48,1054.09 1735.5,1046.83 1731.52,1041.2 1727.53,1037.22 1723.55,1034.91 1719.57,1034.33 1715.59,1035.6 1711.6,1038.88 1707.62,1044.4 1703.64,1052.49 1699.66,1063.63 1695.68,1078.54 1691.69,1098.3 1687.71,1124.73 1683.73,1161.14 1679.75,1214.58 1675.76,1305.05 1671.78,1565.63 1667.8,1377.13 1663.82,1230.84 1659.83,1150.67 1655.85,1094.55 1651.87,1051.17 1647.89,1015.83 1643.91,986.112 1639.92,960.611 1635.94,938.448 1631.96,919.039 1627.98,901.982 1623.99,886.995 1620.01,873.877 1616.03,862.49 1612.05,852.741 1608.07,844.579 1604.08,837.986 1600.1,832.981 1596.12,829.615 1592.14,827.983 1588.15,828.228 1584.17,830.561 1580.19,835.281 1576.21,842.817 1572.22,853.806 1568.24,869.22 1564.26,890.64 1560.28,920.872 1556.3,965.628 1552.31,1039.7 1548.33,1211.7 1544.35,1201.66 1540.37,1009.56 1536.38,915.356 1532.4,850.401 1528.42,799.88 1524.44,758.052 1520.45,722.083 1516.47,690.36 1512.49,661.878 1508.51,635.966 1504.53,612.153 1500.54,590.098 1496.56,569.541 1492.58,550.284 1488.6,532.17 1484.61,515.072 1480.63,498.887 1476.65,483.529 1472.67,468.928 1468.68,455.022 1464.7,441.759 1460.72,429.097 1456.74,416.994 1452.76,405.418 1448.77,394.338 1444.79,383.729 1440.81,373.567 1436.83,363.831 1432.84,354.501 1428.86,345.562 1424.88,336.999 1420.9,328.796 1416.91,320.942 1412.93,313.425 1408.95,306.234 1404.97,299.361 1400.99,292.797 1397,286.532 1393.02,280.561 1389.04,274.876 1385.06,269.471 1381.07,264.34 1377.09,259.478 1373.11,254.881 1369.13,250.542 1365.14,246.46 1361.16,242.629 1357.18,239.046 1353.2,235.708 1349.22,232.612 1345.23,229.755 1341.25,227.136 1337.27,224.751 1333.29,222.599 1329.3,220.678 1325.32,218.987 1321.34,217.524 1317.36,216.288 1313.37,215.278 1309.39,214.493 1305.41,213.933 1301.43,213.597 1297.45,213.485 1293.46,213.597 1289.48,213.933 1285.5,214.493 1281.52,215.278 1277.53,216.288 1273.55,217.524 1269.57,218.987 1265.59,220.678 1261.6,222.599 1257.62,224.751 1253.64,227.136 1249.66,229.755 1245.68,232.612 1241.69,235.708 1237.71,239.046 1233.73,242.629 1229.75,246.46 1225.76,250.542 1221.78,254.881 1217.8,259.478 1213.82,264.34 1209.83,269.471 1205.85,274.876 1201.87,280.561 1197.89,286.532 1193.91,292.797 1189.92,299.361 1185.94,306.234 1181.96,313.425 1177.98,320.942 1173.99,328.796 1170.01,336.999 1166.03,345.562 1162.05,354.501 1158.06,363.831 1154.08,373.567 1150.1,383.729 1146.12,394.338 1142.14,405.418 1138.15,416.994 1134.17,429.097 1130.19,441.759 1126.21,455.022 1122.22,468.928 1118.24,483.529 1114.26,498.887 1110.28,515.072 1106.29,532.17 1102.31,550.284 1098.33,569.541 1094.35,590.098 1090.37,612.153 1086.38,635.966 1082.4,661.878 1078.42,690.36 1074.44,722.083 1070.45,758.052 1066.47,799.88 1062.49,850.401 1058.51,915.356 1054.52,1009.56 1050.54,1201.66 1046.56,1211.7 1042.58,1039.7 1038.6,965.628 1034.61,920.872 1030.63,890.64 1026.65,869.22 1022.67,853.806 1018.68,842.817 1014.7,835.281 1010.72,830.561 1006.74,828.228 1002.75,827.983 998.772,829.615 994.79,832.981 990.808,837.986 986.826,844.579 982.843,852.741 978.861,862.49 974.879,873.877 970.896,886.995 966.914,901.982 962.932,919.039 958.949,938.448 954.967,960.611 950.985,986.112 947.003,1015.83 943.02,1051.17 939.038,1094.55 935.056,1150.67 931.073,1230.84 927.091,1377.13 923.109,1565.63 919.126,1305.05 915.144,1214.58 911.162,1161.14 907.179,1124.73 903.197,1098.3 899.215,1078.54 895.233,1063.63 891.25,1052.49 887.268,1044.4 883.286,1038.88 879.303,1035.6 875.321,1034.33 871.339,1034.91 867.356,1037.22 863.374,1041.2 859.392,1046.83 855.41,1054.09 851.427,1063.05 847.445,1073.77 843.463,1086.38 839.48,1101.06 835.498,1118.06 831.516,1137.76 827.533,1160.67 823.551,1187.6 819.569,1219.77 815.586,1259.28 811.604,1310.05 807.622,1380.92 803.64,1500.07 799.657,6295.31 795.675,1509.84 791.693,1400.45 787.71,1339.36 783.728,1298.37 779.746,1268.64 775.763,1246.26 771.781,1229.14 767.799,1216.03 763.817,1206.16 759.834,1198.99 755.852,1194.17 751.87,1191.43 747.887,1190.6 743.905,1191.56 739.923,1194.22 735.94,1198.56 731.958,1204.56 727.976,1212.26 723.993,1221.72 720.011,1233.06 716.029,1246.44 712.047,1262.1 708.064,1280.37 704.082,1301.73 700.1,1326.89 696.117,1356.95 692.135,1393.73 688.153,1440.53 684.17,1504.41 680.188,1605.38 676.206,1876.51 672.224,1698.62 668.241,1562.99 664.259,1493.56 660.277,1448.23 656.294,1415.72 652.312,1391.31 648.33,1372.6 644.347,1358.19 640.365,1347.19 636.383,1339.03 632.4,1333.31 628.418,1329.76 624.436,1328.17 620.454,1328.4 616.471,1330.39 612.489,1334.06 608.507,1339.42 604.524,1346.49 600.542,1355.32 596.56,1366.01 592.577,1378.72 588.595,1393.66 584.613,1411.13 580.631,1431.57 576.648,1455.63 572.666,1484.29 568.684,1519.13 564.701,1562.98 560.719,1621.55 556.737,1709.64 552.754,1895.9 548.772,1900.34 544.79,1722.97 540.807,1643.76 536.825,1594.08 532.843,1559.13 528.861,1533.2 524.878,1513.46 520.896,1498.33 516.914,1486.84 512.931,1478.34 508.949,1472.4 504.967,1468.72 500.984,1467.07 497.002,1467.31 493.02,1469.36 489.038,1473.14 485.055,1478.65 481.073,1485.89 477.091,1494.92 473.108,1505.83 469.126,1518.76 465.144,1533.9 461.161,1551.55 457.179,1572.09 453.197,1596.13 449.214,1624.53 445.232,1658.7 441.25,1701.07 437.268,1756.34 433.285,1835.82 429.303,1981.58 425.321,2169.73 421.338,1908.98 417.356,1818.51 413.374,1765.27 409.391,1729.25 405.409,1703.42 401.427,1684.47 397.445,1670.62 393.462,1660.77 389.48,1654.24 385.498,1650.55 381.515,1649.42 377.533,1650.62 373.551,1654.02 369.568,1659.56 365.586,1667.2 361.604,1676.98 357.621,1688.95 353.639,1703.23 349.657,1719.99 345.675,1739.49 341.692,1762.04 337.71,1788.12 333.728,1818.36 329.745,1853.68 325.763,1895.43 321.781,1945.72 317.798,2008.11 313.816,2089.29 309.834,2204.28 305.852,2401.01 301.869,10774.3 "/>
<path clip-path="url(#clip630)" d="M1648.03 374.156 L2282.4 374.156 L2282.4 166.796 L1648.03 166.796  Z" fill="#ffffff" fill-rule="evenodd" fill-opacity="1"/>
<polyline clip-path="url(#clip630)" style="stroke:#000000; stroke-linecap:round; stroke-linejoin:round; stroke-width:4; stroke-opacity:1; fill:none" points="1648.03,374.156 2282.4,374.156 2282.4,166.796 1648.03,166.796 1648.03,374.156 "/>
<polyline clip-path="url(#clip630)" style="stroke:#009af9; stroke-linecap:round; stroke-linejoin:round; stroke-width:4; stroke-opacity:1; fill:none" points="1671.48,218.636 1812.19,218.636 "/>
<path clip-path="url(#clip630)" d="M1835.64 201.356 L1864.88 201.356 L1864.88 205.291 L1852.61 205.291 L1852.61 235.916 L1847.91 235.916 L1847.91 205.291 L1835.64 205.291 L1835.64 201.356 Z" fill="#000000" fill-rule="nonzero" fill-opacity="1" /><path clip-path="url(#clip630)" d="M1873.14 222.883 Q1867.98 222.883 1865.99 224.064 Q1864 225.244 1864 228.092 Q1864 230.36 1865.48 231.703 Q1866.99 233.022 1869.55 233.022 Q1873.1 233.022 1875.23 230.522 Q1877.38 227.999 1877.38 223.832 L1877.38 222.883 L1873.14 222.883 M1881.64 221.124 L1881.64 235.916 L1877.38 235.916 L1877.38 231.981 Q1875.92 234.342 1873.74 235.476 Q1871.57 236.587 1868.42 236.587 Q1864.44 236.587 1862.08 234.365 Q1859.74 232.119 1859.74 228.369 Q1859.74 223.994 1862.66 221.772 Q1865.6 219.55 1871.41 219.55 L1877.38 219.55 L1877.38 219.133 Q1877.38 216.194 1875.43 214.596 Q1873.51 212.976 1870.02 212.976 Q1867.8 212.976 1865.69 213.508 Q1863.58 214.041 1861.64 215.106 L1861.64 211.17 Q1863.98 210.268 1866.17 209.828 Q1868.37 209.365 1870.46 209.365 Q1876.08 209.365 1878.86 212.282 Q1881.64 215.198 1881.64 221.124 Z" fill="#000000" fill-rule="nonzero" fill-opacity="1" /><path clip-path="url(#clip630)" d="M1901.2 238.323 Q1899.39 242.953 1897.68 244.365 Q1895.97 245.777 1893.1 245.777 L1889.69 245.777 L1889.69 242.212 L1892.19 242.212 Q1893.95 242.212 1894.92 241.379 Q1895.9 240.545 1897.08 237.443 L1897.84 235.499 L1887.36 209.99 L1891.87 209.99 L1899.97 230.268 L1908.07 209.99 L1912.59 209.99 L1901.2 238.323 Z" fill="#000000" fill-rule="nonzero" fill-opacity="1" /><path clip-path="url(#clip630)" d="M1918.47 199.897 L1922.73 199.897 L1922.73 235.916 L1918.47 235.916 L1918.47 199.897 Z" fill="#000000" fill-rule="nonzero" fill-opacity="1" /><path clip-path="url(#clip630)" d="M1941.68 212.976 Q1938.26 212.976 1936.27 215.661 Q1934.28 218.323 1934.28 222.976 Q1934.28 227.629 1936.24 230.314 Q1938.23 232.976 1941.68 232.976 Q1945.09 232.976 1947.08 230.291 Q1949.07 227.606 1949.07 222.976 Q1949.07 218.37 1947.08 215.684 Q1945.09 212.976 1941.68 212.976 M1941.68 209.365 Q1947.24 209.365 1950.41 212.976 Q1953.58 216.587 1953.58 222.976 Q1953.58 229.342 1950.41 232.976 Q1947.24 236.587 1941.68 236.587 Q1936.11 236.587 1932.93 232.976 Q1929.79 229.342 1929.79 222.976 Q1929.79 216.587 1932.93 212.976 Q1936.11 209.365 1941.68 209.365 Z" fill="#000000" fill-rule="nonzero" fill-opacity="1" /><path clip-path="url(#clip630)" d="M1975.66 213.971 Q1974.95 213.555 1974.09 213.37 Q1973.26 213.161 1972.24 213.161 Q1968.63 213.161 1966.68 215.522 Q1964.76 217.86 1964.76 222.258 L1964.76 235.916 L1960.48 235.916 L1960.48 209.99 L1964.76 209.99 L1964.76 214.018 Q1966.1 211.657 1968.26 210.522 Q1970.41 209.365 1973.49 209.365 Q1973.93 209.365 1974.46 209.434 Q1974.99 209.481 1975.64 209.596 L1975.66 213.971 Z" fill="#000000" fill-rule="nonzero" fill-opacity="1" /><path clip-path="url(#clip630)" d="M1992.73 209.99 L1996.98 209.99 L2002.31 230.221 L2007.61 209.99 L2012.63 209.99 L2017.96 230.221 L2023.26 209.99 L2027.52 209.99 L2020.73 235.916 L2015.71 235.916 L2010.13 214.666 L2004.53 235.916 L1999.51 235.916 L1992.73 209.99 Z" fill="#000000" fill-rule="nonzero" fill-opacity="1" /><path clip-path="url(#clip630)" d="M2056.15 221.888 L2056.15 223.971 L2036.57 223.971 Q2036.85 228.369 2039.21 230.684 Q2041.59 232.976 2045.83 232.976 Q2048.28 232.976 2050.57 232.374 Q2052.89 231.772 2055.16 230.569 L2055.16 234.596 Q2052.86 235.568 2050.46 236.078 Q2048.05 236.587 2045.57 236.587 Q2039.37 236.587 2035.73 232.976 Q2032.12 229.365 2032.12 223.207 Q2032.12 216.842 2035.55 213.115 Q2039 209.365 2044.83 209.365 Q2050.06 209.365 2053.1 212.745 Q2056.15 216.101 2056.15 221.888 M2051.89 220.638 Q2051.85 217.143 2049.92 215.059 Q2048.03 212.976 2044.88 212.976 Q2041.31 212.976 2039.16 214.99 Q2037.03 217.004 2036.71 220.661 L2051.89 220.638 Z" fill="#000000" fill-rule="nonzero" fill-opacity="1" /><path clip-path="url(#clip630)" d="M2063.14 209.99 L2067.4 209.99 L2067.4 235.916 L2063.14 235.916 L2063.14 209.99 M2063.14 199.897 L2067.4 199.897 L2067.4 205.291 L2063.14 205.291 L2063.14 199.897 Z" fill="#000000" fill-rule="nonzero" fill-opacity="1" /><path clip-path="url(#clip630)" d="M2093.37 222.652 Q2093.37 218.022 2091.45 215.476 Q2089.55 212.93 2086.1 212.93 Q2082.68 212.93 2080.76 215.476 Q2078.86 218.022 2078.86 222.652 Q2078.86 227.258 2080.76 229.805 Q2082.68 232.351 2086.1 232.351 Q2089.55 232.351 2091.45 229.805 Q2093.37 227.258 2093.37 222.652 M2097.63 232.698 Q2097.63 239.318 2094.69 242.536 Q2091.75 245.777 2085.69 245.777 Q2083.44 245.777 2081.45 245.43 Q2079.46 245.105 2077.59 244.411 L2077.59 240.268 Q2079.46 241.286 2081.29 241.772 Q2083.12 242.258 2085.02 242.258 Q2089.21 242.258 2091.29 240.059 Q2093.37 237.883 2093.37 233.462 L2093.37 231.356 Q2092.05 233.647 2089.99 234.781 Q2087.93 235.916 2085.06 235.916 Q2080.29 235.916 2077.38 232.281 Q2074.46 228.647 2074.46 222.652 Q2074.46 216.633 2077.38 212.999 Q2080.29 209.365 2085.06 209.365 Q2087.93 209.365 2089.99 210.499 Q2092.05 211.633 2093.37 213.925 L2093.37 209.99 L2097.63 209.99 L2097.63 232.698 Z" fill="#000000" fill-rule="nonzero" fill-opacity="1" /><path clip-path="url(#clip630)" d="M2127.96 220.268 L2127.96 235.916 L2123.7 235.916 L2123.7 220.407 Q2123.7 216.726 2122.26 214.897 Q2120.83 213.069 2117.96 213.069 Q2114.51 213.069 2112.52 215.268 Q2110.53 217.467 2110.53 221.263 L2110.53 235.916 L2106.24 235.916 L2106.24 199.897 L2110.53 199.897 L2110.53 214.018 Q2112.05 211.68 2114.11 210.522 Q2116.2 209.365 2118.9 209.365 Q2123.37 209.365 2125.66 212.143 Q2127.96 214.897 2127.96 220.268 Z" fill="#000000" fill-rule="nonzero" fill-opacity="1" /><path clip-path="url(#clip630)" d="M2140.66 202.629 L2140.66 209.99 L2149.44 209.99 L2149.44 213.3 L2140.66 213.3 L2140.66 227.374 Q2140.66 230.545 2141.52 231.448 Q2142.4 232.351 2145.06 232.351 L2149.44 232.351 L2149.44 235.916 L2145.06 235.916 Q2140.13 235.916 2138.26 234.087 Q2136.38 232.235 2136.38 227.374 L2136.38 213.3 L2133.26 213.3 L2133.26 209.99 L2136.38 209.99 L2136.38 202.629 L2140.66 202.629 Z" fill="#000000" fill-rule="nonzero" fill-opacity="1" /><path clip-path="url(#clip630)" d="M2177.21 221.888 L2177.21 223.971 L2157.63 223.971 Q2157.91 228.369 2160.27 230.684 Q2162.65 232.976 2166.89 232.976 Q2169.34 232.976 2171.64 232.374 Q2173.95 231.772 2176.22 230.569 L2176.22 234.596 Q2173.93 235.568 2171.52 236.078 Q2169.11 236.587 2166.64 236.587 Q2160.43 236.587 2156.8 232.976 Q2153.19 229.365 2153.19 223.207 Q2153.19 216.842 2156.61 213.115 Q2160.06 209.365 2165.9 209.365 Q2171.13 209.365 2174.16 212.745 Q2177.21 216.101 2177.21 221.888 M2172.96 220.638 Q2172.91 217.143 2170.99 215.059 Q2169.09 212.976 2165.94 212.976 Q2162.38 212.976 2160.22 214.99 Q2158.09 217.004 2157.77 220.661 L2172.96 220.638 Z" fill="#000000" fill-rule="nonzero" fill-opacity="1" /><path clip-path="url(#clip630)" d="M2201.27 213.925 L2201.27 199.897 L2205.52 199.897 L2205.52 235.916 L2201.27 235.916 L2201.27 232.027 Q2199.92 234.342 2197.86 235.476 Q2195.83 236.587 2192.96 236.587 Q2188.26 236.587 2185.29 232.837 Q2182.35 229.087 2182.35 222.976 Q2182.35 216.865 2185.29 213.115 Q2188.26 209.365 2192.96 209.365 Q2195.83 209.365 2197.86 210.499 Q2199.92 211.61 2201.27 213.925 M2186.75 222.976 Q2186.75 227.675 2188.67 230.36 Q2190.62 233.022 2194 233.022 Q2197.38 233.022 2199.32 230.36 Q2201.27 227.675 2201.27 222.976 Q2201.27 218.277 2199.32 215.615 Q2197.38 212.93 2194 212.93 Q2190.62 212.93 2188.67 215.615 Q2186.75 218.277 2186.75 222.976 Z" fill="#000000" fill-rule="nonzero" fill-opacity="1" /><polyline clip-path="url(#clip630)" style="stroke:#e26f46; stroke-linecap:round; stroke-linejoin:round; stroke-width:4; stroke-opacity:1; fill:none" points="1671.48,270.476 1812.19,270.476 "/>
<path clip-path="url(#clip630)" d="M1863.51 255.858 L1863.51 260.788 Q1861.15 258.589 1858.47 257.501 Q1855.8 256.413 1852.8 256.413 Q1846.87 256.413 1843.72 260.048 Q1840.57 263.659 1840.57 270.51 Q1840.57 277.339 1843.72 280.973 Q1846.87 284.584 1852.8 284.584 Q1855.8 284.584 1858.47 283.496 Q1861.15 282.409 1863.51 280.209 L1863.51 285.094 Q1861.06 286.76 1858.3 287.594 Q1855.57 288.427 1852.52 288.427 Q1844.67 288.427 1840.16 283.635 Q1835.64 278.821 1835.64 270.51 Q1835.64 262.177 1840.16 257.386 Q1844.67 252.571 1852.52 252.571 Q1855.62 252.571 1858.35 253.404 Q1861.11 254.214 1863.51 255.858 Z" fill="#000000" fill-rule="nonzero" fill-opacity="1" /><path clip-path="url(#clip630)" d="M1880.6 264.816 Q1877.17 264.816 1875.18 267.501 Q1873.19 270.163 1873.19 274.816 Q1873.19 279.469 1875.16 282.154 Q1877.15 284.816 1880.6 284.816 Q1884 284.816 1885.99 282.131 Q1887.98 279.446 1887.98 274.816 Q1887.98 270.21 1885.99 267.524 Q1884 264.816 1880.6 264.816 M1880.6 261.205 Q1886.15 261.205 1889.32 264.816 Q1892.49 268.427 1892.49 274.816 Q1892.49 281.182 1889.32 284.816 Q1886.15 288.427 1880.6 288.427 Q1875.02 288.427 1871.85 284.816 Q1868.7 281.182 1868.7 274.816 Q1868.7 268.427 1871.85 264.816 Q1875.02 261.205 1880.6 261.205 Z" fill="#000000" fill-rule="nonzero" fill-opacity="1" /><path clip-path="url(#clip630)" d="M1916.08 262.594 L1916.08 266.622 Q1914.28 265.696 1912.33 265.233 Q1910.39 264.77 1908.3 264.77 Q1905.13 264.77 1903.54 265.742 Q1901.96 266.714 1901.96 268.659 Q1901.96 270.14 1903.1 270.997 Q1904.23 271.83 1907.66 272.594 L1909.11 272.918 Q1913.65 273.89 1915.55 275.672 Q1917.47 277.432 1917.47 280.603 Q1917.47 284.214 1914.6 286.321 Q1911.75 288.427 1906.75 288.427 Q1904.67 288.427 1902.4 288.01 Q1900.16 287.617 1897.66 286.807 L1897.66 282.409 Q1900.02 283.635 1902.31 284.26 Q1904.6 284.862 1906.85 284.862 Q1909.86 284.862 1911.48 283.844 Q1913.1 282.802 1913.1 280.927 Q1913.1 279.191 1911.92 278.265 Q1910.76 277.339 1906.8 276.483 L1905.32 276.135 Q1901.36 275.302 1899.6 273.589 Q1897.84 271.853 1897.84 268.844 Q1897.84 265.186 1900.43 263.196 Q1903.03 261.205 1907.79 261.205 Q1910.16 261.205 1912.24 261.552 Q1914.32 261.899 1916.08 262.594 Z" fill="#000000" fill-rule="nonzero" fill-opacity="1" /><path clip-path="url(#clip630)" d="M1924.25 261.83 L1928.51 261.83 L1928.51 287.756 L1924.25 287.756 L1924.25 261.83 M1924.25 251.737 L1928.51 251.737 L1928.51 257.131 L1924.25 257.131 L1924.25 251.737 Z" fill="#000000" fill-rule="nonzero" fill-opacity="1" /><path clip-path="url(#clip630)" d="M1958.98 272.108 L1958.98 287.756 L1954.72 287.756 L1954.72 272.247 Q1954.72 268.566 1953.28 266.737 Q1951.85 264.909 1948.98 264.909 Q1945.53 264.909 1943.54 267.108 Q1941.54 269.307 1941.54 273.103 L1941.54 287.756 L1937.26 287.756 L1937.26 261.83 L1941.54 261.83 L1941.54 265.858 Q1943.07 263.52 1945.13 262.362 Q1947.22 261.205 1949.92 261.205 Q1954.39 261.205 1956.68 263.983 Q1958.98 266.737 1958.98 272.108 Z" fill="#000000" fill-rule="nonzero" fill-opacity="1" /><path clip-path="url(#clip630)" d="M1989.65 273.728 L1989.65 275.811 L1970.06 275.811 Q1970.34 280.209 1972.7 282.524 Q1975.09 284.816 1979.32 284.816 Q1981.78 284.816 1984.07 284.214 Q1986.38 283.612 1988.65 282.409 L1988.65 286.436 Q1986.36 287.408 1983.95 287.918 Q1981.54 288.427 1979.07 288.427 Q1972.86 288.427 1969.23 284.816 Q1965.62 281.205 1965.62 275.047 Q1965.62 268.682 1969.04 264.955 Q1972.49 261.205 1978.33 261.205 Q1983.56 261.205 1986.59 264.585 Q1989.65 267.941 1989.65 273.728 M1985.39 272.478 Q1985.34 268.983 1983.42 266.899 Q1981.52 264.816 1978.37 264.816 Q1974.81 264.816 1972.66 266.83 Q1970.53 268.844 1970.2 272.501 L1985.39 272.478 Z" fill="#000000" fill-rule="nonzero" fill-opacity="1" /><path clip-path="url(#clip630)" d="M2009.23 261.83 L2013.49 261.83 L2018.81 282.061 L2024.11 261.83 L2029.14 261.83 L2034.46 282.061 L2039.76 261.83 L2044.02 261.83 L2037.24 287.756 L2032.22 287.756 L2026.64 266.506 L2021.04 287.756 L2016.01 287.756 L2009.23 261.83 Z" fill="#000000" fill-rule="nonzero" fill-opacity="1" /><path clip-path="url(#clip630)" d="M2072.66 273.728 L2072.66 275.811 L2053.07 275.811 Q2053.35 280.209 2055.71 282.524 Q2058.1 284.816 2062.33 284.816 Q2064.78 284.816 2067.08 284.214 Q2069.39 283.612 2071.66 282.409 L2071.66 286.436 Q2069.37 287.408 2066.96 287.918 Q2064.55 288.427 2062.08 288.427 Q2055.87 288.427 2052.24 284.816 Q2048.63 281.205 2048.63 275.047 Q2048.63 268.682 2052.05 264.955 Q2055.5 261.205 2061.34 261.205 Q2066.57 261.205 2069.6 264.585 Q2072.66 267.941 2072.66 273.728 M2068.4 272.478 Q2068.35 268.983 2066.43 266.899 Q2064.53 264.816 2061.38 264.816 Q2057.82 264.816 2055.66 266.83 Q2053.53 268.844 2053.21 272.501 L2068.4 272.478 Z" fill="#000000" fill-rule="nonzero" fill-opacity="1" /><path clip-path="url(#clip630)" d="M2079.65 261.83 L2083.91 261.83 L2083.91 287.756 L2079.65 287.756 L2079.65 261.83 M2079.65 251.737 L2083.91 251.737 L2083.91 257.131 L2079.65 257.131 L2079.65 251.737 Z" fill="#000000" fill-rule="nonzero" fill-opacity="1" /><path clip-path="url(#clip630)" d="M2109.88 274.492 Q2109.88 269.862 2107.96 267.316 Q2106.06 264.77 2102.61 264.77 Q2099.18 264.77 2097.26 267.316 Q2095.36 269.862 2095.36 274.492 Q2095.36 279.098 2097.26 281.645 Q2099.18 284.191 2102.61 284.191 Q2106.06 284.191 2107.96 281.645 Q2109.88 279.098 2109.88 274.492 M2114.14 284.538 Q2114.14 291.158 2111.2 294.376 Q2108.26 297.617 2102.19 297.617 Q2099.95 297.617 2097.96 297.27 Q2095.97 296.945 2094.09 296.251 L2094.09 292.108 Q2095.97 293.126 2097.79 293.612 Q2099.62 294.098 2101.52 294.098 Q2105.71 294.098 2107.79 291.899 Q2109.88 289.723 2109.88 285.302 L2109.88 283.196 Q2108.56 285.487 2106.5 286.621 Q2104.44 287.756 2101.57 287.756 Q2096.8 287.756 2093.88 284.121 Q2090.97 280.487 2090.97 274.492 Q2090.97 268.473 2093.88 264.839 Q2096.8 261.205 2101.57 261.205 Q2104.44 261.205 2106.5 262.339 Q2108.56 263.473 2109.88 265.765 L2109.88 261.83 L2114.14 261.83 L2114.14 284.538 Z" fill="#000000" fill-rule="nonzero" fill-opacity="1" /><path clip-path="url(#clip630)" d="M2144.46 272.108 L2144.46 287.756 L2140.2 287.756 L2140.2 272.247 Q2140.2 268.566 2138.77 266.737 Q2137.33 264.909 2134.46 264.909 Q2131.01 264.909 2129.02 267.108 Q2127.03 269.307 2127.03 273.103 L2127.03 287.756 L2122.75 287.756 L2122.75 251.737 L2127.03 251.737 L2127.03 265.858 Q2128.56 263.52 2130.62 262.362 Q2132.7 261.205 2135.41 261.205 Q2139.88 261.205 2142.17 263.983 Q2144.46 266.737 2144.46 272.108 Z" fill="#000000" fill-rule="nonzero" fill-opacity="1" /><path clip-path="url(#clip630)" d="M2157.17 254.469 L2157.17 261.83 L2165.94 261.83 L2165.94 265.14 L2157.17 265.14 L2157.17 279.214 Q2157.17 282.385 2158.03 283.288 Q2158.9 284.191 2161.57 284.191 L2165.94 284.191 L2165.94 287.756 L2161.57 287.756 Q2156.64 287.756 2154.76 285.927 Q2152.89 284.075 2152.89 279.214 L2152.89 265.14 L2149.76 265.14 L2149.76 261.83 L2152.89 261.83 L2152.89 254.469 L2157.17 254.469 Z" fill="#000000" fill-rule="nonzero" fill-opacity="1" /><path clip-path="url(#clip630)" d="M2193.72 273.728 L2193.72 275.811 L2174.14 275.811 Q2174.41 280.209 2176.78 282.524 Q2179.16 284.816 2183.4 284.816 Q2185.85 284.816 2188.14 284.214 Q2190.46 283.612 2192.72 282.409 L2192.72 286.436 Q2190.43 287.408 2188.02 287.918 Q2185.62 288.427 2183.14 288.427 Q2176.94 288.427 2173.3 284.816 Q2169.69 281.205 2169.69 275.047 Q2169.69 268.682 2173.12 264.955 Q2176.57 261.205 2182.4 261.205 Q2187.63 261.205 2190.66 264.585 Q2193.72 267.941 2193.72 273.728 M2189.46 272.478 Q2189.41 268.983 2187.49 266.899 Q2185.59 264.816 2182.45 264.816 Q2178.88 264.816 2176.73 266.83 Q2174.6 268.844 2174.28 272.501 L2189.46 272.478 Z" fill="#000000" fill-rule="nonzero" fill-opacity="1" /><path clip-path="url(#clip630)" d="M2217.77 265.765 L2217.77 251.737 L2222.03 251.737 L2222.03 287.756 L2217.77 287.756 L2217.77 283.867 Q2216.43 286.182 2214.37 287.316 Q2212.33 288.427 2209.46 288.427 Q2204.76 288.427 2201.8 284.677 Q2198.86 280.927 2198.86 274.816 Q2198.86 268.705 2201.8 264.955 Q2204.76 261.205 2209.46 261.205 Q2212.33 261.205 2214.37 262.339 Q2216.43 263.45 2217.77 265.765 M2203.26 274.816 Q2203.26 279.515 2205.18 282.2 Q2207.12 284.862 2210.5 284.862 Q2213.88 284.862 2215.83 282.2 Q2217.77 279.515 2217.77 274.816 Q2217.77 270.117 2215.83 267.455 Q2213.88 264.77 2210.5 264.77 Q2207.12 264.77 2205.18 267.455 Q2203.26 270.117 2203.26 274.816 Z" fill="#000000" fill-rule="nonzero" fill-opacity="1" /><polyline clip-path="url(#clip630)" style="stroke:#3da44d; stroke-linecap:round; stroke-linejoin:round; stroke-width:4; stroke-opacity:1; fill:none" points="1671.48,322.316 1812.19,322.316 "/>
<path clip-path="url(#clip630)" d="M1835.64 305.036 L1840.32 305.036 L1840.32 319.202 L1857.31 319.202 L1857.31 305.036 L1861.99 305.036 L1861.99 339.596 L1857.31 339.596 L1857.31 323.137 L1840.32 323.137 L1840.32 339.596 L1835.64 339.596 L1835.64 305.036 Z" fill="#000000" fill-rule="nonzero" fill-opacity="1" /><path clip-path="url(#clip630)" d="M1882.89 326.563 Q1877.73 326.563 1875.73 327.744 Q1873.74 328.924 1873.74 331.772 Q1873.74 334.04 1875.23 335.383 Q1876.73 336.702 1879.3 336.702 Q1882.84 336.702 1884.97 334.202 Q1887.12 331.679 1887.12 327.512 L1887.12 326.563 L1882.89 326.563 M1891.38 324.804 L1891.38 339.596 L1887.12 339.596 L1887.12 335.661 Q1885.67 338.022 1883.49 339.156 Q1881.31 340.267 1878.17 340.267 Q1874.18 340.267 1871.82 338.045 Q1869.49 335.799 1869.49 332.049 Q1869.49 327.674 1872.4 325.452 Q1875.34 323.23 1881.15 323.23 L1887.12 323.23 L1887.12 322.813 Q1887.12 319.874 1885.18 318.276 Q1883.26 316.656 1879.76 316.656 Q1877.54 316.656 1875.43 317.188 Q1873.33 317.721 1871.38 318.786 L1871.38 314.85 Q1873.72 313.948 1875.92 313.508 Q1878.12 313.045 1880.2 313.045 Q1885.83 313.045 1888.61 315.962 Q1891.38 318.878 1891.38 324.804 Z" fill="#000000" fill-rule="nonzero" fill-opacity="1" /><path clip-path="url(#clip630)" d="M1921.71 323.948 L1921.71 339.596 L1917.45 339.596 L1917.45 324.087 Q1917.45 320.406 1916.01 318.577 Q1914.58 316.749 1911.71 316.749 Q1908.26 316.749 1906.27 318.948 Q1904.28 321.147 1904.28 324.943 L1904.28 339.596 L1899.99 339.596 L1899.99 313.67 L1904.28 313.67 L1904.28 317.698 Q1905.8 315.36 1907.86 314.202 Q1909.95 313.045 1912.66 313.045 Q1917.12 313.045 1919.42 315.823 Q1921.71 318.577 1921.71 323.948 Z" fill="#000000" fill-rule="nonzero" fill-opacity="1" /><path clip-path="url(#clip630)" d="M1951.75 323.948 L1951.75 339.596 L1947.49 339.596 L1947.49 324.087 Q1947.49 320.406 1946.06 318.577 Q1944.62 316.749 1941.75 316.749 Q1938.3 316.749 1936.31 318.948 Q1934.32 321.147 1934.32 324.943 L1934.32 339.596 L1930.04 339.596 L1930.04 313.67 L1934.32 313.67 L1934.32 317.698 Q1935.85 315.36 1937.91 314.202 Q1939.99 313.045 1942.7 313.045 Q1947.17 313.045 1949.46 315.823 Q1951.75 318.577 1951.75 323.948 Z" fill="#000000" fill-rule="nonzero" fill-opacity="1" /><path clip-path="url(#clip630)" d="M1960.25 313.67 L1964.51 313.67 L1964.51 339.596 L1960.25 339.596 L1960.25 313.67 M1960.25 303.577 L1964.51 303.577 L1964.51 308.971 L1960.25 308.971 L1960.25 303.577 Z" fill="#000000" fill-rule="nonzero" fill-opacity="1" /><path clip-path="url(#clip630)" d="M1994.97 323.948 L1994.97 339.596 L1990.71 339.596 L1990.71 324.087 Q1990.71 320.406 1989.28 318.577 Q1987.84 316.749 1984.97 316.749 Q1981.52 316.749 1979.53 318.948 Q1977.54 321.147 1977.54 324.943 L1977.54 339.596 L1973.26 339.596 L1973.26 313.67 L1977.54 313.67 L1977.54 317.698 Q1979.07 315.36 1981.13 314.202 Q1983.21 313.045 1985.92 313.045 Q1990.39 313.045 1992.68 315.823 Q1994.97 318.577 1994.97 323.948 Z" fill="#000000" fill-rule="nonzero" fill-opacity="1" /><path clip-path="url(#clip630)" d="M2020.53 326.332 Q2020.53 321.702 2018.6 319.156 Q2016.71 316.61 2013.26 316.61 Q2009.83 316.61 2007.91 319.156 Q2006.01 321.702 2006.01 326.332 Q2006.01 330.938 2007.91 333.485 Q2009.83 336.031 2013.26 336.031 Q2016.71 336.031 2018.6 333.485 Q2020.53 330.938 2020.53 326.332 M2024.79 336.378 Q2024.79 342.998 2021.85 346.216 Q2018.91 349.457 2012.84 349.457 Q2010.6 349.457 2008.6 349.11 Q2006.61 348.785 2004.74 348.091 L2004.74 343.948 Q2006.61 344.966 2008.44 345.452 Q2010.27 345.938 2012.17 345.938 Q2016.36 345.938 2018.44 343.739 Q2020.53 341.563 2020.53 337.142 L2020.53 335.036 Q2019.21 337.327 2017.15 338.461 Q2015.09 339.596 2012.22 339.596 Q2007.45 339.596 2004.53 335.961 Q2001.61 332.327 2001.61 326.332 Q2001.61 320.313 2004.53 316.679 Q2007.45 313.045 2012.22 313.045 Q2015.09 313.045 2017.15 314.179 Q2019.21 315.313 2020.53 317.605 L2020.53 313.67 L2024.79 313.67 L2024.79 336.378 Z" fill="#000000" fill-rule="nonzero" fill-opacity="1" /><path clip-path="url(#clip630)" d="M2046.15 313.67 L2050.41 313.67 L2055.73 333.901 L2061.03 313.67 L2066.06 313.67 L2071.38 333.901 L2076.68 313.67 L2080.94 313.67 L2074.16 339.596 L2069.14 339.596 L2063.56 318.346 L2057.96 339.596 L2052.93 339.596 L2046.15 313.67 Z" fill="#000000" fill-rule="nonzero" fill-opacity="1" /><path clip-path="url(#clip630)" d="M2109.58 325.568 L2109.58 327.651 L2089.99 327.651 Q2090.27 332.049 2092.63 334.364 Q2095.02 336.656 2099.25 336.656 Q2101.71 336.656 2104 336.054 Q2106.31 335.452 2108.58 334.249 L2108.58 338.276 Q2106.29 339.248 2103.88 339.758 Q2101.47 340.267 2099 340.267 Q2092.79 340.267 2089.16 336.656 Q2085.55 333.045 2085.55 326.887 Q2085.55 320.522 2088.97 316.795 Q2092.42 313.045 2098.26 313.045 Q2103.49 313.045 2106.52 316.425 Q2109.58 319.781 2109.58 325.568 M2105.32 324.318 Q2105.27 320.823 2103.35 318.739 Q2101.45 316.656 2098.3 316.656 Q2094.74 316.656 2092.59 318.67 Q2090.46 320.684 2090.13 324.341 L2105.32 324.318 Z" fill="#000000" fill-rule="nonzero" fill-opacity="1" /><path clip-path="url(#clip630)" d="M2116.57 313.67 L2120.83 313.67 L2120.83 339.596 L2116.57 339.596 L2116.57 313.67 M2116.57 303.577 L2120.83 303.577 L2120.83 308.971 L2116.57 308.971 L2116.57 303.577 Z" fill="#000000" fill-rule="nonzero" fill-opacity="1" /><path clip-path="url(#clip630)" d="M2146.8 326.332 Q2146.8 321.702 2144.88 319.156 Q2142.98 316.61 2139.53 316.61 Q2136.1 316.61 2134.18 319.156 Q2132.28 321.702 2132.28 326.332 Q2132.28 330.938 2134.18 333.485 Q2136.1 336.031 2139.53 336.031 Q2142.98 336.031 2144.88 333.485 Q2146.8 330.938 2146.8 326.332 M2151.06 336.378 Q2151.06 342.998 2148.12 346.216 Q2145.18 349.457 2139.11 349.457 Q2136.87 349.457 2134.88 349.11 Q2132.89 348.785 2131.01 348.091 L2131.01 343.948 Q2132.89 344.966 2134.72 345.452 Q2136.54 345.938 2138.44 345.938 Q2142.63 345.938 2144.72 343.739 Q2146.8 341.563 2146.8 337.142 L2146.8 335.036 Q2145.48 337.327 2143.42 338.461 Q2141.36 339.596 2138.49 339.596 Q2133.72 339.596 2130.8 335.961 Q2127.89 332.327 2127.89 326.332 Q2127.89 320.313 2130.8 316.679 Q2133.72 313.045 2138.49 313.045 Q2141.36 313.045 2143.42 314.179 Q2145.48 315.313 2146.8 317.605 L2146.8 313.67 L2151.06 313.67 L2151.06 336.378 Z" fill="#000000" fill-rule="nonzero" fill-opacity="1" /><path clip-path="url(#clip630)" d="M2181.38 323.948 L2181.38 339.596 L2177.12 339.596 L2177.12 324.087 Q2177.12 320.406 2175.69 318.577 Q2174.25 316.749 2171.38 316.749 Q2167.93 316.749 2165.94 318.948 Q2163.95 321.147 2163.95 324.943 L2163.95 339.596 L2159.67 339.596 L2159.67 303.577 L2163.95 303.577 L2163.95 317.698 Q2165.48 315.36 2167.54 314.202 Q2169.62 313.045 2172.33 313.045 Q2176.8 313.045 2179.09 315.823 Q2181.38 318.577 2181.38 323.948 Z" fill="#000000" fill-rule="nonzero" fill-opacity="1" /><path clip-path="url(#clip630)" d="M2194.09 306.309 L2194.09 313.67 L2202.86 313.67 L2202.86 316.98 L2194.09 316.98 L2194.09 331.054 Q2194.09 334.225 2194.95 335.128 Q2195.83 336.031 2198.49 336.031 L2202.86 336.031 L2202.86 339.596 L2198.49 339.596 Q2193.56 339.596 2191.68 337.767 Q2189.81 335.915 2189.81 331.054 L2189.81 316.98 L2186.68 316.98 L2186.68 313.67 L2189.81 313.67 L2189.81 306.309 L2194.09 306.309 Z" fill="#000000" fill-rule="nonzero" fill-opacity="1" /><path clip-path="url(#clip630)" d="M2230.64 325.568 L2230.64 327.651 L2211.06 327.651 Q2211.34 332.049 2213.7 334.364 Q2216.08 336.656 2220.32 336.656 Q2222.77 336.656 2225.06 336.054 Q2227.38 335.452 2229.65 334.249 L2229.65 338.276 Q2227.35 339.248 2224.95 339.758 Q2222.54 340.267 2220.06 340.267 Q2213.86 340.267 2210.22 336.656 Q2206.61 333.045 2206.61 326.887 Q2206.61 320.522 2210.04 316.795 Q2213.49 313.045 2219.32 313.045 Q2224.55 313.045 2227.58 316.425 Q2230.64 319.781 2230.64 325.568 M2226.38 324.318 Q2226.33 320.823 2224.41 318.739 Q2222.52 316.656 2219.37 316.656 Q2215.8 316.656 2213.65 318.67 Q2211.52 320.684 2211.2 324.341 L2226.38 324.318 Z" fill="#000000" fill-rule="nonzero" fill-opacity="1" /><path clip-path="url(#clip630)" d="M2254.69 317.605 L2254.69 303.577 L2258.95 303.577 L2258.95 339.596 L2254.69 339.596 L2254.69 335.707 Q2253.35 338.022 2251.29 339.156 Q2249.25 340.267 2246.38 340.267 Q2241.68 340.267 2238.72 336.517 Q2235.78 332.767 2235.78 326.656 Q2235.78 320.545 2238.72 316.795 Q2241.68 313.045 2246.38 313.045 Q2249.25 313.045 2251.29 314.179 Q2253.35 315.29 2254.69 317.605 M2240.18 326.656 Q2240.18 331.355 2242.1 334.04 Q2244.04 336.702 2247.42 336.702 Q2250.8 336.702 2252.75 334.04 Q2254.69 331.355 2254.69 326.656 Q2254.69 321.957 2252.75 319.295 Q2250.8 316.61 2247.42 316.61 Q2244.04 316.61 2242.1 319.295 Q2240.18 321.957 2240.18 326.656 Z" fill="#000000" fill-rule="nonzero" fill-opacity="1" /></svg>
