<?xml version="1.0" encoding="utf-8"?>
<svg xmlns="http://www.w3.org/2000/svg" xmlns:xlink="http://www.w3.org/1999/xlink" width="600" height="400" viewBox="0 0 2400 1600">
<defs>
  <clipPath id="clip280">
    <rect x="0" y="0" width="2400" height="1600"/>
  </clipPath>
</defs>
<path clip-path="url(#clip280)" d="M0 1600 L2400 1600 L2400 0 L0 0  Z" fill="#ffffff" fill-rule="evenodd" fill-opacity="1"/>
<defs>
  <clipPath id="clip281">
    <rect x="480" y="0" width="1681" height="1600"/>
  </clipPath>
</defs>
<path clip-path="url(#clip280)" d="M242.135 1423.18 L2352.76 1423.18 L2352.76 123.472 L242.135 123.472  Z" fill="#ffffff" fill-rule="evenodd" fill-opacity="1"/>
<defs>
  <clipPath id="clip282">
    <rect x="242" y="123" width="2112" height="1301"/>
  </clipPath>
</defs>
<polyline clip-path="url(#clip282)" style="stroke:#000000; stroke-linecap:round; stroke-linejoin:round; stroke-width:2; stroke-opacity:0.1; fill:none" points="467.799,1423.18 467.799,123.472 "/>
<polyline clip-path="url(#clip282)" style="stroke:#000000; stroke-linecap:round; stroke-linejoin:round; stroke-width:2; stroke-opacity:0.1; fill:none" points="744.347,1423.18 744.347,123.472 "/>
<polyline clip-path="url(#clip282)" style="stroke:#000000; stroke-linecap:round; stroke-linejoin:round; stroke-width:2; stroke-opacity:0.1; fill:none" points="1020.9,1423.18 1020.9,123.472 "/>
<polyline clip-path="url(#clip282)" style="stroke:#000000; stroke-linecap:round; stroke-linejoin:round; stroke-width:2; stroke-opacity:0.1; fill:none" points="1297.45,1423.18 1297.45,123.472 "/>
<polyline clip-path="url(#clip282)" style="stroke:#000000; stroke-linecap:round; stroke-linejoin:round; stroke-width:2; stroke-opacity:0.1; fill:none" points="1573.99,1423.18 1573.99,123.472 "/>
<polyline clip-path="url(#clip282)" style="stroke:#000000; stroke-linecap:round; stroke-linejoin:round; stroke-width:2; stroke-opacity:0.1; fill:none" points="1850.54,1423.18 1850.54,123.472 "/>
<polyline clip-path="url(#clip282)" style="stroke:#000000; stroke-linecap:round; stroke-linejoin:round; stroke-width:2; stroke-opacity:0.1; fill:none" points="2127.09,1423.18 2127.09,123.472 "/>
<polyline clip-path="url(#clip282)" style="stroke:#000000; stroke-linecap:round; stroke-linejoin:round; stroke-width:2; stroke-opacity:0.1; fill:none" points="242.135,1423.18 2352.76,1423.18 "/>
<polyline clip-path="url(#clip282)" style="stroke:#000000; stroke-linecap:round; stroke-linejoin:round; stroke-width:2; stroke-opacity:0.1; fill:none" points="242.135,1152.41 2352.76,1152.41 "/>
<polyline clip-path="url(#clip282)" style="stroke:#000000; stroke-linecap:round; stroke-linejoin:round; stroke-width:2; stroke-opacity:0.1; fill:none" points="242.135,881.635 2352.76,881.635 "/>
<polyline clip-path="url(#clip282)" style="stroke:#000000; stroke-linecap:round; stroke-linejoin:round; stroke-width:2; stroke-opacity:0.1; fill:none" points="242.135,610.863 2352.76,610.863 "/>
<polyline clip-path="url(#clip282)" style="stroke:#000000; stroke-linecap:round; stroke-linejoin:round; stroke-width:2; stroke-opacity:0.1; fill:none" points="242.135,340.09 2352.76,340.09 "/>
<polyline clip-path="url(#clip280)" style="stroke:#000000; stroke-linecap:round; stroke-linejoin:round; stroke-width:4; stroke-opacity:1; fill:none" points="242.135,1423.18 2352.76,1423.18 "/>
<polyline clip-path="url(#clip280)" style="stroke:#000000; stroke-linecap:round; stroke-linejoin:round; stroke-width:4; stroke-opacity:1; fill:none" points="467.799,1423.18 467.799,1404.28 "/>
<polyline clip-path="url(#clip280)" style="stroke:#000000; stroke-linecap:round; stroke-linejoin:round; stroke-width:4; stroke-opacity:1; fill:none" points="744.347,1423.18 744.347,1404.28 "/>
<polyline clip-path="url(#clip280)" style="stroke:#000000; stroke-linecap:round; stroke-linejoin:round; stroke-width:4; stroke-opacity:1; fill:none" points="1020.9,1423.18 1020.9,1404.28 "/>
<polyline clip-path="url(#clip280)" style="stroke:#000000; stroke-linecap:round; stroke-linejoin:round; stroke-width:4; stroke-opacity:1; fill:none" points="1297.45,1423.18 1297.45,1404.28 "/>
<polyline clip-path="url(#clip280)" style="stroke:#000000; stroke-linecap:round; stroke-linejoin:round; stroke-width:4; stroke-opacity:1; fill:none" points="1573.99,1423.18 1573.99,1404.28 "/>
<polyline clip-path="url(#clip280)" style="stroke:#000000; stroke-linecap:round; stroke-linejoin:round; stroke-width:4; stroke-opacity:1; fill:none" points="1850.54,1423.18 1850.54,1404.28 "/>
<polyline clip-path="url(#clip280)" style="stroke:#000000; stroke-linecap:round; stroke-linejoin:round; stroke-width:4; stroke-opacity:1; fill:none" points="2127.09,1423.18 2127.09,1404.28 "/>
<path clip-path="url(#clip280)" d="M422.359 1468.75 L452.035 1468.75 L452.035 1472.69 L422.359 1472.69 L422.359 1468.75 Z" fill="#000000" fill-rule="nonzero" fill-opacity="1" /><path clip-path="url(#clip280)" d="M460.947 1451.02 L483.169 1451.02 L483.169 1453.01 L470.623 1485.58 L465.738 1485.58 L477.544 1454.96 L460.947 1454.96 L460.947 1451.02 Z" fill="#000000" fill-rule="nonzero" fill-opacity="1" /><path clip-path="url(#clip280)" d="M492.335 1451.02 L510.692 1451.02 L510.692 1454.96 L496.618 1454.96 L496.618 1463.43 Q497.636 1463.08 498.655 1462.92 Q499.673 1462.73 500.692 1462.73 Q506.479 1462.73 509.859 1465.9 Q513.238 1469.08 513.238 1474.49 Q513.238 1480.07 509.766 1483.17 Q506.294 1486.25 499.974 1486.25 Q497.798 1486.25 495.53 1485.88 Q493.285 1485.51 490.877 1484.77 L490.877 1480.07 Q492.96 1481.2 495.183 1481.76 Q497.405 1482.32 499.882 1482.32 Q503.886 1482.32 506.224 1480.21 Q508.562 1478.1 508.562 1474.49 Q508.562 1470.88 506.224 1468.77 Q503.886 1466.67 499.882 1466.67 Q498.007 1466.67 496.132 1467.08 Q494.28 1467.5 492.335 1468.38 L492.335 1451.02 Z" fill="#000000" fill-rule="nonzero" fill-opacity="1" /><path clip-path="url(#clip280)" d="M698.41 1468.75 L728.086 1468.75 L728.086 1472.69 L698.41 1472.69 L698.41 1468.75 Z" fill="#000000" fill-rule="nonzero" fill-opacity="1" /><path clip-path="url(#clip280)" d="M738.225 1451.02 L756.581 1451.02 L756.581 1454.96 L742.507 1454.96 L742.507 1463.43 Q743.526 1463.08 744.544 1462.92 Q745.563 1462.73 746.581 1462.73 Q752.368 1462.73 755.748 1465.9 Q759.127 1469.08 759.127 1474.49 Q759.127 1480.07 755.655 1483.17 Q752.183 1486.25 745.864 1486.25 Q743.688 1486.25 741.419 1485.88 Q739.174 1485.51 736.766 1484.77 L736.766 1480.07 Q738.85 1481.2 741.072 1481.76 Q743.294 1482.32 745.771 1482.32 Q749.776 1482.32 752.114 1480.21 Q754.452 1478.1 754.452 1474.49 Q754.452 1470.88 752.114 1468.77 Q749.776 1466.67 745.771 1466.67 Q743.896 1466.67 742.021 1467.08 Q740.169 1467.5 738.225 1468.38 L738.225 1451.02 Z" fill="#000000" fill-rule="nonzero" fill-opacity="1" /><path clip-path="url(#clip280)" d="M778.34 1454.1 Q774.729 1454.1 772.901 1457.66 Q771.095 1461.2 771.095 1468.33 Q771.095 1475.44 772.901 1479.01 Q774.729 1482.55 778.34 1482.55 Q781.975 1482.55 783.78 1479.01 Q785.609 1475.44 785.609 1468.33 Q785.609 1461.2 783.78 1457.66 Q781.975 1454.1 778.34 1454.1 M778.34 1450.39 Q784.151 1450.39 787.206 1455 Q790.285 1459.58 790.285 1468.33 Q790.285 1477.06 787.206 1481.67 Q784.151 1486.25 778.34 1486.25 Q772.53 1486.25 769.452 1481.67 Q766.396 1477.06 766.396 1468.33 Q766.396 1459.58 769.452 1455 Q772.53 1450.39 778.34 1450.39 Z" fill="#000000" fill-rule="nonzero" fill-opacity="1" /><path clip-path="url(#clip280)" d="M975.457 1468.75 L1005.13 1468.75 L1005.13 1472.69 L975.457 1472.69 L975.457 1468.75 Z" fill="#000000" fill-rule="nonzero" fill-opacity="1" /><path clip-path="url(#clip280)" d="M1019.25 1481.64 L1035.57 1481.64 L1035.57 1485.58 L1013.63 1485.58 L1013.63 1481.64 Q1016.29 1478.89 1020.87 1474.26 Q1025.48 1469.61 1026.66 1468.27 Q1028.91 1465.74 1029.79 1464.01 Q1030.69 1462.25 1030.69 1460.56 Q1030.69 1457.8 1028.74 1456.07 Q1026.82 1454.33 1023.72 1454.33 Q1021.52 1454.33 1019.07 1455.09 Q1016.64 1455.86 1013.86 1457.41 L1013.86 1452.69 Q1016.68 1451.55 1019.14 1450.97 Q1021.59 1450.39 1023.63 1450.39 Q1029 1450.39 1032.19 1453.08 Q1035.39 1455.77 1035.39 1460.26 Q1035.39 1462.39 1034.58 1464.31 Q1033.79 1466.2 1031.68 1468.8 Q1031.1 1469.47 1028 1472.69 Q1024.9 1475.88 1019.25 1481.64 Z" fill="#000000" fill-rule="nonzero" fill-opacity="1" /><path clip-path="url(#clip280)" d="M1045.43 1451.02 L1063.79 1451.02 L1063.79 1454.96 L1049.72 1454.96 L1049.72 1463.43 Q1050.73 1463.08 1051.75 1462.92 Q1052.77 1462.73 1053.79 1462.73 Q1059.58 1462.73 1062.96 1465.9 Q1066.34 1469.08 1066.34 1474.49 Q1066.34 1480.07 1062.86 1483.17 Q1059.39 1486.25 1053.07 1486.25 Q1050.9 1486.25 1048.63 1485.88 Q1046.38 1485.51 1043.97 1484.77 L1043.97 1480.07 Q1046.06 1481.2 1048.28 1481.76 Q1050.5 1482.32 1052.98 1482.32 Q1056.98 1482.32 1059.32 1480.21 Q1061.66 1478.1 1061.66 1474.49 Q1061.66 1470.88 1059.32 1468.77 Q1056.98 1466.67 1052.98 1466.67 Q1051.1 1466.67 1049.23 1467.08 Q1047.38 1467.5 1045.43 1468.38 L1045.43 1451.02 Z" fill="#000000" fill-rule="nonzero" fill-opacity="1" /><path clip-path="url(#clip280)" d="M1297.45 1454.1 Q1293.83 1454.1 1292.01 1457.66 Q1290.2 1461.2 1290.2 1468.33 Q1290.2 1475.44 1292.01 1479.01 Q1293.83 1482.55 1297.45 1482.55 Q1301.08 1482.55 1302.89 1479.01 Q1304.71 1475.44 1304.71 1468.33 Q1304.71 1461.2 1302.89 1457.66 Q1301.08 1454.1 1297.45 1454.1 M1297.45 1450.39 Q1303.26 1450.39 1306.31 1455 Q1309.39 1459.58 1309.39 1468.33 Q1309.39 1477.06 1306.31 1481.67 Q1303.26 1486.25 1297.45 1486.25 Q1291.64 1486.25 1288.56 1481.67 Q1285.5 1477.06 1285.5 1468.33 Q1285.5 1459.58 1288.56 1455 Q1291.64 1450.39 1297.45 1450.39 Z" fill="#000000" fill-rule="nonzero" fill-opacity="1" /><path clip-path="url(#clip280)" d="M1553.27 1481.64 L1569.58 1481.64 L1569.58 1485.58 L1547.64 1485.58 L1547.64 1481.64 Q1550.3 1478.89 1554.89 1474.26 Q1559.49 1469.61 1560.67 1468.27 Q1562.92 1465.74 1563.8 1464.01 Q1564.7 1462.25 1564.7 1460.56 Q1564.7 1457.8 1562.76 1456.07 Q1560.83 1454.33 1557.73 1454.33 Q1555.53 1454.33 1553.08 1455.09 Q1550.65 1455.86 1547.87 1457.41 L1547.87 1452.69 Q1550.7 1451.55 1553.15 1450.97 Q1555.6 1450.39 1557.64 1450.39 Q1563.01 1450.39 1566.2 1453.08 Q1569.4 1455.77 1569.4 1460.26 Q1569.4 1462.39 1568.59 1464.31 Q1567.8 1466.2 1565.7 1468.8 Q1565.12 1469.47 1562.02 1472.69 Q1558.91 1475.88 1553.27 1481.64 Z" fill="#000000" fill-rule="nonzero" fill-opacity="1" /><path clip-path="url(#clip280)" d="M1579.45 1451.02 L1597.8 1451.02 L1597.8 1454.96 L1583.73 1454.96 L1583.73 1463.43 Q1584.75 1463.08 1585.76 1462.92 Q1586.78 1462.73 1587.8 1462.73 Q1593.59 1462.73 1596.97 1465.9 Q1600.35 1469.08 1600.35 1474.49 Q1600.35 1480.07 1596.88 1483.17 Q1593.4 1486.25 1587.08 1486.25 Q1584.91 1486.25 1582.64 1485.88 Q1580.39 1485.51 1577.99 1484.77 L1577.99 1480.07 Q1580.07 1481.2 1582.29 1481.76 Q1584.51 1482.32 1586.99 1482.32 Q1591 1482.32 1593.33 1480.21 Q1595.67 1478.1 1595.67 1474.49 Q1595.67 1470.88 1593.33 1468.77 Q1591 1466.67 1586.99 1466.67 Q1585.12 1466.67 1583.24 1467.08 Q1581.39 1467.5 1579.45 1468.38 L1579.45 1451.02 Z" fill="#000000" fill-rule="nonzero" fill-opacity="1" /><path clip-path="url(#clip280)" d="M1825.24 1451.02 L1843.6 1451.02 L1843.6 1454.96 L1829.52 1454.96 L1829.52 1463.43 Q1830.54 1463.08 1831.56 1462.92 Q1832.58 1462.73 1833.6 1462.73 Q1839.39 1462.73 1842.77 1465.9 Q1846.14 1469.08 1846.14 1474.49 Q1846.14 1480.07 1842.67 1483.17 Q1839.2 1486.25 1832.88 1486.25 Q1830.71 1486.25 1828.44 1485.88 Q1826.19 1485.51 1823.78 1484.77 L1823.78 1480.07 Q1825.87 1481.2 1828.09 1481.76 Q1830.31 1482.32 1832.79 1482.32 Q1836.79 1482.32 1839.13 1480.21 Q1841.47 1478.1 1841.47 1474.49 Q1841.47 1470.88 1839.13 1468.77 Q1836.79 1466.67 1832.79 1466.67 Q1830.91 1466.67 1829.04 1467.08 Q1827.19 1467.5 1825.24 1468.38 L1825.24 1451.02 Z" fill="#000000" fill-rule="nonzero" fill-opacity="1" /><path clip-path="url(#clip280)" d="M1865.36 1454.1 Q1861.75 1454.1 1859.92 1457.66 Q1858.11 1461.2 1858.11 1468.33 Q1858.11 1475.44 1859.92 1479.01 Q1861.75 1482.55 1865.36 1482.55 Q1868.99 1482.55 1870.8 1479.01 Q1872.63 1475.44 1872.63 1468.33 Q1872.63 1461.2 1870.8 1457.66 Q1868.99 1454.1 1865.36 1454.1 M1865.36 1450.39 Q1871.17 1450.39 1874.22 1455 Q1877.3 1459.58 1877.3 1468.33 Q1877.3 1477.06 1874.22 1481.67 Q1871.17 1486.25 1865.36 1486.25 Q1859.55 1486.25 1856.47 1481.67 Q1853.41 1477.06 1853.41 1468.33 Q1853.41 1459.58 1856.47 1455 Q1859.55 1450.39 1865.36 1450.39 Z" fill="#000000" fill-rule="nonzero" fill-opacity="1" /><path clip-path="url(#clip280)" d="M2100.95 1451.02 L2123.17 1451.02 L2123.17 1453.01 L2110.62 1485.58 L2105.74 1485.58 L2117.54 1454.96 L2100.95 1454.96 L2100.95 1451.02 Z" fill="#000000" fill-rule="nonzero" fill-opacity="1" /><path clip-path="url(#clip280)" d="M2132.34 1451.02 L2150.69 1451.02 L2150.69 1454.96 L2136.62 1454.96 L2136.62 1463.43 Q2137.64 1463.08 2138.65 1462.92 Q2139.67 1462.73 2140.69 1462.73 Q2146.48 1462.73 2149.86 1465.9 Q2153.24 1469.08 2153.24 1474.49 Q2153.24 1480.07 2149.77 1483.17 Q2146.29 1486.25 2139.97 1486.25 Q2137.8 1486.25 2135.53 1485.88 Q2133.28 1485.51 2130.88 1484.77 L2130.88 1480.07 Q2132.96 1481.2 2135.18 1481.76 Q2137.4 1482.32 2139.88 1482.32 Q2143.89 1482.32 2146.22 1480.21 Q2148.56 1478.1 2148.56 1474.49 Q2148.56 1470.88 2146.22 1468.77 Q2143.89 1466.67 2139.88 1466.67 Q2138.01 1466.67 2136.13 1467.08 Q2134.28 1467.5 2132.34 1468.38 L2132.34 1451.02 Z" fill="#000000" fill-rule="nonzero" fill-opacity="1" /><path clip-path="url(#clip280)" d="M1132.3 1526.86 L1123.58 1550.51 L1141.06 1550.51 L1132.3 1526.86 M1128.67 1520.52 L1135.96 1520.52 L1154.07 1568.04 L1147.39 1568.04 L1143.06 1555.85 L1121.64 1555.85 L1117.31 1568.04 L1110.53 1568.04 L1128.67 1520.52 Z" fill="#000000" fill-rule="nonzero" fill-opacity="1" /><path clip-path="url(#clip280)" d="M1190.39 1546.53 L1190.39 1568.04 L1184.53 1568.04 L1184.53 1546.72 Q1184.53 1541.66 1182.56 1539.14 Q1180.59 1536.63 1176.64 1536.63 Q1171.9 1536.63 1169.16 1539.65 Q1166.42 1542.68 1166.42 1547.9 L1166.42 1568.04 L1160.53 1568.04 L1160.53 1532.4 L1166.42 1532.4 L1166.42 1537.93 Q1168.52 1534.72 1171.36 1533.13 Q1174.22 1531.54 1177.95 1531.54 Q1184.09 1531.54 1187.24 1535.36 Q1190.39 1539.14 1190.39 1546.53 Z" fill="#000000" fill-rule="nonzero" fill-opacity="1" /><path clip-path="url(#clip280)" d="M1225.53 1549.81 Q1225.53 1543.44 1222.89 1539.94 Q1220.28 1536.44 1215.53 1536.44 Q1210.82 1536.44 1208.18 1539.94 Q1205.57 1543.44 1205.57 1549.81 Q1205.57 1556.14 1208.18 1559.64 Q1210.82 1563.14 1215.53 1563.14 Q1220.28 1563.14 1222.89 1559.64 Q1225.53 1556.14 1225.53 1549.81 M1231.39 1563.62 Q1231.39 1572.72 1227.34 1577.15 Q1223.3 1581.6 1214.96 1581.6 Q1211.87 1581.6 1209.14 1581.13 Q1206.4 1580.68 1203.82 1579.72 L1203.82 1574.03 Q1206.4 1575.43 1208.91 1576.1 Q1211.43 1576.76 1214.04 1576.76 Q1219.8 1576.76 1222.66 1573.74 Q1225.53 1570.75 1225.53 1564.67 L1225.53 1561.77 Q1223.71 1564.92 1220.88 1566.48 Q1218.05 1568.04 1214.1 1568.04 Q1207.55 1568.04 1203.54 1563.05 Q1199.52 1558.05 1199.52 1549.81 Q1199.52 1541.53 1203.54 1536.53 Q1207.55 1531.54 1214.1 1531.54 Q1218.05 1531.54 1220.88 1533.1 Q1223.71 1534.66 1225.53 1537.81 L1225.53 1532.4 L1231.39 1532.4 L1231.39 1563.62 Z" fill="#000000" fill-rule="nonzero" fill-opacity="1" /><path clip-path="url(#clip280)" d="M1243.45 1518.52 L1249.3 1518.52 L1249.3 1568.04 L1243.45 1568.04 L1243.45 1518.52 Z" fill="#000000" fill-rule="nonzero" fill-opacity="1" /><path clip-path="url(#clip280)" d="M1292.05 1548.76 L1292.05 1551.62 L1265.12 1551.62 Q1265.51 1557.67 1268.75 1560.85 Q1272.03 1564 1277.85 1564 Q1281.23 1564 1284.38 1563.17 Q1287.56 1562.35 1290.68 1560.69 L1290.68 1566.23 Q1287.53 1567.57 1284.22 1568.27 Q1280.91 1568.97 1277.5 1568.97 Q1268.97 1568.97 1263.98 1564 Q1259.01 1559.04 1259.01 1550.57 Q1259.01 1541.82 1263.72 1536.69 Q1268.47 1531.54 1276.49 1531.54 Q1283.68 1531.54 1287.85 1536.18 Q1292.05 1540.8 1292.05 1548.76 M1286.19 1547.04 Q1286.13 1542.23 1283.49 1539.37 Q1280.88 1536.5 1276.55 1536.5 Q1271.65 1536.5 1268.69 1539.27 Q1265.76 1542.04 1265.31 1547.07 L1286.19 1547.04 Z" fill="#000000" fill-rule="nonzero" fill-opacity="1" /><path clip-path="url(#clip280)" d="M1321.84 1518.52 L1335.34 1518.52 L1335.34 1523.07 L1327.7 1523.07 L1327.7 1572.09 L1335.34 1572.09 L1335.34 1576.64 L1321.84 1576.64 L1321.84 1518.52 Z" fill="#000000" fill-rule="nonzero" fill-opacity="1" /><path clip-path="url(#clip280)" d="M1371.27 1537.81 L1371.27 1518.52 L1377.13 1518.52 L1377.13 1568.04 L1371.27 1568.04 L1371.27 1562.7 Q1369.43 1565.88 1366.59 1567.44 Q1363.79 1568.97 1359.85 1568.97 Q1353.38 1568.97 1349.31 1563.81 Q1345.27 1558.65 1345.27 1550.25 Q1345.27 1541.85 1349.31 1536.69 Q1353.38 1531.54 1359.85 1531.54 Q1363.79 1531.54 1366.59 1533.1 Q1369.43 1534.62 1371.27 1537.81 M1351.32 1550.25 Q1351.32 1556.71 1353.96 1560.4 Q1356.63 1564.07 1361.28 1564.07 Q1365.92 1564.07 1368.6 1560.4 Q1371.27 1556.71 1371.27 1550.25 Q1371.27 1543.79 1368.6 1540.13 Q1365.92 1536.44 1361.28 1536.44 Q1356.63 1536.44 1353.96 1540.13 Q1351.32 1543.79 1351.32 1550.25 Z" fill="#000000" fill-rule="nonzero" fill-opacity="1" /><path clip-path="url(#clip280)" d="M1419.68 1548.76 L1419.68 1551.62 L1392.76 1551.62 Q1393.14 1557.67 1396.38 1560.85 Q1399.66 1564 1405.49 1564 Q1408.86 1564 1412.01 1563.17 Q1415.19 1562.35 1418.31 1560.69 L1418.31 1566.23 Q1415.16 1567.57 1411.85 1568.27 Q1408.54 1568.97 1405.14 1568.97 Q1396.61 1568.97 1391.61 1564 Q1386.64 1559.04 1386.64 1550.57 Q1386.64 1541.82 1391.36 1536.69 Q1396.1 1531.54 1404.12 1531.54 Q1411.31 1531.54 1415.48 1536.18 Q1419.68 1540.8 1419.68 1548.76 M1413.83 1547.04 Q1413.76 1542.23 1411.12 1539.37 Q1408.51 1536.5 1404.18 1536.5 Q1399.28 1536.5 1396.32 1539.27 Q1393.39 1542.04 1392.95 1547.07 L1413.83 1547.04 Z" fill="#000000" fill-rule="nonzero" fill-opacity="1" /><path clip-path="url(#clip280)" d="M1452.75 1549.81 Q1452.75 1543.44 1450.11 1539.94 Q1447.5 1536.44 1442.76 1536.44 Q1438.05 1536.44 1435.41 1539.94 Q1432.8 1543.44 1432.8 1549.81 Q1432.8 1556.14 1435.41 1559.64 Q1438.05 1563.14 1442.76 1563.14 Q1447.5 1563.14 1450.11 1559.64 Q1452.75 1556.14 1452.75 1549.81 M1458.61 1563.62 Q1458.61 1572.72 1454.57 1577.15 Q1450.52 1581.6 1442.19 1581.6 Q1439.1 1581.6 1436.36 1581.13 Q1433.62 1580.68 1431.05 1579.72 L1431.05 1574.03 Q1433.62 1575.43 1436.14 1576.1 Q1438.65 1576.76 1441.26 1576.76 Q1447.02 1576.76 1449.89 1573.74 Q1452.75 1570.75 1452.75 1564.67 L1452.75 1561.77 Q1450.94 1564.92 1448.11 1566.48 Q1445.27 1568.04 1441.33 1568.04 Q1434.77 1568.04 1430.76 1563.05 Q1426.75 1558.05 1426.75 1549.81 Q1426.75 1541.53 1430.76 1536.53 Q1434.77 1531.54 1441.33 1531.54 Q1445.27 1531.54 1448.11 1533.1 Q1450.94 1534.66 1452.75 1537.81 L1452.75 1532.4 L1458.61 1532.4 L1458.61 1563.62 Z" fill="#000000" fill-rule="nonzero" fill-opacity="1" /><path clip-path="url(#clip280)" d="M1484.36 1518.52 L1484.36 1576.64 L1470.86 1576.64 L1470.86 1572.09 L1478.47 1572.09 L1478.47 1523.07 L1470.86 1523.07 L1470.86 1518.52 L1484.36 1518.52 Z" fill="#000000" fill-rule="nonzero" fill-opacity="1" /><polyline clip-path="url(#clip280)" style="stroke:#000000; stroke-linecap:round; stroke-linejoin:round; stroke-width:4; stroke-opacity:1; fill:none" points="242.135,1423.18 242.135,123.472 "/>
<polyline clip-path="url(#clip280)" style="stroke:#000000; stroke-linecap:round; stroke-linejoin:round; stroke-width:4; stroke-opacity:1; fill:none" points="242.135,1423.18 261.032,1423.18 "/>
<polyline clip-path="url(#clip280)" style="stroke:#000000; stroke-linecap:round; stroke-linejoin:round; stroke-width:4; stroke-opacity:1; fill:none" points="242.135,1152.41 261.032,1152.41 "/>
<polyline clip-path="url(#clip280)" style="stroke:#000000; stroke-linecap:round; stroke-linejoin:round; stroke-width:4; stroke-opacity:1; fill:none" points="242.135,881.635 261.032,881.635 "/>
<polyline clip-path="url(#clip280)" style="stroke:#000000; stroke-linecap:round; stroke-linejoin:round; stroke-width:4; stroke-opacity:1; fill:none" points="242.135,610.863 261.032,610.863 "/>
<polyline clip-path="url(#clip280)" style="stroke:#000000; stroke-linecap:round; stroke-linejoin:round; stroke-width:4; stroke-opacity:1; fill:none" points="242.135,340.09 261.032,340.09 "/>
<path clip-path="url(#clip280)" d="M114.26 1423.63 L143.936 1423.63 L143.936 1427.57 L114.26 1427.57 L114.26 1423.63 Z" fill="#000000" fill-rule="nonzero" fill-opacity="1" /><path clip-path="url(#clip280)" d="M168.195 1421.83 Q171.552 1422.54 173.427 1424.81 Q175.325 1427.08 175.325 1430.41 Q175.325 1435.53 171.806 1438.33 Q168.288 1441.13 161.806 1441.13 Q159.63 1441.13 157.315 1440.69 Q155.024 1440.27 152.57 1439.42 L152.57 1434.9 Q154.515 1436.04 156.829 1436.62 Q159.144 1437.2 161.667 1437.2 Q166.065 1437.2 168.357 1435.46 Q170.672 1433.72 170.672 1430.41 Q170.672 1427.36 168.519 1425.65 Q166.39 1423.91 162.57 1423.91 L158.542 1423.91 L158.542 1420.07 L162.755 1420.07 Q166.204 1420.07 168.033 1418.7 Q169.862 1417.31 169.862 1414.72 Q169.862 1412.06 167.964 1410.65 Q166.089 1409.21 162.57 1409.21 Q160.649 1409.21 158.45 1409.63 Q156.251 1410.04 153.612 1410.92 L153.612 1406.76 Q156.274 1406.02 158.589 1405.65 Q160.927 1405.27 162.987 1405.27 Q168.311 1405.27 171.413 1407.71 Q174.514 1410.11 174.514 1414.23 Q174.514 1417.1 172.871 1419.09 Q171.227 1421.06 168.195 1421.83 Z" fill="#000000" fill-rule="nonzero" fill-opacity="1" /><path clip-path="url(#clip280)" d="M194.19 1408.98 Q190.579 1408.98 188.75 1412.54 Q186.945 1416.08 186.945 1423.21 Q186.945 1430.32 188.75 1433.89 Q190.579 1437.43 194.19 1437.43 Q197.825 1437.43 199.63 1433.89 Q201.459 1430.32 201.459 1423.21 Q201.459 1416.08 199.63 1412.54 Q197.825 1408.98 194.19 1408.98 M194.19 1405.27 Q200 1405.27 203.056 1409.88 Q206.135 1414.46 206.135 1423.21 Q206.135 1431.94 203.056 1436.55 Q200 1441.13 194.19 1441.13 Q188.38 1441.13 185.301 1436.55 Q182.246 1431.94 182.246 1423.21 Q182.246 1414.46 185.301 1409.88 Q188.38 1405.27 194.19 1405.27 Z" fill="#000000" fill-rule="nonzero" fill-opacity="1" /><path clip-path="url(#clip280)" d="M114.26 1152.86 L143.936 1152.86 L143.936 1156.79 L114.26 1156.79 L114.26 1152.86 Z" fill="#000000" fill-rule="nonzero" fill-opacity="1" /><path clip-path="url(#clip280)" d="M158.056 1165.75 L174.376 1165.75 L174.376 1169.69 L152.431 1169.69 L152.431 1165.75 Q155.093 1163 159.677 1158.37 Q164.283 1153.72 165.464 1152.37 Q167.709 1149.85 168.589 1148.11 Q169.491 1146.35 169.491 1144.66 Q169.491 1141.91 167.547 1140.17 Q165.626 1138.44 162.524 1138.44 Q160.325 1138.44 157.871 1139.2 Q155.44 1139.97 152.663 1141.52 L152.663 1136.79 Q155.487 1135.66 157.94 1135.08 Q160.394 1134.5 162.431 1134.5 Q167.802 1134.5 170.996 1137.19 Q174.19 1139.87 174.19 1144.36 Q174.19 1146.49 173.38 1148.41 Q172.593 1150.31 170.487 1152.91 Q169.908 1153.58 166.806 1156.79 Q163.704 1159.99 158.056 1165.75 Z" fill="#000000" fill-rule="nonzero" fill-opacity="1" /><path clip-path="url(#clip280)" d="M194.19 1138.21 Q190.579 1138.21 188.75 1141.77 Q186.945 1145.31 186.945 1152.44 Q186.945 1159.55 188.75 1163.11 Q190.579 1166.66 194.19 1166.66 Q197.825 1166.66 199.63 1163.11 Q201.459 1159.55 201.459 1152.44 Q201.459 1145.31 199.63 1141.77 Q197.825 1138.21 194.19 1138.21 M194.19 1134.5 Q200 1134.5 203.056 1139.11 Q206.135 1143.69 206.135 1152.44 Q206.135 1161.17 203.056 1165.78 Q200 1170.36 194.19 1170.36 Q188.38 1170.36 185.301 1165.78 Q182.246 1161.17 182.246 1152.44 Q182.246 1143.69 185.301 1139.11 Q188.38 1134.5 194.19 1134.5 Z" fill="#000000" fill-rule="nonzero" fill-opacity="1" /><path clip-path="url(#clip280)" d="M114.26 882.086 L143.936 882.086 L143.936 886.022 L114.26 886.022 L114.26 882.086 Z" fill="#000000" fill-rule="nonzero" fill-opacity="1" /><path clip-path="url(#clip280)" d="M154.839 894.98 L162.477 894.98 L162.477 868.614 L154.167 870.281 L154.167 866.022 L162.431 864.355 L167.107 864.355 L167.107 894.98 L174.746 894.98 L174.746 898.915 L154.839 898.915 L154.839 894.98 Z" fill="#000000" fill-rule="nonzero" fill-opacity="1" /><path clip-path="url(#clip280)" d="M194.19 867.434 Q190.579 867.434 188.75 870.998 Q186.945 874.54 186.945 881.67 Q186.945 888.776 188.75 892.341 Q190.579 895.883 194.19 895.883 Q197.825 895.883 199.63 892.341 Q201.459 888.776 201.459 881.67 Q201.459 874.54 199.63 870.998 Q197.825 867.434 194.19 867.434 M194.19 863.73 Q200 863.73 203.056 868.336 Q206.135 872.92 206.135 881.67 Q206.135 890.396 203.056 895.003 Q200 899.586 194.19 899.586 Q188.38 899.586 185.301 895.003 Q182.246 890.396 182.246 881.67 Q182.246 872.92 185.301 868.336 Q188.38 863.73 194.19 863.73 Z" fill="#000000" fill-rule="nonzero" fill-opacity="1" /><path clip-path="url(#clip280)" d="M194.19 596.661 Q190.579 596.661 188.75 600.226 Q186.945 603.768 186.945 610.897 Q186.945 618.004 188.75 621.568 Q190.579 625.11 194.19 625.11 Q197.825 625.11 199.63 621.568 Q201.459 618.004 201.459 610.897 Q201.459 603.768 199.63 600.226 Q197.825 596.661 194.19 596.661 M194.19 592.958 Q200 592.958 203.056 597.564 Q206.135 602.147 206.135 610.897 Q206.135 619.624 203.056 624.231 Q200 628.814 194.19 628.814 Q188.38 628.814 185.301 624.231 Q182.246 619.624 182.246 610.897 Q182.246 602.147 185.301 597.564 Q188.38 592.958 194.19 592.958 Z" fill="#000000" fill-rule="nonzero" fill-opacity="1" /><path clip-path="url(#clip280)" d="M154.839 353.435 L162.477 353.435 L162.477 327.069 L154.167 328.736 L154.167 324.477 L162.431 322.81 L167.107 322.81 L167.107 353.435 L174.746 353.435 L174.746 357.37 L154.839 357.37 L154.839 353.435 Z" fill="#000000" fill-rule="nonzero" fill-opacity="1" /><path clip-path="url(#clip280)" d="M194.19 325.889 Q190.579 325.889 188.75 329.454 Q186.945 332.995 186.945 340.125 Q186.945 347.231 188.75 350.796 Q190.579 354.338 194.19 354.338 Q197.825 354.338 199.63 350.796 Q201.459 347.231 201.459 340.125 Q201.459 332.995 199.63 329.454 Q197.825 325.889 194.19 325.889 M194.19 322.185 Q200 322.185 203.056 326.792 Q206.135 331.375 206.135 340.125 Q206.135 348.852 203.056 353.458 Q200 358.041 194.19 358.041 Q188.38 358.041 185.301 353.458 Q182.246 348.852 182.246 340.125 Q182.246 331.375 185.301 326.792 Q188.38 322.185 194.19 322.185 Z" fill="#000000" fill-rule="nonzero" fill-opacity="1" /><path clip-path="url(#clip280)" d="M57.2247 862.557 L44.4614 862.557 L44.4614 873.061 L39.1779 873.061 L39.1779 856.192 L59.58 856.192 Q62.2218 859.916 63.5904 864.403 Q64.9272 868.891 64.9272 873.984 Q64.9272 885.124 58.4342 891.426 Q51.9093 897.696 40.2919 897.696 Q28.6427 897.696 22.1496 891.426 Q15.6248 885.124 15.6248 873.984 Q15.6248 869.337 16.7706 865.167 Q17.9164 860.966 20.1444 857.433 L26.9876 857.433 Q23.9639 860.998 22.4361 865.008 Q20.9083 869.018 20.9083 873.443 Q20.9083 882.164 25.7781 886.556 Q30.6479 890.916 40.2919 890.916 Q49.9041 890.916 54.7739 886.556 Q59.6436 882.164 59.6436 873.443 Q59.6436 870.037 59.0707 867.363 Q58.466 864.69 57.2247 862.557 Z" fill="#000000" fill-rule="nonzero" fill-opacity="1" /><path clip-path="url(#clip280)" d="M58.3387 803.515 L64.0042 803.515 L64.0042 822.612 L58.3387 822.612 Q55.2513 816.979 49.9678 813.828 Q44.6842 810.677 38.2549 810.677 Q30.616 810.677 26.0009 814.878 Q21.3858 819.08 21.3858 825.954 Q21.3858 832.829 26.0327 837.063 Q30.6479 841.264 38.2549 841.264 Q44.6842 841.264 49.9678 838.113 Q55.2513 834.93 58.3387 829.265 L64.0042 829.265 L64.0042 848.362 L58.3387 848.362 L58.3387 838.208 Q53.9145 843.237 49.1721 845.561 Q44.4296 847.852 38.5732 847.852 Q28.4517 847.852 22.1815 841.741 Q15.9112 835.662 15.9112 825.954 Q15.9112 816.31 22.1815 810.168 Q28.4199 804.056 38.2549 804.056 Q44.4296 804.056 49.1402 806.316 Q53.8509 808.576 58.3387 813.7 L58.3387 803.515 Z" fill="#000000" fill-rule="nonzero" fill-opacity="1" /><path clip-path="url(#clip280)" d="M14.479 774.711 L14.479 761.215 L19.0304 761.215 L19.0304 768.854 L68.0464 768.854 L68.0464 761.215 L72.5979 761.215 L72.5979 774.711 L14.479 774.711 Z" fill="#000000" fill-rule="nonzero" fill-opacity="1" /><path clip-path="url(#clip280)" d="M33.7671 725.281 L14.479 725.281 L14.479 719.424 L64.0042 719.424 L64.0042 725.281 L58.657 725.281 Q61.8398 727.127 63.3994 729.96 Q64.9272 732.761 64.9272 736.707 Q64.9272 743.168 59.771 747.243 Q54.6147 751.285 46.212 751.285 Q37.8093 751.285 32.6531 747.243 Q27.4968 743.168 27.4968 736.707 Q27.4968 732.761 29.0564 729.96 Q30.5842 727.127 33.7671 725.281 M46.212 745.237 Q52.6732 745.237 56.3653 742.596 Q60.0256 739.922 60.0256 735.275 Q60.0256 730.628 56.3653 727.954 Q52.6732 725.281 46.212 725.281 Q39.7508 725.281 36.0905 727.954 Q32.3984 730.628 32.3984 735.275 Q32.3984 739.922 36.0905 742.596 Q39.7508 745.237 46.212 745.237 Z" fill="#000000" fill-rule="nonzero" fill-opacity="1" /><path clip-path="url(#clip280)" d="M41.3104 700.677 L58.7206 700.677 L58.7206 690.365 Q58.7206 685.177 56.5881 682.694 Q54.4238 680.18 49.9996 680.18 Q45.5436 680.18 43.4429 682.694 Q41.3104 685.177 41.3104 690.365 L41.3104 700.677 M21.7677 700.677 L36.0905 700.677 L36.0905 691.161 Q36.0905 686.45 34.34 684.158 Q32.5576 681.835 28.9291 681.835 Q25.3325 681.835 23.5501 684.158 Q21.7677 686.45 21.7677 691.161 L21.7677 700.677 M16.4842 707.107 L16.4842 690.683 Q16.4842 683.331 19.5397 679.352 Q22.5952 675.374 28.2289 675.374 Q32.5894 675.374 35.1675 677.411 Q37.7456 679.448 38.3822 683.394 Q39.4007 678.652 42.6472 676.042 Q45.8619 673.4 50.6998 673.4 Q57.0655 673.4 60.5348 677.729 Q64.0042 682.058 64.0042 690.047 L64.0042 707.107 L16.4842 707.107 Z" fill="#000000" fill-rule="nonzero" fill-opacity="1" /><path clip-path="url(#clip280)" d="M14.479 648.956 L72.5979 648.956 L72.5979 662.451 L68.0464 662.451 L68.0464 654.844 L19.0304 654.844 L19.0304 662.451 L14.479 662.451 L14.479 648.956 Z" fill="#000000" fill-rule="nonzero" fill-opacity="1" /><path clip-path="url(#clip280)" d="M1114.53 20.1573 L1103.43 50.2555 L1125.67 50.2555 L1114.53 20.1573 M1109.91 12.096 L1119.19 12.096 L1142.23 72.576 L1133.73 72.576 L1128.22 57.061 L1100.96 57.061 L1095.45 72.576 L1086.82 72.576 L1109.91 12.096 Z" fill="#000000" fill-rule="nonzero" fill-opacity="1" /><path clip-path="url(#clip280)" d="M1177.03 34.1734 Q1175.78 33.4443 1174.28 33.1202 Q1172.82 32.7556 1171.04 32.7556 Q1164.72 32.7556 1161.31 36.8875 Q1157.95 40.9789 1157.95 48.6757 L1157.95 72.576 L1150.46 72.576 L1150.46 27.2059 L1157.95 27.2059 L1157.95 34.2544 Q1160.3 30.1225 1164.07 28.1376 Q1167.84 26.1121 1173.22 26.1121 Q1173.99 26.1121 1174.93 26.2337 Q1175.86 26.3147 1176.99 26.5172 L1177.03 34.1734 Z" fill="#000000" fill-rule="nonzero" fill-opacity="1" /><path clip-path="url(#clip280)" d="M1209.68 34.1734 Q1208.43 33.4443 1206.93 33.1202 Q1205.47 32.7556 1203.69 32.7556 Q1197.37 32.7556 1193.96 36.8875 Q1190.6 40.9789 1190.6 48.6757 L1190.6 72.576 L1183.11 72.576 L1183.11 27.2059 L1190.6 27.2059 L1190.6 34.2544 Q1192.95 30.1225 1196.72 28.1376 Q1200.49 26.1121 1205.87 26.1121 Q1206.64 26.1121 1207.58 26.2337 Q1208.51 26.3147 1209.64 26.5172 L1209.68 34.1734 Z" fill="#000000" fill-rule="nonzero" fill-opacity="1" /><path clip-path="url(#clip280)" d="M1238.12 49.7694 Q1229.09 49.7694 1225.6 51.8354 Q1222.12 53.9013 1222.12 58.8839 Q1222.12 62.8538 1224.71 65.2034 Q1227.34 67.5124 1231.84 67.5124 Q1238.04 67.5124 1241.77 63.1374 Q1245.53 58.7219 1245.53 51.4303 L1245.53 49.7694 L1238.12 49.7694 M1252.99 46.6907 L1252.99 72.576 L1245.53 72.576 L1245.53 65.6895 Q1242.98 69.8214 1239.17 71.8063 Q1235.37 73.7508 1229.86 73.7508 Q1222.89 73.7508 1218.76 69.8619 Q1214.67 65.9325 1214.67 59.3701 Q1214.67 51.7138 1219.77 47.825 Q1224.91 43.9361 1235.08 43.9361 L1245.53 43.9361 L1245.53 43.2069 Q1245.53 38.0623 1242.13 35.2672 Q1238.77 32.4315 1232.65 32.4315 Q1228.76 32.4315 1225.08 33.3632 Q1221.39 34.295 1217.99 36.1584 L1217.99 29.2718 Q1222.08 27.692 1225.93 26.9223 Q1229.77 26.1121 1233.42 26.1121 Q1243.26 26.1121 1248.13 31.2163 Q1252.99 36.3204 1252.99 46.6907 Z" fill="#000000" fill-rule="nonzero" fill-opacity="1" /><path clip-path="url(#clip280)" d="M1287.22 76.7889 Q1284.06 84.8907 1281.06 87.3618 Q1278.06 89.8329 1273.04 89.8329 L1267.08 89.8329 L1267.08 83.5945 L1271.46 83.5945 Q1274.54 83.5945 1276.24 82.1361 Q1277.94 80.6778 1280.01 75.2496 L1281.34 71.8468 L1262.99 27.2059 L1270.89 27.2059 L1285.07 62.6918 L1299.25 27.2059 L1307.15 27.2059 L1287.22 76.7889 Z" fill="#000000" fill-rule="nonzero" fill-opacity="1" /><path clip-path="url(#clip280)" d="M1373.66 49.3643 Q1373.66 41.2625 1370.3 36.8065 Q1366.98 32.3505 1360.94 32.3505 Q1354.95 32.3505 1351.59 36.8065 Q1348.26 41.2625 1348.26 49.3643 Q1348.26 57.4256 1351.59 61.8816 Q1354.95 66.3376 1360.94 66.3376 Q1366.98 66.3376 1370.3 61.8816 Q1373.66 57.4256 1373.66 49.3643 M1381.12 66.9452 Q1381.12 78.5308 1375.97 84.1616 Q1370.83 89.8329 1360.21 89.8329 Q1356.28 89.8329 1352.8 89.2252 Q1349.32 88.6581 1346.04 87.4428 L1346.04 80.1917 Q1349.32 81.9741 1352.52 82.8248 Q1355.72 83.6755 1359.04 83.6755 Q1366.37 83.6755 1370.02 79.8271 Q1373.66 76.0193 1373.66 68.282 L1373.66 64.5957 Q1371.35 68.6061 1367.75 70.5911 Q1364.14 72.576 1359.12 72.576 Q1350.78 72.576 1345.67 66.2161 Q1340.57 59.8562 1340.57 49.3643 Q1340.57 38.832 1345.67 32.472 Q1350.78 26.1121 1359.12 26.1121 Q1364.14 26.1121 1367.75 28.0971 Q1371.35 30.082 1373.66 34.0924 L1373.66 27.2059 L1381.12 27.2059 L1381.12 66.9452 Z" fill="#000000" fill-rule="nonzero" fill-opacity="1" /><path clip-path="url(#clip280)" d="M1417.09 49.7694 Q1408.06 49.7694 1404.57 51.8354 Q1401.09 53.9013 1401.09 58.8839 Q1401.09 62.8538 1403.68 65.2034 Q1406.31 67.5124 1410.81 67.5124 Q1417.01 67.5124 1420.73 63.1374 Q1424.5 58.7219 1424.5 51.4303 L1424.5 49.7694 L1417.09 49.7694 M1431.96 46.6907 L1431.96 72.576 L1424.5 72.576 L1424.5 65.6895 Q1421.95 69.8214 1418.14 71.8063 Q1414.33 73.7508 1408.82 73.7508 Q1401.86 73.7508 1397.73 69.8619 Q1393.63 65.9325 1393.63 59.3701 Q1393.63 51.7138 1398.74 47.825 Q1403.88 43.9361 1414.05 43.9361 L1424.5 43.9361 L1424.5 43.2069 Q1424.5 38.0623 1421.1 35.2672 Q1417.74 32.4315 1411.62 32.4315 Q1407.73 32.4315 1404.04 33.3632 Q1400.36 34.295 1396.96 36.1584 L1396.96 29.2718 Q1401.05 27.692 1404.9 26.9223 Q1408.74 26.1121 1412.39 26.1121 Q1422.23 26.1121 1427.09 31.2163 Q1431.96 36.3204 1431.96 46.6907 Z" fill="#000000" fill-rule="nonzero" fill-opacity="1" /><path clip-path="url(#clip280)" d="M1447.31 27.2059 L1454.76 27.2059 L1454.76 72.576 L1447.31 72.576 L1447.31 27.2059 M1447.31 9.54393 L1454.76 9.54393 L1454.76 18.9825 L1447.31 18.9825 L1447.31 9.54393 Z" fill="#000000" fill-rule="nonzero" fill-opacity="1" /><path clip-path="url(#clip280)" d="M1508.07 45.1919 L1508.07 72.576 L1500.62 72.576 L1500.62 45.4349 Q1500.62 38.994 1498.11 35.7938 Q1495.6 32.5936 1490.57 32.5936 Q1484.54 32.5936 1481.05 36.4419 Q1477.57 40.2903 1477.57 46.9338 L1477.57 72.576 L1470.07 72.576 L1470.07 27.2059 L1477.57 27.2059 L1477.57 34.2544 Q1480.24 30.163 1483.85 28.1376 Q1487.49 26.1121 1492.23 26.1121 Q1500.05 26.1121 1504.06 30.9732 Q1508.07 35.7938 1508.07 45.1919 Z" fill="#000000" fill-rule="nonzero" fill-opacity="1" /><polyline clip-path="url(#clip282)" style="stroke:#009af9; stroke-linecap:round; stroke-linejoin:round; stroke-width:4; stroke-opacity:1; fill:none" points="2293.02,15065.2 2289.04,2311.53 2285.06,2034.84 2281.07,1873.97 2277.09,1761 2273.11,1674.65 2269.13,1605.45 2265.15,1548.36 2261.16,1500.4 2257.18,1459.63 2253.2,1424.77 2249.22,1394.91 2245.23,1369.4 2241.25,1347.76 2237.27,1329.65 2233.29,1314.83 2229.3,1303.12 2225.32,1294.44 2221.34,1288.76 2217.36,1286.11 2213.38,1286.59 2209.39,1290.38 2205.41,1297.8 2201.43,1309.26 2197.45,1325.44 2193.46,1347.29 2189.48,1376.37 2185.5,1415.21 2181.52,1468.5 2177.53,1546.19 2173.55,1676.64 2169.57,2048.34 2165.59,1784.09 2161.61,1579.91 2157.62,1469.64 2153.64,1393.67 2149.66,1336 2145.68,1289.94 2141.69,1252.07 2137.71,1220.4 2133.73,1193.69 2129.75,1171.1 2125.76,1152.06 2121.78,1136.17 2117.8,1123.15 2113.82,1112.81 2109.84,1105.01 2105.85,1099.68 2101.87,1096.81 2097.89,1096.42 2093.91,1098.58 2089.92,1103.44 2085.94,1111.2 2081.96,1122.16 2077.98,1136.77 2073.99,1155.62 2070.01,1179.64 2066.03,1210.2 2062.05,1249.56 2058.07,1301.7 2054.08,1374.72 2050.1,1489.6 2046.12,1743.54 2042.14,1739.94 2038.15,1478.78 2034.17,1356.7 2030.19,1276.46 2026.21,1217.09 2022.22,1170.49 2018.24,1132.67 2014.26,1101.38 2010.28,1075.22 2006.3,1053.29 2002.31,1034.98 1998.33,1019.83 1994.35,1007.56 1990.37,997.937 1986.38,990.834 1982.4,986.164 1978.42,983.896 1974.44,984.048 1970.45,986.686 1966.47,991.936 1962.49,999.988 1958.51,1011.12 1954.53,1025.73 1950.54,1044.37 1946.56,1067.88 1942.58,1097.5 1938.6,1135.2 1934.61,1184.41 1930.63,1251.79 1926.65,1353.35 1922.67,1548.69 1918.68,1803.94 1914.7,1423.09 1910.72,1283.32 1906.74,1196.12 1902.76,1133.14 1898.77,1084.38 1894.79,1045.15 1890.81,1012.9 1886.83,986.051 1882.84,963.607 1878.86,944.885 1874.88,929.413 1870.9,916.858 1866.91,906.986 1862.93,899.642 1858.95,894.729 1854.97,892.205 1850.99,892.073 1847,894.391 1843.02,899.266 1839.04,906.873 1835.06,917.466 1831.07,931.406 1827.09,949.211 1823.11,971.626 1819.13,999.769 1815.14,1035.39 1811.16,1081.45 1807.18,1143.5 1803.2,1234.06 1799.22,1393.07 1795.23,9074.08 1791.25,1387.44 1787.27,1222.78 1783.29,1126.59 1779.3,1058.89 1775.32,1007.19 1771.34,965.921 1767.36,932.125 1763.37,904.05 1759.39,880.58 1755.41,860.967 1751.43,844.693 1747.45,831.395 1743.46,820.82 1739.48,812.791 1735.5,807.2 1731.52,803.99 1727.53,803.154 1723.55,804.736 1719.57,808.829 1715.59,815.591 1711.6,825.252 1707.62,838.145 1703.64,854.741 1699.66,875.721 1695.68,902.088 1691.69,935.4 1687.71,978.227 1683.73,1035.26 1679.75,1116.47 1675.76,1250.23 1671.78,1625.04 1667.8,1363.73 1663.82,1162.29 1659.83,1054.61 1655.85,981.07 1651.87,925.673 1647.89,881.747 1643.91,845.87 1639.92,816.062 1635.94,791.077 1631.96,770.093 1627.98,752.542 1623.99,738.027 1620.01,726.271 1616.03,717.079 1612.05,710.325 1608.07,705.942 1604.08,703.908 1600.1,704.255 1596.12,707.061 1592.14,712.467 1588.15,720.682 1584.17,732.011 1580.19,746.882 1576.21,765.916 1572.22,790.02 1568.24,820.58 1564.26,859.846 1560.28,911.803 1556.3,984.555 1552.31,1099.07 1548.33,1352.57 1544.35,1348.42 1540.37,1086.64 1536.38,963.83 1532.4,882.774 1528.42,822.499 1524.44,774.897 1520.45,735.979 1516.47,703.492 1512.49,676.044 1508.51,652.723 1504.53,632.907 1500.54,616.16 1496.56,602.174 1492.58,590.734 1488.6,581.697 1484.61,574.975 1480.63,570.534 1476.65,568.388 1472.67,568.601 1468.68,571.29 1464.7,576.643 1460.72,584.932 1456.74,596.547 1452.76,612.045 1448.77,632.242 1444.79,658.373 1440.81,692.411 1436.83,737.765 1432.84,801.097 1428.86,898.394 1424.88,1089.25 1420.9,1339.79 1416.91,953.969 1412.93,808.973 1408.95,716.26 1404.97,647.454 1400.99,592.55 1397,546.833 1393.02,507.705 1389.04,473.576 1385.06,443.404 1381.07,416.467 1377.09,392.246 1373.11,370.354 1369.13,350.495 1365.14,332.437 1361.16,315.996 1357.18,301.026 1353.2,287.404 1349.22,275.031 1345.23,263.823 1341.25,253.712 1337.27,244.639 1333.29,236.554 1329.3,229.417 1325.32,223.192 1321.34,217.851 1317.36,213.37 1313.37,209.728 1309.39,206.911 1305.41,204.908 1301.43,203.709 1297.45,203.309 1293.46,203.709 1289.48,204.908 1285.5,206.911 1281.52,209.728 1277.53,213.37 1273.55,217.851 1269.57,223.192 1265.59,229.417 1261.6,236.554 1257.62,244.639 1253.64,253.712 1249.66,263.823 1245.68,275.031 1241.69,287.404 1237.71,301.026 1233.73,315.996 1229.75,332.437 1225.76,350.495 1221.78,370.354 1217.8,392.246 1213.82,416.467 1209.83,443.404 1205.85,473.576 1201.87,507.705 1197.89,546.833 1193.91,592.55 1189.92,647.454 1185.94,716.26 1181.96,808.973 1177.98,953.969 1173.99,1339.79 1170.01,1089.25 1166.03,898.394 1162.05,801.097 1158.06,737.765 1154.08,692.411 1150.1,658.373 1146.12,632.242 1142.14,612.045 1138.15,596.547 1134.17,584.932 1130.19,576.643 1126.21,571.29 1122.22,568.601 1118.24,568.388 1114.26,570.534 1110.28,574.975 1106.29,581.697 1102.31,590.734 1098.33,602.174 1094.35,616.16 1090.37,632.907 1086.38,652.723 1082.4,676.044 1078.42,703.492 1074.44,735.979 1070.45,774.897 1066.47,822.499 1062.49,882.774 1058.51,963.83 1054.52,1086.64 1050.54,1348.42 1046.56,1352.57 1042.58,1099.07 1038.6,984.555 1034.61,911.803 1030.63,859.846 1026.65,820.58 1022.67,790.02 1018.68,765.916 1014.7,746.882 1010.72,732.011 1006.74,720.682 1002.75,712.467 998.772,707.061 994.79,704.255 990.808,703.908 986.826,705.942 982.843,710.325 978.861,717.079 974.879,726.271 970.896,738.027 966.914,752.542 962.932,770.093 958.949,791.077 954.967,816.062 950.985,845.87 947.003,881.747 943.02,925.673 939.038,981.07 935.056,1054.61 931.073,1162.29 927.091,1363.73 923.109,1625.04 919.126,1250.23 915.144,1116.47 911.162,1035.26 907.179,978.227 903.197,935.4 899.215,902.088 895.233,875.721 891.25,854.741 887.268,838.145 883.286,825.252 879.303,815.591 875.321,808.829 871.339,804.736 867.356,803.154 863.374,803.99 859.392,807.2 855.41,812.791 851.427,820.82 847.445,831.395 843.463,844.693 839.48,860.967 835.498,880.58 831.516,904.05 827.533,932.125 823.551,965.921 819.569,1007.19 815.586,1058.89 811.604,1126.59 807.622,1222.78 803.64,1387.44 799.657,9074.08 795.675,1393.07 791.693,1234.06 787.71,1143.5 783.728,1081.45 779.746,1035.39 775.763,999.769 771.781,971.626 767.799,949.211 763.817,931.406 759.834,917.466 755.852,906.873 751.87,899.266 747.887,894.391 743.905,892.073 739.923,892.205 735.94,894.729 731.958,899.642 727.976,906.986 723.993,916.858 720.011,929.413 716.029,944.885 712.047,963.607 708.064,986.051 704.082,1012.9 700.1,1045.15 696.117,1084.38 692.135,1133.14 688.153,1196.12 684.17,1283.32 680.188,1423.09 676.206,1803.94 672.224,1548.69 668.241,1353.35 664.259,1251.79 660.277,1184.41 656.294,1135.2 652.312,1097.5 648.33,1067.88 644.347,1044.37 640.365,1025.73 636.383,1011.12 632.4,999.988 628.418,991.936 624.436,986.686 620.454,984.048 616.471,983.896 612.489,986.164 608.507,990.834 604.524,997.937 600.542,1007.56 596.56,1019.83 592.577,1034.98 588.595,1053.29 584.613,1075.22 580.631,1101.38 576.648,1132.67 572.666,1170.49 568.684,1217.09 564.701,1276.46 560.719,1356.7 556.737,1478.78 552.754,1739.94 548.772,1743.54 544.79,1489.6 540.807,1374.72 536.825,1301.7 532.843,1249.56 528.861,1210.2 524.878,1179.64 520.896,1155.62 516.914,1136.77 512.931,1122.16 508.949,1111.2 504.967,1103.44 500.984,1098.58 497.002,1096.42 493.02,1096.81 489.038,1099.68 485.055,1105.01 481.073,1112.81 477.091,1123.15 473.108,1136.17 469.126,1152.06 465.144,1171.1 461.161,1193.69 457.179,1220.4 453.197,1252.07 449.214,1289.94 445.232,1336 441.25,1393.67 437.268,1469.64 433.285,1579.91 429.303,1784.09 425.321,2048.34 421.338,1676.64 417.356,1546.19 413.374,1468.5 409.391,1415.21 405.409,1376.37 401.427,1347.29 397.445,1325.44 393.462,1309.26 389.48,1297.8 385.498,1290.38 381.515,1286.59 377.533,1286.11 373.551,1288.76 369.568,1294.44 365.586,1303.12 361.604,1314.83 357.621,1329.65 353.639,1347.76 349.657,1369.4 345.675,1394.91 341.692,1424.77 337.71,1459.63 333.728,1500.4 329.745,1548.36 325.763,1605.45 321.781,1674.65 317.798,1761 313.816,1873.97 309.834,2034.84 305.852,2311.53 301.869,15065.2 "/>
<polyline clip-path="url(#clip282)" style="stroke:#e26f46; stroke-linecap:round; stroke-linejoin:round; stroke-width:4; stroke-opacity:1; fill:none" points="2293.02,15155.3 2289.04,2475.76 2285.06,2199.1 2281.07,2038.25 2277.09,1925.31 2273.11,1838.99 2269.13,1769.81 2265.15,1712.76 2261.16,1664.82 2257.18,1624.09 2253.2,1589.26 2249.22,1559.43 2245.23,1533.95 2241.25,1512.34 2237.27,1494.26 2233.29,1479.47 2229.3,1467.8 2225.32,1459.16 2221.34,1453.51 2217.36,1450.89 2213.38,1451.4 2209.39,1455.24 2205.41,1462.69 2201.43,1474.19 2197.45,1490.4 2193.46,1512.29 2189.48,1541.4 2185.5,1580.29 2181.52,1633.61 2177.53,1711.35 2173.55,1841.83 2169.57,2213.57 2165.59,1949.37 2161.61,1745.23 2157.62,1635 2153.64,1559.08 2149.66,1501.45 2145.68,1455.43 2141.69,1417.61 2137.71,1385.99 2133.73,1359.32 2129.75,1336.77 2125.76,1317.78 2121.78,1301.94 2117.8,1288.98 2113.82,1278.68 2109.84,1270.93 2105.85,1265.66 2101.87,1262.84 2097.89,1262.5 2093.91,1264.71 2089.92,1269.63 2085.94,1277.44 2081.96,1288.47 2077.98,1303.13 2073.99,1322.04 2070.01,1346.12 2066.03,1376.74 2062.05,1416.16 2058.07,1468.36 2054.08,1541.45 2050.1,1656.39 2046.12,1910.4 2042.14,1906.86 2038.15,1645.78 2034.17,1523.76 2030.19,1443.59 2026.21,1384.29 2022.22,1337.76 2018.24,1300.02 2014.26,1268.8 2010.28,1242.72 2006.3,1220.87 2002.31,1202.63 1998.33,1187.57 1994.35,1175.37 1990.37,1165.84 1986.38,1158.82 1982.4,1154.24 1978.42,1152.06 1974.44,1152.3 1970.45,1155.03 1966.47,1160.37 1962.49,1168.52 1958.51,1179.74 1954.53,1194.45 1950.54,1213.2 1946.56,1236.81 1942.58,1266.53 1938.6,1304.33 1934.61,1353.64 1930.63,1421.14 1926.65,1522.81 1922.67,1718.26 1918.68,1973.63 1914.7,1592.89 1910.72,1453.25 1906.74,1366.17 1902.76,1303.31 1898.77,1254.68 1894.79,1215.59 1890.81,1183.46 1886.83,1156.75 1882.84,1134.44 1878.86,1115.86 1874.88,1100.53 1870.9,1088.12 1866.91,1078.4 1862.93,1071.21 1858.95,1066.45 1854.97,1064.08 1850.99,1064.11 1847,1066.59 1843.02,1071.63 1839.04,1079.41 1835.06,1090.17 1831.07,1104.29 1827.09,1122.27 1823.11,1144.87 1819.13,1173.2 1815.14,1209.01 1811.16,1255.26 1807.18,1317.5 1803.2,1408.26 1799.22,1567.47 1795.23,8948.93 1791.25,1562.24 1787.27,1397.79 1783.29,1301.8 1779.3,1234.32 1775.32,1182.83 1771.34,1141.76 1767.36,1108.17 1763.37,1080.3 1759.39,1057.03 1755.41,1037.61 1751.43,1021.53 1747.45,1008.4 1743.46,997.991 1739.48,990.107 1735.5,984.636 1731.52,981.516 1727.53,980.732 1723.55,982.313 1719.57,986.338 1715.59,992.943 1711.6,1002.33 1707.62,1014.78 1703.64,1030.7 1699.66,1050.68 1695.68,1075.55 1691.69,1106.58 1687.71,1145.8 1683.73,1196.73 1679.75,1266.24 1675.76,1371.06 1671.78,1575.42 1667.8,1781.79 1663.82,1430.92 1659.83,1295.83 1655.85,1211.25 1651.87,1150.3 1647.89,1103.36 1643.91,1065.88 1639.92,1035.36 1635.94,1010.27 1631.96,989.637 1627.98,972.815 1623.99,959.354 1620.01,948.947 1616.03,941.39 1612.05,936.564 1608.07,934.415 1604.08,934.953 1600.1,938.253 1596.12,944.458 1592.14,953.8 1588.15,966.617 1584.17,983.404 1580.19,1004.88 1576.21,1032.12 1572.22,1066.8 1568.24,1111.75 1564.26,1172.21 1560.28,1259.74 1556.3,1409.65 1552.31,2002.73 1548.33,1446.23 1544.35,1271.85 1540.37,1173.57 1536.38,1105.9 1532.4,1055.31 1528.42,1015.94 1524.44,984.769 1520.45,960.058 1516.47,940.772 1512.49,926.293 1508.51,916.292 1504.53,910.663 1500.54,909.509 1496.56,913.16 1492.58,922.238 1488.6,937.799 1484.61,961.618 1480.63,996.827 1476.65,1049.55 1472.67,1134.2 1468.68,1301.21 1464.7,1691.05 1460.72,1199.65 1456.74,1038.95 1452.76,936.22 1448.77,859.139 1444.79,796.776 1440.81,744.08 1436.83,698.291 1432.84,657.733 1428.86,621.307 1424.88,588.255 1420.9,558.028 1416.91,530.218 1412.93,504.509 1408.95,480.657 1404.97,458.462 1400.99,437.766 1397,418.435 1393.02,400.36 1389.04,383.447 1385.06,367.616 1381.07,352.801 1377.09,338.942 1373.11,325.988 1369.13,313.895 1365.14,302.624 1361.16,292.14 1357.18,282.414 1353.2,273.419 1349.22,265.131 1345.23,257.529 1341.25,250.596 1337.27,244.314 1333.29,238.67 1329.3,233.652 1325.32,229.247 1321.34,225.448 1317.36,222.246 1313.37,219.635 1309.39,217.609 1305.41,216.165 1301.43,215.3 1297.45,215.012 1293.46,215.3 1289.48,216.165 1285.5,217.609 1281.52,219.635 1277.53,222.246 1273.55,225.448 1269.57,229.247 1265.59,233.652 1261.6,238.67 1257.62,244.314 1253.64,250.596 1249.66,257.529 1245.68,265.131 1241.69,273.419 1237.71,282.414 1233.73,292.14 1229.75,302.624 1225.76,313.895 1221.78,325.988 1217.8,338.942 1213.82,352.801 1209.83,367.616 1205.85,383.447 1201.87,400.36 1197.89,418.435 1193.91,437.766 1189.92,458.462 1185.94,480.657 1181.96,504.509 1177.98,530.218 1173.99,558.028 1170.01,588.255 1166.03,621.307 1162.05,657.733 1158.06,698.291 1154.08,744.08 1150.1,796.776 1146.12,859.139 1142.14,936.22 1138.15,1038.95 1134.17,1199.65 1130.19,1691.05 1126.21,1301.21 1122.22,1134.2 1118.24,1049.55 1114.26,996.827 1110.28,961.618 1106.29,937.799 1102.31,922.238 1098.33,913.16 1094.35,909.509 1090.37,910.663 1086.38,916.292 1082.4,926.293 1078.42,940.772 1074.44,960.058 1070.45,984.769 1066.47,1015.94 1062.49,1055.31 1058.51,1105.9 1054.52,1173.57 1050.54,1271.85 1046.56,1446.23 1042.58,2002.73 1038.6,1409.65 1034.61,1259.74 1030.63,1172.21 1026.65,1111.75 1022.67,1066.8 1018.68,1032.12 1014.7,1004.88 1010.72,983.404 1006.74,966.617 1002.75,953.8 998.772,944.458 994.79,938.253 990.808,934.953 986.826,934.415 982.843,936.564 978.861,941.39 974.879,948.947 970.896,959.354 966.914,972.815 962.932,989.637 958.949,1010.27 954.967,1035.36 950.985,1065.88 947.003,1103.36 943.02,1150.3 939.038,1211.25 935.056,1295.83 931.073,1430.92 927.091,1781.79 923.109,1575.42 919.126,1371.06 915.144,1266.24 911.162,1196.73 907.179,1145.8 903.197,1106.58 899.215,1075.55 895.233,1050.68 891.25,1030.7 887.268,1014.78 883.286,1002.33 879.303,992.943 875.321,986.338 871.339,982.313 867.356,980.732 863.374,981.516 859.392,984.636 855.41,990.107 851.427,997.991 847.445,1008.4 843.463,1021.53 839.48,1037.61 835.498,1057.03 831.516,1080.3 827.533,1108.17 823.551,1141.76 819.569,1182.83 815.586,1234.32 811.604,1301.8 807.622,1397.79 803.64,1562.24 799.657,8948.93 795.675,1567.47 791.693,1408.26 787.71,1317.5 783.728,1255.26 779.746,1209.01 775.763,1173.2 771.781,1144.87 767.799,1122.27 763.817,1104.29 759.834,1090.17 755.852,1079.41 751.87,1071.63 747.887,1066.59 743.905,1064.11 739.923,1064.08 735.94,1066.45 731.958,1071.21 727.976,1078.4 723.993,1088.12 720.011,1100.53 716.029,1115.86 712.047,1134.44 708.064,1156.75 704.082,1183.46 700.1,1215.59 696.117,1254.68 692.135,1303.31 688.153,1366.17 684.17,1453.25 680.188,1592.89 676.206,1973.63 672.224,1718.26 668.241,1522.81 664.259,1421.14 660.277,1353.64 656.294,1304.33 652.312,1266.53 648.33,1236.81 644.347,1213.2 640.365,1194.45 636.383,1179.74 632.4,1168.52 628.418,1160.37 624.436,1155.03 620.454,1152.3 616.471,1152.06 612.489,1154.24 608.507,1158.82 604.524,1165.84 600.542,1175.37 596.56,1187.57 592.577,1202.63 588.595,1220.87 584.613,1242.72 580.631,1268.8 576.648,1300.02 572.666,1337.76 568.684,1384.29 564.701,1443.59 560.719,1523.76 556.737,1645.78 552.754,1906.86 548.772,1910.4 544.79,1656.39 540.807,1541.45 536.825,1468.36 532.843,1416.16 528.861,1376.74 524.878,1346.12 520.896,1322.04 516.914,1303.13 512.931,1288.47 508.949,1277.44 504.967,1269.63 500.984,1264.71 497.002,1262.5 493.02,1262.84 489.038,1265.66 485.055,1270.93 481.073,1278.68 477.091,1288.98 473.108,1301.94 469.126,1317.78 465.144,1336.77 461.161,1359.32 457.179,1385.99 453.197,1417.61 449.214,1455.43 445.232,1501.45 441.25,1559.08 437.268,1635 433.285,1745.23 429.303,1949.37 425.321,2213.57 421.338,1841.83 417.356,1711.35 413.374,1633.61 409.391,1580.29 405.409,1541.4 401.427,1512.29 397.445,1490.4 393.462,1474.19 389.48,1462.69 385.498,1455.24 381.515,1451.4 377.533,1450.89 373.551,1453.51 369.568,1459.16 365.586,1467.8 361.604,1479.47 357.621,1494.26 353.639,1512.34 349.657,1533.95 345.675,1559.43 341.692,1589.26 337.71,1624.09 333.728,1664.82 329.745,1712.76 325.763,1769.81 321.781,1838.99 317.798,1925.31 313.816,2038.25 309.834,2199.1 305.852,2475.76 301.869,15155.3 "/>
<path clip-path="url(#clip280)" d="M1689.72 322.316 L2282.4 322.316 L2282.4 166.796 L1689.72 166.796  Z" fill="#ffffff" fill-rule="evenodd" fill-opacity="1"/>
<polyline clip-path="url(#clip280)" style="stroke:#000000; stroke-linecap:round; stroke-linejoin:round; stroke-width:4; stroke-opacity:1; fill:none" points="1689.72,322.316 2282.4,322.316 2282.4,166.796 1689.72,166.796 1689.72,322.316 "/>
<polyline clip-path="url(#clip280)" style="stroke:#009af9; stroke-linecap:round; stroke-linejoin:round; stroke-width:4; stroke-opacity:1; fill:none" points="1713.17,218.636 1853.88,218.636 "/>
<path clip-path="url(#clip280)" d="M1877.33 201.356 L1882.03 201.356 L1882.03 222.351 Q1882.03 227.907 1884.05 230.36 Q1886.06 232.791 1890.57 232.791 Q1895.06 232.791 1897.08 230.36 Q1899.09 227.907 1899.09 222.351 L1899.09 201.356 L1903.79 201.356 L1903.79 222.93 Q1903.79 229.689 1900.43 233.138 Q1897.1 236.587 1890.57 236.587 Q1884.02 236.587 1880.67 233.138 Q1877.33 229.689 1877.33 222.93 L1877.33 201.356 Z" fill="#000000" fill-rule="nonzero" fill-opacity="1" /><path clip-path="url(#clip280)" d="M1933.93 220.268 L1933.93 235.916 L1929.67 235.916 L1929.67 220.407 Q1929.67 216.726 1928.23 214.897 Q1926.8 213.069 1923.93 213.069 Q1920.48 213.069 1918.49 215.268 Q1916.5 217.467 1916.5 221.263 L1916.5 235.916 L1912.22 235.916 L1912.22 209.99 L1916.5 209.99 L1916.5 214.018 Q1918.03 211.68 1920.09 210.522 Q1922.17 209.365 1924.88 209.365 Q1929.35 209.365 1931.64 212.143 Q1933.93 214.897 1933.93 220.268 Z" fill="#000000" fill-rule="nonzero" fill-opacity="1" /><path clip-path="url(#clip280)" d="M1942.42 209.99 L1946.68 209.99 L1946.68 235.916 L1942.42 235.916 L1942.42 209.99 M1942.42 199.897 L1946.68 199.897 L1946.68 205.291 L1942.42 205.291 L1942.42 199.897 Z" fill="#000000" fill-rule="nonzero" fill-opacity="1" /><path clip-path="url(#clip280)" d="M1968.72 199.897 L1968.72 203.439 L1964.65 203.439 Q1962.35 203.439 1961.45 204.365 Q1960.57 205.291 1960.57 207.698 L1960.57 209.99 L1967.59 209.99 L1967.59 213.3 L1960.57 213.3 L1960.57 235.916 L1956.29 235.916 L1956.29 213.3 L1952.22 213.3 L1952.22 209.99 L1956.29 209.99 L1956.29 208.184 Q1956.29 203.856 1958.3 201.888 Q1960.32 199.897 1964.69 199.897 L1968.72 199.897 Z" fill="#000000" fill-rule="nonzero" fill-opacity="1" /><path clip-path="url(#clip280)" d="M1982.33 212.976 Q1978.91 212.976 1976.91 215.661 Q1974.92 218.323 1974.92 222.976 Q1974.92 227.629 1976.89 230.314 Q1978.88 232.976 1982.33 232.976 Q1985.73 232.976 1987.73 230.291 Q1989.72 227.606 1989.72 222.976 Q1989.72 218.37 1987.73 215.684 Q1985.73 212.976 1982.33 212.976 M1982.33 209.365 Q1987.89 209.365 1991.06 212.976 Q1994.23 216.587 1994.23 222.976 Q1994.23 229.342 1991.06 232.976 Q1987.89 236.587 1982.33 236.587 Q1976.75 236.587 1973.58 232.976 Q1970.43 229.342 1970.43 222.976 Q1970.43 216.587 1973.58 212.976 Q1976.75 209.365 1982.33 209.365 Z" fill="#000000" fill-rule="nonzero" fill-opacity="1" /><path clip-path="url(#clip280)" d="M2016.31 213.971 Q2015.6 213.555 2014.74 213.37 Q2013.91 213.161 2012.89 213.161 Q2009.28 213.161 2007.33 215.522 Q2005.41 217.86 2005.41 222.258 L2005.41 235.916 L2001.13 235.916 L2001.13 209.99 L2005.41 209.99 L2005.41 214.018 Q2006.75 211.657 2008.91 210.522 Q2011.06 209.365 2014.14 209.365 Q2014.58 209.365 2015.11 209.434 Q2015.64 209.481 2016.29 209.596 L2016.31 213.971 Z" fill="#000000" fill-rule="nonzero" fill-opacity="1" /><path clip-path="url(#clip280)" d="M2040.13 214.967 Q2041.73 212.096 2043.95 210.731 Q2046.17 209.365 2049.18 209.365 Q2053.23 209.365 2055.43 212.212 Q2057.63 215.036 2057.63 220.268 L2057.63 235.916 L2053.35 235.916 L2053.35 220.407 Q2053.35 216.68 2052.03 214.874 Q2050.71 213.069 2048 213.069 Q2044.69 213.069 2042.77 215.268 Q2040.85 217.467 2040.85 221.263 L2040.85 235.916 L2036.57 235.916 L2036.57 220.407 Q2036.57 216.657 2035.25 214.874 Q2033.93 213.069 2031.17 213.069 Q2027.91 213.069 2025.99 215.291 Q2024.07 217.49 2024.07 221.263 L2024.07 235.916 L2019.79 235.916 L2019.79 209.99 L2024.07 209.99 L2024.07 214.018 Q2025.53 211.633 2027.56 210.499 Q2029.6 209.365 2032.4 209.365 Q2035.22 209.365 2037.19 210.8 Q2039.18 212.235 2040.13 214.967 Z" fill="#000000" fill-rule="nonzero" fill-opacity="1" /><path clip-path="url(#clip280)" d="M2078.72 209.99 L2082.98 209.99 L2088.3 230.221 L2093.6 209.99 L2098.63 209.99 L2103.95 230.221 L2109.25 209.99 L2113.51 209.99 L2106.73 235.916 L2101.71 235.916 L2096.13 214.666 L2090.53 235.916 L2085.5 235.916 L2078.72 209.99 Z" fill="#000000" fill-rule="nonzero" fill-opacity="1" /><path clip-path="url(#clip280)" d="M2142.15 221.888 L2142.15 223.971 L2122.56 223.971 Q2122.84 228.369 2125.2 230.684 Q2127.59 232.976 2131.82 232.976 Q2134.28 232.976 2136.57 232.374 Q2138.88 231.772 2141.15 230.569 L2141.15 234.596 Q2138.86 235.568 2136.45 236.078 Q2134.04 236.587 2131.57 236.587 Q2125.36 236.587 2121.73 232.976 Q2118.12 229.365 2118.12 223.207 Q2118.12 216.842 2121.54 213.115 Q2124.99 209.365 2130.83 209.365 Q2136.06 209.365 2139.09 212.745 Q2142.15 216.101 2142.15 221.888 M2137.89 220.638 Q2137.84 217.143 2135.92 215.059 Q2134.02 212.976 2130.87 212.976 Q2127.31 212.976 2125.15 214.99 Q2123.03 217.004 2122.7 220.661 L2137.89 220.638 Z" fill="#000000" fill-rule="nonzero" fill-opacity="1" /><path clip-path="url(#clip280)" d="M2149.14 209.99 L2153.4 209.99 L2153.4 235.916 L2149.14 235.916 L2149.14 209.99 M2149.14 199.897 L2153.4 199.897 L2153.4 205.291 L2149.14 205.291 L2149.14 199.897 Z" fill="#000000" fill-rule="nonzero" fill-opacity="1" /><path clip-path="url(#clip280)" d="M2179.37 222.652 Q2179.37 218.022 2177.45 215.476 Q2175.55 212.93 2172.1 212.93 Q2168.67 212.93 2166.75 215.476 Q2164.85 218.022 2164.85 222.652 Q2164.85 227.258 2166.75 229.805 Q2168.67 232.351 2172.1 232.351 Q2175.55 232.351 2177.45 229.805 Q2179.37 227.258 2179.37 222.652 M2183.63 232.698 Q2183.63 239.318 2180.69 242.536 Q2177.75 245.777 2171.68 245.777 Q2169.44 245.777 2167.45 245.43 Q2165.46 245.105 2163.58 244.411 L2163.58 240.268 Q2165.46 241.286 2167.28 241.772 Q2169.11 242.258 2171.01 242.258 Q2175.2 242.258 2177.28 240.059 Q2179.37 237.883 2179.37 233.462 L2179.37 231.356 Q2178.05 233.647 2175.99 234.781 Q2173.93 235.916 2171.06 235.916 Q2166.29 235.916 2163.37 232.281 Q2160.46 228.647 2160.46 222.652 Q2160.46 216.633 2163.37 212.999 Q2166.29 209.365 2171.06 209.365 Q2173.93 209.365 2175.99 210.499 Q2178.05 211.633 2179.37 213.925 L2179.37 209.99 L2183.63 209.99 L2183.63 232.698 Z" fill="#000000" fill-rule="nonzero" fill-opacity="1" /><path clip-path="url(#clip280)" d="M2213.95 220.268 L2213.95 235.916 L2209.69 235.916 L2209.69 220.407 Q2209.69 216.726 2208.26 214.897 Q2206.82 213.069 2203.95 213.069 Q2200.5 213.069 2198.51 215.268 Q2196.52 217.467 2196.52 221.263 L2196.52 235.916 L2192.24 235.916 L2192.24 199.897 L2196.52 199.897 L2196.52 214.018 Q2198.05 211.68 2200.11 210.522 Q2202.19 209.365 2204.9 209.365 Q2209.37 209.365 2211.66 212.143 Q2213.95 214.897 2213.95 220.268 Z" fill="#000000" fill-rule="nonzero" fill-opacity="1" /><path clip-path="url(#clip280)" d="M2226.66 202.629 L2226.66 209.99 L2235.43 209.99 L2235.43 213.3 L2226.66 213.3 L2226.66 227.374 Q2226.66 230.545 2227.52 231.448 Q2228.4 232.351 2231.06 232.351 L2235.43 232.351 L2235.43 235.916 L2231.06 235.916 Q2226.13 235.916 2224.25 234.087 Q2222.38 232.235 2222.38 227.374 L2222.38 213.3 L2219.25 213.3 L2219.25 209.99 L2222.38 209.99 L2222.38 202.629 L2226.66 202.629 Z" fill="#000000" fill-rule="nonzero" fill-opacity="1" /><path clip-path="url(#clip280)" d="M2257.56 210.754 L2257.56 214.782 Q2255.76 213.856 2253.81 213.393 Q2251.87 212.93 2249.78 212.93 Q2246.61 212.93 2245.02 213.902 Q2243.44 214.874 2243.44 216.819 Q2243.44 218.3 2244.58 219.157 Q2245.71 219.99 2249.14 220.754 L2250.59 221.078 Q2255.13 222.05 2257.03 223.832 Q2258.95 225.592 2258.95 228.763 Q2258.95 232.374 2256.08 234.481 Q2253.23 236.587 2248.23 236.587 Q2246.15 236.587 2243.88 236.17 Q2241.64 235.777 2239.14 234.967 L2239.14 230.569 Q2241.5 231.795 2243.79 232.42 Q2246.08 233.022 2248.33 233.022 Q2251.33 233.022 2252.96 232.004 Q2254.58 230.962 2254.58 229.087 Q2254.58 227.351 2253.39 226.425 Q2252.24 225.499 2248.28 224.643 L2246.8 224.295 Q2242.84 223.462 2241.08 221.749 Q2239.32 220.013 2239.32 217.004 Q2239.32 213.346 2241.91 211.356 Q2244.51 209.365 2249.27 209.365 Q2251.64 209.365 2253.72 209.712 Q2255.8 210.059 2257.56 210.754 Z" fill="#000000" fill-rule="nonzero" fill-opacity="1" /><polyline clip-path="url(#clip280)" style="stroke:#e26f46; stroke-linecap:round; stroke-linejoin:round; stroke-width:4; stroke-opacity:1; fill:none" points="1713.17,270.476 1853.88,270.476 "/>
<path clip-path="url(#clip280)" d="M1877.33 253.196 L1906.57 253.196 L1906.57 257.131 L1894.3 257.131 L1894.3 287.756 L1889.6 287.756 L1889.6 257.131 L1877.33 257.131 L1877.33 253.196 Z" fill="#000000" fill-rule="nonzero" fill-opacity="1" /><path clip-path="url(#clip280)" d="M1914.83 274.723 Q1909.67 274.723 1907.68 275.904 Q1905.69 277.084 1905.69 279.932 Q1905.69 282.2 1907.17 283.543 Q1908.67 284.862 1911.24 284.862 Q1914.79 284.862 1916.92 282.362 Q1919.07 279.839 1919.07 275.672 L1919.07 274.723 L1914.83 274.723 M1923.33 272.964 L1923.33 287.756 L1919.07 287.756 L1919.07 283.821 Q1917.61 286.182 1915.43 287.316 Q1913.26 288.427 1910.11 288.427 Q1906.13 288.427 1903.77 286.205 Q1901.43 283.959 1901.43 280.209 Q1901.43 275.834 1904.35 273.612 Q1907.29 271.39 1913.1 271.39 L1919.07 271.39 L1919.07 270.973 Q1919.07 268.034 1917.12 266.436 Q1915.2 264.816 1911.71 264.816 Q1909.48 264.816 1907.38 265.348 Q1905.27 265.881 1903.33 266.946 L1903.33 263.01 Q1905.67 262.108 1907.86 261.668 Q1910.06 261.205 1912.15 261.205 Q1917.77 261.205 1920.55 264.122 Q1923.33 267.038 1923.33 272.964 Z" fill="#000000" fill-rule="nonzero" fill-opacity="1" /><path clip-path="url(#clip280)" d="M1942.89 290.163 Q1941.08 294.793 1939.37 296.205 Q1937.66 297.617 1934.79 297.617 L1931.38 297.617 L1931.38 294.052 L1933.88 294.052 Q1935.64 294.052 1936.61 293.219 Q1937.59 292.385 1938.77 289.283 L1939.53 287.339 L1929.04 261.83 L1933.56 261.83 L1941.66 282.108 L1949.76 261.83 L1954.28 261.83 L1942.89 290.163 Z" fill="#000000" fill-rule="nonzero" fill-opacity="1" /><path clip-path="url(#clip280)" d="M1960.16 251.737 L1964.42 251.737 L1964.42 287.756 L1960.16 287.756 L1960.16 251.737 Z" fill="#000000" fill-rule="nonzero" fill-opacity="1" /><path clip-path="url(#clip280)" d="M1983.37 264.816 Q1979.95 264.816 1977.96 267.501 Q1975.97 270.163 1975.97 274.816 Q1975.97 279.469 1977.93 282.154 Q1979.92 284.816 1983.37 284.816 Q1986.78 284.816 1988.77 282.131 Q1990.76 279.446 1990.76 274.816 Q1990.76 270.21 1988.77 267.524 Q1986.78 264.816 1983.37 264.816 M1983.37 261.205 Q1988.93 261.205 1992.1 264.816 Q1995.27 268.427 1995.27 274.816 Q1995.27 281.182 1992.1 284.816 Q1988.93 288.427 1983.37 288.427 Q1977.79 288.427 1974.62 284.816 Q1971.48 281.182 1971.48 274.816 Q1971.48 268.427 1974.62 264.816 Q1977.79 261.205 1983.37 261.205 Z" fill="#000000" fill-rule="nonzero" fill-opacity="1" /><path clip-path="url(#clip280)" d="M2017.35 265.811 Q2016.64 265.395 2015.78 265.21 Q2014.95 265.001 2013.93 265.001 Q2010.32 265.001 2008.37 267.362 Q2006.45 269.7 2006.45 274.098 L2006.45 287.756 L2002.17 287.756 L2002.17 261.83 L2006.45 261.83 L2006.45 265.858 Q2007.79 263.497 2009.95 262.362 Q2012.1 261.205 2015.18 261.205 Q2015.62 261.205 2016.15 261.274 Q2016.68 261.321 2017.33 261.436 L2017.35 265.811 Z" fill="#000000" fill-rule="nonzero" fill-opacity="1" /><path clip-path="url(#clip280)" d="M2034.41 261.83 L2038.67 261.83 L2044 282.061 L2049.3 261.83 L2054.32 261.83 L2059.65 282.061 L2064.95 261.83 L2069.21 261.83 L2062.42 287.756 L2057.4 287.756 L2051.82 266.506 L2046.22 287.756 L2041.2 287.756 L2034.41 261.83 Z" fill="#000000" fill-rule="nonzero" fill-opacity="1" /><path clip-path="url(#clip280)" d="M2097.84 273.728 L2097.84 275.811 L2078.26 275.811 Q2078.53 280.209 2080.9 282.524 Q2083.28 284.816 2087.52 284.816 Q2089.97 284.816 2092.26 284.214 Q2094.58 283.612 2096.84 282.409 L2096.84 286.436 Q2094.55 287.408 2092.15 287.918 Q2089.74 288.427 2087.26 288.427 Q2081.06 288.427 2077.42 284.816 Q2073.81 281.205 2073.81 275.047 Q2073.81 268.682 2077.24 264.955 Q2080.69 261.205 2086.52 261.205 Q2091.75 261.205 2094.78 264.585 Q2097.84 267.941 2097.84 273.728 M2093.58 272.478 Q2093.53 268.983 2091.61 266.899 Q2089.72 264.816 2086.57 264.816 Q2083 264.816 2080.85 266.83 Q2078.72 268.844 2078.4 272.501 L2093.58 272.478 Z" fill="#000000" fill-rule="nonzero" fill-opacity="1" /><path clip-path="url(#clip280)" d="M2104.83 261.83 L2109.09 261.83 L2109.09 287.756 L2104.83 287.756 L2104.83 261.83 M2104.83 251.737 L2109.09 251.737 L2109.09 257.131 L2104.83 257.131 L2104.83 251.737 Z" fill="#000000" fill-rule="nonzero" fill-opacity="1" /><path clip-path="url(#clip280)" d="M2135.06 274.492 Q2135.06 269.862 2133.14 267.316 Q2131.24 264.77 2127.79 264.77 Q2124.37 264.77 2122.45 267.316 Q2120.55 269.862 2120.55 274.492 Q2120.55 279.098 2122.45 281.645 Q2124.37 284.191 2127.79 284.191 Q2131.24 284.191 2133.14 281.645 Q2135.06 279.098 2135.06 274.492 M2139.32 284.538 Q2139.32 291.158 2136.38 294.376 Q2133.44 297.617 2127.38 297.617 Q2125.13 297.617 2123.14 297.27 Q2121.15 296.945 2119.28 296.251 L2119.28 292.108 Q2121.15 293.126 2122.98 293.612 Q2124.81 294.098 2126.71 294.098 Q2130.9 294.098 2132.98 291.899 Q2135.06 289.723 2135.06 285.302 L2135.06 283.196 Q2133.74 285.487 2131.68 286.621 Q2129.62 287.756 2126.75 287.756 Q2121.98 287.756 2119.07 284.121 Q2116.15 280.487 2116.15 274.492 Q2116.15 268.473 2119.07 264.839 Q2121.98 261.205 2126.75 261.205 Q2129.62 261.205 2131.68 262.339 Q2133.74 263.473 2135.06 265.765 L2135.06 261.83 L2139.32 261.83 L2139.32 284.538 Z" fill="#000000" fill-rule="nonzero" fill-opacity="1" /><path clip-path="url(#clip280)" d="M2169.65 272.108 L2169.65 287.756 L2165.39 287.756 L2165.39 272.247 Q2165.39 268.566 2163.95 266.737 Q2162.52 264.909 2159.65 264.909 Q2156.2 264.909 2154.21 267.108 Q2152.21 269.307 2152.21 273.103 L2152.21 287.756 L2147.93 287.756 L2147.93 251.737 L2152.21 251.737 L2152.21 265.858 Q2153.74 263.52 2155.8 262.362 Q2157.89 261.205 2160.59 261.205 Q2165.06 261.205 2167.35 263.983 Q2169.65 266.737 2169.65 272.108 Z" fill="#000000" fill-rule="nonzero" fill-opacity="1" /><path clip-path="url(#clip280)" d="M2182.35 254.469 L2182.35 261.83 L2191.13 261.83 L2191.13 265.14 L2182.35 265.14 L2182.35 279.214 Q2182.35 282.385 2183.21 283.288 Q2184.09 284.191 2186.75 284.191 L2191.13 284.191 L2191.13 287.756 L2186.75 287.756 Q2181.82 287.756 2179.95 285.927 Q2178.07 284.075 2178.07 279.214 L2178.07 265.14 L2174.95 265.14 L2174.95 261.83 L2178.07 261.83 L2178.07 254.469 L2182.35 254.469 Z" fill="#000000" fill-rule="nonzero" fill-opacity="1" /><path clip-path="url(#clip280)" d="M2213.26 262.594 L2213.26 266.622 Q2211.45 265.696 2209.51 265.233 Q2207.56 264.77 2205.48 264.77 Q2202.31 264.77 2200.71 265.742 Q2199.14 266.714 2199.14 268.659 Q2199.14 270.14 2200.27 270.997 Q2201.4 271.83 2204.83 272.594 L2206.29 272.918 Q2210.83 273.89 2212.72 275.672 Q2214.65 277.432 2214.65 280.603 Q2214.65 284.214 2211.77 286.321 Q2208.93 288.427 2203.93 288.427 Q2201.84 288.427 2199.58 288.01 Q2197.33 287.617 2194.83 286.807 L2194.83 282.409 Q2197.19 283.635 2199.48 284.26 Q2201.77 284.862 2204.02 284.862 Q2207.03 284.862 2208.65 283.844 Q2210.27 282.802 2210.27 280.927 Q2210.27 279.191 2209.09 278.265 Q2207.93 277.339 2203.97 276.483 L2202.49 276.135 Q2198.53 275.302 2196.77 273.589 Q2195.02 271.853 2195.02 268.844 Q2195.02 265.186 2197.61 263.196 Q2200.2 261.205 2204.97 261.205 Q2207.33 261.205 2209.41 261.552 Q2211.5 261.899 2213.26 262.594 Z" fill="#000000" fill-rule="nonzero" fill-opacity="1" /></svg>
