<?xml version="1.0" encoding="utf-8"?>
<svg xmlns="http://www.w3.org/2000/svg" xmlns:xlink="http://www.w3.org/1999/xlink" width="600" height="400" viewBox="0 0 2400 1600">
<defs>
  <clipPath id="clip270">
    <rect x="0" y="0" width="2400" height="1600"/>
  </clipPath>
</defs>
<path clip-path="url(#clip270)" d="M0 1600 L2400 1600 L2400 0 L0 0  Z" fill="#ffffff" fill-rule="evenodd" fill-opacity="1"/>
<defs>
  <clipPath id="clip271">
    <rect x="480" y="0" width="1681" height="1600"/>
  </clipPath>
</defs>
<path clip-path="url(#clip270)" d="M242.135 1423.18 L2352.76 1423.18 L2352.76 123.472 L242.135 123.472  Z" fill="#ffffff" fill-rule="evenodd" fill-opacity="1"/>
<defs>
  <clipPath id="clip272">
    <rect x="242" y="123" width="2112" height="1301"/>
  </clipPath>
</defs>
<polyline clip-path="url(#clip272)" style="stroke:#000000; stroke-linecap:round; stroke-linejoin:round; stroke-width:2; stroke-opacity:0.1; fill:none" points="467.799,1423.18 467.799,123.472 "/>
<polyline clip-path="url(#clip272)" style="stroke:#000000; stroke-linecap:round; stroke-linejoin:round; stroke-width:2; stroke-opacity:0.1; fill:none" points="744.347,1423.18 744.347,123.472 "/>
<polyline clip-path="url(#clip272)" style="stroke:#000000; stroke-linecap:round; stroke-linejoin:round; stroke-width:2; stroke-opacity:0.1; fill:none" points="1020.9,1423.18 1020.9,123.472 "/>
<polyline clip-path="url(#clip272)" style="stroke:#000000; stroke-linecap:round; stroke-linejoin:round; stroke-width:2; stroke-opacity:0.1; fill:none" points="1297.45,1423.18 1297.45,123.472 "/>
<polyline clip-path="url(#clip272)" style="stroke:#000000; stroke-linecap:round; stroke-linejoin:round; stroke-width:2; stroke-opacity:0.1; fill:none" points="1573.99,1423.18 1573.99,123.472 "/>
<polyline clip-path="url(#clip272)" style="stroke:#000000; stroke-linecap:round; stroke-linejoin:round; stroke-width:2; stroke-opacity:0.1; fill:none" points="1850.54,1423.18 1850.54,123.472 "/>
<polyline clip-path="url(#clip272)" style="stroke:#000000; stroke-linecap:round; stroke-linejoin:round; stroke-width:2; stroke-opacity:0.1; fill:none" points="2127.09,1423.18 2127.09,123.472 "/>
<polyline clip-path="url(#clip272)" style="stroke:#000000; stroke-linecap:round; stroke-linejoin:round; stroke-width:2; stroke-opacity:0.1; fill:none" points="242.135,1423.18 2352.76,1423.18 "/>
<polyline clip-path="url(#clip272)" style="stroke:#000000; stroke-linecap:round; stroke-linejoin:round; stroke-width:2; stroke-opacity:0.1; fill:none" points="242.135,1152.41 2352.76,1152.41 "/>
<polyline clip-path="url(#clip272)" style="stroke:#000000; stroke-linecap:round; stroke-linejoin:round; stroke-width:2; stroke-opacity:0.1; fill:none" points="242.135,881.635 2352.76,881.635 "/>
<polyline clip-path="url(#clip272)" style="stroke:#000000; stroke-linecap:round; stroke-linejoin:round; stroke-width:2; stroke-opacity:0.1; fill:none" points="242.135,610.863 2352.76,610.863 "/>
<polyline clip-path="url(#clip272)" style="stroke:#000000; stroke-linecap:round; stroke-linejoin:round; stroke-width:2; stroke-opacity:0.1; fill:none" points="242.135,340.09 2352.76,340.09 "/>
<polyline clip-path="url(#clip270)" style="stroke:#000000; stroke-linecap:round; stroke-linejoin:round; stroke-width:4; stroke-opacity:1; fill:none" points="242.135,1423.18 2352.76,1423.18 "/>
<polyline clip-path="url(#clip270)" style="stroke:#000000; stroke-linecap:round; stroke-linejoin:round; stroke-width:4; stroke-opacity:1; fill:none" points="467.799,1423.18 467.799,1404.28 "/>
<polyline clip-path="url(#clip270)" style="stroke:#000000; stroke-linecap:round; stroke-linejoin:round; stroke-width:4; stroke-opacity:1; fill:none" points="744.347,1423.18 744.347,1404.28 "/>
<polyline clip-path="url(#clip270)" style="stroke:#000000; stroke-linecap:round; stroke-linejoin:round; stroke-width:4; stroke-opacity:1; fill:none" points="1020.9,1423.18 1020.9,1404.28 "/>
<polyline clip-path="url(#clip270)" style="stroke:#000000; stroke-linecap:round; stroke-linejoin:round; stroke-width:4; stroke-opacity:1; fill:none" points="1297.45,1423.18 1297.45,1404.28 "/>
<polyline clip-path="url(#clip270)" style="stroke:#000000; stroke-linecap:round; stroke-linejoin:round; stroke-width:4; stroke-opacity:1; fill:none" points="1573.99,1423.18 1573.99,1404.28 "/>
<polyline clip-path="url(#clip270)" style="stroke:#000000; stroke-linecap:round; stroke-linejoin:round; stroke-width:4; stroke-opacity:1; fill:none" points="1850.54,1423.18 1850.54,1404.28 "/>
<polyline clip-path="url(#clip270)" style="stroke:#000000; stroke-linecap:round; stroke-linejoin:round; stroke-width:4; stroke-opacity:1; fill:none" points="2127.09,1423.18 2127.09,1404.28 "/>
<path clip-path="url(#clip270)" d="M422.359 1468.75 L452.035 1468.75 L452.035 1472.69 L422.359 1472.69 L422.359 1468.75 Z" fill="#000000" fill-rule="nonzero" fill-opacity="1" /><path clip-path="url(#clip270)" d="M460.947 1451.02 L483.169 1451.02 L483.169 1453.01 L470.623 1485.58 L465.738 1485.58 L477.544 1454.96 L460.947 1454.96 L460.947 1451.02 Z" fill="#000000" fill-rule="nonzero" fill-opacity="1" /><path clip-path="url(#clip270)" d="M492.335 1451.02 L510.692 1451.02 L510.692 1454.96 L496.618 1454.96 L496.618 1463.43 Q497.636 1463.08 498.655 1462.92 Q499.673 1462.73 500.692 1462.73 Q506.479 1462.73 509.859 1465.9 Q513.238 1469.08 513.238 1474.49 Q513.238 1480.07 509.766 1483.17 Q506.294 1486.25 499.974 1486.25 Q497.798 1486.25 495.53 1485.88 Q493.285 1485.51 490.877 1484.77 L490.877 1480.07 Q492.96 1481.2 495.183 1481.76 Q497.405 1482.32 499.882 1482.32 Q503.886 1482.32 506.224 1480.21 Q508.562 1478.1 508.562 1474.49 Q508.562 1470.88 506.224 1468.77 Q503.886 1466.67 499.882 1466.67 Q498.007 1466.67 496.132 1467.08 Q494.28 1467.5 492.335 1468.38 L492.335 1451.02 Z" fill="#000000" fill-rule="nonzero" fill-opacity="1" /><path clip-path="url(#clip270)" d="M698.41 1468.75 L728.086 1468.75 L728.086 1472.69 L698.41 1472.69 L698.41 1468.75 Z" fill="#000000" fill-rule="nonzero" fill-opacity="1" /><path clip-path="url(#clip270)" d="M738.225 1451.02 L756.581 1451.02 L756.581 1454.96 L742.507 1454.96 L742.507 1463.43 Q743.526 1463.08 744.544 1462.92 Q745.563 1462.73 746.581 1462.73 Q752.368 1462.73 755.748 1465.9 Q759.127 1469.08 759.127 1474.49 Q759.127 1480.07 755.655 1483.17 Q752.183 1486.25 745.864 1486.25 Q743.688 1486.25 741.419 1485.88 Q739.174 1485.51 736.766 1484.77 L736.766 1480.07 Q738.85 1481.2 741.072 1481.76 Q743.294 1482.32 745.771 1482.32 Q749.776 1482.32 752.114 1480.21 Q754.452 1478.1 754.452 1474.49 Q754.452 1470.88 752.114 1468.77 Q749.776 1466.67 745.771 1466.67 Q743.896 1466.67 742.021 1467.08 Q740.169 1467.5 738.225 1468.38 L738.225 1451.02 Z" fill="#000000" fill-rule="nonzero" fill-opacity="1" /><path clip-path="url(#clip270)" d="M778.34 1454.1 Q774.729 1454.1 772.901 1457.66 Q771.095 1461.2 771.095 1468.33 Q771.095 1475.44 772.901 1479.01 Q774.729 1482.55 778.34 1482.55 Q781.975 1482.55 783.78 1479.01 Q785.609 1475.44 785.609 1468.33 Q785.609 1461.2 783.78 1457.66 Q781.975 1454.1 778.34 1454.1 M778.34 1450.39 Q784.151 1450.39 787.206 1455 Q790.285 1459.58 790.285 1468.33 Q790.285 1477.06 787.206 1481.67 Q784.151 1486.25 778.34 1486.25 Q772.53 1486.25 769.452 1481.67 Q766.396 1477.06 766.396 1468.33 Q766.396 1459.58 769.452 1455 Q772.53 1450.39 778.34 1450.39 Z" fill="#000000" fill-rule="nonzero" fill-opacity="1" /><path clip-path="url(#clip270)" d="M975.457 1468.75 L1005.13 1468.75 L1005.13 1472.69 L975.457 1472.69 L975.457 1468.75 Z" fill="#000000" fill-rule="nonzero" fill-opacity="1" /><path clip-path="url(#clip270)" d="M1019.25 1481.64 L1035.57 1481.64 L1035.57 1485.58 L1013.63 1485.58 L1013.63 1481.64 Q1016.29 1478.89 1020.87 1474.26 Q1025.48 1469.61 1026.66 1468.27 Q1028.91 1465.74 1029.79 1464.01 Q1030.69 1462.25 1030.69 1460.56 Q1030.69 1457.8 1028.74 1456.07 Q1026.82 1454.33 1023.72 1454.33 Q1021.52 1454.33 1019.07 1455.09 Q1016.64 1455.86 1013.86 1457.41 L1013.86 1452.69 Q1016.68 1451.55 1019.14 1450.97 Q1021.59 1450.39 1023.63 1450.39 Q1029 1450.39 1032.19 1453.08 Q1035.39 1455.77 1035.39 1460.26 Q1035.39 1462.39 1034.58 1464.31 Q1033.79 1466.2 1031.68 1468.8 Q1031.1 1469.47 1028 1472.69 Q1024.9 1475.88 1019.25 1481.64 Z" fill="#000000" fill-rule="nonzero" fill-opacity="1" /><path clip-path="url(#clip270)" d="M1045.43 1451.02 L1063.79 1451.02 L1063.79 1454.96 L1049.72 1454.96 L1049.72 1463.43 Q1050.73 1463.08 1051.75 1462.92 Q1052.77 1462.73 1053.79 1462.73 Q1059.58 1462.73 1062.96 1465.9 Q1066.34 1469.08 1066.34 1474.49 Q1066.34 1480.07 1062.86 1483.17 Q1059.39 1486.25 1053.07 1486.25 Q1050.9 1486.25 1048.63 1485.88 Q1046.38 1485.51 1043.97 1484.77 L1043.97 1480.07 Q1046.06 1481.2 1048.28 1481.76 Q1050.5 1482.32 1052.98 1482.32 Q1056.98 1482.32 1059.32 1480.21 Q1061.66 1478.1 1061.66 1474.49 Q1061.66 1470.88 1059.32 1468.77 Q1056.98 1466.67 1052.98 1466.67 Q1051.1 1466.67 1049.23 1467.08 Q1047.38 1467.5 1045.43 1468.38 L1045.43 1451.02 Z" fill="#000000" fill-rule="nonzero" fill-opacity="1" /><path clip-path="url(#clip270)" d="M1297.45 1454.1 Q1293.83 1454.1 1292.01 1457.66 Q1290.2 1461.2 1290.2 1468.33 Q1290.2 1475.44 1292.01 1479.01 Q1293.83 1482.55 1297.45 1482.55 Q1301.08 1482.55 1302.89 1479.01 Q1304.71 1475.44 1304.71 1468.33 Q1304.71 1461.2 1302.89 1457.66 Q1301.08 1454.1 1297.45 1454.1 M1297.45 1450.39 Q1303.26 1450.39 1306.31 1455 Q1309.39 1459.58 1309.39 1468.33 Q1309.39 1477.06 1306.31 1481.67 Q1303.26 1486.25 1297.45 1486.25 Q1291.64 1486.25 1288.56 1481.67 Q1285.5 1477.06 1285.5 1468.33 Q1285.5 1459.58 1288.56 1455 Q1291.64 1450.39 1297.45 1450.39 Z" fill="#000000" fill-rule="nonzero" fill-opacity="1" /><path clip-path="url(#clip270)" d="M1553.27 1481.64 L1569.58 1481.64 L1569.58 1485.58 L1547.64 1485.58 L1547.64 1481.64 Q1550.3 1478.89 1554.89 1474.26 Q1559.49 1469.61 1560.67 1468.27 Q1562.92 1465.74 1563.8 1464.01 Q1564.7 1462.25 1564.7 1460.56 Q1564.7 1457.8 1562.76 1456.07 Q1560.83 1454.33 1557.73 1454.33 Q1555.53 1454.33 1553.08 1455.09 Q1550.65 1455.86 1547.87 1457.41 L1547.87 1452.69 Q1550.7 1451.55 1553.15 1450.97 Q1555.6 1450.39 1557.64 1450.39 Q1563.01 1450.39 1566.2 1453.08 Q1569.4 1455.77 1569.4 1460.26 Q1569.4 1462.39 1568.59 1464.31 Q1567.8 1466.2 1565.7 1468.8 Q1565.12 1469.47 1562.02 1472.69 Q1558.91 1475.88 1553.27 1481.64 Z" fill="#000000" fill-rule="nonzero" fill-opacity="1" /><path clip-path="url(#clip270)" d="M1579.45 1451.02 L1597.8 1451.02 L1597.8 1454.96 L1583.73 1454.96 L1583.73 1463.43 Q1584.75 1463.08 1585.76 1462.92 Q1586.78 1462.73 1587.8 1462.73 Q1593.59 1462.73 1596.97 1465.9 Q1600.35 1469.08 1600.35 1474.49 Q1600.35 1480.07 1596.88 1483.17 Q1593.4 1486.25 1587.08 1486.25 Q1584.91 1486.25 1582.64 1485.88 Q1580.39 1485.51 1577.99 1484.77 L1577.99 1480.07 Q1580.07 1481.2 1582.29 1481.76 Q1584.51 1482.32 1586.99 1482.32 Q1591 1482.32 1593.33 1480.21 Q1595.67 1478.1 1595.67 1474.49 Q1595.67 1470.88 1593.33 1468.77 Q1591 1466.67 1586.99 1466.67 Q1585.12 1466.67 1583.24 1467.08 Q1581.39 1467.5 1579.45 1468.38 L1579.45 1451.02 Z" fill="#000000" fill-rule="nonzero" fill-opacity="1" /><path clip-path="url(#clip270)" d="M1825.24 1451.02 L1843.6 1451.02 L1843.6 1454.96 L1829.52 1454.96 L1829.52 1463.43 Q1830.54 1463.08 1831.56 1462.92 Q1832.58 1462.73 1833.6 1462.73 Q1839.39 1462.73 1842.77 1465.9 Q1846.14 1469.08 1846.14 1474.49 Q1846.14 1480.07 1842.67 1483.17 Q1839.2 1486.25 1832.88 1486.25 Q1830.71 1486.25 1828.44 1485.88 Q1826.19 1485.51 1823.78 1484.77 L1823.78 1480.07 Q1825.87 1481.2 1828.09 1481.76 Q1830.31 1482.32 1832.79 1482.32 Q1836.79 1482.32 1839.13 1480.21 Q1841.47 1478.1 1841.47 1474.49 Q1841.47 1470.88 1839.13 1468.77 Q1836.79 1466.67 1832.79 1466.67 Q1830.91 1466.67 1829.04 1467.08 Q1827.19 1467.5 1825.24 1468.38 L1825.24 1451.02 Z" fill="#000000" fill-rule="nonzero" fill-opacity="1" /><path clip-path="url(#clip270)" d="M1865.36 1454.1 Q1861.75 1454.1 1859.92 1457.66 Q1858.11 1461.2 1858.11 1468.33 Q1858.11 1475.44 1859.92 1479.01 Q1861.75 1482.55 1865.36 1482.55 Q1868.99 1482.55 1870.8 1479.01 Q1872.63 1475.44 1872.63 1468.33 Q1872.63 1461.2 1870.8 1457.66 Q1868.99 1454.1 1865.36 1454.1 M1865.36 1450.39 Q1871.17 1450.39 1874.22 1455 Q1877.3 1459.58 1877.3 1468.33 Q1877.3 1477.06 1874.22 1481.67 Q1871.17 1486.25 1865.36 1486.25 Q1859.55 1486.25 1856.47 1481.67 Q1853.41 1477.06 1853.41 1468.33 Q1853.41 1459.58 1856.47 1455 Q1859.55 1450.39 1865.36 1450.39 Z" fill="#000000" fill-rule="nonzero" fill-opacity="1" /><path clip-path="url(#clip270)" d="M2100.95 1451.02 L2123.17 1451.02 L2123.17 1453.01 L2110.62 1485.58 L2105.74 1485.58 L2117.54 1454.96 L2100.95 1454.96 L2100.95 1451.02 Z" fill="#000000" fill-rule="nonzero" fill-opacity="1" /><path clip-path="url(#clip270)" d="M2132.34 1451.02 L2150.69 1451.02 L2150.69 1454.96 L2136.62 1454.96 L2136.62 1463.43 Q2137.64 1463.08 2138.65 1462.92 Q2139.67 1462.73 2140.69 1462.73 Q2146.48 1462.73 2149.86 1465.9 Q2153.24 1469.08 2153.24 1474.49 Q2153.24 1480.07 2149.77 1483.17 Q2146.29 1486.25 2139.97 1486.25 Q2137.8 1486.25 2135.53 1485.88 Q2133.28 1485.51 2130.88 1484.77 L2130.88 1480.07 Q2132.96 1481.2 2135.18 1481.76 Q2137.4 1482.32 2139.88 1482.32 Q2143.89 1482.32 2146.22 1480.21 Q2148.56 1478.1 2148.56 1474.49 Q2148.56 1470.88 2146.22 1468.77 Q2143.89 1466.67 2139.88 1466.67 Q2138.01 1466.67 2136.13 1467.08 Q2134.28 1467.5 2132.34 1468.38 L2132.34 1451.02 Z" fill="#000000" fill-rule="nonzero" fill-opacity="1" /><path clip-path="url(#clip270)" d="M1132.3 1526.86 L1123.58 1550.51 L1141.06 1550.51 L1132.3 1526.86 M1128.67 1520.52 L1135.96 1520.52 L1154.07 1568.04 L1147.39 1568.04 L1143.06 1555.85 L1121.64 1555.85 L1117.31 1568.04 L1110.53 1568.04 L1128.67 1520.52 Z" fill="#000000" fill-rule="nonzero" fill-opacity="1" /><path clip-path="url(#clip270)" d="M1190.39 1546.53 L1190.39 1568.04 L1184.53 1568.04 L1184.53 1546.72 Q1184.53 1541.66 1182.56 1539.14 Q1180.59 1536.63 1176.64 1536.63 Q1171.9 1536.63 1169.16 1539.65 Q1166.42 1542.68 1166.42 1547.9 L1166.42 1568.04 L1160.53 1568.04 L1160.53 1532.4 L1166.42 1532.4 L1166.42 1537.93 Q1168.52 1534.72 1171.36 1533.13 Q1174.22 1531.54 1177.95 1531.54 Q1184.09 1531.54 1187.24 1535.36 Q1190.39 1539.14 1190.39 1546.53 Z" fill="#000000" fill-rule="nonzero" fill-opacity="1" /><path clip-path="url(#clip270)" d="M1225.53 1549.81 Q1225.53 1543.44 1222.89 1539.94 Q1220.28 1536.44 1215.53 1536.44 Q1210.82 1536.44 1208.18 1539.94 Q1205.57 1543.44 1205.57 1549.81 Q1205.57 1556.14 1208.18 1559.64 Q1210.82 1563.14 1215.53 1563.14 Q1220.28 1563.14 1222.89 1559.64 Q1225.53 1556.14 1225.53 1549.81 M1231.39 1563.62 Q1231.39 1572.72 1227.34 1577.15 Q1223.3 1581.6 1214.96 1581.6 Q1211.87 1581.6 1209.14 1581.13 Q1206.4 1580.68 1203.82 1579.72 L1203.82 1574.03 Q1206.4 1575.43 1208.91 1576.1 Q1211.43 1576.76 1214.04 1576.76 Q1219.8 1576.76 1222.66 1573.74 Q1225.53 1570.75 1225.53 1564.67 L1225.53 1561.77 Q1223.71 1564.92 1220.88 1566.48 Q1218.05 1568.04 1214.1 1568.04 Q1207.55 1568.04 1203.54 1563.05 Q1199.52 1558.05 1199.52 1549.81 Q1199.52 1541.53 1203.54 1536.53 Q1207.55 1531.54 1214.1 1531.54 Q1218.05 1531.54 1220.88 1533.1 Q1223.71 1534.66 1225.53 1537.81 L1225.53 1532.4 L1231.39 1532.4 L1231.39 1563.62 Z" fill="#000000" fill-rule="nonzero" fill-opacity="1" /><path clip-path="url(#clip270)" d="M1243.45 1518.52 L1249.3 1518.52 L1249.3 1568.04 L1243.45 1568.04 L1243.45 1518.52 Z" fill="#000000" fill-rule="nonzero" fill-opacity="1" /><path clip-path="url(#clip270)" d="M1292.05 1548.76 L1292.05 1551.62 L1265.12 1551.62 Q1265.51 1557.67 1268.75 1560.85 Q1272.03 1564 1277.85 1564 Q1281.23 1564 1284.38 1563.17 Q1287.56 1562.35 1290.68 1560.69 L1290.68 1566.23 Q1287.53 1567.57 1284.22 1568.27 Q1280.91 1568.97 1277.5 1568.97 Q1268.97 1568.97 1263.98 1564 Q1259.01 1559.04 1259.01 1550.57 Q1259.01 1541.82 1263.72 1536.69 Q1268.47 1531.54 1276.49 1531.54 Q1283.68 1531.54 1287.85 1536.18 Q1292.05 1540.8 1292.05 1548.76 M1286.19 1547.04 Q1286.13 1542.23 1283.49 1539.37 Q1280.88 1536.5 1276.55 1536.5 Q1271.65 1536.5 1268.69 1539.27 Q1265.76 1542.04 1265.31 1547.07 L1286.19 1547.04 Z" fill="#000000" fill-rule="nonzero" fill-opacity="1" /><path clip-path="url(#clip270)" d="M1321.84 1518.52 L1335.34 1518.52 L1335.34 1523.07 L1327.7 1523.07 L1327.7 1572.09 L1335.34 1572.09 L1335.34 1576.64 L1321.84 1576.64 L1321.84 1518.52 Z" fill="#000000" fill-rule="nonzero" fill-opacity="1" /><path clip-path="url(#clip270)" d="M1371.27 1537.81 L1371.27 1518.52 L1377.13 1518.52 L1377.13 1568.04 L1371.27 1568.04 L1371.27 1562.7 Q1369.43 1565.88 1366.59 1567.44 Q1363.79 1568.97 1359.85 1568.97 Q1353.38 1568.97 1349.31 1563.81 Q1345.27 1558.65 1345.27 1550.25 Q1345.27 1541.85 1349.31 1536.69 Q1353.38 1531.54 1359.85 1531.54 Q1363.79 1531.54 1366.59 1533.1 Q1369.43 1534.62 1371.27 1537.81 M1351.32 1550.25 Q1351.32 1556.71 1353.96 1560.4 Q1356.63 1564.07 1361.28 1564.07 Q1365.92 1564.07 1368.6 1560.4 Q1371.27 1556.71 1371.27 1550.25 Q1371.27 1543.79 1368.6 1540.13 Q1365.92 1536.44 1361.28 1536.44 Q1356.63 1536.44 1353.96 1540.13 Q1351.32 1543.79 1351.32 1550.25 Z" fill="#000000" fill-rule="nonzero" fill-opacity="1" /><path clip-path="url(#clip270)" d="M1419.68 1548.76 L1419.68 1551.62 L1392.76 1551.62 Q1393.14 1557.67 1396.38 1560.85 Q1399.66 1564 1405.49 1564 Q1408.86 1564 1412.01 1563.17 Q1415.19 1562.35 1418.31 1560.69 L1418.31 1566.23 Q1415.16 1567.57 1411.85 1568.27 Q1408.54 1568.97 1405.14 1568.97 Q1396.61 1568.97 1391.61 1564 Q1386.64 1559.04 1386.64 1550.57 Q1386.64 1541.82 1391.36 1536.69 Q1396.1 1531.54 1404.12 1531.54 Q1411.31 1531.54 1415.48 1536.18 Q1419.68 1540.8 1419.68 1548.76 M1413.83 1547.04 Q1413.76 1542.23 1411.12 1539.37 Q1408.51 1536.5 1404.18 1536.5 Q1399.28 1536.5 1396.32 1539.27 Q1393.39 1542.04 1392.95 1547.07 L1413.83 1547.04 Z" fill="#000000" fill-rule="nonzero" fill-opacity="1" /><path clip-path="url(#clip270)" d="M1452.75 1549.81 Q1452.75 1543.44 1450.11 1539.94 Q1447.5 1536.44 1442.76 1536.44 Q1438.05 1536.44 1435.41 1539.94 Q1432.8 1543.44 1432.8 1549.81 Q1432.8 1556.14 1435.41 1559.64 Q1438.05 1563.14 1442.76 1563.14 Q1447.5 1563.14 1450.11 1559.64 Q1452.75 1556.14 1452.75 1549.81 M1458.61 1563.62 Q1458.61 1572.72 1454.57 1577.15 Q1450.52 1581.6 1442.19 1581.6 Q1439.1 1581.6 1436.36 1581.13 Q1433.62 1580.68 1431.05 1579.72 L1431.05 1574.03 Q1433.62 1575.43 1436.14 1576.1 Q1438.65 1576.76 1441.26 1576.76 Q1447.02 1576.76 1449.89 1573.74 Q1452.75 1570.75 1452.75 1564.67 L1452.75 1561.77 Q1450.94 1564.92 1448.11 1566.48 Q1445.27 1568.04 1441.33 1568.04 Q1434.77 1568.04 1430.76 1563.05 Q1426.75 1558.05 1426.75 1549.81 Q1426.75 1541.53 1430.76 1536.53 Q1434.77 1531.54 1441.33 1531.54 Q1445.27 1531.54 1448.11 1533.1 Q1450.94 1534.66 1452.75 1537.81 L1452.75 1532.4 L1458.61 1532.4 L1458.61 1563.62 Z" fill="#000000" fill-rule="nonzero" fill-opacity="1" /><path clip-path="url(#clip270)" d="M1484.36 1518.52 L1484.36 1576.64 L1470.86 1576.64 L1470.86 1572.09 L1478.47 1572.09 L1478.47 1523.07 L1470.86 1523.07 L1470.86 1518.52 L1484.36 1518.52 Z" fill="#000000" fill-rule="nonzero" fill-opacity="1" /><polyline clip-path="url(#clip270)" style="stroke:#000000; stroke-linecap:round; stroke-linejoin:round; stroke-width:4; stroke-opacity:1; fill:none" points="242.135,1423.18 242.135,123.472 "/>
<polyline clip-path="url(#clip270)" style="stroke:#000000; stroke-linecap:round; stroke-linejoin:round; stroke-width:4; stroke-opacity:1; fill:none" points="242.135,1423.18 261.032,1423.18 "/>
<polyline clip-path="url(#clip270)" style="stroke:#000000; stroke-linecap:round; stroke-linejoin:round; stroke-width:4; stroke-opacity:1; fill:none" points="242.135,1152.41 261.032,1152.41 "/>
<polyline clip-path="url(#clip270)" style="stroke:#000000; stroke-linecap:round; stroke-linejoin:round; stroke-width:4; stroke-opacity:1; fill:none" points="242.135,881.635 261.032,881.635 "/>
<polyline clip-path="url(#clip270)" style="stroke:#000000; stroke-linecap:round; stroke-linejoin:round; stroke-width:4; stroke-opacity:1; fill:none" points="242.135,610.863 261.032,610.863 "/>
<polyline clip-path="url(#clip270)" style="stroke:#000000; stroke-linecap:round; stroke-linejoin:round; stroke-width:4; stroke-opacity:1; fill:none" points="242.135,340.09 261.032,340.09 "/>
<path clip-path="url(#clip270)" d="M114.26 1423.63 L143.936 1423.63 L143.936 1427.57 L114.26 1427.57 L114.26 1423.63 Z" fill="#000000" fill-rule="nonzero" fill-opacity="1" /><path clip-path="url(#clip270)" d="M168.195 1421.83 Q171.552 1422.54 173.427 1424.81 Q175.325 1427.08 175.325 1430.41 Q175.325 1435.53 171.806 1438.33 Q168.288 1441.13 161.806 1441.13 Q159.63 1441.13 157.315 1440.69 Q155.024 1440.27 152.57 1439.42 L152.57 1434.9 Q154.515 1436.04 156.829 1436.62 Q159.144 1437.2 161.667 1437.2 Q166.065 1437.2 168.357 1435.46 Q170.672 1433.72 170.672 1430.41 Q170.672 1427.36 168.519 1425.65 Q166.39 1423.91 162.57 1423.91 L158.542 1423.91 L158.542 1420.07 L162.755 1420.07 Q166.204 1420.07 168.033 1418.7 Q169.862 1417.31 169.862 1414.72 Q169.862 1412.06 167.964 1410.65 Q166.089 1409.21 162.57 1409.21 Q160.649 1409.21 158.45 1409.63 Q156.251 1410.04 153.612 1410.92 L153.612 1406.76 Q156.274 1406.02 158.589 1405.65 Q160.927 1405.27 162.987 1405.27 Q168.311 1405.27 171.413 1407.71 Q174.514 1410.11 174.514 1414.23 Q174.514 1417.1 172.871 1419.09 Q171.227 1421.06 168.195 1421.83 Z" fill="#000000" fill-rule="nonzero" fill-opacity="1" /><path clip-path="url(#clip270)" d="M194.19 1408.98 Q190.579 1408.98 188.75 1412.54 Q186.945 1416.08 186.945 1423.21 Q186.945 1430.32 188.75 1433.89 Q190.579 1437.43 194.19 1437.43 Q197.825 1437.43 199.63 1433.89 Q201.459 1430.32 201.459 1423.21 Q201.459 1416.08 199.63 1412.54 Q197.825 1408.98 194.19 1408.98 M194.19 1405.27 Q200 1405.27 203.056 1409.88 Q206.135 1414.46 206.135 1423.21 Q206.135 1431.94 203.056 1436.55 Q200 1441.13 194.19 1441.13 Q188.38 1441.13 185.301 1436.55 Q182.246 1431.94 182.246 1423.21 Q182.246 1414.46 185.301 1409.88 Q188.38 1405.27 194.19 1405.27 Z" fill="#000000" fill-rule="nonzero" fill-opacity="1" /><path clip-path="url(#clip270)" d="M114.26 1152.86 L143.936 1152.86 L143.936 1156.79 L114.26 1156.79 L114.26 1152.86 Z" fill="#000000" fill-rule="nonzero" fill-opacity="1" /><path clip-path="url(#clip270)" d="M158.056 1165.75 L174.376 1165.75 L174.376 1169.69 L152.431 1169.69 L152.431 1165.75 Q155.093 1163 159.677 1158.37 Q164.283 1153.72 165.464 1152.37 Q167.709 1149.85 168.589 1148.11 Q169.491 1146.35 169.491 1144.66 Q169.491 1141.91 167.547 1140.17 Q165.626 1138.44 162.524 1138.44 Q160.325 1138.44 157.871 1139.2 Q155.44 1139.97 152.663 1141.52 L152.663 1136.79 Q155.487 1135.66 157.94 1135.08 Q160.394 1134.5 162.431 1134.5 Q167.802 1134.5 170.996 1137.19 Q174.19 1139.87 174.19 1144.36 Q174.19 1146.49 173.38 1148.41 Q172.593 1150.31 170.487 1152.91 Q169.908 1153.58 166.806 1156.79 Q163.704 1159.99 158.056 1165.75 Z" fill="#000000" fill-rule="nonzero" fill-opacity="1" /><path clip-path="url(#clip270)" d="M194.19 1138.21 Q190.579 1138.21 188.75 1141.77 Q186.945 1145.31 186.945 1152.44 Q186.945 1159.55 188.75 1163.11 Q190.579 1166.66 194.19 1166.66 Q197.825 1166.66 199.63 1163.11 Q201.459 1159.55 201.459 1152.44 Q201.459 1145.31 199.63 1141.77 Q197.825 1138.21 194.19 1138.21 M194.19 1134.5 Q200 1134.5 203.056 1139.11 Q206.135 1143.69 206.135 1152.44 Q206.135 1161.17 203.056 1165.78 Q200 1170.36 194.19 1170.36 Q188.38 1170.36 185.301 1165.78 Q182.246 1161.17 182.246 1152.44 Q182.246 1143.69 185.301 1139.11 Q188.38 1134.5 194.19 1134.5 Z" fill="#000000" fill-rule="nonzero" fill-opacity="1" /><path clip-path="url(#clip270)" d="M114.26 882.086 L143.936 882.086 L143.936 886.022 L114.26 886.022 L114.26 882.086 Z" fill="#000000" fill-rule="nonzero" fill-opacity="1" /><path clip-path="url(#clip270)" d="M154.839 894.98 L162.477 894.98 L162.477 868.614 L154.167 870.281 L154.167 866.022 L162.431 864.355 L167.107 864.355 L167.107 894.98 L174.746 894.98 L174.746 898.915 L154.839 898.915 L154.839 894.98 Z" fill="#000000" fill-rule="nonzero" fill-opacity="1" /><path clip-path="url(#clip270)" d="M194.19 867.434 Q190.579 867.434 188.75 870.998 Q186.945 874.54 186.945 881.67 Q186.945 888.776 188.75 892.341 Q190.579 895.883 194.19 895.883 Q197.825 895.883 199.63 892.341 Q201.459 888.776 201.459 881.67 Q201.459 874.54 199.63 870.998 Q197.825 867.434 194.19 867.434 M194.19 863.73 Q200 863.73 203.056 868.336 Q206.135 872.92 206.135 881.67 Q206.135 890.396 203.056 895.003 Q200 899.586 194.19 899.586 Q188.38 899.586 185.301 895.003 Q182.246 890.396 182.246 881.67 Q182.246 872.92 185.301 868.336 Q188.38 863.73 194.19 863.73 Z" fill="#000000" fill-rule="nonzero" fill-opacity="1" /><path clip-path="url(#clip270)" d="M194.19 596.661 Q190.579 596.661 188.75 600.226 Q186.945 603.768 186.945 610.897 Q186.945 618.004 188.75 621.568 Q190.579 625.11 194.19 625.11 Q197.825 625.11 199.63 621.568 Q201.459 618.004 201.459 610.897 Q201.459 603.768 199.63 600.226 Q197.825 596.661 194.19 596.661 M194.19 592.958 Q200 592.958 203.056 597.564 Q206.135 602.147 206.135 610.897 Q206.135 619.624 203.056 624.231 Q200 628.814 194.19 628.814 Q188.38 628.814 185.301 624.231 Q182.246 619.624 182.246 610.897 Q182.246 602.147 185.301 597.564 Q188.38 592.958 194.19 592.958 Z" fill="#000000" fill-rule="nonzero" fill-opacity="1" /><path clip-path="url(#clip270)" d="M154.839 353.435 L162.477 353.435 L162.477 327.069 L154.167 328.736 L154.167 324.477 L162.431 322.81 L167.107 322.81 L167.107 353.435 L174.746 353.435 L174.746 357.37 L154.839 357.37 L154.839 353.435 Z" fill="#000000" fill-rule="nonzero" fill-opacity="1" /><path clip-path="url(#clip270)" d="M194.19 325.889 Q190.579 325.889 188.75 329.454 Q186.945 332.995 186.945 340.125 Q186.945 347.231 188.75 350.796 Q190.579 354.338 194.19 354.338 Q197.825 354.338 199.63 350.796 Q201.459 347.231 201.459 340.125 Q201.459 332.995 199.63 329.454 Q197.825 325.889 194.19 325.889 M194.19 322.185 Q200 322.185 203.056 326.792 Q206.135 331.375 206.135 340.125 Q206.135 348.852 203.056 353.458 Q200 358.041 194.19 358.041 Q188.38 358.041 185.301 353.458 Q182.246 348.852 182.246 340.125 Q182.246 331.375 185.301 326.792 Q188.38 322.185 194.19 322.185 Z" fill="#000000" fill-rule="nonzero" fill-opacity="1" /><path clip-path="url(#clip270)" d="M57.2247 862.557 L44.4614 862.557 L44.4614 873.061 L39.1779 873.061 L39.1779 856.192 L59.58 856.192 Q62.2218 859.916 63.5904 864.403 Q64.9272 868.891 64.9272 873.984 Q64.9272 885.124 58.4342 891.426 Q51.9093 897.696 40.2919 897.696 Q28.6427 897.696 22.1496 891.426 Q15.6248 885.124 15.6248 873.984 Q15.6248 869.337 16.7706 865.167 Q17.9164 860.966 20.1444 857.433 L26.9876 857.433 Q23.9639 860.998 22.4361 865.008 Q20.9083 869.018 20.9083 873.443 Q20.9083 882.164 25.7781 886.556 Q30.6479 890.916 40.2919 890.916 Q49.9041 890.916 54.7739 886.556 Q59.6436 882.164 59.6436 873.443 Q59.6436 870.037 59.0707 867.363 Q58.466 864.69 57.2247 862.557 Z" fill="#000000" fill-rule="nonzero" fill-opacity="1" /><path clip-path="url(#clip270)" d="M58.3387 803.515 L64.0042 803.515 L64.0042 822.612 L58.3387 822.612 Q55.2513 816.979 49.9678 813.828 Q44.6842 810.677 38.2549 810.677 Q30.616 810.677 26.0009 814.878 Q21.3858 819.08 21.3858 825.954 Q21.3858 832.829 26.0327 837.063 Q30.6479 841.264 38.2549 841.264 Q44.6842 841.264 49.9678 838.113 Q55.2513 834.93 58.3387 829.265 L64.0042 829.265 L64.0042 848.362 L58.3387 848.362 L58.3387 838.208 Q53.9145 843.237 49.1721 845.561 Q44.4296 847.852 38.5732 847.852 Q28.4517 847.852 22.1815 841.741 Q15.9112 835.662 15.9112 825.954 Q15.9112 816.31 22.1815 810.168 Q28.4199 804.056 38.2549 804.056 Q44.4296 804.056 49.1402 806.316 Q53.8509 808.576 58.3387 813.7 L58.3387 803.515 Z" fill="#000000" fill-rule="nonzero" fill-opacity="1" /><path clip-path="url(#clip270)" d="M14.479 774.711 L14.479 761.215 L19.0304 761.215 L19.0304 768.854 L68.0464 768.854 L68.0464 761.215 L72.5979 761.215 L72.5979 774.711 L14.479 774.711 Z" fill="#000000" fill-rule="nonzero" fill-opacity="1" /><path clip-path="url(#clip270)" d="M33.7671 725.281 L14.479 725.281 L14.479 719.424 L64.0042 719.424 L64.0042 725.281 L58.657 725.281 Q61.8398 727.127 63.3994 729.96 Q64.9272 732.761 64.9272 736.707 Q64.9272 743.168 59.771 747.243 Q54.6147 751.285 46.212 751.285 Q37.8093 751.285 32.6531 747.243 Q27.4968 743.168 27.4968 736.707 Q27.4968 732.761 29.0564 729.96 Q30.5842 727.127 33.7671 725.281 M46.212 745.237 Q52.6732 745.237 56.3653 742.596 Q60.0256 739.922 60.0256 735.275 Q60.0256 730.628 56.3653 727.954 Q52.6732 725.281 46.212 725.281 Q39.7508 725.281 36.0905 727.954 Q32.3984 730.628 32.3984 735.275 Q32.3984 739.922 36.0905 742.596 Q39.7508 745.237 46.212 745.237 Z" fill="#000000" fill-rule="nonzero" fill-opacity="1" /><path clip-path="url(#clip270)" d="M41.3104 700.677 L58.7206 700.677 L58.7206 690.365 Q58.7206 685.177 56.5881 682.694 Q54.4238 680.18 49.9996 680.18 Q45.5436 680.18 43.4429 682.694 Q41.3104 685.177 41.3104 690.365 L41.3104 700.677 M21.7677 700.677 L36.0905 700.677 L36.0905 691.161 Q36.0905 686.45 34.34 684.158 Q32.5576 681.835 28.9291 681.835 Q25.3325 681.835 23.5501 684.158 Q21.7677 686.45 21.7677 691.161 L21.7677 700.677 M16.4842 707.107 L16.4842 690.683 Q16.4842 683.331 19.5397 679.352 Q22.5952 675.374 28.2289 675.374 Q32.5894 675.374 35.1675 677.411 Q37.7456 679.448 38.3822 683.394 Q39.4007 678.652 42.6472 676.042 Q45.8619 673.4 50.6998 673.4 Q57.0655 673.4 60.5348 677.729 Q64.0042 682.058 64.0042 690.047 L64.0042 707.107 L16.4842 707.107 Z" fill="#000000" fill-rule="nonzero" fill-opacity="1" /><path clip-path="url(#clip270)" d="M14.479 648.956 L72.5979 648.956 L72.5979 662.451 L68.0464 662.451 L68.0464 654.844 L19.0304 654.844 L19.0304 662.451 L14.479 662.451 L14.479 648.956 Z" fill="#000000" fill-rule="nonzero" fill-opacity="1" /><path clip-path="url(#clip270)" d="M1114.53 20.1573 L1103.43 50.2555 L1125.67 50.2555 L1114.53 20.1573 M1109.91 12.096 L1119.19 12.096 L1142.23 72.576 L1133.73 72.576 L1128.22 57.061 L1100.96 57.061 L1095.45 72.576 L1086.82 72.576 L1109.91 12.096 Z" fill="#000000" fill-rule="nonzero" fill-opacity="1" /><path clip-path="url(#clip270)" d="M1177.03 34.1734 Q1175.78 33.4443 1174.28 33.1202 Q1172.82 32.7556 1171.04 32.7556 Q1164.72 32.7556 1161.31 36.8875 Q1157.95 40.9789 1157.95 48.6757 L1157.95 72.576 L1150.46 72.576 L1150.46 27.2059 L1157.95 27.2059 L1157.95 34.2544 Q1160.3 30.1225 1164.07 28.1376 Q1167.84 26.1121 1173.22 26.1121 Q1173.99 26.1121 1174.93 26.2337 Q1175.86 26.3147 1176.99 26.5172 L1177.03 34.1734 Z" fill="#000000" fill-rule="nonzero" fill-opacity="1" /><path clip-path="url(#clip270)" d="M1209.68 34.1734 Q1208.43 33.4443 1206.93 33.1202 Q1205.47 32.7556 1203.69 32.7556 Q1197.37 32.7556 1193.96 36.8875 Q1190.6 40.9789 1190.6 48.6757 L1190.6 72.576 L1183.11 72.576 L1183.11 27.2059 L1190.6 27.2059 L1190.6 34.2544 Q1192.95 30.1225 1196.72 28.1376 Q1200.49 26.1121 1205.87 26.1121 Q1206.64 26.1121 1207.58 26.2337 Q1208.51 26.3147 1209.64 26.5172 L1209.68 34.1734 Z" fill="#000000" fill-rule="nonzero" fill-opacity="1" /><path clip-path="url(#clip270)" d="M1238.12 49.7694 Q1229.09 49.7694 1225.6 51.8354 Q1222.12 53.9013 1222.12 58.8839 Q1222.12 62.8538 1224.71 65.2034 Q1227.34 67.5124 1231.84 67.5124 Q1238.04 67.5124 1241.77 63.1374 Q1245.53 58.7219 1245.53 51.4303 L1245.53 49.7694 L1238.12 49.7694 M1252.99 46.6907 L1252.99 72.576 L1245.53 72.576 L1245.53 65.6895 Q1242.98 69.8214 1239.17 71.8063 Q1235.37 73.7508 1229.86 73.7508 Q1222.89 73.7508 1218.76 69.8619 Q1214.67 65.9325 1214.67 59.3701 Q1214.67 51.7138 1219.77 47.825 Q1224.91 43.9361 1235.08 43.9361 L1245.53 43.9361 L1245.53 43.2069 Q1245.53 38.0623 1242.13 35.2672 Q1238.77 32.4315 1232.65 32.4315 Q1228.76 32.4315 1225.08 33.3632 Q1221.39 34.295 1217.99 36.1584 L1217.99 29.2718 Q1222.08 27.692 1225.93 26.9223 Q1229.77 26.1121 1233.42 26.1121 Q1243.26 26.1121 1248.13 31.2163 Q1252.99 36.3204 1252.99 46.6907 Z" fill="#000000" fill-rule="nonzero" fill-opacity="1" /><path clip-path="url(#clip270)" d="M1287.22 76.7889 Q1284.06 84.8907 1281.06 87.3618 Q1278.06 89.8329 1273.04 89.8329 L1267.08 89.8329 L1267.08 83.5945 L1271.46 83.5945 Q1274.54 83.5945 1276.24 82.1361 Q1277.94 80.6778 1280.01 75.2496 L1281.34 71.8468 L1262.99 27.2059 L1270.89 27.2059 L1285.07 62.6918 L1299.25 27.2059 L1307.15 27.2059 L1287.22 76.7889 Z" fill="#000000" fill-rule="nonzero" fill-opacity="1" /><path clip-path="url(#clip270)" d="M1373.66 49.3643 Q1373.66 41.2625 1370.3 36.8065 Q1366.98 32.3505 1360.94 32.3505 Q1354.95 32.3505 1351.59 36.8065 Q1348.26 41.2625 1348.26 49.3643 Q1348.26 57.4256 1351.59 61.8816 Q1354.95 66.3376 1360.94 66.3376 Q1366.98 66.3376 1370.3 61.8816 Q1373.66 57.4256 1373.66 49.3643 M1381.12 66.9452 Q1381.12 78.5308 1375.97 84.1616 Q1370.83 89.8329 1360.21 89.8329 Q1356.28 89.8329 1352.8 89.2252 Q1349.32 88.6581 1346.04 87.4428 L1346.04 80.1917 Q1349.32 81.9741 1352.52 82.8248 Q1355.72 83.6755 1359.04 83.6755 Q1366.37 83.6755 1370.02 79.8271 Q1373.66 76.0193 1373.66 68.282 L1373.66 64.5957 Q1371.35 68.6061 1367.75 70.5911 Q1364.14 72.576 1359.12 72.576 Q1350.78 72.576 1345.67 66.2161 Q1340.57 59.8562 1340.57 49.3643 Q1340.57 38.832 1345.67 32.472 Q1350.78 26.1121 1359.12 26.1121 Q1364.14 26.1121 1367.75 28.0971 Q1371.35 30.082 1373.66 34.0924 L1373.66 27.2059 L1381.12 27.2059 L1381.12 66.9452 Z" fill="#000000" fill-rule="nonzero" fill-opacity="1" /><path clip-path="url(#clip270)" d="M1417.09 49.7694 Q1408.06 49.7694 1404.57 51.8354 Q1401.09 53.9013 1401.09 58.8839 Q1401.09 62.8538 1403.68 65.2034 Q1406.31 67.5124 1410.81 67.5124 Q1417.01 67.5124 1420.73 63.1374 Q1424.5 58.7219 1424.5 51.4303 L1424.5 49.7694 L1417.09 49.7694 M1431.96 46.6907 L1431.96 72.576 L1424.5 72.576 L1424.5 65.6895 Q1421.95 69.8214 1418.14 71.8063 Q1414.33 73.7508 1408.82 73.7508 Q1401.86 73.7508 1397.73 69.8619 Q1393.63 65.9325 1393.63 59.3701 Q1393.63 51.7138 1398.74 47.825 Q1403.88 43.9361 1414.05 43.9361 L1424.5 43.9361 L1424.5 43.2069 Q1424.5 38.0623 1421.1 35.2672 Q1417.74 32.4315 1411.62 32.4315 Q1407.73 32.4315 1404.04 33.3632 Q1400.36 34.295 1396.96 36.1584 L1396.96 29.2718 Q1401.05 27.692 1404.9 26.9223 Q1408.74 26.1121 1412.39 26.1121 Q1422.23 26.1121 1427.09 31.2163 Q1431.96 36.3204 1431.96 46.6907 Z" fill="#000000" fill-rule="nonzero" fill-opacity="1" /><path clip-path="url(#clip270)" d="M1447.31 27.2059 L1454.76 27.2059 L1454.76 72.576 L1447.31 72.576 L1447.31 27.2059 M1447.31 9.54393 L1454.76 9.54393 L1454.76 18.9825 L1447.31 18.9825 L1447.31 9.54393 Z" fill="#000000" fill-rule="nonzero" fill-opacity="1" /><path clip-path="url(#clip270)" d="M1508.07 45.1919 L1508.07 72.576 L1500.62 72.576 L1500.62 45.4349 Q1500.62 38.994 1498.11 35.7938 Q1495.6 32.5936 1490.57 32.5936 Q1484.54 32.5936 1481.05 36.4419 Q1477.57 40.2903 1477.57 46.9338 L1477.57 72.576 L1470.07 72.576 L1470.07 27.2059 L1477.57 27.2059 L1477.57 34.2544 Q1480.24 30.163 1483.85 28.1376 Q1487.49 26.1121 1492.23 26.1121 Q1500.05 26.1121 1504.06 30.9732 Q1508.07 35.7938 1508.07 45.1919 Z" fill="#000000" fill-rule="nonzero" fill-opacity="1" /><polyline clip-path="url(#clip272)" style="stroke:#009af9; stroke-linecap:round; stroke-linejoin:round; stroke-width:4; stroke-opacity:1; fill:none" points="2293.02,15065.2 2289.04,2311.53 2285.06,2034.84 2281.07,1873.97 2277.09,1761 2273.11,1674.65 2269.13,1605.45 2265.15,1548.36 2261.16,1500.4 2257.18,1459.63 2253.2,1424.77 2249.22,1394.91 2245.23,1369.4 2241.25,1347.76 2237.27,1329.65 2233.29,1314.83 2229.3,1303.12 2225.32,1294.44 2221.34,1288.76 2217.36,1286.11 2213.38,1286.59 2209.39,1290.38 2205.41,1297.8 2201.43,1309.26 2197.45,1325.44 2193.46,1347.29 2189.48,1376.37 2185.5,1415.21 2181.52,1468.5 2177.53,1546.19 2173.55,1676.64 2169.57,2048.34 2165.59,1784.09 2161.61,1579.91 2157.62,1469.64 2153.64,1393.67 2149.66,1336 2145.68,1289.94 2141.69,1252.07 2137.71,1220.4 2133.73,1193.69 2129.75,1171.1 2125.76,1152.06 2121.78,1136.17 2117.8,1123.15 2113.82,1112.81 2109.84,1105.01 2105.85,1099.68 2101.87,1096.81 2097.89,1096.42 2093.91,1098.58 2089.92,1103.44 2085.94,1111.2 2081.96,1122.16 2077.98,1136.77 2073.99,1155.62 2070.01,1179.64 2066.03,1210.2 2062.05,1249.56 2058.07,1301.7 2054.08,1374.72 2050.1,1489.6 2046.12,1743.54 2042.14,1739.94 2038.15,1478.78 2034.17,1356.7 2030.19,1276.46 2026.21,1217.09 2022.22,1170.49 2018.24,1132.67 2014.26,1101.38 2010.28,1075.22 2006.3,1053.29 2002.31,1034.98 1998.33,1019.83 1994.35,1007.56 1990.37,997.937 1986.38,990.834 1982.4,986.164 1978.42,983.896 1974.44,984.048 1970.45,986.686 1966.47,991.936 1962.49,999.988 1958.51,1011.12 1954.53,1025.73 1950.54,1044.37 1946.56,1067.88 1942.58,1097.5 1938.6,1135.2 1934.61,1184.41 1930.63,1251.79 1926.65,1353.35 1922.67,1548.69 1918.68,1803.94 1914.7,1423.09 1910.72,1283.32 1906.74,1196.12 1902.76,1133.14 1898.77,1084.38 1894.79,1045.15 1890.81,1012.9 1886.83,986.051 1882.84,963.607 1878.86,944.885 1874.88,929.413 1870.9,916.858 1866.91,906.986 1862.93,899.642 1858.95,894.729 1854.97,892.205 1850.99,892.073 1847,894.391 1843.02,899.266 1839.04,906.873 1835.06,917.466 1831.07,931.406 1827.09,949.211 1823.11,971.626 1819.13,999.769 1815.14,1035.39 1811.16,1081.45 1807.18,1143.5 1803.2,1234.06 1799.22,1393.07 1795.23,9074.08 1791.25,1387.44 1787.27,1222.78 1783.29,1126.59 1779.3,1058.89 1775.32,1007.19 1771.34,965.921 1767.36,932.125 1763.37,904.05 1759.39,880.58 1755.41,860.967 1751.43,844.693 1747.45,831.395 1743.46,820.82 1739.48,812.791 1735.5,807.2 1731.52,803.99 1727.53,803.154 1723.55,804.736 1719.57,808.829 1715.59,815.591 1711.6,825.252 1707.62,838.145 1703.64,854.741 1699.66,875.721 1695.68,902.088 1691.69,935.4 1687.71,978.227 1683.73,1035.26 1679.75,1116.47 1675.76,1250.23 1671.78,1625.04 1667.8,1363.73 1663.82,1162.29 1659.83,1054.61 1655.85,981.07 1651.87,925.673 1647.89,881.747 1643.91,845.87 1639.92,816.062 1635.94,791.077 1631.96,770.093 1627.98,752.542 1623.99,738.027 1620.01,726.271 1616.03,717.079 1612.05,710.325 1608.07,705.942 1604.08,703.908 1600.1,704.255 1596.12,707.061 1592.14,712.467 1588.15,720.682 1584.17,732.011 1580.19,746.882 1576.21,765.916 1572.22,790.02 1568.24,820.58 1564.26,859.846 1560.28,911.803 1556.3,984.555 1552.31,1099.07 1548.33,1352.57 1544.35,1348.42 1540.37,1086.64 1536.38,963.83 1532.4,882.774 1528.42,822.499 1524.44,774.897 1520.45,735.979 1516.47,703.492 1512.49,676.044 1508.51,652.723 1504.53,632.907 1500.54,616.16 1496.56,602.174 1492.58,590.734 1488.6,581.697 1484.61,574.975 1480.63,570.534 1476.65,568.388 1472.67,568.601 1468.68,571.29 1464.7,576.643 1460.72,584.932 1456.74,596.547 1452.76,612.045 1448.77,632.242 1444.79,658.373 1440.81,692.411 1436.83,737.765 1432.84,801.097 1428.86,898.394 1424.88,1089.25 1420.9,1339.79 1416.91,953.969 1412.93,808.973 1408.95,716.26 1404.97,647.454 1400.99,592.55 1397,546.833 1393.02,507.705 1389.04,473.576 1385.06,443.404 1381.07,416.467 1377.09,392.246 1373.11,370.354 1369.13,350.495 1365.14,332.437 1361.16,315.996 1357.18,301.026 1353.2,287.404 1349.22,275.031 1345.23,263.823 1341.25,253.712 1337.27,244.639 1333.29,236.554 1329.3,229.417 1325.32,223.192 1321.34,217.851 1317.36,213.37 1313.37,209.728 1309.39,206.911 1305.41,204.908 1301.43,203.709 1297.45,203.309 1293.46,203.709 1289.48,204.908 1285.5,206.911 1281.52,209.728 1277.53,213.37 1273.55,217.851 1269.57,223.192 1265.59,229.417 1261.6,236.554 1257.62,244.639 1253.64,253.712 1249.66,263.823 1245.68,275.031 1241.69,287.404 1237.71,301.026 1233.73,315.996 1229.75,332.437 1225.76,350.495 1221.78,370.354 1217.8,392.246 1213.82,416.467 1209.83,443.404 1205.85,473.576 1201.87,507.705 1197.89,546.833 1193.91,592.55 1189.92,647.454 1185.94,716.26 1181.96,808.973 1177.98,953.969 1173.99,1339.79 1170.01,1089.25 1166.03,898.394 1162.05,801.097 1158.06,737.765 1154.08,692.411 1150.1,658.373 1146.12,632.242 1142.14,612.045 1138.15,596.547 1134.17,584.932 1130.19,576.643 1126.21,571.29 1122.22,568.601 1118.24,568.388 1114.26,570.534 1110.28,574.975 1106.29,581.697 1102.31,590.734 1098.33,602.174 1094.35,616.16 1090.37,632.907 1086.38,652.723 1082.4,676.044 1078.42,703.492 1074.44,735.979 1070.45,774.897 1066.47,822.499 1062.49,882.774 1058.51,963.83 1054.52,1086.64 1050.54,1348.42 1046.56,1352.57 1042.58,1099.07 1038.6,984.555 1034.61,911.803 1030.63,859.846 1026.65,820.58 1022.67,790.02 1018.68,765.916 1014.7,746.882 1010.72,732.011 1006.74,720.682 1002.75,712.467 998.772,707.061 994.79,704.255 990.808,703.908 986.826,705.942 982.843,710.325 978.861,717.079 974.879,726.271 970.896,738.027 966.914,752.542 962.932,770.093 958.949,791.077 954.967,816.062 950.985,845.87 947.003,881.747 943.02,925.673 939.038,981.07 935.056,1054.61 931.073,1162.29 927.091,1363.73 923.109,1625.04 919.126,1250.23 915.144,1116.47 911.162,1035.26 907.179,978.227 903.197,935.4 899.215,902.088 895.233,875.721 891.25,854.741 887.268,838.145 883.286,825.252 879.303,815.591 875.321,808.829 871.339,804.736 867.356,803.154 863.374,803.99 859.392,807.2 855.41,812.791 851.427,820.82 847.445,831.395 843.463,844.693 839.48,860.967 835.498,880.58 831.516,904.05 827.533,932.125 823.551,965.921 819.569,1007.19 815.586,1058.89 811.604,1126.59 807.622,1222.78 803.64,1387.44 799.657,9074.08 795.675,1393.07 791.693,1234.06 787.71,1143.5 783.728,1081.45 779.746,1035.39 775.763,999.769 771.781,971.626 767.799,949.211 763.817,931.406 759.834,917.466 755.852,906.873 751.87,899.266 747.887,894.391 743.905,892.073 739.923,892.205 735.94,894.729 731.958,899.642 727.976,906.986 723.993,916.858 720.011,929.413 716.029,944.885 712.047,963.607 708.064,986.051 704.082,1012.9 700.1,1045.15 696.117,1084.38 692.135,1133.14 688.153,1196.12 684.17,1283.32 680.188,1423.09 676.206,1803.94 672.224,1548.69 668.241,1353.35 664.259,1251.79 660.277,1184.41 656.294,1135.2 652.312,1097.5 648.33,1067.88 644.347,1044.37 640.365,1025.73 636.383,1011.12 632.4,999.988 628.418,991.936 624.436,986.686 620.454,984.048 616.471,983.896 612.489,986.164 608.507,990.834 604.524,997.937 600.542,1007.56 596.56,1019.83 592.577,1034.98 588.595,1053.29 584.613,1075.22 580.631,1101.38 576.648,1132.67 572.666,1170.49 568.684,1217.09 564.701,1276.46 560.719,1356.7 556.737,1478.78 552.754,1739.94 548.772,1743.54 544.79,1489.6 540.807,1374.72 536.825,1301.7 532.843,1249.56 528.861,1210.2 524.878,1179.64 520.896,1155.62 516.914,1136.77 512.931,1122.16 508.949,1111.2 504.967,1103.44 500.984,1098.58 497.002,1096.42 493.02,1096.81 489.038,1099.68 485.055,1105.01 481.073,1112.81 477.091,1123.15 473.108,1136.17 469.126,1152.06 465.144,1171.1 461.161,1193.69 457.179,1220.4 453.197,1252.07 449.214,1289.94 445.232,1336 441.25,1393.67 437.268,1469.64 433.285,1579.91 429.303,1784.09 425.321,2048.34 421.338,1676.64 417.356,1546.19 413.374,1468.5 409.391,1415.21 405.409,1376.37 401.427,1347.29 397.445,1325.44 393.462,1309.26 389.48,1297.8 385.498,1290.38 381.515,1286.59 377.533,1286.11 373.551,1288.76 369.568,1294.44 365.586,1303.12 361.604,1314.83 357.621,1329.65 353.639,1347.76 349.657,1369.4 345.675,1394.91 341.692,1424.77 337.71,1459.63 333.728,1500.4 329.745,1548.36 325.763,1605.45 321.781,1674.65 317.798,1761 313.816,1873.97 309.834,2034.84 305.852,2311.53 301.869,15065.2 "/>
</svg>
