<?xml version="1.0" encoding="utf-8"?>
<svg xmlns="http://www.w3.org/2000/svg" xmlns:xlink="http://www.w3.org/1999/xlink" width="600" height="400" viewBox="0 0 2400 1600">
<defs>
  <clipPath id="clip300">
    <rect x="0" y="0" width="2400" height="1600"/>
  </clipPath>
</defs>
<path clip-path="url(#clip300)" d="M0 1600 L2400 1600 L2400 0 L0 0  Z" fill="#ffffff" fill-rule="evenodd" fill-opacity="1"/>
<defs>
  <clipPath id="clip301">
    <rect x="480" y="0" width="1681" height="1600"/>
  </clipPath>
</defs>
<path clip-path="url(#clip300)" d="M219.542 1423.18 L2352.76 1423.18 L2352.76 123.472 L219.542 123.472  Z" fill="#ffffff" fill-rule="evenodd" fill-opacity="1"/>
<defs>
  <clipPath id="clip302">
    <rect x="219" y="123" width="2134" height="1301"/>
  </clipPath>
</defs>
<polyline clip-path="url(#clip302)" style="stroke:#000000; stroke-linecap:round; stroke-linejoin:round; stroke-width:2; stroke-opacity:0.1; fill:none" points="507.13,1423.18 507.13,123.472 "/>
<polyline clip-path="url(#clip302)" style="stroke:#000000; stroke-linecap:round; stroke-linejoin:round; stroke-width:2; stroke-opacity:0.1; fill:none" points="896.64,1423.18 896.64,123.472 "/>
<polyline clip-path="url(#clip302)" style="stroke:#000000; stroke-linecap:round; stroke-linejoin:round; stroke-width:2; stroke-opacity:0.1; fill:none" points="1286.15,1423.18 1286.15,123.472 "/>
<polyline clip-path="url(#clip302)" style="stroke:#000000; stroke-linecap:round; stroke-linejoin:round; stroke-width:2; stroke-opacity:0.1; fill:none" points="1675.66,1423.18 1675.66,123.472 "/>
<polyline clip-path="url(#clip302)" style="stroke:#000000; stroke-linecap:round; stroke-linejoin:round; stroke-width:2; stroke-opacity:0.1; fill:none" points="2065.17,1423.18 2065.17,123.472 "/>
<polyline clip-path="url(#clip302)" style="stroke:#000000; stroke-linecap:round; stroke-linejoin:round; stroke-width:2; stroke-opacity:0.1; fill:none" points="219.542,1294.31 2352.76,1294.31 "/>
<polyline clip-path="url(#clip302)" style="stroke:#000000; stroke-linecap:round; stroke-linejoin:round; stroke-width:2; stroke-opacity:0.1; fill:none" points="219.542,1022.17 2352.76,1022.17 "/>
<polyline clip-path="url(#clip302)" style="stroke:#000000; stroke-linecap:round; stroke-linejoin:round; stroke-width:2; stroke-opacity:0.1; fill:none" points="219.542,750.036 2352.76,750.036 "/>
<polyline clip-path="url(#clip302)" style="stroke:#000000; stroke-linecap:round; stroke-linejoin:round; stroke-width:2; stroke-opacity:0.1; fill:none" points="219.542,477.899 2352.76,477.899 "/>
<polyline clip-path="url(#clip302)" style="stroke:#000000; stroke-linecap:round; stroke-linejoin:round; stroke-width:2; stroke-opacity:0.1; fill:none" points="219.542,205.762 2352.76,205.762 "/>
<polyline clip-path="url(#clip300)" style="stroke:#000000; stroke-linecap:round; stroke-linejoin:round; stroke-width:4; stroke-opacity:1; fill:none" points="219.542,1423.18 2352.76,1423.18 "/>
<polyline clip-path="url(#clip300)" style="stroke:#000000; stroke-linecap:round; stroke-linejoin:round; stroke-width:4; stroke-opacity:1; fill:none" points="507.13,1423.18 507.13,1404.28 "/>
<polyline clip-path="url(#clip300)" style="stroke:#000000; stroke-linecap:round; stroke-linejoin:round; stroke-width:4; stroke-opacity:1; fill:none" points="896.64,1423.18 896.64,1404.28 "/>
<polyline clip-path="url(#clip300)" style="stroke:#000000; stroke-linecap:round; stroke-linejoin:round; stroke-width:4; stroke-opacity:1; fill:none" points="1286.15,1423.18 1286.15,1404.28 "/>
<polyline clip-path="url(#clip300)" style="stroke:#000000; stroke-linecap:round; stroke-linejoin:round; stroke-width:4; stroke-opacity:1; fill:none" points="1675.66,1423.18 1675.66,1404.28 "/>
<polyline clip-path="url(#clip300)" style="stroke:#000000; stroke-linecap:round; stroke-linejoin:round; stroke-width:4; stroke-opacity:1; fill:none" points="2065.17,1423.18 2065.17,1404.28 "/>
<path clip-path="url(#clip300)" d="M476.193 1468.75 L505.868 1468.75 L505.868 1472.69 L476.193 1472.69 L476.193 1468.75 Z" fill="#000000" fill-rule="nonzero" fill-opacity="1" /><path clip-path="url(#clip300)" d="M526.54 1466.44 Q523.392 1466.44 521.54 1468.59 Q519.711 1470.74 519.711 1474.49 Q519.711 1478.22 521.54 1480.39 Q523.392 1482.55 526.54 1482.55 Q529.688 1482.55 531.516 1480.39 Q533.368 1478.22 533.368 1474.49 Q533.368 1470.74 531.516 1468.59 Q529.688 1466.44 526.54 1466.44 M535.822 1451.78 L535.822 1456.04 Q534.063 1455.21 532.257 1454.77 Q530.475 1454.33 528.716 1454.33 Q524.086 1454.33 521.632 1457.45 Q519.202 1460.58 518.855 1466.9 Q520.22 1464.89 522.28 1463.82 Q524.341 1462.73 526.817 1462.73 Q532.026 1462.73 535.035 1465.9 Q538.067 1469.05 538.067 1474.49 Q538.067 1479.82 534.919 1483.03 Q531.771 1486.25 526.54 1486.25 Q520.544 1486.25 517.373 1481.67 Q514.202 1477.06 514.202 1468.33 Q514.202 1460.14 518.091 1455.28 Q521.98 1450.39 528.53 1450.39 Q530.29 1450.39 532.072 1450.74 Q533.878 1451.09 535.822 1451.78 Z" fill="#000000" fill-rule="nonzero" fill-opacity="1" /><path clip-path="url(#clip300)" d="M866.107 1468.75 L895.783 1468.75 L895.783 1472.69 L866.107 1472.69 L866.107 1468.75 Z" fill="#000000" fill-rule="nonzero" fill-opacity="1" /><path clip-path="url(#clip300)" d="M920.042 1466.95 Q923.399 1467.66 925.274 1469.93 Q927.172 1472.2 927.172 1475.53 Q927.172 1480.65 923.653 1483.45 Q920.135 1486.25 913.653 1486.25 Q911.477 1486.25 909.163 1485.81 Q906.871 1485.39 904.417 1484.54 L904.417 1480.02 Q906.362 1481.16 908.677 1481.74 Q910.991 1482.32 913.514 1482.32 Q917.913 1482.32 920.204 1480.58 Q922.519 1478.84 922.519 1475.53 Q922.519 1472.48 920.366 1470.77 Q918.237 1469.03 914.417 1469.03 L910.389 1469.03 L910.389 1465.19 L914.602 1465.19 Q918.051 1465.19 919.88 1463.82 Q921.709 1462.43 921.709 1459.84 Q921.709 1457.18 919.811 1455.77 Q917.936 1454.33 914.417 1454.33 Q912.496 1454.33 910.297 1454.75 Q908.098 1455.16 905.459 1456.04 L905.459 1451.88 Q908.121 1451.14 910.436 1450.77 Q912.774 1450.39 914.834 1450.39 Q920.158 1450.39 923.26 1452.83 Q926.362 1455.23 926.362 1459.35 Q926.362 1462.22 924.718 1464.21 Q923.075 1466.18 920.042 1466.95 Z" fill="#000000" fill-rule="nonzero" fill-opacity="1" /><path clip-path="url(#clip300)" d="M1286.15 1454.1 Q1282.54 1454.1 1280.71 1457.66 Q1278.9 1461.2 1278.9 1468.33 Q1278.9 1475.44 1280.71 1479.01 Q1282.54 1482.55 1286.15 1482.55 Q1289.78 1482.55 1291.59 1479.01 Q1293.42 1475.44 1293.42 1468.33 Q1293.42 1461.2 1291.59 1457.66 Q1289.78 1454.1 1286.15 1454.1 M1286.15 1450.39 Q1291.96 1450.39 1295.01 1455 Q1298.09 1459.58 1298.09 1468.33 Q1298.09 1477.06 1295.01 1481.67 Q1291.96 1486.25 1286.15 1486.25 Q1280.34 1486.25 1277.26 1481.67 Q1274.2 1477.06 1274.2 1468.33 Q1274.2 1459.58 1277.26 1455 Q1280.34 1450.39 1286.15 1450.39 Z" fill="#000000" fill-rule="nonzero" fill-opacity="1" /><path clip-path="url(#clip300)" d="M1679.91 1466.95 Q1683.26 1467.66 1685.14 1469.93 Q1687.04 1472.2 1687.04 1475.53 Q1687.04 1480.65 1683.52 1483.45 Q1680 1486.25 1673.52 1486.25 Q1671.34 1486.25 1669.03 1485.81 Q1666.73 1485.39 1664.28 1484.54 L1664.28 1480.02 Q1666.23 1481.16 1668.54 1481.74 Q1670.86 1482.32 1673.38 1482.32 Q1677.78 1482.32 1680.07 1480.58 Q1682.38 1478.84 1682.38 1475.53 Q1682.38 1472.48 1680.23 1470.77 Q1678.1 1469.03 1674.28 1469.03 L1670.25 1469.03 L1670.25 1465.19 L1674.47 1465.19 Q1677.92 1465.19 1679.74 1463.82 Q1681.57 1462.43 1681.57 1459.84 Q1681.57 1457.18 1679.67 1455.77 Q1677.8 1454.33 1674.28 1454.33 Q1672.36 1454.33 1670.16 1454.75 Q1667.96 1455.16 1665.32 1456.04 L1665.32 1451.88 Q1667.98 1451.14 1670.3 1450.77 Q1672.64 1450.39 1674.7 1450.39 Q1680.02 1450.39 1683.12 1452.83 Q1686.23 1455.23 1686.23 1459.35 Q1686.23 1462.22 1684.58 1464.21 Q1682.94 1466.18 1679.91 1466.95 Z" fill="#000000" fill-rule="nonzero" fill-opacity="1" /><path clip-path="url(#clip300)" d="M2065.57 1466.44 Q2062.43 1466.44 2060.57 1468.59 Q2058.74 1470.74 2058.74 1474.49 Q2058.74 1478.22 2060.57 1480.39 Q2062.43 1482.55 2065.57 1482.55 Q2068.72 1482.55 2070.55 1480.39 Q2072.4 1478.22 2072.4 1474.49 Q2072.4 1470.74 2070.55 1468.59 Q2068.72 1466.44 2065.57 1466.44 M2074.86 1451.78 L2074.86 1456.04 Q2073.1 1455.21 2071.29 1454.77 Q2069.51 1454.33 2067.75 1454.33 Q2063.12 1454.33 2060.67 1457.45 Q2058.24 1460.58 2057.89 1466.9 Q2059.25 1464.89 2061.31 1463.82 Q2063.37 1462.73 2065.85 1462.73 Q2071.06 1462.73 2074.07 1465.9 Q2077.1 1469.05 2077.1 1474.49 Q2077.1 1479.82 2073.95 1483.03 Q2070.8 1486.25 2065.57 1486.25 Q2059.58 1486.25 2056.41 1481.67 Q2053.24 1477.06 2053.24 1468.33 Q2053.24 1460.14 2057.12 1455.28 Q2061.01 1450.39 2067.56 1450.39 Q2069.32 1450.39 2071.11 1450.74 Q2072.91 1451.09 2074.86 1451.78 Z" fill="#000000" fill-rule="nonzero" fill-opacity="1" /><path clip-path="url(#clip300)" d="M964.872 1520.52 L994.918 1520.52 L994.918 1525.93 L971.301 1525.93 L971.301 1540 L993.931 1540 L993.931 1545.41 L971.301 1545.41 L971.301 1562.63 L995.491 1562.63 L995.491 1568.04 L964.872 1568.04 L964.872 1520.52 Z" fill="#000000" fill-rule="nonzero" fill-opacity="1" /><path clip-path="url(#clip300)" d="M1005.8 1518.52 L1011.66 1518.52 L1011.66 1568.04 L1005.8 1568.04 L1005.8 1518.52 Z" fill="#000000" fill-rule="nonzero" fill-opacity="1" /><path clip-path="url(#clip300)" d="M1054.41 1548.76 L1054.41 1551.62 L1027.48 1551.62 Q1027.86 1557.67 1031.11 1560.85 Q1034.39 1564 1040.21 1564 Q1043.58 1564 1046.73 1563.17 Q1049.92 1562.35 1053.04 1560.69 L1053.04 1566.23 Q1049.89 1567.57 1046.58 1568.27 Q1043.27 1568.97 1039.86 1568.97 Q1031.33 1568.97 1026.33 1564 Q1021.37 1559.04 1021.37 1550.57 Q1021.37 1541.82 1026.08 1536.69 Q1030.82 1531.54 1038.84 1531.54 Q1046.03 1531.54 1050.2 1536.18 Q1054.41 1540.8 1054.41 1548.76 M1048.55 1547.04 Q1048.49 1542.23 1045.84 1539.37 Q1043.23 1536.5 1038.91 1536.5 Q1034 1536.5 1031.04 1539.27 Q1028.12 1542.04 1027.67 1547.07 L1048.55 1547.04 Z" fill="#000000" fill-rule="nonzero" fill-opacity="1" /><path clip-path="url(#clip300)" d="M1091.77 1539.24 Q1093.97 1535.29 1097.02 1533.41 Q1100.08 1531.54 1104.22 1531.54 Q1109.79 1531.54 1112.81 1535.45 Q1115.83 1539.33 1115.83 1546.53 L1115.83 1568.04 L1109.95 1568.04 L1109.95 1546.72 Q1109.95 1541.59 1108.13 1539.11 Q1106.32 1536.63 1102.59 1536.63 Q1098.04 1536.63 1095.4 1539.65 Q1092.76 1542.68 1092.76 1547.9 L1092.76 1568.04 L1086.87 1568.04 L1086.87 1546.72 Q1086.87 1541.56 1085.06 1539.11 Q1083.24 1536.63 1079.45 1536.63 Q1074.97 1536.63 1072.32 1539.68 Q1069.68 1542.71 1069.68 1547.9 L1069.68 1568.04 L1063.79 1568.04 L1063.79 1532.4 L1069.68 1532.4 L1069.68 1537.93 Q1071.69 1534.66 1074.49 1533.1 Q1077.29 1531.54 1081.14 1531.54 Q1085.02 1531.54 1087.73 1533.51 Q1090.47 1535.48 1091.77 1539.24 Z" fill="#000000" fill-rule="nonzero" fill-opacity="1" /><path clip-path="url(#clip300)" d="M1158.01 1548.76 L1158.01 1551.62 L1131.08 1551.62 Q1131.46 1557.67 1134.71 1560.85 Q1137.99 1564 1143.81 1564 Q1147.19 1564 1150.34 1563.17 Q1153.52 1562.35 1156.64 1560.69 L1156.64 1566.23 Q1153.49 1567.57 1150.18 1568.27 Q1146.87 1568.97 1143.46 1568.97 Q1134.93 1568.97 1129.93 1564 Q1124.97 1559.04 1124.97 1550.57 Q1124.97 1541.82 1129.68 1536.69 Q1134.42 1531.54 1142.44 1531.54 Q1149.64 1531.54 1153.81 1536.18 Q1158.01 1540.8 1158.01 1548.76 M1152.15 1547.04 Q1152.09 1542.23 1149.45 1539.37 Q1146.84 1536.5 1142.51 1536.5 Q1137.61 1536.5 1134.65 1539.27 Q1131.72 1542.04 1131.27 1547.07 L1152.15 1547.04 Z" fill="#000000" fill-rule="nonzero" fill-opacity="1" /><path clip-path="url(#clip300)" d="M1197.25 1546.53 L1197.25 1568.04 L1191.4 1568.04 L1191.4 1546.72 Q1191.4 1541.66 1189.42 1539.14 Q1187.45 1536.63 1183.5 1536.63 Q1178.76 1536.63 1176.02 1539.65 Q1173.29 1542.68 1173.29 1547.9 L1173.29 1568.04 L1167.4 1568.04 L1167.4 1532.4 L1173.29 1532.4 L1173.29 1537.93 Q1175.39 1534.72 1178.22 1533.13 Q1181.08 1531.54 1184.81 1531.54 Q1190.95 1531.54 1194.1 1535.36 Q1197.25 1539.14 1197.25 1546.53 Z" fill="#000000" fill-rule="nonzero" fill-opacity="1" /><path clip-path="url(#clip300)" d="M1214.73 1522.27 L1214.73 1532.4 L1226.79 1532.4 L1226.79 1536.95 L1214.73 1536.95 L1214.73 1556.3 Q1214.73 1560.66 1215.9 1561.9 Q1217.11 1563.14 1220.77 1563.14 L1226.79 1563.14 L1226.79 1568.04 L1220.77 1568.04 Q1213.99 1568.04 1211.42 1565.53 Q1208.84 1562.98 1208.84 1556.3 L1208.84 1536.95 L1204.54 1536.95 L1204.54 1532.4 L1208.84 1532.4 L1208.84 1522.27 L1214.73 1522.27 Z" fill="#000000" fill-rule="nonzero" fill-opacity="1" /><path clip-path="url(#clip300)" d="M1261.9 1525.81 L1261.9 1543.66 L1269.98 1543.66 Q1274.47 1543.66 1276.92 1541.34 Q1279.37 1539.02 1279.37 1534.72 Q1279.37 1530.45 1276.92 1528.13 Q1274.47 1525.81 1269.98 1525.81 L1261.9 1525.81 M1255.47 1520.52 L1269.98 1520.52 Q1277.97 1520.52 1282.04 1524.15 Q1286.15 1527.75 1286.15 1534.72 Q1286.15 1541.75 1282.04 1545.35 Q1277.97 1548.95 1269.98 1548.95 L1261.9 1548.95 L1261.9 1568.04 L1255.47 1568.04 L1255.47 1520.52 Z" fill="#000000" fill-rule="nonzero" fill-opacity="1" /><path clip-path="url(#clip300)" d="M1306.01 1536.5 Q1301.3 1536.5 1298.56 1540.19 Q1295.82 1543.85 1295.82 1550.25 Q1295.82 1556.65 1298.53 1560.34 Q1301.27 1564 1306.01 1564 Q1310.69 1564 1313.43 1560.31 Q1316.16 1556.62 1316.16 1550.25 Q1316.16 1543.92 1313.43 1540.23 Q1310.69 1536.5 1306.01 1536.5 M1306.01 1531.54 Q1313.65 1531.54 1318.01 1536.5 Q1322.37 1541.47 1322.37 1550.25 Q1322.37 1559 1318.01 1564 Q1313.65 1568.97 1306.01 1568.97 Q1298.34 1568.97 1293.98 1564 Q1289.65 1559 1289.65 1550.25 Q1289.65 1541.47 1293.98 1536.5 Q1298.34 1531.54 1306.01 1531.54 Z" fill="#000000" fill-rule="nonzero" fill-opacity="1" /><path clip-path="url(#clip300)" d="M1354.8 1533.45 L1354.8 1538.98 Q1352.32 1537.71 1349.65 1537.07 Q1346.97 1536.44 1344.11 1536.44 Q1339.75 1536.44 1337.55 1537.77 Q1335.39 1539.11 1335.39 1541.79 Q1335.39 1543.82 1336.95 1545 Q1338.51 1546.15 1343.22 1547.2 L1345.22 1547.64 Q1351.46 1548.98 1354.07 1551.43 Q1356.71 1553.85 1356.71 1558.21 Q1356.71 1563.17 1352.77 1566.07 Q1348.85 1568.97 1341.98 1568.97 Q1339.11 1568.97 1335.99 1568.39 Q1332.91 1567.85 1329.47 1566.74 L1329.47 1560.69 Q1332.71 1562.38 1335.87 1563.24 Q1339.02 1564.07 1342.1 1564.07 Q1346.24 1564.07 1348.47 1562.66 Q1350.7 1561.23 1350.7 1558.65 Q1350.7 1556.27 1349.07 1554.99 Q1347.48 1553.72 1342.04 1552.54 L1340 1552.07 Q1334.56 1550.92 1332.14 1548.56 Q1329.72 1546.18 1329.72 1542.04 Q1329.72 1537.01 1333.29 1534.27 Q1336.85 1531.54 1343.41 1531.54 Q1346.66 1531.54 1349.52 1532.01 Q1352.38 1532.49 1354.8 1533.45 Z" fill="#000000" fill-rule="nonzero" fill-opacity="1" /><path clip-path="url(#clip300)" d="M1366.04 1532.4 L1371.9 1532.4 L1371.9 1568.04 L1366.04 1568.04 L1366.04 1532.4 M1366.04 1518.52 L1371.9 1518.52 L1371.9 1525.93 L1366.04 1525.93 L1366.04 1518.52 Z" fill="#000000" fill-rule="nonzero" fill-opacity="1" /><path clip-path="url(#clip300)" d="M1389.94 1522.27 L1389.94 1532.4 L1402 1532.4 L1402 1536.95 L1389.94 1536.95 L1389.94 1556.3 Q1389.94 1560.66 1391.12 1561.9 Q1392.33 1563.14 1395.99 1563.14 L1402 1563.14 L1402 1568.04 L1395.99 1568.04 Q1389.21 1568.04 1386.63 1565.53 Q1384.05 1562.98 1384.05 1556.3 L1384.05 1536.95 L1379.76 1536.95 L1379.76 1532.4 L1384.05 1532.4 L1384.05 1522.27 L1389.94 1522.27 Z" fill="#000000" fill-rule="nonzero" fill-opacity="1" /><path clip-path="url(#clip300)" d="M1409.71 1532.4 L1415.56 1532.4 L1415.56 1568.04 L1409.71 1568.04 L1409.71 1532.4 M1409.71 1518.52 L1415.56 1518.52 L1415.56 1525.93 L1409.71 1525.93 L1409.71 1518.52 Z" fill="#000000" fill-rule="nonzero" fill-opacity="1" /><path clip-path="url(#clip300)" d="M1441.63 1536.5 Q1436.92 1536.5 1434.18 1540.19 Q1431.45 1543.85 1431.45 1550.25 Q1431.45 1556.65 1434.15 1560.34 Q1436.89 1564 1441.63 1564 Q1446.31 1564 1449.05 1560.31 Q1451.78 1556.62 1451.78 1550.25 Q1451.78 1543.92 1449.05 1540.23 Q1446.31 1536.5 1441.63 1536.5 M1441.63 1531.54 Q1449.27 1531.54 1453.63 1536.5 Q1457.99 1541.47 1457.99 1550.25 Q1457.99 1559 1453.63 1564 Q1449.27 1568.97 1441.63 1568.97 Q1433.96 1568.97 1429.6 1564 Q1425.27 1559 1425.27 1550.25 Q1425.27 1541.47 1429.6 1536.5 Q1433.96 1531.54 1441.63 1531.54 Z" fill="#000000" fill-rule="nonzero" fill-opacity="1" /><path clip-path="url(#clip300)" d="M1497.33 1546.53 L1497.33 1568.04 L1491.47 1568.04 L1491.47 1546.72 Q1491.47 1541.66 1489.5 1539.14 Q1487.53 1536.63 1483.58 1536.63 Q1478.84 1536.63 1476.1 1539.65 Q1473.36 1542.68 1473.36 1547.9 L1473.36 1568.04 L1467.48 1568.04 L1467.48 1532.4 L1473.36 1532.4 L1473.36 1537.93 Q1475.47 1534.72 1478.3 1533.13 Q1481.16 1531.54 1484.89 1531.54 Q1491.03 1531.54 1494.18 1535.36 Q1497.33 1539.14 1497.33 1546.53 Z" fill="#000000" fill-rule="nonzero" fill-opacity="1" /><path clip-path="url(#clip300)" d="M1529.19 1518.52 L1542.69 1518.52 L1542.69 1523.07 L1535.05 1523.07 L1535.05 1572.09 L1542.69 1572.09 L1542.69 1576.64 L1529.19 1576.64 L1529.19 1518.52 Z" fill="#000000" fill-rule="nonzero" fill-opacity="1" /><path clip-path="url(#clip300)" d="M1569.2 1524.09 L1585.66 1568.04 L1579.45 1568.04 L1569.45 1541.69 L1557.17 1568.04 L1550.96 1568.04 L1566.59 1533.86 L1564.23 1527.56 Q1562.74 1523.55 1559.33 1523.55 L1556.28 1523.55 L1556.28 1518.52 L1560 1518.58 Q1567.19 1518.68 1569.2 1524.09 Z" fill="#000000" fill-rule="nonzero" fill-opacity="1" /><path clip-path="url(#clip300)" d="M1607.43 1518.52 L1607.43 1576.64 L1593.93 1576.64 L1593.93 1572.09 L1601.54 1572.09 L1601.54 1523.07 L1593.93 1523.07 L1593.93 1518.52 L1607.43 1518.52 Z" fill="#000000" fill-rule="nonzero" fill-opacity="1" /><polyline clip-path="url(#clip300)" style="stroke:#000000; stroke-linecap:round; stroke-linejoin:round; stroke-width:4; stroke-opacity:1; fill:none" points="219.542,1423.18 219.542,123.472 "/>
<polyline clip-path="url(#clip300)" style="stroke:#000000; stroke-linecap:round; stroke-linejoin:round; stroke-width:4; stroke-opacity:1; fill:none" points="219.542,1294.31 238.44,1294.31 "/>
<polyline clip-path="url(#clip300)" style="stroke:#000000; stroke-linecap:round; stroke-linejoin:round; stroke-width:4; stroke-opacity:1; fill:none" points="219.542,1022.17 238.44,1022.17 "/>
<polyline clip-path="url(#clip300)" style="stroke:#000000; stroke-linecap:round; stroke-linejoin:round; stroke-width:4; stroke-opacity:1; fill:none" points="219.542,750.036 238.44,750.036 "/>
<polyline clip-path="url(#clip300)" style="stroke:#000000; stroke-linecap:round; stroke-linejoin:round; stroke-width:4; stroke-opacity:1; fill:none" points="219.542,477.899 238.44,477.899 "/>
<polyline clip-path="url(#clip300)" style="stroke:#000000; stroke-linecap:round; stroke-linejoin:round; stroke-width:4; stroke-opacity:1; fill:none" points="219.542,205.762 238.44,205.762 "/>
<path clip-path="url(#clip300)" d="M126.205 1280.11 Q122.593 1280.11 120.765 1283.67 Q118.959 1287.21 118.959 1294.34 Q118.959 1301.45 120.765 1305.02 Q122.593 1308.56 126.205 1308.56 Q129.839 1308.56 131.644 1305.02 Q133.473 1301.45 133.473 1294.34 Q133.473 1287.21 131.644 1283.67 Q129.839 1280.11 126.205 1280.11 M126.205 1276.4 Q132.015 1276.4 135.07 1281.01 Q138.149 1285.59 138.149 1294.34 Q138.149 1303.07 135.07 1307.68 Q132.015 1312.26 126.205 1312.26 Q120.394 1312.26 117.316 1307.68 Q114.26 1303.07 114.26 1294.34 Q114.26 1285.59 117.316 1281.01 Q120.394 1276.4 126.205 1276.4 Z" fill="#000000" fill-rule="nonzero" fill-opacity="1" /><path clip-path="url(#clip300)" d="M146.366 1305.71 L151.251 1305.71 L151.251 1311.59 L146.366 1311.59 L146.366 1305.71 Z" fill="#000000" fill-rule="nonzero" fill-opacity="1" /><path clip-path="url(#clip300)" d="M172.014 1292.45 Q168.866 1292.45 167.015 1294.6 Q165.186 1296.75 165.186 1300.5 Q165.186 1304.23 167.015 1306.4 Q168.866 1308.56 172.014 1308.56 Q175.163 1308.56 176.991 1306.4 Q178.843 1304.23 178.843 1300.5 Q178.843 1296.75 176.991 1294.6 Q175.163 1292.45 172.014 1292.45 M181.297 1277.79 L181.297 1282.05 Q179.538 1281.22 177.732 1280.78 Q175.95 1280.34 174.19 1280.34 Q169.561 1280.34 167.107 1283.46 Q164.677 1286.59 164.329 1292.91 Q165.695 1290.9 167.755 1289.83 Q169.815 1288.74 172.292 1288.74 Q177.501 1288.74 180.51 1291.91 Q183.542 1295.06 183.542 1300.5 Q183.542 1305.83 180.394 1309.04 Q177.246 1312.26 172.014 1312.26 Q166.019 1312.26 162.848 1307.68 Q159.677 1303.07 159.677 1294.34 Q159.677 1286.15 163.565 1281.29 Q167.454 1276.4 174.005 1276.4 Q175.764 1276.4 177.547 1276.75 Q179.352 1277.1 181.297 1277.79 Z" fill="#000000" fill-rule="nonzero" fill-opacity="1" /><path clip-path="url(#clip300)" d="M126.459 1007.97 Q122.848 1007.97 121.019 1011.54 Q119.214 1015.08 119.214 1022.21 Q119.214 1029.31 121.019 1032.88 Q122.848 1036.42 126.459 1036.42 Q130.093 1036.42 131.899 1032.88 Q133.728 1029.31 133.728 1022.21 Q133.728 1015.08 131.899 1011.54 Q130.093 1007.97 126.459 1007.97 M126.459 1004.27 Q132.269 1004.27 135.325 1008.87 Q138.404 1013.46 138.404 1022.21 Q138.404 1030.93 135.325 1035.54 Q132.269 1040.12 126.459 1040.12 Q120.649 1040.12 117.57 1035.54 Q114.515 1030.93 114.515 1022.21 Q114.515 1013.46 117.57 1008.87 Q120.649 1004.27 126.459 1004.27 Z" fill="#000000" fill-rule="nonzero" fill-opacity="1" /><path clip-path="url(#clip300)" d="M146.621 1033.57 L151.505 1033.57 L151.505 1039.45 L146.621 1039.45 L146.621 1033.57 Z" fill="#000000" fill-rule="nonzero" fill-opacity="1" /><path clip-path="url(#clip300)" d="M171.69 1023.04 Q168.357 1023.04 166.436 1024.82 Q164.538 1026.61 164.538 1029.73 Q164.538 1032.86 166.436 1034.64 Q168.357 1036.42 171.69 1036.42 Q175.024 1036.42 176.945 1034.64 Q178.866 1032.83 178.866 1029.73 Q178.866 1026.61 176.945 1024.82 Q175.047 1023.04 171.69 1023.04 M167.015 1021.05 Q164.005 1020.31 162.315 1018.25 Q160.649 1016.19 160.649 1013.23 Q160.649 1009.08 163.589 1006.68 Q166.552 1004.27 171.69 1004.27 Q176.852 1004.27 179.792 1006.68 Q182.732 1009.08 182.732 1013.23 Q182.732 1016.19 181.042 1018.25 Q179.376 1020.31 176.389 1021.05 Q179.769 1021.84 181.644 1024.13 Q183.542 1026.42 183.542 1029.73 Q183.542 1034.75 180.464 1037.44 Q177.408 1040.12 171.69 1040.12 Q165.973 1040.12 162.894 1037.44 Q159.839 1034.75 159.839 1029.73 Q159.839 1026.42 161.737 1024.13 Q163.635 1021.84 167.015 1021.05 M165.302 1013.67 Q165.302 1016.35 166.968 1017.86 Q168.658 1019.36 171.69 1019.36 Q174.7 1019.36 176.389 1017.86 Q178.102 1016.35 178.102 1013.67 Q178.102 1010.98 176.389 1009.48 Q174.7 1007.97 171.69 1007.97 Q168.658 1007.97 166.968 1009.48 Q165.302 1010.98 165.302 1013.67 Z" fill="#000000" fill-rule="nonzero" fill-opacity="1" /><path clip-path="url(#clip300)" d="M117.177 763.381 L124.816 763.381 L124.816 737.015 L116.506 738.682 L116.506 734.422 L124.769 732.756 L129.445 732.756 L129.445 763.381 L137.084 763.381 L137.084 767.316 L117.177 767.316 L117.177 763.381 Z" fill="#000000" fill-rule="nonzero" fill-opacity="1" /><path clip-path="url(#clip300)" d="M146.529 761.436 L151.413 761.436 L151.413 767.316 L146.529 767.316 L146.529 761.436 Z" fill="#000000" fill-rule="nonzero" fill-opacity="1" /><path clip-path="url(#clip300)" d="M171.598 735.835 Q167.987 735.835 166.158 739.399 Q164.352 742.941 164.352 750.071 Q164.352 757.177 166.158 760.742 Q167.987 764.283 171.598 764.283 Q175.232 764.283 177.038 760.742 Q178.866 757.177 178.866 750.071 Q178.866 742.941 177.038 739.399 Q175.232 735.835 171.598 735.835 M171.598 732.131 Q177.408 732.131 180.464 736.737 Q183.542 741.321 183.542 750.071 Q183.542 758.797 180.464 763.404 Q177.408 767.987 171.598 767.987 Q165.788 767.987 162.709 763.404 Q159.653 758.797 159.653 750.071 Q159.653 741.321 162.709 736.737 Q165.788 732.131 171.598 732.131 Z" fill="#000000" fill-rule="nonzero" fill-opacity="1" /><path clip-path="url(#clip300)" d="M118.774 491.244 L126.413 491.244 L126.413 464.878 L118.103 466.545 L118.103 462.286 L126.367 460.619 L131.042 460.619 L131.042 491.244 L138.681 491.244 L138.681 495.179 L118.774 495.179 L118.774 491.244 Z" fill="#000000" fill-rule="nonzero" fill-opacity="1" /><path clip-path="url(#clip300)" d="M148.126 489.299 L153.01 489.299 L153.01 495.179 L148.126 495.179 L148.126 489.299 Z" fill="#000000" fill-rule="nonzero" fill-opacity="1" /><path clip-path="url(#clip300)" d="M167.223 491.244 L183.542 491.244 L183.542 495.179 L161.598 495.179 L161.598 491.244 Q164.26 488.489 168.843 483.859 Q173.45 479.207 174.63 477.864 Q176.876 475.341 177.755 473.605 Q178.658 471.846 178.658 470.156 Q178.658 467.401 176.714 465.665 Q174.792 463.929 171.69 463.929 Q169.491 463.929 167.038 464.693 Q164.607 465.457 161.829 467.008 L161.829 462.286 Q164.653 461.151 167.107 460.573 Q169.561 459.994 171.598 459.994 Q176.968 459.994 180.163 462.679 Q183.357 465.364 183.357 469.855 Q183.357 471.985 182.547 473.906 Q181.76 475.804 179.653 478.397 Q179.075 479.068 175.973 482.285 Q172.871 485.48 167.223 491.244 Z" fill="#000000" fill-rule="nonzero" fill-opacity="1" /><path clip-path="url(#clip300)" d="M116.691 219.107 L124.33 219.107 L124.33 192.741 L116.019 194.408 L116.019 190.149 L124.283 188.482 L128.959 188.482 L128.959 219.107 L136.598 219.107 L136.598 223.042 L116.691 223.042 L116.691 219.107 Z" fill="#000000" fill-rule="nonzero" fill-opacity="1" /><path clip-path="url(#clip300)" d="M146.042 217.162 L150.927 217.162 L150.927 223.042 L146.042 223.042 L146.042 217.162 Z" fill="#000000" fill-rule="nonzero" fill-opacity="1" /><path clip-path="url(#clip300)" d="M173.959 192.556 L162.153 211.005 L173.959 211.005 L173.959 192.556 M172.732 188.482 L178.612 188.482 L178.612 211.005 L183.542 211.005 L183.542 214.894 L178.612 214.894 L178.612 223.042 L173.959 223.042 L173.959 214.894 L158.357 214.894 L158.357 210.38 L172.732 188.482 Z" fill="#000000" fill-rule="nonzero" fill-opacity="1" /><path clip-path="url(#clip300)" d="M16.4842 885.012 L16.4842 878.519 L56.6518 868.525 L16.4842 858.563 L16.4842 851.338 L56.6518 841.344 L16.4842 831.381 L16.4842 824.856 L64.0042 836.792 L64.0042 844.877 L22.7544 854.903 L64.0042 865.024 L64.0042 873.108 L16.4842 885.012 Z" fill="#000000" fill-rule="nonzero" fill-opacity="1" /><path clip-path="url(#clip300)" d="M44.7161 789.909 L47.5806 789.909 L47.5806 816.836 Q53.6281 816.454 56.8109 813.207 Q59.9619 809.929 59.9619 804.104 Q59.9619 800.73 59.1344 797.579 Q58.3069 794.396 56.6518 791.277 L62.1899 791.277 Q63.5267 794.428 64.227 797.738 Q64.9272 801.049 64.9272 804.454 Q64.9272 812.984 59.9619 817.981 Q54.9967 822.947 46.5303 822.947 Q37.7774 822.947 32.6531 818.236 Q27.4968 813.494 27.4968 805.473 Q27.4968 798.28 32.1438 794.11 Q36.7589 789.909 44.7161 789.909 M42.9973 795.765 Q38.1912 795.829 35.3266 798.471 Q32.4621 801.08 32.4621 805.409 Q32.4621 810.311 35.2312 813.271 Q38.0002 816.199 43.0292 816.645 L42.9973 795.765 Z" fill="#000000" fill-rule="nonzero" fill-opacity="1" /><path clip-path="url(#clip300)" d="M28.3562 780.296 L28.3562 774.44 L64.0042 774.44 L64.0042 780.296 L28.3562 780.296 M14.479 780.296 L14.479 774.44 L21.895 774.44 L21.895 780.296 L14.479 780.296 Z" fill="#000000" fill-rule="nonzero" fill-opacity="1" /><path clip-path="url(#clip300)" d="M45.7664 738.728 Q39.4007 738.728 35.8996 741.37 Q32.3984 743.98 32.3984 748.723 Q32.3984 753.433 35.8996 756.075 Q39.4007 758.685 45.7664 758.685 Q52.1003 758.685 55.6014 756.075 Q59.1026 753.433 59.1026 748.723 Q59.1026 743.98 55.6014 741.37 Q52.1003 738.728 45.7664 738.728 M59.58 732.872 Q68.683 732.872 73.1071 736.914 Q77.5631 740.956 77.5631 749.295 Q77.5631 752.383 77.0857 755.12 Q76.6401 757.857 75.6852 760.435 L69.9879 760.435 Q71.3884 757.857 72.0568 755.343 Q72.7252 752.828 72.7252 750.218 Q72.7252 744.458 69.7015 741.593 Q66.7096 738.728 60.6303 738.728 L57.7339 738.728 Q60.885 740.543 62.4446 743.375 Q64.0042 746.208 64.0042 750.155 Q64.0042 756.711 59.0071 760.722 Q54.01 764.732 45.7664 764.732 Q37.491 764.732 32.4939 760.722 Q27.4968 756.711 27.4968 750.155 Q27.4968 746.208 29.0564 743.375 Q30.616 740.543 33.7671 738.728 L28.3562 738.728 L28.3562 732.872 L59.58 732.872 Z" fill="#000000" fill-rule="nonzero" fill-opacity="1" /><path clip-path="url(#clip300)" d="M42.4881 691.177 L64.0042 691.177 L64.0042 697.033 L42.679 697.033 Q37.6183 697.033 35.1038 699.006 Q32.5894 700.98 32.5894 704.926 Q32.5894 709.669 35.6131 712.406 Q38.6368 715.143 43.8567 715.143 L64.0042 715.143 L64.0042 721.032 L14.479 721.032 L14.479 715.143 L33.8944 715.143 Q30.6797 713.043 29.0883 710.21 Q27.4968 707.345 27.4968 703.621 Q27.4968 697.479 31.3163 694.328 Q35.1038 691.177 42.4881 691.177 Z" fill="#000000" fill-rule="nonzero" fill-opacity="1" /><path clip-path="url(#clip300)" d="M18.2347 673.703 L28.3562 673.703 L28.3562 661.64 L32.9077 661.64 L32.9077 673.703 L52.2594 673.703 Q56.6199 673.703 57.8613 672.525 Q59.1026 671.316 59.1026 667.655 L59.1026 661.64 L64.0042 661.64 L64.0042 667.655 Q64.0042 674.435 61.4897 677.013 Q58.9434 679.591 52.2594 679.591 L32.9077 679.591 L32.9077 683.888 L28.3562 683.888 L28.3562 679.591 L18.2347 679.591 L18.2347 673.703 Z" fill="#000000" fill-rule="nonzero" fill-opacity="1" /><path clip-path="url(#clip300)" d="M777.518 20.1573 L766.418 50.2555 L788.658 50.2555 L777.518 20.1573 M772.899 12.096 L782.176 12.096 L805.226 72.576 L796.719 72.576 L791.21 57.061 L763.947 57.061 L758.438 72.576 L749.809 72.576 L772.899 12.096 Z" fill="#000000" fill-rule="nonzero" fill-opacity="1" /><path clip-path="url(#clip300)" d="M851.447 45.1919 L851.447 72.576 L843.993 72.576 L843.993 45.4349 Q843.993 38.994 841.481 35.7938 Q838.97 32.5936 833.947 32.5936 Q827.911 32.5936 824.427 36.4419 Q820.943 40.2903 820.943 46.9338 L820.943 72.576 L813.449 72.576 L813.449 27.2059 L820.943 27.2059 L820.943 34.2544 Q823.617 30.163 827.222 28.1376 Q830.868 26.1121 835.607 26.1121 Q843.426 26.1121 847.436 30.9732 Q851.447 35.7938 851.447 45.1919 Z" fill="#000000" fill-rule="nonzero" fill-opacity="1" /><path clip-path="url(#clip300)" d="M873.686 14.324 L873.686 27.2059 L889.039 27.2059 L889.039 32.9987 L873.686 32.9987 L873.686 57.6282 Q873.686 63.1779 875.185 64.7578 Q876.724 66.3376 881.383 66.3376 L889.039 66.3376 L889.039 72.576 L881.383 72.576 Q872.754 72.576 869.473 69.3758 Q866.192 66.1351 866.192 57.6282 L866.192 32.9987 L860.723 32.9987 L860.723 27.2059 L866.192 27.2059 L866.192 14.324 L873.686 14.324 Z" fill="#000000" fill-rule="nonzero" fill-opacity="1" /><path clip-path="url(#clip300)" d="M937.65 48.0275 L937.65 51.6733 L903.379 51.6733 Q903.865 59.3701 907.997 63.421 Q912.17 67.4314 919.583 67.4314 Q923.877 67.4314 927.887 66.3781 Q931.938 65.3249 935.908 63.2184 L935.908 70.267 Q931.897 71.9684 927.685 72.8596 Q923.472 73.7508 919.137 73.7508 Q908.281 73.7508 901.921 67.4314 Q895.601 61.1119 895.601 50.3365 Q895.601 39.1965 901.597 32.6746 Q907.633 26.1121 917.841 26.1121 Q926.996 26.1121 932.303 32.0264 Q937.65 37.9003 937.65 48.0275 M930.196 45.84 Q930.115 39.7232 926.753 36.0774 Q923.431 32.4315 917.922 32.4315 Q911.683 32.4315 907.916 35.9558 Q904.189 39.4801 903.622 45.8805 L930.196 45.84 Z" fill="#000000" fill-rule="nonzero" fill-opacity="1" /><path clip-path="url(#clip300)" d="M987.597 45.1919 L987.597 72.576 L980.144 72.576 L980.144 45.4349 Q980.144 38.994 977.632 35.7938 Q975.121 32.5936 970.098 32.5936 Q964.062 32.5936 960.578 36.4419 Q957.094 40.2903 957.094 46.9338 L957.094 72.576 L949.6 72.576 L949.6 27.2059 L957.094 27.2059 L957.094 34.2544 Q959.768 30.163 963.373 28.1376 Q967.019 26.1121 971.758 26.1121 Q979.577 26.1121 983.587 30.9732 Q987.597 35.7938 987.597 45.1919 Z" fill="#000000" fill-rule="nonzero" fill-opacity="1" /><path clip-path="url(#clip300)" d="M1040.18 45.1919 L1040.18 72.576 L1032.72 72.576 L1032.72 45.4349 Q1032.72 38.994 1030.21 35.7938 Q1027.7 32.5936 1022.68 32.5936 Q1016.64 32.5936 1013.16 36.4419 Q1009.67 40.2903 1009.67 46.9338 L1009.67 72.576 L1002.18 72.576 L1002.18 27.2059 L1009.67 27.2059 L1009.67 34.2544 Q1012.35 30.163 1015.95 28.1376 Q1019.6 26.1121 1024.34 26.1121 Q1032.16 26.1121 1036.17 30.9732 Q1040.18 35.7938 1040.18 45.1919 Z" fill="#000000" fill-rule="nonzero" fill-opacity="1" /><path clip-path="url(#clip300)" d="M1075.66 49.7694 Q1066.63 49.7694 1063.15 51.8354 Q1059.66 53.9013 1059.66 58.8839 Q1059.66 62.8538 1062.26 65.2034 Q1064.89 67.5124 1069.39 67.5124 Q1075.58 67.5124 1079.31 63.1374 Q1083.08 58.7219 1083.08 51.4303 L1083.08 49.7694 L1075.66 49.7694 M1090.53 46.6907 L1090.53 72.576 L1083.08 72.576 L1083.08 65.6895 Q1080.53 69.8214 1076.72 71.8063 Q1072.91 73.7508 1067.4 73.7508 Q1060.43 73.7508 1056.3 69.8619 Q1052.21 65.9325 1052.21 59.3701 Q1052.21 51.7138 1057.31 47.825 Q1062.46 43.9361 1072.63 43.9361 L1083.08 43.9361 L1083.08 43.2069 Q1083.08 38.0623 1079.67 35.2672 Q1076.31 32.4315 1070.2 32.4315 Q1066.31 32.4315 1062.62 33.3632 Q1058.93 34.295 1055.53 36.1584 L1055.53 29.2718 Q1059.62 27.692 1063.47 26.9223 Q1067.32 26.1121 1070.97 26.1121 Q1080.81 26.1121 1085.67 31.2163 Q1090.53 36.3204 1090.53 46.6907 Z" fill="#000000" fill-rule="nonzero" fill-opacity="1" /><path clip-path="url(#clip300)" d="M1132.58 12.096 L1170.82 12.096 L1170.82 18.9825 L1140.76 18.9825 L1140.76 36.8875 L1169.56 36.8875 L1169.56 43.7741 L1140.76 43.7741 L1140.76 65.6895 L1171.55 65.6895 L1171.55 72.576 L1132.58 72.576 L1132.58 12.096 Z" fill="#000000" fill-rule="nonzero" fill-opacity="1" /><path clip-path="url(#clip300)" d="M1184.67 9.54393 L1192.13 9.54393 L1192.13 72.576 L1184.67 72.576 L1184.67 9.54393 Z" fill="#000000" fill-rule="nonzero" fill-opacity="1" /><path clip-path="url(#clip300)" d="M1246.53 48.0275 L1246.53 51.6733 L1212.26 51.6733 Q1212.75 59.3701 1216.88 63.421 Q1221.05 67.4314 1228.46 67.4314 Q1232.76 67.4314 1236.77 66.3781 Q1240.82 65.3249 1244.79 63.2184 L1244.79 70.267 Q1240.78 71.9684 1236.57 72.8596 Q1232.35 73.7508 1228.02 73.7508 Q1217.16 73.7508 1210.8 67.4314 Q1204.48 61.1119 1204.48 50.3365 Q1204.48 39.1965 1210.48 32.6746 Q1216.51 26.1121 1226.72 26.1121 Q1235.88 26.1121 1241.18 32.0264 Q1246.53 37.9003 1246.53 48.0275 M1239.08 45.84 Q1239 39.7232 1235.63 36.0774 Q1232.31 32.4315 1226.8 32.4315 Q1220.56 32.4315 1216.8 35.9558 Q1213.07 39.4801 1212.5 45.8805 L1239.08 45.84 Z" fill="#000000" fill-rule="nonzero" fill-opacity="1" /><path clip-path="url(#clip300)" d="M1294.09 35.9153 Q1296.88 30.8922 1300.77 28.5022 Q1304.66 26.1121 1309.93 26.1121 Q1317.02 26.1121 1320.87 31.0947 Q1324.71 36.0368 1324.71 45.1919 L1324.71 72.576 L1317.22 72.576 L1317.22 45.4349 Q1317.22 38.913 1314.91 35.7533 Q1312.6 32.5936 1307.86 32.5936 Q1302.07 32.5936 1298.71 36.4419 Q1295.34 40.2903 1295.34 46.9338 L1295.34 72.576 L1287.85 72.576 L1287.85 45.4349 Q1287.85 38.8725 1285.54 35.7533 Q1283.23 32.5936 1278.41 32.5936 Q1272.7 32.5936 1269.34 36.4824 Q1265.98 40.3308 1265.98 46.9338 L1265.98 72.576 L1258.48 72.576 L1258.48 27.2059 L1265.98 27.2059 L1265.98 34.2544 Q1268.53 30.082 1272.09 28.0971 Q1275.66 26.1121 1280.56 26.1121 Q1285.5 26.1121 1288.94 28.6237 Q1292.43 31.1352 1294.09 35.9153 Z" fill="#000000" fill-rule="nonzero" fill-opacity="1" /><path clip-path="url(#clip300)" d="M1378.39 48.0275 L1378.39 51.6733 L1344.12 51.6733 Q1344.6 59.3701 1348.74 63.421 Q1352.91 67.4314 1360.32 67.4314 Q1364.62 67.4314 1368.63 66.3781 Q1372.68 65.3249 1376.65 63.2184 L1376.65 70.267 Q1372.64 71.9684 1368.42 72.8596 Q1364.21 73.7508 1359.88 73.7508 Q1349.02 73.7508 1342.66 67.4314 Q1336.34 61.1119 1336.34 50.3365 Q1336.34 39.1965 1342.34 32.6746 Q1348.37 26.1121 1358.58 26.1121 Q1367.73 26.1121 1373.04 32.0264 Q1378.39 37.9003 1378.39 48.0275 M1370.93 45.84 Q1370.85 39.7232 1367.49 36.0774 Q1364.17 32.4315 1358.66 32.4315 Q1352.42 32.4315 1348.65 35.9558 Q1344.93 39.4801 1344.36 45.8805 L1370.93 45.84 Z" fill="#000000" fill-rule="nonzero" fill-opacity="1" /><path clip-path="url(#clip300)" d="M1428.34 45.1919 L1428.34 72.576 L1420.88 72.576 L1420.88 45.4349 Q1420.88 38.994 1418.37 35.7938 Q1415.86 32.5936 1410.84 32.5936 Q1404.8 32.5936 1401.32 36.4419 Q1397.83 40.2903 1397.83 46.9338 L1397.83 72.576 L1390.34 72.576 L1390.34 27.2059 L1397.83 27.2059 L1397.83 34.2544 Q1400.51 30.163 1404.11 28.1376 Q1407.76 26.1121 1412.5 26.1121 Q1420.31 26.1121 1424.33 30.9732 Q1428.34 35.7938 1428.34 45.1919 Z" fill="#000000" fill-rule="nonzero" fill-opacity="1" /><path clip-path="url(#clip300)" d="M1450.58 14.324 L1450.58 27.2059 L1465.93 27.2059 L1465.93 32.9987 L1450.58 32.9987 L1450.58 57.6282 Q1450.58 63.1779 1452.07 64.7578 Q1453.61 66.3376 1458.27 66.3376 L1465.93 66.3376 L1465.93 72.576 L1458.27 72.576 Q1449.64 72.576 1446.36 69.3758 Q1443.08 66.1351 1443.08 57.6282 L1443.08 32.9987 L1437.61 32.9987 L1437.61 27.2059 L1443.08 27.2059 L1443.08 14.324 L1450.58 14.324 Z" fill="#000000" fill-rule="nonzero" fill-opacity="1" /><path clip-path="url(#clip300)" d="M1497.04 12.096 L1505.3 12.096 L1518.02 63.2184 L1530.7 12.096 L1539.9 12.096 L1552.62 63.2184 L1565.3 12.096 L1573.6 12.096 L1558.41 72.576 L1548.12 72.576 L1535.36 20.0763 L1522.48 72.576 L1512.19 72.576 L1497.04 12.096 Z" fill="#000000" fill-rule="nonzero" fill-opacity="1" /><path clip-path="url(#clip300)" d="M1618.08 48.0275 L1618.08 51.6733 L1583.81 51.6733 Q1584.3 59.3701 1588.43 63.421 Q1592.6 67.4314 1600.01 67.4314 Q1604.31 67.4314 1608.32 66.3781 Q1612.37 65.3249 1616.34 63.2184 L1616.34 70.267 Q1612.33 71.9684 1608.11 72.8596 Q1603.9 73.7508 1599.57 73.7508 Q1588.71 73.7508 1582.35 67.4314 Q1576.03 61.1119 1576.03 50.3365 Q1576.03 39.1965 1582.03 32.6746 Q1588.06 26.1121 1598.27 26.1121 Q1607.43 26.1121 1612.73 32.0264 Q1618.08 37.9003 1618.08 48.0275 M1610.63 45.84 Q1610.55 39.7232 1607.18 36.0774 Q1603.86 32.4315 1598.35 32.4315 Q1592.11 32.4315 1588.35 35.9558 Q1584.62 39.4801 1584.05 45.8805 L1610.63 45.84 Z" fill="#000000" fill-rule="nonzero" fill-opacity="1" /><path clip-path="url(#clip300)" d="M1630.31 27.2059 L1637.77 27.2059 L1637.77 72.576 L1630.31 72.576 L1630.31 27.2059 M1630.31 9.54393 L1637.77 9.54393 L1637.77 18.9825 L1630.31 18.9825 L1630.31 9.54393 Z" fill="#000000" fill-rule="nonzero" fill-opacity="1" /><path clip-path="url(#clip300)" d="M1683.22 49.3643 Q1683.22 41.2625 1679.86 36.8065 Q1676.53 32.3505 1670.5 32.3505 Q1664.5 32.3505 1661.14 36.8065 Q1657.82 41.2625 1657.82 49.3643 Q1657.82 57.4256 1661.14 61.8816 Q1664.5 66.3376 1670.5 66.3376 Q1676.53 66.3376 1679.86 61.8816 Q1683.22 57.4256 1683.22 49.3643 M1690.67 66.9452 Q1690.67 78.5308 1685.53 84.1616 Q1680.38 89.8329 1669.77 89.8329 Q1665.84 89.8329 1662.36 89.2252 Q1658.87 88.6581 1655.59 87.4428 L1655.59 80.1917 Q1658.87 81.9741 1662.07 82.8248 Q1665.27 83.6755 1668.59 83.6755 Q1675.93 83.6755 1679.57 79.8271 Q1683.22 76.0193 1683.22 68.282 L1683.22 64.5957 Q1680.91 68.6061 1677.3 70.5911 Q1673.7 72.576 1668.68 72.576 Q1660.33 72.576 1655.23 66.2161 Q1650.12 59.8562 1650.12 49.3643 Q1650.12 38.832 1655.23 32.472 Q1660.33 26.1121 1668.68 26.1121 Q1673.7 26.1121 1677.3 28.0971 Q1680.91 30.082 1683.22 34.0924 L1683.22 27.2059 L1690.67 27.2059 L1690.67 66.9452 Z" fill="#000000" fill-rule="nonzero" fill-opacity="1" /><path clip-path="url(#clip300)" d="M1743.74 45.1919 L1743.74 72.576 L1736.29 72.576 L1736.29 45.4349 Q1736.29 38.994 1733.77 35.7938 Q1731.26 32.5936 1726.24 32.5936 Q1720.2 32.5936 1716.72 36.4419 Q1713.24 40.2903 1713.24 46.9338 L1713.24 72.576 L1705.74 72.576 L1705.74 9.54393 L1713.24 9.54393 L1713.24 34.2544 Q1715.91 30.163 1719.51 28.1376 Q1723.16 26.1121 1727.9 26.1121 Q1735.72 26.1121 1739.73 30.9732 Q1743.74 35.7938 1743.74 45.1919 Z" fill="#000000" fill-rule="nonzero" fill-opacity="1" /><path clip-path="url(#clip300)" d="M1765.98 14.324 L1765.98 27.2059 L1781.33 27.2059 L1781.33 32.9987 L1765.98 32.9987 L1765.98 57.6282 Q1765.98 63.1779 1767.48 64.7578 Q1769.02 66.3376 1773.68 66.3376 L1781.33 66.3376 L1781.33 72.576 L1773.68 72.576 Q1765.05 72.576 1761.77 69.3758 Q1758.48 66.1351 1758.48 57.6282 L1758.48 32.9987 L1753.02 32.9987 L1753.02 27.2059 L1758.48 27.2059 L1758.48 14.324 L1765.98 14.324 Z" fill="#000000" fill-rule="nonzero" fill-opacity="1" /><path clip-path="url(#clip300)" d="M1820.06 28.5427 L1820.06 35.5912 Q1816.9 33.9709 1813.5 33.1607 Q1810.09 32.3505 1806.45 32.3505 Q1800.9 32.3505 1798.1 34.0519 Q1795.35 35.7533 1795.35 39.156 Q1795.35 41.7486 1797.33 43.2475 Q1799.32 44.7058 1805.31 46.0426 L1807.87 46.6097 Q1815.8 48.3111 1819.13 51.4303 Q1822.49 54.509 1822.49 60.0587 Q1822.49 66.3781 1817.47 70.0644 Q1812.48 73.7508 1803.73 73.7508 Q1800.09 73.7508 1796.12 73.0216 Q1792.19 72.3329 1787.81 70.9151 L1787.81 63.2184 Q1791.94 65.3654 1795.96 66.4591 Q1799.97 67.5124 1803.9 67.5124 Q1809.16 67.5124 1812 65.73 Q1814.83 63.9071 1814.83 60.6258 Q1814.83 57.5877 1812.77 55.9673 Q1810.74 54.3469 1803.81 52.8481 L1801.22 52.2405 Q1794.29 50.7821 1791.22 47.7845 Q1788.14 44.7463 1788.14 39.4801 Q1788.14 33.0797 1792.67 29.5959 Q1797.21 26.1121 1805.56 26.1121 Q1809.69 26.1121 1813.33 26.7198 Q1816.98 27.3274 1820.06 28.5427 Z" fill="#000000" fill-rule="nonzero" fill-opacity="1" /><circle clip-path="url(#clip302)" cx="279.916" cy="750.036" r="14.4" fill="#009af9" fill-rule="evenodd" fill-opacity="1" stroke="#000000" stroke-opacity="1" stroke-width="3.2"/>
<circle clip-path="url(#clip302)" cx="344.834" cy="750.036" r="14.4" fill="#009af9" fill-rule="evenodd" fill-opacity="1" stroke="#000000" stroke-opacity="1" stroke-width="3.2"/>
<circle clip-path="url(#clip302)" cx="409.753" cy="750.036" r="14.4" fill="#009af9" fill-rule="evenodd" fill-opacity="1" stroke="#000000" stroke-opacity="1" stroke-width="3.2"/>
<circle clip-path="url(#clip302)" cx="474.671" cy="750.036" r="14.4" fill="#009af9" fill-rule="evenodd" fill-opacity="1" stroke="#000000" stroke-opacity="1" stroke-width="3.2"/>
<circle clip-path="url(#clip302)" cx="539.589" cy="750.036" r="14.4" fill="#009af9" fill-rule="evenodd" fill-opacity="1" stroke="#000000" stroke-opacity="1" stroke-width="3.2"/>
<circle clip-path="url(#clip302)" cx="604.507" cy="750.036" r="14.4" fill="#009af9" fill-rule="evenodd" fill-opacity="1" stroke="#000000" stroke-opacity="1" stroke-width="3.2"/>
<circle clip-path="url(#clip302)" cx="669.426" cy="750.036" r="14.4" fill="#009af9" fill-rule="evenodd" fill-opacity="1" stroke="#000000" stroke-opacity="1" stroke-width="3.2"/>
<circle clip-path="url(#clip302)" cx="734.344" cy="750.036" r="14.4" fill="#009af9" fill-rule="evenodd" fill-opacity="1" stroke="#000000" stroke-opacity="1" stroke-width="3.2"/>
<circle clip-path="url(#clip302)" cx="799.262" cy="750.036" r="14.4" fill="#009af9" fill-rule="evenodd" fill-opacity="1" stroke="#000000" stroke-opacity="1" stroke-width="3.2"/>
<circle clip-path="url(#clip302)" cx="864.18" cy="750.036" r="14.4" fill="#009af9" fill-rule="evenodd" fill-opacity="1" stroke="#000000" stroke-opacity="1" stroke-width="3.2"/>
<circle clip-path="url(#clip302)" cx="929.099" cy="750.036" r="14.4" fill="#009af9" fill-rule="evenodd" fill-opacity="1" stroke="#000000" stroke-opacity="1" stroke-width="3.2"/>
<circle clip-path="url(#clip302)" cx="994.017" cy="750.036" r="14.4" fill="#009af9" fill-rule="evenodd" fill-opacity="1" stroke="#000000" stroke-opacity="1" stroke-width="3.2"/>
<circle clip-path="url(#clip302)" cx="1058.94" cy="750.036" r="14.4" fill="#009af9" fill-rule="evenodd" fill-opacity="1" stroke="#000000" stroke-opacity="1" stroke-width="3.2"/>
<circle clip-path="url(#clip302)" cx="1123.85" cy="750.036" r="14.4" fill="#009af9" fill-rule="evenodd" fill-opacity="1" stroke="#000000" stroke-opacity="1" stroke-width="3.2"/>
<circle clip-path="url(#clip302)" cx="1188.77" cy="750.036" r="14.4" fill="#009af9" fill-rule="evenodd" fill-opacity="1" stroke="#000000" stroke-opacity="1" stroke-width="3.2"/>
<circle clip-path="url(#clip302)" cx="1253.69" cy="750.036" r="14.4" fill="#009af9" fill-rule="evenodd" fill-opacity="1" stroke="#000000" stroke-opacity="1" stroke-width="3.2"/>
<circle clip-path="url(#clip302)" cx="1318.61" cy="750.036" r="14.4" fill="#009af9" fill-rule="evenodd" fill-opacity="1" stroke="#000000" stroke-opacity="1" stroke-width="3.2"/>
<circle clip-path="url(#clip302)" cx="1383.53" cy="750.036" r="14.4" fill="#009af9" fill-rule="evenodd" fill-opacity="1" stroke="#000000" stroke-opacity="1" stroke-width="3.2"/>
<circle clip-path="url(#clip302)" cx="1448.44" cy="750.036" r="14.4" fill="#009af9" fill-rule="evenodd" fill-opacity="1" stroke="#000000" stroke-opacity="1" stroke-width="3.2"/>
<circle clip-path="url(#clip302)" cx="1513.36" cy="750.036" r="14.4" fill="#009af9" fill-rule="evenodd" fill-opacity="1" stroke="#000000" stroke-opacity="1" stroke-width="3.2"/>
<circle clip-path="url(#clip302)" cx="1578.28" cy="750.036" r="14.4" fill="#009af9" fill-rule="evenodd" fill-opacity="1" stroke="#000000" stroke-opacity="1" stroke-width="3.2"/>
<circle clip-path="url(#clip302)" cx="1643.2" cy="750.036" r="14.4" fill="#009af9" fill-rule="evenodd" fill-opacity="1" stroke="#000000" stroke-opacity="1" stroke-width="3.2"/>
<circle clip-path="url(#clip302)" cx="1708.12" cy="750.036" r="14.4" fill="#009af9" fill-rule="evenodd" fill-opacity="1" stroke="#000000" stroke-opacity="1" stroke-width="3.2"/>
<circle clip-path="url(#clip302)" cx="1773.04" cy="750.036" r="14.4" fill="#009af9" fill-rule="evenodd" fill-opacity="1" stroke="#000000" stroke-opacity="1" stroke-width="3.2"/>
<circle clip-path="url(#clip302)" cx="1837.95" cy="750.036" r="14.4" fill="#009af9" fill-rule="evenodd" fill-opacity="1" stroke="#000000" stroke-opacity="1" stroke-width="3.2"/>
<circle clip-path="url(#clip302)" cx="1902.87" cy="750.036" r="14.4" fill="#009af9" fill-rule="evenodd" fill-opacity="1" stroke="#000000" stroke-opacity="1" stroke-width="3.2"/>
<circle clip-path="url(#clip302)" cx="1967.79" cy="750.036" r="14.4" fill="#009af9" fill-rule="evenodd" fill-opacity="1" stroke="#000000" stroke-opacity="1" stroke-width="3.2"/>
<circle clip-path="url(#clip302)" cx="2032.71" cy="750.036" r="14.4" fill="#009af9" fill-rule="evenodd" fill-opacity="1" stroke="#000000" stroke-opacity="1" stroke-width="3.2"/>
<circle clip-path="url(#clip302)" cx="2097.63" cy="750.036" r="14.4" fill="#009af9" fill-rule="evenodd" fill-opacity="1" stroke="#000000" stroke-opacity="1" stroke-width="3.2"/>
<circle clip-path="url(#clip302)" cx="2162.55" cy="750.036" r="14.4" fill="#009af9" fill-rule="evenodd" fill-opacity="1" stroke="#000000" stroke-opacity="1" stroke-width="3.2"/>
<circle clip-path="url(#clip302)" cx="2227.46" cy="750.036" r="14.4" fill="#009af9" fill-rule="evenodd" fill-opacity="1" stroke="#000000" stroke-opacity="1" stroke-width="3.2"/>
<circle clip-path="url(#clip302)" cx="2292.38" cy="750.036" r="14.4" fill="#009af9" fill-rule="evenodd" fill-opacity="1" stroke="#000000" stroke-opacity="1" stroke-width="3.2"/>
<circle clip-path="url(#clip302)" cx="279.916" cy="1386.4" r="14.4" fill="#e26f46" fill-rule="evenodd" fill-opacity="1" stroke="#000000" stroke-opacity="1" stroke-width="3.2"/>
<circle clip-path="url(#clip302)" cx="344.834" cy="1361.05" r="14.4" fill="#e26f46" fill-rule="evenodd" fill-opacity="1" stroke="#000000" stroke-opacity="1" stroke-width="3.2"/>
<circle clip-path="url(#clip302)" cx="409.753" cy="1311.16" r="14.4" fill="#e26f46" fill-rule="evenodd" fill-opacity="1" stroke="#000000" stroke-opacity="1" stroke-width="3.2"/>
<circle clip-path="url(#clip302)" cx="474.671" cy="1238.37" r="14.4" fill="#e26f46" fill-rule="evenodd" fill-opacity="1" stroke="#000000" stroke-opacity="1" stroke-width="3.2"/>
<circle clip-path="url(#clip302)" cx="539.589" cy="1145.43" r="14.4" fill="#e26f46" fill-rule="evenodd" fill-opacity="1" stroke="#000000" stroke-opacity="1" stroke-width="3.2"/>
<circle clip-path="url(#clip302)" cx="604.507" cy="1036.19" r="14.4" fill="#e26f46" fill-rule="evenodd" fill-opacity="1" stroke="#000000" stroke-opacity="1" stroke-width="3.2"/>
<circle clip-path="url(#clip302)" cx="669.426" cy="915.615" r="14.4" fill="#e26f46" fill-rule="evenodd" fill-opacity="1" stroke="#000000" stroke-opacity="1" stroke-width="3.2"/>
<circle clip-path="url(#clip302)" cx="734.344" cy="789.502" r="14.4" fill="#e26f46" fill-rule="evenodd" fill-opacity="1" stroke="#000000" stroke-opacity="1" stroke-width="3.2"/>
<circle clip-path="url(#clip302)" cx="799.262" cy="663.989" r="14.4" fill="#e26f46" fill-rule="evenodd" fill-opacity="1" stroke="#000000" stroke-opacity="1" stroke-width="3.2"/>
<circle clip-path="url(#clip302)" cx="864.18" cy="544.968" r="14.4" fill="#e26f46" fill-rule="evenodd" fill-opacity="1" stroke="#000000" stroke-opacity="1" stroke-width="3.2"/>
<circle clip-path="url(#clip302)" cx="929.099" cy="437.501" r="14.4" fill="#e26f46" fill-rule="evenodd" fill-opacity="1" stroke="#000000" stroke-opacity="1" stroke-width="3.2"/>
<circle clip-path="url(#clip302)" cx="994.017" cy="345.381" r="14.4" fill="#e26f46" fill-rule="evenodd" fill-opacity="1" stroke="#000000" stroke-opacity="1" stroke-width="3.2"/>
<circle clip-path="url(#clip302)" cx="1058.94" cy="270.965" r="14.4" fill="#e26f46" fill-rule="evenodd" fill-opacity="1" stroke="#000000" stroke-opacity="1" stroke-width="3.2"/>
<circle clip-path="url(#clip302)" cx="1123.85" cy="215.302" r="14.4" fill="#e26f46" fill-rule="evenodd" fill-opacity="1" stroke="#000000" stroke-opacity="1" stroke-width="3.2"/>
<circle clip-path="url(#clip302)" cx="1188.77" cy="178.506" r="14.4" fill="#e26f46" fill-rule="evenodd" fill-opacity="1" stroke="#000000" stroke-opacity="1" stroke-width="3.2"/>
<circle clip-path="url(#clip302)" cx="1253.69" cy="160.256" r="14.4" fill="#e26f46" fill-rule="evenodd" fill-opacity="1" stroke="#000000" stroke-opacity="1" stroke-width="3.2"/>
<circle clip-path="url(#clip302)" cx="1318.61" cy="160.256" r="14.4" fill="#e26f46" fill-rule="evenodd" fill-opacity="1" stroke="#000000" stroke-opacity="1" stroke-width="3.2"/>
<circle clip-path="url(#clip302)" cx="1383.53" cy="178.506" r="14.4" fill="#e26f46" fill-rule="evenodd" fill-opacity="1" stroke="#000000" stroke-opacity="1" stroke-width="3.2"/>
<circle clip-path="url(#clip302)" cx="1448.44" cy="215.302" r="14.4" fill="#e26f46" fill-rule="evenodd" fill-opacity="1" stroke="#000000" stroke-opacity="1" stroke-width="3.2"/>
<circle clip-path="url(#clip302)" cx="1513.36" cy="270.965" r="14.4" fill="#e26f46" fill-rule="evenodd" fill-opacity="1" stroke="#000000" stroke-opacity="1" stroke-width="3.2"/>
<circle clip-path="url(#clip302)" cx="1578.28" cy="345.381" r="14.4" fill="#e26f46" fill-rule="evenodd" fill-opacity="1" stroke="#000000" stroke-opacity="1" stroke-width="3.2"/>
<circle clip-path="url(#clip302)" cx="1643.2" cy="437.501" r="14.4" fill="#e26f46" fill-rule="evenodd" fill-opacity="1" stroke="#000000" stroke-opacity="1" stroke-width="3.2"/>
<circle clip-path="url(#clip302)" cx="1708.12" cy="544.968" r="14.4" fill="#e26f46" fill-rule="evenodd" fill-opacity="1" stroke="#000000" stroke-opacity="1" stroke-width="3.2"/>
<circle clip-path="url(#clip302)" cx="1773.04" cy="663.989" r="14.4" fill="#e26f46" fill-rule="evenodd" fill-opacity="1" stroke="#000000" stroke-opacity="1" stroke-width="3.2"/>
<circle clip-path="url(#clip302)" cx="1837.95" cy="789.502" r="14.4" fill="#e26f46" fill-rule="evenodd" fill-opacity="1" stroke="#000000" stroke-opacity="1" stroke-width="3.2"/>
<circle clip-path="url(#clip302)" cx="1902.87" cy="915.615" r="14.4" fill="#e26f46" fill-rule="evenodd" fill-opacity="1" stroke="#000000" stroke-opacity="1" stroke-width="3.2"/>
<circle clip-path="url(#clip302)" cx="1967.79" cy="1036.19" r="14.4" fill="#e26f46" fill-rule="evenodd" fill-opacity="1" stroke="#000000" stroke-opacity="1" stroke-width="3.2"/>
<circle clip-path="url(#clip302)" cx="2032.71" cy="1145.43" r="14.4" fill="#e26f46" fill-rule="evenodd" fill-opacity="1" stroke="#000000" stroke-opacity="1" stroke-width="3.2"/>
<circle clip-path="url(#clip302)" cx="2097.63" cy="1238.37" r="14.4" fill="#e26f46" fill-rule="evenodd" fill-opacity="1" stroke="#000000" stroke-opacity="1" stroke-width="3.2"/>
<circle clip-path="url(#clip302)" cx="2162.55" cy="1311.16" r="14.4" fill="#e26f46" fill-rule="evenodd" fill-opacity="1" stroke="#000000" stroke-opacity="1" stroke-width="3.2"/>
<circle clip-path="url(#clip302)" cx="2227.46" cy="1361.05" r="14.4" fill="#e26f46" fill-rule="evenodd" fill-opacity="1" stroke="#000000" stroke-opacity="1" stroke-width="3.2"/>
<circle clip-path="url(#clip302)" cx="2292.38" cy="1386.4" r="14.4" fill="#e26f46" fill-rule="evenodd" fill-opacity="1" stroke="#000000" stroke-opacity="1" stroke-width="3.2"/>
</svg>
