<?xml version="1.0" encoding="utf-8"?>
<svg xmlns="http://www.w3.org/2000/svg" xmlns:xlink="http://www.w3.org/1999/xlink" width="600" height="400" viewBox="0 0 2400 1600">
<defs>
  <clipPath id="clip710">
    <rect x="0" y="0" width="2400" height="1600"/>
  </clipPath>
</defs>
<path clip-path="url(#clip710)" d="M0 1600 L2400 1600 L2400 0 L0 0  Z" fill="#ffffff" fill-rule="evenodd" fill-opacity="1"/>
<defs>
  <clipPath id="clip711">
    <rect x="480" y="0" width="1681" height="1600"/>
  </clipPath>
</defs>
<path clip-path="url(#clip710)" d="M242.135 1423.18 L2352.76 1423.18 L2352.76 123.472 L242.135 123.472  Z" fill="#ffffff" fill-rule="evenodd" fill-opacity="1"/>
<defs>
  <clipPath id="clip712">
    <rect x="242" y="123" width="2112" height="1301"/>
  </clipPath>
</defs>
<polyline clip-path="url(#clip712)" style="stroke:#000000; stroke-linecap:round; stroke-linejoin:round; stroke-width:2; stroke-opacity:0.1; fill:none" points="467.799,1423.18 467.799,123.472 "/>
<polyline clip-path="url(#clip712)" style="stroke:#000000; stroke-linecap:round; stroke-linejoin:round; stroke-width:2; stroke-opacity:0.1; fill:none" points="744.347,1423.18 744.347,123.472 "/>
<polyline clip-path="url(#clip712)" style="stroke:#000000; stroke-linecap:round; stroke-linejoin:round; stroke-width:2; stroke-opacity:0.1; fill:none" points="1020.9,1423.18 1020.9,123.472 "/>
<polyline clip-path="url(#clip712)" style="stroke:#000000; stroke-linecap:round; stroke-linejoin:round; stroke-width:2; stroke-opacity:0.1; fill:none" points="1297.45,1423.18 1297.45,123.472 "/>
<polyline clip-path="url(#clip712)" style="stroke:#000000; stroke-linecap:round; stroke-linejoin:round; stroke-width:2; stroke-opacity:0.1; fill:none" points="1573.99,1423.18 1573.99,123.472 "/>
<polyline clip-path="url(#clip712)" style="stroke:#000000; stroke-linecap:round; stroke-linejoin:round; stroke-width:2; stroke-opacity:0.1; fill:none" points="1850.54,1423.18 1850.54,123.472 "/>
<polyline clip-path="url(#clip712)" style="stroke:#000000; stroke-linecap:round; stroke-linejoin:round; stroke-width:2; stroke-opacity:0.1; fill:none" points="2127.09,1423.18 2127.09,123.472 "/>
<polyline clip-path="url(#clip712)" style="stroke:#000000; stroke-linecap:round; stroke-linejoin:round; stroke-width:2; stroke-opacity:0.1; fill:none" points="242.135,1423.18 2352.76,1423.18 "/>
<polyline clip-path="url(#clip712)" style="stroke:#000000; stroke-linecap:round; stroke-linejoin:round; stroke-width:2; stroke-opacity:0.1; fill:none" points="242.135,1163.24 2352.76,1163.24 "/>
<polyline clip-path="url(#clip712)" style="stroke:#000000; stroke-linecap:round; stroke-linejoin:round; stroke-width:2; stroke-opacity:0.1; fill:none" points="242.135,903.297 2352.76,903.297 "/>
<polyline clip-path="url(#clip712)" style="stroke:#000000; stroke-linecap:round; stroke-linejoin:round; stroke-width:2; stroke-opacity:0.1; fill:none" points="242.135,643.355 2352.76,643.355 "/>
<polyline clip-path="url(#clip712)" style="stroke:#000000; stroke-linecap:round; stroke-linejoin:round; stroke-width:2; stroke-opacity:0.1; fill:none" points="242.135,383.414 2352.76,383.414 "/>
<polyline clip-path="url(#clip712)" style="stroke:#000000; stroke-linecap:round; stroke-linejoin:round; stroke-width:2; stroke-opacity:0.1; fill:none" points="242.135,123.472 2352.76,123.472 "/>
<polyline clip-path="url(#clip710)" style="stroke:#000000; stroke-linecap:round; stroke-linejoin:round; stroke-width:4; stroke-opacity:1; fill:none" points="242.135,1423.18 2352.76,1423.18 "/>
<polyline clip-path="url(#clip710)" style="stroke:#000000; stroke-linecap:round; stroke-linejoin:round; stroke-width:4; stroke-opacity:1; fill:none" points="467.799,1423.18 467.799,1404.28 "/>
<polyline clip-path="url(#clip710)" style="stroke:#000000; stroke-linecap:round; stroke-linejoin:round; stroke-width:4; stroke-opacity:1; fill:none" points="744.347,1423.18 744.347,1404.28 "/>
<polyline clip-path="url(#clip710)" style="stroke:#000000; stroke-linecap:round; stroke-linejoin:round; stroke-width:4; stroke-opacity:1; fill:none" points="1020.9,1423.18 1020.9,1404.28 "/>
<polyline clip-path="url(#clip710)" style="stroke:#000000; stroke-linecap:round; stroke-linejoin:round; stroke-width:4; stroke-opacity:1; fill:none" points="1297.45,1423.18 1297.45,1404.28 "/>
<polyline clip-path="url(#clip710)" style="stroke:#000000; stroke-linecap:round; stroke-linejoin:round; stroke-width:4; stroke-opacity:1; fill:none" points="1573.99,1423.18 1573.99,1404.28 "/>
<polyline clip-path="url(#clip710)" style="stroke:#000000; stroke-linecap:round; stroke-linejoin:round; stroke-width:4; stroke-opacity:1; fill:none" points="1850.54,1423.18 1850.54,1404.28 "/>
<polyline clip-path="url(#clip710)" style="stroke:#000000; stroke-linecap:round; stroke-linejoin:round; stroke-width:4; stroke-opacity:1; fill:none" points="2127.09,1423.18 2127.09,1404.28 "/>
<path clip-path="url(#clip710)" d="M422.359 1468.75 L452.035 1468.75 L452.035 1472.69 L422.359 1472.69 L422.359 1468.75 Z" fill="#000000" fill-rule="nonzero" fill-opacity="1" /><path clip-path="url(#clip710)" d="M460.947 1451.02 L483.169 1451.02 L483.169 1453.01 L470.623 1485.58 L465.738 1485.58 L477.544 1454.96 L460.947 1454.96 L460.947 1451.02 Z" fill="#000000" fill-rule="nonzero" fill-opacity="1" /><path clip-path="url(#clip710)" d="M492.335 1451.02 L510.692 1451.02 L510.692 1454.96 L496.618 1454.96 L496.618 1463.43 Q497.636 1463.08 498.655 1462.92 Q499.673 1462.73 500.692 1462.73 Q506.479 1462.73 509.859 1465.9 Q513.238 1469.08 513.238 1474.49 Q513.238 1480.07 509.766 1483.17 Q506.294 1486.25 499.974 1486.25 Q497.798 1486.25 495.53 1485.88 Q493.285 1485.51 490.877 1484.77 L490.877 1480.07 Q492.96 1481.2 495.183 1481.76 Q497.405 1482.32 499.882 1482.32 Q503.886 1482.32 506.224 1480.21 Q508.562 1478.1 508.562 1474.49 Q508.562 1470.88 506.224 1468.77 Q503.886 1466.67 499.882 1466.67 Q498.007 1466.67 496.132 1467.08 Q494.28 1467.5 492.335 1468.38 L492.335 1451.02 Z" fill="#000000" fill-rule="nonzero" fill-opacity="1" /><path clip-path="url(#clip710)" d="M698.41 1468.75 L728.086 1468.75 L728.086 1472.69 L698.41 1472.69 L698.41 1468.75 Z" fill="#000000" fill-rule="nonzero" fill-opacity="1" /><path clip-path="url(#clip710)" d="M738.225 1451.02 L756.581 1451.02 L756.581 1454.96 L742.507 1454.96 L742.507 1463.43 Q743.526 1463.08 744.544 1462.92 Q745.563 1462.73 746.581 1462.73 Q752.368 1462.73 755.748 1465.9 Q759.127 1469.08 759.127 1474.49 Q759.127 1480.07 755.655 1483.17 Q752.183 1486.25 745.864 1486.25 Q743.688 1486.25 741.419 1485.88 Q739.174 1485.51 736.766 1484.77 L736.766 1480.07 Q738.85 1481.2 741.072 1481.76 Q743.294 1482.32 745.771 1482.32 Q749.776 1482.32 752.114 1480.21 Q754.452 1478.1 754.452 1474.49 Q754.452 1470.88 752.114 1468.77 Q749.776 1466.67 745.771 1466.67 Q743.896 1466.67 742.021 1467.08 Q740.169 1467.5 738.225 1468.38 L738.225 1451.02 Z" fill="#000000" fill-rule="nonzero" fill-opacity="1" /><path clip-path="url(#clip710)" d="M778.34 1454.1 Q774.729 1454.1 772.901 1457.66 Q771.095 1461.2 771.095 1468.33 Q771.095 1475.44 772.901 1479.01 Q774.729 1482.55 778.34 1482.55 Q781.975 1482.55 783.78 1479.01 Q785.609 1475.44 785.609 1468.33 Q785.609 1461.2 783.78 1457.66 Q781.975 1454.1 778.34 1454.1 M778.34 1450.39 Q784.151 1450.39 787.206 1455 Q790.285 1459.58 790.285 1468.33 Q790.285 1477.06 787.206 1481.67 Q784.151 1486.25 778.34 1486.25 Q772.53 1486.25 769.452 1481.67 Q766.396 1477.06 766.396 1468.33 Q766.396 1459.58 769.452 1455 Q772.53 1450.39 778.34 1450.39 Z" fill="#000000" fill-rule="nonzero" fill-opacity="1" /><path clip-path="url(#clip710)" d="M975.457 1468.75 L1005.13 1468.75 L1005.13 1472.69 L975.457 1472.69 L975.457 1468.75 Z" fill="#000000" fill-rule="nonzero" fill-opacity="1" /><path clip-path="url(#clip710)" d="M1019.25 1481.64 L1035.57 1481.64 L1035.57 1485.58 L1013.63 1485.58 L1013.63 1481.64 Q1016.29 1478.89 1020.87 1474.26 Q1025.48 1469.61 1026.66 1468.27 Q1028.91 1465.74 1029.79 1464.01 Q1030.69 1462.25 1030.69 1460.56 Q1030.69 1457.8 1028.74 1456.07 Q1026.82 1454.33 1023.72 1454.33 Q1021.52 1454.33 1019.07 1455.09 Q1016.64 1455.86 1013.86 1457.41 L1013.86 1452.69 Q1016.68 1451.55 1019.14 1450.97 Q1021.59 1450.39 1023.63 1450.39 Q1029 1450.39 1032.19 1453.08 Q1035.39 1455.77 1035.39 1460.26 Q1035.39 1462.39 1034.58 1464.31 Q1033.79 1466.2 1031.68 1468.8 Q1031.1 1469.47 1028 1472.69 Q1024.9 1475.88 1019.25 1481.64 Z" fill="#000000" fill-rule="nonzero" fill-opacity="1" /><path clip-path="url(#clip710)" d="M1045.43 1451.02 L1063.79 1451.02 L1063.79 1454.96 L1049.72 1454.96 L1049.72 1463.43 Q1050.73 1463.08 1051.75 1462.92 Q1052.77 1462.73 1053.79 1462.73 Q1059.58 1462.73 1062.96 1465.9 Q1066.34 1469.08 1066.34 1474.49 Q1066.34 1480.07 1062.86 1483.17 Q1059.39 1486.25 1053.07 1486.25 Q1050.9 1486.25 1048.63 1485.88 Q1046.38 1485.51 1043.97 1484.77 L1043.97 1480.07 Q1046.06 1481.2 1048.28 1481.76 Q1050.5 1482.32 1052.98 1482.32 Q1056.98 1482.32 1059.32 1480.21 Q1061.66 1478.1 1061.66 1474.49 Q1061.66 1470.88 1059.32 1468.77 Q1056.98 1466.67 1052.98 1466.67 Q1051.1 1466.67 1049.23 1467.08 Q1047.38 1467.5 1045.43 1468.38 L1045.43 1451.02 Z" fill="#000000" fill-rule="nonzero" fill-opacity="1" /><path clip-path="url(#clip710)" d="M1297.45 1454.1 Q1293.83 1454.1 1292.01 1457.66 Q1290.2 1461.2 1290.2 1468.33 Q1290.2 1475.44 1292.01 1479.01 Q1293.83 1482.55 1297.45 1482.55 Q1301.08 1482.55 1302.89 1479.01 Q1304.71 1475.44 1304.71 1468.33 Q1304.71 1461.2 1302.89 1457.66 Q1301.08 1454.1 1297.45 1454.1 M1297.45 1450.39 Q1303.26 1450.39 1306.31 1455 Q1309.39 1459.58 1309.39 1468.33 Q1309.39 1477.06 1306.31 1481.67 Q1303.26 1486.25 1297.45 1486.25 Q1291.64 1486.25 1288.56 1481.67 Q1285.5 1477.06 1285.5 1468.33 Q1285.5 1459.58 1288.56 1455 Q1291.64 1450.39 1297.45 1450.39 Z" fill="#000000" fill-rule="nonzero" fill-opacity="1" /><path clip-path="url(#clip710)" d="M1553.27 1481.64 L1569.58 1481.64 L1569.58 1485.58 L1547.64 1485.58 L1547.64 1481.64 Q1550.3 1478.89 1554.89 1474.26 Q1559.49 1469.61 1560.67 1468.27 Q1562.92 1465.74 1563.8 1464.01 Q1564.7 1462.25 1564.7 1460.56 Q1564.7 1457.8 1562.76 1456.07 Q1560.83 1454.33 1557.73 1454.33 Q1555.53 1454.33 1553.08 1455.09 Q1550.65 1455.86 1547.87 1457.41 L1547.87 1452.69 Q1550.7 1451.55 1553.15 1450.97 Q1555.6 1450.39 1557.64 1450.39 Q1563.01 1450.39 1566.2 1453.08 Q1569.4 1455.77 1569.4 1460.26 Q1569.4 1462.39 1568.59 1464.31 Q1567.8 1466.2 1565.7 1468.8 Q1565.12 1469.47 1562.02 1472.69 Q1558.91 1475.88 1553.27 1481.64 Z" fill="#000000" fill-rule="nonzero" fill-opacity="1" /><path clip-path="url(#clip710)" d="M1579.45 1451.02 L1597.8 1451.02 L1597.8 1454.96 L1583.73 1454.96 L1583.73 1463.43 Q1584.75 1463.08 1585.76 1462.92 Q1586.78 1462.73 1587.8 1462.73 Q1593.59 1462.73 1596.97 1465.9 Q1600.35 1469.08 1600.35 1474.49 Q1600.35 1480.07 1596.88 1483.17 Q1593.4 1486.25 1587.08 1486.25 Q1584.91 1486.25 1582.64 1485.88 Q1580.39 1485.51 1577.99 1484.77 L1577.99 1480.07 Q1580.07 1481.2 1582.29 1481.76 Q1584.51 1482.32 1586.99 1482.32 Q1591 1482.32 1593.33 1480.21 Q1595.67 1478.1 1595.67 1474.49 Q1595.67 1470.88 1593.33 1468.77 Q1591 1466.67 1586.99 1466.67 Q1585.12 1466.67 1583.24 1467.08 Q1581.39 1467.5 1579.45 1468.38 L1579.45 1451.02 Z" fill="#000000" fill-rule="nonzero" fill-opacity="1" /><path clip-path="url(#clip710)" d="M1825.24 1451.02 L1843.6 1451.02 L1843.6 1454.96 L1829.52 1454.96 L1829.52 1463.43 Q1830.54 1463.08 1831.56 1462.92 Q1832.58 1462.73 1833.6 1462.73 Q1839.39 1462.73 1842.77 1465.9 Q1846.14 1469.08 1846.14 1474.49 Q1846.14 1480.07 1842.67 1483.17 Q1839.2 1486.25 1832.88 1486.25 Q1830.71 1486.25 1828.44 1485.88 Q1826.19 1485.51 1823.78 1484.77 L1823.78 1480.07 Q1825.87 1481.2 1828.09 1481.76 Q1830.31 1482.32 1832.79 1482.32 Q1836.79 1482.32 1839.13 1480.21 Q1841.47 1478.1 1841.47 1474.49 Q1841.47 1470.88 1839.13 1468.77 Q1836.79 1466.67 1832.79 1466.67 Q1830.91 1466.67 1829.04 1467.08 Q1827.19 1467.5 1825.24 1468.38 L1825.24 1451.02 Z" fill="#000000" fill-rule="nonzero" fill-opacity="1" /><path clip-path="url(#clip710)" d="M1865.36 1454.1 Q1861.75 1454.1 1859.92 1457.66 Q1858.11 1461.2 1858.11 1468.33 Q1858.11 1475.44 1859.92 1479.01 Q1861.75 1482.55 1865.36 1482.55 Q1868.99 1482.55 1870.8 1479.01 Q1872.63 1475.44 1872.63 1468.33 Q1872.63 1461.2 1870.8 1457.66 Q1868.99 1454.1 1865.36 1454.1 M1865.36 1450.39 Q1871.17 1450.39 1874.22 1455 Q1877.3 1459.58 1877.3 1468.33 Q1877.3 1477.06 1874.22 1481.67 Q1871.17 1486.25 1865.36 1486.25 Q1859.55 1486.25 1856.47 1481.67 Q1853.41 1477.06 1853.41 1468.33 Q1853.41 1459.58 1856.47 1455 Q1859.55 1450.39 1865.36 1450.39 Z" fill="#000000" fill-rule="nonzero" fill-opacity="1" /><path clip-path="url(#clip710)" d="M2100.95 1451.02 L2123.17 1451.02 L2123.17 1453.01 L2110.62 1485.58 L2105.74 1485.58 L2117.54 1454.96 L2100.95 1454.96 L2100.95 1451.02 Z" fill="#000000" fill-rule="nonzero" fill-opacity="1" /><path clip-path="url(#clip710)" d="M2132.34 1451.02 L2150.69 1451.02 L2150.69 1454.96 L2136.62 1454.96 L2136.62 1463.43 Q2137.64 1463.08 2138.65 1462.92 Q2139.67 1462.73 2140.69 1462.73 Q2146.48 1462.73 2149.86 1465.9 Q2153.24 1469.08 2153.24 1474.49 Q2153.24 1480.07 2149.77 1483.17 Q2146.29 1486.25 2139.97 1486.25 Q2137.8 1486.25 2135.53 1485.88 Q2133.28 1485.51 2130.88 1484.77 L2130.88 1480.07 Q2132.96 1481.2 2135.18 1481.76 Q2137.4 1482.32 2139.88 1482.32 Q2143.89 1482.32 2146.22 1480.21 Q2148.56 1478.1 2148.56 1474.49 Q2148.56 1470.88 2146.22 1468.77 Q2143.89 1466.67 2139.88 1466.67 Q2138.01 1466.67 2136.13 1467.08 Q2134.28 1467.5 2132.34 1468.38 L2132.34 1451.02 Z" fill="#000000" fill-rule="nonzero" fill-opacity="1" /><path clip-path="url(#clip710)" d="M1054.83 1520.52 L1084.88 1520.52 L1084.88 1525.93 L1061.26 1525.93 L1061.26 1540 L1083.89 1540 L1083.89 1545.41 L1061.26 1545.41 L1061.26 1562.63 L1085.45 1562.63 L1085.45 1568.04 L1054.83 1568.04 L1054.83 1520.52 Z" fill="#000000" fill-rule="nonzero" fill-opacity="1" /><path clip-path="url(#clip710)" d="M1095.76 1518.52 L1101.62 1518.52 L1101.62 1568.04 L1095.76 1568.04 L1095.76 1518.52 Z" fill="#000000" fill-rule="nonzero" fill-opacity="1" /><path clip-path="url(#clip710)" d="M1144.37 1548.76 L1144.37 1551.62 L1117.44 1551.62 Q1117.82 1557.67 1121.07 1560.85 Q1124.35 1564 1130.17 1564 Q1133.54 1564 1136.7 1563.17 Q1139.88 1562.35 1143 1560.69 L1143 1566.23 Q1139.85 1567.57 1136.54 1568.27 Q1133.23 1568.97 1129.82 1568.97 Q1121.29 1568.97 1116.29 1564 Q1111.33 1559.04 1111.33 1550.57 Q1111.33 1541.82 1116.04 1536.69 Q1120.78 1531.54 1128.8 1531.54 Q1136 1531.54 1140.16 1536.18 Q1144.37 1540.8 1144.37 1548.76 M1138.51 1547.04 Q1138.45 1542.23 1135.8 1539.37 Q1133.19 1536.5 1128.87 1536.5 Q1123.96 1536.5 1121 1539.27 Q1118.08 1542.04 1117.63 1547.07 L1138.51 1547.04 Z" fill="#000000" fill-rule="nonzero" fill-opacity="1" /><path clip-path="url(#clip710)" d="M1149.78 1532.4 L1155.98 1532.4 L1167.12 1562.31 L1178.26 1532.4 L1184.47 1532.4 L1171.1 1568.04 L1163.14 1568.04 L1149.78 1532.4 Z" fill="#000000" fill-rule="nonzero" fill-opacity="1" /><path clip-path="url(#clip710)" d="M1208.76 1550.12 Q1201.66 1550.12 1198.92 1551.75 Q1196.18 1553.37 1196.18 1557.29 Q1196.18 1560.4 1198.22 1562.25 Q1200.29 1564.07 1203.82 1564.07 Q1208.69 1564.07 1211.62 1560.63 Q1214.58 1557.16 1214.58 1551.43 L1214.58 1550.12 L1208.76 1550.12 M1220.44 1547.71 L1220.44 1568.04 L1214.58 1568.04 L1214.58 1562.63 Q1212.57 1565.88 1209.58 1567.44 Q1206.59 1568.97 1202.26 1568.97 Q1196.79 1568.97 1193.54 1565.91 Q1190.33 1562.82 1190.33 1557.67 Q1190.33 1551.65 1194.34 1548.6 Q1198.38 1545.54 1206.37 1545.54 L1214.58 1545.54 L1214.58 1544.97 Q1214.58 1540.93 1211.91 1538.73 Q1209.26 1536.5 1204.46 1536.5 Q1201.4 1536.5 1198.51 1537.23 Q1195.61 1537.97 1192.94 1539.43 L1192.94 1534.02 Q1196.15 1532.78 1199.17 1532.17 Q1202.2 1531.54 1205.06 1531.54 Q1212.8 1531.54 1216.62 1535.55 Q1220.44 1539.56 1220.44 1547.71 Z" fill="#000000" fill-rule="nonzero" fill-opacity="1" /><path clip-path="url(#clip710)" d="M1238.29 1522.27 L1238.29 1532.4 L1250.35 1532.4 L1250.35 1536.95 L1238.29 1536.95 L1238.29 1556.3 Q1238.29 1560.66 1239.47 1561.9 Q1240.68 1563.14 1244.34 1563.14 L1250.35 1563.14 L1250.35 1568.04 L1244.34 1568.04 Q1237.56 1568.04 1234.98 1565.53 Q1232.4 1562.98 1232.4 1556.3 L1232.4 1536.95 L1228.11 1536.95 L1228.11 1532.4 L1232.4 1532.4 L1232.4 1522.27 L1238.29 1522.27 Z" fill="#000000" fill-rule="nonzero" fill-opacity="1" /><path clip-path="url(#clip710)" d="M1258.06 1532.4 L1263.91 1532.4 L1263.91 1568.04 L1258.06 1568.04 L1258.06 1532.4 M1258.06 1518.52 L1263.91 1518.52 L1263.91 1525.93 L1258.06 1525.93 L1258.06 1518.52 Z" fill="#000000" fill-rule="nonzero" fill-opacity="1" /><path clip-path="url(#clip710)" d="M1289.98 1536.5 Q1285.27 1536.5 1282.53 1540.19 Q1279.8 1543.85 1279.8 1550.25 Q1279.8 1556.65 1282.5 1560.34 Q1285.24 1564 1289.98 1564 Q1294.66 1564 1297.4 1560.31 Q1300.13 1556.62 1300.13 1550.25 Q1300.13 1543.92 1297.4 1540.23 Q1294.66 1536.5 1289.98 1536.5 M1289.98 1531.54 Q1297.62 1531.54 1301.98 1536.5 Q1306.34 1541.47 1306.34 1550.25 Q1306.34 1559 1301.98 1564 Q1297.62 1568.97 1289.98 1568.97 Q1282.31 1568.97 1277.95 1564 Q1273.62 1559 1273.62 1550.25 Q1273.62 1541.47 1277.95 1536.5 Q1282.31 1531.54 1289.98 1531.54 Z" fill="#000000" fill-rule="nonzero" fill-opacity="1" /><path clip-path="url(#clip710)" d="M1345.68 1546.53 L1345.68 1568.04 L1339.82 1568.04 L1339.82 1546.72 Q1339.82 1541.66 1337.85 1539.14 Q1335.88 1536.63 1331.93 1536.63 Q1327.19 1536.63 1324.45 1539.65 Q1321.71 1542.68 1321.71 1547.9 L1321.71 1568.04 L1315.83 1568.04 L1315.83 1532.4 L1321.71 1532.4 L1321.71 1537.93 Q1323.82 1534.72 1326.65 1533.13 Q1329.51 1531.54 1333.24 1531.54 Q1339.38 1531.54 1342.53 1535.36 Q1345.68 1539.14 1345.68 1546.53 Z" fill="#000000" fill-rule="nonzero" fill-opacity="1" /><path clip-path="url(#clip710)" d="M1377.54 1518.52 L1391.04 1518.52 L1391.04 1523.07 L1383.4 1523.07 L1383.4 1572.09 L1391.04 1572.09 L1391.04 1576.64 L1377.54 1576.64 L1377.54 1518.52 Z" fill="#000000" fill-rule="nonzero" fill-opacity="1" /><path clip-path="url(#clip710)" d="M1426.97 1537.81 L1426.97 1518.52 L1432.83 1518.52 L1432.83 1568.04 L1426.97 1568.04 L1426.97 1562.7 Q1425.13 1565.88 1422.29 1567.44 Q1419.49 1568.97 1415.55 1568.97 Q1409.08 1568.97 1405.01 1563.81 Q1400.97 1558.65 1400.97 1550.25 Q1400.97 1541.85 1405.01 1536.69 Q1409.08 1531.54 1415.55 1531.54 Q1419.49 1531.54 1422.29 1533.1 Q1425.13 1534.62 1426.97 1537.81 M1407.02 1550.25 Q1407.02 1556.71 1409.66 1560.4 Q1412.33 1564.07 1416.98 1564.07 Q1421.62 1564.07 1424.3 1560.4 Q1426.97 1556.71 1426.97 1550.25 Q1426.97 1543.79 1424.3 1540.13 Q1421.62 1536.44 1416.98 1536.44 Q1412.33 1536.44 1409.66 1540.13 Q1407.02 1543.79 1407.02 1550.25 Z" fill="#000000" fill-rule="nonzero" fill-opacity="1" /><path clip-path="url(#clip710)" d="M1475.38 1548.76 L1475.38 1551.62 L1448.46 1551.62 Q1448.84 1557.67 1452.08 1560.85 Q1455.36 1564 1461.19 1564 Q1464.56 1564 1467.71 1563.17 Q1470.89 1562.35 1474.01 1560.69 L1474.01 1566.23 Q1470.86 1567.57 1467.55 1568.27 Q1464.24 1568.97 1460.84 1568.97 Q1452.31 1568.97 1447.31 1564 Q1442.34 1559.04 1442.34 1550.57 Q1442.34 1541.82 1447.06 1536.69 Q1451.8 1531.54 1459.82 1531.54 Q1467.01 1531.54 1471.18 1536.18 Q1475.38 1540.8 1475.38 1548.76 M1469.53 1547.04 Q1469.46 1542.23 1466.82 1539.37 Q1464.21 1536.5 1459.88 1536.5 Q1454.98 1536.5 1452.02 1539.27 Q1449.09 1542.04 1448.65 1547.07 L1469.53 1547.04 Z" fill="#000000" fill-rule="nonzero" fill-opacity="1" /><path clip-path="url(#clip710)" d="M1508.45 1549.81 Q1508.45 1543.44 1505.81 1539.94 Q1503.2 1536.44 1498.46 1536.44 Q1493.75 1536.44 1491.11 1539.94 Q1488.5 1543.44 1488.5 1549.81 Q1488.5 1556.14 1491.11 1559.64 Q1493.75 1563.14 1498.46 1563.14 Q1503.2 1563.14 1505.81 1559.64 Q1508.45 1556.14 1508.45 1549.81 M1514.31 1563.62 Q1514.31 1572.72 1510.27 1577.15 Q1506.22 1581.6 1497.89 1581.6 Q1494.8 1581.6 1492.06 1581.13 Q1489.32 1580.68 1486.75 1579.72 L1486.75 1574.03 Q1489.32 1575.43 1491.84 1576.1 Q1494.35 1576.76 1496.96 1576.76 Q1502.72 1576.76 1505.59 1573.74 Q1508.45 1570.75 1508.45 1564.67 L1508.45 1561.77 Q1506.64 1564.92 1503.81 1566.48 Q1500.97 1568.04 1497.03 1568.04 Q1490.47 1568.04 1486.46 1563.05 Q1482.45 1558.05 1482.45 1549.81 Q1482.45 1541.53 1486.46 1536.53 Q1490.47 1531.54 1497.03 1531.54 Q1500.97 1531.54 1503.81 1533.1 Q1506.64 1534.66 1508.45 1537.81 L1508.45 1532.4 L1514.31 1532.4 L1514.31 1563.62 Z" fill="#000000" fill-rule="nonzero" fill-opacity="1" /><path clip-path="url(#clip710)" d="M1540.06 1518.52 L1540.06 1576.64 L1526.56 1576.64 L1526.56 1572.09 L1534.17 1572.09 L1534.17 1523.07 L1526.56 1523.07 L1526.56 1518.52 L1540.06 1518.52 Z" fill="#000000" fill-rule="nonzero" fill-opacity="1" /><polyline clip-path="url(#clip710)" style="stroke:#000000; stroke-linecap:round; stroke-linejoin:round; stroke-width:4; stroke-opacity:1; fill:none" points="242.135,1423.18 242.135,123.472 "/>
<polyline clip-path="url(#clip710)" style="stroke:#000000; stroke-linecap:round; stroke-linejoin:round; stroke-width:4; stroke-opacity:1; fill:none" points="242.135,1423.18 261.032,1423.18 "/>
<polyline clip-path="url(#clip710)" style="stroke:#000000; stroke-linecap:round; stroke-linejoin:round; stroke-width:4; stroke-opacity:1; fill:none" points="242.135,1163.24 261.032,1163.24 "/>
<polyline clip-path="url(#clip710)" style="stroke:#000000; stroke-linecap:round; stroke-linejoin:round; stroke-width:4; stroke-opacity:1; fill:none" points="242.135,903.297 261.032,903.297 "/>
<polyline clip-path="url(#clip710)" style="stroke:#000000; stroke-linecap:round; stroke-linejoin:round; stroke-width:4; stroke-opacity:1; fill:none" points="242.135,643.355 261.032,643.355 "/>
<polyline clip-path="url(#clip710)" style="stroke:#000000; stroke-linecap:round; stroke-linejoin:round; stroke-width:4; stroke-opacity:1; fill:none" points="242.135,383.414 261.032,383.414 "/>
<polyline clip-path="url(#clip710)" style="stroke:#000000; stroke-linecap:round; stroke-linejoin:round; stroke-width:4; stroke-opacity:1; fill:none" points="242.135,123.472 261.032,123.472 "/>
<path clip-path="url(#clip710)" d="M114.26 1423.63 L143.936 1423.63 L143.936 1427.57 L114.26 1427.57 L114.26 1423.63 Z" fill="#000000" fill-rule="nonzero" fill-opacity="1" /><path clip-path="url(#clip710)" d="M158.056 1436.52 L174.376 1436.52 L174.376 1440.46 L152.431 1440.46 L152.431 1436.52 Q155.093 1433.77 159.677 1429.14 Q164.283 1424.49 165.464 1423.15 Q167.709 1420.62 168.589 1418.89 Q169.491 1417.13 169.491 1415.44 Q169.491 1412.68 167.547 1410.95 Q165.626 1409.21 162.524 1409.21 Q160.325 1409.21 157.871 1409.97 Q155.44 1410.74 152.663 1412.29 L152.663 1407.57 Q155.487 1406.43 157.94 1405.85 Q160.394 1405.27 162.431 1405.27 Q167.802 1405.27 170.996 1407.96 Q174.19 1410.65 174.19 1415.14 Q174.19 1417.27 173.38 1419.19 Q172.593 1421.08 170.487 1423.68 Q169.908 1424.35 166.806 1427.57 Q163.704 1430.76 158.056 1436.52 Z" fill="#000000" fill-rule="nonzero" fill-opacity="1" /><path clip-path="url(#clip710)" d="M194.19 1408.98 Q190.579 1408.98 188.75 1412.54 Q186.945 1416.08 186.945 1423.21 Q186.945 1430.32 188.75 1433.89 Q190.579 1437.43 194.19 1437.43 Q197.825 1437.43 199.63 1433.89 Q201.459 1430.32 201.459 1423.21 Q201.459 1416.08 199.63 1412.54 Q197.825 1408.98 194.19 1408.98 M194.19 1405.27 Q200 1405.27 203.056 1409.88 Q206.135 1414.46 206.135 1423.21 Q206.135 1431.94 203.056 1436.55 Q200 1441.13 194.19 1441.13 Q188.38 1441.13 185.301 1436.55 Q182.246 1431.94 182.246 1423.21 Q182.246 1414.46 185.301 1409.88 Q188.38 1405.27 194.19 1405.27 Z" fill="#000000" fill-rule="nonzero" fill-opacity="1" /><path clip-path="url(#clip710)" d="M114.26 1163.69 L143.936 1163.69 L143.936 1167.62 L114.26 1167.62 L114.26 1163.69 Z" fill="#000000" fill-rule="nonzero" fill-opacity="1" /><path clip-path="url(#clip710)" d="M154.839 1176.58 L162.477 1176.58 L162.477 1150.22 L154.167 1151.88 L154.167 1147.62 L162.431 1145.96 L167.107 1145.96 L167.107 1176.58 L174.746 1176.58 L174.746 1180.52 L154.839 1180.52 L154.839 1176.58 Z" fill="#000000" fill-rule="nonzero" fill-opacity="1" /><path clip-path="url(#clip710)" d="M194.19 1149.04 Q190.579 1149.04 188.75 1152.6 Q186.945 1156.14 186.945 1163.27 Q186.945 1170.38 188.75 1173.94 Q190.579 1177.49 194.19 1177.49 Q197.825 1177.49 199.63 1173.94 Q201.459 1170.38 201.459 1163.27 Q201.459 1156.14 199.63 1152.6 Q197.825 1149.04 194.19 1149.04 M194.19 1145.33 Q200 1145.33 203.056 1149.94 Q206.135 1154.52 206.135 1163.27 Q206.135 1172 203.056 1176.61 Q200 1181.19 194.19 1181.19 Q188.38 1181.19 185.301 1176.61 Q182.246 1172 182.246 1163.27 Q182.246 1154.52 185.301 1149.94 Q188.38 1145.33 194.19 1145.33 Z" fill="#000000" fill-rule="nonzero" fill-opacity="1" /><path clip-path="url(#clip710)" d="M194.19 889.095 Q190.579 889.095 188.75 892.66 Q186.945 896.202 186.945 903.331 Q186.945 910.438 188.75 914.003 Q190.579 917.544 194.19 917.544 Q197.825 917.544 199.63 914.003 Q201.459 910.438 201.459 903.331 Q201.459 896.202 199.63 892.66 Q197.825 889.095 194.19 889.095 M194.19 885.392 Q200 885.392 203.056 889.998 Q206.135 894.582 206.135 903.331 Q206.135 912.058 203.056 916.665 Q200 921.248 194.19 921.248 Q188.38 921.248 185.301 916.665 Q182.246 912.058 182.246 903.331 Q182.246 894.582 185.301 889.998 Q188.38 885.392 194.19 885.392 Z" fill="#000000" fill-rule="nonzero" fill-opacity="1" /><path clip-path="url(#clip710)" d="M154.839 656.7 L162.477 656.7 L162.477 630.334 L154.167 632.001 L154.167 627.742 L162.431 626.075 L167.107 626.075 L167.107 656.7 L174.746 656.7 L174.746 660.635 L154.839 660.635 L154.839 656.7 Z" fill="#000000" fill-rule="nonzero" fill-opacity="1" /><path clip-path="url(#clip710)" d="M194.19 629.154 Q190.579 629.154 188.75 632.719 Q186.945 636.26 186.945 643.39 Q186.945 650.496 188.75 654.061 Q190.579 657.603 194.19 657.603 Q197.825 657.603 199.63 654.061 Q201.459 650.496 201.459 643.39 Q201.459 636.26 199.63 632.719 Q197.825 629.154 194.19 629.154 M194.19 625.45 Q200 625.45 203.056 630.057 Q206.135 634.64 206.135 643.39 Q206.135 652.117 203.056 656.723 Q200 661.307 194.19 661.307 Q188.38 661.307 185.301 656.723 Q182.246 652.117 182.246 643.39 Q182.246 634.64 185.301 630.057 Q188.38 625.45 194.19 625.45 Z" fill="#000000" fill-rule="nonzero" fill-opacity="1" /><path clip-path="url(#clip710)" d="M158.056 396.759 L174.376 396.759 L174.376 400.694 L152.431 400.694 L152.431 396.759 Q155.093 394.004 159.677 389.374 Q164.283 384.722 165.464 383.379 Q167.709 380.856 168.589 379.12 Q169.491 377.36 169.491 375.671 Q169.491 372.916 167.547 371.18 Q165.626 369.444 162.524 369.444 Q160.325 369.444 157.871 370.208 Q155.44 370.972 152.663 372.523 L152.663 367.8 Q155.487 366.666 157.94 366.087 Q160.394 365.509 162.431 365.509 Q167.802 365.509 170.996 368.194 Q174.19 370.879 174.19 375.37 Q174.19 377.499 173.38 379.421 Q172.593 381.319 170.487 383.911 Q169.908 384.583 166.806 387.8 Q163.704 390.995 158.056 396.759 Z" fill="#000000" fill-rule="nonzero" fill-opacity="1" /><path clip-path="url(#clip710)" d="M194.19 369.212 Q190.579 369.212 188.75 372.777 Q186.945 376.319 186.945 383.448 Q186.945 390.555 188.75 394.12 Q190.579 397.661 194.19 397.661 Q197.825 397.661 199.63 394.12 Q201.459 390.555 201.459 383.448 Q201.459 376.319 199.63 372.777 Q197.825 369.212 194.19 369.212 M194.19 365.509 Q200 365.509 203.056 370.115 Q206.135 374.698 206.135 383.448 Q206.135 392.175 203.056 396.782 Q200 401.365 194.19 401.365 Q188.38 401.365 185.301 396.782 Q182.246 392.175 182.246 383.448 Q182.246 374.698 185.301 370.115 Q188.38 365.509 194.19 365.509 Z" fill="#000000" fill-rule="nonzero" fill-opacity="1" /><path clip-path="url(#clip710)" d="M168.195 122.118 Q171.552 122.836 173.427 125.104 Q175.325 127.373 175.325 130.706 Q175.325 135.822 171.806 138.623 Q168.288 141.423 161.806 141.423 Q159.63 141.423 157.315 140.984 Q155.024 140.567 152.57 139.71 L152.57 135.197 Q154.515 136.331 156.829 136.91 Q159.144 137.488 161.667 137.488 Q166.065 137.488 168.357 135.752 Q170.672 134.016 170.672 130.706 Q170.672 127.65 168.519 125.937 Q166.39 124.201 162.57 124.201 L158.542 124.201 L158.542 120.359 L162.755 120.359 Q166.204 120.359 168.033 118.993 Q169.862 117.604 169.862 115.012 Q169.862 112.35 167.964 110.937 Q166.089 109.502 162.57 109.502 Q160.649 109.502 158.45 109.919 Q156.251 110.336 153.612 111.215 L153.612 107.049 Q156.274 106.308 158.589 105.937 Q160.927 105.567 162.987 105.567 Q168.311 105.567 171.413 107.998 Q174.514 110.405 174.514 114.525 Q174.514 117.396 172.871 119.386 Q171.227 121.354 168.195 122.118 Z" fill="#000000" fill-rule="nonzero" fill-opacity="1" /><path clip-path="url(#clip710)" d="M194.19 109.271 Q190.579 109.271 188.75 112.836 Q186.945 116.377 186.945 123.507 Q186.945 130.613 188.75 134.178 Q190.579 137.72 194.19 137.72 Q197.825 137.72 199.63 134.178 Q201.459 130.613 201.459 123.507 Q201.459 116.377 199.63 112.836 Q197.825 109.271 194.19 109.271 M194.19 105.567 Q200 105.567 203.056 110.174 Q206.135 114.757 206.135 123.507 Q206.135 132.234 203.056 136.84 Q200 141.423 194.19 141.423 Q188.38 141.423 185.301 136.84 Q182.246 132.234 182.246 123.507 Q182.246 114.757 185.301 110.174 Q188.38 105.567 194.19 105.567 Z" fill="#000000" fill-rule="nonzero" fill-opacity="1" /><path clip-path="url(#clip710)" d="M18.0273 836.643 L34.8388 840.798 Q35.9016 841.088 36.0304 841.281 Q36.1592 841.442 36.1592 841.957 Q36.1592 842.956 35.4829 842.956 Q35.4185 842.956 34.5812 842.859 Q33.7116 842.762 32.1335 842.762 Q26.3042 842.762 22.8582 845.597 Q19.4122 848.399 19.4122 853.39 Q19.4122 858.06 21.8598 862.537 Q24.3075 867.014 27.9145 869.88 Q30.8775 872.295 34.4845 873.97 Q38.0916 875.612 41.2478 876.289 Q44.3717 876.965 46.2719 877.223 Q48.172 877.448 49.3959 877.448 Q53.0029 877.448 55.8048 876.289 Q58.5745 875.129 60.1526 873.197 Q61.7307 871.232 62.5036 868.978 Q63.2766 866.691 63.2766 864.212 Q63.2766 863.278 63.1478 862.15 Q63.0189 861.023 62.5358 859.284 Q62.0528 857.513 61.2476 856.064 Q60.4425 854.582 58.8966 853.294 Q57.3507 851.973 55.2895 851.458 Q50.04 850.073 49.267 850.073 Q48.6229 850.073 48.3975 850.46 Q48.172 850.846 48.011 852.134 L47.8822 855.613 Q47.8822 855.677 47.8822 855.774 Q47.8822 856.386 47.8822 856.643 Q47.85 856.901 47.7856 857.191 Q47.7211 857.448 47.5923 857.545 Q47.4313 857.609 47.1736 857.609 Q46.5617 857.609 46.2719 857.352 Q45.9498 857.094 45.9176 856.869 Q45.8532 856.643 45.8532 856.225 L46.0464 846.981 Q46.0464 846.241 45.9498 843.535 Q45.8532 840.83 45.8532 840.057 Q45.8532 839.188 46.5617 839.188 Q47.8822 839.188 47.8822 840.25 Q47.9144 841.313 47.9466 841.861 Q47.9466 842.408 48.1076 842.956 Q48.2686 843.471 48.3975 843.664 Q48.4941 843.857 48.9772 844.115 Q49.4281 844.373 49.8145 844.469 Q50.1688 844.566 51.0706 844.791 Q51.6503 844.92 52.7453 845.242 Q53.8403 845.532 54.42 845.661 L59.5085 846.917 Q63.2766 847.787 63.5342 848.044 Q63.7919 848.173 63.7919 848.495 Q63.7919 848.978 62.3748 850.009 Q60.9578 851.007 59.7017 851.458 Q60.5713 852.263 61.0866 852.779 Q61.5697 853.294 62.3426 854.485 Q63.1155 855.645 63.7275 857.191 Q65.3055 860.959 65.3055 865.435 Q65.3055 873.422 60.2492 878.447 Q55.1607 883.471 47.2381 883.471 Q41.6342 883.471 36.127 880.894 Q30.6198 878.318 26.5297 874.228 Q22.4395 870.137 19.8953 864.727 Q17.351 859.316 17.351 853.906 Q17.351 851.845 17.8985 850.009 Q18.446 848.173 19.1223 847.078 Q19.7987 845.951 20.797 844.952 Q21.7632 843.954 22.2141 843.632 Q22.665 843.278 23.2125 842.956 L18.1562 838.35 Q17.351 837.545 17.351 837.352 Q17.351 836.965 17.5765 836.804 Q17.8019 836.643 18.0273 836.643 Z" fill="#000000" fill-rule="nonzero" fill-opacity="1" /><path clip-path="url(#clip710)" d="M77.1554 830.056 L77.1554 828.906 Q80.289 828.252 80.7624 827.937 Q81.5515 827.486 81.6417 825.524 Q81.6417 825.119 81.6417 824.42 L81.6417 821.331 Q79.5225 821.895 77.0878 823.315 Q74.6305 824.735 72.8044 826.088 Q70.9783 827.418 68.4985 828.478 Q65.9961 829.537 63.6289 829.537 Q58.9172 829.537 55.5131 825.479 Q52.0863 821.421 52.0863 815.47 Q52.0863 809.518 55.4905 805.438 Q58.8721 801.335 63.6289 801.335 Q65.9735 801.335 68.4534 802.394 Q70.9332 803.454 72.7593 804.784 Q74.5854 806.091 77.0652 807.557 Q79.5225 809 81.6417 809.563 L81.6417 806.407 Q81.6417 803.814 81.1682 803.296 Q80.6723 802.777 78.0797 802.214 Q77.471 802.124 77.1554 802.033 L77.1554 800.839 L84.64 802.349 L84.64 809.743 Q84.64 810.352 84.4597 810.623 Q84.2793 810.893 83.6255 810.893 Q80.4919 810.893 73.7512 808.504 Q67.0105 806.091 63.6289 806.091 Q58.6016 806.091 55.8512 808.954 Q53.1008 811.818 53.1008 815.47 Q53.1008 819.077 55.8287 821.94 Q58.5565 824.78 63.6289 824.78 Q67.0556 824.78 73.7738 822.391 Q80.4919 819.978 83.5805 819.978 Q84.3244 819.978 84.4822 820.272 Q84.64 820.542 84.64 821.466 L84.64 828.523 L77.1554 830.056 Z" fill="#000000" fill-rule="nonzero" fill-opacity="1" /><path clip-path="url(#clip710)" d="M80.3457 779.56 L14.3881 779.56 L14.3881 769.608 L15.9018 769.608 L15.9018 775.148 L78.832 775.148 L78.832 769.608 L80.3457 769.608 L80.3457 779.56 Z" fill="#000000" fill-rule="nonzero" fill-opacity="1" /><path clip-path="url(#clip710)" d="M18.8003 735.553 L56.932 745.054 Q58.6389 745.44 60.0882 745.44 Q63.1155 745.44 63.1155 743.476 Q63.1155 742.51 62.5036 741.737 Q61.8917 740.964 60.6035 740.352 Q59.3153 739.74 58.1236 739.353 Q56.8998 738.967 54.9675 738.452 Q54.1945 738.291 54.0013 738.162 Q53.7758 738.001 53.7758 737.55 Q53.7758 736.745 54.42 736.745 Q58.5745 737.614 60.9578 738.741 Q64.597 740.545 64.597 743.605 Q64.597 745.923 63.18 747.566 Q61.7629 749.208 59.6373 749.595 Q64.597 753.814 64.597 758.194 Q64.597 762.058 61.6663 764.506 Q58.7033 766.954 54.0335 766.954 Q49.3314 766.954 44.8226 764.635 Q40.3138 762.284 37.5119 758.58 Q34.71 754.877 34.71 751.076 Q34.71 747.051 38.9289 744.989 L23.2769 741.028 L21.9887 740.835 Q21.6022 740.835 21.409 740.996 Q21.1835 741.125 21.0225 741.898 Q20.8615 742.638 20.8615 744.12 Q20.8615 744.732 20.8293 745.022 Q20.797 745.279 20.636 745.505 Q20.4428 745.73 20.0563 745.73 Q18.9291 745.73 18.8003 744.796 Q18.0918 738.613 18.0918 736.423 Q18.0918 736.036 18.285 735.811 Q18.446 735.585 18.6393 735.585 L18.8003 735.553 M41.9563 745.795 Q41.6664 745.795 40.8613 746.02 Q40.0562 746.245 38.9289 746.761 Q37.8017 747.276 36.9966 748.403 Q36.1592 749.498 36.1592 750.98 Q36.1592 752.976 37.8662 755.07 Q39.5731 757.131 42.4716 758.645 Q44.7904 759.804 49.6535 761.06 Q54.5166 762.284 56.932 762.284 Q58.4135 762.284 59.7339 761.962 Q61.0222 761.608 62.085 760.609 Q63.1155 759.611 63.1155 758.065 Q63.1155 754.297 58.4457 750.593 Q57.6406 749.885 57.3185 749.724 Q56.9642 749.53 55.9981 749.273 L43.0835 745.988 Q42.1173 745.795 41.9563 745.795 Z" fill="#000000" fill-rule="nonzero" fill-opacity="1" /><path clip-path="url(#clip710)" d="M27.9145 685.929 Q30.9097 685.929 33.615 687.99 Q36.2881 690.019 37.995 693.111 Q39.6697 696.202 40.3138 699.713 Q40.8613 694.979 43.4378 692.241 Q46.0142 689.471 49.6213 689.471 Q52.0367 689.471 54.581 690.889 Q57.0931 692.273 59.1542 694.657 Q61.2154 697.008 62.5358 700.486 Q63.8563 703.932 63.8563 707.7 L63.8563 731.242 Q63.8563 731.983 63.8241 732.273 Q63.7919 732.563 63.6308 732.788 Q63.4698 733.014 63.1155 733.014 Q62.4714 733.014 62.1816 732.788 Q61.8917 732.531 61.8595 732.241 Q61.8273 731.951 61.8273 731.242 Q61.8273 729.632 61.7307 728.666 Q61.6341 727.7 61.5053 727.088 Q61.3442 726.444 60.8933 726.122 Q60.4425 725.767 60.056 725.606 Q59.6373 725.445 58.7033 725.22 L23.2769 716.396 Q22.2141 716.138 22.0531 716.138 Q21.4412 716.138 21.2801 716.524 Q21.0869 716.879 20.9903 717.909 L20.8615 720.421 Q20.8615 721.194 20.8293 721.516 Q20.797 721.806 20.636 722.032 Q20.475 722.257 20.1207 722.257 Q19.219 722.257 19.0257 721.871 Q18.8003 721.452 18.8003 720.357 L18.8003 698.199 Q18.8003 692.499 21.4412 689.214 Q24.0498 685.929 27.9145 685.929 M27.6569 691.919 Q26.4331 691.919 25.3381 692.241 Q24.2431 692.563 23.1803 693.336 Q22.1175 694.077 21.5056 695.558 Q20.8615 697.04 20.8615 699.101 L20.8615 707.636 Q20.8615 709.729 21.2479 710.244 Q21.6022 710.727 23.3735 711.178 L39.7019 715.268 L39.7019 705.639 Q39.7019 702.708 38.6391 700.132 Q37.5763 697.523 35.8694 695.752 Q34.1303 693.98 31.9725 692.95 Q29.8147 691.919 27.6569 691.919 M48.8806 695.623 Q47.9144 695.623 46.9804 695.784 Q46.0464 695.945 44.9514 696.46 Q43.8564 696.975 43.0513 697.781 Q42.2461 698.586 41.6986 700.003 Q41.1512 701.388 41.1512 703.191 L41.1512 715.655 L59.5729 720.228 Q60.7645 720.55 61.0866 720.55 Q61.4408 720.55 61.5697 720.389 Q61.6663 720.196 61.7307 719.681 Q61.8273 719.101 61.8273 718.231 L61.8273 709.278 Q61.8273 706.444 60.7323 703.867 Q59.6051 701.291 57.8016 699.52 Q55.9981 697.716 53.647 696.686 Q51.296 695.623 48.8806 695.623 Z" fill="#000000" fill-rule="nonzero" fill-opacity="1" /><path clip-path="url(#clip710)" d="M78.832 681.332 L78.832 675.792 L15.9018 675.792 L15.9018 681.332 L14.3881 681.332 L14.3881 671.38 L80.3457 671.38 L80.3457 681.332 L78.832 681.332 Z" fill="#000000" fill-rule="nonzero" fill-opacity="1" /><path clip-path="url(#clip710)" d="M1114.53 20.1573 L1103.43 50.2555 L1125.67 50.2555 L1114.53 20.1573 M1109.91 12.096 L1119.19 12.096 L1142.23 72.576 L1133.73 72.576 L1128.22 57.061 L1100.96 57.061 L1095.45 72.576 L1086.82 72.576 L1109.91 12.096 Z" fill="#000000" fill-rule="nonzero" fill-opacity="1" /><path clip-path="url(#clip710)" d="M1177.03 34.1734 Q1175.78 33.4443 1174.28 33.1202 Q1172.82 32.7556 1171.04 32.7556 Q1164.72 32.7556 1161.31 36.8875 Q1157.95 40.9789 1157.95 48.6757 L1157.95 72.576 L1150.46 72.576 L1150.46 27.2059 L1157.95 27.2059 L1157.95 34.2544 Q1160.3 30.1225 1164.07 28.1376 Q1167.84 26.1121 1173.22 26.1121 Q1173.99 26.1121 1174.93 26.2337 Q1175.86 26.3147 1176.99 26.5172 L1177.03 34.1734 Z" fill="#000000" fill-rule="nonzero" fill-opacity="1" /><path clip-path="url(#clip710)" d="M1209.68 34.1734 Q1208.43 33.4443 1206.93 33.1202 Q1205.47 32.7556 1203.69 32.7556 Q1197.37 32.7556 1193.96 36.8875 Q1190.6 40.9789 1190.6 48.6757 L1190.6 72.576 L1183.11 72.576 L1183.11 27.2059 L1190.6 27.2059 L1190.6 34.2544 Q1192.95 30.1225 1196.72 28.1376 Q1200.49 26.1121 1205.87 26.1121 Q1206.64 26.1121 1207.58 26.2337 Q1208.51 26.3147 1209.64 26.5172 L1209.68 34.1734 Z" fill="#000000" fill-rule="nonzero" fill-opacity="1" /><path clip-path="url(#clip710)" d="M1238.12 49.7694 Q1229.09 49.7694 1225.6 51.8354 Q1222.12 53.9013 1222.12 58.8839 Q1222.12 62.8538 1224.71 65.2034 Q1227.34 67.5124 1231.84 67.5124 Q1238.04 67.5124 1241.77 63.1374 Q1245.53 58.7219 1245.53 51.4303 L1245.53 49.7694 L1238.12 49.7694 M1252.99 46.6907 L1252.99 72.576 L1245.53 72.576 L1245.53 65.6895 Q1242.98 69.8214 1239.17 71.8063 Q1235.37 73.7508 1229.86 73.7508 Q1222.89 73.7508 1218.76 69.8619 Q1214.67 65.9325 1214.67 59.3701 Q1214.67 51.7138 1219.77 47.825 Q1224.91 43.9361 1235.08 43.9361 L1245.53 43.9361 L1245.53 43.2069 Q1245.53 38.0623 1242.13 35.2672 Q1238.77 32.4315 1232.65 32.4315 Q1228.76 32.4315 1225.08 33.3632 Q1221.39 34.295 1217.99 36.1584 L1217.99 29.2718 Q1222.08 27.692 1225.93 26.9223 Q1229.77 26.1121 1233.42 26.1121 Q1243.26 26.1121 1248.13 31.2163 Q1252.99 36.3204 1252.99 46.6907 Z" fill="#000000" fill-rule="nonzero" fill-opacity="1" /><path clip-path="url(#clip710)" d="M1287.22 76.7889 Q1284.06 84.8907 1281.06 87.3618 Q1278.06 89.8329 1273.04 89.8329 L1267.08 89.8329 L1267.08 83.5945 L1271.46 83.5945 Q1274.54 83.5945 1276.24 82.1361 Q1277.94 80.6778 1280.01 75.2496 L1281.34 71.8468 L1262.99 27.2059 L1270.89 27.2059 L1285.07 62.6918 L1299.25 27.2059 L1307.15 27.2059 L1287.22 76.7889 Z" fill="#000000" fill-rule="nonzero" fill-opacity="1" /><path clip-path="url(#clip710)" d="M1373.66 49.3643 Q1373.66 41.2625 1370.3 36.8065 Q1366.98 32.3505 1360.94 32.3505 Q1354.95 32.3505 1351.59 36.8065 Q1348.26 41.2625 1348.26 49.3643 Q1348.26 57.4256 1351.59 61.8816 Q1354.95 66.3376 1360.94 66.3376 Q1366.98 66.3376 1370.3 61.8816 Q1373.66 57.4256 1373.66 49.3643 M1381.12 66.9452 Q1381.12 78.5308 1375.97 84.1616 Q1370.83 89.8329 1360.21 89.8329 Q1356.28 89.8329 1352.8 89.2252 Q1349.32 88.6581 1346.04 87.4428 L1346.04 80.1917 Q1349.32 81.9741 1352.52 82.8248 Q1355.72 83.6755 1359.04 83.6755 Q1366.37 83.6755 1370.02 79.8271 Q1373.66 76.0193 1373.66 68.282 L1373.66 64.5957 Q1371.35 68.6061 1367.75 70.5911 Q1364.14 72.576 1359.12 72.576 Q1350.78 72.576 1345.67 66.2161 Q1340.57 59.8562 1340.57 49.3643 Q1340.57 38.832 1345.67 32.472 Q1350.78 26.1121 1359.12 26.1121 Q1364.14 26.1121 1367.75 28.0971 Q1371.35 30.082 1373.66 34.0924 L1373.66 27.2059 L1381.12 27.2059 L1381.12 66.9452 Z" fill="#000000" fill-rule="nonzero" fill-opacity="1" /><path clip-path="url(#clip710)" d="M1417.09 49.7694 Q1408.06 49.7694 1404.57 51.8354 Q1401.09 53.9013 1401.09 58.8839 Q1401.09 62.8538 1403.68 65.2034 Q1406.31 67.5124 1410.81 67.5124 Q1417.01 67.5124 1420.73 63.1374 Q1424.5 58.7219 1424.5 51.4303 L1424.5 49.7694 L1417.09 49.7694 M1431.96 46.6907 L1431.96 72.576 L1424.5 72.576 L1424.5 65.6895 Q1421.95 69.8214 1418.14 71.8063 Q1414.33 73.7508 1408.82 73.7508 Q1401.86 73.7508 1397.73 69.8619 Q1393.63 65.9325 1393.63 59.3701 Q1393.63 51.7138 1398.74 47.825 Q1403.88 43.9361 1414.05 43.9361 L1424.5 43.9361 L1424.5 43.2069 Q1424.5 38.0623 1421.1 35.2672 Q1417.74 32.4315 1411.62 32.4315 Q1407.73 32.4315 1404.04 33.3632 Q1400.36 34.295 1396.96 36.1584 L1396.96 29.2718 Q1401.05 27.692 1404.9 26.9223 Q1408.74 26.1121 1412.39 26.1121 Q1422.23 26.1121 1427.09 31.2163 Q1431.96 36.3204 1431.96 46.6907 Z" fill="#000000" fill-rule="nonzero" fill-opacity="1" /><path clip-path="url(#clip710)" d="M1447.31 27.2059 L1454.76 27.2059 L1454.76 72.576 L1447.31 72.576 L1447.31 27.2059 M1447.31 9.54393 L1454.76 9.54393 L1454.76 18.9825 L1447.31 18.9825 L1447.31 9.54393 Z" fill="#000000" fill-rule="nonzero" fill-opacity="1" /><path clip-path="url(#clip710)" d="M1508.07 45.1919 L1508.07 72.576 L1500.62 72.576 L1500.62 45.4349 Q1500.62 38.994 1498.11 35.7938 Q1495.6 32.5936 1490.57 32.5936 Q1484.54 32.5936 1481.05 36.4419 Q1477.57 40.2903 1477.57 46.9338 L1477.57 72.576 L1470.07 72.576 L1470.07 27.2059 L1477.57 27.2059 L1477.57 34.2544 Q1480.24 30.163 1483.85 28.1376 Q1487.49 26.1121 1492.23 26.1121 Q1500.05 26.1121 1504.06 30.9732 Q1508.07 35.7938 1508.07 45.1919 Z" fill="#000000" fill-rule="nonzero" fill-opacity="1" /><polyline clip-path="url(#clip712)" style="stroke:#009af9; stroke-linecap:round; stroke-linejoin:round; stroke-width:4; stroke-opacity:1; fill:none" points="2293.02,13806 2289.04,3266 2285.06,2843.45 2281.07,2596.29 2277.09,2420.93 2273.11,2284.93 2269.13,2173.83 2265.15,2079.92 2261.16,1998.61 2257.18,1926.93 2253.2,1862.86 2249.22,1804.97 2245.23,1752.19 2241.25,1703.73 2237.27,1658.96 2233.29,1617.41 2229.3,1578.67 2225.32,1542.44 2221.34,1508.45 2217.36,1476.5 2213.38,1446.4 2209.39,1418.01 2205.41,1391.21 2201.43,1365.9 2197.45,1341.99 2193.46,1319.4 2189.48,1298.09 2185.5,1278 2181.52,1259.1 2177.53,1241.36 2173.55,1224.76 2169.57,1209.29 2165.59,1194.95 2161.61,1181.74 2157.62,1169.67 2153.64,1158.76 2149.66,1149.04 2145.68,1140.54 2141.69,1133.32 2137.71,1127.44 2133.73,1122.96 2129.75,1119.98 2125.76,1118.61 2121.78,1118.98 2117.8,1121.26 2113.82,1125.66 2109.84,1132.45 2105.85,1141.99 2101.87,1154.72 2097.89,1171.29 2093.91,1192.59 2089.92,1219.96 2085.94,1255.53 2081.96,1303.01 2077.98,1369.82 2073.99,1474.66 2070.01,1698.49 2066.03,1754.68 2062.05,1480.72 2058.07,1358.52 2054.08,1279.19 2050.1,1221.05 2046.12,1175.94 2042.14,1139.92 2038.15,1110.85 2034.17,1087.42 2030.19,1068.85 2026.21,1054.65 2022.22,1044.54 2018.24,1038.41 2014.26,1036.29 2010.28,1038.34 2006.3,1044.9 2002.31,1056.5 1998.33,1074.02 1994.35,1098.78 1990.37,1133.03 1986.38,1180.76 1982.4,1250.22 1978.42,1363.24 1974.44,1629.39 1970.45,1563.16 1966.47,1332.9 1962.49,1222.16 1958.51,1150.52 1954.53,1099.45 1950.54,1061.76 1946.56,1033.94 1942.58,1014.15 1938.6,1001.39 1934.61,995.186 1930.63,995.487 1926.65,1002.62 1922.67,1017.36 1918.68,1041.16 1914.7,1076.66 1910.72,1128.92 1906.74,1209.32 1902.76,1353.37 1898.77,2024 1894.79,1371.56 1890.81,1209.86 1886.83,1120.08 1882.84,1060.86 1878.86,1019.78 1874.88,991.59 1870.9,973.747 1866.91,965.056 1862.93,965.169 1858.95,974.448 1854.97,994.083 1850.99,1026.55 1847,1076.88 1843.02,1156.65 1839.04,1302.68 1835.06,2122.16 1831.07,1309.51 1827.09,1152.35 1823.11,1065.76 1819.13,1010.07 1815.14,973.279 1811.16,950.423 1807.18,939.273 1803.2,939.084 1799.22,950.236 1795.23,974.383 1791.25,1015.28 1787.27,1081.4 1783.29,1196.49 1779.3,1493.51 1775.32,1355.87 1771.34,1146.81 1767.36,1045.96 1763.37,984.382 1759.39,945.358 1755.41,922.546 1751.43,913.324 1747.45,917.025 1743.46,934.548 1739.48,968.839 1735.5,1026.88 1731.52,1127.41 1727.53,1354.18 1723.55,1396.27 1719.57,1134.13 1715.59,1022.4 1711.6,956.912 1707.62,916.84 1703.64,894.822 1699.66,888.033 1695.68,896.034 1691.69,920.483 1687.71,966.216 1683.73,1045.69 1679.75,1201.88 1675.76,1747.94 1671.78,1161.1 1667.8,1018.74 1663.82,941.303 1659.83,895.12 1655.85,869.835 1651.87,861.639 1647.89,869.828 1643.91,896.288 1639.92,946.885 1635.94,1037.79 1631.96,1235.22 1627.98,1387.87 1623.99,1076.67 1620.01,957.978 1616.03,891.371 1612.05,853.01 1608.07,835.046 1604.08,834.966 1600.1,853.396 1596.12,894.571 1592.14,970.477 1588.15,1123.11 1584.17,1708.3 1580.19,1086.66 1576.21,943.864 1572.22,867.819 1568.24,824.439 1564.26,803.564 1560.28,801.931 1556.3,819.988 1552.31,862.25 1548.33,942.072 1544.35,1109.6 1540.37,1448.2 1536.38,1022.81 1532.4,891.317 1528.42,820.337 1524.44,780.794 1520.45,763.824 1516.47,766.958 1512.49,791.702 1508.51,844.921 1504.53,947.922 1500.54,1213.51 1496.56,1133.69 1492.58,911.021 1488.6,810.386 1484.61,754.14 1480.63,725.033 1476.65,717.616 1472.67,731.483 1468.68,770.863 1464.7,849.406 1460.72,1020.34 1456.74,1304.71 1452.76,913.27 1448.77,784.186 1444.79,714.243 1440.81,675.93 1436.83,661.001 1432.84,667.707 1428.86,698.982 1424.88,765.627 1420.9,906.276 1416.91,1783.11 1412.93,882.784 1408.95,731.701 1404.97,651.8 1400.99,606.682 1397,586.094 1393.02,587.478 1389.04,613.178 1385.06,673.013 1381.07,801.537 1377.09,1459.46 1373.11,802.292 1369.13,638.163 1365.14,550.561 1361.16,498.758 1357.18,471.579 1353.2,466.098 1349.22,484.439 1345.23,536.285 1341.25,656.324 1337.27,1334.53 1333.29,631.248 1329.3,453.784 1325.32,349.491 1321.34,277.085 1317.36,223.906 1313.37,184.391 1309.39,155.64 1305.41,136.011 1301.43,124.56 1297.45,120.795 1293.46,124.56 1289.48,136.011 1285.5,155.64 1281.52,184.391 1277.53,223.906 1273.55,277.085 1269.57,349.491 1265.59,453.784 1261.6,631.248 1257.62,1334.53 1253.64,656.324 1249.66,536.285 1245.68,484.439 1241.69,466.098 1237.71,471.579 1233.73,498.758 1229.75,550.561 1225.76,638.163 1221.78,802.292 1217.8,1459.46 1213.82,801.537 1209.83,673.013 1205.85,613.178 1201.87,587.478 1197.89,586.094 1193.91,606.682 1189.92,651.8 1185.94,731.701 1181.96,882.784 1177.98,1783.11 1173.99,906.276 1170.01,765.627 1166.03,698.982 1162.05,667.707 1158.06,661.001 1154.08,675.93 1150.1,714.243 1146.12,784.186 1142.14,913.27 1138.15,1304.71 1134.17,1020.34 1130.19,849.406 1126.21,770.863 1122.22,731.483 1118.24,717.616 1114.26,725.033 1110.28,754.14 1106.29,810.386 1102.31,911.021 1098.33,1133.69 1094.35,1213.51 1090.37,947.922 1086.38,844.921 1082.4,791.702 1078.42,766.958 1074.44,763.824 1070.45,780.794 1066.47,820.337 1062.49,891.317 1058.51,1022.81 1054.52,1448.2 1050.54,1109.6 1046.56,942.072 1042.58,862.25 1038.6,819.988 1034.61,801.931 1030.63,803.564 1026.65,824.439 1022.67,867.819 1018.68,943.864 1014.7,1086.66 1010.72,1708.3 1006.74,1123.11 1002.75,970.477 998.772,894.571 994.79,853.396 990.808,834.966 986.826,835.046 982.843,853.01 978.861,891.371 974.879,957.978 970.896,1076.67 966.914,1387.87 962.932,1235.22 958.949,1037.79 954.967,946.885 950.985,896.288 947.003,869.828 943.02,861.639 939.038,869.835 935.056,895.12 931.073,941.303 927.091,1018.74 923.109,1161.1 919.126,1747.94 915.144,1201.88 911.162,1045.69 907.179,966.216 903.197,920.483 899.215,896.034 895.233,888.033 891.25,894.822 887.268,916.84 883.286,956.912 879.303,1022.4 875.321,1134.13 871.339,1396.27 867.356,1354.18 863.374,1127.41 859.392,1026.88 855.41,968.839 851.427,934.548 847.445,917.025 843.463,913.324 839.48,922.546 835.498,945.358 831.516,984.382 827.533,1045.96 823.551,1146.81 819.569,1355.87 815.586,1493.51 811.604,1196.49 807.622,1081.4 803.64,1015.28 799.657,974.383 795.675,950.236 791.693,939.084 787.71,939.273 783.728,950.423 779.746,973.279 775.763,1010.07 771.781,1065.76 767.799,1152.35 763.817,1309.51 759.834,2122.16 755.852,1302.68 751.87,1156.65 747.887,1076.88 743.905,1026.55 739.923,994.083 735.94,974.448 731.958,965.169 727.976,965.056 723.993,973.747 720.011,991.59 716.029,1019.78 712.047,1060.86 708.064,1120.08 704.082,1209.86 700.1,1371.56 696.117,2024 692.135,1353.37 688.153,1209.32 684.17,1128.92 680.188,1076.66 676.206,1041.16 672.224,1017.36 668.241,1002.62 664.259,995.487 660.277,995.186 656.294,1001.39 652.312,1014.15 648.33,1033.94 644.347,1061.76 640.365,1099.45 636.383,1150.52 632.4,1222.16 628.418,1332.9 624.436,1563.16 620.454,1629.39 616.471,1363.24 612.489,1250.22 608.507,1180.76 604.524,1133.03 600.542,1098.78 596.56,1074.02 592.577,1056.5 588.595,1044.9 584.613,1038.34 580.631,1036.29 576.648,1038.41 572.666,1044.54 568.684,1054.65 564.701,1068.85 560.719,1087.42 556.737,1110.85 552.754,1139.92 548.772,1175.94 544.79,1221.05 540.807,1279.19 536.825,1358.52 532.843,1480.72 528.861,1754.68 524.878,1698.49 520.896,1474.66 516.914,1369.82 512.931,1303.01 508.949,1255.53 504.967,1219.96 500.984,1192.59 497.002,1171.29 493.02,1154.72 489.038,1141.99 485.055,1132.45 481.073,1125.66 477.091,1121.26 473.108,1118.98 469.126,1118.61 465.144,1119.98 461.161,1122.96 457.179,1127.44 453.197,1133.32 449.214,1140.54 445.232,1149.04 441.25,1158.76 437.268,1169.67 433.285,1181.74 429.303,1194.95 425.321,1209.29 421.338,1224.76 417.356,1241.36 413.374,1259.1 409.391,1278 405.409,1298.09 401.427,1319.4 397.445,1341.99 393.462,1365.9 389.48,1391.21 385.498,1418.01 381.515,1446.4 377.533,1476.5 373.551,1508.45 369.568,1542.44 365.586,1578.67 361.604,1617.41 357.621,1658.96 353.639,1703.73 349.657,1752.19 345.675,1804.97 341.692,1862.86 337.71,1926.93 333.728,1998.61 329.745,2079.92 325.763,2173.83 321.781,2284.93 317.798,2420.93 313.816,2596.29 309.834,2843.45 305.852,3266 301.869,13806 "/>
</svg>
