<?xml version="1.0" encoding="utf-8"?>
<svg xmlns="http://www.w3.org/2000/svg" xmlns:xlink="http://www.w3.org/1999/xlink" width="600" height="400" viewBox="0 0 2400 1600">
<defs>
  <clipPath id="clip500">
    <rect x="0" y="0" width="2400" height="1600"/>
  </clipPath>
</defs>
<path clip-path="url(#clip500)" d="M0 1600 L2400 1600 L2400 0 L0 0  Z" fill="#ffffff" fill-rule="evenodd" fill-opacity="1"/>
<defs>
  <clipPath id="clip501">
    <rect x="480" y="0" width="1681" height="1600"/>
  </clipPath>
</defs>
<path clip-path="url(#clip500)" d="M219.38 1423.18 L2352.76 1423.18 L2352.76 123.472 L219.38 123.472  Z" fill="#ffffff" fill-rule="evenodd" fill-opacity="1"/>
<defs>
  <clipPath id="clip502">
    <rect x="219" y="123" width="2134" height="1301"/>
  </clipPath>
</defs>
<polyline clip-path="url(#clip502)" style="stroke:#000000; stroke-linecap:round; stroke-linejoin:round; stroke-width:2; stroke-opacity:0.1; fill:none" points="506.99,1423.18 506.99,123.472 "/>
<polyline clip-path="url(#clip502)" style="stroke:#000000; stroke-linecap:round; stroke-linejoin:round; stroke-width:2; stroke-opacity:0.1; fill:none" points="896.529,1423.18 896.529,123.472 "/>
<polyline clip-path="url(#clip502)" style="stroke:#000000; stroke-linecap:round; stroke-linejoin:round; stroke-width:2; stroke-opacity:0.1; fill:none" points="1286.07,1423.18 1286.07,123.472 "/>
<polyline clip-path="url(#clip502)" style="stroke:#000000; stroke-linecap:round; stroke-linejoin:round; stroke-width:2; stroke-opacity:0.1; fill:none" points="1675.61,1423.18 1675.61,123.472 "/>
<polyline clip-path="url(#clip502)" style="stroke:#000000; stroke-linecap:round; stroke-linejoin:round; stroke-width:2; stroke-opacity:0.1; fill:none" points="2065.15,1423.18 2065.15,123.472 "/>
<polyline clip-path="url(#clip502)" style="stroke:#000000; stroke-linecap:round; stroke-linejoin:round; stroke-width:2; stroke-opacity:0.1; fill:none" points="219.38,1389.36 2352.76,1389.36 "/>
<polyline clip-path="url(#clip502)" style="stroke:#000000; stroke-linecap:round; stroke-linejoin:round; stroke-width:2; stroke-opacity:0.1; fill:none" points="219.38,1081.34 2352.76,1081.34 "/>
<polyline clip-path="url(#clip502)" style="stroke:#000000; stroke-linecap:round; stroke-linejoin:round; stroke-width:2; stroke-opacity:0.1; fill:none" points="219.38,773.326 2352.76,773.326 "/>
<polyline clip-path="url(#clip502)" style="stroke:#000000; stroke-linecap:round; stroke-linejoin:round; stroke-width:2; stroke-opacity:0.1; fill:none" points="219.38,465.308 2352.76,465.308 "/>
<polyline clip-path="url(#clip502)" style="stroke:#000000; stroke-linecap:round; stroke-linejoin:round; stroke-width:2; stroke-opacity:0.1; fill:none" points="219.38,157.29 2352.76,157.29 "/>
<polyline clip-path="url(#clip500)" style="stroke:#000000; stroke-linecap:round; stroke-linejoin:round; stroke-width:4; stroke-opacity:1; fill:none" points="219.38,1423.18 2352.76,1423.18 "/>
<polyline clip-path="url(#clip500)" style="stroke:#000000; stroke-linecap:round; stroke-linejoin:round; stroke-width:4; stroke-opacity:1; fill:none" points="506.99,1423.18 506.99,1404.28 "/>
<polyline clip-path="url(#clip500)" style="stroke:#000000; stroke-linecap:round; stroke-linejoin:round; stroke-width:4; stroke-opacity:1; fill:none" points="896.529,1423.18 896.529,1404.28 "/>
<polyline clip-path="url(#clip500)" style="stroke:#000000; stroke-linecap:round; stroke-linejoin:round; stroke-width:4; stroke-opacity:1; fill:none" points="1286.07,1423.18 1286.07,1404.28 "/>
<polyline clip-path="url(#clip500)" style="stroke:#000000; stroke-linecap:round; stroke-linejoin:round; stroke-width:4; stroke-opacity:1; fill:none" points="1675.61,1423.18 1675.61,1404.28 "/>
<polyline clip-path="url(#clip500)" style="stroke:#000000; stroke-linecap:round; stroke-linejoin:round; stroke-width:4; stroke-opacity:1; fill:none" points="2065.15,1423.18 2065.15,1404.28 "/>
<path clip-path="url(#clip500)" d="M476.053 1468.75 L505.728 1468.75 L505.728 1472.69 L476.053 1472.69 L476.053 1468.75 Z" fill="#000000" fill-rule="nonzero" fill-opacity="1" /><path clip-path="url(#clip500)" d="M526.399 1466.44 Q523.251 1466.44 521.399 1468.59 Q519.571 1470.74 519.571 1474.49 Q519.571 1478.22 521.399 1480.39 Q523.251 1482.55 526.399 1482.55 Q529.548 1482.55 531.376 1480.39 Q533.228 1478.22 533.228 1474.49 Q533.228 1470.74 531.376 1468.59 Q529.548 1466.44 526.399 1466.44 M535.682 1451.78 L535.682 1456.04 Q533.923 1455.21 532.117 1454.77 Q530.335 1454.33 528.575 1454.33 Q523.946 1454.33 521.492 1457.45 Q519.062 1460.58 518.714 1466.9 Q520.08 1464.89 522.14 1463.82 Q524.2 1462.73 526.677 1462.73 Q531.886 1462.73 534.895 1465.9 Q537.927 1469.05 537.927 1474.49 Q537.927 1479.82 534.779 1483.03 Q531.631 1486.25 526.399 1486.25 Q520.404 1486.25 517.233 1481.67 Q514.062 1477.06 514.062 1468.33 Q514.062 1460.14 517.95 1455.28 Q521.839 1450.39 528.39 1450.39 Q530.149 1450.39 531.932 1450.74 Q533.737 1451.09 535.682 1451.78 Z" fill="#000000" fill-rule="nonzero" fill-opacity="1" /><path clip-path="url(#clip500)" d="M865.997 1468.75 L895.672 1468.75 L895.672 1472.69 L865.997 1472.69 L865.997 1468.75 Z" fill="#000000" fill-rule="nonzero" fill-opacity="1" /><path clip-path="url(#clip500)" d="M919.932 1466.95 Q923.288 1467.66 925.163 1469.93 Q927.061 1472.2 927.061 1475.53 Q927.061 1480.65 923.543 1483.45 Q920.024 1486.25 913.543 1486.25 Q911.367 1486.25 909.052 1485.81 Q906.76 1485.39 904.307 1484.54 L904.307 1480.02 Q906.251 1481.16 908.566 1481.74 Q910.881 1482.32 913.404 1482.32 Q917.802 1482.32 920.094 1480.58 Q922.408 1478.84 922.408 1475.53 Q922.408 1472.48 920.256 1470.77 Q918.126 1469.03 914.307 1469.03 L910.279 1469.03 L910.279 1465.19 L914.492 1465.19 Q917.941 1465.19 919.77 1463.82 Q921.598 1462.43 921.598 1459.84 Q921.598 1457.18 919.7 1455.77 Q917.825 1454.33 914.307 1454.33 Q912.385 1454.33 910.186 1454.75 Q907.987 1455.16 905.348 1456.04 L905.348 1451.88 Q908.01 1451.14 910.325 1450.77 Q912.663 1450.39 914.723 1450.39 Q920.047 1450.39 923.149 1452.83 Q926.251 1455.23 926.251 1459.35 Q926.251 1462.22 924.607 1464.21 Q922.964 1466.18 919.932 1466.95 Z" fill="#000000" fill-rule="nonzero" fill-opacity="1" /><path clip-path="url(#clip500)" d="M1286.07 1454.1 Q1282.46 1454.1 1280.63 1457.66 Q1278.82 1461.2 1278.82 1468.33 Q1278.82 1475.44 1280.63 1479.01 Q1282.46 1482.55 1286.07 1482.55 Q1289.7 1482.55 1291.51 1479.01 Q1293.34 1475.44 1293.34 1468.33 Q1293.34 1461.2 1291.51 1457.66 Q1289.7 1454.1 1286.07 1454.1 M1286.07 1450.39 Q1291.88 1450.39 1294.93 1455 Q1298.01 1459.58 1298.01 1468.33 Q1298.01 1477.06 1294.93 1481.67 Q1291.88 1486.25 1286.07 1486.25 Q1280.26 1486.25 1277.18 1481.67 Q1274.12 1477.06 1274.12 1468.33 Q1274.12 1459.58 1277.18 1455 Q1280.26 1450.39 1286.07 1450.39 Z" fill="#000000" fill-rule="nonzero" fill-opacity="1" /><path clip-path="url(#clip500)" d="M1679.85 1466.95 Q1683.21 1467.66 1685.09 1469.93 Q1686.98 1472.2 1686.98 1475.53 Q1686.98 1480.65 1683.47 1483.45 Q1679.95 1486.25 1673.47 1486.25 Q1671.29 1486.25 1668.98 1485.81 Q1666.68 1485.39 1664.23 1484.54 L1664.23 1480.02 Q1666.17 1481.16 1668.49 1481.74 Q1670.8 1482.32 1673.33 1482.32 Q1677.73 1482.32 1680.02 1480.58 Q1682.33 1478.84 1682.33 1475.53 Q1682.33 1472.48 1680.18 1470.77 Q1678.05 1469.03 1674.23 1469.03 L1670.2 1469.03 L1670.2 1465.19 L1674.41 1465.19 Q1677.86 1465.19 1679.69 1463.82 Q1681.52 1462.43 1681.52 1459.84 Q1681.52 1457.18 1679.62 1455.77 Q1677.75 1454.33 1674.23 1454.33 Q1672.31 1454.33 1670.11 1454.75 Q1667.91 1455.16 1665.27 1456.04 L1665.27 1451.88 Q1667.93 1451.14 1670.25 1450.77 Q1672.59 1450.39 1674.65 1450.39 Q1679.97 1450.39 1683.07 1452.83 Q1686.17 1455.23 1686.17 1459.35 Q1686.17 1462.22 1684.53 1464.21 Q1682.89 1466.18 1679.85 1466.95 Z" fill="#000000" fill-rule="nonzero" fill-opacity="1" /><path clip-path="url(#clip500)" d="M2065.55 1466.44 Q2062.4 1466.44 2060.55 1468.59 Q2058.72 1470.74 2058.72 1474.49 Q2058.72 1478.22 2060.55 1480.39 Q2062.4 1482.55 2065.55 1482.55 Q2068.7 1482.55 2070.53 1480.39 Q2072.38 1478.22 2072.38 1474.49 Q2072.38 1470.74 2070.53 1468.59 Q2068.7 1466.44 2065.55 1466.44 M2074.83 1451.78 L2074.83 1456.04 Q2073.07 1455.21 2071.27 1454.77 Q2069.49 1454.33 2067.73 1454.33 Q2063.1 1454.33 2060.64 1457.45 Q2058.21 1460.58 2057.87 1466.9 Q2059.23 1464.89 2061.29 1463.82 Q2063.35 1462.73 2065.83 1462.73 Q2071.04 1462.73 2074.05 1465.9 Q2077.08 1469.05 2077.08 1474.49 Q2077.08 1479.82 2073.93 1483.03 Q2070.78 1486.25 2065.55 1486.25 Q2059.56 1486.25 2056.38 1481.67 Q2053.21 1477.06 2053.21 1468.33 Q2053.21 1460.14 2057.1 1455.28 Q2060.99 1450.39 2067.54 1450.39 Q2069.3 1450.39 2071.08 1450.74 Q2072.89 1451.09 2074.83 1451.78 Z" fill="#000000" fill-rule="nonzero" fill-opacity="1" /><path clip-path="url(#clip500)" d="M964.791 1520.52 L994.837 1520.52 L994.837 1525.93 L971.22 1525.93 L971.22 1540 L993.85 1540 L993.85 1545.41 L971.22 1545.41 L971.22 1562.63 L995.41 1562.63 L995.41 1568.04 L964.791 1568.04 L964.791 1520.52 Z" fill="#000000" fill-rule="nonzero" fill-opacity="1" /><path clip-path="url(#clip500)" d="M1005.72 1518.52 L1011.58 1518.52 L1011.58 1568.04 L1005.72 1568.04 L1005.72 1518.52 Z" fill="#000000" fill-rule="nonzero" fill-opacity="1" /><path clip-path="url(#clip500)" d="M1054.32 1548.76 L1054.32 1551.62 L1027.4 1551.62 Q1027.78 1557.67 1031.03 1560.85 Q1034.3 1564 1040.13 1564 Q1043.5 1564 1046.65 1563.17 Q1049.84 1562.35 1052.96 1560.69 L1052.96 1566.23 Q1049.8 1567.57 1046.49 1568.27 Q1043.18 1568.97 1039.78 1568.97 Q1031.25 1568.97 1026.25 1564 Q1021.29 1559.04 1021.29 1550.57 Q1021.29 1541.82 1026 1536.69 Q1030.74 1531.54 1038.76 1531.54 Q1045.95 1531.54 1050.12 1536.18 Q1054.32 1540.8 1054.32 1548.76 M1048.47 1547.04 Q1048.4 1542.23 1045.76 1539.37 Q1043.15 1536.5 1038.82 1536.5 Q1033.92 1536.5 1030.96 1539.27 Q1028.03 1542.04 1027.59 1547.07 L1048.47 1547.04 Z" fill="#000000" fill-rule="nonzero" fill-opacity="1" /><path clip-path="url(#clip500)" d="M1091.69 1539.24 Q1093.89 1535.29 1096.94 1533.41 Q1100 1531.54 1104.14 1531.54 Q1109.71 1531.54 1112.73 1535.45 Q1115.75 1539.33 1115.75 1546.53 L1115.75 1568.04 L1109.87 1568.04 L1109.87 1546.72 Q1109.87 1541.59 1108.05 1539.11 Q1106.24 1536.63 1102.51 1536.63 Q1097.96 1536.63 1095.32 1539.65 Q1092.68 1542.68 1092.68 1547.9 L1092.68 1568.04 L1086.79 1568.04 L1086.79 1546.72 Q1086.79 1541.56 1084.98 1539.11 Q1083.16 1536.63 1079.37 1536.63 Q1074.89 1536.63 1072.24 1539.68 Q1069.6 1542.71 1069.6 1547.9 L1069.6 1568.04 L1063.71 1568.04 L1063.71 1532.4 L1069.6 1532.4 L1069.6 1537.93 Q1071.61 1534.66 1074.41 1533.1 Q1077.21 1531.54 1081.06 1531.54 Q1084.94 1531.54 1087.65 1533.51 Q1090.39 1535.48 1091.69 1539.24 Z" fill="#000000" fill-rule="nonzero" fill-opacity="1" /><path clip-path="url(#clip500)" d="M1157.93 1548.76 L1157.93 1551.62 L1131 1551.62 Q1131.38 1557.67 1134.63 1560.85 Q1137.91 1564 1143.73 1564 Q1147.1 1564 1150.26 1563.17 Q1153.44 1562.35 1156.56 1560.69 L1156.56 1566.23 Q1153.41 1567.57 1150.1 1568.27 Q1146.79 1568.97 1143.38 1568.97 Q1134.85 1568.97 1129.85 1564 Q1124.89 1559.04 1124.89 1550.57 Q1124.89 1541.82 1129.6 1536.69 Q1134.34 1531.54 1142.36 1531.54 Q1149.56 1531.54 1153.72 1536.18 Q1157.93 1540.8 1157.93 1548.76 M1152.07 1547.04 Q1152.01 1542.23 1149.36 1539.37 Q1146.75 1536.5 1142.43 1536.5 Q1137.52 1536.5 1134.56 1539.27 Q1131.64 1542.04 1131.19 1547.07 L1152.07 1547.04 Z" fill="#000000" fill-rule="nonzero" fill-opacity="1" /><path clip-path="url(#clip500)" d="M1197.17 1546.53 L1197.17 1568.04 L1191.31 1568.04 L1191.31 1546.72 Q1191.31 1541.66 1189.34 1539.14 Q1187.37 1536.63 1183.42 1536.63 Q1178.68 1536.63 1175.94 1539.65 Q1173.2 1542.68 1173.2 1547.9 L1173.2 1568.04 L1167.32 1568.04 L1167.32 1532.4 L1173.2 1532.4 L1173.2 1537.93 Q1175.3 1534.72 1178.14 1533.13 Q1181 1531.54 1184.73 1531.54 Q1190.87 1531.54 1194.02 1535.36 Q1197.17 1539.14 1197.17 1546.53 Z" fill="#000000" fill-rule="nonzero" fill-opacity="1" /><path clip-path="url(#clip500)" d="M1214.64 1522.27 L1214.64 1532.4 L1226.71 1532.4 L1226.71 1536.95 L1214.64 1536.95 L1214.64 1556.3 Q1214.64 1560.66 1215.82 1561.9 Q1217.03 1563.14 1220.69 1563.14 L1226.71 1563.14 L1226.71 1568.04 L1220.69 1568.04 Q1213.91 1568.04 1211.33 1565.53 Q1208.76 1562.98 1208.76 1556.3 L1208.76 1536.95 L1204.46 1536.95 L1204.46 1532.4 L1208.76 1532.4 L1208.76 1522.27 L1214.64 1522.27 Z" fill="#000000" fill-rule="nonzero" fill-opacity="1" /><path clip-path="url(#clip500)" d="M1261.81 1525.81 L1261.81 1543.66 L1269.9 1543.66 Q1274.39 1543.66 1276.84 1541.34 Q1279.29 1539.02 1279.29 1534.72 Q1279.29 1530.45 1276.84 1528.13 Q1274.39 1525.81 1269.9 1525.81 L1261.81 1525.81 M1255.39 1520.52 L1269.9 1520.52 Q1277.89 1520.52 1281.96 1524.15 Q1286.07 1527.75 1286.07 1534.72 Q1286.07 1541.75 1281.96 1545.35 Q1277.89 1548.95 1269.9 1548.95 L1261.81 1548.95 L1261.81 1568.04 L1255.39 1568.04 L1255.39 1520.52 Z" fill="#000000" fill-rule="nonzero" fill-opacity="1" /><path clip-path="url(#clip500)" d="M1305.93 1536.5 Q1301.22 1536.5 1298.48 1540.19 Q1295.74 1543.85 1295.74 1550.25 Q1295.74 1556.65 1298.45 1560.34 Q1301.19 1564 1305.93 1564 Q1310.61 1564 1313.35 1560.31 Q1316.08 1556.62 1316.08 1550.25 Q1316.08 1543.92 1313.35 1540.23 Q1310.61 1536.5 1305.93 1536.5 M1305.93 1531.54 Q1313.57 1531.54 1317.93 1536.5 Q1322.29 1541.47 1322.29 1550.25 Q1322.29 1559 1317.93 1564 Q1313.57 1568.97 1305.93 1568.97 Q1298.26 1568.97 1293.9 1564 Q1289.57 1559 1289.57 1550.25 Q1289.57 1541.47 1293.9 1536.5 Q1298.26 1531.54 1305.93 1531.54 Z" fill="#000000" fill-rule="nonzero" fill-opacity="1" /><path clip-path="url(#clip500)" d="M1354.72 1533.45 L1354.72 1538.98 Q1352.24 1537.71 1349.57 1537.07 Q1346.89 1536.44 1344.03 1536.44 Q1339.67 1536.44 1337.47 1537.77 Q1335.31 1539.11 1335.31 1541.79 Q1335.31 1543.82 1336.87 1545 Q1338.43 1546.15 1343.14 1547.2 L1345.14 1547.64 Q1351.38 1548.98 1353.99 1551.43 Q1356.63 1553.85 1356.63 1558.21 Q1356.63 1563.17 1352.69 1566.07 Q1348.77 1568.97 1341.9 1568.97 Q1339.03 1568.97 1335.91 1568.39 Q1332.82 1567.85 1329.39 1566.74 L1329.39 1560.69 Q1332.63 1562.38 1335.78 1563.24 Q1338.94 1564.07 1342.02 1564.07 Q1346.16 1564.07 1348.39 1562.66 Q1350.62 1561.23 1350.62 1558.65 Q1350.62 1556.27 1348.99 1554.99 Q1347.4 1553.72 1341.96 1552.54 L1339.92 1552.07 Q1334.48 1550.92 1332.06 1548.56 Q1329.64 1546.18 1329.64 1542.04 Q1329.64 1537.01 1333.21 1534.27 Q1336.77 1531.54 1343.33 1531.54 Q1346.57 1531.54 1349.44 1532.01 Q1352.3 1532.49 1354.72 1533.45 Z" fill="#000000" fill-rule="nonzero" fill-opacity="1" /><path clip-path="url(#clip500)" d="M1365.96 1532.4 L1371.81 1532.4 L1371.81 1568.04 L1365.96 1568.04 L1365.96 1532.4 M1365.96 1518.52 L1371.81 1518.52 L1371.81 1525.93 L1365.96 1525.93 L1365.96 1518.52 Z" fill="#000000" fill-rule="nonzero" fill-opacity="1" /><path clip-path="url(#clip500)" d="M1389.86 1522.27 L1389.86 1532.4 L1401.92 1532.4 L1401.92 1536.95 L1389.86 1536.95 L1389.86 1556.3 Q1389.86 1560.66 1391.04 1561.9 Q1392.25 1563.14 1395.91 1563.14 L1401.92 1563.14 L1401.92 1568.04 L1395.91 1568.04 Q1389.13 1568.04 1386.55 1565.53 Q1383.97 1562.98 1383.97 1556.3 L1383.97 1536.95 L1379.68 1536.95 L1379.68 1532.4 L1383.97 1532.4 L1383.97 1522.27 L1389.86 1522.27 Z" fill="#000000" fill-rule="nonzero" fill-opacity="1" /><path clip-path="url(#clip500)" d="M1409.63 1532.4 L1415.48 1532.4 L1415.48 1568.04 L1409.63 1568.04 L1409.63 1532.4 M1409.63 1518.52 L1415.48 1518.52 L1415.48 1525.93 L1409.63 1525.93 L1409.63 1518.52 Z" fill="#000000" fill-rule="nonzero" fill-opacity="1" /><path clip-path="url(#clip500)" d="M1441.55 1536.5 Q1436.84 1536.5 1434.1 1540.19 Q1431.37 1543.85 1431.37 1550.25 Q1431.37 1556.65 1434.07 1560.34 Q1436.81 1564 1441.55 1564 Q1446.23 1564 1448.97 1560.31 Q1451.7 1556.62 1451.7 1550.25 Q1451.7 1543.92 1448.97 1540.23 Q1446.23 1536.5 1441.55 1536.5 M1441.55 1531.54 Q1449.19 1531.54 1453.55 1536.5 Q1457.91 1541.47 1457.91 1550.25 Q1457.91 1559 1453.55 1564 Q1449.19 1568.97 1441.55 1568.97 Q1433.88 1568.97 1429.52 1564 Q1425.19 1559 1425.19 1550.25 Q1425.19 1541.47 1429.52 1536.5 Q1433.88 1531.54 1441.55 1531.54 Z" fill="#000000" fill-rule="nonzero" fill-opacity="1" /><path clip-path="url(#clip500)" d="M1497.25 1546.53 L1497.25 1568.04 L1491.39 1568.04 L1491.39 1546.72 Q1491.39 1541.66 1489.42 1539.14 Q1487.45 1536.63 1483.5 1536.63 Q1478.76 1536.63 1476.02 1539.65 Q1473.28 1542.68 1473.28 1547.9 L1473.28 1568.04 L1467.4 1568.04 L1467.4 1532.4 L1473.28 1532.4 L1473.28 1537.93 Q1475.38 1534.72 1478.22 1533.13 Q1481.08 1531.54 1484.81 1531.54 Q1490.95 1531.54 1494.1 1535.36 Q1497.25 1539.14 1497.25 1546.53 Z" fill="#000000" fill-rule="nonzero" fill-opacity="1" /><path clip-path="url(#clip500)" d="M1529.11 1518.52 L1542.61 1518.52 L1542.61 1523.07 L1534.97 1523.07 L1534.97 1572.09 L1542.61 1572.09 L1542.61 1576.64 L1529.11 1576.64 L1529.11 1518.52 Z" fill="#000000" fill-rule="nonzero" fill-opacity="1" /><path clip-path="url(#clip500)" d="M1569.12 1524.09 L1585.57 1568.04 L1579.37 1568.04 L1569.37 1541.69 L1557.09 1568.04 L1550.88 1568.04 L1566.51 1533.86 L1564.15 1527.56 Q1562.66 1523.55 1559.25 1523.55 L1556.2 1523.55 L1556.2 1518.52 L1559.92 1518.58 Q1567.11 1518.68 1569.12 1524.09 Z" fill="#000000" fill-rule="nonzero" fill-opacity="1" /><path clip-path="url(#clip500)" d="M1607.35 1518.52 L1607.35 1576.64 L1593.85 1576.64 L1593.85 1572.09 L1601.46 1572.09 L1601.46 1523.07 L1593.85 1523.07 L1593.85 1518.52 L1607.35 1518.52 Z" fill="#000000" fill-rule="nonzero" fill-opacity="1" /><polyline clip-path="url(#clip500)" style="stroke:#000000; stroke-linecap:round; stroke-linejoin:round; stroke-width:4; stroke-opacity:1; fill:none" points="219.38,1423.18 219.38,123.472 "/>
<polyline clip-path="url(#clip500)" style="stroke:#000000; stroke-linecap:round; stroke-linejoin:round; stroke-width:4; stroke-opacity:1; fill:none" points="219.38,1389.36 238.278,1389.36 "/>
<polyline clip-path="url(#clip500)" style="stroke:#000000; stroke-linecap:round; stroke-linejoin:round; stroke-width:4; stroke-opacity:1; fill:none" points="219.38,1081.34 238.278,1081.34 "/>
<polyline clip-path="url(#clip500)" style="stroke:#000000; stroke-linecap:round; stroke-linejoin:round; stroke-width:4; stroke-opacity:1; fill:none" points="219.38,773.326 238.278,773.326 "/>
<polyline clip-path="url(#clip500)" style="stroke:#000000; stroke-linecap:round; stroke-linejoin:round; stroke-width:4; stroke-opacity:1; fill:none" points="219.38,465.308 238.278,465.308 "/>
<polyline clip-path="url(#clip500)" style="stroke:#000000; stroke-linecap:round; stroke-linejoin:round; stroke-width:4; stroke-opacity:1; fill:none" points="219.38,157.29 238.278,157.29 "/>
<path clip-path="url(#clip500)" d="M126.205 1375.16 Q122.593 1375.16 120.765 1378.73 Q118.959 1382.27 118.959 1389.4 Q118.959 1396.5 120.765 1400.07 Q122.593 1403.61 126.205 1403.61 Q129.839 1403.61 131.644 1400.07 Q133.473 1396.5 133.473 1389.4 Q133.473 1382.27 131.644 1378.73 Q129.839 1375.16 126.205 1375.16 M126.205 1371.46 Q132.015 1371.46 135.07 1376.06 Q138.149 1380.65 138.149 1389.4 Q138.149 1398.12 135.07 1402.73 Q132.015 1407.31 126.205 1407.31 Q120.394 1407.31 117.316 1402.73 Q114.26 1398.12 114.26 1389.4 Q114.26 1380.65 117.316 1376.06 Q120.394 1371.46 126.205 1371.46 Z" fill="#000000" fill-rule="nonzero" fill-opacity="1" /><path clip-path="url(#clip500)" d="M146.366 1400.76 L151.251 1400.76 L151.251 1406.64 L146.366 1406.64 L146.366 1400.76 Z" fill="#000000" fill-rule="nonzero" fill-opacity="1" /><path clip-path="url(#clip500)" d="M171.436 1375.16 Q167.825 1375.16 165.996 1378.73 Q164.19 1382.27 164.19 1389.4 Q164.19 1396.5 165.996 1400.07 Q167.825 1403.61 171.436 1403.61 Q175.07 1403.61 176.876 1400.07 Q178.704 1396.5 178.704 1389.4 Q178.704 1382.27 176.876 1378.73 Q175.07 1375.16 171.436 1375.16 M171.436 1371.46 Q177.246 1371.46 180.301 1376.06 Q183.38 1380.65 183.38 1389.4 Q183.38 1398.12 180.301 1402.73 Q177.246 1407.31 171.436 1407.31 Q165.626 1407.31 162.547 1402.73 Q159.491 1398.12 159.491 1389.4 Q159.491 1380.65 162.547 1376.06 Q165.626 1371.46 171.436 1371.46 Z" fill="#000000" fill-rule="nonzero" fill-opacity="1" /><path clip-path="url(#clip500)" d="M127.2 1067.14 Q123.589 1067.14 121.76 1070.71 Q119.955 1074.25 119.955 1081.38 Q119.955 1088.49 121.76 1092.05 Q123.589 1095.59 127.2 1095.59 Q130.834 1095.59 132.64 1092.05 Q134.468 1088.49 134.468 1081.38 Q134.468 1074.25 132.64 1070.71 Q130.834 1067.14 127.2 1067.14 M127.2 1063.44 Q133.01 1063.44 136.066 1068.05 Q139.144 1072.63 139.144 1081.38 Q139.144 1090.11 136.066 1094.71 Q133.01 1099.3 127.2 1099.3 Q121.39 1099.3 118.311 1094.71 Q115.256 1090.11 115.256 1081.38 Q115.256 1072.63 118.311 1068.05 Q121.39 1063.44 127.2 1063.44 Z" fill="#000000" fill-rule="nonzero" fill-opacity="1" /><path clip-path="url(#clip500)" d="M147.362 1092.74 L152.246 1092.74 L152.246 1098.62 L147.362 1098.62 L147.362 1092.74 Z" fill="#000000" fill-rule="nonzero" fill-opacity="1" /><path clip-path="url(#clip500)" d="M162.477 1064.06 L180.834 1064.06 L180.834 1068 L166.76 1068 L166.76 1076.47 Q167.778 1076.12 168.797 1075.96 Q169.815 1075.78 170.834 1075.78 Q176.621 1075.78 180.001 1078.95 Q183.38 1082.12 183.38 1087.54 Q183.38 1093.11 179.908 1096.22 Q176.436 1099.3 170.116 1099.3 Q167.94 1099.3 165.672 1098.92 Q163.427 1098.55 161.019 1097.81 L161.019 1093.11 Q163.102 1094.25 165.325 1094.8 Q167.547 1095.36 170.024 1095.36 Q174.028 1095.36 176.366 1093.25 Q178.704 1091.15 178.704 1087.54 Q178.704 1083.93 176.366 1081.82 Q174.028 1079.71 170.024 1079.71 Q168.149 1079.71 166.274 1080.13 Q164.422 1080.55 162.477 1081.43 L162.477 1064.06 Z" fill="#000000" fill-rule="nonzero" fill-opacity="1" /><path clip-path="url(#clip500)" d="M117.015 786.671 L124.654 786.671 L124.654 760.305 L116.343 761.972 L116.343 757.713 L124.607 756.046 L129.283 756.046 L129.283 786.671 L136.922 786.671 L136.922 790.606 L117.015 790.606 L117.015 786.671 Z" fill="#000000" fill-rule="nonzero" fill-opacity="1" /><path clip-path="url(#clip500)" d="M146.366 784.726 L151.251 784.726 L151.251 790.606 L146.366 790.606 L146.366 784.726 Z" fill="#000000" fill-rule="nonzero" fill-opacity="1" /><path clip-path="url(#clip500)" d="M171.436 759.125 Q167.825 759.125 165.996 762.689 Q164.19 766.231 164.19 773.361 Q164.19 780.467 165.996 784.032 Q167.825 787.574 171.436 787.574 Q175.07 787.574 176.876 784.032 Q178.704 780.467 178.704 773.361 Q178.704 766.231 176.876 762.689 Q175.07 759.125 171.436 759.125 M171.436 755.421 Q177.246 755.421 180.301 760.027 Q183.38 764.611 183.38 773.361 Q183.38 782.088 180.301 786.694 Q177.246 791.277 171.436 791.277 Q165.626 791.277 162.547 786.694 Q159.491 782.088 159.491 773.361 Q159.491 764.611 162.547 760.027 Q165.626 755.421 171.436 755.421 Z" fill="#000000" fill-rule="nonzero" fill-opacity="1" /><path clip-path="url(#clip500)" d="M118.01 478.653 L125.649 478.653 L125.649 452.287 L117.339 453.954 L117.339 449.695 L125.603 448.028 L130.279 448.028 L130.279 478.653 L137.917 478.653 L137.917 482.588 L118.01 482.588 L118.01 478.653 Z" fill="#000000" fill-rule="nonzero" fill-opacity="1" /><path clip-path="url(#clip500)" d="M147.362 476.708 L152.246 476.708 L152.246 482.588 L147.362 482.588 L147.362 476.708 Z" fill="#000000" fill-rule="nonzero" fill-opacity="1" /><path clip-path="url(#clip500)" d="M162.477 448.028 L180.834 448.028 L180.834 451.963 L166.76 451.963 L166.76 460.435 Q167.778 460.088 168.797 459.926 Q169.815 459.741 170.834 459.741 Q176.621 459.741 180.001 462.912 Q183.38 466.083 183.38 471.5 Q183.38 477.079 179.908 480.181 Q176.436 483.259 170.116 483.259 Q167.94 483.259 165.672 482.889 Q163.427 482.519 161.019 481.778 L161.019 477.079 Q163.102 478.213 165.325 478.769 Q167.547 479.324 170.024 479.324 Q174.028 479.324 176.366 477.218 Q178.704 475.111 178.704 471.5 Q178.704 467.889 176.366 465.782 Q174.028 463.676 170.024 463.676 Q168.149 463.676 166.274 464.093 Q164.422 464.509 162.477 465.389 L162.477 448.028 Z" fill="#000000" fill-rule="nonzero" fill-opacity="1" /><path clip-path="url(#clip500)" d="M120.232 170.635 L136.552 170.635 L136.552 174.57 L114.607 174.57 L114.607 170.635 Q117.269 167.88 121.853 163.251 Q126.459 158.598 127.64 157.255 Q129.885 154.732 130.765 152.996 Q131.667 151.237 131.667 149.547 Q131.667 146.792 129.723 145.056 Q127.802 143.32 124.7 143.32 Q122.501 143.32 120.047 144.084 Q117.617 144.848 114.839 146.399 L114.839 141.677 Q117.663 140.542 120.117 139.964 Q122.57 139.385 124.607 139.385 Q129.978 139.385 133.172 142.07 Q136.367 144.755 136.367 149.246 Q136.367 151.376 135.556 153.297 Q134.769 155.195 132.663 157.788 Q132.084 158.459 128.982 161.676 Q125.88 164.871 120.232 170.635 Z" fill="#000000" fill-rule="nonzero" fill-opacity="1" /><path clip-path="url(#clip500)" d="M146.366 168.69 L151.251 168.69 L151.251 174.57 L146.366 174.57 L146.366 168.69 Z" fill="#000000" fill-rule="nonzero" fill-opacity="1" /><path clip-path="url(#clip500)" d="M171.436 143.089 Q167.825 143.089 165.996 146.653 Q164.19 150.195 164.19 157.325 Q164.19 164.431 165.996 167.996 Q167.825 171.538 171.436 171.538 Q175.07 171.538 176.876 167.996 Q178.704 164.431 178.704 157.325 Q178.704 150.195 176.876 146.653 Q175.07 143.089 171.436 143.089 M171.436 139.385 Q177.246 139.385 180.301 143.991 Q183.38 148.575 183.38 157.325 Q183.38 166.051 180.301 170.658 Q177.246 175.241 171.436 175.241 Q165.626 175.241 162.547 170.658 Q159.491 166.051 159.491 157.325 Q159.491 148.575 162.547 143.991 Q165.626 139.385 171.436 139.385 Z" fill="#000000" fill-rule="nonzero" fill-opacity="1" /><path clip-path="url(#clip500)" d="M16.4842 885.012 L16.4842 878.519 L56.6518 868.525 L16.4842 858.563 L16.4842 851.338 L56.6518 841.344 L16.4842 831.381 L16.4842 824.856 L64.0042 836.792 L64.0042 844.877 L22.7544 854.903 L64.0042 865.024 L64.0042 873.108 L16.4842 885.012 Z" fill="#000000" fill-rule="nonzero" fill-opacity="1" /><path clip-path="url(#clip500)" d="M44.7161 789.909 L47.5806 789.909 L47.5806 816.836 Q53.6281 816.454 56.8109 813.207 Q59.9619 809.929 59.9619 804.104 Q59.9619 800.73 59.1344 797.579 Q58.3069 794.396 56.6518 791.277 L62.1899 791.277 Q63.5267 794.428 64.227 797.738 Q64.9272 801.049 64.9272 804.454 Q64.9272 812.984 59.9619 817.981 Q54.9967 822.947 46.5303 822.947 Q37.7774 822.947 32.6531 818.236 Q27.4968 813.494 27.4968 805.473 Q27.4968 798.28 32.1438 794.11 Q36.7589 789.909 44.7161 789.909 M42.9973 795.765 Q38.1912 795.829 35.3266 798.471 Q32.4621 801.08 32.4621 805.409 Q32.4621 810.311 35.2312 813.271 Q38.0002 816.199 43.0292 816.645 L42.9973 795.765 Z" fill="#000000" fill-rule="nonzero" fill-opacity="1" /><path clip-path="url(#clip500)" d="M28.3562 780.296 L28.3562 774.44 L64.0042 774.44 L64.0042 780.296 L28.3562 780.296 M14.479 780.296 L14.479 774.44 L21.895 774.44 L21.895 780.296 L14.479 780.296 Z" fill="#000000" fill-rule="nonzero" fill-opacity="1" /><path clip-path="url(#clip500)" d="M45.7664 738.728 Q39.4007 738.728 35.8996 741.37 Q32.3984 743.98 32.3984 748.723 Q32.3984 753.433 35.8996 756.075 Q39.4007 758.685 45.7664 758.685 Q52.1003 758.685 55.6014 756.075 Q59.1026 753.433 59.1026 748.723 Q59.1026 743.98 55.6014 741.37 Q52.1003 738.728 45.7664 738.728 M59.58 732.872 Q68.683 732.872 73.1071 736.914 Q77.5631 740.956 77.5631 749.295 Q77.5631 752.383 77.0857 755.12 Q76.6401 757.857 75.6852 760.435 L69.9879 760.435 Q71.3884 757.857 72.0568 755.343 Q72.7252 752.828 72.7252 750.218 Q72.7252 744.458 69.7015 741.593 Q66.7096 738.728 60.6303 738.728 L57.7339 738.728 Q60.885 740.543 62.4446 743.375 Q64.0042 746.208 64.0042 750.155 Q64.0042 756.711 59.0071 760.722 Q54.01 764.732 45.7664 764.732 Q37.491 764.732 32.4939 760.722 Q27.4968 756.711 27.4968 750.155 Q27.4968 746.208 29.0564 743.375 Q30.616 740.543 33.7671 738.728 L28.3562 738.728 L28.3562 732.872 L59.58 732.872 Z" fill="#000000" fill-rule="nonzero" fill-opacity="1" /><path clip-path="url(#clip500)" d="M42.4881 691.177 L64.0042 691.177 L64.0042 697.033 L42.679 697.033 Q37.6183 697.033 35.1038 699.006 Q32.5894 700.98 32.5894 704.926 Q32.5894 709.669 35.6131 712.406 Q38.6368 715.143 43.8567 715.143 L64.0042 715.143 L64.0042 721.032 L14.479 721.032 L14.479 715.143 L33.8944 715.143 Q30.6797 713.043 29.0883 710.21 Q27.4968 707.345 27.4968 703.621 Q27.4968 697.479 31.3163 694.328 Q35.1038 691.177 42.4881 691.177 Z" fill="#000000" fill-rule="nonzero" fill-opacity="1" /><path clip-path="url(#clip500)" d="M18.2347 673.703 L28.3562 673.703 L28.3562 661.64 L32.9077 661.64 L32.9077 673.703 L52.2594 673.703 Q56.6199 673.703 57.8613 672.525 Q59.1026 671.316 59.1026 667.655 L59.1026 661.64 L64.0042 661.64 L64.0042 667.655 Q64.0042 674.435 61.4897 677.013 Q58.9434 679.591 52.2594 679.591 L32.9077 679.591 L32.9077 683.888 L28.3562 683.888 L28.3562 679.591 L18.2347 679.591 L18.2347 673.703 Z" fill="#000000" fill-rule="nonzero" fill-opacity="1" /><path clip-path="url(#clip500)" d="M777.436 20.1573 L766.337 50.2555 L788.576 50.2555 L777.436 20.1573 M772.818 12.096 L782.095 12.096 L805.145 72.576 L796.638 72.576 L791.129 57.061 L763.866 57.061 L758.357 72.576 L749.728 72.576 L772.818 12.096 Z" fill="#000000" fill-rule="nonzero" fill-opacity="1" /><path clip-path="url(#clip500)" d="M851.365 45.1919 L851.365 72.576 L843.912 72.576 L843.912 45.4349 Q843.912 38.994 841.4 35.7938 Q838.889 32.5936 833.866 32.5936 Q827.83 32.5936 824.346 36.4419 Q820.862 40.2903 820.862 46.9338 L820.862 72.576 L813.368 72.576 L813.368 27.2059 L820.862 27.2059 L820.862 34.2544 Q823.536 30.163 827.141 28.1376 Q830.787 26.1121 835.526 26.1121 Q843.345 26.1121 847.355 30.9732 Q851.365 35.7938 851.365 45.1919 Z" fill="#000000" fill-rule="nonzero" fill-opacity="1" /><path clip-path="url(#clip500)" d="M873.605 14.324 L873.605 27.2059 L888.958 27.2059 L888.958 32.9987 L873.605 32.9987 L873.605 57.6282 Q873.605 63.1779 875.104 64.7578 Q876.643 66.3376 881.302 66.3376 L888.958 66.3376 L888.958 72.576 L881.302 72.576 Q872.673 72.576 869.392 69.3758 Q866.111 66.1351 866.111 57.6282 L866.111 32.9987 L860.642 32.9987 L860.642 27.2059 L866.111 27.2059 L866.111 14.324 L873.605 14.324 Z" fill="#000000" fill-rule="nonzero" fill-opacity="1" /><path clip-path="url(#clip500)" d="M937.569 48.0275 L937.569 51.6733 L903.298 51.6733 Q903.784 59.3701 907.916 63.421 Q912.089 67.4314 919.502 67.4314 Q923.796 67.4314 927.806 66.3781 Q931.857 65.3249 935.827 63.2184 L935.827 70.267 Q931.816 71.9684 927.604 72.8596 Q923.391 73.7508 919.056 73.7508 Q908.2 73.7508 901.84 67.4314 Q895.52 61.1119 895.52 50.3365 Q895.52 39.1965 901.516 32.6746 Q907.552 26.1121 917.76 26.1121 Q926.915 26.1121 932.222 32.0264 Q937.569 37.9003 937.569 48.0275 M930.115 45.84 Q930.034 39.7232 926.672 36.0774 Q923.35 32.4315 917.841 32.4315 Q911.602 32.4315 907.835 35.9558 Q904.108 39.4801 903.541 45.8805 L930.115 45.84 Z" fill="#000000" fill-rule="nonzero" fill-opacity="1" /><path clip-path="url(#clip500)" d="M987.516 45.1919 L987.516 72.576 L980.063 72.576 L980.063 45.4349 Q980.063 38.994 977.551 35.7938 Q975.04 32.5936 970.016 32.5936 Q963.981 32.5936 960.497 36.4419 Q957.013 40.2903 957.013 46.9338 L957.013 72.576 L949.519 72.576 L949.519 27.2059 L957.013 27.2059 L957.013 34.2544 Q959.687 30.163 963.292 28.1376 Q966.938 26.1121 971.677 26.1121 Q979.496 26.1121 983.506 30.9732 Q987.516 35.7938 987.516 45.1919 Z" fill="#000000" fill-rule="nonzero" fill-opacity="1" /><path clip-path="url(#clip500)" d="M1040.1 45.1919 L1040.1 72.576 L1032.64 72.576 L1032.64 45.4349 Q1032.64 38.994 1030.13 35.7938 Q1027.62 32.5936 1022.6 32.5936 Q1016.56 32.5936 1013.08 36.4419 Q1009.59 40.2903 1009.59 46.9338 L1009.59 72.576 L1002.1 72.576 L1002.1 27.2059 L1009.59 27.2059 L1009.59 34.2544 Q1012.27 30.163 1015.87 28.1376 Q1019.52 26.1121 1024.26 26.1121 Q1032.08 26.1121 1036.09 30.9732 Q1040.1 35.7938 1040.1 45.1919 Z" fill="#000000" fill-rule="nonzero" fill-opacity="1" /><path clip-path="url(#clip500)" d="M1075.58 49.7694 Q1066.55 49.7694 1063.07 51.8354 Q1059.58 53.9013 1059.58 58.8839 Q1059.58 62.8538 1062.17 65.2034 Q1064.81 67.5124 1069.3 67.5124 Q1075.5 67.5124 1079.23 63.1374 Q1083 58.7219 1083 51.4303 L1083 49.7694 L1075.58 49.7694 M1090.45 46.6907 L1090.45 72.576 L1083 72.576 L1083 65.6895 Q1080.44 69.8214 1076.64 71.8063 Q1072.83 73.7508 1067.32 73.7508 Q1060.35 73.7508 1056.22 69.8619 Q1052.13 65.9325 1052.13 59.3701 Q1052.13 51.7138 1057.23 47.825 Q1062.38 43.9361 1072.54 43.9361 L1083 43.9361 L1083 43.2069 Q1083 38.0623 1079.59 35.2672 Q1076.23 32.4315 1070.11 32.4315 Q1066.23 32.4315 1062.54 33.3632 Q1058.85 34.295 1055.45 36.1584 L1055.45 29.2718 Q1059.54 27.692 1063.39 26.9223 Q1067.24 26.1121 1070.88 26.1121 Q1080.73 26.1121 1085.59 31.2163 Q1090.45 36.3204 1090.45 46.6907 Z" fill="#000000" fill-rule="nonzero" fill-opacity="1" /><path clip-path="url(#clip500)" d="M1132.5 12.096 L1170.74 12.096 L1170.74 18.9825 L1140.68 18.9825 L1140.68 36.8875 L1169.48 36.8875 L1169.48 43.7741 L1140.68 43.7741 L1140.68 65.6895 L1171.47 65.6895 L1171.47 72.576 L1132.5 72.576 L1132.5 12.096 Z" fill="#000000" fill-rule="nonzero" fill-opacity="1" /><path clip-path="url(#clip500)" d="M1184.59 9.54393 L1192.05 9.54393 L1192.05 72.576 L1184.59 72.576 L1184.59 9.54393 Z" fill="#000000" fill-rule="nonzero" fill-opacity="1" /><path clip-path="url(#clip500)" d="M1246.45 48.0275 L1246.45 51.6733 L1212.18 51.6733 Q1212.67 59.3701 1216.8 63.421 Q1220.97 67.4314 1228.38 67.4314 Q1232.68 67.4314 1236.69 66.3781 Q1240.74 65.3249 1244.71 63.2184 L1244.71 70.267 Q1240.7 71.9684 1236.48 72.8596 Q1232.27 73.7508 1227.94 73.7508 Q1217.08 73.7508 1210.72 67.4314 Q1204.4 61.1119 1204.4 50.3365 Q1204.4 39.1965 1210.4 32.6746 Q1216.43 26.1121 1226.64 26.1121 Q1235.8 26.1121 1241.1 32.0264 Q1246.45 37.9003 1246.45 48.0275 M1239 45.84 Q1238.92 39.7232 1235.55 36.0774 Q1232.23 32.4315 1226.72 32.4315 Q1220.48 32.4315 1216.72 35.9558 Q1212.99 39.4801 1212.42 45.8805 L1239 45.84 Z" fill="#000000" fill-rule="nonzero" fill-opacity="1" /><path clip-path="url(#clip500)" d="M1294.01 35.9153 Q1296.8 30.8922 1300.69 28.5022 Q1304.58 26.1121 1309.85 26.1121 Q1316.94 26.1121 1320.78 31.0947 Q1324.63 36.0368 1324.63 45.1919 L1324.63 72.576 L1317.14 72.576 L1317.14 45.4349 Q1317.14 38.913 1314.83 35.7533 Q1312.52 32.5936 1307.78 32.5936 Q1301.99 32.5936 1298.63 36.4419 Q1295.26 40.2903 1295.26 46.9338 L1295.26 72.576 L1287.77 72.576 L1287.77 45.4349 Q1287.77 38.8725 1285.46 35.7533 Q1283.15 32.5936 1278.33 32.5936 Q1272.62 32.5936 1269.26 36.4824 Q1265.89 40.3308 1265.89 46.9338 L1265.89 72.576 L1258.4 72.576 L1258.4 27.2059 L1265.89 27.2059 L1265.89 34.2544 Q1268.45 30.082 1272.01 28.0971 Q1275.58 26.1121 1280.48 26.1121 Q1285.42 26.1121 1288.86 28.6237 Q1292.35 31.1352 1294.01 35.9153 Z" fill="#000000" fill-rule="nonzero" fill-opacity="1" /><path clip-path="url(#clip500)" d="M1378.31 48.0275 L1378.31 51.6733 L1344.04 51.6733 Q1344.52 59.3701 1348.65 63.421 Q1352.83 67.4314 1360.24 67.4314 Q1364.53 67.4314 1368.54 66.3781 Q1372.6 65.3249 1376.57 63.2184 L1376.57 70.267 Q1372.55 71.9684 1368.34 72.8596 Q1364.13 73.7508 1359.79 73.7508 Q1348.94 73.7508 1342.58 67.4314 Q1336.26 61.1119 1336.26 50.3365 Q1336.26 39.1965 1342.25 32.6746 Q1348.29 26.1121 1358.5 26.1121 Q1367.65 26.1121 1372.96 32.0264 Q1378.31 37.9003 1378.31 48.0275 M1370.85 45.84 Q1370.77 39.7232 1367.41 36.0774 Q1364.09 32.4315 1358.58 32.4315 Q1352.34 32.4315 1348.57 35.9558 Q1344.85 39.4801 1344.28 45.8805 L1370.85 45.84 Z" fill="#000000" fill-rule="nonzero" fill-opacity="1" /><path clip-path="url(#clip500)" d="M1428.25 45.1919 L1428.25 72.576 L1420.8 72.576 L1420.8 45.4349 Q1420.8 38.994 1418.29 35.7938 Q1415.78 32.5936 1410.75 32.5936 Q1404.72 32.5936 1401.24 36.4419 Q1397.75 40.2903 1397.75 46.9338 L1397.75 72.576 L1390.26 72.576 L1390.26 27.2059 L1397.75 27.2059 L1397.75 34.2544 Q1400.43 30.163 1404.03 28.1376 Q1407.68 26.1121 1412.42 26.1121 Q1420.23 26.1121 1424.24 30.9732 Q1428.25 35.7938 1428.25 45.1919 Z" fill="#000000" fill-rule="nonzero" fill-opacity="1" /><path clip-path="url(#clip500)" d="M1450.49 14.324 L1450.49 27.2059 L1465.85 27.2059 L1465.85 32.9987 L1450.49 32.9987 L1450.49 57.6282 Q1450.49 63.1779 1451.99 64.7578 Q1453.53 66.3376 1458.19 66.3376 L1465.85 66.3376 L1465.85 72.576 L1458.19 72.576 Q1449.56 72.576 1446.28 69.3758 Q1443 66.1351 1443 57.6282 L1443 32.9987 L1437.53 32.9987 L1437.53 27.2059 L1443 27.2059 L1443 14.324 L1450.49 14.324 Z" fill="#000000" fill-rule="nonzero" fill-opacity="1" /><path clip-path="url(#clip500)" d="M1496.96 12.096 L1505.22 12.096 L1517.94 63.2184 L1530.62 12.096 L1539.82 12.096 L1552.54 63.2184 L1565.22 12.096 L1573.52 12.096 L1558.33 72.576 L1548.04 72.576 L1535.28 20.0763 L1522.4 72.576 L1512.11 72.576 L1496.96 12.096 Z" fill="#000000" fill-rule="nonzero" fill-opacity="1" /><path clip-path="url(#clip500)" d="M1618 48.0275 L1618 51.6733 L1583.73 51.6733 Q1584.21 59.3701 1588.35 63.421 Q1592.52 67.4314 1599.93 67.4314 Q1604.23 67.4314 1608.24 66.3781 Q1612.29 65.3249 1616.26 63.2184 L1616.26 70.267 Q1612.25 71.9684 1608.03 72.8596 Q1603.82 73.7508 1599.49 73.7508 Q1588.63 73.7508 1582.27 67.4314 Q1575.95 61.1119 1575.95 50.3365 Q1575.95 39.1965 1581.95 32.6746 Q1587.98 26.1121 1598.19 26.1121 Q1607.35 26.1121 1612.65 32.0264 Q1618 37.9003 1618 48.0275 M1610.55 45.84 Q1610.46 39.7232 1607.1 36.0774 Q1603.78 32.4315 1598.27 32.4315 Q1592.03 32.4315 1588.27 35.9558 Q1584.54 39.4801 1583.97 45.8805 L1610.55 45.84 Z" fill="#000000" fill-rule="nonzero" fill-opacity="1" /><path clip-path="url(#clip500)" d="M1630.23 27.2059 L1637.69 27.2059 L1637.69 72.576 L1630.23 72.576 L1630.23 27.2059 M1630.23 9.54393 L1637.69 9.54393 L1637.69 18.9825 L1630.23 18.9825 L1630.23 9.54393 Z" fill="#000000" fill-rule="nonzero" fill-opacity="1" /><path clip-path="url(#clip500)" d="M1683.14 49.3643 Q1683.14 41.2625 1679.78 36.8065 Q1676.45 32.3505 1670.42 32.3505 Q1664.42 32.3505 1661.06 36.8065 Q1657.74 41.2625 1657.74 49.3643 Q1657.74 57.4256 1661.06 61.8816 Q1664.42 66.3376 1670.42 66.3376 Q1676.45 66.3376 1679.78 61.8816 Q1683.14 57.4256 1683.14 49.3643 M1690.59 66.9452 Q1690.59 78.5308 1685.45 84.1616 Q1680.3 89.8329 1669.69 89.8329 Q1665.76 89.8329 1662.28 89.2252 Q1658.79 88.6581 1655.51 87.4428 L1655.51 80.1917 Q1658.79 81.9741 1661.99 82.8248 Q1665.19 83.6755 1668.51 83.6755 Q1675.85 83.6755 1679.49 79.8271 Q1683.14 76.0193 1683.14 68.282 L1683.14 64.5957 Q1680.83 68.6061 1677.22 70.5911 Q1673.62 72.576 1668.59 72.576 Q1660.25 72.576 1655.15 66.2161 Q1650.04 59.8562 1650.04 49.3643 Q1650.04 38.832 1655.15 32.472 Q1660.25 26.1121 1668.59 26.1121 Q1673.62 26.1121 1677.22 28.0971 Q1680.83 30.082 1683.14 34.0924 L1683.14 27.2059 L1690.59 27.2059 L1690.59 66.9452 Z" fill="#000000" fill-rule="nonzero" fill-opacity="1" /><path clip-path="url(#clip500)" d="M1743.66 45.1919 L1743.66 72.576 L1736.2 72.576 L1736.2 45.4349 Q1736.2 38.994 1733.69 35.7938 Q1731.18 32.5936 1726.16 32.5936 Q1720.12 32.5936 1716.64 36.4419 Q1713.15 40.2903 1713.15 46.9338 L1713.15 72.576 L1705.66 72.576 L1705.66 9.54393 L1713.15 9.54393 L1713.15 34.2544 Q1715.83 30.163 1719.43 28.1376 Q1723.08 26.1121 1727.82 26.1121 Q1735.64 26.1121 1739.65 30.9732 Q1743.66 35.7938 1743.66 45.1919 Z" fill="#000000" fill-rule="nonzero" fill-opacity="1" /><path clip-path="url(#clip500)" d="M1765.9 14.324 L1765.9 27.2059 L1781.25 27.2059 L1781.25 32.9987 L1765.9 32.9987 L1765.9 57.6282 Q1765.9 63.1779 1767.4 64.7578 Q1768.94 66.3376 1773.59 66.3376 L1781.25 66.3376 L1781.25 72.576 L1773.59 72.576 Q1764.97 72.576 1761.68 69.3758 Q1758.4 66.1351 1758.4 57.6282 L1758.4 32.9987 L1752.93 32.9987 L1752.93 27.2059 L1758.4 27.2059 L1758.4 14.324 L1765.9 14.324 Z" fill="#000000" fill-rule="nonzero" fill-opacity="1" /><path clip-path="url(#clip500)" d="M1819.98 28.5427 L1819.98 35.5912 Q1816.82 33.9709 1813.41 33.1607 Q1810.01 32.3505 1806.37 32.3505 Q1800.82 32.3505 1798.02 34.0519 Q1795.27 35.7533 1795.27 39.156 Q1795.27 41.7486 1797.25 43.2475 Q1799.24 44.7058 1805.23 46.0426 L1807.78 46.6097 Q1815.72 48.3111 1819.05 51.4303 Q1822.41 54.509 1822.41 60.0587 Q1822.41 66.3781 1817.38 70.0644 Q1812.4 73.7508 1803.65 73.7508 Q1800.01 73.7508 1796.04 73.0216 Q1792.11 72.3329 1787.73 70.9151 L1787.73 63.2184 Q1791.86 65.3654 1795.87 66.4591 Q1799.88 67.5124 1803.81 67.5124 Q1809.08 67.5124 1811.92 65.73 Q1814.75 63.9071 1814.75 60.6258 Q1814.75 57.5877 1812.69 55.9673 Q1810.66 54.3469 1803.73 52.8481 L1801.14 52.2405 Q1794.21 50.7821 1791.13 47.7845 Q1788.06 44.7463 1788.06 39.4801 Q1788.06 33.0797 1792.59 29.5959 Q1797.13 26.1121 1805.47 26.1121 Q1809.61 26.1121 1813.25 26.7198 Q1816.9 27.3274 1819.98 28.5427 Z" fill="#000000" fill-rule="nonzero" fill-opacity="1" /><circle clip-path="url(#clip502)" cx="279.759" cy="1061.43" r="14.4" fill="#009af9" fill-rule="evenodd" fill-opacity="1" stroke="#000000" stroke-opacity="1" stroke-width="3.2"/>
<circle clip-path="url(#clip502)" cx="344.682" cy="1049.96" r="14.4" fill="#009af9" fill-rule="evenodd" fill-opacity="1" stroke="#000000" stroke-opacity="1" stroke-width="3.2"/>
<circle clip-path="url(#clip502)" cx="409.605" cy="1027.37" r="14.4" fill="#009af9" fill-rule="evenodd" fill-opacity="1" stroke="#000000" stroke-opacity="1" stroke-width="3.2"/>
<circle clip-path="url(#clip502)" cx="474.528" cy="994.415" r="14.4" fill="#009af9" fill-rule="evenodd" fill-opacity="1" stroke="#000000" stroke-opacity="1" stroke-width="3.2"/>
<circle clip-path="url(#clip502)" cx="539.451" cy="952.335" r="14.4" fill="#009af9" fill-rule="evenodd" fill-opacity="1" stroke="#000000" stroke-opacity="1" stroke-width="3.2"/>
<circle clip-path="url(#clip502)" cx="604.375" cy="902.877" r="14.4" fill="#009af9" fill-rule="evenodd" fill-opacity="1" stroke="#000000" stroke-opacity="1" stroke-width="3.2"/>
<circle clip-path="url(#clip502)" cx="669.298" cy="848.29" r="14.4" fill="#009af9" fill-rule="evenodd" fill-opacity="1" stroke="#000000" stroke-opacity="1" stroke-width="3.2"/>
<circle clip-path="url(#clip502)" cx="734.221" cy="791.194" r="14.4" fill="#009af9" fill-rule="evenodd" fill-opacity="1" stroke="#000000" stroke-opacity="1" stroke-width="3.2"/>
<circle clip-path="url(#clip502)" cx="799.144" cy="734.369" r="14.4" fill="#009af9" fill-rule="evenodd" fill-opacity="1" stroke="#000000" stroke-opacity="1" stroke-width="3.2"/>
<circle clip-path="url(#clip502)" cx="864.067" cy="680.484" r="14.4" fill="#009af9" fill-rule="evenodd" fill-opacity="1" stroke="#000000" stroke-opacity="1" stroke-width="3.2"/>
<circle clip-path="url(#clip502)" cx="928.991" cy="631.829" r="14.4" fill="#009af9" fill-rule="evenodd" fill-opacity="1" stroke="#000000" stroke-opacity="1" stroke-width="3.2"/>
<circle clip-path="url(#clip502)" cx="993.914" cy="590.123" r="14.4" fill="#009af9" fill-rule="evenodd" fill-opacity="1" stroke="#000000" stroke-opacity="1" stroke-width="3.2"/>
<circle clip-path="url(#clip502)" cx="1058.84" cy="556.432" r="14.4" fill="#009af9" fill-rule="evenodd" fill-opacity="1" stroke="#000000" stroke-opacity="1" stroke-width="3.2"/>
<circle clip-path="url(#clip502)" cx="1123.76" cy="531.231" r="14.4" fill="#009af9" fill-rule="evenodd" fill-opacity="1" stroke="#000000" stroke-opacity="1" stroke-width="3.2"/>
<circle clip-path="url(#clip502)" cx="1188.68" cy="514.572" r="14.4" fill="#009af9" fill-rule="evenodd" fill-opacity="1" stroke="#000000" stroke-opacity="1" stroke-width="3.2"/>
<circle clip-path="url(#clip502)" cx="1253.61" cy="506.309" r="14.4" fill="#009af9" fill-rule="evenodd" fill-opacity="1" stroke="#000000" stroke-opacity="1" stroke-width="3.2"/>
<circle clip-path="url(#clip502)" cx="1318.53" cy="506.309" r="14.4" fill="#009af9" fill-rule="evenodd" fill-opacity="1" stroke="#000000" stroke-opacity="1" stroke-width="3.2"/>
<circle clip-path="url(#clip502)" cx="1383.45" cy="514.572" r="14.4" fill="#009af9" fill-rule="evenodd" fill-opacity="1" stroke="#000000" stroke-opacity="1" stroke-width="3.2"/>
<circle clip-path="url(#clip502)" cx="1448.38" cy="531.231" r="14.4" fill="#009af9" fill-rule="evenodd" fill-opacity="1" stroke="#000000" stroke-opacity="1" stroke-width="3.2"/>
<circle clip-path="url(#clip502)" cx="1513.3" cy="556.432" r="14.4" fill="#009af9" fill-rule="evenodd" fill-opacity="1" stroke="#000000" stroke-opacity="1" stroke-width="3.2"/>
<circle clip-path="url(#clip502)" cx="1578.22" cy="590.123" r="14.4" fill="#009af9" fill-rule="evenodd" fill-opacity="1" stroke="#000000" stroke-opacity="1" stroke-width="3.2"/>
<circle clip-path="url(#clip502)" cx="1643.15" cy="631.829" r="14.4" fill="#009af9" fill-rule="evenodd" fill-opacity="1" stroke="#000000" stroke-opacity="1" stroke-width="3.2"/>
<circle clip-path="url(#clip502)" cx="1708.07" cy="680.484" r="14.4" fill="#009af9" fill-rule="evenodd" fill-opacity="1" stroke="#000000" stroke-opacity="1" stroke-width="3.2"/>
<circle clip-path="url(#clip502)" cx="1772.99" cy="734.369" r="14.4" fill="#009af9" fill-rule="evenodd" fill-opacity="1" stroke="#000000" stroke-opacity="1" stroke-width="3.2"/>
<circle clip-path="url(#clip502)" cx="1837.92" cy="791.194" r="14.4" fill="#009af9" fill-rule="evenodd" fill-opacity="1" stroke="#000000" stroke-opacity="1" stroke-width="3.2"/>
<circle clip-path="url(#clip502)" cx="1902.84" cy="848.29" r="14.4" fill="#009af9" fill-rule="evenodd" fill-opacity="1" stroke="#000000" stroke-opacity="1" stroke-width="3.2"/>
<circle clip-path="url(#clip502)" cx="1967.76" cy="902.877" r="14.4" fill="#009af9" fill-rule="evenodd" fill-opacity="1" stroke="#000000" stroke-opacity="1" stroke-width="3.2"/>
<circle clip-path="url(#clip502)" cx="2032.68" cy="952.335" r="14.4" fill="#009af9" fill-rule="evenodd" fill-opacity="1" stroke="#000000" stroke-opacity="1" stroke-width="3.2"/>
<circle clip-path="url(#clip502)" cx="2097.61" cy="994.415" r="14.4" fill="#009af9" fill-rule="evenodd" fill-opacity="1" stroke="#000000" stroke-opacity="1" stroke-width="3.2"/>
<circle clip-path="url(#clip502)" cx="2162.53" cy="1027.37" r="14.4" fill="#009af9" fill-rule="evenodd" fill-opacity="1" stroke="#000000" stroke-opacity="1" stroke-width="3.2"/>
<circle clip-path="url(#clip502)" cx="2227.45" cy="1049.96" r="14.4" fill="#009af9" fill-rule="evenodd" fill-opacity="1" stroke="#000000" stroke-opacity="1" stroke-width="3.2"/>
<circle clip-path="url(#clip502)" cx="2292.38" cy="1061.43" r="14.4" fill="#009af9" fill-rule="evenodd" fill-opacity="1" stroke="#000000" stroke-opacity="1" stroke-width="3.2"/>
<circle clip-path="url(#clip502)" cx="279.759" cy="1341.9" r="14.4" fill="#e26f46" fill-rule="evenodd" fill-opacity="1" stroke="#000000" stroke-opacity="1" stroke-width="3.2"/>
<circle clip-path="url(#clip502)" cx="344.682" cy="1247.43" r="14.4" fill="#e26f46" fill-rule="evenodd" fill-opacity="1" stroke="#000000" stroke-opacity="1" stroke-width="3.2"/>
<circle clip-path="url(#clip502)" cx="409.605" cy="1154.33" r="14.4" fill="#e26f46" fill-rule="evenodd" fill-opacity="1" stroke="#000000" stroke-opacity="1" stroke-width="3.2"/>
<circle clip-path="url(#clip502)" cx="474.528" cy="1063.5" r="14.4" fill="#e26f46" fill-rule="evenodd" fill-opacity="1" stroke="#000000" stroke-opacity="1" stroke-width="3.2"/>
<circle clip-path="url(#clip502)" cx="539.451" cy="975.797" r="14.4" fill="#e26f46" fill-rule="evenodd" fill-opacity="1" stroke="#000000" stroke-opacity="1" stroke-width="3.2"/>
<circle clip-path="url(#clip502)" cx="604.375" cy="892.081" r="14.4" fill="#e26f46" fill-rule="evenodd" fill-opacity="1" stroke="#000000" stroke-opacity="1" stroke-width="3.2"/>
<circle clip-path="url(#clip502)" cx="669.298" cy="813.155" r="14.4" fill="#e26f46" fill-rule="evenodd" fill-opacity="1" stroke="#000000" stroke-opacity="1" stroke-width="3.2"/>
<circle clip-path="url(#clip502)" cx="734.221" cy="739.777" r="14.4" fill="#e26f46" fill-rule="evenodd" fill-opacity="1" stroke="#000000" stroke-opacity="1" stroke-width="3.2"/>
<circle clip-path="url(#clip502)" cx="799.144" cy="672.656" r="14.4" fill="#e26f46" fill-rule="evenodd" fill-opacity="1" stroke="#000000" stroke-opacity="1" stroke-width="3.2"/>
<circle clip-path="url(#clip502)" cx="864.067" cy="612.437" r="14.4" fill="#e26f46" fill-rule="evenodd" fill-opacity="1" stroke="#000000" stroke-opacity="1" stroke-width="3.2"/>
<circle clip-path="url(#clip502)" cx="928.991" cy="559.7" r="14.4" fill="#e26f46" fill-rule="evenodd" fill-opacity="1" stroke="#000000" stroke-opacity="1" stroke-width="3.2"/>
<circle clip-path="url(#clip502)" cx="993.914" cy="514.953" r="14.4" fill="#e26f46" fill-rule="evenodd" fill-opacity="1" stroke="#000000" stroke-opacity="1" stroke-width="3.2"/>
<circle clip-path="url(#clip502)" cx="1058.84" cy="478.627" r="14.4" fill="#e26f46" fill-rule="evenodd" fill-opacity="1" stroke="#000000" stroke-opacity="1" stroke-width="3.2"/>
<circle clip-path="url(#clip502)" cx="1123.76" cy="451.072" r="14.4" fill="#e26f46" fill-rule="evenodd" fill-opacity="1" stroke="#000000" stroke-opacity="1" stroke-width="3.2"/>
<circle clip-path="url(#clip502)" cx="1188.68" cy="432.553" r="14.4" fill="#e26f46" fill-rule="evenodd" fill-opacity="1" stroke="#000000" stroke-opacity="1" stroke-width="3.2"/>
<circle clip-path="url(#clip502)" cx="1253.61" cy="423.249" r="14.4" fill="#e26f46" fill-rule="evenodd" fill-opacity="1" stroke="#000000" stroke-opacity="1" stroke-width="3.2"/>
<circle clip-path="url(#clip502)" cx="1318.53" cy="423.249" r="14.4" fill="#e26f46" fill-rule="evenodd" fill-opacity="1" stroke="#000000" stroke-opacity="1" stroke-width="3.2"/>
<circle clip-path="url(#clip502)" cx="1383.45" cy="432.553" r="14.4" fill="#e26f46" fill-rule="evenodd" fill-opacity="1" stroke="#000000" stroke-opacity="1" stroke-width="3.2"/>
<circle clip-path="url(#clip502)" cx="1448.38" cy="451.072" r="14.4" fill="#e26f46" fill-rule="evenodd" fill-opacity="1" stroke="#000000" stroke-opacity="1" stroke-width="3.2"/>
<circle clip-path="url(#clip502)" cx="1513.3" cy="478.627" r="14.4" fill="#e26f46" fill-rule="evenodd" fill-opacity="1" stroke="#000000" stroke-opacity="1" stroke-width="3.2"/>
<circle clip-path="url(#clip502)" cx="1578.22" cy="514.953" r="14.4" fill="#e26f46" fill-rule="evenodd" fill-opacity="1" stroke="#000000" stroke-opacity="1" stroke-width="3.2"/>
<circle clip-path="url(#clip502)" cx="1643.15" cy="559.7" r="14.4" fill="#e26f46" fill-rule="evenodd" fill-opacity="1" stroke="#000000" stroke-opacity="1" stroke-width="3.2"/>
<circle clip-path="url(#clip502)" cx="1708.07" cy="612.437" r="14.4" fill="#e26f46" fill-rule="evenodd" fill-opacity="1" stroke="#000000" stroke-opacity="1" stroke-width="3.2"/>
<circle clip-path="url(#clip502)" cx="1772.99" cy="672.656" r="14.4" fill="#e26f46" fill-rule="evenodd" fill-opacity="1" stroke="#000000" stroke-opacity="1" stroke-width="3.2"/>
<circle clip-path="url(#clip502)" cx="1837.92" cy="739.777" r="14.4" fill="#e26f46" fill-rule="evenodd" fill-opacity="1" stroke="#000000" stroke-opacity="1" stroke-width="3.2"/>
<circle clip-path="url(#clip502)" cx="1902.84" cy="813.155" r="14.4" fill="#e26f46" fill-rule="evenodd" fill-opacity="1" stroke="#000000" stroke-opacity="1" stroke-width="3.2"/>
<circle clip-path="url(#clip502)" cx="1967.76" cy="892.081" r="14.4" fill="#e26f46" fill-rule="evenodd" fill-opacity="1" stroke="#000000" stroke-opacity="1" stroke-width="3.2"/>
<circle clip-path="url(#clip502)" cx="2032.68" cy="975.797" r="14.4" fill="#e26f46" fill-rule="evenodd" fill-opacity="1" stroke="#000000" stroke-opacity="1" stroke-width="3.2"/>
<circle clip-path="url(#clip502)" cx="2097.61" cy="1063.5" r="14.4" fill="#e26f46" fill-rule="evenodd" fill-opacity="1" stroke="#000000" stroke-opacity="1" stroke-width="3.2"/>
<circle clip-path="url(#clip502)" cx="2162.53" cy="1154.33" r="14.4" fill="#e26f46" fill-rule="evenodd" fill-opacity="1" stroke="#000000" stroke-opacity="1" stroke-width="3.2"/>
<circle clip-path="url(#clip502)" cx="2227.45" cy="1247.43" r="14.4" fill="#e26f46" fill-rule="evenodd" fill-opacity="1" stroke="#000000" stroke-opacity="1" stroke-width="3.2"/>
<circle clip-path="url(#clip502)" cx="2292.38" cy="1341.9" r="14.4" fill="#e26f46" fill-rule="evenodd" fill-opacity="1" stroke="#000000" stroke-opacity="1" stroke-width="3.2"/>
<circle clip-path="url(#clip502)" cx="279.759" cy="1386.4" r="14.4" fill="#3da44d" fill-rule="evenodd" fill-opacity="1" stroke="#000000" stroke-opacity="1" stroke-width="3.2"/>
<circle clip-path="url(#clip502)" cx="344.682" cy="1362.84" r="14.4" fill="#3da44d" fill-rule="evenodd" fill-opacity="1" stroke="#000000" stroke-opacity="1" stroke-width="3.2"/>
<circle clip-path="url(#clip502)" cx="409.605" cy="1316.62" r="14.4" fill="#3da44d" fill-rule="evenodd" fill-opacity="1" stroke="#000000" stroke-opacity="1" stroke-width="3.2"/>
<circle clip-path="url(#clip502)" cx="474.528" cy="1249.53" r="14.4" fill="#3da44d" fill-rule="evenodd" fill-opacity="1" stroke="#000000" stroke-opacity="1" stroke-width="3.2"/>
<circle clip-path="url(#clip502)" cx="539.451" cy="1164.14" r="14.4" fill="#3da44d" fill-rule="evenodd" fill-opacity="1" stroke="#000000" stroke-opacity="1" stroke-width="3.2"/>
<circle clip-path="url(#clip502)" cx="604.375" cy="1063.72" r="14.4" fill="#3da44d" fill-rule="evenodd" fill-opacity="1" stroke="#000000" stroke-opacity="1" stroke-width="3.2"/>
<circle clip-path="url(#clip502)" cx="669.298" cy="952.152" r="14.4" fill="#3da44d" fill-rule="evenodd" fill-opacity="1" stroke="#000000" stroke-opacity="1" stroke-width="3.2"/>
<circle clip-path="url(#clip502)" cx="734.221" cy="833.708" r="14.4" fill="#3da44d" fill-rule="evenodd" fill-opacity="1" stroke="#000000" stroke-opacity="1" stroke-width="3.2"/>
<circle clip-path="url(#clip502)" cx="799.144" cy="712.944" r="14.4" fill="#3da44d" fill-rule="evenodd" fill-opacity="1" stroke="#000000" stroke-opacity="1" stroke-width="3.2"/>
<circle clip-path="url(#clip502)" cx="864.067" cy="594.5" r="14.4" fill="#3da44d" fill-rule="evenodd" fill-opacity="1" stroke="#000000" stroke-opacity="1" stroke-width="3.2"/>
<circle clip-path="url(#clip502)" cx="928.991" cy="482.929" r="14.4" fill="#3da44d" fill-rule="evenodd" fill-opacity="1" stroke="#000000" stroke-opacity="1" stroke-width="3.2"/>
<circle clip-path="url(#clip502)" cx="993.914" cy="382.517" r="14.4" fill="#3da44d" fill-rule="evenodd" fill-opacity="1" stroke="#000000" stroke-opacity="1" stroke-width="3.2"/>
<circle clip-path="url(#clip502)" cx="1058.84" cy="297.124" r="14.4" fill="#3da44d" fill-rule="evenodd" fill-opacity="1" stroke="#000000" stroke-opacity="1" stroke-width="3.2"/>
<circle clip-path="url(#clip502)" cx="1123.76" cy="230.031" r="14.4" fill="#3da44d" fill-rule="evenodd" fill-opacity="1" stroke="#000000" stroke-opacity="1" stroke-width="3.2"/>
<circle clip-path="url(#clip502)" cx="1188.68" cy="183.816" r="14.4" fill="#3da44d" fill-rule="evenodd" fill-opacity="1" stroke="#000000" stroke-opacity="1" stroke-width="3.2"/>
<circle clip-path="url(#clip502)" cx="1253.61" cy="160.256" r="14.4" fill="#3da44d" fill-rule="evenodd" fill-opacity="1" stroke="#000000" stroke-opacity="1" stroke-width="3.2"/>
<circle clip-path="url(#clip502)" cx="1318.53" cy="160.256" r="14.4" fill="#3da44d" fill-rule="evenodd" fill-opacity="1" stroke="#000000" stroke-opacity="1" stroke-width="3.2"/>
<circle clip-path="url(#clip502)" cx="1383.45" cy="183.816" r="14.4" fill="#3da44d" fill-rule="evenodd" fill-opacity="1" stroke="#000000" stroke-opacity="1" stroke-width="3.2"/>
<circle clip-path="url(#clip502)" cx="1448.38" cy="230.031" r="14.4" fill="#3da44d" fill-rule="evenodd" fill-opacity="1" stroke="#000000" stroke-opacity="1" stroke-width="3.2"/>
<circle clip-path="url(#clip502)" cx="1513.3" cy="297.124" r="14.4" fill="#3da44d" fill-rule="evenodd" fill-opacity="1" stroke="#000000" stroke-opacity="1" stroke-width="3.2"/>
<circle clip-path="url(#clip502)" cx="1578.22" cy="382.517" r="14.4" fill="#3da44d" fill-rule="evenodd" fill-opacity="1" stroke="#000000" stroke-opacity="1" stroke-width="3.2"/>
<circle clip-path="url(#clip502)" cx="1643.15" cy="482.929" r="14.4" fill="#3da44d" fill-rule="evenodd" fill-opacity="1" stroke="#000000" stroke-opacity="1" stroke-width="3.2"/>
<circle clip-path="url(#clip502)" cx="1708.07" cy="594.5" r="14.4" fill="#3da44d" fill-rule="evenodd" fill-opacity="1" stroke="#000000" stroke-opacity="1" stroke-width="3.2"/>
<circle clip-path="url(#clip502)" cx="1772.99" cy="712.944" r="14.4" fill="#3da44d" fill-rule="evenodd" fill-opacity="1" stroke="#000000" stroke-opacity="1" stroke-width="3.2"/>
<circle clip-path="url(#clip502)" cx="1837.92" cy="833.708" r="14.4" fill="#3da44d" fill-rule="evenodd" fill-opacity="1" stroke="#000000" stroke-opacity="1" stroke-width="3.2"/>
<circle clip-path="url(#clip502)" cx="1902.84" cy="952.152" r="14.4" fill="#3da44d" fill-rule="evenodd" fill-opacity="1" stroke="#000000" stroke-opacity="1" stroke-width="3.2"/>
<circle clip-path="url(#clip502)" cx="1967.76" cy="1063.72" r="14.4" fill="#3da44d" fill-rule="evenodd" fill-opacity="1" stroke="#000000" stroke-opacity="1" stroke-width="3.2"/>
<circle clip-path="url(#clip502)" cx="2032.68" cy="1164.14" r="14.4" fill="#3da44d" fill-rule="evenodd" fill-opacity="1" stroke="#000000" stroke-opacity="1" stroke-width="3.2"/>
<circle clip-path="url(#clip502)" cx="2097.61" cy="1249.53" r="14.4" fill="#3da44d" fill-rule="evenodd" fill-opacity="1" stroke="#000000" stroke-opacity="1" stroke-width="3.2"/>
<circle clip-path="url(#clip502)" cx="2162.53" cy="1316.62" r="14.4" fill="#3da44d" fill-rule="evenodd" fill-opacity="1" stroke="#000000" stroke-opacity="1" stroke-width="3.2"/>
<circle clip-path="url(#clip502)" cx="2227.45" cy="1362.84" r="14.4" fill="#3da44d" fill-rule="evenodd" fill-opacity="1" stroke="#000000" stroke-opacity="1" stroke-width="3.2"/>
<circle clip-path="url(#clip502)" cx="2292.38" cy="1386.4" r="14.4" fill="#3da44d" fill-rule="evenodd" fill-opacity="1" stroke="#000000" stroke-opacity="1" stroke-width="3.2"/>
<path clip-path="url(#clip500)" d="M1677.57 374.156 L2281.64 374.156 L2281.64 166.796 L1677.57 166.796  Z" fill="#ffffff" fill-rule="evenodd" fill-opacity="1"/>
<polyline clip-path="url(#clip500)" style="stroke:#000000; stroke-linecap:round; stroke-linejoin:round; stroke-width:4; stroke-opacity:1; fill:none" points="1677.57,374.156 2281.64,374.156 2281.64,166.796 1677.57,166.796 1677.57,374.156 "/>
<circle clip-path="url(#clip500)" cx="1772.38" cy="218.636" r="20.48" fill="#009af9" fill-rule="evenodd" fill-opacity="1" stroke="#000000" stroke-opacity="1" stroke-width="4.55111"/>
<path clip-path="url(#clip500)" d="M1867.2 201.356 L1896.44 201.356 L1896.44 205.291 L1884.17 205.291 L1884.17 235.916 L1879.47 235.916 L1879.47 205.291 L1867.2 205.291 L1867.2 201.356 Z" fill="#000000" fill-rule="nonzero" fill-opacity="1" /><path clip-path="url(#clip500)" d="M1904.7 222.883 Q1899.54 222.883 1897.55 224.064 Q1895.56 225.244 1895.56 228.092 Q1895.56 230.36 1897.04 231.703 Q1898.54 233.022 1901.11 233.022 Q1904.65 233.022 1906.78 230.522 Q1908.94 227.999 1908.94 223.832 L1908.94 222.883 L1904.7 222.883 M1913.2 221.124 L1913.2 235.916 L1908.94 235.916 L1908.94 231.981 Q1907.48 234.342 1905.3 235.476 Q1903.13 236.587 1899.98 236.587 Q1896 236.587 1893.64 234.365 Q1891.3 232.119 1891.3 228.369 Q1891.3 223.994 1894.21 221.772 Q1897.15 219.55 1902.96 219.55 L1908.94 219.55 L1908.94 219.133 Q1908.94 216.194 1906.99 214.596 Q1905.07 212.976 1901.58 212.976 Q1899.35 212.976 1897.25 213.508 Q1895.14 214.041 1893.2 215.106 L1893.2 211.17 Q1895.53 210.268 1897.73 209.828 Q1899.93 209.365 1902.02 209.365 Q1907.64 209.365 1910.42 212.282 Q1913.2 215.198 1913.2 221.124 Z" fill="#000000" fill-rule="nonzero" fill-opacity="1" /><path clip-path="url(#clip500)" d="M1932.76 238.323 Q1930.95 242.953 1929.24 244.365 Q1927.52 245.777 1924.65 245.777 L1921.25 245.777 L1921.25 242.212 L1923.75 242.212 Q1925.51 242.212 1926.48 241.379 Q1927.45 240.545 1928.64 237.443 L1929.4 235.499 L1918.91 209.99 L1923.43 209.99 L1931.53 230.268 L1939.63 209.99 L1944.14 209.99 L1932.76 238.323 Z" fill="#000000" fill-rule="nonzero" fill-opacity="1" /><path clip-path="url(#clip500)" d="M1950.02 199.897 L1954.28 199.897 L1954.28 235.916 L1950.02 235.916 L1950.02 199.897 Z" fill="#000000" fill-rule="nonzero" fill-opacity="1" /><path clip-path="url(#clip500)" d="M1973.24 212.976 Q1969.82 212.976 1967.83 215.661 Q1965.83 218.323 1965.83 222.976 Q1965.83 227.629 1967.8 230.314 Q1969.79 232.976 1973.24 232.976 Q1976.64 232.976 1978.64 230.291 Q1980.63 227.606 1980.63 222.976 Q1980.63 218.37 1978.64 215.684 Q1976.64 212.976 1973.24 212.976 M1973.24 209.365 Q1978.8 209.365 1981.97 212.976 Q1985.14 216.587 1985.14 222.976 Q1985.14 229.342 1981.97 232.976 Q1978.8 236.587 1973.24 236.587 Q1967.66 236.587 1964.49 232.976 Q1961.34 229.342 1961.34 222.976 Q1961.34 216.587 1964.49 212.976 Q1967.66 209.365 1973.24 209.365 Z" fill="#000000" fill-rule="nonzero" fill-opacity="1" /><path clip-path="url(#clip500)" d="M2007.22 213.971 Q2006.51 213.555 2005.65 213.37 Q2004.82 213.161 2003.8 213.161 Q2000.19 213.161 1998.24 215.522 Q1996.32 217.86 1996.32 222.258 L1996.32 235.916 L1992.04 235.916 L1992.04 209.99 L1996.32 209.99 L1996.32 214.018 Q1997.66 211.657 1999.82 210.522 Q2001.97 209.365 2005.05 209.365 Q2005.49 209.365 2006.02 209.434 Q2006.55 209.481 2007.2 209.596 L2007.22 213.971 Z" fill="#000000" fill-rule="nonzero" fill-opacity="1" /><path clip-path="url(#clip500)" d="M2024.28 209.99 L2028.54 209.99 L2033.87 230.221 L2039.17 209.99 L2044.19 209.99 L2049.51 230.221 L2054.82 209.99 L2059.07 209.99 L2052.29 235.916 L2047.27 235.916 L2041.69 214.666 L2036.09 235.916 L2031.07 235.916 L2024.28 209.99 Z" fill="#000000" fill-rule="nonzero" fill-opacity="1" /><path clip-path="url(#clip500)" d="M2087.71 221.888 L2087.71 223.971 L2068.13 223.971 Q2068.4 228.369 2070.76 230.684 Q2073.15 232.976 2077.38 232.976 Q2079.84 232.976 2082.13 232.374 Q2084.44 231.772 2086.71 230.569 L2086.71 234.596 Q2084.42 235.568 2082.01 236.078 Q2079.61 236.587 2077.13 236.587 Q2070.93 236.587 2067.29 232.976 Q2063.68 229.365 2063.68 223.207 Q2063.68 216.842 2067.11 213.115 Q2070.56 209.365 2076.39 209.365 Q2081.62 209.365 2084.65 212.745 Q2087.71 216.101 2087.71 221.888 M2083.45 220.638 Q2083.4 217.143 2081.48 215.059 Q2079.58 212.976 2076.44 212.976 Q2072.87 212.976 2070.72 214.99 Q2068.59 217.004 2068.26 220.661 L2083.45 220.638 Z" fill="#000000" fill-rule="nonzero" fill-opacity="1" /><path clip-path="url(#clip500)" d="M2094.7 209.99 L2098.96 209.99 L2098.96 235.916 L2094.7 235.916 L2094.7 209.99 M2094.7 199.897 L2098.96 199.897 L2098.96 205.291 L2094.7 205.291 L2094.7 199.897 Z" fill="#000000" fill-rule="nonzero" fill-opacity="1" /><path clip-path="url(#clip500)" d="M2124.93 222.652 Q2124.93 218.022 2123.01 215.476 Q2121.11 212.93 2117.66 212.93 Q2114.24 212.93 2112.31 215.476 Q2110.42 218.022 2110.42 222.652 Q2110.42 227.258 2112.31 229.805 Q2114.24 232.351 2117.66 232.351 Q2121.11 232.351 2123.01 229.805 Q2124.93 227.258 2124.93 222.652 M2129.19 232.698 Q2129.19 239.318 2126.25 242.536 Q2123.31 245.777 2117.25 245.777 Q2115 245.777 2113.01 245.43 Q2111.02 245.105 2109.14 244.411 L2109.14 240.268 Q2111.02 241.286 2112.85 241.772 Q2114.68 242.258 2116.57 242.258 Q2120.76 242.258 2122.85 240.059 Q2124.93 237.883 2124.93 233.462 L2124.93 231.356 Q2123.61 233.647 2121.55 234.781 Q2119.49 235.916 2116.62 235.916 Q2111.85 235.916 2108.94 232.281 Q2106.02 228.647 2106.02 222.652 Q2106.02 216.633 2108.94 212.999 Q2111.85 209.365 2116.62 209.365 Q2119.49 209.365 2121.55 210.499 Q2123.61 211.633 2124.93 213.925 L2124.93 209.99 L2129.19 209.99 L2129.19 232.698 Z" fill="#000000" fill-rule="nonzero" fill-opacity="1" /><path clip-path="url(#clip500)" d="M2159.51 220.268 L2159.51 235.916 L2155.25 235.916 L2155.25 220.407 Q2155.25 216.726 2153.82 214.897 Q2152.38 213.069 2149.51 213.069 Q2146.06 213.069 2144.07 215.268 Q2142.08 217.467 2142.08 221.263 L2142.08 235.916 L2137.8 235.916 L2137.8 199.897 L2142.08 199.897 L2142.08 214.018 Q2143.61 211.68 2145.67 210.522 Q2147.75 209.365 2150.46 209.365 Q2154.93 209.365 2157.22 212.143 Q2159.51 214.897 2159.51 220.268 Z" fill="#000000" fill-rule="nonzero" fill-opacity="1" /><path clip-path="url(#clip500)" d="M2172.22 202.629 L2172.22 209.99 L2181 209.99 L2181 213.3 L2172.22 213.3 L2172.22 227.374 Q2172.22 230.545 2173.08 231.448 Q2173.96 232.351 2176.62 232.351 L2181 232.351 L2181 235.916 L2176.62 235.916 Q2171.69 235.916 2169.81 234.087 Q2167.94 232.235 2167.94 227.374 L2167.94 213.3 L2164.81 213.3 L2164.81 209.99 L2167.94 209.99 L2167.94 202.629 L2172.22 202.629 Z" fill="#000000" fill-rule="nonzero" fill-opacity="1" /><path clip-path="url(#clip500)" d="M2203.12 210.754 L2203.12 214.782 Q2201.32 213.856 2199.37 213.393 Q2197.43 212.93 2195.35 212.93 Q2192.18 212.93 2190.58 213.902 Q2189 214.874 2189 216.819 Q2189 218.3 2190.14 219.157 Q2191.27 219.99 2194.7 220.754 L2196.16 221.078 Q2200.69 222.05 2202.59 223.832 Q2204.51 225.592 2204.51 228.763 Q2204.51 232.374 2201.64 234.481 Q2198.8 236.587 2193.8 236.587 Q2191.71 236.587 2189.44 236.17 Q2187.2 235.777 2184.7 234.967 L2184.7 230.569 Q2187.06 231.795 2189.35 232.42 Q2191.64 233.022 2193.89 233.022 Q2196.9 233.022 2198.52 232.004 Q2200.14 230.962 2200.14 229.087 Q2200.14 227.351 2198.96 226.425 Q2197.8 225.499 2193.84 224.643 L2192.36 224.295 Q2188.4 223.462 2186.64 221.749 Q2184.88 220.013 2184.88 217.004 Q2184.88 213.346 2187.48 211.356 Q2190.07 209.365 2194.84 209.365 Q2197.2 209.365 2199.28 209.712 Q2201.37 210.059 2203.12 210.754 Z" fill="#000000" fill-rule="nonzero" fill-opacity="1" /><circle clip-path="url(#clip500)" cx="1772.38" cy="270.476" r="20.48" fill="#e26f46" fill-rule="evenodd" fill-opacity="1" stroke="#000000" stroke-opacity="1" stroke-width="4.55111"/>
<path clip-path="url(#clip500)" d="M1895.07 255.858 L1895.07 260.788 Q1892.71 258.589 1890.02 257.501 Q1887.36 256.413 1884.35 256.413 Q1878.43 256.413 1875.28 260.048 Q1872.13 263.659 1872.13 270.51 Q1872.13 277.339 1875.28 280.973 Q1878.43 284.584 1884.35 284.584 Q1887.36 284.584 1890.02 283.496 Q1892.71 282.409 1895.07 280.209 L1895.07 285.094 Q1892.62 286.76 1889.86 287.594 Q1887.13 288.427 1884.08 288.427 Q1876.23 288.427 1871.71 283.635 Q1867.2 278.821 1867.2 270.51 Q1867.2 262.177 1871.71 257.386 Q1876.23 252.571 1884.08 252.571 Q1887.18 252.571 1889.91 253.404 Q1892.66 254.214 1895.07 255.858 Z" fill="#000000" fill-rule="nonzero" fill-opacity="1" /><path clip-path="url(#clip500)" d="M1912.15 264.816 Q1908.73 264.816 1906.74 267.501 Q1904.75 270.163 1904.75 274.816 Q1904.75 279.469 1906.71 282.154 Q1908.7 284.816 1912.15 284.816 Q1915.56 284.816 1917.55 282.131 Q1919.54 279.446 1919.54 274.816 Q1919.54 270.21 1917.55 267.524 Q1915.56 264.816 1912.15 264.816 M1912.15 261.205 Q1917.71 261.205 1920.88 264.816 Q1924.05 268.427 1924.05 274.816 Q1924.05 281.182 1920.88 284.816 Q1917.71 288.427 1912.15 288.427 Q1906.58 288.427 1903.4 284.816 Q1900.26 281.182 1900.26 274.816 Q1900.26 268.427 1903.4 264.816 Q1906.58 261.205 1912.15 261.205 Z" fill="#000000" fill-rule="nonzero" fill-opacity="1" /><path clip-path="url(#clip500)" d="M1947.64 262.594 L1947.64 266.622 Q1945.83 265.696 1943.89 265.233 Q1941.95 264.77 1939.86 264.77 Q1936.69 264.77 1935.09 265.742 Q1933.52 266.714 1933.52 268.659 Q1933.52 270.14 1934.65 270.997 Q1935.79 271.83 1939.21 272.594 L1940.67 272.918 Q1945.21 273.89 1947.11 275.672 Q1949.03 277.432 1949.03 280.603 Q1949.03 284.214 1946.16 286.321 Q1943.31 288.427 1938.31 288.427 Q1936.23 288.427 1933.96 288.01 Q1931.71 287.617 1929.21 286.807 L1929.21 282.409 Q1931.58 283.635 1933.87 284.26 Q1936.16 284.862 1938.4 284.862 Q1941.41 284.862 1943.03 283.844 Q1944.65 282.802 1944.65 280.927 Q1944.65 279.191 1943.47 278.265 Q1942.32 277.339 1938.36 276.483 L1936.88 276.135 Q1932.92 275.302 1931.16 273.589 Q1929.4 271.853 1929.4 268.844 Q1929.4 265.186 1931.99 263.196 Q1934.58 261.205 1939.35 261.205 Q1941.71 261.205 1943.8 261.552 Q1945.88 261.899 1947.64 262.594 Z" fill="#000000" fill-rule="nonzero" fill-opacity="1" /><path clip-path="url(#clip500)" d="M1955.81 261.83 L1960.07 261.83 L1960.07 287.756 L1955.81 287.756 L1955.81 261.83 M1955.81 251.737 L1960.07 251.737 L1960.07 257.131 L1955.81 257.131 L1955.81 251.737 Z" fill="#000000" fill-rule="nonzero" fill-opacity="1" /><path clip-path="url(#clip500)" d="M1990.53 272.108 L1990.53 287.756 L1986.27 287.756 L1986.27 272.247 Q1986.27 268.566 1984.84 266.737 Q1983.4 264.909 1980.53 264.909 Q1977.08 264.909 1975.09 267.108 Q1973.1 269.307 1973.1 273.103 L1973.1 287.756 L1968.82 287.756 L1968.82 261.83 L1973.1 261.83 L1973.1 265.858 Q1974.63 263.52 1976.69 262.362 Q1978.77 261.205 1981.48 261.205 Q1985.95 261.205 1988.24 263.983 Q1990.53 266.737 1990.53 272.108 Z" fill="#000000" fill-rule="nonzero" fill-opacity="1" /><path clip-path="url(#clip500)" d="M2021.2 273.728 L2021.2 275.811 L2001.62 275.811 Q2001.9 280.209 2004.26 282.524 Q2006.64 284.816 2010.88 284.816 Q2013.33 284.816 2015.63 284.214 Q2017.94 283.612 2020.21 282.409 L2020.21 286.436 Q2017.92 287.408 2015.51 287.918 Q2013.1 288.427 2010.63 288.427 Q2004.42 288.427 2000.79 284.816 Q1997.18 281.205 1997.18 275.047 Q1997.18 268.682 2000.6 264.955 Q2004.05 261.205 2009.88 261.205 Q2015.12 261.205 2018.15 264.585 Q2021.2 267.941 2021.2 273.728 M2016.95 272.478 Q2016.9 268.983 2014.98 266.899 Q2013.08 264.816 2009.93 264.816 Q2006.37 264.816 2004.21 266.83 Q2002.08 268.844 2001.76 272.501 L2016.95 272.478 Z" fill="#000000" fill-rule="nonzero" fill-opacity="1" /><path clip-path="url(#clip500)" d="M2040.79 261.83 L2045.05 261.83 L2050.37 282.061 L2055.67 261.83 L2060.69 261.83 L2066.02 282.061 L2071.32 261.83 L2075.58 261.83 L2068.8 287.756 L2063.77 287.756 L2058.19 266.506 L2052.59 287.756 L2047.57 287.756 L2040.79 261.83 Z" fill="#000000" fill-rule="nonzero" fill-opacity="1" /><path clip-path="url(#clip500)" d="M2104.21 273.728 L2104.21 275.811 L2084.63 275.811 Q2084.91 280.209 2087.27 282.524 Q2089.65 284.816 2093.89 284.816 Q2096.34 284.816 2098.63 284.214 Q2100.95 283.612 2103.22 282.409 L2103.22 286.436 Q2100.93 287.408 2098.52 287.918 Q2096.11 288.427 2093.63 288.427 Q2087.43 288.427 2083.8 284.816 Q2080.19 281.205 2080.19 275.047 Q2080.19 268.682 2083.61 264.955 Q2087.06 261.205 2092.89 261.205 Q2098.13 261.205 2101.16 264.585 Q2104.21 267.941 2104.21 273.728 M2099.95 272.478 Q2099.91 268.983 2097.99 266.899 Q2096.09 264.816 2092.94 264.816 Q2089.38 264.816 2087.22 266.83 Q2085.09 268.844 2084.77 272.501 L2099.95 272.478 Z" fill="#000000" fill-rule="nonzero" fill-opacity="1" /><path clip-path="url(#clip500)" d="M2111.2 261.83 L2115.46 261.83 L2115.46 287.756 L2111.2 287.756 L2111.2 261.83 M2111.2 251.737 L2115.46 251.737 L2115.46 257.131 L2111.2 257.131 L2111.2 251.737 Z" fill="#000000" fill-rule="nonzero" fill-opacity="1" /><path clip-path="url(#clip500)" d="M2141.44 274.492 Q2141.44 269.862 2139.51 267.316 Q2137.62 264.77 2134.17 264.77 Q2130.74 264.77 2128.82 267.316 Q2126.92 269.862 2126.92 274.492 Q2126.92 279.098 2128.82 281.645 Q2130.74 284.191 2134.17 284.191 Q2137.62 284.191 2139.51 281.645 Q2141.44 279.098 2141.44 274.492 M2145.69 284.538 Q2145.69 291.158 2142.75 294.376 Q2139.81 297.617 2133.75 297.617 Q2131.5 297.617 2129.51 297.27 Q2127.52 296.945 2125.65 296.251 L2125.65 292.108 Q2127.52 293.126 2129.35 293.612 Q2131.18 294.098 2133.08 294.098 Q2137.27 294.098 2139.35 291.899 Q2141.44 289.723 2141.44 285.302 L2141.44 283.196 Q2140.12 285.487 2138.06 286.621 Q2136 287.756 2133.13 287.756 Q2128.36 287.756 2125.44 284.121 Q2122.52 280.487 2122.52 274.492 Q2122.52 268.473 2125.44 264.839 Q2128.36 261.205 2133.13 261.205 Q2136 261.205 2138.06 262.339 Q2140.12 263.473 2141.44 265.765 L2141.44 261.83 L2145.69 261.83 L2145.69 284.538 Z" fill="#000000" fill-rule="nonzero" fill-opacity="1" /><path clip-path="url(#clip500)" d="M2176.02 272.108 L2176.02 287.756 L2171.76 287.756 L2171.76 272.247 Q2171.76 268.566 2170.32 266.737 Q2168.89 264.909 2166.02 264.909 Q2162.57 264.909 2160.58 267.108 Q2158.59 269.307 2158.59 273.103 L2158.59 287.756 L2154.31 287.756 L2154.31 251.737 L2158.59 251.737 L2158.59 265.858 Q2160.12 263.52 2162.18 262.362 Q2164.26 261.205 2166.97 261.205 Q2171.44 261.205 2173.73 263.983 Q2176.02 266.737 2176.02 272.108 Z" fill="#000000" fill-rule="nonzero" fill-opacity="1" /><path clip-path="url(#clip500)" d="M2188.73 254.469 L2188.73 261.83 L2197.5 261.83 L2197.5 265.14 L2188.73 265.14 L2188.73 279.214 Q2188.73 282.385 2189.58 283.288 Q2190.46 284.191 2193.12 284.191 L2197.5 284.191 L2197.5 287.756 L2193.12 287.756 Q2188.19 287.756 2186.32 285.927 Q2184.44 284.075 2184.44 279.214 L2184.44 265.14 L2181.32 265.14 L2181.32 261.83 L2184.44 261.83 L2184.44 254.469 L2188.73 254.469 Z" fill="#000000" fill-rule="nonzero" fill-opacity="1" /><path clip-path="url(#clip500)" d="M2219.63 262.594 L2219.63 266.622 Q2217.82 265.696 2215.88 265.233 Q2213.93 264.77 2211.85 264.77 Q2208.68 264.77 2207.08 265.742 Q2205.51 266.714 2205.51 268.659 Q2205.51 270.14 2206.64 270.997 Q2207.78 271.83 2211.2 272.594 L2212.66 272.918 Q2217.2 273.89 2219.1 275.672 Q2221.02 277.432 2221.02 280.603 Q2221.02 284.214 2218.15 286.321 Q2215.3 288.427 2210.3 288.427 Q2208.22 288.427 2205.95 288.01 Q2203.7 287.617 2201.2 286.807 L2201.2 282.409 Q2203.56 283.635 2205.86 284.26 Q2208.15 284.862 2210.39 284.862 Q2213.4 284.862 2215.02 283.844 Q2216.64 282.802 2216.64 280.927 Q2216.64 279.191 2215.46 278.265 Q2214.31 277.339 2210.35 276.483 L2208.87 276.135 Q2204.91 275.302 2203.15 273.589 Q2201.39 271.853 2201.39 268.844 Q2201.39 265.186 2203.98 263.196 Q2206.57 261.205 2211.34 261.205 Q2213.7 261.205 2215.79 261.552 Q2217.87 261.899 2219.63 262.594 Z" fill="#000000" fill-rule="nonzero" fill-opacity="1" /><circle clip-path="url(#clip500)" cx="1772.38" cy="322.316" r="20.48" fill="#3da44d" fill-rule="evenodd" fill-opacity="1" stroke="#000000" stroke-opacity="1" stroke-width="4.55111"/>
<path clip-path="url(#clip500)" d="M1867.2 305.036 L1871.88 305.036 L1871.88 319.202 L1888.87 319.202 L1888.87 305.036 L1893.54 305.036 L1893.54 339.596 L1888.87 339.596 L1888.87 323.137 L1871.88 323.137 L1871.88 339.596 L1867.2 339.596 L1867.2 305.036 Z" fill="#000000" fill-rule="nonzero" fill-opacity="1" /><path clip-path="url(#clip500)" d="M1914.45 326.563 Q1909.28 326.563 1907.29 327.744 Q1905.3 328.924 1905.3 331.772 Q1905.3 334.04 1906.78 335.383 Q1908.29 336.702 1910.86 336.702 Q1914.4 336.702 1916.53 334.202 Q1918.68 331.679 1918.68 327.512 L1918.68 326.563 L1914.45 326.563 M1922.94 324.804 L1922.94 339.596 L1918.68 339.596 L1918.68 335.661 Q1917.22 338.022 1915.05 339.156 Q1912.87 340.267 1909.72 340.267 Q1905.74 340.267 1903.38 338.045 Q1901.04 335.799 1901.04 332.049 Q1901.04 327.674 1903.96 325.452 Q1906.9 323.23 1912.71 323.23 L1918.68 323.23 L1918.68 322.813 Q1918.68 319.874 1916.74 318.276 Q1914.82 316.656 1911.32 316.656 Q1909.1 316.656 1906.99 317.188 Q1904.89 317.721 1902.94 318.786 L1902.94 314.85 Q1905.28 313.948 1907.48 313.508 Q1909.68 313.045 1911.76 313.045 Q1917.39 313.045 1920.16 315.962 Q1922.94 318.878 1922.94 324.804 Z" fill="#000000" fill-rule="nonzero" fill-opacity="1" /><path clip-path="url(#clip500)" d="M1953.26 323.948 L1953.26 339.596 L1949.01 339.596 L1949.01 324.087 Q1949.01 320.406 1947.57 318.577 Q1946.14 316.749 1943.26 316.749 Q1939.82 316.749 1937.83 318.948 Q1935.83 321.147 1935.83 324.943 L1935.83 339.596 L1931.55 339.596 L1931.55 313.67 L1935.83 313.67 L1935.83 317.698 Q1937.36 315.36 1939.42 314.202 Q1941.51 313.045 1944.21 313.045 Q1948.68 313.045 1950.97 315.823 Q1953.26 318.577 1953.26 323.948 Z" fill="#000000" fill-rule="nonzero" fill-opacity="1" /><path clip-path="url(#clip500)" d="M1983.31 323.948 L1983.31 339.596 L1979.05 339.596 L1979.05 324.087 Q1979.05 320.406 1977.62 318.577 Q1976.18 316.749 1973.31 316.749 Q1969.86 316.749 1967.87 318.948 Q1965.88 321.147 1965.88 324.943 L1965.88 339.596 L1961.6 339.596 L1961.6 313.67 L1965.88 313.67 L1965.88 317.698 Q1967.41 315.36 1969.47 314.202 Q1971.55 313.045 1974.26 313.045 Q1978.73 313.045 1981.02 315.823 Q1983.31 318.577 1983.31 323.948 Z" fill="#000000" fill-rule="nonzero" fill-opacity="1" /><path clip-path="url(#clip500)" d="M1991.81 313.67 L1996.07 313.67 L1996.07 339.596 L1991.81 339.596 L1991.81 313.67 M1991.81 303.577 L1996.07 303.577 L1996.07 308.971 L1991.81 308.971 L1991.81 303.577 Z" fill="#000000" fill-rule="nonzero" fill-opacity="1" /><path clip-path="url(#clip500)" d="M2026.53 323.948 L2026.53 339.596 L2022.27 339.596 L2022.27 324.087 Q2022.27 320.406 2020.83 318.577 Q2019.4 316.749 2016.53 316.749 Q2013.08 316.749 2011.09 318.948 Q2009.1 321.147 2009.1 324.943 L2009.1 339.596 L2004.82 339.596 L2004.82 313.67 L2009.1 313.67 L2009.1 317.698 Q2010.63 315.36 2012.69 314.202 Q2014.77 313.045 2017.48 313.045 Q2021.95 313.045 2024.24 315.823 Q2026.53 318.577 2026.53 323.948 Z" fill="#000000" fill-rule="nonzero" fill-opacity="1" /><path clip-path="url(#clip500)" d="M2052.08 326.332 Q2052.08 321.702 2050.16 319.156 Q2048.26 316.61 2044.82 316.61 Q2041.39 316.61 2039.47 319.156 Q2037.57 321.702 2037.57 326.332 Q2037.57 330.938 2039.47 333.485 Q2041.39 336.031 2044.82 336.031 Q2048.26 336.031 2050.16 333.485 Q2052.08 330.938 2052.08 326.332 M2056.34 336.378 Q2056.34 342.998 2053.4 346.216 Q2050.46 349.457 2044.4 349.457 Q2042.15 349.457 2040.16 349.11 Q2038.17 348.785 2036.3 348.091 L2036.3 343.948 Q2038.17 344.966 2040 345.452 Q2041.83 345.938 2043.73 345.938 Q2047.92 345.938 2050 343.739 Q2052.08 341.563 2052.08 337.142 L2052.08 335.036 Q2050.76 337.327 2048.7 338.461 Q2046.64 339.596 2043.77 339.596 Q2039.01 339.596 2036.09 335.961 Q2033.17 332.327 2033.17 326.332 Q2033.17 320.313 2036.09 316.679 Q2039.01 313.045 2043.77 313.045 Q2046.64 313.045 2048.7 314.179 Q2050.76 315.313 2052.08 317.605 L2052.08 313.67 L2056.34 313.67 L2056.34 336.378 Z" fill="#000000" fill-rule="nonzero" fill-opacity="1" /><path clip-path="url(#clip500)" d="M2077.71 313.67 L2081.97 313.67 L2087.29 333.901 L2092.59 313.67 L2097.62 313.67 L2102.94 333.901 L2108.24 313.67 L2112.5 313.67 L2105.72 339.596 L2100.69 339.596 L2095.12 318.346 L2089.51 339.596 L2084.49 339.596 L2077.71 313.67 Z" fill="#000000" fill-rule="nonzero" fill-opacity="1" /><path clip-path="url(#clip500)" d="M2141.13 325.568 L2141.13 327.651 L2121.55 327.651 Q2121.83 332.049 2124.19 334.364 Q2126.57 336.656 2130.81 336.656 Q2133.26 336.656 2135.56 336.054 Q2137.87 335.452 2140.14 334.249 L2140.14 338.276 Q2137.85 339.248 2135.44 339.758 Q2133.03 340.267 2130.56 340.267 Q2124.35 340.267 2120.72 336.656 Q2117.11 333.045 2117.11 326.887 Q2117.11 320.522 2120.53 316.795 Q2123.98 313.045 2129.81 313.045 Q2135.05 313.045 2138.08 316.425 Q2141.13 319.781 2141.13 325.568 M2136.88 324.318 Q2136.83 320.823 2134.91 318.739 Q2133.01 316.656 2129.86 316.656 Q2126.3 316.656 2124.14 318.67 Q2122.01 320.684 2121.69 324.341 L2136.88 324.318 Z" fill="#000000" fill-rule="nonzero" fill-opacity="1" /><path clip-path="url(#clip500)" d="M2148.12 313.67 L2152.38 313.67 L2152.38 339.596 L2148.12 339.596 L2148.12 313.67 M2148.12 303.577 L2152.38 303.577 L2152.38 308.971 L2148.12 308.971 L2148.12 303.577 Z" fill="#000000" fill-rule="nonzero" fill-opacity="1" /><path clip-path="url(#clip500)" d="M2178.36 326.332 Q2178.36 321.702 2176.44 319.156 Q2174.54 316.61 2171.09 316.61 Q2167.66 316.61 2165.74 319.156 Q2163.84 321.702 2163.84 326.332 Q2163.84 330.938 2165.74 333.485 Q2167.66 336.031 2171.09 336.031 Q2174.54 336.031 2176.44 333.485 Q2178.36 330.938 2178.36 326.332 M2182.62 336.378 Q2182.62 342.998 2179.68 346.216 Q2176.74 349.457 2170.67 349.457 Q2168.43 349.457 2166.44 349.11 Q2164.44 348.785 2162.57 348.091 L2162.57 343.948 Q2164.44 344.966 2166.27 345.452 Q2168.1 345.938 2170 345.938 Q2174.19 345.938 2176.27 343.739 Q2178.36 341.563 2178.36 337.142 L2178.36 335.036 Q2177.04 337.327 2174.98 338.461 Q2172.92 339.596 2170.05 339.596 Q2165.28 339.596 2162.36 335.961 Q2159.44 332.327 2159.44 326.332 Q2159.44 320.313 2162.36 316.679 Q2165.28 313.045 2170.05 313.045 Q2172.92 313.045 2174.98 314.179 Q2177.04 315.313 2178.36 317.605 L2178.36 313.67 L2182.62 313.67 L2182.62 336.378 Z" fill="#000000" fill-rule="nonzero" fill-opacity="1" /><path clip-path="url(#clip500)" d="M2212.94 323.948 L2212.94 339.596 L2208.68 339.596 L2208.68 324.087 Q2208.68 320.406 2207.25 318.577 Q2205.81 316.749 2202.94 316.749 Q2199.49 316.749 2197.5 318.948 Q2195.51 321.147 2195.51 324.943 L2195.51 339.596 L2191.23 339.596 L2191.23 303.577 L2195.51 303.577 L2195.51 317.698 Q2197.04 315.36 2199.1 314.202 Q2201.18 313.045 2203.89 313.045 Q2208.36 313.045 2210.65 315.823 Q2212.94 318.577 2212.94 323.948 Z" fill="#000000" fill-rule="nonzero" fill-opacity="1" /><path clip-path="url(#clip500)" d="M2225.65 306.309 L2225.65 313.67 L2234.42 313.67 L2234.42 316.98 L2225.65 316.98 L2225.65 331.054 Q2225.65 334.225 2226.5 335.128 Q2227.38 336.031 2230.05 336.031 L2234.42 336.031 L2234.42 339.596 L2230.05 339.596 Q2225.12 339.596 2223.24 337.767 Q2221.37 335.915 2221.37 331.054 L2221.37 316.98 L2218.24 316.98 L2218.24 313.67 L2221.37 313.67 L2221.37 306.309 L2225.65 306.309 Z" fill="#000000" fill-rule="nonzero" fill-opacity="1" /><path clip-path="url(#clip500)" d="M2256.55 314.434 L2256.55 318.462 Q2254.74 317.536 2252.8 317.073 Q2250.86 316.61 2248.77 316.61 Q2245.6 316.61 2244 317.582 Q2242.43 318.554 2242.43 320.499 Q2242.43 321.98 2243.56 322.837 Q2244.7 323.67 2248.12 324.434 L2249.58 324.758 Q2254.12 325.73 2256.02 327.512 Q2257.94 329.272 2257.94 332.443 Q2257.94 336.054 2255.07 338.161 Q2252.22 340.267 2247.22 340.267 Q2245.14 340.267 2242.87 339.85 Q2240.62 339.457 2238.12 338.647 L2238.12 334.249 Q2240.49 335.475 2242.78 336.1 Q2245.07 336.702 2247.31 336.702 Q2250.32 336.702 2251.94 335.684 Q2253.56 334.642 2253.56 332.767 Q2253.56 331.031 2252.38 330.105 Q2251.23 329.179 2247.27 328.323 L2245.79 327.975 Q2241.83 327.142 2240.07 325.429 Q2238.31 323.693 2238.31 320.684 Q2238.31 317.026 2240.9 315.036 Q2243.49 313.045 2248.26 313.045 Q2250.62 313.045 2252.71 313.392 Q2254.79 313.739 2256.55 314.434 Z" fill="#000000" fill-rule="nonzero" fill-opacity="1" /></svg>
