<?xml version="1.0" encoding="utf-8"?>
<svg xmlns="http://www.w3.org/2000/svg" xmlns:xlink="http://www.w3.org/1999/xlink" width="600" height="400" viewBox="0 0 2400 1600">
<defs>
  <clipPath id="clip390">
    <rect x="0" y="0" width="2400" height="1600"/>
  </clipPath>
</defs>
<path clip-path="url(#clip390)" d="M0 1600 L2400 1600 L2400 0 L0 0  Z" fill="#ffffff" fill-rule="evenodd" fill-opacity="1"/>
<defs>
  <clipPath id="clip391">
    <rect x="480" y="0" width="1681" height="1600"/>
  </clipPath>
</defs>
<path clip-path="url(#clip390)" d="M242.135 1423.18 L2352.76 1423.18 L2352.76 123.472 L242.135 123.472  Z" fill="#ffffff" fill-rule="evenodd" fill-opacity="1"/>
<defs>
  <clipPath id="clip392">
    <rect x="242" y="123" width="2112" height="1301"/>
  </clipPath>
</defs>
<polyline clip-path="url(#clip392)" style="stroke:#000000; stroke-linecap:round; stroke-linejoin:round; stroke-width:2; stroke-opacity:0.1; fill:none" points="467.799,1423.18 467.799,123.472 "/>
<polyline clip-path="url(#clip392)" style="stroke:#000000; stroke-linecap:round; stroke-linejoin:round; stroke-width:2; stroke-opacity:0.1; fill:none" points="744.347,1423.18 744.347,123.472 "/>
<polyline clip-path="url(#clip392)" style="stroke:#000000; stroke-linecap:round; stroke-linejoin:round; stroke-width:2; stroke-opacity:0.1; fill:none" points="1020.9,1423.18 1020.9,123.472 "/>
<polyline clip-path="url(#clip392)" style="stroke:#000000; stroke-linecap:round; stroke-linejoin:round; stroke-width:2; stroke-opacity:0.1; fill:none" points="1297.45,1423.18 1297.45,123.472 "/>
<polyline clip-path="url(#clip392)" style="stroke:#000000; stroke-linecap:round; stroke-linejoin:round; stroke-width:2; stroke-opacity:0.1; fill:none" points="1573.99,1423.18 1573.99,123.472 "/>
<polyline clip-path="url(#clip392)" style="stroke:#000000; stroke-linecap:round; stroke-linejoin:round; stroke-width:2; stroke-opacity:0.1; fill:none" points="1850.54,1423.18 1850.54,123.472 "/>
<polyline clip-path="url(#clip392)" style="stroke:#000000; stroke-linecap:round; stroke-linejoin:round; stroke-width:2; stroke-opacity:0.1; fill:none" points="2127.09,1423.18 2127.09,123.472 "/>
<polyline clip-path="url(#clip392)" style="stroke:#000000; stroke-linecap:round; stroke-linejoin:round; stroke-width:2; stroke-opacity:0.1; fill:none" points="242.135,1423.18 2352.76,1423.18 "/>
<polyline clip-path="url(#clip392)" style="stroke:#000000; stroke-linecap:round; stroke-linejoin:round; stroke-width:2; stroke-opacity:0.1; fill:none" points="242.135,1152.41 2352.76,1152.41 "/>
<polyline clip-path="url(#clip392)" style="stroke:#000000; stroke-linecap:round; stroke-linejoin:round; stroke-width:2; stroke-opacity:0.1; fill:none" points="242.135,881.635 2352.76,881.635 "/>
<polyline clip-path="url(#clip392)" style="stroke:#000000; stroke-linecap:round; stroke-linejoin:round; stroke-width:2; stroke-opacity:0.1; fill:none" points="242.135,610.863 2352.76,610.863 "/>
<polyline clip-path="url(#clip392)" style="stroke:#000000; stroke-linecap:round; stroke-linejoin:round; stroke-width:2; stroke-opacity:0.1; fill:none" points="242.135,340.09 2352.76,340.09 "/>
<polyline clip-path="url(#clip390)" style="stroke:#000000; stroke-linecap:round; stroke-linejoin:round; stroke-width:4; stroke-opacity:1; fill:none" points="242.135,1423.18 2352.76,1423.18 "/>
<polyline clip-path="url(#clip390)" style="stroke:#000000; stroke-linecap:round; stroke-linejoin:round; stroke-width:4; stroke-opacity:1; fill:none" points="467.799,1423.18 467.799,1404.28 "/>
<polyline clip-path="url(#clip390)" style="stroke:#000000; stroke-linecap:round; stroke-linejoin:round; stroke-width:4; stroke-opacity:1; fill:none" points="744.347,1423.18 744.347,1404.28 "/>
<polyline clip-path="url(#clip390)" style="stroke:#000000; stroke-linecap:round; stroke-linejoin:round; stroke-width:4; stroke-opacity:1; fill:none" points="1020.9,1423.18 1020.9,1404.28 "/>
<polyline clip-path="url(#clip390)" style="stroke:#000000; stroke-linecap:round; stroke-linejoin:round; stroke-width:4; stroke-opacity:1; fill:none" points="1297.45,1423.18 1297.45,1404.28 "/>
<polyline clip-path="url(#clip390)" style="stroke:#000000; stroke-linecap:round; stroke-linejoin:round; stroke-width:4; stroke-opacity:1; fill:none" points="1573.99,1423.18 1573.99,1404.28 "/>
<polyline clip-path="url(#clip390)" style="stroke:#000000; stroke-linecap:round; stroke-linejoin:round; stroke-width:4; stroke-opacity:1; fill:none" points="1850.54,1423.18 1850.54,1404.28 "/>
<polyline clip-path="url(#clip390)" style="stroke:#000000; stroke-linecap:round; stroke-linejoin:round; stroke-width:4; stroke-opacity:1; fill:none" points="2127.09,1423.18 2127.09,1404.28 "/>
<path clip-path="url(#clip390)" d="M422.359 1468.75 L452.035 1468.75 L452.035 1472.69 L422.359 1472.69 L422.359 1468.75 Z" fill="#000000" fill-rule="nonzero" fill-opacity="1" /><path clip-path="url(#clip390)" d="M460.947 1451.02 L483.169 1451.02 L483.169 1453.01 L470.623 1485.58 L465.738 1485.58 L477.544 1454.96 L460.947 1454.96 L460.947 1451.02 Z" fill="#000000" fill-rule="nonzero" fill-opacity="1" /><path clip-path="url(#clip390)" d="M492.335 1451.02 L510.692 1451.02 L510.692 1454.96 L496.618 1454.96 L496.618 1463.43 Q497.636 1463.08 498.655 1462.92 Q499.673 1462.73 500.692 1462.73 Q506.479 1462.73 509.859 1465.9 Q513.238 1469.08 513.238 1474.49 Q513.238 1480.07 509.766 1483.17 Q506.294 1486.25 499.974 1486.25 Q497.798 1486.25 495.53 1485.88 Q493.285 1485.51 490.877 1484.77 L490.877 1480.07 Q492.96 1481.2 495.183 1481.76 Q497.405 1482.32 499.882 1482.32 Q503.886 1482.32 506.224 1480.21 Q508.562 1478.1 508.562 1474.49 Q508.562 1470.88 506.224 1468.77 Q503.886 1466.67 499.882 1466.67 Q498.007 1466.67 496.132 1467.08 Q494.28 1467.5 492.335 1468.38 L492.335 1451.02 Z" fill="#000000" fill-rule="nonzero" fill-opacity="1" /><path clip-path="url(#clip390)" d="M698.41 1468.75 L728.086 1468.75 L728.086 1472.69 L698.41 1472.69 L698.41 1468.75 Z" fill="#000000" fill-rule="nonzero" fill-opacity="1" /><path clip-path="url(#clip390)" d="M738.225 1451.02 L756.581 1451.02 L756.581 1454.96 L742.507 1454.96 L742.507 1463.43 Q743.526 1463.08 744.544 1462.92 Q745.563 1462.73 746.581 1462.73 Q752.368 1462.73 755.748 1465.9 Q759.127 1469.08 759.127 1474.49 Q759.127 1480.07 755.655 1483.17 Q752.183 1486.25 745.864 1486.25 Q743.688 1486.25 741.419 1485.88 Q739.174 1485.51 736.766 1484.77 L736.766 1480.07 Q738.85 1481.2 741.072 1481.76 Q743.294 1482.32 745.771 1482.32 Q749.776 1482.32 752.114 1480.21 Q754.452 1478.1 754.452 1474.49 Q754.452 1470.88 752.114 1468.77 Q749.776 1466.67 745.771 1466.67 Q743.896 1466.67 742.021 1467.08 Q740.169 1467.5 738.225 1468.38 L738.225 1451.02 Z" fill="#000000" fill-rule="nonzero" fill-opacity="1" /><path clip-path="url(#clip390)" d="M778.34 1454.1 Q774.729 1454.1 772.901 1457.66 Q771.095 1461.2 771.095 1468.33 Q771.095 1475.44 772.901 1479.01 Q774.729 1482.55 778.34 1482.55 Q781.975 1482.55 783.78 1479.01 Q785.609 1475.44 785.609 1468.33 Q785.609 1461.2 783.78 1457.66 Q781.975 1454.1 778.34 1454.1 M778.34 1450.39 Q784.151 1450.39 787.206 1455 Q790.285 1459.58 790.285 1468.33 Q790.285 1477.06 787.206 1481.67 Q784.151 1486.25 778.34 1486.25 Q772.53 1486.25 769.452 1481.67 Q766.396 1477.06 766.396 1468.33 Q766.396 1459.58 769.452 1455 Q772.53 1450.39 778.34 1450.39 Z" fill="#000000" fill-rule="nonzero" fill-opacity="1" /><path clip-path="url(#clip390)" d="M975.457 1468.75 L1005.13 1468.75 L1005.13 1472.69 L975.457 1472.69 L975.457 1468.75 Z" fill="#000000" fill-rule="nonzero" fill-opacity="1" /><path clip-path="url(#clip390)" d="M1019.25 1481.64 L1035.57 1481.64 L1035.57 1485.58 L1013.63 1485.58 L1013.63 1481.64 Q1016.29 1478.89 1020.87 1474.26 Q1025.48 1469.61 1026.66 1468.27 Q1028.91 1465.74 1029.79 1464.01 Q1030.69 1462.25 1030.69 1460.56 Q1030.69 1457.8 1028.74 1456.07 Q1026.82 1454.33 1023.72 1454.33 Q1021.52 1454.33 1019.07 1455.09 Q1016.64 1455.86 1013.86 1457.41 L1013.86 1452.69 Q1016.68 1451.55 1019.14 1450.97 Q1021.59 1450.39 1023.63 1450.39 Q1029 1450.39 1032.19 1453.08 Q1035.39 1455.77 1035.39 1460.26 Q1035.39 1462.39 1034.58 1464.31 Q1033.79 1466.2 1031.68 1468.8 Q1031.1 1469.47 1028 1472.69 Q1024.9 1475.88 1019.25 1481.64 Z" fill="#000000" fill-rule="nonzero" fill-opacity="1" /><path clip-path="url(#clip390)" d="M1045.43 1451.02 L1063.79 1451.02 L1063.79 1454.96 L1049.72 1454.96 L1049.72 1463.43 Q1050.73 1463.08 1051.75 1462.92 Q1052.77 1462.73 1053.79 1462.73 Q1059.58 1462.73 1062.96 1465.9 Q1066.34 1469.08 1066.34 1474.49 Q1066.34 1480.07 1062.86 1483.17 Q1059.39 1486.25 1053.07 1486.25 Q1050.9 1486.25 1048.63 1485.88 Q1046.38 1485.51 1043.97 1484.77 L1043.97 1480.07 Q1046.06 1481.2 1048.28 1481.76 Q1050.5 1482.32 1052.98 1482.32 Q1056.98 1482.32 1059.32 1480.21 Q1061.66 1478.1 1061.66 1474.49 Q1061.66 1470.88 1059.32 1468.77 Q1056.98 1466.67 1052.98 1466.67 Q1051.1 1466.67 1049.23 1467.08 Q1047.38 1467.5 1045.43 1468.38 L1045.43 1451.02 Z" fill="#000000" fill-rule="nonzero" fill-opacity="1" /><path clip-path="url(#clip390)" d="M1297.45 1454.1 Q1293.83 1454.1 1292.01 1457.66 Q1290.2 1461.2 1290.2 1468.33 Q1290.2 1475.44 1292.01 1479.01 Q1293.83 1482.55 1297.45 1482.55 Q1301.08 1482.55 1302.89 1479.01 Q1304.71 1475.44 1304.71 1468.33 Q1304.71 1461.2 1302.89 1457.66 Q1301.08 1454.1 1297.45 1454.1 M1297.45 1450.39 Q1303.26 1450.39 1306.31 1455 Q1309.39 1459.58 1309.39 1468.33 Q1309.39 1477.06 1306.31 1481.67 Q1303.26 1486.25 1297.45 1486.25 Q1291.64 1486.25 1288.56 1481.67 Q1285.5 1477.06 1285.5 1468.33 Q1285.5 1459.58 1288.56 1455 Q1291.64 1450.39 1297.45 1450.39 Z" fill="#000000" fill-rule="nonzero" fill-opacity="1" /><path clip-path="url(#clip390)" d="M1553.27 1481.64 L1569.58 1481.64 L1569.58 1485.58 L1547.64 1485.58 L1547.64 1481.64 Q1550.3 1478.89 1554.89 1474.26 Q1559.49 1469.61 1560.67 1468.27 Q1562.92 1465.74 1563.8 1464.01 Q1564.7 1462.25 1564.7 1460.56 Q1564.7 1457.8 1562.76 1456.07 Q1560.83 1454.33 1557.73 1454.33 Q1555.53 1454.33 1553.08 1455.09 Q1550.65 1455.86 1547.87 1457.41 L1547.87 1452.69 Q1550.7 1451.55 1553.15 1450.97 Q1555.6 1450.39 1557.64 1450.39 Q1563.01 1450.39 1566.2 1453.08 Q1569.4 1455.77 1569.4 1460.26 Q1569.4 1462.39 1568.59 1464.31 Q1567.8 1466.2 1565.7 1468.8 Q1565.12 1469.47 1562.02 1472.69 Q1558.91 1475.88 1553.27 1481.64 Z" fill="#000000" fill-rule="nonzero" fill-opacity="1" /><path clip-path="url(#clip390)" d="M1579.45 1451.02 L1597.8 1451.02 L1597.8 1454.96 L1583.73 1454.96 L1583.73 1463.43 Q1584.75 1463.08 1585.76 1462.92 Q1586.78 1462.73 1587.8 1462.73 Q1593.59 1462.73 1596.97 1465.9 Q1600.35 1469.08 1600.35 1474.49 Q1600.35 1480.07 1596.88 1483.17 Q1593.4 1486.25 1587.08 1486.25 Q1584.91 1486.25 1582.64 1485.88 Q1580.39 1485.51 1577.99 1484.77 L1577.99 1480.07 Q1580.07 1481.2 1582.29 1481.76 Q1584.51 1482.32 1586.99 1482.32 Q1591 1482.32 1593.33 1480.21 Q1595.67 1478.1 1595.67 1474.49 Q1595.67 1470.88 1593.33 1468.77 Q1591 1466.67 1586.99 1466.67 Q1585.12 1466.67 1583.24 1467.08 Q1581.39 1467.5 1579.45 1468.38 L1579.45 1451.02 Z" fill="#000000" fill-rule="nonzero" fill-opacity="1" /><path clip-path="url(#clip390)" d="M1825.24 1451.02 L1843.6 1451.02 L1843.6 1454.96 L1829.52 1454.96 L1829.52 1463.43 Q1830.54 1463.08 1831.56 1462.92 Q1832.58 1462.73 1833.6 1462.73 Q1839.39 1462.73 1842.77 1465.9 Q1846.14 1469.08 1846.14 1474.49 Q1846.14 1480.07 1842.67 1483.17 Q1839.2 1486.25 1832.88 1486.25 Q1830.71 1486.25 1828.44 1485.88 Q1826.19 1485.51 1823.78 1484.77 L1823.78 1480.07 Q1825.87 1481.2 1828.09 1481.76 Q1830.31 1482.32 1832.79 1482.32 Q1836.79 1482.32 1839.13 1480.21 Q1841.47 1478.1 1841.47 1474.49 Q1841.47 1470.88 1839.13 1468.77 Q1836.79 1466.67 1832.79 1466.67 Q1830.91 1466.67 1829.04 1467.08 Q1827.19 1467.5 1825.24 1468.38 L1825.24 1451.02 Z" fill="#000000" fill-rule="nonzero" fill-opacity="1" /><path clip-path="url(#clip390)" d="M1865.36 1454.1 Q1861.75 1454.1 1859.92 1457.66 Q1858.11 1461.2 1858.11 1468.33 Q1858.11 1475.44 1859.92 1479.01 Q1861.75 1482.55 1865.36 1482.55 Q1868.99 1482.55 1870.8 1479.01 Q1872.63 1475.44 1872.63 1468.33 Q1872.63 1461.2 1870.8 1457.66 Q1868.99 1454.1 1865.36 1454.1 M1865.36 1450.39 Q1871.17 1450.39 1874.22 1455 Q1877.3 1459.58 1877.3 1468.33 Q1877.3 1477.06 1874.22 1481.67 Q1871.17 1486.25 1865.36 1486.25 Q1859.55 1486.25 1856.47 1481.67 Q1853.41 1477.06 1853.41 1468.33 Q1853.41 1459.58 1856.47 1455 Q1859.55 1450.39 1865.36 1450.39 Z" fill="#000000" fill-rule="nonzero" fill-opacity="1" /><path clip-path="url(#clip390)" d="M2100.95 1451.02 L2123.17 1451.02 L2123.17 1453.01 L2110.62 1485.58 L2105.74 1485.58 L2117.54 1454.96 L2100.95 1454.96 L2100.95 1451.02 Z" fill="#000000" fill-rule="nonzero" fill-opacity="1" /><path clip-path="url(#clip390)" d="M2132.34 1451.02 L2150.69 1451.02 L2150.69 1454.96 L2136.62 1454.96 L2136.62 1463.43 Q2137.64 1463.08 2138.65 1462.92 Q2139.67 1462.73 2140.69 1462.73 Q2146.48 1462.73 2149.86 1465.9 Q2153.24 1469.08 2153.24 1474.49 Q2153.24 1480.07 2149.77 1483.17 Q2146.29 1486.25 2139.97 1486.25 Q2137.8 1486.25 2135.53 1485.88 Q2133.28 1485.51 2130.88 1484.77 L2130.88 1480.07 Q2132.96 1481.2 2135.18 1481.76 Q2137.4 1482.32 2139.88 1482.32 Q2143.89 1482.32 2146.22 1480.21 Q2148.56 1478.1 2148.56 1474.49 Q2148.56 1470.88 2146.22 1468.77 Q2143.89 1466.67 2139.88 1466.67 Q2138.01 1466.67 2136.13 1467.08 Q2134.28 1467.5 2132.34 1468.38 L2132.34 1451.02 Z" fill="#000000" fill-rule="nonzero" fill-opacity="1" /><path clip-path="url(#clip390)" d="M1132.3 1526.86 L1123.58 1550.51 L1141.06 1550.51 L1132.3 1526.86 M1128.67 1520.52 L1135.96 1520.52 L1154.07 1568.04 L1147.39 1568.04 L1143.06 1555.85 L1121.64 1555.85 L1117.31 1568.04 L1110.53 1568.04 L1128.67 1520.52 Z" fill="#000000" fill-rule="nonzero" fill-opacity="1" /><path clip-path="url(#clip390)" d="M1190.39 1546.53 L1190.39 1568.04 L1184.53 1568.04 L1184.53 1546.72 Q1184.53 1541.66 1182.56 1539.14 Q1180.59 1536.63 1176.64 1536.63 Q1171.9 1536.63 1169.16 1539.65 Q1166.42 1542.68 1166.42 1547.9 L1166.42 1568.04 L1160.53 1568.04 L1160.53 1532.4 L1166.42 1532.4 L1166.42 1537.93 Q1168.52 1534.72 1171.36 1533.13 Q1174.22 1531.54 1177.95 1531.54 Q1184.09 1531.54 1187.24 1535.36 Q1190.39 1539.14 1190.39 1546.53 Z" fill="#000000" fill-rule="nonzero" fill-opacity="1" /><path clip-path="url(#clip390)" d="M1225.53 1549.81 Q1225.53 1543.44 1222.89 1539.94 Q1220.28 1536.44 1215.53 1536.44 Q1210.82 1536.44 1208.18 1539.94 Q1205.57 1543.44 1205.57 1549.81 Q1205.57 1556.14 1208.18 1559.64 Q1210.82 1563.14 1215.53 1563.14 Q1220.28 1563.14 1222.89 1559.64 Q1225.53 1556.14 1225.53 1549.81 M1231.39 1563.62 Q1231.39 1572.72 1227.34 1577.15 Q1223.3 1581.6 1214.96 1581.6 Q1211.87 1581.6 1209.14 1581.13 Q1206.4 1580.68 1203.82 1579.72 L1203.82 1574.03 Q1206.4 1575.43 1208.91 1576.1 Q1211.43 1576.76 1214.04 1576.76 Q1219.8 1576.76 1222.66 1573.74 Q1225.53 1570.75 1225.53 1564.67 L1225.53 1561.77 Q1223.71 1564.92 1220.88 1566.48 Q1218.05 1568.04 1214.1 1568.04 Q1207.55 1568.04 1203.54 1563.05 Q1199.52 1558.05 1199.52 1549.81 Q1199.52 1541.53 1203.54 1536.53 Q1207.55 1531.54 1214.1 1531.54 Q1218.05 1531.54 1220.88 1533.1 Q1223.71 1534.66 1225.53 1537.81 L1225.53 1532.4 L1231.39 1532.4 L1231.39 1563.62 Z" fill="#000000" fill-rule="nonzero" fill-opacity="1" /><path clip-path="url(#clip390)" d="M1243.45 1518.52 L1249.3 1518.52 L1249.3 1568.04 L1243.45 1568.04 L1243.45 1518.52 Z" fill="#000000" fill-rule="nonzero" fill-opacity="1" /><path clip-path="url(#clip390)" d="M1292.05 1548.76 L1292.05 1551.62 L1265.12 1551.62 Q1265.51 1557.67 1268.75 1560.85 Q1272.03 1564 1277.85 1564 Q1281.23 1564 1284.38 1563.17 Q1287.56 1562.35 1290.68 1560.69 L1290.68 1566.23 Q1287.53 1567.57 1284.22 1568.27 Q1280.91 1568.97 1277.5 1568.97 Q1268.97 1568.97 1263.98 1564 Q1259.01 1559.04 1259.01 1550.57 Q1259.01 1541.82 1263.72 1536.69 Q1268.47 1531.54 1276.49 1531.54 Q1283.68 1531.54 1287.85 1536.18 Q1292.05 1540.8 1292.05 1548.76 M1286.19 1547.04 Q1286.13 1542.23 1283.49 1539.37 Q1280.88 1536.5 1276.55 1536.5 Q1271.65 1536.5 1268.69 1539.27 Q1265.76 1542.04 1265.31 1547.07 L1286.19 1547.04 Z" fill="#000000" fill-rule="nonzero" fill-opacity="1" /><path clip-path="url(#clip390)" d="M1321.84 1518.52 L1335.34 1518.52 L1335.34 1523.07 L1327.7 1523.07 L1327.7 1572.09 L1335.34 1572.09 L1335.34 1576.64 L1321.84 1576.64 L1321.84 1518.52 Z" fill="#000000" fill-rule="nonzero" fill-opacity="1" /><path clip-path="url(#clip390)" d="M1371.27 1537.81 L1371.27 1518.52 L1377.13 1518.52 L1377.13 1568.04 L1371.27 1568.04 L1371.27 1562.7 Q1369.43 1565.88 1366.59 1567.44 Q1363.79 1568.97 1359.85 1568.97 Q1353.38 1568.97 1349.31 1563.81 Q1345.27 1558.65 1345.27 1550.25 Q1345.27 1541.85 1349.31 1536.69 Q1353.38 1531.54 1359.85 1531.54 Q1363.79 1531.54 1366.59 1533.1 Q1369.43 1534.62 1371.27 1537.81 M1351.32 1550.25 Q1351.32 1556.71 1353.96 1560.4 Q1356.63 1564.07 1361.28 1564.07 Q1365.92 1564.07 1368.6 1560.4 Q1371.27 1556.71 1371.27 1550.25 Q1371.27 1543.79 1368.6 1540.13 Q1365.92 1536.44 1361.28 1536.44 Q1356.63 1536.44 1353.96 1540.13 Q1351.32 1543.79 1351.32 1550.25 Z" fill="#000000" fill-rule="nonzero" fill-opacity="1" /><path clip-path="url(#clip390)" d="M1419.68 1548.76 L1419.68 1551.62 L1392.76 1551.62 Q1393.14 1557.67 1396.38 1560.85 Q1399.66 1564 1405.49 1564 Q1408.86 1564 1412.01 1563.17 Q1415.19 1562.35 1418.31 1560.69 L1418.31 1566.23 Q1415.16 1567.57 1411.85 1568.27 Q1408.54 1568.97 1405.14 1568.97 Q1396.61 1568.97 1391.61 1564 Q1386.64 1559.04 1386.64 1550.57 Q1386.64 1541.82 1391.36 1536.69 Q1396.1 1531.54 1404.12 1531.54 Q1411.31 1531.54 1415.48 1536.18 Q1419.68 1540.8 1419.68 1548.76 M1413.83 1547.04 Q1413.76 1542.23 1411.12 1539.37 Q1408.51 1536.5 1404.18 1536.5 Q1399.28 1536.5 1396.32 1539.27 Q1393.39 1542.04 1392.95 1547.07 L1413.83 1547.04 Z" fill="#000000" fill-rule="nonzero" fill-opacity="1" /><path clip-path="url(#clip390)" d="M1452.75 1549.81 Q1452.75 1543.44 1450.11 1539.94 Q1447.5 1536.44 1442.76 1536.44 Q1438.05 1536.44 1435.41 1539.94 Q1432.8 1543.44 1432.8 1549.81 Q1432.8 1556.14 1435.41 1559.64 Q1438.05 1563.14 1442.76 1563.14 Q1447.5 1563.14 1450.11 1559.64 Q1452.75 1556.14 1452.75 1549.81 M1458.61 1563.62 Q1458.61 1572.72 1454.57 1577.15 Q1450.52 1581.6 1442.19 1581.6 Q1439.1 1581.6 1436.36 1581.13 Q1433.62 1580.68 1431.05 1579.72 L1431.05 1574.03 Q1433.62 1575.43 1436.14 1576.1 Q1438.65 1576.76 1441.26 1576.76 Q1447.02 1576.76 1449.89 1573.74 Q1452.75 1570.75 1452.75 1564.67 L1452.75 1561.77 Q1450.94 1564.92 1448.11 1566.48 Q1445.27 1568.04 1441.33 1568.04 Q1434.77 1568.04 1430.76 1563.05 Q1426.75 1558.05 1426.75 1549.81 Q1426.75 1541.53 1430.76 1536.53 Q1434.77 1531.54 1441.33 1531.54 Q1445.27 1531.54 1448.11 1533.1 Q1450.94 1534.66 1452.75 1537.81 L1452.75 1532.4 L1458.61 1532.4 L1458.61 1563.62 Z" fill="#000000" fill-rule="nonzero" fill-opacity="1" /><path clip-path="url(#clip390)" d="M1484.36 1518.52 L1484.36 1576.64 L1470.86 1576.64 L1470.86 1572.09 L1478.47 1572.09 L1478.47 1523.07 L1470.86 1523.07 L1470.86 1518.52 L1484.36 1518.52 Z" fill="#000000" fill-rule="nonzero" fill-opacity="1" /><polyline clip-path="url(#clip390)" style="stroke:#000000; stroke-linecap:round; stroke-linejoin:round; stroke-width:4; stroke-opacity:1; fill:none" points="242.135,1423.18 242.135,123.472 "/>
<polyline clip-path="url(#clip390)" style="stroke:#000000; stroke-linecap:round; stroke-linejoin:round; stroke-width:4; stroke-opacity:1; fill:none" points="242.135,1423.18 261.032,1423.18 "/>
<polyline clip-path="url(#clip390)" style="stroke:#000000; stroke-linecap:round; stroke-linejoin:round; stroke-width:4; stroke-opacity:1; fill:none" points="242.135,1152.41 261.032,1152.41 "/>
<polyline clip-path="url(#clip390)" style="stroke:#000000; stroke-linecap:round; stroke-linejoin:round; stroke-width:4; stroke-opacity:1; fill:none" points="242.135,881.635 261.032,881.635 "/>
<polyline clip-path="url(#clip390)" style="stroke:#000000; stroke-linecap:round; stroke-linejoin:round; stroke-width:4; stroke-opacity:1; fill:none" points="242.135,610.863 261.032,610.863 "/>
<polyline clip-path="url(#clip390)" style="stroke:#000000; stroke-linecap:round; stroke-linejoin:round; stroke-width:4; stroke-opacity:1; fill:none" points="242.135,340.09 261.032,340.09 "/>
<path clip-path="url(#clip390)" d="M114.26 1423.63 L143.936 1423.63 L143.936 1427.57 L114.26 1427.57 L114.26 1423.63 Z" fill="#000000" fill-rule="nonzero" fill-opacity="1" /><path clip-path="url(#clip390)" d="M168.195 1421.83 Q171.552 1422.54 173.427 1424.81 Q175.325 1427.08 175.325 1430.41 Q175.325 1435.53 171.806 1438.33 Q168.288 1441.13 161.806 1441.13 Q159.63 1441.13 157.315 1440.69 Q155.024 1440.27 152.57 1439.42 L152.57 1434.9 Q154.515 1436.04 156.829 1436.62 Q159.144 1437.2 161.667 1437.2 Q166.065 1437.2 168.357 1435.46 Q170.672 1433.72 170.672 1430.41 Q170.672 1427.36 168.519 1425.65 Q166.39 1423.91 162.57 1423.91 L158.542 1423.91 L158.542 1420.07 L162.755 1420.07 Q166.204 1420.07 168.033 1418.7 Q169.862 1417.31 169.862 1414.72 Q169.862 1412.06 167.964 1410.65 Q166.089 1409.21 162.57 1409.21 Q160.649 1409.21 158.45 1409.63 Q156.251 1410.04 153.612 1410.92 L153.612 1406.76 Q156.274 1406.02 158.589 1405.65 Q160.927 1405.27 162.987 1405.27 Q168.311 1405.27 171.413 1407.71 Q174.514 1410.11 174.514 1414.23 Q174.514 1417.1 172.871 1419.09 Q171.227 1421.06 168.195 1421.83 Z" fill="#000000" fill-rule="nonzero" fill-opacity="1" /><path clip-path="url(#clip390)" d="M194.19 1408.98 Q190.579 1408.98 188.75 1412.54 Q186.945 1416.08 186.945 1423.21 Q186.945 1430.32 188.75 1433.89 Q190.579 1437.43 194.19 1437.43 Q197.825 1437.43 199.63 1433.89 Q201.459 1430.32 201.459 1423.21 Q201.459 1416.08 199.63 1412.54 Q197.825 1408.98 194.19 1408.98 M194.19 1405.27 Q200 1405.27 203.056 1409.88 Q206.135 1414.46 206.135 1423.21 Q206.135 1431.94 203.056 1436.55 Q200 1441.13 194.19 1441.13 Q188.38 1441.13 185.301 1436.55 Q182.246 1431.94 182.246 1423.21 Q182.246 1414.46 185.301 1409.88 Q188.38 1405.27 194.19 1405.27 Z" fill="#000000" fill-rule="nonzero" fill-opacity="1" /><path clip-path="url(#clip390)" d="M114.26 1152.86 L143.936 1152.86 L143.936 1156.79 L114.26 1156.79 L114.26 1152.86 Z" fill="#000000" fill-rule="nonzero" fill-opacity="1" /><path clip-path="url(#clip390)" d="M158.056 1165.75 L174.376 1165.75 L174.376 1169.69 L152.431 1169.69 L152.431 1165.75 Q155.093 1163 159.677 1158.37 Q164.283 1153.72 165.464 1152.37 Q167.709 1149.85 168.589 1148.11 Q169.491 1146.35 169.491 1144.66 Q169.491 1141.91 167.547 1140.17 Q165.626 1138.44 162.524 1138.44 Q160.325 1138.44 157.871 1139.2 Q155.44 1139.97 152.663 1141.52 L152.663 1136.79 Q155.487 1135.66 157.94 1135.08 Q160.394 1134.5 162.431 1134.5 Q167.802 1134.5 170.996 1137.19 Q174.19 1139.87 174.19 1144.36 Q174.19 1146.49 173.38 1148.41 Q172.593 1150.31 170.487 1152.91 Q169.908 1153.58 166.806 1156.79 Q163.704 1159.99 158.056 1165.75 Z" fill="#000000" fill-rule="nonzero" fill-opacity="1" /><path clip-path="url(#clip390)" d="M194.19 1138.21 Q190.579 1138.21 188.75 1141.77 Q186.945 1145.31 186.945 1152.44 Q186.945 1159.55 188.75 1163.11 Q190.579 1166.66 194.19 1166.66 Q197.825 1166.66 199.63 1163.11 Q201.459 1159.55 201.459 1152.44 Q201.459 1145.31 199.63 1141.77 Q197.825 1138.21 194.19 1138.21 M194.19 1134.5 Q200 1134.5 203.056 1139.11 Q206.135 1143.69 206.135 1152.44 Q206.135 1161.17 203.056 1165.78 Q200 1170.36 194.19 1170.36 Q188.38 1170.36 185.301 1165.78 Q182.246 1161.17 182.246 1152.44 Q182.246 1143.69 185.301 1139.11 Q188.38 1134.5 194.19 1134.5 Z" fill="#000000" fill-rule="nonzero" fill-opacity="1" /><path clip-path="url(#clip390)" d="M114.26 882.086 L143.936 882.086 L143.936 886.022 L114.26 886.022 L114.26 882.086 Z" fill="#000000" fill-rule="nonzero" fill-opacity="1" /><path clip-path="url(#clip390)" d="M154.839 894.98 L162.477 894.98 L162.477 868.614 L154.167 870.281 L154.167 866.022 L162.431 864.355 L167.107 864.355 L167.107 894.98 L174.746 894.98 L174.746 898.915 L154.839 898.915 L154.839 894.98 Z" fill="#000000" fill-rule="nonzero" fill-opacity="1" /><path clip-path="url(#clip390)" d="M194.19 867.434 Q190.579 867.434 188.75 870.998 Q186.945 874.54 186.945 881.67 Q186.945 888.776 188.75 892.341 Q190.579 895.883 194.19 895.883 Q197.825 895.883 199.63 892.341 Q201.459 888.776 201.459 881.67 Q201.459 874.54 199.63 870.998 Q197.825 867.434 194.19 867.434 M194.19 863.73 Q200 863.73 203.056 868.336 Q206.135 872.92 206.135 881.67 Q206.135 890.396 203.056 895.003 Q200 899.586 194.19 899.586 Q188.38 899.586 185.301 895.003 Q182.246 890.396 182.246 881.67 Q182.246 872.92 185.301 868.336 Q188.38 863.73 194.19 863.73 Z" fill="#000000" fill-rule="nonzero" fill-opacity="1" /><path clip-path="url(#clip390)" d="M194.19 596.661 Q190.579 596.661 188.75 600.226 Q186.945 603.768 186.945 610.897 Q186.945 618.004 188.75 621.568 Q190.579 625.11 194.19 625.11 Q197.825 625.11 199.63 621.568 Q201.459 618.004 201.459 610.897 Q201.459 603.768 199.63 600.226 Q197.825 596.661 194.19 596.661 M194.19 592.958 Q200 592.958 203.056 597.564 Q206.135 602.147 206.135 610.897 Q206.135 619.624 203.056 624.231 Q200 628.814 194.19 628.814 Q188.38 628.814 185.301 624.231 Q182.246 619.624 182.246 610.897 Q182.246 602.147 185.301 597.564 Q188.38 592.958 194.19 592.958 Z" fill="#000000" fill-rule="nonzero" fill-opacity="1" /><path clip-path="url(#clip390)" d="M154.839 353.435 L162.477 353.435 L162.477 327.069 L154.167 328.736 L154.167 324.477 L162.431 322.81 L167.107 322.81 L167.107 353.435 L174.746 353.435 L174.746 357.37 L154.839 357.37 L154.839 353.435 Z" fill="#000000" fill-rule="nonzero" fill-opacity="1" /><path clip-path="url(#clip390)" d="M194.19 325.889 Q190.579 325.889 188.75 329.454 Q186.945 332.995 186.945 340.125 Q186.945 347.231 188.75 350.796 Q190.579 354.338 194.19 354.338 Q197.825 354.338 199.63 350.796 Q201.459 347.231 201.459 340.125 Q201.459 332.995 199.63 329.454 Q197.825 325.889 194.19 325.889 M194.19 322.185 Q200 322.185 203.056 326.792 Q206.135 331.375 206.135 340.125 Q206.135 348.852 203.056 353.458 Q200 358.041 194.19 358.041 Q188.38 358.041 185.301 353.458 Q182.246 348.852 182.246 340.125 Q182.246 331.375 185.301 326.792 Q188.38 322.185 194.19 322.185 Z" fill="#000000" fill-rule="nonzero" fill-opacity="1" /><path clip-path="url(#clip390)" d="M57.2247 862.557 L44.4614 862.557 L44.4614 873.061 L39.1779 873.061 L39.1779 856.192 L59.58 856.192 Q62.2218 859.916 63.5904 864.403 Q64.9272 868.891 64.9272 873.984 Q64.9272 885.124 58.4342 891.426 Q51.9093 897.696 40.2919 897.696 Q28.6427 897.696 22.1496 891.426 Q15.6248 885.124 15.6248 873.984 Q15.6248 869.337 16.7706 865.167 Q17.9164 860.966 20.1444 857.433 L26.9876 857.433 Q23.9639 860.998 22.4361 865.008 Q20.9083 869.018 20.9083 873.443 Q20.9083 882.164 25.7781 886.556 Q30.6479 890.916 40.2919 890.916 Q49.9041 890.916 54.7739 886.556 Q59.6436 882.164 59.6436 873.443 Q59.6436 870.037 59.0707 867.363 Q58.466 864.69 57.2247 862.557 Z" fill="#000000" fill-rule="nonzero" fill-opacity="1" /><path clip-path="url(#clip390)" d="M58.3387 803.515 L64.0042 803.515 L64.0042 822.612 L58.3387 822.612 Q55.2513 816.979 49.9678 813.828 Q44.6842 810.677 38.2549 810.677 Q30.616 810.677 26.0009 814.878 Q21.3858 819.08 21.3858 825.954 Q21.3858 832.829 26.0327 837.063 Q30.6479 841.264 38.2549 841.264 Q44.6842 841.264 49.9678 838.113 Q55.2513 834.93 58.3387 829.265 L64.0042 829.265 L64.0042 848.362 L58.3387 848.362 L58.3387 838.208 Q53.9145 843.237 49.1721 845.561 Q44.4296 847.852 38.5732 847.852 Q28.4517 847.852 22.1815 841.741 Q15.9112 835.662 15.9112 825.954 Q15.9112 816.31 22.1815 810.168 Q28.4199 804.056 38.2549 804.056 Q44.4296 804.056 49.1402 806.316 Q53.8509 808.576 58.3387 813.7 L58.3387 803.515 Z" fill="#000000" fill-rule="nonzero" fill-opacity="1" /><path clip-path="url(#clip390)" d="M14.479 774.711 L14.479 761.215 L19.0304 761.215 L19.0304 768.854 L68.0464 768.854 L68.0464 761.215 L72.5979 761.215 L72.5979 774.711 L14.479 774.711 Z" fill="#000000" fill-rule="nonzero" fill-opacity="1" /><path clip-path="url(#clip390)" d="M33.7671 725.281 L14.479 725.281 L14.479 719.424 L64.0042 719.424 L64.0042 725.281 L58.657 725.281 Q61.8398 727.127 63.3994 729.96 Q64.9272 732.761 64.9272 736.707 Q64.9272 743.168 59.771 747.243 Q54.6147 751.285 46.212 751.285 Q37.8093 751.285 32.6531 747.243 Q27.4968 743.168 27.4968 736.707 Q27.4968 732.761 29.0564 729.96 Q30.5842 727.127 33.7671 725.281 M46.212 745.237 Q52.6732 745.237 56.3653 742.596 Q60.0256 739.922 60.0256 735.275 Q60.0256 730.628 56.3653 727.954 Q52.6732 725.281 46.212 725.281 Q39.7508 725.281 36.0905 727.954 Q32.3984 730.628 32.3984 735.275 Q32.3984 739.922 36.0905 742.596 Q39.7508 745.237 46.212 745.237 Z" fill="#000000" fill-rule="nonzero" fill-opacity="1" /><path clip-path="url(#clip390)" d="M41.3104 700.677 L58.7206 700.677 L58.7206 690.365 Q58.7206 685.177 56.5881 682.694 Q54.4238 680.18 49.9996 680.18 Q45.5436 680.18 43.4429 682.694 Q41.3104 685.177 41.3104 690.365 L41.3104 700.677 M21.7677 700.677 L36.0905 700.677 L36.0905 691.161 Q36.0905 686.45 34.34 684.158 Q32.5576 681.835 28.9291 681.835 Q25.3325 681.835 23.5501 684.158 Q21.7677 686.45 21.7677 691.161 L21.7677 700.677 M16.4842 707.107 L16.4842 690.683 Q16.4842 683.331 19.5397 679.352 Q22.5952 675.374 28.2289 675.374 Q32.5894 675.374 35.1675 677.411 Q37.7456 679.448 38.3822 683.394 Q39.4007 678.652 42.6472 676.042 Q45.8619 673.4 50.6998 673.4 Q57.0655 673.4 60.5348 677.729 Q64.0042 682.058 64.0042 690.047 L64.0042 707.107 L16.4842 707.107 Z" fill="#000000" fill-rule="nonzero" fill-opacity="1" /><path clip-path="url(#clip390)" d="M14.479 648.956 L72.5979 648.956 L72.5979 662.451 L68.0464 662.451 L68.0464 654.844 L19.0304 654.844 L19.0304 662.451 L14.479 662.451 L14.479 648.956 Z" fill="#000000" fill-rule="nonzero" fill-opacity="1" /><path clip-path="url(#clip390)" d="M1114.53 20.1573 L1103.43 50.2555 L1125.67 50.2555 L1114.53 20.1573 M1109.91 12.096 L1119.19 12.096 L1142.23 72.576 L1133.73 72.576 L1128.22 57.061 L1100.96 57.061 L1095.45 72.576 L1086.82 72.576 L1109.91 12.096 Z" fill="#000000" fill-rule="nonzero" fill-opacity="1" /><path clip-path="url(#clip390)" d="M1177.03 34.1734 Q1175.78 33.4443 1174.28 33.1202 Q1172.82 32.7556 1171.04 32.7556 Q1164.72 32.7556 1161.31 36.8875 Q1157.95 40.9789 1157.95 48.6757 L1157.95 72.576 L1150.46 72.576 L1150.46 27.2059 L1157.95 27.2059 L1157.95 34.2544 Q1160.3 30.1225 1164.07 28.1376 Q1167.84 26.1121 1173.22 26.1121 Q1173.99 26.1121 1174.93 26.2337 Q1175.86 26.3147 1176.99 26.5172 L1177.03 34.1734 Z" fill="#000000" fill-rule="nonzero" fill-opacity="1" /><path clip-path="url(#clip390)" d="M1209.68 34.1734 Q1208.43 33.4443 1206.93 33.1202 Q1205.47 32.7556 1203.69 32.7556 Q1197.37 32.7556 1193.96 36.8875 Q1190.6 40.9789 1190.6 48.6757 L1190.6 72.576 L1183.11 72.576 L1183.11 27.2059 L1190.6 27.2059 L1190.6 34.2544 Q1192.95 30.1225 1196.72 28.1376 Q1200.49 26.1121 1205.87 26.1121 Q1206.64 26.1121 1207.58 26.2337 Q1208.51 26.3147 1209.64 26.5172 L1209.68 34.1734 Z" fill="#000000" fill-rule="nonzero" fill-opacity="1" /><path clip-path="url(#clip390)" d="M1238.12 49.7694 Q1229.09 49.7694 1225.6 51.8354 Q1222.12 53.9013 1222.12 58.8839 Q1222.12 62.8538 1224.71 65.2034 Q1227.34 67.5124 1231.84 67.5124 Q1238.04 67.5124 1241.77 63.1374 Q1245.53 58.7219 1245.53 51.4303 L1245.53 49.7694 L1238.12 49.7694 M1252.99 46.6907 L1252.99 72.576 L1245.53 72.576 L1245.53 65.6895 Q1242.98 69.8214 1239.17 71.8063 Q1235.37 73.7508 1229.86 73.7508 Q1222.89 73.7508 1218.76 69.8619 Q1214.67 65.9325 1214.67 59.3701 Q1214.67 51.7138 1219.77 47.825 Q1224.91 43.9361 1235.08 43.9361 L1245.53 43.9361 L1245.53 43.2069 Q1245.53 38.0623 1242.13 35.2672 Q1238.77 32.4315 1232.65 32.4315 Q1228.76 32.4315 1225.08 33.3632 Q1221.39 34.295 1217.99 36.1584 L1217.99 29.2718 Q1222.08 27.692 1225.93 26.9223 Q1229.77 26.1121 1233.42 26.1121 Q1243.26 26.1121 1248.13 31.2163 Q1252.99 36.3204 1252.99 46.6907 Z" fill="#000000" fill-rule="nonzero" fill-opacity="1" /><path clip-path="url(#clip390)" d="M1287.22 76.7889 Q1284.06 84.8907 1281.06 87.3618 Q1278.06 89.8329 1273.04 89.8329 L1267.08 89.8329 L1267.08 83.5945 L1271.46 83.5945 Q1274.54 83.5945 1276.24 82.1361 Q1277.94 80.6778 1280.01 75.2496 L1281.34 71.8468 L1262.99 27.2059 L1270.89 27.2059 L1285.07 62.6918 L1299.25 27.2059 L1307.15 27.2059 L1287.22 76.7889 Z" fill="#000000" fill-rule="nonzero" fill-opacity="1" /><path clip-path="url(#clip390)" d="M1373.66 49.3643 Q1373.66 41.2625 1370.3 36.8065 Q1366.98 32.3505 1360.94 32.3505 Q1354.95 32.3505 1351.59 36.8065 Q1348.26 41.2625 1348.26 49.3643 Q1348.26 57.4256 1351.59 61.8816 Q1354.95 66.3376 1360.94 66.3376 Q1366.98 66.3376 1370.3 61.8816 Q1373.66 57.4256 1373.66 49.3643 M1381.12 66.9452 Q1381.12 78.5308 1375.97 84.1616 Q1370.83 89.8329 1360.21 89.8329 Q1356.28 89.8329 1352.8 89.2252 Q1349.32 88.6581 1346.04 87.4428 L1346.04 80.1917 Q1349.32 81.9741 1352.52 82.8248 Q1355.72 83.6755 1359.04 83.6755 Q1366.37 83.6755 1370.02 79.8271 Q1373.66 76.0193 1373.66 68.282 L1373.66 64.5957 Q1371.35 68.6061 1367.75 70.5911 Q1364.14 72.576 1359.12 72.576 Q1350.78 72.576 1345.67 66.2161 Q1340.57 59.8562 1340.57 49.3643 Q1340.57 38.832 1345.67 32.472 Q1350.78 26.1121 1359.12 26.1121 Q1364.14 26.1121 1367.75 28.0971 Q1371.35 30.082 1373.66 34.0924 L1373.66 27.2059 L1381.12 27.2059 L1381.12 66.9452 Z" fill="#000000" fill-rule="nonzero" fill-opacity="1" /><path clip-path="url(#clip390)" d="M1417.09 49.7694 Q1408.06 49.7694 1404.57 51.8354 Q1401.09 53.9013 1401.09 58.8839 Q1401.09 62.8538 1403.68 65.2034 Q1406.31 67.5124 1410.81 67.5124 Q1417.01 67.5124 1420.73 63.1374 Q1424.5 58.7219 1424.5 51.4303 L1424.5 49.7694 L1417.09 49.7694 M1431.96 46.6907 L1431.96 72.576 L1424.5 72.576 L1424.5 65.6895 Q1421.95 69.8214 1418.14 71.8063 Q1414.33 73.7508 1408.82 73.7508 Q1401.86 73.7508 1397.73 69.8619 Q1393.63 65.9325 1393.63 59.3701 Q1393.63 51.7138 1398.74 47.825 Q1403.88 43.9361 1414.05 43.9361 L1424.5 43.9361 L1424.5 43.2069 Q1424.5 38.0623 1421.1 35.2672 Q1417.74 32.4315 1411.62 32.4315 Q1407.73 32.4315 1404.04 33.3632 Q1400.36 34.295 1396.96 36.1584 L1396.96 29.2718 Q1401.05 27.692 1404.9 26.9223 Q1408.74 26.1121 1412.39 26.1121 Q1422.23 26.1121 1427.09 31.2163 Q1431.96 36.3204 1431.96 46.6907 Z" fill="#000000" fill-rule="nonzero" fill-opacity="1" /><path clip-path="url(#clip390)" d="M1447.31 27.2059 L1454.76 27.2059 L1454.76 72.576 L1447.31 72.576 L1447.31 27.2059 M1447.31 9.54393 L1454.76 9.54393 L1454.76 18.9825 L1447.31 18.9825 L1447.31 9.54393 Z" fill="#000000" fill-rule="nonzero" fill-opacity="1" /><path clip-path="url(#clip390)" d="M1508.07 45.1919 L1508.07 72.576 L1500.62 72.576 L1500.62 45.4349 Q1500.62 38.994 1498.11 35.7938 Q1495.6 32.5936 1490.57 32.5936 Q1484.54 32.5936 1481.05 36.4419 Q1477.57 40.2903 1477.57 46.9338 L1477.57 72.576 L1470.07 72.576 L1470.07 27.2059 L1477.57 27.2059 L1477.57 34.2544 Q1480.24 30.163 1483.85 28.1376 Q1487.49 26.1121 1492.23 26.1121 Q1500.05 26.1121 1504.06 30.9732 Q1508.07 35.7938 1508.07 45.1919 Z" fill="#000000" fill-rule="nonzero" fill-opacity="1" /><polyline clip-path="url(#clip392)" style="stroke:#009af9; stroke-linecap:round; stroke-linejoin:round; stroke-width:4; stroke-opacity:1; fill:none" points="2293.02,15155.3 2289.04,2475.76 2285.06,2199.1 2281.07,2038.25 2277.09,1925.31 2273.11,1838.99 2269.13,1769.81 2265.15,1712.76 2261.16,1664.82 2257.18,1624.09 2253.2,1589.26 2249.22,1559.43 2245.23,1533.95 2241.25,1512.34 2237.27,1494.26 2233.29,1479.47 2229.3,1467.8 2225.32,1459.16 2221.34,1453.51 2217.36,1450.89 2213.38,1451.4 2209.39,1455.24 2205.41,1462.69 2201.43,1474.19 2197.45,1490.4 2193.46,1512.29 2189.48,1541.4 2185.5,1580.29 2181.52,1633.61 2177.53,1711.35 2173.55,1841.83 2169.57,2213.57 2165.59,1949.37 2161.61,1745.23 2157.62,1635 2153.64,1559.08 2149.66,1501.45 2145.68,1455.43 2141.69,1417.61 2137.71,1385.99 2133.73,1359.32 2129.75,1336.77 2125.76,1317.78 2121.78,1301.94 2117.8,1288.98 2113.82,1278.68 2109.84,1270.93 2105.85,1265.66 2101.87,1262.84 2097.89,1262.5 2093.91,1264.71 2089.92,1269.63 2085.94,1277.44 2081.96,1288.47 2077.98,1303.13 2073.99,1322.04 2070.01,1346.12 2066.03,1376.74 2062.05,1416.16 2058.07,1468.36 2054.08,1541.45 2050.1,1656.39 2046.12,1910.4 2042.14,1906.86 2038.15,1645.78 2034.17,1523.76 2030.19,1443.59 2026.21,1384.29 2022.22,1337.76 2018.24,1300.02 2014.26,1268.8 2010.28,1242.72 2006.3,1220.87 2002.31,1202.63 1998.33,1187.57 1994.35,1175.37 1990.37,1165.84 1986.38,1158.82 1982.4,1154.24 1978.42,1152.06 1974.44,1152.3 1970.45,1155.03 1966.47,1160.37 1962.49,1168.52 1958.51,1179.74 1954.53,1194.45 1950.54,1213.2 1946.56,1236.81 1942.58,1266.53 1938.6,1304.33 1934.61,1353.64 1930.63,1421.14 1926.65,1522.81 1922.67,1718.26 1918.68,1973.63 1914.7,1592.89 1910.72,1453.25 1906.74,1366.17 1902.76,1303.31 1898.77,1254.68 1894.79,1215.59 1890.81,1183.46 1886.83,1156.75 1882.84,1134.44 1878.86,1115.86 1874.88,1100.53 1870.9,1088.12 1866.91,1078.4 1862.93,1071.21 1858.95,1066.45 1854.97,1064.08 1850.99,1064.11 1847,1066.59 1843.02,1071.63 1839.04,1079.41 1835.06,1090.17 1831.07,1104.29 1827.09,1122.27 1823.11,1144.87 1819.13,1173.2 1815.14,1209.01 1811.16,1255.26 1807.18,1317.5 1803.2,1408.26 1799.22,1567.47 1795.23,8948.93 1791.25,1562.24 1787.27,1397.79 1783.29,1301.8 1779.3,1234.32 1775.32,1182.83 1771.34,1141.76 1767.36,1108.17 1763.37,1080.3 1759.39,1057.03 1755.41,1037.61 1751.43,1021.53 1747.45,1008.4 1743.46,997.991 1739.48,990.107 1735.5,984.636 1731.52,981.516 1727.53,980.732 1723.55,982.313 1719.57,986.338 1715.59,992.943 1711.6,1002.33 1707.62,1014.78 1703.64,1030.7 1699.66,1050.68 1695.68,1075.55 1691.69,1106.58 1687.71,1145.8 1683.73,1196.73 1679.75,1266.24 1675.76,1371.06 1671.78,1575.42 1667.8,1781.79 1663.82,1430.92 1659.83,1295.83 1655.85,1211.25 1651.87,1150.3 1647.89,1103.36 1643.91,1065.88 1639.92,1035.36 1635.94,1010.27 1631.96,989.637 1627.98,972.815 1623.99,959.354 1620.01,948.947 1616.03,941.39 1612.05,936.564 1608.07,934.415 1604.08,934.953 1600.1,938.253 1596.12,944.458 1592.14,953.8 1588.15,966.617 1584.17,983.404 1580.19,1004.88 1576.21,1032.12 1572.22,1066.8 1568.24,1111.75 1564.26,1172.21 1560.28,1259.74 1556.3,1409.65 1552.31,2002.73 1548.33,1446.23 1544.35,1271.85 1540.37,1173.57 1536.38,1105.9 1532.4,1055.31 1528.42,1015.94 1524.44,984.769 1520.45,960.058 1516.47,940.772 1512.49,926.293 1508.51,916.292 1504.53,910.663 1500.54,909.509 1496.56,913.16 1492.58,922.238 1488.6,937.799 1484.61,961.618 1480.63,996.827 1476.65,1049.55 1472.67,1134.2 1468.68,1301.21 1464.7,1691.05 1460.72,1199.65 1456.74,1038.95 1452.76,936.22 1448.77,859.139 1444.79,796.776 1440.81,744.08 1436.83,698.291 1432.84,657.733 1428.86,621.307 1424.88,588.255 1420.9,558.028 1416.91,530.218 1412.93,504.509 1408.95,480.657 1404.97,458.462 1400.99,437.766 1397,418.435 1393.02,400.36 1389.04,383.447 1385.06,367.616 1381.07,352.801 1377.09,338.942 1373.11,325.988 1369.13,313.895 1365.14,302.624 1361.16,292.14 1357.18,282.414 1353.2,273.419 1349.22,265.131 1345.23,257.529 1341.25,250.596 1337.27,244.314 1333.29,238.67 1329.3,233.652 1325.32,229.247 1321.34,225.448 1317.36,222.246 1313.37,219.635 1309.39,217.609 1305.41,216.165 1301.43,215.3 1297.45,215.012 1293.46,215.3 1289.48,216.165 1285.5,217.609 1281.52,219.635 1277.53,222.246 1273.55,225.448 1269.57,229.247 1265.59,233.652 1261.6,238.67 1257.62,244.314 1253.64,250.596 1249.66,257.529 1245.68,265.131 1241.69,273.419 1237.71,282.414 1233.73,292.14 1229.75,302.624 1225.76,313.895 1221.78,325.988 1217.8,338.942 1213.82,352.801 1209.83,367.616 1205.85,383.447 1201.87,400.36 1197.89,418.435 1193.91,437.766 1189.92,458.462 1185.94,480.657 1181.96,504.509 1177.98,530.218 1173.99,558.028 1170.01,588.255 1166.03,621.307 1162.05,657.733 1158.06,698.291 1154.08,744.08 1150.1,796.776 1146.12,859.139 1142.14,936.22 1138.15,1038.95 1134.17,1199.65 1130.19,1691.05 1126.21,1301.21 1122.22,1134.2 1118.24,1049.55 1114.26,996.827 1110.28,961.618 1106.29,937.799 1102.31,922.238 1098.33,913.16 1094.35,909.509 1090.37,910.663 1086.38,916.292 1082.4,926.293 1078.42,940.772 1074.44,960.058 1070.45,984.769 1066.47,1015.94 1062.49,1055.31 1058.51,1105.9 1054.52,1173.57 1050.54,1271.85 1046.56,1446.23 1042.58,2002.73 1038.6,1409.65 1034.61,1259.74 1030.63,1172.21 1026.65,1111.75 1022.67,1066.8 1018.68,1032.12 1014.7,1004.88 1010.72,983.404 1006.74,966.617 1002.75,953.8 998.772,944.458 994.79,938.253 990.808,934.953 986.826,934.415 982.843,936.564 978.861,941.39 974.879,948.947 970.896,959.354 966.914,972.815 962.932,989.637 958.949,1010.27 954.967,1035.36 950.985,1065.88 947.003,1103.36 943.02,1150.3 939.038,1211.25 935.056,1295.83 931.073,1430.92 927.091,1781.79 923.109,1575.42 919.126,1371.06 915.144,1266.24 911.162,1196.73 907.179,1145.8 903.197,1106.58 899.215,1075.55 895.233,1050.68 891.25,1030.7 887.268,1014.78 883.286,1002.33 879.303,992.943 875.321,986.338 871.339,982.313 867.356,980.732 863.374,981.516 859.392,984.636 855.41,990.107 851.427,997.991 847.445,1008.4 843.463,1021.53 839.48,1037.61 835.498,1057.03 831.516,1080.3 827.533,1108.17 823.551,1141.76 819.569,1182.83 815.586,1234.32 811.604,1301.8 807.622,1397.79 803.64,1562.24 799.657,8948.93 795.675,1567.47 791.693,1408.26 787.71,1317.5 783.728,1255.26 779.746,1209.01 775.763,1173.2 771.781,1144.87 767.799,1122.27 763.817,1104.29 759.834,1090.17 755.852,1079.41 751.87,1071.63 747.887,1066.59 743.905,1064.11 739.923,1064.08 735.94,1066.45 731.958,1071.21 727.976,1078.4 723.993,1088.12 720.011,1100.53 716.029,1115.86 712.047,1134.44 708.064,1156.75 704.082,1183.46 700.1,1215.59 696.117,1254.68 692.135,1303.31 688.153,1366.17 684.17,1453.25 680.188,1592.89 676.206,1973.63 672.224,1718.26 668.241,1522.81 664.259,1421.14 660.277,1353.64 656.294,1304.33 652.312,1266.53 648.33,1236.81 644.347,1213.2 640.365,1194.45 636.383,1179.74 632.4,1168.52 628.418,1160.37 624.436,1155.03 620.454,1152.3 616.471,1152.06 612.489,1154.24 608.507,1158.82 604.524,1165.84 600.542,1175.37 596.56,1187.57 592.577,1202.63 588.595,1220.87 584.613,1242.72 580.631,1268.8 576.648,1300.02 572.666,1337.76 568.684,1384.29 564.701,1443.59 560.719,1523.76 556.737,1645.78 552.754,1906.86 548.772,1910.4 544.79,1656.39 540.807,1541.45 536.825,1468.36 532.843,1416.16 528.861,1376.74 524.878,1346.12 520.896,1322.04 516.914,1303.13 512.931,1288.47 508.949,1277.44 504.967,1269.63 500.984,1264.71 497.002,1262.5 493.02,1262.84 489.038,1265.66 485.055,1270.93 481.073,1278.68 477.091,1288.98 473.108,1301.94 469.126,1317.78 465.144,1336.77 461.161,1359.32 457.179,1385.99 453.197,1417.61 449.214,1455.43 445.232,1501.45 441.25,1559.08 437.268,1635 433.285,1745.23 429.303,1949.37 425.321,2213.57 421.338,1841.83 417.356,1711.35 413.374,1633.61 409.391,1580.29 405.409,1541.4 401.427,1512.29 397.445,1490.4 393.462,1474.19 389.48,1462.69 385.498,1455.24 381.515,1451.4 377.533,1450.89 373.551,1453.51 369.568,1459.16 365.586,1467.8 361.604,1479.47 357.621,1494.26 353.639,1512.34 349.657,1533.95 345.675,1559.43 341.692,1589.26 337.71,1624.09 333.728,1664.82 329.745,1712.76 325.763,1769.81 321.781,1838.99 317.798,1925.31 313.816,2038.25 309.834,2199.1 305.852,2475.76 301.869,15155.3 "/>
<polyline clip-path="url(#clip392)" style="stroke:#e26f46; stroke-linecap:round; stroke-linejoin:round; stroke-width:4; stroke-opacity:1; fill:none" points="2293.02,7114.99 2289.04,1802.17 2285.06,1685.27 2281.07,1614.46 2277.09,1561.85 2273.11,1518.77 2269.13,1481.47 2265.15,1448 2261.16,1417.26 2257.18,1388.61 2253.2,1361.64 2249.22,1336.09 2245.23,1311.8 2241.25,1288.66 2237.27,1266.61 2233.29,1245.59 2229.3,1225.58 2225.32,1206.54 2221.34,1188.47 2217.36,1171.34 2213.38,1155.14 2209.39,1139.86 2205.41,1125.48 2201.43,1112.01 2197.45,1099.42 2193.46,1087.7 2189.48,1076.85 2185.5,1066.85 2181.52,1057.69 2177.53,1049.37 2173.55,1041.86 2169.57,1035.16 2165.59,1029.26 2161.61,1024.15 2157.62,1019.81 2153.64,1016.24 2149.66,1013.42 2145.68,1011.33 2141.69,1009.97 2137.71,1009.31 2133.73,1009.33 2129.75,1010.01 2125.76,1011.33 2121.78,1013.26 2117.8,1015.75 2113.82,1018.78 2109.84,1022.29 2105.85,1026.23 2101.87,1030.54 2097.89,1035.13 2093.91,1039.93 2089.92,1044.83 2085.94,1049.74 2081.96,1054.53 2077.98,1059.06 2073.99,1063.21 2070.01,1066.82 2066.03,1069.74 2062.05,1071.84 2058.07,1072.97 2054.08,1073.01 2050.1,1071.88 2046.12,1069.5 2042.14,1065.83 2038.15,1060.89 2034.17,1054.7 2030.19,1047.33 2026.21,1038.88 2022.22,1029.46 2018.24,1019.22 2014.26,1008.29 2010.28,996.824 2006.3,984.955 2002.31,972.822 1998.33,960.551 1994.35,948.258 1990.37,936.046 1986.38,924.005 1982.4,912.216 1978.42,900.747 1974.44,889.657 1970.45,878.994 1966.47,868.801 1962.49,859.113 1958.51,849.959 1954.53,841.361 1950.54,833.339 1946.56,825.908 1942.58,819.081 1938.6,812.867 1934.61,807.274 1930.63,802.307 1926.65,797.968 1922.67,794.26 1918.68,791.184 1914.7,788.738 1910.72,786.921 1906.74,785.727 1902.76,785.152 1898.77,785.189 1894.79,785.829 1890.81,787.059 1886.83,788.868 1882.84,791.236 1878.86,794.145 1874.88,797.569 1870.9,801.479 1866.91,805.839 1862.93,810.609 1858.95,815.738 1854.97,821.17 1850.99,826.838 1847,832.666 1843.02,838.566 1839.04,844.441 1835.06,850.18 1831.07,855.667 1827.09,860.772 1823.11,865.362 1819.13,869.3 1815.14,872.452 1811.16,874.69 1807.18,875.9 1803.2,875.985 1799.22,874.877 1795.23,872.531 1791.25,868.938 1787.27,864.119 1783.29,858.127 1779.3,851.041 1775.32,842.964 1771.34,834.015 1767.36,824.323 1763.37,814.023 1759.39,803.251 1755.41,792.136 1751.43,780.801 1747.45,769.362 1743.46,757.921 1739.48,746.57 1735.5,735.392 1731.52,724.457 1727.53,713.826 1723.55,703.551 1719.57,693.676 1715.59,684.239 1711.6,675.269 1707.62,666.792 1703.64,658.828 1699.66,651.393 1695.68,644.499 1691.69,638.155 1687.71,632.369 1683.73,627.143 1679.75,622.479 1675.76,618.377 1671.78,614.834 1667.8,611.846 1663.82,609.405 1659.83,607.503 1655.85,606.129 1651.87,605.269 1647.89,604.906 1643.91,605.021 1639.92,605.591 1635.94,606.589 1631.96,607.983 1627.98,609.737 1623.99,611.809 1620.01,614.152 1616.03,616.71 1612.05,619.424 1608.07,622.223 1604.08,625.033 1600.1,627.77 1596.12,630.343 1592.14,632.658 1588.15,634.614 1584.17,636.109 1580.19,637.04 1576.21,637.308 1572.22,636.822 1568.24,635.5 1564.26,633.274 1560.28,630.095 1556.3,625.932 1552.31,620.776 1548.33,614.64 1544.35,607.558 1540.37,599.584 1536.38,590.788 1532.4,581.252 1528.42,571.068 1524.44,560.336 1520.45,549.155 1516.47,537.626 1512.49,525.846 1508.51,513.908 1504.53,501.898 1500.54,489.896 1496.56,477.974 1492.58,466.198 1488.6,454.627 1484.61,443.31 1480.63,432.295 1476.65,421.621 1472.67,411.323 1468.68,401.431 1464.7,391.973 1460.72,382.971 1456.74,374.448 1452.76,366.42 1448.77,358.905 1444.79,351.919 1440.81,345.475 1436.83,339.587 1432.84,334.267 1428.86,329.53 1424.88,325.388 1420.9,321.855 1416.91,318.945 1412.93,316.674 1408.95,315.059 1404.97,314.118 1400.99,313.872 1397,314.344 1393.02,315.56 1389.04,317.549 1385.06,320.347 1381.07,323.991 1377.09,328.527 1373.11,334.007 1369.13,340.492 1365.14,348.055 1361.16,356.782 1357.18,366.775 1353.2,378.161 1349.22,391.092 1345.23,405.759 1341.25,422.404 1337.27,441.339 1333.29,462.973 1329.3,487.863 1325.32,516.791 1321.34,550.901 1317.36,591.967 1313.37,642.966 1309.39,709.473 1305.41,804.011 1301.43,966.539 1297.45,9181.18 1293.46,966.539 1289.48,804.011 1285.5,709.473 1281.52,642.966 1277.53,591.967 1273.55,550.901 1269.57,516.791 1265.59,487.863 1261.6,462.973 1257.62,441.339 1253.64,422.404 1249.66,405.759 1245.68,391.092 1241.69,378.161 1237.71,366.775 1233.73,356.782 1229.75,348.055 1225.76,340.492 1221.78,334.007 1217.8,328.527 1213.82,323.991 1209.83,320.347 1205.85,317.549 1201.87,315.56 1197.89,314.344 1193.91,313.872 1189.92,314.118 1185.94,315.059 1181.96,316.674 1177.98,318.945 1173.99,321.855 1170.01,325.388 1166.03,329.53 1162.05,334.267 1158.06,339.587 1154.08,345.475 1150.1,351.919 1146.12,358.905 1142.14,366.42 1138.15,374.448 1134.17,382.971 1130.19,391.973 1126.21,401.431 1122.22,411.323 1118.24,421.621 1114.26,432.295 1110.28,443.31 1106.29,454.627 1102.31,466.198 1098.33,477.974 1094.35,489.896 1090.37,501.898 1086.38,513.908 1082.4,525.846 1078.42,537.626 1074.44,549.155 1070.45,560.336 1066.47,571.068 1062.49,581.252 1058.51,590.788 1054.52,599.584 1050.54,607.558 1046.56,614.64 1042.58,620.776 1038.6,625.932 1034.61,630.095 1030.63,633.274 1026.65,635.5 1022.67,636.822 1018.68,637.308 1014.7,637.04 1010.72,636.109 1006.74,634.614 1002.75,632.658 998.772,630.343 994.79,627.77 990.808,625.033 986.826,622.223 982.843,619.424 978.861,616.71 974.879,614.152 970.896,611.809 966.914,609.737 962.932,607.983 958.949,606.589 954.967,605.591 950.985,605.021 947.003,604.906 943.02,605.269 939.038,606.129 935.056,607.503 931.073,609.405 927.091,611.846 923.109,614.834 919.126,618.377 915.144,622.479 911.162,627.143 907.179,632.369 903.197,638.155 899.215,644.499 895.233,651.393 891.25,658.828 887.268,666.792 883.286,675.269 879.303,684.239 875.321,693.676 871.339,703.551 867.356,713.826 863.374,724.457 859.392,735.392 855.41,746.57 851.427,757.921 847.445,769.362 843.463,780.801 839.48,792.136 835.498,803.251 831.516,814.023 827.533,824.323 823.551,834.015 819.569,842.964 815.586,851.041 811.604,858.127 807.622,864.119 803.64,868.938 799.657,872.531 795.675,874.877 791.693,875.985 787.71,875.9 783.728,874.69 779.746,872.452 775.763,869.3 771.781,865.362 767.799,860.772 763.817,855.667 759.834,850.18 755.852,844.441 751.87,838.566 747.887,832.666 743.905,826.838 739.923,821.17 735.94,815.738 731.958,810.609 727.976,805.839 723.993,801.479 720.011,797.569 716.029,794.145 712.047,791.236 708.064,788.868 704.082,787.059 700.1,785.829 696.117,785.189 692.135,785.152 688.153,785.727 684.17,786.921 680.188,788.738 676.206,791.184 672.224,794.26 668.241,797.968 664.259,802.307 660.277,807.274 656.294,812.867 652.312,819.081 648.33,825.908 644.347,833.339 640.365,841.361 636.383,849.959 632.4,859.113 628.418,868.801 624.436,878.994 620.454,889.657 616.471,900.747 612.489,912.216 608.507,924.005 604.524,936.046 600.542,948.258 596.56,960.551 592.577,972.822 588.595,984.955 584.613,996.824 580.631,1008.29 576.648,1019.22 572.666,1029.46 568.684,1038.88 564.701,1047.33 560.719,1054.7 556.737,1060.89 552.754,1065.83 548.772,1069.5 544.79,1071.88 540.807,1073.01 536.825,1072.97 532.843,1071.84 528.861,1069.74 524.878,1066.82 520.896,1063.21 516.914,1059.06 512.931,1054.53 508.949,1049.74 504.967,1044.83 500.984,1039.93 497.002,1035.13 493.02,1030.54 489.038,1026.23 485.055,1022.29 481.073,1018.78 477.091,1015.75 473.108,1013.26 469.126,1011.33 465.144,1010.01 461.161,1009.33 457.179,1009.31 453.197,1009.97 449.214,1011.33 445.232,1013.42 441.25,1016.24 437.268,1019.81 433.285,1024.15 429.303,1029.26 425.321,1035.16 421.338,1041.86 417.356,1049.37 413.374,1057.69 409.391,1066.85 405.409,1076.85 401.427,1087.7 397.445,1099.42 393.462,1112.01 389.48,1125.48 385.498,1139.86 381.515,1155.14 377.533,1171.34 373.551,1188.47 369.568,1206.54 365.586,1225.58 361.604,1245.59 357.621,1266.61 353.639,1288.66 349.657,1311.8 345.675,1336.09 341.692,1361.64 337.71,1388.61 333.728,1417.26 329.745,1448 325.763,1481.47 321.781,1518.77 317.798,1561.85 313.816,1614.46 309.834,1685.27 305.852,1802.17 301.869,7114.99 "/>
<path clip-path="url(#clip390)" d="M1682.92 322.316 L2282.4 322.316 L2282.4 166.796 L1682.92 166.796  Z" fill="#ffffff" fill-rule="evenodd" fill-opacity="1"/>
<polyline clip-path="url(#clip390)" style="stroke:#000000; stroke-linecap:round; stroke-linejoin:round; stroke-width:4; stroke-opacity:1; fill:none" points="1682.92,322.316 2282.4,322.316 2282.4,166.796 1682.92,166.796 1682.92,322.316 "/>
<polyline clip-path="url(#clip390)" style="stroke:#009af9; stroke-linecap:round; stroke-linejoin:round; stroke-width:4; stroke-opacity:1; fill:none" points="1706.37,218.636 1847.08,218.636 "/>
<path clip-path="url(#clip390)" d="M1892.77 202.49 L1892.77 207.05 Q1890.11 205.777 1887.75 205.152 Q1885.39 204.527 1883.19 204.527 Q1879.37 204.527 1877.29 206.008 Q1875.23 207.49 1875.23 210.221 Q1875.23 212.513 1876.59 213.694 Q1877.98 214.851 1881.82 215.569 L1884.65 216.147 Q1889.88 217.143 1892.36 219.666 Q1894.86 222.166 1894.86 226.379 Q1894.86 231.402 1891.48 233.994 Q1888.12 236.587 1881.61 236.587 Q1879.16 236.587 1876.38 236.031 Q1873.63 235.476 1870.67 234.388 L1870.67 229.573 Q1873.51 231.17 1876.24 231.981 Q1878.98 232.791 1881.61 232.791 Q1885.62 232.791 1887.8 231.217 Q1889.97 229.643 1889.97 226.726 Q1889.97 224.18 1888.4 222.744 Q1886.85 221.309 1883.28 220.592 L1880.43 220.036 Q1875.2 218.995 1872.86 216.772 Q1870.53 214.55 1870.53 210.592 Q1870.53 206.008 1873.74 203.37 Q1876.98 200.731 1882.66 200.731 Q1885.09 200.731 1887.61 201.171 Q1890.13 201.61 1892.77 202.49 Z" fill="#000000" fill-rule="nonzero" fill-opacity="1" /><path clip-path="url(#clip390)" d="M1901.52 225.684 L1901.52 209.99 L1905.78 209.99 L1905.78 225.522 Q1905.78 229.203 1907.22 231.055 Q1908.65 232.883 1911.52 232.883 Q1914.97 232.883 1916.96 230.684 Q1918.98 228.485 1918.98 224.689 L1918.98 209.99 L1923.23 209.99 L1923.23 235.916 L1918.98 235.916 L1918.98 231.934 Q1917.42 234.295 1915.36 235.453 Q1913.33 236.587 1910.62 236.587 Q1906.15 236.587 1903.84 233.809 Q1901.52 231.031 1901.52 225.684 M1912.24 209.365 L1912.24 209.365 Z" fill="#000000" fill-rule="nonzero" fill-opacity="1" /><path clip-path="url(#clip390)" d="M1952.19 214.967 Q1953.79 212.096 1956.01 210.731 Q1958.23 209.365 1961.24 209.365 Q1965.29 209.365 1967.49 212.212 Q1969.69 215.036 1969.69 220.268 L1969.69 235.916 L1965.41 235.916 L1965.41 220.407 Q1965.41 216.68 1964.09 214.874 Q1962.77 213.069 1960.06 213.069 Q1956.75 213.069 1954.83 215.268 Q1952.91 217.467 1952.91 221.263 L1952.91 235.916 L1948.63 235.916 L1948.63 220.407 Q1948.63 216.657 1947.31 214.874 Q1945.99 213.069 1943.23 213.069 Q1939.97 213.069 1938.05 215.291 Q1936.13 217.49 1936.13 221.263 L1936.13 235.916 L1931.85 235.916 L1931.85 209.99 L1936.13 209.99 L1936.13 214.018 Q1937.59 211.633 1939.62 210.499 Q1941.66 209.365 1944.46 209.365 Q1947.29 209.365 1949.25 210.8 Q1951.24 212.235 1952.19 214.967 Z" fill="#000000" fill-rule="nonzero" fill-opacity="1" /><path clip-path="url(#clip390)" d="M1998.12 219.411 L1998.12 232.073 L2005.62 232.073 Q2009.39 232.073 2011.2 230.522 Q2013.03 228.948 2013.03 225.731 Q2013.03 222.49 2011.2 220.962 Q2009.39 219.411 2005.62 219.411 L1998.12 219.411 M1998.12 205.198 L1998.12 215.615 L2005.04 215.615 Q2008.47 215.615 2010.13 214.342 Q2011.82 213.045 2011.82 210.407 Q2011.82 207.791 2010.13 206.495 Q2008.47 205.198 2005.04 205.198 L1998.12 205.198 M1993.44 201.356 L2005.39 201.356 Q2010.73 201.356 2013.63 203.578 Q2016.52 205.8 2016.52 209.897 Q2016.52 213.069 2015.04 214.944 Q2013.56 216.819 2010.69 217.282 Q2014.14 218.022 2016.04 220.383 Q2017.96 222.721 2017.96 226.24 Q2017.96 230.869 2014.81 233.393 Q2011.66 235.916 2005.85 235.916 L1993.44 235.916 L1993.44 201.356 Z" fill="#000000" fill-rule="nonzero" fill-opacity="1" /><path clip-path="url(#clip390)" d="M2047.96 221.888 L2047.96 223.971 L2028.37 223.971 Q2028.65 228.369 2031.01 230.684 Q2033.4 232.976 2037.63 232.976 Q2040.09 232.976 2042.38 232.374 Q2044.69 231.772 2046.96 230.569 L2046.96 234.596 Q2044.67 235.568 2042.26 236.078 Q2039.85 236.587 2037.38 236.587 Q2031.17 236.587 2027.54 232.976 Q2023.93 229.365 2023.93 223.207 Q2023.93 216.842 2027.35 213.115 Q2030.8 209.365 2036.64 209.365 Q2041.87 209.365 2044.9 212.745 Q2047.96 216.101 2047.96 221.888 M2043.7 220.638 Q2043.65 217.143 2041.73 215.059 Q2039.83 212.976 2036.68 212.976 Q2033.12 212.976 2030.97 214.99 Q2028.84 217.004 2028.51 220.661 L2043.7 220.638 Z" fill="#000000" fill-rule="nonzero" fill-opacity="1" /><path clip-path="url(#clip390)" d="M2066.73 222.883 Q2061.57 222.883 2059.58 224.064 Q2057.59 225.244 2057.59 228.092 Q2057.59 230.36 2059.07 231.703 Q2060.57 233.022 2063.14 233.022 Q2066.68 233.022 2068.81 230.522 Q2070.97 227.999 2070.97 223.832 L2070.97 222.883 L2066.73 222.883 M2075.22 221.124 L2075.22 235.916 L2070.97 235.916 L2070.97 231.981 Q2069.51 234.342 2067.33 235.476 Q2065.16 236.587 2062.01 236.587 Q2058.03 236.587 2055.66 234.365 Q2053.33 232.119 2053.33 228.369 Q2053.33 223.994 2056.24 221.772 Q2059.18 219.55 2064.99 219.55 L2070.97 219.55 L2070.97 219.133 Q2070.97 216.194 2069.02 214.596 Q2067.1 212.976 2063.6 212.976 Q2061.38 212.976 2059.28 213.508 Q2057.17 214.041 2055.22 215.106 L2055.22 211.17 Q2057.56 210.268 2059.76 209.828 Q2061.96 209.365 2064.04 209.365 Q2069.67 209.365 2072.45 212.282 Q2075.22 215.198 2075.22 221.124 Z" fill="#000000" fill-rule="nonzero" fill-opacity="1" /><path clip-path="url(#clip390)" d="M2104.18 214.967 Q2105.78 212.096 2108 210.731 Q2110.22 209.365 2113.23 209.365 Q2117.28 209.365 2119.48 212.212 Q2121.68 215.036 2121.68 220.268 L2121.68 235.916 L2117.4 235.916 L2117.4 220.407 Q2117.4 216.68 2116.08 214.874 Q2114.76 213.069 2112.05 213.069 Q2108.74 213.069 2106.82 215.268 Q2104.9 217.467 2104.9 221.263 L2104.9 235.916 L2100.62 235.916 L2100.62 220.407 Q2100.62 216.657 2099.3 214.874 Q2097.98 213.069 2095.22 213.069 Q2091.96 213.069 2090.04 215.291 Q2088.12 217.49 2088.12 221.263 L2088.12 235.916 L2083.84 235.916 L2083.84 209.99 L2088.12 209.99 L2088.12 214.018 Q2089.58 211.633 2091.61 210.499 Q2093.65 209.365 2096.45 209.365 Q2099.28 209.365 2101.24 210.8 Q2103.23 212.235 2104.18 214.967 Z" fill="#000000" fill-rule="nonzero" fill-opacity="1" /><polyline clip-path="url(#clip390)" style="stroke:#e26f46; stroke-linecap:round; stroke-linejoin:round; stroke-width:4; stroke-opacity:1; fill:none" points="1706.37,270.476 1847.08,270.476 "/>
<path clip-path="url(#clip390)" d="M1875.2 257.038 L1875.2 283.913 L1880.85 283.913 Q1888 283.913 1891.31 280.672 Q1894.65 277.432 1894.65 270.441 Q1894.65 263.497 1891.31 260.279 Q1888 257.038 1880.85 257.038 L1875.2 257.038 M1870.53 253.196 L1880.13 253.196 Q1890.18 253.196 1894.88 257.386 Q1899.58 261.552 1899.58 270.441 Q1899.58 279.376 1894.86 283.566 Q1890.13 287.756 1880.13 287.756 L1870.53 287.756 L1870.53 253.196 Z" fill="#000000" fill-rule="nonzero" fill-opacity="1" /><path clip-path="url(#clip390)" d="M1906.85 261.83 L1911.11 261.83 L1911.11 287.756 L1906.85 287.756 L1906.85 261.83 M1906.85 251.737 L1911.11 251.737 L1911.11 257.131 L1906.85 257.131 L1906.85 251.737 Z" fill="#000000" fill-rule="nonzero" fill-opacity="1" /><path clip-path="url(#clip390)" d="M1933.14 251.737 L1933.14 255.279 L1929.07 255.279 Q1926.78 255.279 1925.87 256.205 Q1924.99 257.131 1924.99 259.538 L1924.99 261.83 L1932.01 261.83 L1932.01 265.14 L1924.99 265.14 L1924.99 287.756 L1920.71 287.756 L1920.71 265.14 L1916.64 265.14 L1916.64 261.83 L1920.71 261.83 L1920.71 260.024 Q1920.71 255.696 1922.73 253.728 Q1924.74 251.737 1929.11 251.737 L1933.14 251.737 Z" fill="#000000" fill-rule="nonzero" fill-opacity="1" /><path clip-path="url(#clip390)" d="M1949.83 251.737 L1949.83 255.279 L1945.76 255.279 Q1943.47 255.279 1942.56 256.205 Q1941.68 257.131 1941.68 259.538 L1941.68 261.83 L1948.7 261.83 L1948.7 265.14 L1941.68 265.14 L1941.68 287.756 L1937.4 287.756 L1937.4 265.14 L1933.33 265.14 L1933.33 261.83 L1937.4 261.83 L1937.4 260.024 Q1937.4 255.696 1939.42 253.728 Q1941.43 251.737 1945.8 251.737 L1949.83 251.737 Z" fill="#000000" fill-rule="nonzero" fill-opacity="1" /><path clip-path="url(#clip390)" d="M1975.57 273.728 L1975.57 275.811 L1955.99 275.811 Q1956.27 280.209 1958.63 282.524 Q1961.01 284.816 1965.25 284.816 Q1967.7 284.816 1969.99 284.214 Q1972.31 283.612 1974.58 282.409 L1974.58 286.436 Q1972.29 287.408 1969.88 287.918 Q1967.47 288.427 1964.99 288.427 Q1958.79 288.427 1955.16 284.816 Q1951.54 281.205 1951.54 275.047 Q1951.54 268.682 1954.97 264.955 Q1958.42 261.205 1964.25 261.205 Q1969.48 261.205 1972.52 264.585 Q1975.57 267.941 1975.57 273.728 M1971.31 272.478 Q1971.27 268.983 1969.35 266.899 Q1967.45 264.816 1964.3 264.816 Q1960.73 264.816 1958.58 266.83 Q1956.45 268.844 1956.13 272.501 L1971.31 272.478 Z" fill="#000000" fill-rule="nonzero" fill-opacity="1" /><path clip-path="url(#clip390)" d="M1997.59 265.811 Q1996.87 265.395 1996.01 265.21 Q1995.18 265.001 1994.16 265.001 Q1990.55 265.001 1988.6 267.362 Q1986.68 269.7 1986.68 274.098 L1986.68 287.756 L1982.4 287.756 L1982.4 261.83 L1986.68 261.83 L1986.68 265.858 Q1988.03 263.497 1990.18 262.362 Q1992.33 261.205 1995.41 261.205 Q1995.85 261.205 1996.38 261.274 Q1996.91 261.321 1997.56 261.436 L1997.59 265.811 Z" fill="#000000" fill-rule="nonzero" fill-opacity="1" /><path clip-path="url(#clip390)" d="M2023.19 273.728 L2023.19 275.811 L2003.6 275.811 Q2003.88 280.209 2006.24 282.524 Q2008.63 284.816 2012.86 284.816 Q2015.32 284.816 2017.61 284.214 Q2019.92 283.612 2022.19 282.409 L2022.19 286.436 Q2019.9 287.408 2017.49 287.918 Q2015.09 288.427 2012.61 288.427 Q2006.41 288.427 2002.77 284.816 Q1999.16 281.205 1999.16 275.047 Q1999.16 268.682 2002.59 264.955 Q2006.04 261.205 2011.87 261.205 Q2017.1 261.205 2020.13 264.585 Q2023.19 267.941 2023.19 273.728 M2018.93 272.478 Q2018.88 268.983 2016.96 266.899 Q2015.06 264.816 2011.91 264.816 Q2008.35 264.816 2006.2 266.83 Q2004.07 268.844 2003.74 272.501 L2018.93 272.478 Z" fill="#000000" fill-rule="nonzero" fill-opacity="1" /><path clip-path="url(#clip390)" d="M2051.73 272.108 L2051.73 287.756 L2047.47 287.756 L2047.47 272.247 Q2047.47 268.566 2046.03 266.737 Q2044.6 264.909 2041.73 264.909 Q2038.28 264.909 2036.29 267.108 Q2034.3 269.307 2034.3 273.103 L2034.3 287.756 L2030.02 287.756 L2030.02 261.83 L2034.3 261.83 L2034.3 265.858 Q2035.83 263.52 2037.89 262.362 Q2039.97 261.205 2042.68 261.205 Q2047.15 261.205 2049.44 263.983 Q2051.73 266.737 2051.73 272.108 Z" fill="#000000" fill-rule="nonzero" fill-opacity="1" /><path clip-path="url(#clip390)" d="M2078.88 262.825 L2078.88 266.807 Q2077.08 265.811 2075.25 265.325 Q2073.44 264.816 2071.59 264.816 Q2067.45 264.816 2065.16 267.455 Q2062.86 270.071 2062.86 274.816 Q2062.86 279.561 2065.16 282.2 Q2067.45 284.816 2071.59 284.816 Q2073.44 284.816 2075.25 284.33 Q2077.08 283.821 2078.88 282.825 L2078.88 286.76 Q2077.1 287.594 2075.18 288.01 Q2073.28 288.427 2071.13 288.427 Q2065.27 288.427 2061.82 284.746 Q2058.37 281.066 2058.37 274.816 Q2058.37 268.473 2061.85 264.839 Q2065.34 261.205 2071.41 261.205 Q2073.37 261.205 2075.25 261.622 Q2077.12 262.015 2078.88 262.825 Z" fill="#000000" fill-rule="nonzero" fill-opacity="1" /><path clip-path="url(#clip390)" d="M2108.47 273.728 L2108.47 275.811 L2088.88 275.811 Q2089.16 280.209 2091.52 282.524 Q2093.91 284.816 2098.14 284.816 Q2100.59 284.816 2102.89 284.214 Q2105.2 283.612 2107.47 282.409 L2107.47 286.436 Q2105.18 287.408 2102.77 287.918 Q2100.36 288.427 2097.89 288.427 Q2091.68 288.427 2088.05 284.816 Q2084.44 281.205 2084.44 275.047 Q2084.44 268.682 2087.86 264.955 Q2091.31 261.205 2097.15 261.205 Q2102.38 261.205 2105.41 264.585 Q2108.47 267.941 2108.47 273.728 M2104.21 272.478 Q2104.16 268.983 2102.24 266.899 Q2100.34 264.816 2097.19 264.816 Q2093.63 264.816 2091.47 266.83 Q2089.34 268.844 2089.02 272.501 L2104.21 272.478 Z" fill="#000000" fill-rule="nonzero" fill-opacity="1" /><path clip-path="url(#clip390)" d="M2135.39 271.251 L2135.39 283.913 L2142.89 283.913 Q2146.66 283.913 2148.46 282.362 Q2150.29 280.788 2150.29 277.571 Q2150.29 274.33 2148.46 272.802 Q2146.66 271.251 2142.89 271.251 L2135.39 271.251 M2135.39 257.038 L2135.39 267.455 L2142.31 267.455 Q2145.73 267.455 2147.4 266.182 Q2149.09 264.885 2149.09 262.247 Q2149.09 259.631 2147.4 258.335 Q2145.73 257.038 2142.31 257.038 L2135.39 257.038 M2130.71 253.196 L2142.65 253.196 Q2148 253.196 2150.9 255.418 Q2153.79 257.64 2153.79 261.737 Q2153.79 264.909 2152.31 266.784 Q2150.83 268.659 2147.96 269.122 Q2151.4 269.862 2153.3 272.223 Q2155.22 274.561 2155.22 278.08 Q2155.22 282.709 2152.08 285.233 Q2148.93 287.756 2143.12 287.756 L2130.71 287.756 L2130.71 253.196 Z" fill="#000000" fill-rule="nonzero" fill-opacity="1" /><path clip-path="url(#clip390)" d="M2185.22 273.728 L2185.22 275.811 L2165.64 275.811 Q2165.92 280.209 2168.28 282.524 Q2170.66 284.816 2174.9 284.816 Q2177.35 284.816 2179.65 284.214 Q2181.96 283.612 2184.23 282.409 L2184.23 286.436 Q2181.94 287.408 2179.53 287.918 Q2177.12 288.427 2174.65 288.427 Q2168.44 288.427 2164.81 284.816 Q2161.2 281.205 2161.2 275.047 Q2161.2 268.682 2164.62 264.955 Q2168.07 261.205 2173.9 261.205 Q2179.14 261.205 2182.17 264.585 Q2185.22 267.941 2185.22 273.728 M2180.96 272.478 Q2180.92 268.983 2179 266.899 Q2177.1 264.816 2173.95 264.816 Q2170.39 264.816 2168.23 266.83 Q2166.1 268.844 2165.78 272.501 L2180.96 272.478 Z" fill="#000000" fill-rule="nonzero" fill-opacity="1" /><path clip-path="url(#clip390)" d="M2204 274.723 Q2198.84 274.723 2196.84 275.904 Q2194.85 277.084 2194.85 279.932 Q2194.85 282.2 2196.34 283.543 Q2197.84 284.862 2200.41 284.862 Q2203.95 284.862 2206.08 282.362 Q2208.23 279.839 2208.23 275.672 L2208.23 274.723 L2204 274.723 M2212.49 272.964 L2212.49 287.756 L2208.23 287.756 L2208.23 283.821 Q2206.77 286.182 2204.6 287.316 Q2202.42 288.427 2199.27 288.427 Q2195.29 288.427 2192.93 286.205 Q2190.59 283.959 2190.59 280.209 Q2190.59 275.834 2193.51 273.612 Q2196.45 271.39 2202.26 271.39 L2208.23 271.39 L2208.23 270.973 Q2208.23 268.034 2206.29 266.436 Q2204.37 264.816 2200.87 264.816 Q2198.65 264.816 2196.54 265.348 Q2194.44 265.881 2192.49 266.946 L2192.49 263.01 Q2194.83 262.108 2197.03 261.668 Q2199.23 261.205 2201.31 261.205 Q2206.94 261.205 2209.71 264.122 Q2212.49 267.038 2212.49 272.964 Z" fill="#000000" fill-rule="nonzero" fill-opacity="1" /><path clip-path="url(#clip390)" d="M2241.45 266.807 Q2243.05 263.936 2245.27 262.571 Q2247.49 261.205 2250.5 261.205 Q2254.55 261.205 2256.75 264.052 Q2258.95 266.876 2258.95 272.108 L2258.95 287.756 L2254.67 287.756 L2254.67 272.247 Q2254.67 268.52 2253.35 266.714 Q2252.03 264.909 2249.32 264.909 Q2246.01 264.909 2244.09 267.108 Q2242.17 269.307 2242.17 273.103 L2242.17 287.756 L2237.89 287.756 L2237.89 272.247 Q2237.89 268.497 2236.57 266.714 Q2235.25 264.909 2232.49 264.909 Q2229.23 264.909 2227.31 267.131 Q2225.39 269.33 2225.39 273.103 L2225.39 287.756 L2221.1 287.756 L2221.1 261.83 L2225.39 261.83 L2225.39 265.858 Q2226.84 263.473 2228.88 262.339 Q2230.92 261.205 2233.72 261.205 Q2236.54 261.205 2238.51 262.64 Q2240.5 264.075 2241.45 266.807 Z" fill="#000000" fill-rule="nonzero" fill-opacity="1" /></svg>
