<?xml version="1.0" encoding="utf-8"?>
<svg xmlns="http://www.w3.org/2000/svg" xmlns:xlink="http://www.w3.org/1999/xlink" width="600" height="400" viewBox="0 0 2400 1600">
<defs>
  <clipPath id="clip330">
    <rect x="0" y="0" width="2400" height="1600"/>
  </clipPath>
</defs>
<path clip-path="url(#clip330)" d="M0 1600 L2400 1600 L2400 0 L0 0  Z" fill="#ffffff" fill-rule="evenodd" fill-opacity="1"/>
<defs>
  <clipPath id="clip331">
    <rect x="480" y="0" width="1681" height="1600"/>
  </clipPath>
</defs>
<path clip-path="url(#clip330)" d="M257.204 1423.18 L2352.76 1423.18 L2352.76 123.472 L257.204 123.472  Z" fill="#ffffff" fill-rule="evenodd" fill-opacity="1"/>
<defs>
  <clipPath id="clip332">
    <rect x="257" y="123" width="2097" height="1301"/>
  </clipPath>
</defs>
<polyline clip-path="url(#clip332)" style="stroke:#000000; stroke-linecap:round; stroke-linejoin:round; stroke-width:2; stroke-opacity:0.1; fill:none" points="348.398,1423.18 348.398,123.472 "/>
<polyline clip-path="url(#clip332)" style="stroke:#000000; stroke-linecap:round; stroke-linejoin:round; stroke-width:2; stroke-opacity:0.1; fill:none" points="667.259,1423.18 667.259,123.472 "/>
<polyline clip-path="url(#clip332)" style="stroke:#000000; stroke-linecap:round; stroke-linejoin:round; stroke-width:2; stroke-opacity:0.1; fill:none" points="986.119,1423.18 986.119,123.472 "/>
<polyline clip-path="url(#clip332)" style="stroke:#000000; stroke-linecap:round; stroke-linejoin:round; stroke-width:2; stroke-opacity:0.1; fill:none" points="1304.98,1423.18 1304.98,123.472 "/>
<polyline clip-path="url(#clip332)" style="stroke:#000000; stroke-linecap:round; stroke-linejoin:round; stroke-width:2; stroke-opacity:0.1; fill:none" points="1623.84,1423.18 1623.84,123.472 "/>
<polyline clip-path="url(#clip332)" style="stroke:#000000; stroke-linecap:round; stroke-linejoin:round; stroke-width:2; stroke-opacity:0.1; fill:none" points="1942.7,1423.18 1942.7,123.472 "/>
<polyline clip-path="url(#clip332)" style="stroke:#000000; stroke-linecap:round; stroke-linejoin:round; stroke-width:2; stroke-opacity:0.1; fill:none" points="2261.56,1423.18 2261.56,123.472 "/>
<polyline clip-path="url(#clip332)" style="stroke:#000000; stroke-linecap:round; stroke-linejoin:round; stroke-width:2; stroke-opacity:0.1; fill:none" points="257.204,1414.86 2352.76,1414.86 "/>
<polyline clip-path="url(#clip332)" style="stroke:#000000; stroke-linecap:round; stroke-linejoin:round; stroke-width:2; stroke-opacity:0.1; fill:none" points="257.204,1201.02 2352.76,1201.02 "/>
<polyline clip-path="url(#clip332)" style="stroke:#000000; stroke-linecap:round; stroke-linejoin:round; stroke-width:2; stroke-opacity:0.1; fill:none" points="257.204,987.171 2352.76,987.171 "/>
<polyline clip-path="url(#clip332)" style="stroke:#000000; stroke-linecap:round; stroke-linejoin:round; stroke-width:2; stroke-opacity:0.1; fill:none" points="257.204,773.326 2352.76,773.326 "/>
<polyline clip-path="url(#clip332)" style="stroke:#000000; stroke-linecap:round; stroke-linejoin:round; stroke-width:2; stroke-opacity:0.1; fill:none" points="257.204,559.481 2352.76,559.481 "/>
<polyline clip-path="url(#clip332)" style="stroke:#000000; stroke-linecap:round; stroke-linejoin:round; stroke-width:2; stroke-opacity:0.1; fill:none" points="257.204,345.636 2352.76,345.636 "/>
<polyline clip-path="url(#clip332)" style="stroke:#000000; stroke-linecap:round; stroke-linejoin:round; stroke-width:2; stroke-opacity:0.1; fill:none" points="257.204,131.791 2352.76,131.791 "/>
<polyline clip-path="url(#clip330)" style="stroke:#000000; stroke-linecap:round; stroke-linejoin:round; stroke-width:4; stroke-opacity:1; fill:none" points="257.204,1423.18 2352.76,1423.18 "/>
<polyline clip-path="url(#clip330)" style="stroke:#000000; stroke-linecap:round; stroke-linejoin:round; stroke-width:4; stroke-opacity:1; fill:none" points="348.398,1423.18 348.398,1404.28 "/>
<polyline clip-path="url(#clip330)" style="stroke:#000000; stroke-linecap:round; stroke-linejoin:round; stroke-width:4; stroke-opacity:1; fill:none" points="667.259,1423.18 667.259,1404.28 "/>
<polyline clip-path="url(#clip330)" style="stroke:#000000; stroke-linecap:round; stroke-linejoin:round; stroke-width:4; stroke-opacity:1; fill:none" points="986.119,1423.18 986.119,1404.28 "/>
<polyline clip-path="url(#clip330)" style="stroke:#000000; stroke-linecap:round; stroke-linejoin:round; stroke-width:4; stroke-opacity:1; fill:none" points="1304.98,1423.18 1304.98,1404.28 "/>
<polyline clip-path="url(#clip330)" style="stroke:#000000; stroke-linecap:round; stroke-linejoin:round; stroke-width:4; stroke-opacity:1; fill:none" points="1623.84,1423.18 1623.84,1404.28 "/>
<polyline clip-path="url(#clip330)" style="stroke:#000000; stroke-linecap:round; stroke-linejoin:round; stroke-width:4; stroke-opacity:1; fill:none" points="1942.7,1423.18 1942.7,1404.28 "/>
<polyline clip-path="url(#clip330)" style="stroke:#000000; stroke-linecap:round; stroke-linejoin:round; stroke-width:4; stroke-opacity:1; fill:none" points="2261.56,1423.18 2261.56,1404.28 "/>
<path clip-path="url(#clip330)" d="M302.959 1468.75 L332.634 1468.75 L332.634 1472.69 L302.959 1472.69 L302.959 1468.75 Z" fill="#000000" fill-rule="nonzero" fill-opacity="1" /><path clip-path="url(#clip330)" d="M343.537 1481.64 L351.176 1481.64 L351.176 1455.28 L342.866 1456.95 L342.866 1452.69 L351.13 1451.02 L355.806 1451.02 L355.806 1481.64 L363.444 1481.64 L363.444 1485.58 L343.537 1485.58 L343.537 1481.64 Z" fill="#000000" fill-rule="nonzero" fill-opacity="1" /><path clip-path="url(#clip330)" d="M372.935 1451.02 L391.291 1451.02 L391.291 1454.96 L377.217 1454.96 L377.217 1463.43 Q378.236 1463.08 379.254 1462.92 Q380.273 1462.73 381.292 1462.73 Q387.079 1462.73 390.458 1465.9 Q393.838 1469.08 393.838 1474.49 Q393.838 1480.07 390.366 1483.17 Q386.893 1486.25 380.574 1486.25 Q378.398 1486.25 376.129 1485.88 Q373.884 1485.51 371.477 1484.77 L371.477 1480.07 Q373.56 1481.2 375.782 1481.76 Q378.004 1482.32 380.481 1482.32 Q384.486 1482.32 386.824 1480.21 Q389.162 1478.1 389.162 1474.49 Q389.162 1470.88 386.824 1468.77 Q384.486 1466.67 380.481 1466.67 Q378.606 1466.67 376.731 1467.08 Q374.88 1467.5 372.935 1468.38 L372.935 1451.02 Z" fill="#000000" fill-rule="nonzero" fill-opacity="1" /><path clip-path="url(#clip330)" d="M621.322 1468.75 L650.997 1468.75 L650.997 1472.69 L621.322 1472.69 L621.322 1468.75 Z" fill="#000000" fill-rule="nonzero" fill-opacity="1" /><path clip-path="url(#clip330)" d="M661.9 1481.64 L669.539 1481.64 L669.539 1455.28 L661.229 1456.95 L661.229 1452.69 L669.493 1451.02 L674.168 1451.02 L674.168 1481.64 L681.807 1481.64 L681.807 1485.58 L661.9 1485.58 L661.9 1481.64 Z" fill="#000000" fill-rule="nonzero" fill-opacity="1" /><path clip-path="url(#clip330)" d="M701.252 1454.1 Q697.641 1454.1 695.812 1457.66 Q694.006 1461.2 694.006 1468.33 Q694.006 1475.44 695.812 1479.01 Q697.641 1482.55 701.252 1482.55 Q704.886 1482.55 706.691 1479.01 Q708.52 1475.44 708.52 1468.33 Q708.52 1461.2 706.691 1457.66 Q704.886 1454.1 701.252 1454.1 M701.252 1450.39 Q707.062 1450.39 710.117 1455 Q713.196 1459.58 713.196 1468.33 Q713.196 1477.06 710.117 1481.67 Q707.062 1486.25 701.252 1486.25 Q695.441 1486.25 692.363 1481.67 Q689.307 1477.06 689.307 1468.33 Q689.307 1459.58 692.363 1455 Q695.441 1450.39 701.252 1450.39 Z" fill="#000000" fill-rule="nonzero" fill-opacity="1" /><path clip-path="url(#clip330)" d="M955.761 1468.75 L985.436 1468.75 L985.436 1472.69 L955.761 1472.69 L955.761 1468.75 Z" fill="#000000" fill-rule="nonzero" fill-opacity="1" /><path clip-path="url(#clip330)" d="M995.575 1451.02 L1013.93 1451.02 L1013.93 1454.96 L999.858 1454.96 L999.858 1463.43 Q1000.88 1463.08 1001.89 1462.92 Q1002.91 1462.73 1003.93 1462.73 Q1009.72 1462.73 1013.1 1465.9 Q1016.48 1469.08 1016.48 1474.49 Q1016.48 1480.07 1013.01 1483.17 Q1009.53 1486.25 1003.21 1486.25 Q1001.04 1486.25 998.77 1485.88 Q996.524 1485.51 994.117 1484.77 L994.117 1480.07 Q996.2 1481.2 998.423 1481.76 Q1000.64 1482.32 1003.12 1482.32 Q1007.13 1482.32 1009.46 1480.21 Q1011.8 1478.1 1011.8 1474.49 Q1011.8 1470.88 1009.46 1468.77 Q1007.13 1466.67 1003.12 1466.67 Q1001.25 1466.67 999.372 1467.08 Q997.52 1467.5 995.575 1468.38 L995.575 1451.02 Z" fill="#000000" fill-rule="nonzero" fill-opacity="1" /><path clip-path="url(#clip330)" d="M1304.98 1454.1 Q1301.37 1454.1 1299.54 1457.66 Q1297.73 1461.2 1297.73 1468.33 Q1297.73 1475.44 1299.54 1479.01 Q1301.37 1482.55 1304.98 1482.55 Q1308.61 1482.55 1310.42 1479.01 Q1312.25 1475.44 1312.25 1468.33 Q1312.25 1461.2 1310.42 1457.66 Q1308.61 1454.1 1304.98 1454.1 M1304.98 1450.39 Q1310.79 1450.39 1313.85 1455 Q1316.92 1459.58 1316.92 1468.33 Q1316.92 1477.06 1313.85 1481.67 Q1310.79 1486.25 1304.98 1486.25 Q1299.17 1486.25 1296.09 1481.67 Q1293.04 1477.06 1293.04 1468.33 Q1293.04 1459.58 1296.09 1455 Q1299.17 1450.39 1304.98 1450.39 Z" fill="#000000" fill-rule="nonzero" fill-opacity="1" /><path clip-path="url(#clip330)" d="M1614.12 1451.02 L1632.47 1451.02 L1632.47 1454.96 L1618.4 1454.96 L1618.4 1463.43 Q1619.42 1463.08 1620.44 1462.92 Q1621.46 1462.73 1622.47 1462.73 Q1628.26 1462.73 1631.64 1465.9 Q1635.02 1469.08 1635.02 1474.49 Q1635.02 1480.07 1631.55 1483.17 Q1628.08 1486.25 1621.76 1486.25 Q1619.58 1486.25 1617.31 1485.88 Q1615.07 1485.51 1612.66 1484.77 L1612.66 1480.07 Q1614.74 1481.2 1616.97 1481.76 Q1619.19 1482.32 1621.66 1482.32 Q1625.67 1482.32 1628.01 1480.21 Q1630.35 1478.1 1630.35 1474.49 Q1630.35 1470.88 1628.01 1468.77 Q1625.67 1466.67 1621.66 1466.67 Q1619.79 1466.67 1617.91 1467.08 Q1616.06 1467.5 1614.12 1468.38 L1614.12 1451.02 Z" fill="#000000" fill-rule="nonzero" fill-opacity="1" /><path clip-path="url(#clip330)" d="M1917.39 1481.64 L1925.03 1481.64 L1925.03 1455.28 L1916.72 1456.95 L1916.72 1452.69 L1924.98 1451.02 L1929.66 1451.02 L1929.66 1481.64 L1937.3 1481.64 L1937.3 1485.58 L1917.39 1485.58 L1917.39 1481.64 Z" fill="#000000" fill-rule="nonzero" fill-opacity="1" /><path clip-path="url(#clip330)" d="M1956.74 1454.1 Q1953.13 1454.1 1951.3 1457.66 Q1949.5 1461.2 1949.5 1468.33 Q1949.5 1475.44 1951.3 1479.01 Q1953.13 1482.55 1956.74 1482.55 Q1960.37 1482.55 1962.18 1479.01 Q1964.01 1475.44 1964.01 1468.33 Q1964.01 1461.2 1962.18 1457.66 Q1960.37 1454.1 1956.74 1454.1 M1956.74 1450.39 Q1962.55 1450.39 1965.61 1455 Q1968.68 1459.58 1968.68 1468.33 Q1968.68 1477.06 1965.61 1481.67 Q1962.55 1486.25 1956.74 1486.25 Q1950.93 1486.25 1947.85 1481.67 Q1944.8 1477.06 1944.8 1468.33 Q1944.8 1459.58 1947.85 1455 Q1950.93 1450.39 1956.74 1450.39 Z" fill="#000000" fill-rule="nonzero" fill-opacity="1" /><path clip-path="url(#clip330)" d="M2236.75 1481.64 L2244.39 1481.64 L2244.39 1455.28 L2236.08 1456.95 L2236.08 1452.69 L2244.34 1451.02 L2249.02 1451.02 L2249.02 1481.64 L2256.65 1481.64 L2256.65 1485.58 L2236.75 1485.58 L2236.75 1481.64 Z" fill="#000000" fill-rule="nonzero" fill-opacity="1" /><path clip-path="url(#clip330)" d="M2266.15 1451.02 L2284.5 1451.02 L2284.5 1454.96 L2270.43 1454.96 L2270.43 1463.43 Q2271.45 1463.08 2272.46 1462.92 Q2273.48 1462.73 2274.5 1462.73 Q2280.29 1462.73 2283.67 1465.9 Q2287.05 1469.08 2287.05 1474.49 Q2287.05 1480.07 2283.58 1483.17 Q2280.1 1486.25 2273.78 1486.25 Q2271.61 1486.25 2269.34 1485.88 Q2267.09 1485.51 2264.69 1484.77 L2264.69 1480.07 Q2266.77 1481.2 2268.99 1481.76 Q2271.21 1482.32 2273.69 1482.32 Q2277.7 1482.32 2280.03 1480.21 Q2282.37 1478.1 2282.37 1474.49 Q2282.37 1470.88 2280.03 1468.77 Q2277.7 1466.67 2273.69 1466.67 Q2271.82 1466.67 2269.94 1467.08 Q2268.09 1467.5 2266.15 1468.38 L2266.15 1451.02 Z" fill="#000000" fill-rule="nonzero" fill-opacity="1" /><path clip-path="url(#clip330)" d="M983.703 1520.52 L1013.75 1520.52 L1013.75 1525.93 L990.132 1525.93 L990.132 1540 L1012.76 1540 L1012.76 1545.41 L990.132 1545.41 L990.132 1562.63 L1014.32 1562.63 L1014.32 1568.04 L983.703 1568.04 L983.703 1520.52 Z" fill="#000000" fill-rule="nonzero" fill-opacity="1" /><path clip-path="url(#clip330)" d="M1024.63 1518.52 L1030.49 1518.52 L1030.49 1568.04 L1024.63 1568.04 L1024.63 1518.52 Z" fill="#000000" fill-rule="nonzero" fill-opacity="1" /><path clip-path="url(#clip330)" d="M1073.24 1548.76 L1073.24 1551.62 L1046.31 1551.62 Q1046.69 1557.67 1049.94 1560.85 Q1053.22 1564 1059.04 1564 Q1062.41 1564 1065.57 1563.17 Q1068.75 1562.35 1071.87 1560.69 L1071.87 1566.23 Q1068.72 1567.57 1065.41 1568.27 Q1062.1 1568.97 1058.69 1568.97 Q1050.16 1568.97 1045.16 1564 Q1040.2 1559.04 1040.2 1550.57 Q1040.2 1541.82 1044.91 1536.69 Q1049.65 1531.54 1057.67 1531.54 Q1064.87 1531.54 1069.04 1536.18 Q1073.24 1540.8 1073.24 1548.76 M1067.38 1547.04 Q1067.32 1542.23 1064.67 1539.37 Q1062.06 1536.5 1057.74 1536.5 Q1052.83 1536.5 1049.87 1539.27 Q1046.95 1542.04 1046.5 1547.07 L1067.38 1547.04 Z" fill="#000000" fill-rule="nonzero" fill-opacity="1" /><path clip-path="url(#clip330)" d="M1110.6 1539.24 Q1112.8 1535.29 1115.85 1533.41 Q1118.91 1531.54 1123.05 1531.54 Q1128.62 1531.54 1131.64 1535.45 Q1134.67 1539.33 1134.67 1546.53 L1134.67 1568.04 L1128.78 1568.04 L1128.78 1546.72 Q1128.78 1541.59 1126.96 1539.11 Q1125.15 1536.63 1121.42 1536.63 Q1116.87 1536.63 1114.23 1539.65 Q1111.59 1542.68 1111.59 1547.9 L1111.59 1568.04 L1105.7 1568.04 L1105.7 1546.72 Q1105.7 1541.56 1103.89 1539.11 Q1102.07 1536.63 1098.29 1536.63 Q1093.8 1536.63 1091.16 1539.68 Q1088.51 1542.71 1088.51 1547.9 L1088.51 1568.04 L1082.63 1568.04 L1082.63 1532.4 L1088.51 1532.4 L1088.51 1537.93 Q1090.52 1534.66 1093.32 1533.1 Q1096.12 1531.54 1099.97 1531.54 Q1103.86 1531.54 1106.56 1533.51 Q1109.3 1535.48 1110.6 1539.24 Z" fill="#000000" fill-rule="nonzero" fill-opacity="1" /><path clip-path="url(#clip330)" d="M1176.84 1548.76 L1176.84 1551.62 L1149.91 1551.62 Q1150.29 1557.67 1153.54 1560.85 Q1156.82 1564 1162.64 1564 Q1166.02 1564 1169.17 1563.17 Q1172.35 1562.35 1175.47 1560.69 L1175.47 1566.23 Q1172.32 1567.57 1169.01 1568.27 Q1165.7 1568.97 1162.29 1568.97 Q1153.76 1568.97 1148.77 1564 Q1143.8 1559.04 1143.8 1550.57 Q1143.8 1541.82 1148.51 1536.69 Q1153.25 1531.54 1161.27 1531.54 Q1168.47 1531.54 1172.64 1536.18 Q1176.84 1540.8 1176.84 1548.76 M1170.98 1547.04 Q1170.92 1542.23 1168.28 1539.37 Q1165.67 1536.5 1161.34 1536.5 Q1156.44 1536.5 1153.48 1539.27 Q1150.55 1542.04 1150.1 1547.07 L1170.98 1547.04 Z" fill="#000000" fill-rule="nonzero" fill-opacity="1" /><path clip-path="url(#clip330)" d="M1216.08 1546.53 L1216.08 1568.04 L1210.23 1568.04 L1210.23 1546.72 Q1210.23 1541.66 1208.25 1539.14 Q1206.28 1536.63 1202.33 1536.63 Q1197.59 1536.63 1194.85 1539.65 Q1192.12 1542.68 1192.12 1547.9 L1192.12 1568.04 L1186.23 1568.04 L1186.23 1532.4 L1192.12 1532.4 L1192.12 1537.93 Q1194.22 1534.72 1197.05 1533.13 Q1199.91 1531.54 1203.64 1531.54 Q1209.78 1531.54 1212.93 1535.36 Q1216.08 1539.14 1216.08 1546.53 Z" fill="#000000" fill-rule="nonzero" fill-opacity="1" /><path clip-path="url(#clip330)" d="M1233.56 1522.27 L1233.56 1532.4 L1245.62 1532.4 L1245.62 1536.95 L1233.56 1536.95 L1233.56 1556.3 Q1233.56 1560.66 1234.73 1561.9 Q1235.94 1563.14 1239.6 1563.14 L1245.62 1563.14 L1245.62 1568.04 L1239.6 1568.04 Q1232.82 1568.04 1230.25 1565.53 Q1227.67 1562.98 1227.67 1556.3 L1227.67 1536.95 L1223.37 1536.95 L1223.37 1532.4 L1227.67 1532.4 L1227.67 1522.27 L1233.56 1522.27 Z" fill="#000000" fill-rule="nonzero" fill-opacity="1" /><path clip-path="url(#clip330)" d="M1280.73 1525.81 L1280.73 1543.66 L1288.81 1543.66 Q1293.3 1543.66 1295.75 1541.34 Q1298.2 1539.02 1298.2 1534.72 Q1298.2 1530.45 1295.75 1528.13 Q1293.3 1525.81 1288.81 1525.81 L1280.73 1525.81 M1274.3 1520.52 L1288.81 1520.52 Q1296.8 1520.52 1300.87 1524.15 Q1304.98 1527.75 1304.98 1534.72 Q1304.98 1541.75 1300.87 1545.35 Q1296.8 1548.95 1288.81 1548.95 L1280.73 1548.95 L1280.73 1568.04 L1274.3 1568.04 L1274.3 1520.52 Z" fill="#000000" fill-rule="nonzero" fill-opacity="1" /><path clip-path="url(#clip330)" d="M1324.84 1536.5 Q1320.13 1536.5 1317.39 1540.19 Q1314.66 1543.85 1314.66 1550.25 Q1314.66 1556.65 1317.36 1560.34 Q1320.1 1564 1324.84 1564 Q1329.52 1564 1332.26 1560.31 Q1334.99 1556.62 1334.99 1550.25 Q1334.99 1543.92 1332.26 1540.23 Q1329.52 1536.5 1324.84 1536.5 M1324.84 1531.54 Q1332.48 1531.54 1336.84 1536.5 Q1341.2 1541.47 1341.2 1550.25 Q1341.2 1559 1336.84 1564 Q1332.48 1568.97 1324.84 1568.97 Q1317.17 1568.97 1312.81 1564 Q1308.48 1559 1308.48 1550.25 Q1308.48 1541.47 1312.81 1536.5 Q1317.17 1531.54 1324.84 1531.54 Z" fill="#000000" fill-rule="nonzero" fill-opacity="1" /><path clip-path="url(#clip330)" d="M1373.63 1533.45 L1373.63 1538.98 Q1371.15 1537.71 1368.48 1537.07 Q1365.8 1536.44 1362.94 1536.44 Q1358.58 1536.44 1356.38 1537.77 Q1354.22 1539.11 1354.22 1541.79 Q1354.22 1543.82 1355.78 1545 Q1357.34 1546.15 1362.05 1547.2 L1364.05 1547.64 Q1370.29 1548.98 1372.9 1551.43 Q1375.54 1553.85 1375.54 1558.21 Q1375.54 1563.17 1371.6 1566.07 Q1367.68 1568.97 1360.81 1568.97 Q1357.94 1568.97 1354.82 1568.39 Q1351.74 1567.85 1348.3 1566.74 L1348.3 1560.69 Q1351.55 1562.38 1354.7 1563.24 Q1357.85 1564.07 1360.93 1564.07 Q1365.07 1564.07 1367.3 1562.66 Q1369.53 1561.23 1369.53 1558.65 Q1369.53 1556.27 1367.9 1554.99 Q1366.31 1553.72 1360.87 1552.54 L1358.83 1552.07 Q1353.39 1550.92 1350.97 1548.56 Q1348.55 1546.18 1348.55 1542.04 Q1348.55 1537.01 1352.12 1534.27 Q1355.68 1531.54 1362.24 1531.54 Q1365.49 1531.54 1368.35 1532.01 Q1371.22 1532.49 1373.63 1533.45 Z" fill="#000000" fill-rule="nonzero" fill-opacity="1" /><path clip-path="url(#clip330)" d="M1384.87 1532.4 L1390.73 1532.4 L1390.73 1568.04 L1384.87 1568.04 L1384.87 1532.4 M1384.87 1518.52 L1390.73 1518.52 L1390.73 1525.93 L1384.87 1525.93 L1384.87 1518.52 Z" fill="#000000" fill-rule="nonzero" fill-opacity="1" /><path clip-path="url(#clip330)" d="M1408.77 1522.27 L1408.77 1532.4 L1420.84 1532.4 L1420.84 1536.95 L1408.77 1536.95 L1408.77 1556.3 Q1408.77 1560.66 1409.95 1561.9 Q1411.16 1563.14 1414.82 1563.14 L1420.84 1563.14 L1420.84 1568.04 L1414.82 1568.04 Q1408.04 1568.04 1405.46 1565.53 Q1402.88 1562.98 1402.88 1556.3 L1402.88 1536.95 L1398.59 1536.95 L1398.59 1532.4 L1402.88 1532.4 L1402.88 1522.27 L1408.77 1522.27 Z" fill="#000000" fill-rule="nonzero" fill-opacity="1" /><path clip-path="url(#clip330)" d="M1428.54 1532.4 L1434.39 1532.4 L1434.39 1568.04 L1428.54 1568.04 L1428.54 1532.4 M1428.54 1518.52 L1434.39 1518.52 L1434.39 1525.93 L1428.54 1525.93 L1428.54 1518.52 Z" fill="#000000" fill-rule="nonzero" fill-opacity="1" /><path clip-path="url(#clip330)" d="M1460.46 1536.5 Q1455.75 1536.5 1453.01 1540.19 Q1450.28 1543.85 1450.28 1550.25 Q1450.28 1556.65 1452.98 1560.34 Q1455.72 1564 1460.46 1564 Q1465.14 1564 1467.88 1560.31 Q1470.62 1556.62 1470.62 1550.25 Q1470.62 1543.92 1467.88 1540.23 Q1465.14 1536.5 1460.46 1536.5 M1460.46 1531.54 Q1468.1 1531.54 1472.46 1536.5 Q1476.82 1541.47 1476.82 1550.25 Q1476.82 1559 1472.46 1564 Q1468.1 1568.97 1460.46 1568.97 Q1452.79 1568.97 1448.43 1564 Q1444.1 1559 1444.1 1550.25 Q1444.1 1541.47 1448.43 1536.5 Q1452.79 1531.54 1460.46 1531.54 Z" fill="#000000" fill-rule="nonzero" fill-opacity="1" /><path clip-path="url(#clip330)" d="M1516.16 1546.53 L1516.16 1568.04 L1510.31 1568.04 L1510.31 1546.72 Q1510.31 1541.66 1508.33 1539.14 Q1506.36 1536.63 1502.41 1536.63 Q1497.67 1536.63 1494.93 1539.65 Q1492.2 1542.68 1492.2 1547.9 L1492.2 1568.04 L1486.31 1568.04 L1486.31 1532.4 L1492.2 1532.4 L1492.2 1537.93 Q1494.3 1534.72 1497.13 1533.13 Q1499.99 1531.54 1503.72 1531.54 Q1509.86 1531.54 1513.01 1535.36 Q1516.16 1539.14 1516.16 1546.53 Z" fill="#000000" fill-rule="nonzero" fill-opacity="1" /><path clip-path="url(#clip330)" d="M1548.02 1518.52 L1561.52 1518.52 L1561.52 1523.07 L1553.88 1523.07 L1553.88 1572.09 L1561.52 1572.09 L1561.52 1576.64 L1548.02 1576.64 L1548.02 1518.52 Z" fill="#000000" fill-rule="nonzero" fill-opacity="1" /><path clip-path="url(#clip330)" d="M1588.03 1524.09 L1604.49 1568.04 L1598.28 1568.04 L1588.29 1541.69 L1576 1568.04 L1569.79 1568.04 L1585.42 1533.86 L1583.07 1527.56 Q1581.57 1523.55 1578.16 1523.55 L1575.11 1523.55 L1575.11 1518.52 L1578.83 1518.58 Q1586.03 1518.68 1588.03 1524.09 Z" fill="#000000" fill-rule="nonzero" fill-opacity="1" /><path clip-path="url(#clip330)" d="M1626.26 1518.52 L1626.26 1576.64 L1612.76 1576.64 L1612.76 1572.09 L1620.37 1572.09 L1620.37 1523.07 L1612.76 1523.07 L1612.76 1518.52 L1626.26 1518.52 Z" fill="#000000" fill-rule="nonzero" fill-opacity="1" /><polyline clip-path="url(#clip330)" style="stroke:#000000; stroke-linecap:round; stroke-linejoin:round; stroke-width:4; stroke-opacity:1; fill:none" points="257.204,1423.18 257.204,123.472 "/>
<polyline clip-path="url(#clip330)" style="stroke:#000000; stroke-linecap:round; stroke-linejoin:round; stroke-width:4; stroke-opacity:1; fill:none" points="257.204,1414.86 276.102,1414.86 "/>
<polyline clip-path="url(#clip330)" style="stroke:#000000; stroke-linecap:round; stroke-linejoin:round; stroke-width:4; stroke-opacity:1; fill:none" points="257.204,1201.02 276.102,1201.02 "/>
<polyline clip-path="url(#clip330)" style="stroke:#000000; stroke-linecap:round; stroke-linejoin:round; stroke-width:4; stroke-opacity:1; fill:none" points="257.204,987.171 276.102,987.171 "/>
<polyline clip-path="url(#clip330)" style="stroke:#000000; stroke-linecap:round; stroke-linejoin:round; stroke-width:4; stroke-opacity:1; fill:none" points="257.204,773.326 276.102,773.326 "/>
<polyline clip-path="url(#clip330)" style="stroke:#000000; stroke-linecap:round; stroke-linejoin:round; stroke-width:4; stroke-opacity:1; fill:none" points="257.204,559.481 276.102,559.481 "/>
<polyline clip-path="url(#clip330)" style="stroke:#000000; stroke-linecap:round; stroke-linejoin:round; stroke-width:4; stroke-opacity:1; fill:none" points="257.204,345.636 276.102,345.636 "/>
<polyline clip-path="url(#clip330)" style="stroke:#000000; stroke-linecap:round; stroke-linejoin:round; stroke-width:4; stroke-opacity:1; fill:none" points="257.204,131.791 276.102,131.791 "/>
<path clip-path="url(#clip330)" d="M115.256 1415.31 L144.931 1415.31 L144.931 1419.25 L115.256 1419.25 L115.256 1415.31 Z" fill="#000000" fill-rule="nonzero" fill-opacity="1" /><path clip-path="url(#clip330)" d="M155.834 1428.21 L163.473 1428.21 L163.473 1401.84 L155.163 1403.51 L155.163 1399.25 L163.427 1397.58 L168.102 1397.58 L168.102 1428.21 L175.741 1428.21 L175.741 1432.14 L155.834 1432.14 L155.834 1428.21 Z" fill="#000000" fill-rule="nonzero" fill-opacity="1" /><path clip-path="url(#clip330)" d="M185.186 1426.26 L190.07 1426.26 L190.07 1432.14 L185.186 1432.14 L185.186 1426.26 Z" fill="#000000" fill-rule="nonzero" fill-opacity="1" /><path clip-path="url(#clip330)" d="M200.301 1397.58 L218.658 1397.58 L218.658 1401.52 L204.584 1401.52 L204.584 1409.99 Q205.602 1409.64 206.621 1409.48 Q207.639 1409.29 208.658 1409.29 Q214.445 1409.29 217.824 1412.47 Q221.204 1415.64 221.204 1421.05 Q221.204 1426.63 217.732 1429.73 Q214.26 1432.81 207.94 1432.81 Q205.764 1432.81 203.496 1432.44 Q201.25 1432.07 198.843 1431.33 L198.843 1426.63 Q200.926 1427.77 203.149 1428.32 Q205.371 1428.88 207.848 1428.88 Q211.852 1428.88 214.19 1426.77 Q216.528 1424.66 216.528 1421.05 Q216.528 1417.44 214.19 1415.34 Q211.852 1413.23 207.848 1413.23 Q205.973 1413.23 204.098 1413.65 Q202.246 1414.06 200.301 1414.94 L200.301 1397.58 Z" fill="#000000" fill-rule="nonzero" fill-opacity="1" /><path clip-path="url(#clip330)" d="M114.26 1201.47 L143.936 1201.47 L143.936 1205.4 L114.26 1205.4 L114.26 1201.47 Z" fill="#000000" fill-rule="nonzero" fill-opacity="1" /><path clip-path="url(#clip330)" d="M154.839 1214.36 L162.477 1214.36 L162.477 1188 L154.167 1189.66 L154.167 1185.4 L162.431 1183.74 L167.107 1183.74 L167.107 1214.36 L174.746 1214.36 L174.746 1218.3 L154.839 1218.3 L154.839 1214.36 Z" fill="#000000" fill-rule="nonzero" fill-opacity="1" /><path clip-path="url(#clip330)" d="M184.19 1212.42 L189.075 1212.42 L189.075 1218.3 L184.19 1218.3 L184.19 1212.42 Z" fill="#000000" fill-rule="nonzero" fill-opacity="1" /><path clip-path="url(#clip330)" d="M209.26 1186.81 Q205.649 1186.81 203.82 1190.38 Q202.014 1193.92 202.014 1201.05 Q202.014 1208.16 203.82 1211.72 Q205.649 1215.26 209.26 1215.26 Q212.894 1215.26 214.699 1211.72 Q216.528 1208.16 216.528 1201.05 Q216.528 1193.92 214.699 1190.38 Q212.894 1186.81 209.26 1186.81 M209.26 1183.11 Q215.07 1183.11 218.125 1187.72 Q221.204 1192.3 221.204 1201.05 Q221.204 1209.78 218.125 1214.38 Q215.07 1218.97 209.26 1218.97 Q203.449 1218.97 200.371 1214.38 Q197.315 1209.78 197.315 1201.05 Q197.315 1192.3 200.371 1187.72 Q203.449 1183.11 209.26 1183.11 Z" fill="#000000" fill-rule="nonzero" fill-opacity="1" /><path clip-path="url(#clip330)" d="M115.256 987.623 L144.931 987.623 L144.931 991.558 L115.256 991.558 L115.256 987.623 Z" fill="#000000" fill-rule="nonzero" fill-opacity="1" /><path clip-path="url(#clip330)" d="M165.024 972.97 Q161.413 972.97 159.584 976.535 Q157.778 980.076 157.778 987.206 Q157.778 994.312 159.584 997.877 Q161.413 1001.42 165.024 1001.42 Q168.658 1001.42 170.464 997.877 Q172.292 994.312 172.292 987.206 Q172.292 980.076 170.464 976.535 Q168.658 972.97 165.024 972.97 M165.024 969.266 Q170.834 969.266 173.889 973.873 Q176.968 978.456 176.968 987.206 Q176.968 995.933 173.889 1000.54 Q170.834 1005.12 165.024 1005.12 Q159.214 1005.12 156.135 1000.54 Q153.079 995.933 153.079 987.206 Q153.079 978.456 156.135 973.873 Q159.214 969.266 165.024 969.266 Z" fill="#000000" fill-rule="nonzero" fill-opacity="1" /><path clip-path="url(#clip330)" d="M185.186 998.572 L190.07 998.572 L190.07 1004.45 L185.186 1004.45 L185.186 998.572 Z" fill="#000000" fill-rule="nonzero" fill-opacity="1" /><path clip-path="url(#clip330)" d="M200.301 969.891 L218.658 969.891 L218.658 973.826 L204.584 973.826 L204.584 982.298 Q205.602 981.951 206.621 981.789 Q207.639 981.604 208.658 981.604 Q214.445 981.604 217.824 984.775 Q221.204 987.947 221.204 993.363 Q221.204 998.942 217.732 1002.04 Q214.26 1005.12 207.94 1005.12 Q205.764 1005.12 203.496 1004.75 Q201.25 1004.38 198.843 1003.64 L198.843 998.942 Q200.926 1000.08 203.149 1000.63 Q205.371 1001.19 207.848 1001.19 Q211.852 1001.19 214.19 999.081 Q216.528 996.974 216.528 993.363 Q216.528 989.752 214.19 987.646 Q211.852 985.539 207.848 985.539 Q205.973 985.539 204.098 985.956 Q202.246 986.373 200.301 987.252 L200.301 969.891 Z" fill="#000000" fill-rule="nonzero" fill-opacity="1" /><path clip-path="url(#clip330)" d="M164.028 759.125 Q160.417 759.125 158.589 762.689 Q156.783 766.231 156.783 773.361 Q156.783 780.467 158.589 784.032 Q160.417 787.574 164.028 787.574 Q167.663 787.574 169.468 784.032 Q171.297 780.467 171.297 773.361 Q171.297 766.231 169.468 762.689 Q167.663 759.125 164.028 759.125 M164.028 755.421 Q169.839 755.421 172.894 760.027 Q175.973 764.611 175.973 773.361 Q175.973 782.088 172.894 786.694 Q169.839 791.277 164.028 791.277 Q158.218 791.277 155.14 786.694 Q152.084 782.088 152.084 773.361 Q152.084 764.611 155.14 760.027 Q158.218 755.421 164.028 755.421 Z" fill="#000000" fill-rule="nonzero" fill-opacity="1" /><path clip-path="url(#clip330)" d="M184.19 784.726 L189.075 784.726 L189.075 790.606 L184.19 790.606 L184.19 784.726 Z" fill="#000000" fill-rule="nonzero" fill-opacity="1" /><path clip-path="url(#clip330)" d="M209.26 759.125 Q205.649 759.125 203.82 762.689 Q202.014 766.231 202.014 773.361 Q202.014 780.467 203.82 784.032 Q205.649 787.574 209.26 787.574 Q212.894 787.574 214.699 784.032 Q216.528 780.467 216.528 773.361 Q216.528 766.231 214.699 762.689 Q212.894 759.125 209.26 759.125 M209.26 755.421 Q215.07 755.421 218.125 760.027 Q221.204 764.611 221.204 773.361 Q221.204 782.088 218.125 786.694 Q215.07 791.277 209.26 791.277 Q203.449 791.277 200.371 786.694 Q197.315 782.088 197.315 773.361 Q197.315 764.611 200.371 760.027 Q203.449 755.421 209.26 755.421 Z" fill="#000000" fill-rule="nonzero" fill-opacity="1" /><path clip-path="url(#clip330)" d="M165.024 545.28 Q161.413 545.28 159.584 548.844 Q157.778 552.386 157.778 559.516 Q157.778 566.622 159.584 570.187 Q161.413 573.728 165.024 573.728 Q168.658 573.728 170.464 570.187 Q172.292 566.622 172.292 559.516 Q172.292 552.386 170.464 548.844 Q168.658 545.28 165.024 545.28 M165.024 541.576 Q170.834 541.576 173.889 546.182 Q176.968 550.766 176.968 559.516 Q176.968 568.242 173.889 572.849 Q170.834 577.432 165.024 577.432 Q159.214 577.432 156.135 572.849 Q153.079 568.242 153.079 559.516 Q153.079 550.766 156.135 546.182 Q159.214 541.576 165.024 541.576 Z" fill="#000000" fill-rule="nonzero" fill-opacity="1" /><path clip-path="url(#clip330)" d="M185.186 570.881 L190.07 570.881 L190.07 576.761 L185.186 576.761 L185.186 570.881 Z" fill="#000000" fill-rule="nonzero" fill-opacity="1" /><path clip-path="url(#clip330)" d="M200.301 542.201 L218.658 542.201 L218.658 546.136 L204.584 546.136 L204.584 554.608 Q205.602 554.261 206.621 554.099 Q207.639 553.914 208.658 553.914 Q214.445 553.914 217.824 557.085 Q221.204 560.256 221.204 565.673 Q221.204 571.252 217.732 574.353 Q214.26 577.432 207.94 577.432 Q205.764 577.432 203.496 577.062 Q201.25 576.691 198.843 575.951 L198.843 571.252 Q200.926 572.386 203.149 572.941 Q205.371 573.497 207.848 573.497 Q211.852 573.497 214.19 571.391 Q216.528 569.284 216.528 565.673 Q216.528 562.062 214.19 559.955 Q211.852 557.849 207.848 557.849 Q205.973 557.849 204.098 558.266 Q202.246 558.682 200.301 559.562 L200.301 542.201 Z" fill="#000000" fill-rule="nonzero" fill-opacity="1" /><path clip-path="url(#clip330)" d="M154.839 358.981 L162.477 358.981 L162.477 332.615 L154.167 334.282 L154.167 330.022 L162.431 328.356 L167.107 328.356 L167.107 358.981 L174.746 358.981 L174.746 362.916 L154.839 362.916 L154.839 358.981 Z" fill="#000000" fill-rule="nonzero" fill-opacity="1" /><path clip-path="url(#clip330)" d="M184.19 357.036 L189.075 357.036 L189.075 362.916 L184.19 362.916 L184.19 357.036 Z" fill="#000000" fill-rule="nonzero" fill-opacity="1" /><path clip-path="url(#clip330)" d="M209.26 331.434 Q205.649 331.434 203.82 334.999 Q202.014 338.541 202.014 345.67 Q202.014 352.777 203.82 356.342 Q205.649 359.883 209.26 359.883 Q212.894 359.883 214.699 356.342 Q216.528 352.777 216.528 345.67 Q216.528 338.541 214.699 334.999 Q212.894 331.434 209.26 331.434 M209.26 327.731 Q215.07 327.731 218.125 332.337 Q221.204 336.92 221.204 345.67 Q221.204 354.397 218.125 359.004 Q215.07 363.587 209.26 363.587 Q203.449 363.587 200.371 359.004 Q197.315 354.397 197.315 345.67 Q197.315 336.92 200.371 332.337 Q203.449 327.731 209.26 327.731 Z" fill="#000000" fill-rule="nonzero" fill-opacity="1" /><path clip-path="url(#clip330)" d="M155.834 145.135 L163.473 145.135 L163.473 118.77 L155.163 120.436 L155.163 116.177 L163.427 114.511 L168.102 114.511 L168.102 145.135 L175.741 145.135 L175.741 149.071 L155.834 149.071 L155.834 145.135 Z" fill="#000000" fill-rule="nonzero" fill-opacity="1" /><path clip-path="url(#clip330)" d="M185.186 143.191 L190.07 143.191 L190.07 149.071 L185.186 149.071 L185.186 143.191 Z" fill="#000000" fill-rule="nonzero" fill-opacity="1" /><path clip-path="url(#clip330)" d="M200.301 114.511 L218.658 114.511 L218.658 118.446 L204.584 118.446 L204.584 126.918 Q205.602 126.571 206.621 126.409 Q207.639 126.223 208.658 126.223 Q214.445 126.223 217.824 129.395 Q221.204 132.566 221.204 137.983 Q221.204 143.561 217.732 146.663 Q214.26 149.742 207.94 149.742 Q205.764 149.742 203.496 149.372 Q201.25 149.001 198.843 148.26 L198.843 143.561 Q200.926 144.696 203.149 145.251 Q205.371 145.807 207.848 145.807 Q211.852 145.807 214.19 143.7 Q216.528 141.594 216.528 137.983 Q216.528 134.372 214.19 132.265 Q211.852 130.159 207.848 130.159 Q205.973 130.159 204.098 130.575 Q202.246 130.992 200.301 131.872 L200.301 114.511 Z" fill="#000000" fill-rule="nonzero" fill-opacity="1" /><path clip-path="url(#clip330)" d="M16.4842 885.012 L16.4842 878.519 L56.6518 868.525 L16.4842 858.563 L16.4842 851.338 L56.6518 841.344 L16.4842 831.381 L16.4842 824.856 L64.0042 836.792 L64.0042 844.877 L22.7544 854.903 L64.0042 865.024 L64.0042 873.108 L16.4842 885.012 Z" fill="#000000" fill-rule="nonzero" fill-opacity="1" /><path clip-path="url(#clip330)" d="M44.7161 789.909 L47.5806 789.909 L47.5806 816.836 Q53.6281 816.454 56.8109 813.207 Q59.9619 809.929 59.9619 804.104 Q59.9619 800.73 59.1344 797.579 Q58.3069 794.396 56.6518 791.277 L62.1899 791.277 Q63.5267 794.428 64.227 797.738 Q64.9272 801.049 64.9272 804.454 Q64.9272 812.984 59.9619 817.981 Q54.9967 822.947 46.5303 822.947 Q37.7774 822.947 32.6531 818.236 Q27.4968 813.494 27.4968 805.473 Q27.4968 798.28 32.1438 794.11 Q36.7589 789.909 44.7161 789.909 M42.9973 795.765 Q38.1912 795.829 35.3266 798.471 Q32.4621 801.08 32.4621 805.409 Q32.4621 810.311 35.2312 813.271 Q38.0002 816.199 43.0292 816.645 L42.9973 795.765 Z" fill="#000000" fill-rule="nonzero" fill-opacity="1" /><path clip-path="url(#clip330)" d="M28.3562 780.296 L28.3562 774.44 L64.0042 774.44 L64.0042 780.296 L28.3562 780.296 M14.479 780.296 L14.479 774.44 L21.895 774.44 L21.895 780.296 L14.479 780.296 Z" fill="#000000" fill-rule="nonzero" fill-opacity="1" /><path clip-path="url(#clip330)" d="M45.7664 738.728 Q39.4007 738.728 35.8996 741.37 Q32.3984 743.98 32.3984 748.723 Q32.3984 753.433 35.8996 756.075 Q39.4007 758.685 45.7664 758.685 Q52.1003 758.685 55.6014 756.075 Q59.1026 753.433 59.1026 748.723 Q59.1026 743.98 55.6014 741.37 Q52.1003 738.728 45.7664 738.728 M59.58 732.872 Q68.683 732.872 73.1071 736.914 Q77.5631 740.956 77.5631 749.295 Q77.5631 752.383 77.0857 755.12 Q76.6401 757.857 75.6852 760.435 L69.9879 760.435 Q71.3884 757.857 72.0568 755.343 Q72.7252 752.828 72.7252 750.218 Q72.7252 744.458 69.7015 741.593 Q66.7096 738.728 60.6303 738.728 L57.7339 738.728 Q60.885 740.543 62.4446 743.375 Q64.0042 746.208 64.0042 750.155 Q64.0042 756.711 59.0071 760.722 Q54.01 764.732 45.7664 764.732 Q37.491 764.732 32.4939 760.722 Q27.4968 756.711 27.4968 750.155 Q27.4968 746.208 29.0564 743.375 Q30.616 740.543 33.7671 738.728 L28.3562 738.728 L28.3562 732.872 L59.58 732.872 Z" fill="#000000" fill-rule="nonzero" fill-opacity="1" /><path clip-path="url(#clip330)" d="M42.4881 691.177 L64.0042 691.177 L64.0042 697.033 L42.679 697.033 Q37.6183 697.033 35.1038 699.006 Q32.5894 700.98 32.5894 704.926 Q32.5894 709.669 35.6131 712.406 Q38.6368 715.143 43.8567 715.143 L64.0042 715.143 L64.0042 721.032 L14.479 721.032 L14.479 715.143 L33.8944 715.143 Q30.6797 713.043 29.0883 710.21 Q27.4968 707.345 27.4968 703.621 Q27.4968 697.479 31.3163 694.328 Q35.1038 691.177 42.4881 691.177 Z" fill="#000000" fill-rule="nonzero" fill-opacity="1" /><path clip-path="url(#clip330)" d="M18.2347 673.703 L28.3562 673.703 L28.3562 661.64 L32.9077 661.64 L32.9077 673.703 L52.2594 673.703 Q56.6199 673.703 57.8613 672.525 Q59.1026 671.316 59.1026 667.655 L59.1026 661.64 L64.0042 661.64 L64.0042 667.655 Q64.0042 674.435 61.4897 677.013 Q58.9434 679.591 52.2594 679.591 L32.9077 679.591 L32.9077 683.888 L28.3562 683.888 L28.3562 679.591 L18.2347 679.591 L18.2347 673.703 Z" fill="#000000" fill-rule="nonzero" fill-opacity="1" /><path clip-path="url(#clip330)" d="M796.348 20.1573 L785.249 50.2555 L807.488 50.2555 L796.348 20.1573 M791.73 12.096 L801.007 12.096 L824.057 72.576 L815.55 72.576 L810.04 57.061 L782.778 57.061 L777.269 72.576 L768.64 72.576 L791.73 12.096 Z" fill="#000000" fill-rule="nonzero" fill-opacity="1" /><path clip-path="url(#clip330)" d="M870.277 45.1919 L870.277 72.576 L862.824 72.576 L862.824 45.4349 Q862.824 38.994 860.312 35.7938 Q857.801 32.5936 852.778 32.5936 Q846.742 32.5936 843.258 36.4419 Q839.774 40.2903 839.774 46.9338 L839.774 72.576 L832.28 72.576 L832.28 27.2059 L839.774 27.2059 L839.774 34.2544 Q842.448 30.163 846.053 28.1376 Q849.699 26.1121 854.438 26.1121 Q862.257 26.1121 866.267 30.9732 Q870.277 35.7938 870.277 45.1919 Z" fill="#000000" fill-rule="nonzero" fill-opacity="1" /><path clip-path="url(#clip330)" d="M892.517 14.324 L892.517 27.2059 L907.87 27.2059 L907.87 32.9987 L892.517 32.9987 L892.517 57.6282 Q892.517 63.1779 894.016 64.7578 Q895.555 66.3376 900.214 66.3376 L907.87 66.3376 L907.87 72.576 L900.214 72.576 Q891.585 72.576 888.304 69.3758 Q885.023 66.1351 885.023 57.6282 L885.023 32.9987 L879.554 32.9987 L879.554 27.2059 L885.023 27.2059 L885.023 14.324 L892.517 14.324 Z" fill="#000000" fill-rule="nonzero" fill-opacity="1" /><path clip-path="url(#clip330)" d="M956.481 48.0275 L956.481 51.6733 L922.21 51.6733 Q922.696 59.3701 926.828 63.421 Q931 67.4314 938.414 67.4314 Q942.708 67.4314 946.718 66.3781 Q950.769 65.3249 954.739 63.2184 L954.739 70.267 Q950.728 71.9684 946.515 72.8596 Q942.303 73.7508 937.968 73.7508 Q927.112 73.7508 920.752 67.4314 Q914.432 61.1119 914.432 50.3365 Q914.432 39.1965 920.428 32.6746 Q926.463 26.1121 936.672 26.1121 Q945.827 26.1121 951.133 32.0264 Q956.481 37.9003 956.481 48.0275 M949.027 45.84 Q948.946 39.7232 945.584 36.0774 Q942.262 32.4315 936.753 32.4315 Q930.514 32.4315 926.747 35.9558 Q923.02 39.4801 922.453 45.8805 L949.027 45.84 Z" fill="#000000" fill-rule="nonzero" fill-opacity="1" /><path clip-path="url(#clip330)" d="M1006.43 45.1919 L1006.43 72.576 L998.975 72.576 L998.975 45.4349 Q998.975 38.994 996.463 35.7938 Q993.952 32.5936 988.928 32.5936 Q982.893 32.5936 979.409 36.4419 Q975.925 40.2903 975.925 46.9338 L975.925 72.576 L968.431 72.576 L968.431 27.2059 L975.925 27.2059 L975.925 34.2544 Q978.599 30.163 982.204 28.1376 Q985.85 26.1121 990.589 26.1121 Q998.408 26.1121 1002.42 30.9732 Q1006.43 35.7938 1006.43 45.1919 Z" fill="#000000" fill-rule="nonzero" fill-opacity="1" /><path clip-path="url(#clip330)" d="M1059.01 45.1919 L1059.01 72.576 L1051.56 72.576 L1051.56 45.4349 Q1051.56 38.994 1049.04 35.7938 Q1046.53 32.5936 1041.51 32.5936 Q1035.47 32.5936 1031.99 36.4419 Q1028.51 40.2903 1028.51 46.9338 L1028.51 72.576 L1021.01 72.576 L1021.01 27.2059 L1028.51 27.2059 L1028.51 34.2544 Q1031.18 30.163 1034.78 28.1376 Q1038.43 26.1121 1043.17 26.1121 Q1050.99 26.1121 1055 30.9732 Q1059.01 35.7938 1059.01 45.1919 Z" fill="#000000" fill-rule="nonzero" fill-opacity="1" /><path clip-path="url(#clip330)" d="M1094.49 49.7694 Q1085.46 49.7694 1081.98 51.8354 Q1078.49 53.9013 1078.49 58.8839 Q1078.49 62.8538 1081.09 65.2034 Q1083.72 67.5124 1088.22 67.5124 Q1094.41 67.5124 1098.14 63.1374 Q1101.91 58.7219 1101.91 51.4303 L1101.91 49.7694 L1094.49 49.7694 M1109.36 46.6907 L1109.36 72.576 L1101.91 72.576 L1101.91 65.6895 Q1099.36 69.8214 1095.55 71.8063 Q1091.74 73.7508 1086.23 73.7508 Q1079.26 73.7508 1075.13 69.8619 Q1071.04 65.9325 1071.04 59.3701 Q1071.04 51.7138 1076.14 47.825 Q1081.29 43.9361 1091.46 43.9361 L1101.91 43.9361 L1101.91 43.2069 Q1101.91 38.0623 1098.51 35.2672 Q1095.14 32.4315 1089.03 32.4315 Q1085.14 32.4315 1081.45 33.3632 Q1077.76 34.295 1074.36 36.1584 L1074.36 29.2718 Q1078.45 27.692 1082.3 26.9223 Q1086.15 26.1121 1089.8 26.1121 Q1099.64 26.1121 1104.5 31.2163 Q1109.36 36.3204 1109.36 46.6907 Z" fill="#000000" fill-rule="nonzero" fill-opacity="1" /><path clip-path="url(#clip330)" d="M1151.41 12.096 L1189.65 12.096 L1189.65 18.9825 L1159.59 18.9825 L1159.59 36.8875 L1188.39 36.8875 L1188.39 43.7741 L1159.59 43.7741 L1159.59 65.6895 L1190.38 65.6895 L1190.38 72.576 L1151.41 72.576 L1151.41 12.096 Z" fill="#000000" fill-rule="nonzero" fill-opacity="1" /><path clip-path="url(#clip330)" d="M1203.5 9.54393 L1210.96 9.54393 L1210.96 72.576 L1203.5 72.576 L1203.5 9.54393 Z" fill="#000000" fill-rule="nonzero" fill-opacity="1" /><path clip-path="url(#clip330)" d="M1265.36 48.0275 L1265.36 51.6733 L1231.09 51.6733 Q1231.58 59.3701 1235.71 63.421 Q1239.88 67.4314 1247.3 67.4314 Q1251.59 67.4314 1255.6 66.3781 Q1259.65 65.3249 1263.62 63.2184 L1263.62 70.267 Q1259.61 71.9684 1255.4 72.8596 Q1251.18 73.7508 1246.85 73.7508 Q1235.99 73.7508 1229.63 67.4314 Q1223.31 61.1119 1223.31 50.3365 Q1223.31 39.1965 1229.31 32.6746 Q1235.34 26.1121 1245.55 26.1121 Q1254.71 26.1121 1260.01 32.0264 Q1265.36 37.9003 1265.36 48.0275 M1257.91 45.84 Q1257.83 39.7232 1254.47 36.0774 Q1251.14 32.4315 1245.63 32.4315 Q1239.4 32.4315 1235.63 35.9558 Q1231.9 39.4801 1231.33 45.8805 L1257.91 45.84 Z" fill="#000000" fill-rule="nonzero" fill-opacity="1" /><path clip-path="url(#clip330)" d="M1312.92 35.9153 Q1315.71 30.8922 1319.6 28.5022 Q1323.49 26.1121 1328.76 26.1121 Q1335.85 26.1121 1339.7 31.0947 Q1343.54 36.0368 1343.54 45.1919 L1343.54 72.576 L1336.05 72.576 L1336.05 45.4349 Q1336.05 38.913 1333.74 35.7533 Q1331.43 32.5936 1326.69 32.5936 Q1320.9 32.5936 1317.54 36.4419 Q1314.18 40.2903 1314.18 46.9338 L1314.18 72.576 L1306.68 72.576 L1306.68 45.4349 Q1306.68 38.8725 1304.37 35.7533 Q1302.06 32.5936 1297.24 32.5936 Q1291.53 32.5936 1288.17 36.4824 Q1284.81 40.3308 1284.81 46.9338 L1284.81 72.576 L1277.31 72.576 L1277.31 27.2059 L1284.81 27.2059 L1284.81 34.2544 Q1287.36 30.082 1290.92 28.0971 Q1294.49 26.1121 1299.39 26.1121 Q1304.33 26.1121 1307.78 28.6237 Q1311.26 31.1352 1312.92 35.9153 Z" fill="#000000" fill-rule="nonzero" fill-opacity="1" /><path clip-path="url(#clip330)" d="M1397.22 48.0275 L1397.22 51.6733 L1362.95 51.6733 Q1363.43 59.3701 1367.57 63.421 Q1371.74 67.4314 1379.15 67.4314 Q1383.45 67.4314 1387.46 66.3781 Q1391.51 65.3249 1395.48 63.2184 L1395.48 70.267 Q1391.47 71.9684 1387.25 72.8596 Q1383.04 73.7508 1378.71 73.7508 Q1367.85 73.7508 1361.49 67.4314 Q1355.17 61.1119 1355.17 50.3365 Q1355.17 39.1965 1361.17 32.6746 Q1367.2 26.1121 1377.41 26.1121 Q1386.57 26.1121 1391.87 32.0264 Q1397.22 37.9003 1397.22 48.0275 M1389.77 45.84 Q1389.68 39.7232 1386.32 36.0774 Q1383 32.4315 1377.49 32.4315 Q1371.25 32.4315 1367.49 35.9558 Q1363.76 39.4801 1363.19 45.8805 L1389.77 45.84 Z" fill="#000000" fill-rule="nonzero" fill-opacity="1" /><path clip-path="url(#clip330)" d="M1447.17 45.1919 L1447.17 72.576 L1439.71 72.576 L1439.71 45.4349 Q1439.71 38.994 1437.2 35.7938 Q1434.69 32.5936 1429.67 32.5936 Q1423.63 32.5936 1420.15 36.4419 Q1416.66 40.2903 1416.66 46.9338 L1416.66 72.576 L1409.17 72.576 L1409.17 27.2059 L1416.66 27.2059 L1416.66 34.2544 Q1419.34 30.163 1422.94 28.1376 Q1426.59 26.1121 1431.33 26.1121 Q1439.15 26.1121 1443.16 30.9732 Q1447.17 35.7938 1447.17 45.1919 Z" fill="#000000" fill-rule="nonzero" fill-opacity="1" /><path clip-path="url(#clip330)" d="M1469.41 14.324 L1469.41 27.2059 L1484.76 27.2059 L1484.76 32.9987 L1469.41 32.9987 L1469.41 57.6282 Q1469.41 63.1779 1470.91 64.7578 Q1472.44 66.3376 1477.1 66.3376 L1484.76 66.3376 L1484.76 72.576 L1477.1 72.576 Q1468.47 72.576 1465.19 69.3758 Q1461.91 66.1351 1461.91 57.6282 L1461.91 32.9987 L1456.44 32.9987 L1456.44 27.2059 L1461.91 27.2059 L1461.91 14.324 L1469.41 14.324 Z" fill="#000000" fill-rule="nonzero" fill-opacity="1" /><path clip-path="url(#clip330)" d="M1515.87 12.096 L1524.13 12.096 L1536.85 63.2184 L1549.53 12.096 L1558.73 12.096 L1571.45 63.2184 L1584.13 12.096 L1592.43 12.096 L1577.24 72.576 L1566.95 72.576 L1554.19 20.0763 L1541.31 72.576 L1531.02 72.576 L1515.87 12.096 Z" fill="#000000" fill-rule="nonzero" fill-opacity="1" /><path clip-path="url(#clip330)" d="M1636.91 48.0275 L1636.91 51.6733 L1602.64 51.6733 Q1603.13 59.3701 1607.26 63.421 Q1611.43 67.4314 1618.84 67.4314 Q1623.14 67.4314 1627.15 66.3781 Q1631.2 65.3249 1635.17 63.2184 L1635.17 70.267 Q1631.16 71.9684 1626.95 72.8596 Q1622.73 73.7508 1618.4 73.7508 Q1607.54 73.7508 1601.18 67.4314 Q1594.86 61.1119 1594.86 50.3365 Q1594.86 39.1965 1600.86 32.6746 Q1606.89 26.1121 1617.1 26.1121 Q1626.26 26.1121 1631.56 32.0264 Q1636.91 37.9003 1636.91 48.0275 M1629.46 45.84 Q1629.38 39.7232 1626.01 36.0774 Q1622.69 32.4315 1617.18 32.4315 Q1610.94 32.4315 1607.18 35.9558 Q1603.45 39.4801 1602.88 45.8805 L1629.46 45.84 Z" fill="#000000" fill-rule="nonzero" fill-opacity="1" /><path clip-path="url(#clip330)" d="M1649.14 27.2059 L1656.6 27.2059 L1656.6 72.576 L1649.14 72.576 L1649.14 27.2059 M1649.14 9.54393 L1656.6 9.54393 L1656.6 18.9825 L1649.14 18.9825 L1649.14 9.54393 Z" fill="#000000" fill-rule="nonzero" fill-opacity="1" /><path clip-path="url(#clip330)" d="M1702.05 49.3643 Q1702.05 41.2625 1698.69 36.8065 Q1695.37 32.3505 1689.33 32.3505 Q1683.33 32.3505 1679.97 36.8065 Q1676.65 41.2625 1676.65 49.3643 Q1676.65 57.4256 1679.97 61.8816 Q1683.33 66.3376 1689.33 66.3376 Q1695.37 66.3376 1698.69 61.8816 Q1702.05 57.4256 1702.05 49.3643 M1709.5 66.9452 Q1709.5 78.5308 1704.36 84.1616 Q1699.21 89.8329 1688.6 89.8329 Q1684.67 89.8329 1681.19 89.2252 Q1677.7 88.6581 1674.42 87.4428 L1674.42 80.1917 Q1677.7 81.9741 1680.9 82.8248 Q1684.1 83.6755 1687.43 83.6755 Q1694.76 83.6755 1698.4 79.8271 Q1702.05 76.0193 1702.05 68.282 L1702.05 64.5957 Q1699.74 68.6061 1696.14 70.5911 Q1692.53 72.576 1687.51 72.576 Q1679.16 72.576 1674.06 66.2161 Q1668.95 59.8562 1668.95 49.3643 Q1668.95 38.832 1674.06 32.472 Q1679.16 26.1121 1687.51 26.1121 Q1692.53 26.1121 1696.14 28.0971 Q1699.74 30.082 1702.05 34.0924 L1702.05 27.2059 L1709.5 27.2059 L1709.5 66.9452 Z" fill="#000000" fill-rule="nonzero" fill-opacity="1" /><path clip-path="url(#clip330)" d="M1762.57 45.1919 L1762.57 72.576 L1755.12 72.576 L1755.12 45.4349 Q1755.12 38.994 1752.6 35.7938 Q1750.09 32.5936 1745.07 32.5936 Q1739.03 32.5936 1735.55 36.4419 Q1732.07 40.2903 1732.07 46.9338 L1732.07 72.576 L1724.57 72.576 L1724.57 9.54393 L1732.07 9.54393 L1732.07 34.2544 Q1734.74 30.163 1738.35 28.1376 Q1741.99 26.1121 1746.73 26.1121 Q1754.55 26.1121 1758.56 30.9732 Q1762.57 35.7938 1762.57 45.1919 Z" fill="#000000" fill-rule="nonzero" fill-opacity="1" /><path clip-path="url(#clip330)" d="M1784.81 14.324 L1784.81 27.2059 L1800.16 27.2059 L1800.16 32.9987 L1784.81 32.9987 L1784.81 57.6282 Q1784.81 63.1779 1786.31 64.7578 Q1787.85 66.3376 1792.51 66.3376 L1800.16 66.3376 L1800.16 72.576 L1792.51 72.576 Q1783.88 72.576 1780.6 69.3758 Q1777.32 66.1351 1777.32 57.6282 L1777.32 32.9987 L1771.85 32.9987 L1771.85 27.2059 L1777.32 27.2059 L1777.32 14.324 L1784.81 14.324 Z" fill="#000000" fill-rule="nonzero" fill-opacity="1" /><path clip-path="url(#clip330)" d="M1838.89 28.5427 L1838.89 35.5912 Q1835.73 33.9709 1832.33 33.1607 Q1828.92 32.3505 1825.28 32.3505 Q1819.73 32.3505 1816.93 34.0519 Q1814.18 35.7533 1814.18 39.156 Q1814.18 41.7486 1816.16 43.2475 Q1818.15 44.7058 1824.14 46.0426 L1826.7 46.6097 Q1834.64 48.3111 1837.96 51.4303 Q1841.32 54.509 1841.32 60.0587 Q1841.32 66.3781 1836.3 70.0644 Q1831.31 73.7508 1822.56 73.7508 Q1818.92 73.7508 1814.95 73.0216 Q1811.02 72.3329 1806.64 70.9151 L1806.64 63.2184 Q1810.78 65.3654 1814.79 66.4591 Q1818.8 67.5124 1822.73 67.5124 Q1827.99 67.5124 1830.83 65.73 Q1833.66 63.9071 1833.66 60.6258 Q1833.66 57.5877 1831.6 55.9673 Q1829.57 54.3469 1822.65 52.8481 L1820.05 52.2405 Q1813.13 50.7821 1810.05 47.7845 Q1806.97 44.7463 1806.97 39.4801 Q1806.97 33.0797 1811.51 29.5959 Q1816.04 26.1121 1824.39 26.1121 Q1828.52 26.1121 1832.16 26.7198 Q1835.81 27.3274 1838.89 28.5427 Z" fill="#000000" fill-rule="nonzero" fill-opacity="1" /><circle clip-path="url(#clip332)" cx="316.512" cy="545.656" r="14.4" fill="#009af9" fill-rule="evenodd" fill-opacity="1" stroke="#000000" stroke-opacity="1" stroke-width="3.2"/>
<circle clip-path="url(#clip332)" cx="380.284" cy="537.691" r="14.4" fill="#009af9" fill-rule="evenodd" fill-opacity="1" stroke="#000000" stroke-opacity="1" stroke-width="3.2"/>
<circle clip-path="url(#clip332)" cx="444.056" cy="522.007" r="14.4" fill="#009af9" fill-rule="evenodd" fill-opacity="1" stroke="#000000" stroke-opacity="1" stroke-width="3.2"/>
<circle clip-path="url(#clip332)" cx="507.828" cy="499.129" r="14.4" fill="#009af9" fill-rule="evenodd" fill-opacity="1" stroke="#000000" stroke-opacity="1" stroke-width="3.2"/>
<circle clip-path="url(#clip332)" cx="571.601" cy="469.915" r="14.4" fill="#009af9" fill-rule="evenodd" fill-opacity="1" stroke="#000000" stroke-opacity="1" stroke-width="3.2"/>
<circle clip-path="url(#clip332)" cx="635.373" cy="435.578" r="14.4" fill="#009af9" fill-rule="evenodd" fill-opacity="1" stroke="#000000" stroke-opacity="1" stroke-width="3.2"/>
<circle clip-path="url(#clip332)" cx="699.145" cy="397.68" r="14.4" fill="#009af9" fill-rule="evenodd" fill-opacity="1" stroke="#000000" stroke-opacity="1" stroke-width="3.2"/>
<circle clip-path="url(#clip332)" cx="762.917" cy="358.041" r="14.4" fill="#009af9" fill-rule="evenodd" fill-opacity="1" stroke="#000000" stroke-opacity="1" stroke-width="3.2"/>
<circle clip-path="url(#clip332)" cx="826.689" cy="318.589" r="14.4" fill="#009af9" fill-rule="evenodd" fill-opacity="1" stroke="#000000" stroke-opacity="1" stroke-width="3.2"/>
<circle clip-path="url(#clip332)" cx="890.461" cy="281.179" r="14.4" fill="#009af9" fill-rule="evenodd" fill-opacity="1" stroke="#000000" stroke-opacity="1" stroke-width="3.2"/>
<circle clip-path="url(#clip332)" cx="954.233" cy="247.4" r="14.4" fill="#009af9" fill-rule="evenodd" fill-opacity="1" stroke="#000000" stroke-opacity="1" stroke-width="3.2"/>
<circle clip-path="url(#clip332)" cx="1018.01" cy="218.445" r="14.4" fill="#009af9" fill-rule="evenodd" fill-opacity="1" stroke="#000000" stroke-opacity="1" stroke-width="3.2"/>
<circle clip-path="url(#clip332)" cx="1081.78" cy="195.054" r="14.4" fill="#009af9" fill-rule="evenodd" fill-opacity="1" stroke="#000000" stroke-opacity="1" stroke-width="3.2"/>
<circle clip-path="url(#clip332)" cx="1145.55" cy="177.558" r="14.4" fill="#009af9" fill-rule="evenodd" fill-opacity="1" stroke="#000000" stroke-opacity="1" stroke-width="3.2"/>
<circle clip-path="url(#clip332)" cx="1209.32" cy="165.992" r="14.4" fill="#009af9" fill-rule="evenodd" fill-opacity="1" stroke="#000000" stroke-opacity="1" stroke-width="3.2"/>
<circle clip-path="url(#clip332)" cx="1273.09" cy="160.256" r="14.4" fill="#009af9" fill-rule="evenodd" fill-opacity="1" stroke="#000000" stroke-opacity="1" stroke-width="3.2"/>
<circle clip-path="url(#clip332)" cx="1336.87" cy="160.256" r="14.4" fill="#009af9" fill-rule="evenodd" fill-opacity="1" stroke="#000000" stroke-opacity="1" stroke-width="3.2"/>
<circle clip-path="url(#clip332)" cx="1400.64" cy="165.992" r="14.4" fill="#009af9" fill-rule="evenodd" fill-opacity="1" stroke="#000000" stroke-opacity="1" stroke-width="3.2"/>
<circle clip-path="url(#clip332)" cx="1464.41" cy="177.558" r="14.4" fill="#009af9" fill-rule="evenodd" fill-opacity="1" stroke="#000000" stroke-opacity="1" stroke-width="3.2"/>
<circle clip-path="url(#clip332)" cx="1528.18" cy="195.054" r="14.4" fill="#009af9" fill-rule="evenodd" fill-opacity="1" stroke="#000000" stroke-opacity="1" stroke-width="3.2"/>
<circle clip-path="url(#clip332)" cx="1591.95" cy="218.445" r="14.4" fill="#009af9" fill-rule="evenodd" fill-opacity="1" stroke="#000000" stroke-opacity="1" stroke-width="3.2"/>
<circle clip-path="url(#clip332)" cx="1655.73" cy="247.4" r="14.4" fill="#009af9" fill-rule="evenodd" fill-opacity="1" stroke="#000000" stroke-opacity="1" stroke-width="3.2"/>
<circle clip-path="url(#clip332)" cx="1719.5" cy="281.179" r="14.4" fill="#009af9" fill-rule="evenodd" fill-opacity="1" stroke="#000000" stroke-opacity="1" stroke-width="3.2"/>
<circle clip-path="url(#clip332)" cx="1783.27" cy="318.589" r="14.4" fill="#009af9" fill-rule="evenodd" fill-opacity="1" stroke="#000000" stroke-opacity="1" stroke-width="3.2"/>
<circle clip-path="url(#clip332)" cx="1847.04" cy="358.041" r="14.4" fill="#009af9" fill-rule="evenodd" fill-opacity="1" stroke="#000000" stroke-opacity="1" stroke-width="3.2"/>
<circle clip-path="url(#clip332)" cx="1910.82" cy="397.68" r="14.4" fill="#009af9" fill-rule="evenodd" fill-opacity="1" stroke="#000000" stroke-opacity="1" stroke-width="3.2"/>
<circle clip-path="url(#clip332)" cx="1974.59" cy="435.578" r="14.4" fill="#009af9" fill-rule="evenodd" fill-opacity="1" stroke="#000000" stroke-opacity="1" stroke-width="3.2"/>
<circle clip-path="url(#clip332)" cx="2038.36" cy="469.915" r="14.4" fill="#009af9" fill-rule="evenodd" fill-opacity="1" stroke="#000000" stroke-opacity="1" stroke-width="3.2"/>
<circle clip-path="url(#clip332)" cx="2102.13" cy="499.129" r="14.4" fill="#009af9" fill-rule="evenodd" fill-opacity="1" stroke="#000000" stroke-opacity="1" stroke-width="3.2"/>
<circle clip-path="url(#clip332)" cx="2165.9" cy="522.007" r="14.4" fill="#009af9" fill-rule="evenodd" fill-opacity="1" stroke="#000000" stroke-opacity="1" stroke-width="3.2"/>
<circle clip-path="url(#clip332)" cx="2229.68" cy="537.691" r="14.4" fill="#009af9" fill-rule="evenodd" fill-opacity="1" stroke="#000000" stroke-opacity="1" stroke-width="3.2"/>
<circle clip-path="url(#clip332)" cx="2293.45" cy="545.656" r="14.4" fill="#009af9" fill-rule="evenodd" fill-opacity="1" stroke="#000000" stroke-opacity="1" stroke-width="3.2"/>
<circle clip-path="url(#clip332)" cx="316.512" cy="545.656" r="14.4" fill="#e26f46" fill-rule="evenodd" fill-opacity="1" stroke="#000000" stroke-opacity="1" stroke-width="3.2"/>
<circle clip-path="url(#clip332)" cx="380.284" cy="537.691" r="14.4" fill="#e26f46" fill-rule="evenodd" fill-opacity="1" stroke="#000000" stroke-opacity="1" stroke-width="3.2"/>
<circle clip-path="url(#clip332)" cx="444.056" cy="522.007" r="14.4" fill="#e26f46" fill-rule="evenodd" fill-opacity="1" stroke="#000000" stroke-opacity="1" stroke-width="3.2"/>
<circle clip-path="url(#clip332)" cx="507.828" cy="499.129" r="14.4" fill="#e26f46" fill-rule="evenodd" fill-opacity="1" stroke="#000000" stroke-opacity="1" stroke-width="3.2"/>
<circle clip-path="url(#clip332)" cx="571.601" cy="469.915" r="14.4" fill="#e26f46" fill-rule="evenodd" fill-opacity="1" stroke="#000000" stroke-opacity="1" stroke-width="3.2"/>
<circle clip-path="url(#clip332)" cx="635.373" cy="435.578" r="14.4" fill="#e26f46" fill-rule="evenodd" fill-opacity="1" stroke="#000000" stroke-opacity="1" stroke-width="3.2"/>
<circle clip-path="url(#clip332)" cx="699.145" cy="397.68" r="14.4" fill="#e26f46" fill-rule="evenodd" fill-opacity="1" stroke="#000000" stroke-opacity="1" stroke-width="3.2"/>
<circle clip-path="url(#clip332)" cx="762.917" cy="358.041" r="14.4" fill="#e26f46" fill-rule="evenodd" fill-opacity="1" stroke="#000000" stroke-opacity="1" stroke-width="3.2"/>
<circle clip-path="url(#clip332)" cx="826.689" cy="318.589" r="14.4" fill="#e26f46" fill-rule="evenodd" fill-opacity="1" stroke="#000000" stroke-opacity="1" stroke-width="3.2"/>
<circle clip-path="url(#clip332)" cx="890.461" cy="281.179" r="14.4" fill="#e26f46" fill-rule="evenodd" fill-opacity="1" stroke="#000000" stroke-opacity="1" stroke-width="3.2"/>
<circle clip-path="url(#clip332)" cx="954.233" cy="247.4" r="14.4" fill="#e26f46" fill-rule="evenodd" fill-opacity="1" stroke="#000000" stroke-opacity="1" stroke-width="3.2"/>
<circle clip-path="url(#clip332)" cx="1018.01" cy="218.445" r="14.4" fill="#e26f46" fill-rule="evenodd" fill-opacity="1" stroke="#000000" stroke-opacity="1" stroke-width="3.2"/>
<circle clip-path="url(#clip332)" cx="1081.78" cy="195.054" r="14.4" fill="#e26f46" fill-rule="evenodd" fill-opacity="1" stroke="#000000" stroke-opacity="1" stroke-width="3.2"/>
<circle clip-path="url(#clip332)" cx="1145.55" cy="177.558" r="14.4" fill="#e26f46" fill-rule="evenodd" fill-opacity="1" stroke="#000000" stroke-opacity="1" stroke-width="3.2"/>
<circle clip-path="url(#clip332)" cx="1209.32" cy="165.992" r="14.4" fill="#e26f46" fill-rule="evenodd" fill-opacity="1" stroke="#000000" stroke-opacity="1" stroke-width="3.2"/>
<circle clip-path="url(#clip332)" cx="1273.09" cy="160.256" r="14.4" fill="#e26f46" fill-rule="evenodd" fill-opacity="1" stroke="#000000" stroke-opacity="1" stroke-width="3.2"/>
<circle clip-path="url(#clip332)" cx="1336.87" cy="1386.4" r="14.4" fill="#e26f46" fill-rule="evenodd" fill-opacity="1" stroke="#000000" stroke-opacity="1" stroke-width="3.2"/>
<circle clip-path="url(#clip332)" cx="1400.64" cy="1380.66" r="14.4" fill="#e26f46" fill-rule="evenodd" fill-opacity="1" stroke="#000000" stroke-opacity="1" stroke-width="3.2"/>
<circle clip-path="url(#clip332)" cx="1464.41" cy="1369.09" r="14.4" fill="#e26f46" fill-rule="evenodd" fill-opacity="1" stroke="#000000" stroke-opacity="1" stroke-width="3.2"/>
<circle clip-path="url(#clip332)" cx="1528.18" cy="1351.6" r="14.4" fill="#e26f46" fill-rule="evenodd" fill-opacity="1" stroke="#000000" stroke-opacity="1" stroke-width="3.2"/>
<circle clip-path="url(#clip332)" cx="1591.95" cy="1328.21" r="14.4" fill="#e26f46" fill-rule="evenodd" fill-opacity="1" stroke="#000000" stroke-opacity="1" stroke-width="3.2"/>
<circle clip-path="url(#clip332)" cx="1655.73" cy="1299.25" r="14.4" fill="#e26f46" fill-rule="evenodd" fill-opacity="1" stroke="#000000" stroke-opacity="1" stroke-width="3.2"/>
<circle clip-path="url(#clip332)" cx="1719.5" cy="1265.47" r="14.4" fill="#e26f46" fill-rule="evenodd" fill-opacity="1" stroke="#000000" stroke-opacity="1" stroke-width="3.2"/>
<circle clip-path="url(#clip332)" cx="1783.27" cy="1228.06" r="14.4" fill="#e26f46" fill-rule="evenodd" fill-opacity="1" stroke="#000000" stroke-opacity="1" stroke-width="3.2"/>
<circle clip-path="url(#clip332)" cx="1847.04" cy="1188.61" r="14.4" fill="#e26f46" fill-rule="evenodd" fill-opacity="1" stroke="#000000" stroke-opacity="1" stroke-width="3.2"/>
<circle clip-path="url(#clip332)" cx="1910.82" cy="1148.97" r="14.4" fill="#e26f46" fill-rule="evenodd" fill-opacity="1" stroke="#000000" stroke-opacity="1" stroke-width="3.2"/>
<circle clip-path="url(#clip332)" cx="1974.59" cy="1111.07" r="14.4" fill="#e26f46" fill-rule="evenodd" fill-opacity="1" stroke="#000000" stroke-opacity="1" stroke-width="3.2"/>
<circle clip-path="url(#clip332)" cx="2038.36" cy="1076.74" r="14.4" fill="#e26f46" fill-rule="evenodd" fill-opacity="1" stroke="#000000" stroke-opacity="1" stroke-width="3.2"/>
<circle clip-path="url(#clip332)" cx="2102.13" cy="1047.52" r="14.4" fill="#e26f46" fill-rule="evenodd" fill-opacity="1" stroke="#000000" stroke-opacity="1" stroke-width="3.2"/>
<circle clip-path="url(#clip332)" cx="2165.9" cy="1024.65" r="14.4" fill="#e26f46" fill-rule="evenodd" fill-opacity="1" stroke="#000000" stroke-opacity="1" stroke-width="3.2"/>
<circle clip-path="url(#clip332)" cx="2229.68" cy="1008.96" r="14.4" fill="#e26f46" fill-rule="evenodd" fill-opacity="1" stroke="#000000" stroke-opacity="1" stroke-width="3.2"/>
<circle clip-path="url(#clip332)" cx="2293.45" cy="1001" r="14.4" fill="#e26f46" fill-rule="evenodd" fill-opacity="1" stroke="#000000" stroke-opacity="1" stroke-width="3.2"/>
</svg>
