<?xml version="1.0" encoding="utf-8"?>
<svg xmlns="http://www.w3.org/2000/svg" xmlns:xlink="http://www.w3.org/1999/xlink" width="600" height="400" viewBox="0 0 2400 1600">
<defs>
  <clipPath id="clip190">
    <rect x="0" y="0" width="2400" height="1600"/>
  </clipPath>
</defs>
<path clip-path="url(#clip190)" d="M0 1600 L2400 1600 L2400 0 L0 0  Z" fill="#ffffff" fill-rule="evenodd" fill-opacity="1"/>
<defs>
  <clipPath id="clip191">
    <rect x="480" y="0" width="1681" height="1600"/>
  </clipPath>
</defs>
<path clip-path="url(#clip190)" d="M242.135 1423.18 L2352.76 1423.18 L2352.76 123.472 L242.135 123.472  Z" fill="#ffffff" fill-rule="evenodd" fill-opacity="1"/>
<defs>
  <clipPath id="clip192">
    <rect x="242" y="123" width="2112" height="1301"/>
  </clipPath>
</defs>
<polyline clip-path="url(#clip192)" style="stroke:#000000; stroke-linecap:round; stroke-linejoin:round; stroke-width:2; stroke-opacity:0.1; fill:none" points="467.799,1423.18 467.799,123.472 "/>
<polyline clip-path="url(#clip192)" style="stroke:#000000; stroke-linecap:round; stroke-linejoin:round; stroke-width:2; stroke-opacity:0.1; fill:none" points="744.347,1423.18 744.347,123.472 "/>
<polyline clip-path="url(#clip192)" style="stroke:#000000; stroke-linecap:round; stroke-linejoin:round; stroke-width:2; stroke-opacity:0.1; fill:none" points="1020.9,1423.18 1020.9,123.472 "/>
<polyline clip-path="url(#clip192)" style="stroke:#000000; stroke-linecap:round; stroke-linejoin:round; stroke-width:2; stroke-opacity:0.1; fill:none" points="1297.45,1423.18 1297.45,123.472 "/>
<polyline clip-path="url(#clip192)" style="stroke:#000000; stroke-linecap:round; stroke-linejoin:round; stroke-width:2; stroke-opacity:0.1; fill:none" points="1573.99,1423.18 1573.99,123.472 "/>
<polyline clip-path="url(#clip192)" style="stroke:#000000; stroke-linecap:round; stroke-linejoin:round; stroke-width:2; stroke-opacity:0.1; fill:none" points="1850.54,1423.18 1850.54,123.472 "/>
<polyline clip-path="url(#clip192)" style="stroke:#000000; stroke-linecap:round; stroke-linejoin:round; stroke-width:2; stroke-opacity:0.1; fill:none" points="2127.09,1423.18 2127.09,123.472 "/>
<polyline clip-path="url(#clip192)" style="stroke:#000000; stroke-linecap:round; stroke-linejoin:round; stroke-width:2; stroke-opacity:0.1; fill:none" points="242.135,1423.18 2352.76,1423.18 "/>
<polyline clip-path="url(#clip192)" style="stroke:#000000; stroke-linecap:round; stroke-linejoin:round; stroke-width:2; stroke-opacity:0.1; fill:none" points="242.135,1232.05 2352.76,1232.05 "/>
<polyline clip-path="url(#clip192)" style="stroke:#000000; stroke-linecap:round; stroke-linejoin:round; stroke-width:2; stroke-opacity:0.1; fill:none" points="242.135,1040.91 2352.76,1040.91 "/>
<polyline clip-path="url(#clip192)" style="stroke:#000000; stroke-linecap:round; stroke-linejoin:round; stroke-width:2; stroke-opacity:0.1; fill:none" points="242.135,849.779 2352.76,849.779 "/>
<polyline clip-path="url(#clip192)" style="stroke:#000000; stroke-linecap:round; stroke-linejoin:round; stroke-width:2; stroke-opacity:0.1; fill:none" points="242.135,658.646 2352.76,658.646 "/>
<polyline clip-path="url(#clip192)" style="stroke:#000000; stroke-linecap:round; stroke-linejoin:round; stroke-width:2; stroke-opacity:0.1; fill:none" points="242.135,467.512 2352.76,467.512 "/>
<polyline clip-path="url(#clip192)" style="stroke:#000000; stroke-linecap:round; stroke-linejoin:round; stroke-width:2; stroke-opacity:0.1; fill:none" points="242.135,276.379 2352.76,276.379 "/>
<polyline clip-path="url(#clip190)" style="stroke:#000000; stroke-linecap:round; stroke-linejoin:round; stroke-width:4; stroke-opacity:1; fill:none" points="242.135,1423.18 2352.76,1423.18 "/>
<polyline clip-path="url(#clip190)" style="stroke:#000000; stroke-linecap:round; stroke-linejoin:round; stroke-width:4; stroke-opacity:1; fill:none" points="467.799,1423.18 467.799,1404.28 "/>
<polyline clip-path="url(#clip190)" style="stroke:#000000; stroke-linecap:round; stroke-linejoin:round; stroke-width:4; stroke-opacity:1; fill:none" points="744.347,1423.18 744.347,1404.28 "/>
<polyline clip-path="url(#clip190)" style="stroke:#000000; stroke-linecap:round; stroke-linejoin:round; stroke-width:4; stroke-opacity:1; fill:none" points="1020.9,1423.18 1020.9,1404.28 "/>
<polyline clip-path="url(#clip190)" style="stroke:#000000; stroke-linecap:round; stroke-linejoin:round; stroke-width:4; stroke-opacity:1; fill:none" points="1297.45,1423.18 1297.45,1404.28 "/>
<polyline clip-path="url(#clip190)" style="stroke:#000000; stroke-linecap:round; stroke-linejoin:round; stroke-width:4; stroke-opacity:1; fill:none" points="1573.99,1423.18 1573.99,1404.28 "/>
<polyline clip-path="url(#clip190)" style="stroke:#000000; stroke-linecap:round; stroke-linejoin:round; stroke-width:4; stroke-opacity:1; fill:none" points="1850.54,1423.18 1850.54,1404.28 "/>
<polyline clip-path="url(#clip190)" style="stroke:#000000; stroke-linecap:round; stroke-linejoin:round; stroke-width:4; stroke-opacity:1; fill:none" points="2127.09,1423.18 2127.09,1404.28 "/>
<path clip-path="url(#clip190)" d="M422.359 1468.75 L452.035 1468.75 L452.035 1472.69 L422.359 1472.69 L422.359 1468.75 Z" fill="#000000" fill-rule="nonzero" fill-opacity="1" /><path clip-path="url(#clip190)" d="M460.947 1451.02 L483.169 1451.02 L483.169 1453.01 L470.623 1485.58 L465.738 1485.58 L477.544 1454.96 L460.947 1454.96 L460.947 1451.02 Z" fill="#000000" fill-rule="nonzero" fill-opacity="1" /><path clip-path="url(#clip190)" d="M492.335 1451.02 L510.692 1451.02 L510.692 1454.96 L496.618 1454.96 L496.618 1463.43 Q497.636 1463.08 498.655 1462.92 Q499.673 1462.73 500.692 1462.73 Q506.479 1462.73 509.859 1465.9 Q513.238 1469.08 513.238 1474.49 Q513.238 1480.07 509.766 1483.17 Q506.294 1486.25 499.974 1486.25 Q497.798 1486.25 495.53 1485.88 Q493.285 1485.51 490.877 1484.77 L490.877 1480.07 Q492.96 1481.2 495.183 1481.76 Q497.405 1482.32 499.882 1482.32 Q503.886 1482.32 506.224 1480.21 Q508.562 1478.1 508.562 1474.49 Q508.562 1470.88 506.224 1468.77 Q503.886 1466.67 499.882 1466.67 Q498.007 1466.67 496.132 1467.08 Q494.28 1467.5 492.335 1468.38 L492.335 1451.02 Z" fill="#000000" fill-rule="nonzero" fill-opacity="1" /><path clip-path="url(#clip190)" d="M698.41 1468.75 L728.086 1468.75 L728.086 1472.69 L698.41 1472.69 L698.41 1468.75 Z" fill="#000000" fill-rule="nonzero" fill-opacity="1" /><path clip-path="url(#clip190)" d="M738.225 1451.02 L756.581 1451.02 L756.581 1454.96 L742.507 1454.96 L742.507 1463.43 Q743.526 1463.08 744.544 1462.92 Q745.563 1462.73 746.581 1462.73 Q752.368 1462.73 755.748 1465.9 Q759.127 1469.08 759.127 1474.49 Q759.127 1480.07 755.655 1483.17 Q752.183 1486.25 745.864 1486.25 Q743.688 1486.25 741.419 1485.88 Q739.174 1485.51 736.766 1484.77 L736.766 1480.07 Q738.85 1481.2 741.072 1481.76 Q743.294 1482.32 745.771 1482.32 Q749.776 1482.32 752.114 1480.21 Q754.452 1478.1 754.452 1474.49 Q754.452 1470.88 752.114 1468.77 Q749.776 1466.67 745.771 1466.67 Q743.896 1466.67 742.021 1467.08 Q740.169 1467.5 738.225 1468.38 L738.225 1451.02 Z" fill="#000000" fill-rule="nonzero" fill-opacity="1" /><path clip-path="url(#clip190)" d="M778.34 1454.1 Q774.729 1454.1 772.901 1457.66 Q771.095 1461.2 771.095 1468.33 Q771.095 1475.44 772.901 1479.01 Q774.729 1482.55 778.34 1482.55 Q781.975 1482.55 783.78 1479.01 Q785.609 1475.44 785.609 1468.33 Q785.609 1461.2 783.78 1457.66 Q781.975 1454.1 778.34 1454.1 M778.34 1450.39 Q784.151 1450.39 787.206 1455 Q790.285 1459.58 790.285 1468.33 Q790.285 1477.06 787.206 1481.67 Q784.151 1486.25 778.34 1486.25 Q772.53 1486.25 769.452 1481.67 Q766.396 1477.06 766.396 1468.33 Q766.396 1459.58 769.452 1455 Q772.53 1450.39 778.34 1450.39 Z" fill="#000000" fill-rule="nonzero" fill-opacity="1" /><path clip-path="url(#clip190)" d="M975.457 1468.75 L1005.13 1468.75 L1005.13 1472.69 L975.457 1472.69 L975.457 1468.75 Z" fill="#000000" fill-rule="nonzero" fill-opacity="1" /><path clip-path="url(#clip190)" d="M1019.25 1481.64 L1035.57 1481.64 L1035.57 1485.58 L1013.63 1485.58 L1013.63 1481.64 Q1016.29 1478.89 1020.87 1474.26 Q1025.48 1469.61 1026.66 1468.27 Q1028.91 1465.74 1029.79 1464.01 Q1030.69 1462.25 1030.69 1460.56 Q1030.69 1457.8 1028.74 1456.07 Q1026.82 1454.33 1023.72 1454.33 Q1021.52 1454.33 1019.07 1455.09 Q1016.64 1455.86 1013.86 1457.41 L1013.86 1452.69 Q1016.68 1451.55 1019.14 1450.97 Q1021.59 1450.39 1023.63 1450.39 Q1029 1450.39 1032.19 1453.08 Q1035.39 1455.77 1035.39 1460.26 Q1035.39 1462.39 1034.58 1464.31 Q1033.79 1466.2 1031.68 1468.8 Q1031.1 1469.47 1028 1472.69 Q1024.9 1475.88 1019.25 1481.64 Z" fill="#000000" fill-rule="nonzero" fill-opacity="1" /><path clip-path="url(#clip190)" d="M1045.43 1451.02 L1063.79 1451.02 L1063.79 1454.96 L1049.72 1454.96 L1049.72 1463.43 Q1050.73 1463.08 1051.75 1462.92 Q1052.77 1462.73 1053.79 1462.73 Q1059.58 1462.73 1062.96 1465.9 Q1066.34 1469.08 1066.34 1474.49 Q1066.34 1480.07 1062.86 1483.17 Q1059.39 1486.25 1053.07 1486.25 Q1050.9 1486.25 1048.63 1485.88 Q1046.38 1485.51 1043.97 1484.77 L1043.97 1480.07 Q1046.06 1481.2 1048.28 1481.76 Q1050.5 1482.32 1052.98 1482.32 Q1056.98 1482.32 1059.32 1480.21 Q1061.66 1478.1 1061.66 1474.49 Q1061.66 1470.88 1059.32 1468.77 Q1056.98 1466.67 1052.98 1466.67 Q1051.1 1466.67 1049.23 1467.08 Q1047.38 1467.5 1045.43 1468.38 L1045.43 1451.02 Z" fill="#000000" fill-rule="nonzero" fill-opacity="1" /><path clip-path="url(#clip190)" d="M1297.45 1454.1 Q1293.83 1454.1 1292.01 1457.66 Q1290.2 1461.2 1290.2 1468.33 Q1290.2 1475.44 1292.01 1479.01 Q1293.83 1482.55 1297.45 1482.55 Q1301.08 1482.55 1302.89 1479.01 Q1304.71 1475.44 1304.71 1468.33 Q1304.71 1461.2 1302.89 1457.66 Q1301.08 1454.1 1297.45 1454.1 M1297.45 1450.39 Q1303.26 1450.39 1306.31 1455 Q1309.39 1459.58 1309.39 1468.33 Q1309.39 1477.06 1306.31 1481.67 Q1303.26 1486.25 1297.45 1486.25 Q1291.64 1486.25 1288.56 1481.67 Q1285.5 1477.06 1285.5 1468.33 Q1285.5 1459.58 1288.56 1455 Q1291.64 1450.39 1297.45 1450.39 Z" fill="#000000" fill-rule="nonzero" fill-opacity="1" /><path clip-path="url(#clip190)" d="M1553.27 1481.64 L1569.58 1481.64 L1569.58 1485.58 L1547.64 1485.58 L1547.64 1481.64 Q1550.3 1478.89 1554.89 1474.26 Q1559.49 1469.61 1560.67 1468.27 Q1562.92 1465.74 1563.8 1464.01 Q1564.7 1462.25 1564.7 1460.56 Q1564.7 1457.8 1562.76 1456.07 Q1560.83 1454.33 1557.73 1454.33 Q1555.53 1454.33 1553.08 1455.09 Q1550.65 1455.86 1547.87 1457.41 L1547.87 1452.69 Q1550.7 1451.55 1553.15 1450.97 Q1555.6 1450.39 1557.64 1450.39 Q1563.01 1450.39 1566.2 1453.08 Q1569.4 1455.77 1569.4 1460.26 Q1569.4 1462.39 1568.59 1464.31 Q1567.8 1466.2 1565.7 1468.8 Q1565.12 1469.47 1562.02 1472.69 Q1558.91 1475.88 1553.27 1481.64 Z" fill="#000000" fill-rule="nonzero" fill-opacity="1" /><path clip-path="url(#clip190)" d="M1579.45 1451.02 L1597.8 1451.02 L1597.8 1454.96 L1583.73 1454.96 L1583.73 1463.43 Q1584.75 1463.08 1585.76 1462.92 Q1586.78 1462.73 1587.8 1462.73 Q1593.59 1462.73 1596.97 1465.9 Q1600.35 1469.08 1600.35 1474.49 Q1600.35 1480.07 1596.88 1483.17 Q1593.4 1486.25 1587.08 1486.25 Q1584.91 1486.25 1582.64 1485.88 Q1580.39 1485.51 1577.99 1484.77 L1577.99 1480.07 Q1580.07 1481.2 1582.29 1481.76 Q1584.51 1482.32 1586.99 1482.32 Q1591 1482.32 1593.33 1480.21 Q1595.67 1478.1 1595.67 1474.49 Q1595.67 1470.88 1593.33 1468.77 Q1591 1466.67 1586.99 1466.67 Q1585.12 1466.67 1583.24 1467.08 Q1581.39 1467.5 1579.45 1468.38 L1579.45 1451.02 Z" fill="#000000" fill-rule="nonzero" fill-opacity="1" /><path clip-path="url(#clip190)" d="M1825.24 1451.02 L1843.6 1451.02 L1843.6 1454.96 L1829.52 1454.96 L1829.52 1463.43 Q1830.54 1463.08 1831.56 1462.92 Q1832.58 1462.73 1833.6 1462.73 Q1839.39 1462.73 1842.77 1465.9 Q1846.14 1469.08 1846.14 1474.49 Q1846.14 1480.07 1842.67 1483.17 Q1839.2 1486.25 1832.88 1486.25 Q1830.71 1486.25 1828.44 1485.88 Q1826.19 1485.51 1823.78 1484.77 L1823.78 1480.07 Q1825.87 1481.2 1828.09 1481.76 Q1830.31 1482.32 1832.79 1482.32 Q1836.79 1482.32 1839.13 1480.21 Q1841.47 1478.1 1841.47 1474.49 Q1841.47 1470.88 1839.13 1468.77 Q1836.79 1466.67 1832.79 1466.67 Q1830.91 1466.67 1829.04 1467.08 Q1827.19 1467.5 1825.24 1468.38 L1825.24 1451.02 Z" fill="#000000" fill-rule="nonzero" fill-opacity="1" /><path clip-path="url(#clip190)" d="M1865.36 1454.1 Q1861.75 1454.1 1859.92 1457.66 Q1858.11 1461.2 1858.11 1468.33 Q1858.11 1475.44 1859.92 1479.01 Q1861.75 1482.55 1865.36 1482.55 Q1868.99 1482.55 1870.8 1479.01 Q1872.63 1475.44 1872.63 1468.33 Q1872.63 1461.2 1870.8 1457.66 Q1868.99 1454.1 1865.36 1454.1 M1865.36 1450.39 Q1871.17 1450.39 1874.22 1455 Q1877.3 1459.58 1877.3 1468.33 Q1877.3 1477.06 1874.22 1481.67 Q1871.17 1486.25 1865.36 1486.25 Q1859.55 1486.25 1856.47 1481.67 Q1853.41 1477.06 1853.41 1468.33 Q1853.41 1459.58 1856.47 1455 Q1859.55 1450.39 1865.36 1450.39 Z" fill="#000000" fill-rule="nonzero" fill-opacity="1" /><path clip-path="url(#clip190)" d="M2100.95 1451.02 L2123.17 1451.02 L2123.17 1453.01 L2110.62 1485.58 L2105.74 1485.58 L2117.54 1454.96 L2100.95 1454.96 L2100.95 1451.02 Z" fill="#000000" fill-rule="nonzero" fill-opacity="1" /><path clip-path="url(#clip190)" d="M2132.34 1451.02 L2150.69 1451.02 L2150.69 1454.96 L2136.62 1454.96 L2136.62 1463.43 Q2137.64 1463.08 2138.65 1462.92 Q2139.67 1462.73 2140.69 1462.73 Q2146.48 1462.73 2149.86 1465.9 Q2153.24 1469.08 2153.24 1474.49 Q2153.24 1480.07 2149.77 1483.17 Q2146.29 1486.25 2139.97 1486.25 Q2137.8 1486.25 2135.53 1485.88 Q2133.28 1485.51 2130.88 1484.77 L2130.88 1480.07 Q2132.96 1481.2 2135.18 1481.76 Q2137.4 1482.32 2139.88 1482.32 Q2143.89 1482.32 2146.22 1480.21 Q2148.56 1478.1 2148.56 1474.49 Q2148.56 1470.88 2146.22 1468.77 Q2143.89 1466.67 2139.88 1466.67 Q2138.01 1466.67 2136.13 1467.08 Q2134.28 1467.5 2132.34 1468.38 L2132.34 1451.02 Z" fill="#000000" fill-rule="nonzero" fill-opacity="1" /><path clip-path="url(#clip190)" d="M1132.3 1526.86 L1123.58 1550.51 L1141.06 1550.51 L1132.3 1526.86 M1128.67 1520.52 L1135.96 1520.52 L1154.07 1568.04 L1147.39 1568.04 L1143.06 1555.85 L1121.64 1555.85 L1117.31 1568.04 L1110.53 1568.04 L1128.67 1520.52 Z" fill="#000000" fill-rule="nonzero" fill-opacity="1" /><path clip-path="url(#clip190)" d="M1190.39 1546.53 L1190.39 1568.04 L1184.53 1568.04 L1184.53 1546.72 Q1184.53 1541.66 1182.56 1539.14 Q1180.59 1536.63 1176.64 1536.63 Q1171.9 1536.63 1169.16 1539.65 Q1166.42 1542.68 1166.42 1547.9 L1166.42 1568.04 L1160.53 1568.04 L1160.53 1532.4 L1166.42 1532.4 L1166.42 1537.93 Q1168.52 1534.72 1171.36 1533.13 Q1174.22 1531.54 1177.95 1531.54 Q1184.09 1531.54 1187.24 1535.36 Q1190.39 1539.14 1190.39 1546.53 Z" fill="#000000" fill-rule="nonzero" fill-opacity="1" /><path clip-path="url(#clip190)" d="M1225.53 1549.81 Q1225.53 1543.44 1222.89 1539.94 Q1220.28 1536.44 1215.53 1536.44 Q1210.82 1536.44 1208.18 1539.94 Q1205.57 1543.44 1205.57 1549.81 Q1205.57 1556.14 1208.18 1559.64 Q1210.82 1563.14 1215.53 1563.14 Q1220.28 1563.14 1222.89 1559.64 Q1225.53 1556.14 1225.53 1549.81 M1231.39 1563.62 Q1231.39 1572.72 1227.34 1577.15 Q1223.3 1581.6 1214.96 1581.6 Q1211.87 1581.6 1209.14 1581.13 Q1206.4 1580.68 1203.82 1579.72 L1203.82 1574.03 Q1206.4 1575.43 1208.91 1576.1 Q1211.43 1576.76 1214.04 1576.76 Q1219.8 1576.76 1222.66 1573.74 Q1225.53 1570.75 1225.53 1564.67 L1225.53 1561.77 Q1223.71 1564.92 1220.88 1566.48 Q1218.05 1568.04 1214.1 1568.04 Q1207.55 1568.04 1203.54 1563.05 Q1199.52 1558.05 1199.52 1549.81 Q1199.52 1541.53 1203.54 1536.53 Q1207.55 1531.54 1214.1 1531.54 Q1218.05 1531.54 1220.88 1533.1 Q1223.71 1534.66 1225.53 1537.81 L1225.53 1532.4 L1231.39 1532.4 L1231.39 1563.62 Z" fill="#000000" fill-rule="nonzero" fill-opacity="1" /><path clip-path="url(#clip190)" d="M1243.45 1518.52 L1249.3 1518.52 L1249.3 1568.04 L1243.45 1568.04 L1243.45 1518.52 Z" fill="#000000" fill-rule="nonzero" fill-opacity="1" /><path clip-path="url(#clip190)" d="M1292.05 1548.76 L1292.05 1551.62 L1265.12 1551.62 Q1265.51 1557.67 1268.75 1560.85 Q1272.03 1564 1277.85 1564 Q1281.23 1564 1284.38 1563.17 Q1287.56 1562.35 1290.68 1560.69 L1290.68 1566.23 Q1287.53 1567.57 1284.22 1568.27 Q1280.91 1568.97 1277.5 1568.97 Q1268.97 1568.97 1263.98 1564 Q1259.01 1559.04 1259.01 1550.57 Q1259.01 1541.82 1263.72 1536.69 Q1268.47 1531.54 1276.49 1531.54 Q1283.68 1531.54 1287.85 1536.18 Q1292.05 1540.8 1292.05 1548.76 M1286.19 1547.04 Q1286.13 1542.23 1283.49 1539.37 Q1280.88 1536.5 1276.55 1536.5 Q1271.65 1536.5 1268.69 1539.27 Q1265.76 1542.04 1265.31 1547.07 L1286.19 1547.04 Z" fill="#000000" fill-rule="nonzero" fill-opacity="1" /><path clip-path="url(#clip190)" d="M1321.84 1518.52 L1335.34 1518.52 L1335.34 1523.07 L1327.7 1523.07 L1327.7 1572.09 L1335.34 1572.09 L1335.34 1576.64 L1321.84 1576.64 L1321.84 1518.52 Z" fill="#000000" fill-rule="nonzero" fill-opacity="1" /><path clip-path="url(#clip190)" d="M1371.27 1537.81 L1371.27 1518.52 L1377.13 1518.52 L1377.13 1568.04 L1371.27 1568.04 L1371.27 1562.7 Q1369.43 1565.88 1366.59 1567.44 Q1363.79 1568.97 1359.85 1568.97 Q1353.38 1568.97 1349.31 1563.81 Q1345.27 1558.65 1345.27 1550.25 Q1345.27 1541.85 1349.31 1536.69 Q1353.38 1531.54 1359.85 1531.54 Q1363.79 1531.54 1366.59 1533.1 Q1369.43 1534.62 1371.27 1537.81 M1351.32 1550.25 Q1351.32 1556.71 1353.96 1560.4 Q1356.63 1564.07 1361.28 1564.07 Q1365.92 1564.07 1368.6 1560.4 Q1371.27 1556.71 1371.27 1550.25 Q1371.27 1543.79 1368.6 1540.13 Q1365.92 1536.44 1361.28 1536.44 Q1356.63 1536.44 1353.96 1540.13 Q1351.32 1543.79 1351.32 1550.25 Z" fill="#000000" fill-rule="nonzero" fill-opacity="1" /><path clip-path="url(#clip190)" d="M1419.68 1548.76 L1419.68 1551.62 L1392.76 1551.62 Q1393.14 1557.67 1396.38 1560.85 Q1399.66 1564 1405.49 1564 Q1408.86 1564 1412.01 1563.17 Q1415.19 1562.35 1418.31 1560.69 L1418.31 1566.23 Q1415.16 1567.57 1411.85 1568.27 Q1408.54 1568.97 1405.14 1568.97 Q1396.61 1568.97 1391.61 1564 Q1386.64 1559.04 1386.64 1550.57 Q1386.64 1541.82 1391.36 1536.69 Q1396.1 1531.54 1404.12 1531.54 Q1411.31 1531.54 1415.48 1536.18 Q1419.68 1540.8 1419.68 1548.76 M1413.83 1547.04 Q1413.76 1542.23 1411.12 1539.37 Q1408.51 1536.5 1404.18 1536.5 Q1399.28 1536.5 1396.32 1539.27 Q1393.39 1542.04 1392.95 1547.07 L1413.83 1547.04 Z" fill="#000000" fill-rule="nonzero" fill-opacity="1" /><path clip-path="url(#clip190)" d="M1452.75 1549.81 Q1452.75 1543.44 1450.11 1539.94 Q1447.5 1536.44 1442.76 1536.44 Q1438.05 1536.44 1435.41 1539.94 Q1432.8 1543.44 1432.8 1549.81 Q1432.8 1556.14 1435.41 1559.64 Q1438.05 1563.14 1442.76 1563.14 Q1447.5 1563.14 1450.11 1559.64 Q1452.75 1556.14 1452.75 1549.81 M1458.61 1563.62 Q1458.61 1572.72 1454.57 1577.15 Q1450.52 1581.6 1442.19 1581.6 Q1439.1 1581.6 1436.36 1581.13 Q1433.62 1580.68 1431.05 1579.72 L1431.05 1574.03 Q1433.62 1575.43 1436.14 1576.1 Q1438.65 1576.76 1441.26 1576.76 Q1447.02 1576.76 1449.89 1573.74 Q1452.75 1570.75 1452.75 1564.67 L1452.75 1561.77 Q1450.94 1564.92 1448.11 1566.48 Q1445.27 1568.04 1441.33 1568.04 Q1434.77 1568.04 1430.76 1563.05 Q1426.75 1558.05 1426.75 1549.81 Q1426.75 1541.53 1430.76 1536.53 Q1434.77 1531.54 1441.33 1531.54 Q1445.27 1531.54 1448.11 1533.1 Q1450.94 1534.66 1452.75 1537.81 L1452.75 1532.4 L1458.61 1532.4 L1458.61 1563.62 Z" fill="#000000" fill-rule="nonzero" fill-opacity="1" /><path clip-path="url(#clip190)" d="M1484.36 1518.52 L1484.36 1576.64 L1470.86 1576.64 L1470.86 1572.09 L1478.47 1572.09 L1478.47 1523.07 L1470.86 1523.07 L1470.86 1518.52 L1484.36 1518.52 Z" fill="#000000" fill-rule="nonzero" fill-opacity="1" /><polyline clip-path="url(#clip190)" style="stroke:#000000; stroke-linecap:round; stroke-linejoin:round; stroke-width:4; stroke-opacity:1; fill:none" points="242.135,1423.18 242.135,123.472 "/>
<polyline clip-path="url(#clip190)" style="stroke:#000000; stroke-linecap:round; stroke-linejoin:round; stroke-width:4; stroke-opacity:1; fill:none" points="242.135,1423.18 261.032,1423.18 "/>
<polyline clip-path="url(#clip190)" style="stroke:#000000; stroke-linecap:round; stroke-linejoin:round; stroke-width:4; stroke-opacity:1; fill:none" points="242.135,1232.05 261.032,1232.05 "/>
<polyline clip-path="url(#clip190)" style="stroke:#000000; stroke-linecap:round; stroke-linejoin:round; stroke-width:4; stroke-opacity:1; fill:none" points="242.135,1040.91 261.032,1040.91 "/>
<polyline clip-path="url(#clip190)" style="stroke:#000000; stroke-linecap:round; stroke-linejoin:round; stroke-width:4; stroke-opacity:1; fill:none" points="242.135,849.779 261.032,849.779 "/>
<polyline clip-path="url(#clip190)" style="stroke:#000000; stroke-linecap:round; stroke-linejoin:round; stroke-width:4; stroke-opacity:1; fill:none" points="242.135,658.646 261.032,658.646 "/>
<polyline clip-path="url(#clip190)" style="stroke:#000000; stroke-linecap:round; stroke-linejoin:round; stroke-width:4; stroke-opacity:1; fill:none" points="242.135,467.512 261.032,467.512 "/>
<polyline clip-path="url(#clip190)" style="stroke:#000000; stroke-linecap:round; stroke-linejoin:round; stroke-width:4; stroke-opacity:1; fill:none" points="242.135,276.379 261.032,276.379 "/>
<path clip-path="url(#clip190)" d="M114.26 1423.63 L143.936 1423.63 L143.936 1427.57 L114.26 1427.57 L114.26 1423.63 Z" fill="#000000" fill-rule="nonzero" fill-opacity="1" /><path clip-path="url(#clip190)" d="M154.075 1405.9 L172.431 1405.9 L172.431 1409.84 L158.357 1409.84 L158.357 1418.31 Q159.376 1417.96 160.394 1417.8 Q161.413 1417.61 162.431 1417.61 Q168.218 1417.61 171.598 1420.78 Q174.977 1423.96 174.977 1429.37 Q174.977 1434.95 171.505 1438.05 Q168.033 1441.13 161.714 1441.13 Q159.538 1441.13 157.269 1440.76 Q155.024 1440.39 152.616 1439.65 L152.616 1434.95 Q154.7 1436.08 156.922 1436.64 Q159.144 1437.2 161.621 1437.2 Q165.626 1437.2 167.964 1435.09 Q170.302 1432.98 170.302 1429.37 Q170.302 1425.76 167.964 1423.65 Q165.626 1421.55 161.621 1421.55 Q159.746 1421.55 157.871 1421.96 Q156.019 1422.38 154.075 1423.26 L154.075 1405.9 Z" fill="#000000" fill-rule="nonzero" fill-opacity="1" /><path clip-path="url(#clip190)" d="M194.19 1408.98 Q190.579 1408.98 188.75 1412.54 Q186.945 1416.08 186.945 1423.21 Q186.945 1430.32 188.75 1433.89 Q190.579 1437.43 194.19 1437.43 Q197.825 1437.43 199.63 1433.89 Q201.459 1430.32 201.459 1423.21 Q201.459 1416.08 199.63 1412.54 Q197.825 1408.98 194.19 1408.98 M194.19 1405.27 Q200 1405.27 203.056 1409.88 Q206.135 1414.46 206.135 1423.21 Q206.135 1431.94 203.056 1436.55 Q200 1441.13 194.19 1441.13 Q188.38 1441.13 185.301 1436.55 Q182.246 1431.94 182.246 1423.21 Q182.246 1414.46 185.301 1409.88 Q188.38 1405.27 194.19 1405.27 Z" fill="#000000" fill-rule="nonzero" fill-opacity="1" /><path clip-path="url(#clip190)" d="M114.26 1232.5 L143.936 1232.5 L143.936 1236.43 L114.26 1236.43 L114.26 1232.5 Z" fill="#000000" fill-rule="nonzero" fill-opacity="1" /><path clip-path="url(#clip190)" d="M166.876 1218.84 L155.07 1237.29 L166.876 1237.29 L166.876 1218.84 M165.649 1214.77 L171.528 1214.77 L171.528 1237.29 L176.459 1237.29 L176.459 1241.18 L171.528 1241.18 L171.528 1249.33 L166.876 1249.33 L166.876 1241.18 L151.274 1241.18 L151.274 1236.66 L165.649 1214.77 Z" fill="#000000" fill-rule="nonzero" fill-opacity="1" /><path clip-path="url(#clip190)" d="M194.19 1217.85 Q190.579 1217.85 188.75 1221.41 Q186.945 1224.95 186.945 1232.08 Q186.945 1239.19 188.75 1242.75 Q190.579 1246.29 194.19 1246.29 Q197.825 1246.29 199.63 1242.75 Q201.459 1239.19 201.459 1232.08 Q201.459 1224.95 199.63 1221.41 Q197.825 1217.85 194.19 1217.85 M194.19 1214.14 Q200 1214.14 203.056 1218.75 Q206.135 1223.33 206.135 1232.08 Q206.135 1240.81 203.056 1245.41 Q200 1250 194.19 1250 Q188.38 1250 185.301 1245.41 Q182.246 1240.81 182.246 1232.08 Q182.246 1223.33 185.301 1218.75 Q188.38 1214.14 194.19 1214.14 Z" fill="#000000" fill-rule="nonzero" fill-opacity="1" /><path clip-path="url(#clip190)" d="M114.26 1041.36 L143.936 1041.36 L143.936 1045.3 L114.26 1045.3 L114.26 1041.36 Z" fill="#000000" fill-rule="nonzero" fill-opacity="1" /><path clip-path="url(#clip190)" d="M168.195 1039.56 Q171.552 1040.28 173.427 1042.54 Q175.325 1044.81 175.325 1048.15 Q175.325 1053.26 171.806 1056.06 Q168.288 1058.86 161.806 1058.86 Q159.63 1058.86 157.315 1058.42 Q155.024 1058.01 152.57 1057.15 L152.57 1052.64 Q154.515 1053.77 156.829 1054.35 Q159.144 1054.93 161.667 1054.93 Q166.065 1054.93 168.357 1053.19 Q170.672 1051.46 170.672 1048.15 Q170.672 1045.09 168.519 1043.38 Q166.39 1041.64 162.57 1041.64 L158.542 1041.64 L158.542 1037.8 L162.755 1037.8 Q166.204 1037.8 168.033 1036.43 Q169.862 1035.04 169.862 1032.45 Q169.862 1029.79 167.964 1028.38 Q166.089 1026.94 162.57 1026.94 Q160.649 1026.94 158.45 1027.36 Q156.251 1027.78 153.612 1028.66 L153.612 1024.49 Q156.274 1023.75 158.589 1023.38 Q160.927 1023.01 162.987 1023.01 Q168.311 1023.01 171.413 1025.44 Q174.514 1027.85 174.514 1031.97 Q174.514 1034.84 172.871 1036.83 Q171.227 1038.79 168.195 1039.56 Z" fill="#000000" fill-rule="nonzero" fill-opacity="1" /><path clip-path="url(#clip190)" d="M194.19 1026.71 Q190.579 1026.71 188.75 1030.28 Q186.945 1033.82 186.945 1040.95 Q186.945 1048.05 188.75 1051.62 Q190.579 1055.16 194.19 1055.16 Q197.825 1055.16 199.63 1051.62 Q201.459 1048.05 201.459 1040.95 Q201.459 1033.82 199.63 1030.28 Q197.825 1026.71 194.19 1026.71 M194.19 1023.01 Q200 1023.01 203.056 1027.61 Q206.135 1032.2 206.135 1040.95 Q206.135 1049.67 203.056 1054.28 Q200 1058.86 194.19 1058.86 Q188.38 1058.86 185.301 1054.28 Q182.246 1049.67 182.246 1040.95 Q182.246 1032.2 185.301 1027.61 Q188.38 1023.01 194.19 1023.01 Z" fill="#000000" fill-rule="nonzero" fill-opacity="1" /><path clip-path="url(#clip190)" d="M114.26 850.231 L143.936 850.231 L143.936 854.166 L114.26 854.166 L114.26 850.231 Z" fill="#000000" fill-rule="nonzero" fill-opacity="1" /><path clip-path="url(#clip190)" d="M158.056 863.124 L174.376 863.124 L174.376 867.059 L152.431 867.059 L152.431 863.124 Q155.093 860.37 159.677 855.74 Q164.283 851.087 165.464 849.745 Q167.709 847.222 168.589 845.485 Q169.491 843.726 169.491 842.036 Q169.491 839.282 167.547 837.546 Q165.626 835.81 162.524 835.81 Q160.325 835.81 157.871 836.573 Q155.44 837.337 152.663 838.888 L152.663 834.166 Q155.487 833.032 157.94 832.453 Q160.394 831.874 162.431 831.874 Q167.802 831.874 170.996 834.56 Q174.19 837.245 174.19 841.735 Q174.19 843.865 173.38 845.786 Q172.593 847.684 170.487 850.277 Q169.908 850.948 166.806 854.166 Q163.704 857.36 158.056 863.124 Z" fill="#000000" fill-rule="nonzero" fill-opacity="1" /><path clip-path="url(#clip190)" d="M194.19 835.578 Q190.579 835.578 188.75 839.143 Q186.945 842.685 186.945 849.814 Q186.945 856.921 188.75 860.485 Q190.579 864.027 194.19 864.027 Q197.825 864.027 199.63 860.485 Q201.459 856.921 201.459 849.814 Q201.459 842.685 199.63 839.143 Q197.825 835.578 194.19 835.578 M194.19 831.874 Q200 831.874 203.056 836.481 Q206.135 841.064 206.135 849.814 Q206.135 858.541 203.056 863.147 Q200 867.731 194.19 867.731 Q188.38 867.731 185.301 863.147 Q182.246 858.541 182.246 849.814 Q182.246 841.064 185.301 836.481 Q188.38 831.874 194.19 831.874 Z" fill="#000000" fill-rule="nonzero" fill-opacity="1" /><path clip-path="url(#clip190)" d="M114.26 659.097 L143.936 659.097 L143.936 663.032 L114.26 663.032 L114.26 659.097 Z" fill="#000000" fill-rule="nonzero" fill-opacity="1" /><path clip-path="url(#clip190)" d="M154.839 671.991 L162.477 671.991 L162.477 645.625 L154.167 647.292 L154.167 643.033 L162.431 641.366 L167.107 641.366 L167.107 671.991 L174.746 671.991 L174.746 675.926 L154.839 675.926 L154.839 671.991 Z" fill="#000000" fill-rule="nonzero" fill-opacity="1" /><path clip-path="url(#clip190)" d="M194.19 644.445 Q190.579 644.445 188.75 648.009 Q186.945 651.551 186.945 658.681 Q186.945 665.787 188.75 669.352 Q190.579 672.894 194.19 672.894 Q197.825 672.894 199.63 669.352 Q201.459 665.787 201.459 658.681 Q201.459 651.551 199.63 648.009 Q197.825 644.445 194.19 644.445 M194.19 640.741 Q200 640.741 203.056 645.347 Q206.135 649.931 206.135 658.681 Q206.135 667.407 203.056 672.014 Q200 676.597 194.19 676.597 Q188.38 676.597 185.301 672.014 Q182.246 667.407 182.246 658.681 Q182.246 649.931 185.301 645.347 Q188.38 640.741 194.19 640.741 Z" fill="#000000" fill-rule="nonzero" fill-opacity="1" /><path clip-path="url(#clip190)" d="M194.19 453.311 Q190.579 453.311 188.75 456.876 Q186.945 460.418 186.945 467.547 Q186.945 474.654 188.75 478.218 Q190.579 481.76 194.19 481.76 Q197.825 481.76 199.63 478.218 Q201.459 474.654 201.459 467.547 Q201.459 460.418 199.63 456.876 Q197.825 453.311 194.19 453.311 M194.19 449.607 Q200 449.607 203.056 454.214 Q206.135 458.797 206.135 467.547 Q206.135 476.274 203.056 480.88 Q200 485.464 194.19 485.464 Q188.38 485.464 185.301 480.88 Q182.246 476.274 182.246 467.547 Q182.246 458.797 185.301 454.214 Q188.38 449.607 194.19 449.607 Z" fill="#000000" fill-rule="nonzero" fill-opacity="1" /><path clip-path="url(#clip190)" d="M154.839 289.724 L162.477 289.724 L162.477 263.358 L154.167 265.025 L154.167 260.766 L162.431 259.099 L167.107 259.099 L167.107 289.724 L174.746 289.724 L174.746 293.659 L154.839 293.659 L154.839 289.724 Z" fill="#000000" fill-rule="nonzero" fill-opacity="1" /><path clip-path="url(#clip190)" d="M194.19 262.178 Q190.579 262.178 188.75 265.742 Q186.945 269.284 186.945 276.414 Q186.945 283.52 188.75 287.085 Q190.579 290.627 194.19 290.627 Q197.825 290.627 199.63 287.085 Q201.459 283.52 201.459 276.414 Q201.459 269.284 199.63 265.742 Q197.825 262.178 194.19 262.178 M194.19 258.474 Q200 258.474 203.056 263.08 Q206.135 267.664 206.135 276.414 Q206.135 285.14 203.056 289.747 Q200 294.33 194.19 294.33 Q188.38 294.33 185.301 289.747 Q182.246 285.14 182.246 276.414 Q182.246 267.664 185.301 263.08 Q188.38 258.474 194.19 258.474 Z" fill="#000000" fill-rule="nonzero" fill-opacity="1" /><path clip-path="url(#clip190)" d="M57.2247 862.557 L44.4614 862.557 L44.4614 873.061 L39.1779 873.061 L39.1779 856.192 L59.58 856.192 Q62.2218 859.916 63.5904 864.403 Q64.9272 868.891 64.9272 873.984 Q64.9272 885.124 58.4342 891.426 Q51.9093 897.696 40.2919 897.696 Q28.6427 897.696 22.1496 891.426 Q15.6248 885.124 15.6248 873.984 Q15.6248 869.337 16.7706 865.167 Q17.9164 860.966 20.1444 857.433 L26.9876 857.433 Q23.9639 860.998 22.4361 865.008 Q20.9083 869.018 20.9083 873.443 Q20.9083 882.164 25.7781 886.556 Q30.6479 890.916 40.2919 890.916 Q49.9041 890.916 54.7739 886.556 Q59.6436 882.164 59.6436 873.443 Q59.6436 870.037 59.0707 867.363 Q58.466 864.69 57.2247 862.557 Z" fill="#000000" fill-rule="nonzero" fill-opacity="1" /><path clip-path="url(#clip190)" d="M58.3387 803.515 L64.0042 803.515 L64.0042 822.612 L58.3387 822.612 Q55.2513 816.979 49.9678 813.828 Q44.6842 810.677 38.2549 810.677 Q30.616 810.677 26.0009 814.878 Q21.3858 819.08 21.3858 825.954 Q21.3858 832.829 26.0327 837.063 Q30.6479 841.264 38.2549 841.264 Q44.6842 841.264 49.9678 838.113 Q55.2513 834.93 58.3387 829.265 L64.0042 829.265 L64.0042 848.362 L58.3387 848.362 L58.3387 838.208 Q53.9145 843.237 49.1721 845.561 Q44.4296 847.852 38.5732 847.852 Q28.4517 847.852 22.1815 841.741 Q15.9112 835.662 15.9112 825.954 Q15.9112 816.31 22.1815 810.168 Q28.4199 804.056 38.2549 804.056 Q44.4296 804.056 49.1402 806.316 Q53.8509 808.576 58.3387 813.7 L58.3387 803.515 Z" fill="#000000" fill-rule="nonzero" fill-opacity="1" /><path clip-path="url(#clip190)" d="M14.479 774.711 L14.479 761.215 L19.0304 761.215 L19.0304 768.854 L68.0464 768.854 L68.0464 761.215 L72.5979 761.215 L72.5979 774.711 L14.479 774.711 Z" fill="#000000" fill-rule="nonzero" fill-opacity="1" /><path clip-path="url(#clip190)" d="M33.7671 725.281 L14.479 725.281 L14.479 719.424 L64.0042 719.424 L64.0042 725.281 L58.657 725.281 Q61.8398 727.127 63.3994 729.96 Q64.9272 732.761 64.9272 736.707 Q64.9272 743.168 59.771 747.243 Q54.6147 751.285 46.212 751.285 Q37.8093 751.285 32.6531 747.243 Q27.4968 743.168 27.4968 736.707 Q27.4968 732.761 29.0564 729.96 Q30.5842 727.127 33.7671 725.281 M46.212 745.237 Q52.6732 745.237 56.3653 742.596 Q60.0256 739.922 60.0256 735.275 Q60.0256 730.628 56.3653 727.954 Q52.6732 725.281 46.212 725.281 Q39.7508 725.281 36.0905 727.954 Q32.3984 730.628 32.3984 735.275 Q32.3984 739.922 36.0905 742.596 Q39.7508 745.237 46.212 745.237 Z" fill="#000000" fill-rule="nonzero" fill-opacity="1" /><path clip-path="url(#clip190)" d="M41.3104 700.677 L58.7206 700.677 L58.7206 690.365 Q58.7206 685.177 56.5881 682.694 Q54.4238 680.18 49.9996 680.18 Q45.5436 680.18 43.4429 682.694 Q41.3104 685.177 41.3104 690.365 L41.3104 700.677 M21.7677 700.677 L36.0905 700.677 L36.0905 691.161 Q36.0905 686.45 34.34 684.158 Q32.5576 681.835 28.9291 681.835 Q25.3325 681.835 23.5501 684.158 Q21.7677 686.45 21.7677 691.161 L21.7677 700.677 M16.4842 707.107 L16.4842 690.683 Q16.4842 683.331 19.5397 679.352 Q22.5952 675.374 28.2289 675.374 Q32.5894 675.374 35.1675 677.411 Q37.7456 679.448 38.3822 683.394 Q39.4007 678.652 42.6472 676.042 Q45.8619 673.4 50.6998 673.4 Q57.0655 673.4 60.5348 677.729 Q64.0042 682.058 64.0042 690.047 L64.0042 707.107 L16.4842 707.107 Z" fill="#000000" fill-rule="nonzero" fill-opacity="1" /><path clip-path="url(#clip190)" d="M14.479 648.956 L72.5979 648.956 L72.5979 662.451 L68.0464 662.451 L68.0464 654.844 L19.0304 654.844 L19.0304 662.451 L14.479 662.451 L14.479 648.956 Z" fill="#000000" fill-rule="nonzero" fill-opacity="1" /><path clip-path="url(#clip190)" d="M1114.53 20.1573 L1103.43 50.2555 L1125.67 50.2555 L1114.53 20.1573 M1109.91 12.096 L1119.19 12.096 L1142.23 72.576 L1133.73 72.576 L1128.22 57.061 L1100.96 57.061 L1095.45 72.576 L1086.82 72.576 L1109.91 12.096 Z" fill="#000000" fill-rule="nonzero" fill-opacity="1" /><path clip-path="url(#clip190)" d="M1177.03 34.1734 Q1175.78 33.4443 1174.28 33.1202 Q1172.82 32.7556 1171.04 32.7556 Q1164.72 32.7556 1161.31 36.8875 Q1157.95 40.9789 1157.95 48.6757 L1157.95 72.576 L1150.46 72.576 L1150.46 27.2059 L1157.95 27.2059 L1157.95 34.2544 Q1160.3 30.1225 1164.07 28.1376 Q1167.84 26.1121 1173.22 26.1121 Q1173.99 26.1121 1174.93 26.2337 Q1175.86 26.3147 1176.99 26.5172 L1177.03 34.1734 Z" fill="#000000" fill-rule="nonzero" fill-opacity="1" /><path clip-path="url(#clip190)" d="M1209.68 34.1734 Q1208.43 33.4443 1206.93 33.1202 Q1205.47 32.7556 1203.69 32.7556 Q1197.37 32.7556 1193.96 36.8875 Q1190.6 40.9789 1190.6 48.6757 L1190.6 72.576 L1183.11 72.576 L1183.11 27.2059 L1190.6 27.2059 L1190.6 34.2544 Q1192.95 30.1225 1196.72 28.1376 Q1200.49 26.1121 1205.87 26.1121 Q1206.64 26.1121 1207.58 26.2337 Q1208.51 26.3147 1209.64 26.5172 L1209.68 34.1734 Z" fill="#000000" fill-rule="nonzero" fill-opacity="1" /><path clip-path="url(#clip190)" d="M1238.12 49.7694 Q1229.09 49.7694 1225.6 51.8354 Q1222.12 53.9013 1222.12 58.8839 Q1222.12 62.8538 1224.71 65.2034 Q1227.34 67.5124 1231.84 67.5124 Q1238.04 67.5124 1241.77 63.1374 Q1245.53 58.7219 1245.53 51.4303 L1245.53 49.7694 L1238.12 49.7694 M1252.99 46.6907 L1252.99 72.576 L1245.53 72.576 L1245.53 65.6895 Q1242.98 69.8214 1239.17 71.8063 Q1235.37 73.7508 1229.86 73.7508 Q1222.89 73.7508 1218.76 69.8619 Q1214.67 65.9325 1214.67 59.3701 Q1214.67 51.7138 1219.77 47.825 Q1224.91 43.9361 1235.08 43.9361 L1245.53 43.9361 L1245.53 43.2069 Q1245.53 38.0623 1242.13 35.2672 Q1238.77 32.4315 1232.65 32.4315 Q1228.76 32.4315 1225.08 33.3632 Q1221.39 34.295 1217.99 36.1584 L1217.99 29.2718 Q1222.08 27.692 1225.93 26.9223 Q1229.77 26.1121 1233.42 26.1121 Q1243.26 26.1121 1248.13 31.2163 Q1252.99 36.3204 1252.99 46.6907 Z" fill="#000000" fill-rule="nonzero" fill-opacity="1" /><path clip-path="url(#clip190)" d="M1287.22 76.7889 Q1284.06 84.8907 1281.06 87.3618 Q1278.06 89.8329 1273.04 89.8329 L1267.08 89.8329 L1267.08 83.5945 L1271.46 83.5945 Q1274.54 83.5945 1276.24 82.1361 Q1277.94 80.6778 1280.01 75.2496 L1281.34 71.8468 L1262.99 27.2059 L1270.89 27.2059 L1285.07 62.6918 L1299.25 27.2059 L1307.15 27.2059 L1287.22 76.7889 Z" fill="#000000" fill-rule="nonzero" fill-opacity="1" /><path clip-path="url(#clip190)" d="M1373.66 49.3643 Q1373.66 41.2625 1370.3 36.8065 Q1366.98 32.3505 1360.94 32.3505 Q1354.95 32.3505 1351.59 36.8065 Q1348.26 41.2625 1348.26 49.3643 Q1348.26 57.4256 1351.59 61.8816 Q1354.95 66.3376 1360.94 66.3376 Q1366.98 66.3376 1370.3 61.8816 Q1373.66 57.4256 1373.66 49.3643 M1381.12 66.9452 Q1381.12 78.5308 1375.97 84.1616 Q1370.83 89.8329 1360.21 89.8329 Q1356.28 89.8329 1352.8 89.2252 Q1349.32 88.6581 1346.04 87.4428 L1346.04 80.1917 Q1349.32 81.9741 1352.52 82.8248 Q1355.72 83.6755 1359.04 83.6755 Q1366.37 83.6755 1370.02 79.8271 Q1373.66 76.0193 1373.66 68.282 L1373.66 64.5957 Q1371.35 68.6061 1367.75 70.5911 Q1364.14 72.576 1359.12 72.576 Q1350.78 72.576 1345.67 66.2161 Q1340.57 59.8562 1340.57 49.3643 Q1340.57 38.832 1345.67 32.472 Q1350.78 26.1121 1359.12 26.1121 Q1364.14 26.1121 1367.75 28.0971 Q1371.35 30.082 1373.66 34.0924 L1373.66 27.2059 L1381.12 27.2059 L1381.12 66.9452 Z" fill="#000000" fill-rule="nonzero" fill-opacity="1" /><path clip-path="url(#clip190)" d="M1417.09 49.7694 Q1408.06 49.7694 1404.57 51.8354 Q1401.09 53.9013 1401.09 58.8839 Q1401.09 62.8538 1403.68 65.2034 Q1406.31 67.5124 1410.81 67.5124 Q1417.01 67.5124 1420.73 63.1374 Q1424.5 58.7219 1424.5 51.4303 L1424.5 49.7694 L1417.09 49.7694 M1431.96 46.6907 L1431.96 72.576 L1424.5 72.576 L1424.5 65.6895 Q1421.95 69.8214 1418.14 71.8063 Q1414.33 73.7508 1408.82 73.7508 Q1401.86 73.7508 1397.73 69.8619 Q1393.63 65.9325 1393.63 59.3701 Q1393.63 51.7138 1398.74 47.825 Q1403.88 43.9361 1414.05 43.9361 L1424.5 43.9361 L1424.5 43.2069 Q1424.5 38.0623 1421.1 35.2672 Q1417.74 32.4315 1411.62 32.4315 Q1407.73 32.4315 1404.04 33.3632 Q1400.36 34.295 1396.96 36.1584 L1396.96 29.2718 Q1401.05 27.692 1404.9 26.9223 Q1408.74 26.1121 1412.39 26.1121 Q1422.23 26.1121 1427.09 31.2163 Q1431.96 36.3204 1431.96 46.6907 Z" fill="#000000" fill-rule="nonzero" fill-opacity="1" /><path clip-path="url(#clip190)" d="M1447.31 27.2059 L1454.76 27.2059 L1454.76 72.576 L1447.31 72.576 L1447.31 27.2059 M1447.31 9.54393 L1454.76 9.54393 L1454.76 18.9825 L1447.31 18.9825 L1447.31 9.54393 Z" fill="#000000" fill-rule="nonzero" fill-opacity="1" /><path clip-path="url(#clip190)" d="M1508.07 45.1919 L1508.07 72.576 L1500.62 72.576 L1500.62 45.4349 Q1500.62 38.994 1498.11 35.7938 Q1495.6 32.5936 1490.57 32.5936 Q1484.54 32.5936 1481.05 36.4419 Q1477.57 40.2903 1477.57 46.9338 L1477.57 72.576 L1470.07 72.576 L1470.07 27.2059 L1477.57 27.2059 L1477.57 34.2544 Q1480.24 30.163 1483.85 28.1376 Q1487.49 26.1121 1492.23 26.1121 Q1500.05 26.1121 1504.06 30.9732 Q1508.07 35.7938 1508.07 45.1919 Z" fill="#000000" fill-rule="nonzero" fill-opacity="1" /><polyline clip-path="url(#clip192)" style="stroke:#009af9; stroke-linecap:round; stroke-linejoin:round; stroke-width:4; stroke-opacity:1; fill:none" points="2293.02,10303.4 2289.04,2606.88 2285.06,2296.19 2281.07,2114.45 2277.09,1985.51 2273.11,1885.51 2269.13,1803.82 2265.15,1734.77 2261.16,1674.98 2257.18,1622.27 2253.2,1575.16 2249.22,1532.59 2245.23,1493.79 2241.25,1458.15 2237.27,1425.24 2233.29,1394.68 2229.3,1366.2 2225.32,1339.56 2221.34,1314.57 2217.36,1291.07 2213.38,1268.94 2209.39,1248.07 2205.41,1228.36 2201.43,1209.75 2197.45,1192.17 2193.46,1175.56 2189.48,1159.89 2185.5,1145.12 2181.52,1131.22 2177.53,1118.18 2173.55,1105.97 2169.57,1094.6 2165.59,1084.05 2161.61,1074.34 2157.62,1065.46 2153.64,1057.44 2149.66,1050.29 2145.68,1044.05 2141.69,1038.74 2137.71,1034.41 2133.73,1031.12 2129.75,1028.93 2125.76,1027.92 2121.78,1028.19 2117.8,1029.87 2113.82,1033.11 2109.84,1038.1 2105.85,1045.12 2101.87,1054.48 2097.89,1066.66 2093.91,1082.32 2089.92,1102.45 2085.94,1128.6 2081.96,1163.52 2077.98,1212.64 2073.99,1289.74 2070.01,1454.32 2066.03,1495.63 2062.05,1294.19 2058.07,1204.34 2054.08,1146.01 2050.1,1103.26 2046.12,1070.09 2042.14,1043.61 2038.15,1022.23 2034.17,1005.01 2030.19,991.359 2026.21,980.919 2022.22,973.488 2018.24,968.983 2014.26,967.423 2010.28,968.932 2006.3,973.755 2002.31,982.292 1998.33,995.171 1994.35,1013.38 1990.37,1038.57 1986.38,1073.67 1982.4,1124.74 1978.42,1207.85 1974.44,1403.55 1970.45,1354.86 1966.47,1185.55 1962.49,1104.13 1958.51,1051.45 1954.53,1013.91 1950.54,986.193 1946.56,965.745 1942.58,951.198 1938.6,941.816 1934.61,937.259 1930.63,937.484 1926.65,942.731 1922.67,953.574 1918.68,971.084 1914.7,997.192 1910.72,1035.62 1906.74,1094.75 1902.76,1200.67 1898.77,1693.78 1894.79,1214.05 1890.81,1095.16 1886.83,1029.15 1882.84,985.616 1878.86,955.418 1874.88,934.696 1870.9,921.583 1866.91,915.2 1862.93,915.29 1858.95,922.121 1854.97,936.567 1850.99,960.449 1847,997.464 1843.02,1056.13 1839.04,1163.51 1835.06,1766.08 1831.07,1168.56 1827.09,1053.01 1823.11,989.345 1819.13,948.403 1815.14,921.365 1811.16,904.57 1807.18,896.383 1803.2,896.256 1799.22,904.468 1795.23,922.236 1791.25,952.319 1787.27,1000.95 1783.29,1085.59 1779.3,1304 1775.32,1202.81 1771.34,1049.11 1767.36,974.966 1763.37,929.705 1759.39,901.028 1755.41,884.271 1751.43,877.508 1747.45,880.248 1743.46,893.152 1739.48,918.385 1735.5,961.085 1731.52,1035.03 1727.53,1201.79 1723.55,1232.76 1719.57,1040.03 1715.59,957.902 1711.6,909.772 1707.62,880.333 1703.64,864.169 1699.66,859.204 1695.68,865.115 1691.69,883.122 1687.71,916.779 1683.73,975.244 1679.75,1090.13 1675.76,1491.68 1671.78,1060.21 1667.8,955.566 1663.82,898.664 1659.83,864.745 1655.85,846.193 1651.87,840.207 1647.89,846.271 1643.91,865.771 1639.92,903.021 1635.94,969.912 1631.96,1115.13 1627.98,1227.43 1623.99,998.657 1620.01,911.436 1616.03,862.518 1612.05,834.372 1608.07,821.226 1604.08,821.232 1600.1,834.852 1596.12,865.198 1592.14,921.086 1588.15,1033.4 1584.17,1463.76 1580.19,1006.76 1576.21,901.848 1572.22,846.024 1568.24,814.224 1564.26,798.976 1560.28,797.881 1556.3,811.268 1552.31,842.46 1548.33,901.275 1544.35,1024.58 1540.37,1273.69 1536.38,961.044 1532.4,864.51 1528.42,812.475 1524.44,783.566 1520.45,771.263 1516.47,773.753 1512.49,792.143 1508.51,831.481 1504.53,907.436 1500.54,1102.95 1496.56,1044.51 1492.58,881.043 1488.6,807.324 1484.61,766.26 1480.63,745.17 1476.65,740.048 1472.67,750.596 1468.68,779.924 1464.7,838.069 1460.72,964.168 1456.74,1173.69 1452.76,886.316 1448.77,791.848 1444.79,740.852 1440.81,713.063 1436.83,702.348 1432.84,707.27 1428.86,729.62 1424.88,776.219 1420.9,869.981 1416.91,1223.91 1412.93,906.576 1408.95,784.811 1404.97,725.105 1400.99,693.955 1397,682.873 1393.02,690.264 1389.04,719.305 1385.06,782.159 1381.07,934.031 1377.09,997.006 1373.11,792.151 1369.13,714.251 1365.14,678.96 1361.16,674.878 1357.18,709.376 1353.2,838.845 1349.22,850.473 1345.23,624.061 1341.25,512.887 1337.27,436.387 1333.29,378.194 1329.3,331.992 1325.32,294.637 1321.34,264.329 1317.36,239.945 1313.37,220.748 1309.39,206.241 1305.41,196.09 1301.43,190.079 1297.45,188.088 1293.46,190.079 1289.48,196.09 1285.5,206.241 1281.52,220.748 1277.53,239.945 1273.55,264.329 1269.57,294.637 1265.59,331.992 1261.6,378.194 1257.62,436.387 1253.64,512.887 1249.66,624.061 1245.68,850.473 1241.69,838.845 1237.71,709.376 1233.73,674.878 1229.75,678.96 1225.76,714.251 1221.78,792.151 1217.8,997.006 1213.82,934.031 1209.83,782.159 1205.85,719.305 1201.87,690.264 1197.89,682.873 1193.91,693.955 1189.92,725.105 1185.94,784.811 1181.96,906.576 1177.98,1223.91 1173.99,869.981 1170.01,776.219 1166.03,729.62 1162.05,707.27 1158.06,702.348 1154.08,713.063 1150.1,740.852 1146.12,791.848 1142.14,886.316 1138.15,1173.69 1134.17,964.168 1130.19,838.069 1126.21,779.924 1122.22,750.596 1118.24,740.048 1114.26,745.17 1110.28,766.26 1106.29,807.324 1102.31,881.043 1098.33,1044.51 1094.35,1102.95 1090.37,907.436 1086.38,831.481 1082.4,792.143 1078.42,773.753 1074.44,771.263 1070.45,783.566 1066.47,812.475 1062.49,864.51 1058.51,961.044 1054.52,1273.69 1050.54,1024.58 1046.56,901.275 1042.58,842.46 1038.6,811.268 1034.61,797.881 1030.63,798.976 1026.65,814.224 1022.67,846.024 1018.68,901.848 1014.7,1006.76 1010.72,1463.76 1006.74,1033.4 1002.75,921.086 998.772,865.198 994.79,834.852 990.808,821.232 986.826,821.226 982.843,834.372 978.861,862.518 974.879,911.436 970.896,998.657 966.914,1227.43 962.932,1115.13 958.949,969.912 954.967,903.021 950.985,865.771 947.003,846.271 943.02,840.207 939.038,846.193 935.056,864.745 931.073,898.664 927.091,955.566 923.109,1060.21 919.126,1491.68 915.144,1090.13 911.162,975.244 907.179,916.779 903.197,883.122 899.215,865.115 895.233,859.204 891.25,864.169 887.268,880.333 883.286,909.772 879.303,957.902 875.321,1040.03 871.339,1232.76 867.356,1201.79 863.374,1035.03 859.392,961.085 855.41,918.385 851.427,893.152 847.445,880.248 843.463,877.508 839.48,884.271 835.498,901.028 831.516,929.705 827.533,974.966 823.551,1049.11 819.569,1202.81 815.586,1304 811.604,1085.59 807.622,1000.95 803.64,952.319 799.657,922.236 795.675,904.468 791.693,896.256 787.71,896.383 783.728,904.57 779.746,921.365 775.763,948.403 771.781,989.345 767.799,1053.01 763.817,1168.56 759.834,1766.08 755.852,1163.51 751.87,1056.13 747.887,997.464 743.905,960.449 739.923,936.567 735.94,922.121 731.958,915.29 727.976,915.2 723.993,921.583 720.011,934.696 716.029,955.418 712.047,985.616 708.064,1029.15 704.082,1095.16 700.1,1214.05 696.117,1693.78 692.135,1200.67 688.153,1094.75 684.17,1035.62 680.188,997.192 676.206,971.084 672.224,953.574 668.241,942.731 664.259,937.484 660.277,937.259 656.294,941.816 652.312,951.198 648.33,965.745 644.347,986.193 640.365,1013.91 636.383,1051.45 632.4,1104.13 628.418,1185.55 624.436,1354.86 620.454,1403.55 616.471,1207.85 612.489,1124.74 608.507,1073.67 604.524,1038.57 600.542,1013.38 596.56,995.171 592.577,982.292 588.595,973.755 584.613,968.932 580.631,967.423 576.648,968.983 572.666,973.488 568.684,980.919 564.701,991.359 560.719,1005.01 556.737,1022.23 552.754,1043.61 548.772,1070.09 544.79,1103.26 540.807,1146.01 536.825,1204.34 532.843,1294.19 528.861,1495.63 524.878,1454.32 520.896,1289.74 516.914,1212.64 512.931,1163.52 508.949,1128.6 504.967,1102.45 500.984,1082.32 497.002,1066.66 493.02,1054.48 489.038,1045.12 485.055,1038.1 481.073,1033.11 477.091,1029.87 473.108,1028.19 469.126,1027.92 465.144,1028.93 461.161,1031.12 457.179,1034.41 453.197,1038.74 449.214,1044.05 445.232,1050.29 441.25,1057.44 437.268,1065.46 433.285,1074.34 429.303,1084.05 425.321,1094.6 421.338,1105.97 417.356,1118.18 413.374,1131.22 409.391,1145.12 405.409,1159.89 401.427,1175.56 397.445,1192.17 393.462,1209.75 389.48,1228.36 385.498,1248.07 381.515,1268.94 377.533,1291.07 373.551,1314.57 369.568,1339.56 365.586,1366.2 361.604,1394.68 357.621,1425.24 353.639,1458.15 349.657,1493.79 345.675,1532.59 341.692,1575.16 337.71,1622.27 333.728,1674.98 329.745,1734.77 325.763,1803.82 321.781,1885.51 317.798,1985.51 313.816,2114.45 309.834,2296.19 305.852,2606.88 301.869,10303.4 "/>
<polyline clip-path="url(#clip192)" style="stroke:#e26f46; stroke-linecap:round; stroke-linejoin:round; stroke-width:4; stroke-opacity:1; fill:none" points="2293.02,10343 2289.04,3510.38 2285.06,3199.68 2281.07,3017.95 2277.09,2889.02 2273.11,2789.04 2269.13,2707.38 2265.15,2638.39 2261.16,2578.69 2257.18,2526.12 2253.2,2479.2 2249.22,2436.89 2245.23,2398.41 2241.25,2363.21 2237.27,2330.84 2233.29,2300.96 2229.3,2273.31 2225.32,2247.68 2221.34,2223.9 2217.36,2201.86 2213.38,2181.45 2209.39,2162.61 2205.41,2145.3 2201.43,2129.48 2197.45,2115.16 2193.46,2102.35 2189.48,2091.11 2185.5,2081.51 2181.52,2073.65 2177.53,2067.68 2173.55,2063.81 2169.57,2062.31 2165.59,2063.59 2161.61,2068.19 2157.62,2076.97 2153.64,2091.22 2149.66,2113.19 2145.68,2147.12 2141.69,2202.8 2137.71,2313.43 2133.73,2652.37 2129.75,2251.53 2125.76,2132.53 2121.78,2056.58 2117.8,1999.48 2113.82,1953.24 2109.84,1914.22 2105.85,1880.49 2101.87,1850.86 2097.89,1824.61 2093.91,1801.25 2089.92,1780.45 2085.94,1761.97 2081.96,1745.67 2077.98,1731.46 2073.99,1719.3 2070.01,1709.19 2066.03,1701.18 2062.05,1695.36 2058.07,1691.89 2054.08,1690.99 2050.1,1692.96 2046.12,1698.26 2042.14,1707.55 2038.15,1721.83 2034.17,1742.75 2030.19,1773.19 2026.21,1819.05 2022.22,1895.76 2018.24,2077.39 2014.26,2047.39 2010.28,1865.75 2006.3,1777.15 2002.31,1717.87 1998.33,1673.71 1994.35,1639.19 1990.37,1611.62 1986.38,1589.56 1982.4,1572.16 1978.42,1558.94 1974.44,1549.67 1970.45,1544.33 1966.47,1543.05 1962.49,1546.19 1958.51,1554.38 1954.53,1568.69 1950.54,1590.97 1946.56,1624.68 1942.58,1677.37 1938.6,1771.21 1934.61,2083.18 1930.63,1816.33 1926.65,1681.22 1922.67,1606.87 1918.68,1556.54 1914.7,1519.93 1910.72,1492.74 1906.74,1472.88 1902.76,1459.26 1898.77,1451.39 1894.79,1449.21 1890.81,1453.04 1886.83,1463.73 1882.84,1482.85 1878.86,1513.53 1874.88,1562.49 1870.9,1648.68 1866.91,1889.06 1862.93,1736.68 1858.95,1588.12 1854.97,1511.48 1850.99,1461.62 1847,1426.94 1843.02,1402.83 1839.04,1387.16 1835.06,1378.99 1831.07,1378.13 1827.09,1385.06 1823.11,1401.13 1819.13,1429.16 1815.14,1475.42 1811.16,1557.33 1807.18,1771.85 1803.2,1669.98 1799.22,1512.52 1795.23,1434.76 1791.25,1385.69 1787.27,1352.91 1783.29,1331.68 1779.3,1319.96 1775.32,1317.05 1771.34,1323.27 1767.36,1340.04 1763.37,1370.74 1759.39,1423.39 1755.41,1523.31 1751.43,1967.76 1747.45,1537.17 1743.46,1415.83 1739.48,1349.84 1735.5,1308.07 1731.52,1281.47 1727.53,1266.46 1723.55,1261.75 1719.57,1267.44 1715.59,1285.04 1711.6,1318.55 1707.62,1378.12 1703.64,1500.73 1699.66,1750.52 1695.68,1433.43 1691.69,1332.77 1687.71,1275.39 1683.73,1239.61 1679.75,1218.46 1675.76,1209.31 1671.78,1211.61 1667.8,1226.51 1663.82,1257.68 1659.83,1314.79 1655.85,1432.51 1651.87,1729.34 1647.89,1377.57 1643.91,1274.7 1639.92,1217.11 1635.94,1182.05 1631.96,1162.39 1627.98,1155.63 1623.99,1161.57 1620.01,1182.18 1616.03,1223.25 1612.05,1301.98 1608.07,1516.48 1604.08,1410.8 1600.1,1255.58 1596.12,1181.16 1592.14,1137.21 1588.15,1111.78 1584.17,1100.79 1580.19,1103.34 1576.21,1120.94 1572.22,1158.87 1568.24,1232.89 1564.26,1425.74 1560.28,1365.5 1556.3,1198.72 1552.31,1121.46 1548.33,1076.41 1544.35,1050.77 1540.37,1040.29 1536.38,1044.23 1532.4,1064.64 1528.42,1108.34 1524.44,1197.58 1520.45,1524.76 1516.47,1233.66 1512.49,1104.39 1508.51,1037.74 1504.53,998.603 1500.54,977.631 1496.56,971.918 1492.58,981.805 1488.6,1011.19 1484.61,1072.19 1480.63,1217.31 1476.65,1293.99 1472.67,1074.63 1468.68,985.52 1464.7,934.401 1460.72,904.866 1456.74,891.831 1452.76,894.447 1448.77,915.26 1444.79,963.007 1440.81,1069.9 1436.83,1424.62 1432.84,1017.96 1428.86,908.671 1424.88,847.607 1420.9,810.951 1416.91,791.791 1412.93,788.479 1408.95,802.887 1404.97,842.462 1400.99,933.533 1397,1505.45 1393.02,914.956 1389.04,790.411 1385.06,720.477 1381.07,676.267 1377.09,649.751 1373.11,638.815 1369.13,645.003 1365.14,675.339 1361.16,754.9 1357.18,1211.83 1353.2,723.177 1349.22,582.557 1345.23,495.887 1341.25,432.244 1337.27,382.149 1333.29,341.389 1329.3,307.709 1325.32,279.759 1321.34,256.669 1317.36,237.851 1313.37,222.896 1309.39,211.519 1305.41,203.52 1301.43,198.77 1297.45,197.194 1293.46,198.77 1289.48,203.52 1285.5,211.519 1281.52,222.896 1277.53,237.851 1273.55,256.669 1269.57,279.759 1265.59,307.709 1261.6,341.389 1257.62,382.149 1253.64,432.244 1249.66,495.887 1245.68,582.557 1241.69,723.177 1237.71,1211.83 1233.73,754.9 1229.75,675.339 1225.76,645.003 1221.78,638.815 1217.8,649.751 1213.82,676.267 1209.83,720.477 1205.85,790.411 1201.87,914.956 1197.89,1505.45 1193.91,933.533 1189.92,842.462 1185.94,802.887 1181.96,788.479 1177.98,791.791 1173.99,810.951 1170.01,847.607 1166.03,908.671 1162.05,1017.96 1158.06,1424.62 1154.08,1069.9 1150.1,963.007 1146.12,915.26 1142.14,894.447 1138.15,891.831 1134.17,904.866 1130.19,934.401 1126.21,985.52 1122.22,1074.63 1118.24,1293.99 1114.26,1217.31 1110.28,1072.19 1106.29,1011.19 1102.31,981.805 1098.33,971.918 1094.35,977.631 1090.37,998.603 1086.38,1037.74 1082.4,1104.39 1078.42,1233.66 1074.44,1524.76 1070.45,1197.58 1066.47,1108.34 1062.49,1064.64 1058.51,1044.23 1054.52,1040.29 1050.54,1050.77 1046.56,1076.41 1042.58,1121.46 1038.6,1198.72 1034.61,1365.5 1030.63,1425.74 1026.65,1232.89 1022.67,1158.87 1018.68,1120.94 1014.7,1103.34 1010.72,1100.79 1006.74,1111.78 1002.75,1137.21 998.772,1181.16 994.79,1255.58 990.808,1410.8 986.826,1516.48 982.843,1301.98 978.861,1223.25 974.879,1182.18 970.896,1161.57 966.914,1155.63 962.932,1162.39 958.949,1182.05 954.967,1217.11 950.985,1274.7 947.003,1377.57 943.02,1729.34 939.038,1432.51 935.056,1314.79 931.073,1257.68 927.091,1226.51 923.109,1211.61 919.126,1209.31 915.144,1218.46 911.162,1239.61 907.179,1275.39 903.197,1332.77 899.215,1433.43 895.233,1750.52 891.25,1500.73 887.268,1378.12 883.286,1318.55 879.303,1285.04 875.321,1267.44 871.339,1261.75 867.356,1266.46 863.374,1281.47 859.392,1308.07 855.41,1349.84 851.427,1415.83 847.445,1537.17 843.463,1967.76 839.48,1523.31 835.498,1423.39 831.516,1370.74 827.533,1340.04 823.551,1323.27 819.569,1317.05 815.586,1319.96 811.604,1331.68 807.622,1352.91 803.64,1385.69 799.657,1434.76 795.675,1512.52 791.693,1669.98 787.71,1771.85 783.728,1557.33 779.746,1475.42 775.763,1429.16 771.781,1401.13 767.799,1385.06 763.817,1378.13 759.834,1378.99 755.852,1387.16 751.87,1402.83 747.887,1426.94 743.905,1461.62 739.923,1511.48 735.94,1588.12 731.958,1736.68 727.976,1889.06 723.993,1648.68 720.011,1562.49 716.029,1513.53 712.047,1482.85 708.064,1463.73 704.082,1453.04 700.1,1449.21 696.117,1451.39 692.135,1459.26 688.153,1472.88 684.17,1492.74 680.188,1519.93 676.206,1556.54 672.224,1606.87 668.241,1681.22 664.259,1816.33 660.277,2083.18 656.294,1771.21 652.312,1677.37 648.33,1624.68 644.347,1590.97 640.365,1568.69 636.383,1554.38 632.4,1546.19 628.418,1543.05 624.436,1544.33 620.454,1549.67 616.471,1558.94 612.489,1572.16 608.507,1589.56 604.524,1611.62 600.542,1639.19 596.56,1673.71 592.577,1717.87 588.595,1777.15 584.613,1865.75 580.631,2047.39 576.648,2077.39 572.666,1895.76 568.684,1819.05 564.701,1773.19 560.719,1742.75 556.737,1721.83 552.754,1707.55 548.772,1698.26 544.79,1692.96 540.807,1690.99 536.825,1691.89 532.843,1695.36 528.861,1701.18 524.878,1709.19 520.896,1719.3 516.914,1731.46 512.931,1745.67 508.949,1761.97 504.967,1780.45 500.984,1801.25 497.002,1824.61 493.02,1850.86 489.038,1880.49 485.055,1914.22 481.073,1953.24 477.091,1999.48 473.108,2056.58 469.126,2132.53 465.144,2251.53 461.161,2652.37 457.179,2313.43 453.197,2202.8 449.214,2147.12 445.232,2113.19 441.25,2091.22 437.268,2076.97 433.285,2068.19 429.303,2063.59 425.321,2062.31 421.338,2063.81 417.356,2067.68 413.374,2073.65 409.391,2081.51 405.409,2091.11 401.427,2102.35 397.445,2115.16 393.462,2129.48 389.48,2145.3 385.498,2162.61 381.515,2181.45 377.533,2201.86 373.551,2223.9 369.568,2247.68 365.586,2273.31 361.604,2300.96 357.621,2330.84 353.639,2363.21 349.657,2398.41 345.675,2436.89 341.692,2479.2 337.71,2526.12 333.728,2578.69 329.745,2638.39 325.763,2707.38 321.781,2789.04 317.798,2889.02 313.816,3017.95 309.834,3199.68 305.852,3510.38 301.869,10343 "/>
<polyline clip-path="url(#clip192)" style="stroke:#3da44d; stroke-linecap:round; stroke-linejoin:round; stroke-width:4; stroke-opacity:1; fill:none" points="2293.02,10426.2 2289.04,3411.19 2285.06,3100.5 2281.07,2918.76 2277.09,2789.82 2273.11,2689.82 2269.13,2608.12 2265.15,2539.07 2261.16,2479.28 2257.18,2426.58 2253.2,2379.47 2249.22,2336.9 2245.23,2298.09 2241.25,2262.45 2237.27,2229.53 2233.29,2198.97 2229.3,2170.49 2225.32,2143.84 2221.34,2118.84 2217.36,2095.34 2213.38,2073.2 2209.39,2052.32 2205.41,2032.6 2201.43,2013.97 2197.45,1996.37 2193.46,1979.75 2189.48,1964.05 2185.5,1949.26 2181.52,1935.33 2177.53,1922.26 2173.55,1910.02 2169.57,1898.61 2165.59,1888.03 2161.61,1878.27 2157.62,1869.34 2153.64,1861.27 2149.66,1854.07 2145.68,1847.76 2141.69,1842.38 2137.71,1837.98 2133.73,1834.61 2129.75,1832.34 2125.76,1831.24 2121.78,1831.41 2117.8,1832.99 2113.82,1836.11 2109.84,1840.99 2105.85,1847.87 2101.87,1857.1 2097.89,1869.14 2093.91,1884.65 2089.92,1904.61 2085.94,1930.6 2081.96,1965.33 2077.98,2014.26 2073.99,2091.16 2070.01,2255.53 2066.03,2296.62 2062.05,2094.94 2058.07,2004.84 2054.08,1946.25 2050.1,1903.23 2046.12,1869.77 2042.14,1842.99 2038.15,1821.3 2034.17,1803.74 2030.19,1789.75 2026.21,1778.95 2022.22,1771.14 2018.24,1766.25 2014.26,1764.28 2010.28,1765.36 2006.3,1769.74 2002.31,1777.82 1998.33,1790.22 1994.35,1807.94 1990.37,1832.61 1986.38,1867.17 1982.4,1917.69 1978.42,2000.22 1974.44,2195.33 1970.45,2146.02 1966.47,1976.07 1962.49,1893.99 1958.51,1840.63 1954.53,1802.38 1950.54,1773.94 1946.56,1752.74 1942.58,1737.41 1938.6,1727.23 1934.61,1721.85 1930.63,1721.22 1926.65,1725.59 1922.67,1735.53 1918.68,1752.11 1914.7,1777.27 1910.72,1814.71 1906.74,1872.82 1902.76,1977.71 1898.77,2469.76 1894.79,1988.93 1890.81,1868.92 1886.83,1801.75 1882.84,1757.03 1878.86,1725.62 1874.88,1703.65 1870.9,1689.26 1866.91,1681.57 1862.93,1680.32 1858.95,1685.78 1854.97,1698.82 1850.99,1721.27 1847,1756.81 1843.02,1813.97 1839.04,1919.82 1835.06,2520.82 1831.07,1921.69 1827.09,1804.5 1823.11,1739.16 1819.13,1696.51 1815.14,1667.73 1811.16,1649.15 1807.18,1639.15 1803.2,1637.16 1799.22,1643.48 1795.23,1659.32 1791.25,1687.44 1787.27,1734.07 1783.29,1816.66 1779.3,2032.99 1775.32,1929.68 1771.34,1773.81 1767.36,1697.47 1763.37,1649.97 1759.39,1619.02 1755.41,1599.94 1751.43,1590.81 1747.45,1591.15 1743.46,1601.61 1739.48,1624.35 1735.5,1664.52 1731.52,1735.89 1727.53,1900.04 1723.55,1928.35 1719.57,1732.92 1715.59,1648.04 1711.6,1597.12 1707.62,1564.84 1703.64,1545.79 1699.66,1537.89 1695.68,1540.82 1691.69,1555.8 1687.71,1586.38 1683.73,1641.73 1679.75,1753.44 1675.76,2151.76 1671.78,1717.02 1667.8,1609.05 1663.82,1548.77 1659.83,1511.42 1655.85,1489.39 1651.87,1479.86 1647.89,1482.33 1643.91,1498.18 1639.92,1531.73 1635.94,1594.85 1631.96,1736.24 1627.98,1844.66 1623.99,1611.94 1620.01,1520.71 1616.03,1467.72 1612.05,1435.44 1608.07,1418.09 1604.08,1413.83 1600.1,1423.11 1596.12,1449.04 1592.14,1500.44 1588.15,1608.2 1584.17,2033.93 1580.19,1572.21 1576.21,1462.51 1572.22,1401.81 1568.24,1365.05 1564.26,1344.75 1560.28,1338.52 1556.3,1346.68 1552.31,1372.55 1548.33,1425.94 1544.35,1543.73 1540.37,1787.21 1536.38,1468.83 1532.4,1366.44 1528.42,1308.45 1524.44,1273.45 1520.45,1254.94 1516.47,1251.09 1512.49,1263.01 1508.51,1295.73 1504.53,1364.92 1500.54,1553.52 1496.56,1488 1492.58,1317.29 1488.6,1236.16 1484.61,1187.49 1480.63,1158.61 1476.65,1145.49 1472.67,1147.83 1468.68,1168.72 1464.7,1218.2 1460.72,1335.39 1456.74,1535.75 1452.76,1238.94 1448.77,1134.77 1444.79,1073.8 1440.81,1035.79 1436.83,1014.65 1432.84,1009.06 1428.86,1021.17 1424.88,1058.88 1420.9,1150.57 1416.91,1783.1 1412.93,1108.37 1408.95,983.992 1404.97,911.326 1400.99,863.541 1397,833.02 1393.02,817.783 1389.04,819.438 1385.06,845.061 1381.07,919.881 1377.09,1382.43 1373.11,876.154 1369.13,730.171 1365.14,637.663 1361.16,567.871 1357.18,511.336 1353.2,463.836 1349.22,423.103 1345.23,387.762 1341.25,356.917 1337.27,329.949 1333.29,306.412 1329.3,285.975 1325.32,268.387 1321.34,253.458 1317.36,241.038 1313.37,231.014 1309.39,223.3 1305.41,217.833 1301.43,214.57 1297.45,213.485 1293.46,214.57 1289.48,217.833 1285.5,223.3 1281.52,231.014 1277.53,241.038 1273.55,253.458 1269.57,268.387 1265.59,285.975 1261.6,306.412 1257.62,329.949 1253.64,356.917 1249.66,387.762 1245.68,423.103 1241.69,463.836 1237.71,511.336 1233.73,567.871 1229.75,637.663 1225.76,730.171 1221.78,876.154 1217.8,1382.43 1213.82,919.881 1209.83,845.061 1205.85,819.438 1201.87,817.783 1197.89,833.02 1193.91,863.541 1189.92,911.326 1185.94,983.992 1181.96,1108.37 1177.98,1783.1 1173.99,1150.57 1170.01,1058.88 1166.03,1021.17 1162.05,1009.06 1158.06,1014.65 1154.08,1035.79 1150.1,1073.8 1146.12,1134.77 1142.14,1238.94 1138.15,1535.75 1134.17,1335.39 1130.19,1218.2 1126.21,1168.72 1122.22,1147.83 1118.24,1145.49 1114.26,1158.61 1110.28,1187.49 1106.29,1236.16 1102.31,1317.29 1098.33,1488 1094.35,1553.52 1090.37,1364.92 1086.38,1295.73 1082.4,1263.01 1078.42,1251.09 1074.44,1254.94 1070.45,1273.45 1066.47,1308.45 1062.49,1366.44 1058.51,1468.83 1054.52,1787.21 1050.54,1543.73 1046.56,1425.94 1042.58,1372.55 1038.6,1346.68 1034.61,1338.52 1030.63,1344.75 1026.65,1365.05 1022.67,1401.81 1018.68,1462.51 1014.7,1572.21 1010.72,2033.93 1006.74,1608.2 1002.75,1500.44 998.772,1449.04 994.79,1423.11 990.808,1413.83 986.826,1418.09 982.843,1435.44 978.861,1467.72 974.879,1520.71 970.896,1611.94 966.914,1844.66 962.932,1736.24 958.949,1594.85 954.967,1531.73 950.985,1498.18 947.003,1482.33 943.02,1479.86 939.038,1489.39 935.056,1511.42 931.073,1548.77 927.091,1609.05 923.109,1717.02 919.126,2151.76 915.144,1753.44 911.162,1641.73 907.179,1586.38 903.197,1555.8 899.215,1540.82 895.233,1537.89 891.25,1545.79 887.268,1564.84 883.286,1597.12 879.303,1648.04 875.321,1732.92 871.339,1928.35 867.356,1900.04 863.374,1735.89 859.392,1664.52 855.41,1624.35 851.427,1601.61 847.445,1591.15 843.463,1590.81 839.48,1599.94 835.498,1619.02 831.516,1649.97 827.533,1697.47 823.551,1773.81 819.569,1929.68 815.586,2032.99 811.604,1816.66 807.622,1734.07 803.64,1687.44 799.657,1659.32 795.675,1643.48 791.693,1637.16 787.71,1639.15 783.728,1649.15 779.746,1667.73 775.763,1696.51 771.781,1739.16 767.799,1804.5 763.817,1921.69 759.834,2520.82 755.852,1919.82 751.87,1813.97 747.887,1756.81 743.905,1721.27 739.923,1698.82 735.94,1685.78 731.958,1680.32 727.976,1681.57 723.993,1689.26 720.011,1703.65 716.029,1725.62 712.047,1757.03 708.064,1801.75 704.082,1868.92 700.1,1988.93 696.117,2469.76 692.135,1977.71 688.153,1872.82 684.17,1814.71 680.188,1777.27 676.206,1752.11 672.224,1735.53 668.241,1725.59 664.259,1721.22 660.277,1721.85 656.294,1727.23 652.312,1737.41 648.33,1752.74 644.347,1773.94 640.365,1802.38 636.383,1840.63 632.4,1893.99 628.418,1976.07 624.436,2146.02 620.454,2195.33 616.471,2000.22 612.489,1917.69 608.507,1867.17 604.524,1832.61 600.542,1807.94 596.56,1790.22 592.577,1777.82 588.595,1769.74 584.613,1765.36 580.631,1764.28 576.648,1766.25 572.666,1771.14 568.684,1778.95 564.701,1789.75 560.719,1803.74 556.737,1821.3 552.754,1842.99 548.772,1869.77 544.79,1903.23 540.807,1946.25 536.825,2004.84 532.843,2094.94 528.861,2296.62 524.878,2255.53 520.896,2091.16 516.914,2014.26 512.931,1965.33 508.949,1930.6 504.967,1904.61 500.984,1884.65 497.002,1869.14 493.02,1857.1 489.038,1847.87 485.055,1840.99 481.073,1836.11 477.091,1832.99 473.108,1831.41 469.126,1831.24 465.144,1832.34 461.161,1834.61 457.179,1837.98 453.197,1842.38 449.214,1847.76 445.232,1854.07 441.25,1861.27 437.268,1869.34 433.285,1878.27 429.303,1888.03 425.321,1898.61 421.338,1910.02 417.356,1922.26 413.374,1935.33 409.391,1949.26 405.409,1964.05 401.427,1979.75 397.445,1996.37 393.462,2013.97 389.48,2032.6 385.498,2052.32 381.515,2073.2 377.533,2095.34 373.551,2118.84 369.568,2143.84 365.586,2170.49 361.604,2198.97 357.621,2229.53 353.639,2262.45 349.657,2298.09 345.675,2336.9 341.692,2379.47 337.71,2426.58 333.728,2479.28 329.745,2539.07 325.763,2608.12 321.781,2689.82 317.798,2789.82 313.816,2918.76 309.834,3100.5 305.852,3411.19 301.869,10426.2 "/>
<path clip-path="url(#clip190)" d="M1648.03 374.156 L2282.4 374.156 L2282.4 166.796 L1648.03 166.796  Z" fill="#ffffff" fill-rule="evenodd" fill-opacity="1"/>
<polyline clip-path="url(#clip190)" style="stroke:#000000; stroke-linecap:round; stroke-linejoin:round; stroke-width:4; stroke-opacity:1; fill:none" points="1648.03,374.156 2282.4,374.156 2282.4,166.796 1648.03,166.796 1648.03,374.156 "/>
<polyline clip-path="url(#clip190)" style="stroke:#009af9; stroke-linecap:round; stroke-linejoin:round; stroke-width:4; stroke-opacity:1; fill:none" points="1671.48,218.636 1812.19,218.636 "/>
<path clip-path="url(#clip190)" d="M1835.64 201.356 L1864.88 201.356 L1864.88 205.291 L1852.61 205.291 L1852.61 235.916 L1847.91 235.916 L1847.91 205.291 L1835.64 205.291 L1835.64 201.356 Z" fill="#000000" fill-rule="nonzero" fill-opacity="1" /><path clip-path="url(#clip190)" d="M1873.14 222.883 Q1867.98 222.883 1865.99 224.064 Q1864 225.244 1864 228.092 Q1864 230.36 1865.48 231.703 Q1866.99 233.022 1869.55 233.022 Q1873.1 233.022 1875.23 230.522 Q1877.38 227.999 1877.38 223.832 L1877.38 222.883 L1873.14 222.883 M1881.64 221.124 L1881.64 235.916 L1877.38 235.916 L1877.38 231.981 Q1875.92 234.342 1873.74 235.476 Q1871.57 236.587 1868.42 236.587 Q1864.44 236.587 1862.08 234.365 Q1859.74 232.119 1859.74 228.369 Q1859.74 223.994 1862.66 221.772 Q1865.6 219.55 1871.41 219.55 L1877.38 219.55 L1877.38 219.133 Q1877.38 216.194 1875.43 214.596 Q1873.51 212.976 1870.02 212.976 Q1867.8 212.976 1865.69 213.508 Q1863.58 214.041 1861.64 215.106 L1861.64 211.17 Q1863.98 210.268 1866.17 209.828 Q1868.37 209.365 1870.46 209.365 Q1876.08 209.365 1878.86 212.282 Q1881.64 215.198 1881.64 221.124 Z" fill="#000000" fill-rule="nonzero" fill-opacity="1" /><path clip-path="url(#clip190)" d="M1901.2 238.323 Q1899.39 242.953 1897.68 244.365 Q1895.97 245.777 1893.1 245.777 L1889.69 245.777 L1889.69 242.212 L1892.19 242.212 Q1893.95 242.212 1894.92 241.379 Q1895.9 240.545 1897.08 237.443 L1897.84 235.499 L1887.36 209.99 L1891.87 209.99 L1899.97 230.268 L1908.07 209.99 L1912.59 209.99 L1901.2 238.323 Z" fill="#000000" fill-rule="nonzero" fill-opacity="1" /><path clip-path="url(#clip190)" d="M1918.47 199.897 L1922.73 199.897 L1922.73 235.916 L1918.47 235.916 L1918.47 199.897 Z" fill="#000000" fill-rule="nonzero" fill-opacity="1" /><path clip-path="url(#clip190)" d="M1941.68 212.976 Q1938.26 212.976 1936.27 215.661 Q1934.28 218.323 1934.28 222.976 Q1934.28 227.629 1936.24 230.314 Q1938.23 232.976 1941.68 232.976 Q1945.09 232.976 1947.08 230.291 Q1949.07 227.606 1949.07 222.976 Q1949.07 218.37 1947.08 215.684 Q1945.09 212.976 1941.68 212.976 M1941.68 209.365 Q1947.24 209.365 1950.41 212.976 Q1953.58 216.587 1953.58 222.976 Q1953.58 229.342 1950.41 232.976 Q1947.24 236.587 1941.68 236.587 Q1936.11 236.587 1932.93 232.976 Q1929.79 229.342 1929.79 222.976 Q1929.79 216.587 1932.93 212.976 Q1936.11 209.365 1941.68 209.365 Z" fill="#000000" fill-rule="nonzero" fill-opacity="1" /><path clip-path="url(#clip190)" d="M1975.66 213.971 Q1974.95 213.555 1974.09 213.37 Q1973.26 213.161 1972.24 213.161 Q1968.63 213.161 1966.68 215.522 Q1964.76 217.86 1964.76 222.258 L1964.76 235.916 L1960.48 235.916 L1960.48 209.99 L1964.76 209.99 L1964.76 214.018 Q1966.1 211.657 1968.26 210.522 Q1970.41 209.365 1973.49 209.365 Q1973.93 209.365 1974.46 209.434 Q1974.99 209.481 1975.64 209.596 L1975.66 213.971 Z" fill="#000000" fill-rule="nonzero" fill-opacity="1" /><path clip-path="url(#clip190)" d="M1992.73 209.99 L1996.98 209.99 L2002.31 230.221 L2007.61 209.99 L2012.63 209.99 L2017.96 230.221 L2023.26 209.99 L2027.52 209.99 L2020.73 235.916 L2015.71 235.916 L2010.13 214.666 L2004.53 235.916 L1999.51 235.916 L1992.73 209.99 Z" fill="#000000" fill-rule="nonzero" fill-opacity="1" /><path clip-path="url(#clip190)" d="M2056.15 221.888 L2056.15 223.971 L2036.57 223.971 Q2036.85 228.369 2039.21 230.684 Q2041.59 232.976 2045.83 232.976 Q2048.28 232.976 2050.57 232.374 Q2052.89 231.772 2055.16 230.569 L2055.16 234.596 Q2052.86 235.568 2050.46 236.078 Q2048.05 236.587 2045.57 236.587 Q2039.37 236.587 2035.73 232.976 Q2032.12 229.365 2032.12 223.207 Q2032.12 216.842 2035.55 213.115 Q2039 209.365 2044.83 209.365 Q2050.06 209.365 2053.1 212.745 Q2056.15 216.101 2056.15 221.888 M2051.89 220.638 Q2051.85 217.143 2049.92 215.059 Q2048.03 212.976 2044.88 212.976 Q2041.31 212.976 2039.16 214.99 Q2037.03 217.004 2036.71 220.661 L2051.89 220.638 Z" fill="#000000" fill-rule="nonzero" fill-opacity="1" /><path clip-path="url(#clip190)" d="M2063.14 209.99 L2067.4 209.99 L2067.4 235.916 L2063.14 235.916 L2063.14 209.99 M2063.14 199.897 L2067.4 199.897 L2067.4 205.291 L2063.14 205.291 L2063.14 199.897 Z" fill="#000000" fill-rule="nonzero" fill-opacity="1" /><path clip-path="url(#clip190)" d="M2093.37 222.652 Q2093.37 218.022 2091.45 215.476 Q2089.55 212.93 2086.1 212.93 Q2082.68 212.93 2080.76 215.476 Q2078.86 218.022 2078.86 222.652 Q2078.86 227.258 2080.76 229.805 Q2082.68 232.351 2086.1 232.351 Q2089.55 232.351 2091.45 229.805 Q2093.37 227.258 2093.37 222.652 M2097.63 232.698 Q2097.63 239.318 2094.69 242.536 Q2091.75 245.777 2085.69 245.777 Q2083.44 245.777 2081.45 245.43 Q2079.46 245.105 2077.59 244.411 L2077.59 240.268 Q2079.46 241.286 2081.29 241.772 Q2083.12 242.258 2085.02 242.258 Q2089.21 242.258 2091.29 240.059 Q2093.37 237.883 2093.37 233.462 L2093.37 231.356 Q2092.05 233.647 2089.99 234.781 Q2087.93 235.916 2085.06 235.916 Q2080.29 235.916 2077.38 232.281 Q2074.46 228.647 2074.46 222.652 Q2074.46 216.633 2077.38 212.999 Q2080.29 209.365 2085.06 209.365 Q2087.93 209.365 2089.99 210.499 Q2092.05 211.633 2093.37 213.925 L2093.37 209.99 L2097.63 209.99 L2097.63 232.698 Z" fill="#000000" fill-rule="nonzero" fill-opacity="1" /><path clip-path="url(#clip190)" d="M2127.96 220.268 L2127.96 235.916 L2123.7 235.916 L2123.7 220.407 Q2123.7 216.726 2122.26 214.897 Q2120.83 213.069 2117.96 213.069 Q2114.51 213.069 2112.52 215.268 Q2110.53 217.467 2110.53 221.263 L2110.53 235.916 L2106.24 235.916 L2106.24 199.897 L2110.53 199.897 L2110.53 214.018 Q2112.05 211.68 2114.11 210.522 Q2116.2 209.365 2118.9 209.365 Q2123.37 209.365 2125.66 212.143 Q2127.96 214.897 2127.96 220.268 Z" fill="#000000" fill-rule="nonzero" fill-opacity="1" /><path clip-path="url(#clip190)" d="M2140.66 202.629 L2140.66 209.99 L2149.44 209.99 L2149.44 213.3 L2140.66 213.3 L2140.66 227.374 Q2140.66 230.545 2141.52 231.448 Q2142.4 232.351 2145.06 232.351 L2149.44 232.351 L2149.44 235.916 L2145.06 235.916 Q2140.13 235.916 2138.26 234.087 Q2136.38 232.235 2136.38 227.374 L2136.38 213.3 L2133.26 213.3 L2133.26 209.99 L2136.38 209.99 L2136.38 202.629 L2140.66 202.629 Z" fill="#000000" fill-rule="nonzero" fill-opacity="1" /><path clip-path="url(#clip190)" d="M2177.21 221.888 L2177.21 223.971 L2157.63 223.971 Q2157.91 228.369 2160.27 230.684 Q2162.65 232.976 2166.89 232.976 Q2169.34 232.976 2171.64 232.374 Q2173.95 231.772 2176.22 230.569 L2176.22 234.596 Q2173.93 235.568 2171.52 236.078 Q2169.11 236.587 2166.64 236.587 Q2160.43 236.587 2156.8 232.976 Q2153.19 229.365 2153.19 223.207 Q2153.19 216.842 2156.61 213.115 Q2160.06 209.365 2165.9 209.365 Q2171.13 209.365 2174.16 212.745 Q2177.21 216.101 2177.21 221.888 M2172.96 220.638 Q2172.91 217.143 2170.99 215.059 Q2169.09 212.976 2165.94 212.976 Q2162.38 212.976 2160.22 214.99 Q2158.09 217.004 2157.77 220.661 L2172.96 220.638 Z" fill="#000000" fill-rule="nonzero" fill-opacity="1" /><path clip-path="url(#clip190)" d="M2201.27 213.925 L2201.27 199.897 L2205.52 199.897 L2205.52 235.916 L2201.27 235.916 L2201.27 232.027 Q2199.92 234.342 2197.86 235.476 Q2195.83 236.587 2192.96 236.587 Q2188.26 236.587 2185.29 232.837 Q2182.35 229.087 2182.35 222.976 Q2182.35 216.865 2185.29 213.115 Q2188.26 209.365 2192.96 209.365 Q2195.83 209.365 2197.86 210.499 Q2199.92 211.61 2201.27 213.925 M2186.75 222.976 Q2186.75 227.675 2188.67 230.36 Q2190.62 233.022 2194 233.022 Q2197.38 233.022 2199.32 230.36 Q2201.27 227.675 2201.27 222.976 Q2201.27 218.277 2199.32 215.615 Q2197.38 212.93 2194 212.93 Q2190.62 212.93 2188.67 215.615 Q2186.75 218.277 2186.75 222.976 Z" fill="#000000" fill-rule="nonzero" fill-opacity="1" /><polyline clip-path="url(#clip190)" style="stroke:#e26f46; stroke-linecap:round; stroke-linejoin:round; stroke-width:4; stroke-opacity:1; fill:none" points="1671.48,270.476 1812.19,270.476 "/>
<path clip-path="url(#clip190)" d="M1863.51 255.858 L1863.51 260.788 Q1861.15 258.589 1858.47 257.501 Q1855.8 256.413 1852.8 256.413 Q1846.87 256.413 1843.72 260.048 Q1840.57 263.659 1840.57 270.51 Q1840.57 277.339 1843.72 280.973 Q1846.87 284.584 1852.8 284.584 Q1855.8 284.584 1858.47 283.496 Q1861.15 282.409 1863.51 280.209 L1863.51 285.094 Q1861.06 286.76 1858.3 287.594 Q1855.57 288.427 1852.52 288.427 Q1844.67 288.427 1840.16 283.635 Q1835.64 278.821 1835.64 270.51 Q1835.64 262.177 1840.16 257.386 Q1844.67 252.571 1852.52 252.571 Q1855.62 252.571 1858.35 253.404 Q1861.11 254.214 1863.51 255.858 Z" fill="#000000" fill-rule="nonzero" fill-opacity="1" /><path clip-path="url(#clip190)" d="M1880.6 264.816 Q1877.17 264.816 1875.18 267.501 Q1873.19 270.163 1873.19 274.816 Q1873.19 279.469 1875.16 282.154 Q1877.15 284.816 1880.6 284.816 Q1884 284.816 1885.99 282.131 Q1887.98 279.446 1887.98 274.816 Q1887.98 270.21 1885.99 267.524 Q1884 264.816 1880.6 264.816 M1880.6 261.205 Q1886.15 261.205 1889.32 264.816 Q1892.49 268.427 1892.49 274.816 Q1892.49 281.182 1889.32 284.816 Q1886.15 288.427 1880.6 288.427 Q1875.02 288.427 1871.85 284.816 Q1868.7 281.182 1868.7 274.816 Q1868.7 268.427 1871.85 264.816 Q1875.02 261.205 1880.6 261.205 Z" fill="#000000" fill-rule="nonzero" fill-opacity="1" /><path clip-path="url(#clip190)" d="M1916.08 262.594 L1916.08 266.622 Q1914.28 265.696 1912.33 265.233 Q1910.39 264.77 1908.3 264.77 Q1905.13 264.77 1903.54 265.742 Q1901.96 266.714 1901.96 268.659 Q1901.96 270.14 1903.1 270.997 Q1904.23 271.83 1907.66 272.594 L1909.11 272.918 Q1913.65 273.89 1915.55 275.672 Q1917.47 277.432 1917.47 280.603 Q1917.47 284.214 1914.6 286.321 Q1911.75 288.427 1906.75 288.427 Q1904.67 288.427 1902.4 288.01 Q1900.16 287.617 1897.66 286.807 L1897.66 282.409 Q1900.02 283.635 1902.31 284.26 Q1904.6 284.862 1906.85 284.862 Q1909.86 284.862 1911.48 283.844 Q1913.1 282.802 1913.1 280.927 Q1913.1 279.191 1911.92 278.265 Q1910.76 277.339 1906.8 276.483 L1905.32 276.135 Q1901.36 275.302 1899.6 273.589 Q1897.84 271.853 1897.84 268.844 Q1897.84 265.186 1900.43 263.196 Q1903.03 261.205 1907.79 261.205 Q1910.16 261.205 1912.24 261.552 Q1914.32 261.899 1916.08 262.594 Z" fill="#000000" fill-rule="nonzero" fill-opacity="1" /><path clip-path="url(#clip190)" d="M1924.25 261.83 L1928.51 261.83 L1928.51 287.756 L1924.25 287.756 L1924.25 261.83 M1924.25 251.737 L1928.51 251.737 L1928.51 257.131 L1924.25 257.131 L1924.25 251.737 Z" fill="#000000" fill-rule="nonzero" fill-opacity="1" /><path clip-path="url(#clip190)" d="M1958.98 272.108 L1958.98 287.756 L1954.72 287.756 L1954.72 272.247 Q1954.72 268.566 1953.28 266.737 Q1951.85 264.909 1948.98 264.909 Q1945.53 264.909 1943.54 267.108 Q1941.54 269.307 1941.54 273.103 L1941.54 287.756 L1937.26 287.756 L1937.26 261.83 L1941.54 261.83 L1941.54 265.858 Q1943.07 263.52 1945.13 262.362 Q1947.22 261.205 1949.92 261.205 Q1954.39 261.205 1956.68 263.983 Q1958.98 266.737 1958.98 272.108 Z" fill="#000000" fill-rule="nonzero" fill-opacity="1" /><path clip-path="url(#clip190)" d="M1989.65 273.728 L1989.65 275.811 L1970.06 275.811 Q1970.34 280.209 1972.7 282.524 Q1975.09 284.816 1979.32 284.816 Q1981.78 284.816 1984.07 284.214 Q1986.38 283.612 1988.65 282.409 L1988.65 286.436 Q1986.36 287.408 1983.95 287.918 Q1981.54 288.427 1979.07 288.427 Q1972.86 288.427 1969.23 284.816 Q1965.62 281.205 1965.62 275.047 Q1965.62 268.682 1969.04 264.955 Q1972.49 261.205 1978.33 261.205 Q1983.56 261.205 1986.59 264.585 Q1989.65 267.941 1989.65 273.728 M1985.39 272.478 Q1985.34 268.983 1983.42 266.899 Q1981.52 264.816 1978.37 264.816 Q1974.81 264.816 1972.66 266.83 Q1970.53 268.844 1970.2 272.501 L1985.39 272.478 Z" fill="#000000" fill-rule="nonzero" fill-opacity="1" /><path clip-path="url(#clip190)" d="M2009.23 261.83 L2013.49 261.83 L2018.81 282.061 L2024.11 261.83 L2029.14 261.83 L2034.46 282.061 L2039.76 261.83 L2044.02 261.83 L2037.24 287.756 L2032.22 287.756 L2026.64 266.506 L2021.04 287.756 L2016.01 287.756 L2009.23 261.83 Z" fill="#000000" fill-rule="nonzero" fill-opacity="1" /><path clip-path="url(#clip190)" d="M2072.66 273.728 L2072.66 275.811 L2053.07 275.811 Q2053.35 280.209 2055.71 282.524 Q2058.1 284.816 2062.33 284.816 Q2064.78 284.816 2067.08 284.214 Q2069.39 283.612 2071.66 282.409 L2071.66 286.436 Q2069.37 287.408 2066.96 287.918 Q2064.55 288.427 2062.08 288.427 Q2055.87 288.427 2052.24 284.816 Q2048.63 281.205 2048.63 275.047 Q2048.63 268.682 2052.05 264.955 Q2055.5 261.205 2061.34 261.205 Q2066.57 261.205 2069.6 264.585 Q2072.66 267.941 2072.66 273.728 M2068.4 272.478 Q2068.35 268.983 2066.43 266.899 Q2064.53 264.816 2061.38 264.816 Q2057.82 264.816 2055.66 266.83 Q2053.53 268.844 2053.21 272.501 L2068.4 272.478 Z" fill="#000000" fill-rule="nonzero" fill-opacity="1" /><path clip-path="url(#clip190)" d="M2079.65 261.83 L2083.91 261.83 L2083.91 287.756 L2079.65 287.756 L2079.65 261.83 M2079.65 251.737 L2083.91 251.737 L2083.91 257.131 L2079.65 257.131 L2079.65 251.737 Z" fill="#000000" fill-rule="nonzero" fill-opacity="1" /><path clip-path="url(#clip190)" d="M2109.88 274.492 Q2109.88 269.862 2107.96 267.316 Q2106.06 264.77 2102.61 264.77 Q2099.18 264.77 2097.26 267.316 Q2095.36 269.862 2095.36 274.492 Q2095.36 279.098 2097.26 281.645 Q2099.18 284.191 2102.61 284.191 Q2106.06 284.191 2107.96 281.645 Q2109.88 279.098 2109.88 274.492 M2114.14 284.538 Q2114.14 291.158 2111.2 294.376 Q2108.26 297.617 2102.19 297.617 Q2099.95 297.617 2097.96 297.27 Q2095.97 296.945 2094.09 296.251 L2094.09 292.108 Q2095.97 293.126 2097.79 293.612 Q2099.62 294.098 2101.52 294.098 Q2105.71 294.098 2107.79 291.899 Q2109.88 289.723 2109.88 285.302 L2109.88 283.196 Q2108.56 285.487 2106.5 286.621 Q2104.44 287.756 2101.57 287.756 Q2096.8 287.756 2093.88 284.121 Q2090.97 280.487 2090.97 274.492 Q2090.97 268.473 2093.88 264.839 Q2096.8 261.205 2101.57 261.205 Q2104.44 261.205 2106.5 262.339 Q2108.56 263.473 2109.88 265.765 L2109.88 261.83 L2114.14 261.83 L2114.14 284.538 Z" fill="#000000" fill-rule="nonzero" fill-opacity="1" /><path clip-path="url(#clip190)" d="M2144.46 272.108 L2144.46 287.756 L2140.2 287.756 L2140.2 272.247 Q2140.2 268.566 2138.77 266.737 Q2137.33 264.909 2134.46 264.909 Q2131.01 264.909 2129.02 267.108 Q2127.03 269.307 2127.03 273.103 L2127.03 287.756 L2122.75 287.756 L2122.75 251.737 L2127.03 251.737 L2127.03 265.858 Q2128.56 263.52 2130.62 262.362 Q2132.7 261.205 2135.41 261.205 Q2139.88 261.205 2142.17 263.983 Q2144.46 266.737 2144.46 272.108 Z" fill="#000000" fill-rule="nonzero" fill-opacity="1" /><path clip-path="url(#clip190)" d="M2157.17 254.469 L2157.17 261.83 L2165.94 261.83 L2165.94 265.14 L2157.17 265.14 L2157.17 279.214 Q2157.17 282.385 2158.03 283.288 Q2158.9 284.191 2161.57 284.191 L2165.94 284.191 L2165.94 287.756 L2161.57 287.756 Q2156.64 287.756 2154.76 285.927 Q2152.89 284.075 2152.89 279.214 L2152.89 265.14 L2149.76 265.14 L2149.76 261.83 L2152.89 261.83 L2152.89 254.469 L2157.17 254.469 Z" fill="#000000" fill-rule="nonzero" fill-opacity="1" /><path clip-path="url(#clip190)" d="M2193.72 273.728 L2193.72 275.811 L2174.14 275.811 Q2174.41 280.209 2176.78 282.524 Q2179.16 284.816 2183.4 284.816 Q2185.85 284.816 2188.14 284.214 Q2190.46 283.612 2192.72 282.409 L2192.72 286.436 Q2190.43 287.408 2188.02 287.918 Q2185.62 288.427 2183.14 288.427 Q2176.94 288.427 2173.3 284.816 Q2169.69 281.205 2169.69 275.047 Q2169.69 268.682 2173.12 264.955 Q2176.57 261.205 2182.4 261.205 Q2187.63 261.205 2190.66 264.585 Q2193.72 267.941 2193.72 273.728 M2189.46 272.478 Q2189.41 268.983 2187.49 266.899 Q2185.59 264.816 2182.45 264.816 Q2178.88 264.816 2176.73 266.83 Q2174.6 268.844 2174.28 272.501 L2189.46 272.478 Z" fill="#000000" fill-rule="nonzero" fill-opacity="1" /><path clip-path="url(#clip190)" d="M2217.77 265.765 L2217.77 251.737 L2222.03 251.737 L2222.03 287.756 L2217.77 287.756 L2217.77 283.867 Q2216.43 286.182 2214.37 287.316 Q2212.33 288.427 2209.46 288.427 Q2204.76 288.427 2201.8 284.677 Q2198.86 280.927 2198.86 274.816 Q2198.86 268.705 2201.8 264.955 Q2204.76 261.205 2209.46 261.205 Q2212.33 261.205 2214.37 262.339 Q2216.43 263.45 2217.77 265.765 M2203.26 274.816 Q2203.26 279.515 2205.18 282.2 Q2207.12 284.862 2210.5 284.862 Q2213.88 284.862 2215.83 282.2 Q2217.77 279.515 2217.77 274.816 Q2217.77 270.117 2215.83 267.455 Q2213.88 264.77 2210.5 264.77 Q2207.12 264.77 2205.18 267.455 Q2203.26 270.117 2203.26 274.816 Z" fill="#000000" fill-rule="nonzero" fill-opacity="1" /><polyline clip-path="url(#clip190)" style="stroke:#3da44d; stroke-linecap:round; stroke-linejoin:round; stroke-width:4; stroke-opacity:1; fill:none" points="1671.48,322.316 1812.19,322.316 "/>
<path clip-path="url(#clip190)" d="M1835.64 305.036 L1840.32 305.036 L1840.32 319.202 L1857.31 319.202 L1857.31 305.036 L1861.99 305.036 L1861.99 339.596 L1857.31 339.596 L1857.31 323.137 L1840.32 323.137 L1840.32 339.596 L1835.64 339.596 L1835.64 305.036 Z" fill="#000000" fill-rule="nonzero" fill-opacity="1" /><path clip-path="url(#clip190)" d="M1882.89 326.563 Q1877.73 326.563 1875.73 327.744 Q1873.74 328.924 1873.74 331.772 Q1873.74 334.04 1875.23 335.383 Q1876.73 336.702 1879.3 336.702 Q1882.84 336.702 1884.97 334.202 Q1887.12 331.679 1887.12 327.512 L1887.12 326.563 L1882.89 326.563 M1891.38 324.804 L1891.38 339.596 L1887.12 339.596 L1887.12 335.661 Q1885.67 338.022 1883.49 339.156 Q1881.31 340.267 1878.17 340.267 Q1874.18 340.267 1871.82 338.045 Q1869.49 335.799 1869.49 332.049 Q1869.49 327.674 1872.4 325.452 Q1875.34 323.23 1881.15 323.23 L1887.12 323.23 L1887.12 322.813 Q1887.12 319.874 1885.18 318.276 Q1883.26 316.656 1879.76 316.656 Q1877.54 316.656 1875.43 317.188 Q1873.33 317.721 1871.38 318.786 L1871.38 314.85 Q1873.72 313.948 1875.92 313.508 Q1878.12 313.045 1880.2 313.045 Q1885.83 313.045 1888.61 315.962 Q1891.38 318.878 1891.38 324.804 Z" fill="#000000" fill-rule="nonzero" fill-opacity="1" /><path clip-path="url(#clip190)" d="M1921.71 323.948 L1921.71 339.596 L1917.45 339.596 L1917.45 324.087 Q1917.45 320.406 1916.01 318.577 Q1914.58 316.749 1911.71 316.749 Q1908.26 316.749 1906.27 318.948 Q1904.28 321.147 1904.28 324.943 L1904.28 339.596 L1899.99 339.596 L1899.99 313.67 L1904.28 313.67 L1904.28 317.698 Q1905.8 315.36 1907.86 314.202 Q1909.95 313.045 1912.66 313.045 Q1917.12 313.045 1919.42 315.823 Q1921.71 318.577 1921.71 323.948 Z" fill="#000000" fill-rule="nonzero" fill-opacity="1" /><path clip-path="url(#clip190)" d="M1951.75 323.948 L1951.75 339.596 L1947.49 339.596 L1947.49 324.087 Q1947.49 320.406 1946.06 318.577 Q1944.62 316.749 1941.75 316.749 Q1938.3 316.749 1936.31 318.948 Q1934.32 321.147 1934.32 324.943 L1934.32 339.596 L1930.04 339.596 L1930.04 313.67 L1934.32 313.67 L1934.32 317.698 Q1935.85 315.36 1937.91 314.202 Q1939.99 313.045 1942.7 313.045 Q1947.17 313.045 1949.46 315.823 Q1951.75 318.577 1951.75 323.948 Z" fill="#000000" fill-rule="nonzero" fill-opacity="1" /><path clip-path="url(#clip190)" d="M1960.25 313.67 L1964.51 313.67 L1964.51 339.596 L1960.25 339.596 L1960.25 313.67 M1960.25 303.577 L1964.51 303.577 L1964.51 308.971 L1960.25 308.971 L1960.25 303.577 Z" fill="#000000" fill-rule="nonzero" fill-opacity="1" /><path clip-path="url(#clip190)" d="M1994.97 323.948 L1994.97 339.596 L1990.71 339.596 L1990.71 324.087 Q1990.71 320.406 1989.28 318.577 Q1987.84 316.749 1984.97 316.749 Q1981.52 316.749 1979.53 318.948 Q1977.54 321.147 1977.54 324.943 L1977.54 339.596 L1973.26 339.596 L1973.26 313.67 L1977.54 313.67 L1977.54 317.698 Q1979.07 315.36 1981.13 314.202 Q1983.21 313.045 1985.92 313.045 Q1990.39 313.045 1992.68 315.823 Q1994.97 318.577 1994.97 323.948 Z" fill="#000000" fill-rule="nonzero" fill-opacity="1" /><path clip-path="url(#clip190)" d="M2020.53 326.332 Q2020.53 321.702 2018.6 319.156 Q2016.71 316.61 2013.26 316.61 Q2009.83 316.61 2007.91 319.156 Q2006.01 321.702 2006.01 326.332 Q2006.01 330.938 2007.91 333.485 Q2009.83 336.031 2013.26 336.031 Q2016.71 336.031 2018.6 333.485 Q2020.53 330.938 2020.53 326.332 M2024.79 336.378 Q2024.79 342.998 2021.85 346.216 Q2018.91 349.457 2012.84 349.457 Q2010.6 349.457 2008.6 349.11 Q2006.61 348.785 2004.74 348.091 L2004.74 343.948 Q2006.61 344.966 2008.44 345.452 Q2010.27 345.938 2012.17 345.938 Q2016.36 345.938 2018.44 343.739 Q2020.53 341.563 2020.53 337.142 L2020.53 335.036 Q2019.21 337.327 2017.15 338.461 Q2015.09 339.596 2012.22 339.596 Q2007.45 339.596 2004.53 335.961 Q2001.61 332.327 2001.61 326.332 Q2001.61 320.313 2004.53 316.679 Q2007.45 313.045 2012.22 313.045 Q2015.09 313.045 2017.15 314.179 Q2019.21 315.313 2020.53 317.605 L2020.53 313.67 L2024.79 313.67 L2024.79 336.378 Z" fill="#000000" fill-rule="nonzero" fill-opacity="1" /><path clip-path="url(#clip190)" d="M2046.15 313.67 L2050.41 313.67 L2055.73 333.901 L2061.03 313.67 L2066.06 313.67 L2071.38 333.901 L2076.68 313.67 L2080.94 313.67 L2074.16 339.596 L2069.14 339.596 L2063.56 318.346 L2057.96 339.596 L2052.93 339.596 L2046.15 313.67 Z" fill="#000000" fill-rule="nonzero" fill-opacity="1" /><path clip-path="url(#clip190)" d="M2109.58 325.568 L2109.58 327.651 L2089.99 327.651 Q2090.27 332.049 2092.63 334.364 Q2095.02 336.656 2099.25 336.656 Q2101.71 336.656 2104 336.054 Q2106.31 335.452 2108.58 334.249 L2108.58 338.276 Q2106.29 339.248 2103.88 339.758 Q2101.47 340.267 2099 340.267 Q2092.79 340.267 2089.16 336.656 Q2085.55 333.045 2085.55 326.887 Q2085.55 320.522 2088.97 316.795 Q2092.42 313.045 2098.26 313.045 Q2103.49 313.045 2106.52 316.425 Q2109.58 319.781 2109.58 325.568 M2105.32 324.318 Q2105.27 320.823 2103.35 318.739 Q2101.45 316.656 2098.3 316.656 Q2094.74 316.656 2092.59 318.67 Q2090.46 320.684 2090.13 324.341 L2105.32 324.318 Z" fill="#000000" fill-rule="nonzero" fill-opacity="1" /><path clip-path="url(#clip190)" d="M2116.57 313.67 L2120.83 313.67 L2120.83 339.596 L2116.57 339.596 L2116.57 313.67 M2116.57 303.577 L2120.83 303.577 L2120.83 308.971 L2116.57 308.971 L2116.57 303.577 Z" fill="#000000" fill-rule="nonzero" fill-opacity="1" /><path clip-path="url(#clip190)" d="M2146.8 326.332 Q2146.8 321.702 2144.88 319.156 Q2142.98 316.61 2139.53 316.61 Q2136.1 316.61 2134.18 319.156 Q2132.28 321.702 2132.28 326.332 Q2132.28 330.938 2134.18 333.485 Q2136.1 336.031 2139.53 336.031 Q2142.98 336.031 2144.88 333.485 Q2146.8 330.938 2146.8 326.332 M2151.06 336.378 Q2151.06 342.998 2148.12 346.216 Q2145.18 349.457 2139.11 349.457 Q2136.87 349.457 2134.88 349.11 Q2132.89 348.785 2131.01 348.091 L2131.01 343.948 Q2132.89 344.966 2134.72 345.452 Q2136.54 345.938 2138.44 345.938 Q2142.63 345.938 2144.72 343.739 Q2146.8 341.563 2146.8 337.142 L2146.8 335.036 Q2145.48 337.327 2143.42 338.461 Q2141.36 339.596 2138.49 339.596 Q2133.72 339.596 2130.8 335.961 Q2127.89 332.327 2127.89 326.332 Q2127.89 320.313 2130.8 316.679 Q2133.72 313.045 2138.49 313.045 Q2141.36 313.045 2143.42 314.179 Q2145.48 315.313 2146.8 317.605 L2146.8 313.67 L2151.06 313.67 L2151.06 336.378 Z" fill="#000000" fill-rule="nonzero" fill-opacity="1" /><path clip-path="url(#clip190)" d="M2181.38 323.948 L2181.38 339.596 L2177.12 339.596 L2177.12 324.087 Q2177.12 320.406 2175.69 318.577 Q2174.25 316.749 2171.38 316.749 Q2167.93 316.749 2165.94 318.948 Q2163.95 321.147 2163.95 324.943 L2163.95 339.596 L2159.67 339.596 L2159.67 303.577 L2163.95 303.577 L2163.95 317.698 Q2165.48 315.36 2167.54 314.202 Q2169.62 313.045 2172.33 313.045 Q2176.8 313.045 2179.09 315.823 Q2181.38 318.577 2181.38 323.948 Z" fill="#000000" fill-rule="nonzero" fill-opacity="1" /><path clip-path="url(#clip190)" d="M2194.09 306.309 L2194.09 313.67 L2202.86 313.67 L2202.86 316.98 L2194.09 316.98 L2194.09 331.054 Q2194.09 334.225 2194.95 335.128 Q2195.83 336.031 2198.49 336.031 L2202.86 336.031 L2202.86 339.596 L2198.49 339.596 Q2193.56 339.596 2191.68 337.767 Q2189.81 335.915 2189.81 331.054 L2189.81 316.98 L2186.68 316.98 L2186.68 313.67 L2189.81 313.67 L2189.81 306.309 L2194.09 306.309 Z" fill="#000000" fill-rule="nonzero" fill-opacity="1" /><path clip-path="url(#clip190)" d="M2230.64 325.568 L2230.64 327.651 L2211.06 327.651 Q2211.34 332.049 2213.7 334.364 Q2216.08 336.656 2220.32 336.656 Q2222.77 336.656 2225.06 336.054 Q2227.38 335.452 2229.65 334.249 L2229.65 338.276 Q2227.35 339.248 2224.95 339.758 Q2222.54 340.267 2220.06 340.267 Q2213.86 340.267 2210.22 336.656 Q2206.61 333.045 2206.61 326.887 Q2206.61 320.522 2210.04 316.795 Q2213.49 313.045 2219.32 313.045 Q2224.55 313.045 2227.58 316.425 Q2230.64 319.781 2230.64 325.568 M2226.38 324.318 Q2226.33 320.823 2224.41 318.739 Q2222.52 316.656 2219.37 316.656 Q2215.8 316.656 2213.65 318.67 Q2211.52 320.684 2211.2 324.341 L2226.38 324.318 Z" fill="#000000" fill-rule="nonzero" fill-opacity="1" /><path clip-path="url(#clip190)" d="M2254.69 317.605 L2254.69 303.577 L2258.95 303.577 L2258.95 339.596 L2254.69 339.596 L2254.69 335.707 Q2253.35 338.022 2251.29 339.156 Q2249.25 340.267 2246.38 340.267 Q2241.68 340.267 2238.72 336.517 Q2235.78 332.767 2235.78 326.656 Q2235.78 320.545 2238.72 316.795 Q2241.68 313.045 2246.38 313.045 Q2249.25 313.045 2251.29 314.179 Q2253.35 315.29 2254.69 317.605 M2240.18 326.656 Q2240.18 331.355 2242.1 334.04 Q2244.04 336.702 2247.42 336.702 Q2250.8 336.702 2252.75 334.04 Q2254.69 331.355 2254.69 326.656 Q2254.69 321.957 2252.75 319.295 Q2250.8 316.61 2247.42 316.61 Q2244.04 316.61 2242.1 319.295 Q2240.18 321.957 2240.18 326.656 Z" fill="#000000" fill-rule="nonzero" fill-opacity="1" /></svg>
