<?xml version="1.0" encoding="utf-8"?>
<svg xmlns="http://www.w3.org/2000/svg" xmlns:xlink="http://www.w3.org/1999/xlink" width="600" height="400" viewBox="0 0 2400 1600">
<defs>
  <clipPath id="clip000">
    <rect x="0" y="0" width="2400" height="1600"/>
  </clipPath>
</defs>
<path clip-path="url(#clip000)" d="M0 1600 L2400 1600 L2400 0 L0 0  Z" fill="#ffffff" fill-rule="evenodd" fill-opacity="1"/>
<defs>
  <clipPath id="clip001">
    <rect x="480" y="0" width="1681" height="1600"/>
  </clipPath>
</defs>
<path clip-path="url(#clip000)" d="M47.2441 1423.18 L2352.76 1423.18 L2352.76 123.472 L47.2441 123.472  Z" fill="#ffffff" fill-rule="evenodd" fill-opacity="1"/>
<defs>
  <clipPath id="clip002">
    <rect x="47" y="123" width="2307" height="1301"/>
  </clipPath>
</defs>
<polyline clip-path="url(#clip002)" style="stroke:#000000; stroke-linecap:round; stroke-linejoin:round; stroke-width:2; stroke-opacity:0.1; fill:none" points="358.06,1423.18 358.06,123.472 "/>
<polyline clip-path="url(#clip002)" style="stroke:#000000; stroke-linecap:round; stroke-linejoin:round; stroke-width:2; stroke-opacity:0.1; fill:none" points="779.03,1423.18 779.03,123.472 "/>
<polyline clip-path="url(#clip002)" style="stroke:#000000; stroke-linecap:round; stroke-linejoin:round; stroke-width:2; stroke-opacity:0.1; fill:none" points="1200,1423.18 1200,123.472 "/>
<polyline clip-path="url(#clip002)" style="stroke:#000000; stroke-linecap:round; stroke-linejoin:round; stroke-width:2; stroke-opacity:0.1; fill:none" points="1620.97,1423.18 1620.97,123.472 "/>
<polyline clip-path="url(#clip002)" style="stroke:#000000; stroke-linecap:round; stroke-linejoin:round; stroke-width:2; stroke-opacity:0.1; fill:none" points="2041.94,1423.18 2041.94,123.472 "/>
<polyline clip-path="url(#clip000)" style="stroke:#000000; stroke-linecap:round; stroke-linejoin:round; stroke-width:4; stroke-opacity:1; fill:none" points="47.2441,1423.18 2352.76,1423.18 "/>
<polyline clip-path="url(#clip000)" style="stroke:#000000; stroke-linecap:round; stroke-linejoin:round; stroke-width:4; stroke-opacity:1; fill:none" points="358.06,1423.18 358.06,1404.28 "/>
<polyline clip-path="url(#clip000)" style="stroke:#000000; stroke-linecap:round; stroke-linejoin:round; stroke-width:4; stroke-opacity:1; fill:none" points="779.03,1423.18 779.03,1404.28 "/>
<polyline clip-path="url(#clip000)" style="stroke:#000000; stroke-linecap:round; stroke-linejoin:round; stroke-width:4; stroke-opacity:1; fill:none" points="1200,1423.18 1200,1404.28 "/>
<polyline clip-path="url(#clip000)" style="stroke:#000000; stroke-linecap:round; stroke-linejoin:round; stroke-width:4; stroke-opacity:1; fill:none" points="1620.97,1423.18 1620.97,1404.28 "/>
<polyline clip-path="url(#clip000)" style="stroke:#000000; stroke-linecap:round; stroke-linejoin:round; stroke-width:4; stroke-opacity:1; fill:none" points="2041.94,1423.18 2041.94,1404.28 "/>
<path clip-path="url(#clip000)" d="M327.123 1468.75 L356.799 1468.75 L356.799 1472.69 L327.123 1472.69 L327.123 1468.75 Z" fill="#000000" fill-rule="nonzero" fill-opacity="1" /><path clip-path="url(#clip000)" d="M377.47 1466.44 Q374.322 1466.44 372.47 1468.59 Q370.641 1470.74 370.641 1474.49 Q370.641 1478.22 372.47 1480.39 Q374.322 1482.55 377.47 1482.55 Q380.618 1482.55 382.447 1480.39 Q384.298 1478.22 384.298 1474.49 Q384.298 1470.74 382.447 1468.59 Q380.618 1466.44 377.47 1466.44 M386.752 1451.78 L386.752 1456.04 Q384.993 1455.21 383.187 1454.77 Q381.405 1454.33 379.646 1454.33 Q375.016 1454.33 372.562 1457.45 Q370.132 1460.58 369.785 1466.9 Q371.15 1464.89 373.211 1463.82 Q375.271 1462.73 377.748 1462.73 Q382.956 1462.73 385.965 1465.9 Q388.998 1469.05 388.998 1474.49 Q388.998 1479.82 385.849 1483.03 Q382.701 1486.25 377.47 1486.25 Q371.474 1486.25 368.303 1481.67 Q365.132 1477.06 365.132 1468.33 Q365.132 1460.14 369.021 1455.28 Q372.91 1450.39 379.461 1450.39 Q381.22 1450.39 383.002 1450.74 Q384.808 1451.09 386.752 1451.78 Z" fill="#000000" fill-rule="nonzero" fill-opacity="1" /><path clip-path="url(#clip000)" d="M748.498 1468.75 L778.174 1468.75 L778.174 1472.69 L748.498 1472.69 L748.498 1468.75 Z" fill="#000000" fill-rule="nonzero" fill-opacity="1" /><path clip-path="url(#clip000)" d="M802.433 1466.95 Q805.789 1467.66 807.664 1469.93 Q809.562 1472.2 809.562 1475.53 Q809.562 1480.65 806.044 1483.45 Q802.525 1486.25 796.044 1486.25 Q793.868 1486.25 791.553 1485.81 Q789.262 1485.39 786.808 1484.54 L786.808 1480.02 Q788.752 1481.16 791.067 1481.74 Q793.382 1482.32 795.905 1482.32 Q800.303 1482.32 802.595 1480.58 Q804.91 1478.84 804.91 1475.53 Q804.91 1472.48 802.757 1470.77 Q800.627 1469.03 796.808 1469.03 L792.78 1469.03 L792.78 1465.19 L796.993 1465.19 Q800.442 1465.19 802.271 1463.82 Q804.099 1462.43 804.099 1459.84 Q804.099 1457.18 802.201 1455.77 Q800.326 1454.33 796.808 1454.33 Q794.886 1454.33 792.687 1454.75 Q790.488 1455.16 787.849 1456.04 L787.849 1451.88 Q790.512 1451.14 792.826 1450.77 Q795.164 1450.39 797.224 1450.39 Q802.548 1450.39 805.65 1452.83 Q808.752 1455.23 808.752 1459.35 Q808.752 1462.22 807.109 1464.21 Q805.465 1466.18 802.433 1466.95 Z" fill="#000000" fill-rule="nonzero" fill-opacity="1" /><path clip-path="url(#clip000)" d="M1200 1454.1 Q1196.39 1454.1 1194.56 1457.66 Q1192.75 1461.2 1192.75 1468.33 Q1192.75 1475.44 1194.56 1479.01 Q1196.39 1482.55 1200 1482.55 Q1203.63 1482.55 1205.44 1479.01 Q1207.27 1475.44 1207.27 1468.33 Q1207.27 1461.2 1205.44 1457.66 Q1203.63 1454.1 1200 1454.1 M1200 1450.39 Q1205.81 1450.39 1208.87 1455 Q1211.94 1459.58 1211.94 1468.33 Q1211.94 1477.06 1208.87 1481.67 Q1205.81 1486.25 1200 1486.25 Q1194.19 1486.25 1191.11 1481.67 Q1188.06 1477.06 1188.06 1468.33 Q1188.06 1459.58 1191.11 1455 Q1194.19 1450.39 1200 1450.39 Z" fill="#000000" fill-rule="nonzero" fill-opacity="1" /><path clip-path="url(#clip000)" d="M1625.22 1466.95 Q1628.57 1467.66 1630.45 1469.93 Q1632.35 1472.2 1632.35 1475.53 Q1632.35 1480.65 1628.83 1483.45 Q1625.31 1486.25 1618.83 1486.25 Q1616.65 1486.25 1614.34 1485.81 Q1612.05 1485.39 1609.59 1484.54 L1609.59 1480.02 Q1611.54 1481.16 1613.85 1481.74 Q1616.17 1482.32 1618.69 1482.32 Q1623.09 1482.32 1625.38 1480.58 Q1627.69 1478.84 1627.69 1475.53 Q1627.69 1472.48 1625.54 1470.77 Q1623.41 1469.03 1619.59 1469.03 L1615.56 1469.03 L1615.56 1465.19 L1619.78 1465.19 Q1623.23 1465.19 1625.06 1463.82 Q1626.88 1462.43 1626.88 1459.84 Q1626.88 1457.18 1624.99 1455.77 Q1623.11 1454.33 1619.59 1454.33 Q1617.67 1454.33 1615.47 1454.75 Q1613.27 1455.16 1610.63 1456.04 L1610.63 1451.88 Q1613.3 1451.14 1615.61 1450.77 Q1617.95 1450.39 1620.01 1450.39 Q1625.33 1450.39 1628.44 1452.83 Q1631.54 1455.23 1631.54 1459.35 Q1631.54 1462.22 1629.89 1464.21 Q1628.25 1466.18 1625.22 1466.95 Z" fill="#000000" fill-rule="nonzero" fill-opacity="1" /><path clip-path="url(#clip000)" d="M2042.34 1466.44 Q2039.2 1466.44 2037.34 1468.59 Q2035.52 1470.74 2035.52 1474.49 Q2035.52 1478.22 2037.34 1480.39 Q2039.2 1482.55 2042.34 1482.55 Q2045.49 1482.55 2047.32 1480.39 Q2049.17 1478.22 2049.17 1474.49 Q2049.17 1470.74 2047.32 1468.59 Q2045.49 1466.44 2042.34 1466.44 M2051.63 1451.78 L2051.63 1456.04 Q2049.87 1455.21 2048.06 1454.77 Q2046.28 1454.33 2044.52 1454.33 Q2039.89 1454.33 2037.44 1457.45 Q2035.01 1460.58 2034.66 1466.9 Q2036.03 1464.89 2038.09 1463.82 Q2040.15 1462.73 2042.62 1462.73 Q2047.83 1462.73 2050.84 1465.9 Q2053.87 1469.05 2053.87 1474.49 Q2053.87 1479.82 2050.72 1483.03 Q2047.58 1486.25 2042.34 1486.25 Q2036.35 1486.25 2033.18 1481.67 Q2030.01 1477.06 2030.01 1468.33 Q2030.01 1460.14 2033.9 1455.28 Q2037.78 1450.39 2044.34 1450.39 Q2046.09 1450.39 2047.88 1450.74 Q2049.68 1451.09 2051.63 1451.78 Z" fill="#000000" fill-rule="nonzero" fill-opacity="1" /><path clip-path="url(#clip000)" d="M878.723 1520.52 L908.769 1520.52 L908.769 1525.93 L885.152 1525.93 L885.152 1540 L907.782 1540 L907.782 1545.41 L885.152 1545.41 L885.152 1562.63 L909.342 1562.63 L909.342 1568.04 L878.723 1568.04 L878.723 1520.52 Z" fill="#000000" fill-rule="nonzero" fill-opacity="1" /><path clip-path="url(#clip000)" d="M919.654 1518.52 L925.511 1518.52 L925.511 1568.04 L919.654 1568.04 L919.654 1518.52 Z" fill="#000000" fill-rule="nonzero" fill-opacity="1" /><path clip-path="url(#clip000)" d="M968.256 1548.76 L968.256 1551.62 L941.33 1551.62 Q941.711 1557.67 944.958 1560.85 Q948.236 1564 954.061 1564 Q957.435 1564 960.586 1563.17 Q963.769 1562.35 966.888 1560.69 L966.888 1566.23 Q963.737 1567.57 960.427 1568.27 Q957.116 1568.97 953.711 1568.97 Q945.181 1568.97 940.184 1564 Q935.218 1559.04 935.218 1550.57 Q935.218 1541.82 939.929 1536.69 Q944.672 1531.54 952.692 1531.54 Q959.886 1531.54 964.055 1536.18 Q968.256 1540.8 968.256 1548.76 M962.4 1547.04 Q962.336 1542.23 959.695 1539.37 Q957.085 1536.5 952.756 1536.5 Q947.854 1536.5 944.894 1539.27 Q941.966 1542.04 941.52 1547.07 L962.4 1547.04 Z" fill="#000000" fill-rule="nonzero" fill-opacity="1" /><path clip-path="url(#clip000)" d="M1005.62 1539.24 Q1007.82 1535.29 1010.87 1533.41 Q1013.93 1531.54 1018.07 1531.54 Q1023.64 1531.54 1026.66 1535.45 Q1029.69 1539.33 1029.69 1546.53 L1029.69 1568.04 L1023.8 1568.04 L1023.8 1546.72 Q1023.8 1541.59 1021.98 1539.11 Q1020.17 1536.63 1016.44 1536.63 Q1011.89 1536.63 1009.25 1539.65 Q1006.61 1542.68 1006.61 1547.9 L1006.61 1568.04 L1000.72 1568.04 L1000.72 1546.72 Q1000.72 1541.56 998.907 1539.11 Q997.093 1536.63 993.306 1536.63 Q988.818 1536.63 986.176 1539.68 Q983.534 1542.71 983.534 1547.9 L983.534 1568.04 L977.646 1568.04 L977.646 1532.4 L983.534 1532.4 L983.534 1537.93 Q985.539 1534.66 988.34 1533.1 Q991.141 1531.54 994.992 1531.54 Q998.875 1531.54 1001.58 1533.51 Q1004.32 1535.48 1005.62 1539.24 Z" fill="#000000" fill-rule="nonzero" fill-opacity="1" /><path clip-path="url(#clip000)" d="M1071.86 1548.76 L1071.86 1551.62 L1044.93 1551.62 Q1045.31 1557.67 1048.56 1560.85 Q1051.84 1564 1057.66 1564 Q1061.04 1564 1064.19 1563.17 Q1067.37 1562.35 1070.49 1560.69 L1070.49 1566.23 Q1067.34 1567.57 1064.03 1568.27 Q1060.72 1568.97 1057.31 1568.97 Q1048.78 1568.97 1043.79 1564 Q1038.82 1559.04 1038.82 1550.57 Q1038.82 1541.82 1043.53 1536.69 Q1048.27 1531.54 1056.29 1531.54 Q1063.49 1531.54 1067.66 1536.18 Q1071.86 1540.8 1071.86 1548.76 M1066 1547.04 Q1065.94 1542.23 1063.3 1539.37 Q1060.69 1536.5 1056.36 1536.5 Q1051.46 1536.5 1048.5 1539.27 Q1045.57 1542.04 1045.12 1547.07 L1066 1547.04 Z" fill="#000000" fill-rule="nonzero" fill-opacity="1" /><path clip-path="url(#clip000)" d="M1111.1 1546.53 L1111.1 1568.04 L1105.25 1568.04 L1105.25 1546.72 Q1105.25 1541.66 1103.27 1539.14 Q1101.3 1536.63 1097.35 1536.63 Q1092.61 1536.63 1089.87 1539.65 Q1087.14 1542.68 1087.14 1547.9 L1087.14 1568.04 L1081.25 1568.04 L1081.25 1532.4 L1087.14 1532.4 L1087.14 1537.93 Q1089.24 1534.72 1092.07 1533.13 Q1094.93 1531.54 1098.66 1531.54 Q1104.8 1531.54 1107.95 1535.36 Q1111.1 1539.14 1111.1 1546.53 Z" fill="#000000" fill-rule="nonzero" fill-opacity="1" /><path clip-path="url(#clip000)" d="M1128.58 1522.27 L1128.58 1532.4 L1140.64 1532.4 L1140.64 1536.95 L1128.58 1536.95 L1128.58 1556.3 Q1128.58 1560.66 1129.75 1561.9 Q1130.96 1563.14 1134.62 1563.14 L1140.64 1563.14 L1140.64 1568.04 L1134.62 1568.04 Q1127.84 1568.04 1125.27 1565.53 Q1122.69 1562.98 1122.69 1556.3 L1122.69 1536.95 L1118.39 1536.95 L1118.39 1532.4 L1122.69 1532.4 L1122.69 1522.27 L1128.58 1522.27 Z" fill="#000000" fill-rule="nonzero" fill-opacity="1" /><path clip-path="url(#clip000)" d="M1175.75 1525.81 L1175.75 1543.66 L1183.83 1543.66 Q1188.32 1543.66 1190.77 1541.34 Q1193.22 1539.02 1193.22 1534.72 Q1193.22 1530.45 1190.77 1528.13 Q1188.32 1525.81 1183.83 1525.81 L1175.75 1525.81 M1169.32 1520.52 L1183.83 1520.52 Q1191.82 1520.52 1195.89 1524.15 Q1200 1527.75 1200 1534.72 Q1200 1541.75 1195.89 1545.35 Q1191.82 1548.95 1183.83 1548.95 L1175.75 1548.95 L1175.75 1568.04 L1169.32 1568.04 L1169.32 1520.52 Z" fill="#000000" fill-rule="nonzero" fill-opacity="1" /><path clip-path="url(#clip000)" d="M1219.86 1536.5 Q1215.15 1536.5 1212.41 1540.19 Q1209.68 1543.85 1209.68 1550.25 Q1209.68 1556.65 1212.38 1560.34 Q1215.12 1564 1219.86 1564 Q1224.54 1564 1227.28 1560.31 Q1230.01 1556.62 1230.01 1550.25 Q1230.01 1543.92 1227.28 1540.23 Q1224.54 1536.5 1219.86 1536.5 M1219.86 1531.54 Q1227.5 1531.54 1231.86 1536.5 Q1236.22 1541.47 1236.22 1550.25 Q1236.22 1559 1231.86 1564 Q1227.5 1568.97 1219.86 1568.97 Q1212.19 1568.97 1207.83 1564 Q1203.5 1559 1203.5 1550.25 Q1203.5 1541.47 1207.83 1536.5 Q1212.19 1531.54 1219.86 1531.54 Z" fill="#000000" fill-rule="nonzero" fill-opacity="1" /><path clip-path="url(#clip000)" d="M1268.65 1533.45 L1268.65 1538.98 Q1266.17 1537.71 1263.5 1537.07 Q1260.82 1536.44 1257.96 1536.44 Q1253.6 1536.44 1251.4 1537.77 Q1249.24 1539.11 1249.24 1541.79 Q1249.24 1543.82 1250.8 1545 Q1252.36 1546.15 1257.07 1547.2 L1259.07 1547.64 Q1265.31 1548.98 1267.92 1551.43 Q1270.56 1553.85 1270.56 1558.21 Q1270.56 1563.17 1266.62 1566.07 Q1262.7 1568.97 1255.83 1568.97 Q1252.96 1568.97 1249.84 1568.39 Q1246.76 1567.85 1243.32 1566.74 L1243.32 1560.69 Q1246.57 1562.38 1249.72 1563.24 Q1252.87 1564.07 1255.95 1564.07 Q1260.09 1564.07 1262.32 1562.66 Q1264.55 1561.23 1264.55 1558.65 Q1264.55 1556.27 1262.93 1554.99 Q1261.33 1553.72 1255.89 1552.54 L1253.85 1552.07 Q1248.41 1550.92 1245.99 1548.56 Q1243.57 1546.18 1243.57 1542.04 Q1243.57 1537.01 1247.14 1534.27 Q1250.7 1531.54 1257.26 1531.54 Q1260.51 1531.54 1263.37 1532.01 Q1266.24 1532.49 1268.65 1533.45 Z" fill="#000000" fill-rule="nonzero" fill-opacity="1" /><path clip-path="url(#clip000)" d="M1279.89 1532.4 L1285.75 1532.4 L1285.75 1568.04 L1279.89 1568.04 L1279.89 1532.4 M1279.89 1518.52 L1285.75 1518.52 L1285.75 1525.93 L1279.89 1525.93 L1279.89 1518.52 Z" fill="#000000" fill-rule="nonzero" fill-opacity="1" /><path clip-path="url(#clip000)" d="M1303.79 1522.27 L1303.79 1532.4 L1315.86 1532.4 L1315.86 1536.95 L1303.79 1536.95 L1303.79 1556.3 Q1303.79 1560.66 1304.97 1561.9 Q1306.18 1563.14 1309.84 1563.14 L1315.86 1563.14 L1315.86 1568.04 L1309.84 1568.04 Q1303.06 1568.04 1300.48 1565.53 Q1297.9 1562.98 1297.9 1556.3 L1297.9 1536.95 L1293.61 1536.95 L1293.61 1532.4 L1297.9 1532.4 L1297.9 1522.27 L1303.79 1522.27 Z" fill="#000000" fill-rule="nonzero" fill-opacity="1" /><path clip-path="url(#clip000)" d="M1323.56 1532.4 L1329.41 1532.4 L1329.41 1568.04 L1323.56 1568.04 L1323.56 1532.4 M1323.56 1518.52 L1329.41 1518.52 L1329.41 1525.93 L1323.56 1525.93 L1323.56 1518.52 Z" fill="#000000" fill-rule="nonzero" fill-opacity="1" /><path clip-path="url(#clip000)" d="M1355.48 1536.5 Q1350.77 1536.5 1348.03 1540.19 Q1345.3 1543.85 1345.3 1550.25 Q1345.3 1556.65 1348 1560.34 Q1350.74 1564 1355.48 1564 Q1360.16 1564 1362.9 1560.31 Q1365.64 1556.62 1365.64 1550.25 Q1365.64 1543.92 1362.9 1540.23 Q1360.16 1536.5 1355.48 1536.5 M1355.48 1531.54 Q1363.12 1531.54 1367.48 1536.5 Q1371.84 1541.47 1371.84 1550.25 Q1371.84 1559 1367.48 1564 Q1363.12 1568.97 1355.48 1568.97 Q1347.81 1568.97 1343.45 1564 Q1339.12 1559 1339.12 1550.25 Q1339.12 1541.47 1343.45 1536.5 Q1347.81 1531.54 1355.48 1531.54 Z" fill="#000000" fill-rule="nonzero" fill-opacity="1" /><path clip-path="url(#clip000)" d="M1411.18 1546.53 L1411.18 1568.04 L1405.33 1568.04 L1405.33 1546.72 Q1405.33 1541.66 1403.35 1539.14 Q1401.38 1536.63 1397.43 1536.63 Q1392.69 1536.63 1389.95 1539.65 Q1387.22 1542.68 1387.22 1547.9 L1387.22 1568.04 L1381.33 1568.04 L1381.33 1532.4 L1387.22 1532.4 L1387.22 1537.93 Q1389.32 1534.72 1392.15 1533.13 Q1395.01 1531.54 1398.74 1531.54 Q1404.88 1531.54 1408.03 1535.36 Q1411.18 1539.14 1411.18 1546.53 Z" fill="#000000" fill-rule="nonzero" fill-opacity="1" /><path clip-path="url(#clip000)" d="M1443.04 1518.52 L1456.54 1518.52 L1456.54 1523.07 L1448.9 1523.07 L1448.9 1572.09 L1456.54 1572.09 L1456.54 1576.64 L1443.04 1576.64 L1443.04 1518.52 Z" fill="#000000" fill-rule="nonzero" fill-opacity="1" /><path clip-path="url(#clip000)" d="M1483.05 1524.09 L1499.51 1568.04 L1493.3 1568.04 L1483.31 1541.69 L1471.02 1568.04 L1464.81 1568.04 L1480.44 1533.86 L1478.09 1527.56 Q1476.59 1523.55 1473.18 1523.55 L1470.13 1523.55 L1470.13 1518.52 L1473.85 1518.58 Q1481.05 1518.68 1483.05 1524.09 Z" fill="#000000" fill-rule="nonzero" fill-opacity="1" /><path clip-path="url(#clip000)" d="M1521.28 1518.52 L1521.28 1576.64 L1507.78 1576.64 L1507.78 1572.09 L1515.39 1572.09 L1515.39 1523.07 L1507.78 1523.07 L1507.78 1518.52 L1521.28 1518.52 Z" fill="#000000" fill-rule="nonzero" fill-opacity="1" /><polyline clip-path="url(#clip000)" style="stroke:#000000; stroke-linecap:round; stroke-linejoin:round; stroke-width:4; stroke-opacity:1; fill:none" points="47.2441,1423.18 47.2441,123.472 "/>
<path clip-path="url(#clip000)" d="M674.375 20.1573 L663.275 50.2555 L685.515 50.2555 L674.375 20.1573 M669.757 12.096 L679.033 12.096 L702.083 72.576 L693.576 72.576 L688.067 57.061 L660.804 57.061 L655.295 72.576 L646.667 72.576 L669.757 12.096 Z" fill="#000000" fill-rule="nonzero" fill-opacity="1" /><path clip-path="url(#clip000)" d="M748.304 45.1919 L748.304 72.576 L740.85 72.576 L740.85 45.4349 Q740.85 38.994 738.339 35.7938 Q735.827 32.5936 730.804 32.5936 Q724.768 32.5936 721.284 36.4419 Q717.801 40.2903 717.801 46.9338 L717.801 72.576 L710.306 72.576 L710.306 27.2059 L717.801 27.2059 L717.801 34.2544 Q720.474 30.163 724.08 28.1376 Q727.725 26.1121 732.465 26.1121 Q740.283 26.1121 744.294 30.9732 Q748.304 35.7938 748.304 45.1919 Z" fill="#000000" fill-rule="nonzero" fill-opacity="1" /><path clip-path="url(#clip000)" d="M770.543 14.324 L770.543 27.2059 L785.896 27.2059 L785.896 32.9987 L770.543 32.9987 L770.543 57.6282 Q770.543 63.1779 772.042 64.7578 Q773.582 66.3376 778.24 66.3376 L785.896 66.3376 L785.896 72.576 L778.24 72.576 Q769.612 72.576 766.33 69.3758 Q763.049 66.1351 763.049 57.6282 L763.049 32.9987 L757.58 32.9987 L757.58 27.2059 L763.049 27.2059 L763.049 14.324 L770.543 14.324 Z" fill="#000000" fill-rule="nonzero" fill-opacity="1" /><path clip-path="url(#clip000)" d="M834.507 48.0275 L834.507 51.6733 L800.237 51.6733 Q800.723 59.3701 804.855 63.421 Q809.027 67.4314 816.44 67.4314 Q820.734 67.4314 824.744 66.3781 Q828.795 65.3249 832.765 63.2184 L832.765 70.267 Q828.755 71.9684 824.542 72.8596 Q820.329 73.7508 815.995 73.7508 Q805.138 73.7508 798.778 67.4314 Q792.459 61.1119 792.459 50.3365 Q792.459 39.1965 798.454 32.6746 Q804.49 26.1121 814.698 26.1121 Q823.853 26.1121 829.16 32.0264 Q834.507 37.9003 834.507 48.0275 M827.054 45.84 Q826.972 39.7232 823.61 36.0774 Q820.288 32.4315 814.779 32.4315 Q808.541 32.4315 804.774 35.9558 Q801.047 39.4801 800.48 45.8805 L827.054 45.84 Z" fill="#000000" fill-rule="nonzero" fill-opacity="1" /><path clip-path="url(#clip000)" d="M884.455 45.1919 L884.455 72.576 L877.001 72.576 L877.001 45.4349 Q877.001 38.994 874.49 35.7938 Q871.978 32.5936 866.955 32.5936 Q860.919 32.5936 857.435 36.4419 Q853.952 40.2903 853.952 46.9338 L853.952 72.576 L846.457 72.576 L846.457 27.2059 L853.952 27.2059 L853.952 34.2544 Q856.625 30.163 860.23 28.1376 Q863.876 26.1121 868.616 26.1121 Q876.434 26.1121 880.444 30.9732 Q884.455 35.7938 884.455 45.1919 Z" fill="#000000" fill-rule="nonzero" fill-opacity="1" /><path clip-path="url(#clip000)" d="M937.036 45.1919 L937.036 72.576 L929.582 72.576 L929.582 45.4349 Q929.582 38.994 927.07 35.7938 Q924.559 32.5936 919.536 32.5936 Q913.5 32.5936 910.016 36.4419 Q906.532 40.2903 906.532 46.9338 L906.532 72.576 L899.038 72.576 L899.038 27.2059 L906.532 27.2059 L906.532 34.2544 Q909.206 30.163 912.811 28.1376 Q916.457 26.1121 921.197 26.1121 Q929.015 26.1121 933.025 30.9732 Q937.036 35.7938 937.036 45.1919 Z" fill="#000000" fill-rule="nonzero" fill-opacity="1" /><path clip-path="url(#clip000)" d="M972.521 49.7694 Q963.488 49.7694 960.004 51.8354 Q956.52 53.9013 956.52 58.8839 Q956.52 62.8538 959.113 65.2034 Q961.746 67.5124 966.243 67.5124 Q972.44 67.5124 976.167 63.1374 Q979.935 58.7219 979.935 51.4303 L979.935 49.7694 L972.521 49.7694 M987.388 46.6907 L987.388 72.576 L979.935 72.576 L979.935 65.6895 Q977.383 69.8214 973.575 71.8063 Q969.767 73.7508 964.258 73.7508 Q957.29 73.7508 953.158 69.8619 Q949.067 65.9325 949.067 59.3701 Q949.067 51.7138 954.171 47.825 Q959.316 43.9361 969.483 43.9361 L979.935 43.9361 L979.935 43.2069 Q979.935 38.0623 976.532 35.2672 Q973.17 32.4315 967.053 32.4315 Q963.164 32.4315 959.478 33.3632 Q955.791 34.295 952.388 36.1584 L952.388 29.2718 Q956.48 27.692 960.328 26.9223 Q964.177 26.1121 967.822 26.1121 Q977.666 26.1121 982.527 31.2163 Q987.388 36.3204 987.388 46.6907 Z" fill="#000000" fill-rule="nonzero" fill-opacity="1" /><path clip-path="url(#clip000)" d="M1029.44 12.096 L1067.68 12.096 L1067.68 18.9825 L1037.62 18.9825 L1037.62 36.8875 L1066.42 36.8875 L1066.42 43.7741 L1037.62 43.7741 L1037.62 65.6895 L1068.41 65.6895 L1068.41 72.576 L1029.44 72.576 L1029.44 12.096 Z" fill="#000000" fill-rule="nonzero" fill-opacity="1" /><path clip-path="url(#clip000)" d="M1081.53 9.54393 L1088.98 9.54393 L1088.98 72.576 L1081.53 72.576 L1081.53 9.54393 Z" fill="#000000" fill-rule="nonzero" fill-opacity="1" /><path clip-path="url(#clip000)" d="M1143.39 48.0275 L1143.39 51.6733 L1109.12 51.6733 Q1109.6 59.3701 1113.74 63.421 Q1117.91 67.4314 1125.32 67.4314 Q1129.62 67.4314 1133.63 66.3781 Q1137.68 65.3249 1141.65 63.2184 L1141.65 70.267 Q1137.64 71.9684 1133.42 72.8596 Q1129.21 73.7508 1124.88 73.7508 Q1114.02 73.7508 1107.66 67.4314 Q1101.34 61.1119 1101.34 50.3365 Q1101.34 39.1965 1107.34 32.6746 Q1113.37 26.1121 1123.58 26.1121 Q1132.73 26.1121 1138.04 32.0264 Q1143.39 37.9003 1143.39 48.0275 M1135.93 45.84 Q1135.85 39.7232 1132.49 36.0774 Q1129.17 32.4315 1123.66 32.4315 Q1117.42 32.4315 1113.65 35.9558 Q1109.93 39.4801 1109.36 45.8805 L1135.93 45.84 Z" fill="#000000" fill-rule="nonzero" fill-opacity="1" /><path clip-path="url(#clip000)" d="M1190.95 35.9153 Q1193.74 30.8922 1197.63 28.5022 Q1201.52 26.1121 1206.79 26.1121 Q1213.87 26.1121 1217.72 31.0947 Q1221.57 36.0368 1221.57 45.1919 L1221.57 72.576 L1214.08 72.576 L1214.08 45.4349 Q1214.08 38.913 1211.77 35.7533 Q1209.46 32.5936 1204.72 32.5936 Q1198.93 32.5936 1195.56 36.4419 Q1192.2 40.2903 1192.2 46.9338 L1192.2 72.576 L1184.71 72.576 L1184.71 45.4349 Q1184.71 38.8725 1182.4 35.7533 Q1180.09 32.5936 1175.27 32.5936 Q1169.56 32.5936 1166.2 36.4824 Q1162.83 40.3308 1162.83 46.9338 L1162.83 72.576 L1155.34 72.576 L1155.34 27.2059 L1162.83 27.2059 L1162.83 34.2544 Q1165.39 30.082 1168.95 28.0971 Q1172.51 26.1121 1177.42 26.1121 Q1182.36 26.1121 1185.8 28.6237 Q1189.29 31.1352 1190.95 35.9153 Z" fill="#000000" fill-rule="nonzero" fill-opacity="1" /><path clip-path="url(#clip000)" d="M1275.25 48.0275 L1275.25 51.6733 L1240.97 51.6733 Q1241.46 59.3701 1245.59 63.421 Q1249.77 67.4314 1257.18 67.4314 Q1261.47 67.4314 1265.48 66.3781 Q1269.53 65.3249 1273.5 63.2184 L1273.5 70.267 Q1269.49 71.9684 1265.28 72.8596 Q1261.07 73.7508 1256.73 73.7508 Q1245.88 73.7508 1239.52 67.4314 Q1233.2 61.1119 1233.2 50.3365 Q1233.2 39.1965 1239.19 32.6746 Q1245.23 26.1121 1255.44 26.1121 Q1264.59 26.1121 1269.9 32.0264 Q1275.25 37.9003 1275.25 48.0275 M1267.79 45.84 Q1267.71 39.7232 1264.35 36.0774 Q1261.03 32.4315 1255.52 32.4315 Q1249.28 32.4315 1245.51 35.9558 Q1241.79 39.4801 1241.22 45.8805 L1267.79 45.84 Z" fill="#000000" fill-rule="nonzero" fill-opacity="1" /><path clip-path="url(#clip000)" d="M1325.19 45.1919 L1325.19 72.576 L1317.74 72.576 L1317.74 45.4349 Q1317.74 38.994 1315.23 35.7938 Q1312.72 32.5936 1307.69 32.5936 Q1301.66 32.5936 1298.17 36.4419 Q1294.69 40.2903 1294.69 46.9338 L1294.69 72.576 L1287.2 72.576 L1287.2 27.2059 L1294.69 27.2059 L1294.69 34.2544 Q1297.36 30.163 1300.97 28.1376 Q1304.61 26.1121 1309.35 26.1121 Q1317.17 26.1121 1321.18 30.9732 Q1325.19 35.7938 1325.19 45.1919 Z" fill="#000000" fill-rule="nonzero" fill-opacity="1" /><path clip-path="url(#clip000)" d="M1347.43 14.324 L1347.43 27.2059 L1362.79 27.2059 L1362.79 32.9987 L1347.43 32.9987 L1347.43 57.6282 Q1347.43 63.1779 1348.93 64.7578 Q1350.47 66.3376 1355.13 66.3376 L1362.79 66.3376 L1362.79 72.576 L1355.13 72.576 Q1346.5 72.576 1343.22 69.3758 Q1339.94 66.1351 1339.94 57.6282 L1339.94 32.9987 L1334.47 32.9987 L1334.47 27.2059 L1339.94 27.2059 L1339.94 14.324 L1347.43 14.324 Z" fill="#000000" fill-rule="nonzero" fill-opacity="1" /><path clip-path="url(#clip000)" d="M1407.47 18.8205 L1407.47 41.5461 L1417.76 41.5461 Q1423.47 41.5461 1426.59 38.5889 Q1429.71 35.6318 1429.71 30.163 Q1429.71 24.7348 1426.59 21.7777 Q1423.47 18.8205 1417.76 18.8205 L1407.47 18.8205 M1399.28 12.096 L1417.76 12.096 Q1427.92 12.096 1433.11 16.714 Q1438.33 21.2916 1438.33 30.163 Q1438.33 39.1155 1433.11 43.6931 Q1427.92 48.2706 1417.76 48.2706 L1407.47 48.2706 L1407.47 72.576 L1399.28 72.576 L1399.28 12.096 Z" fill="#000000" fill-rule="nonzero" fill-opacity="1" /><path clip-path="url(#clip000)" d="M1463.61 32.4315 Q1457.62 32.4315 1454.13 37.1306 Q1450.65 41.7891 1450.65 49.9314 Q1450.65 58.0738 1454.09 62.7728 Q1457.58 67.4314 1463.61 67.4314 Q1469.57 67.4314 1473.05 62.7323 Q1476.53 58.0333 1476.53 49.9314 Q1476.53 41.8701 1473.05 37.1711 Q1469.57 32.4315 1463.61 32.4315 M1463.61 26.1121 Q1473.33 26.1121 1478.88 32.4315 Q1484.43 38.7509 1484.43 49.9314 Q1484.43 61.0714 1478.88 67.4314 Q1473.33 73.7508 1463.61 73.7508 Q1453.85 73.7508 1448.3 67.4314 Q1442.79 61.0714 1442.79 49.9314 Q1442.79 38.7509 1448.3 32.4315 Q1453.85 26.1121 1463.61 26.1121 Z" fill="#000000" fill-rule="nonzero" fill-opacity="1" /><path clip-path="url(#clip000)" d="M1525.71 28.5427 L1525.71 35.5912 Q1522.55 33.9709 1519.15 33.1607 Q1515.75 32.3505 1512.1 32.3505 Q1506.55 32.3505 1503.76 34.0519 Q1501 35.7533 1501 39.156 Q1501 41.7486 1502.99 43.2475 Q1504.97 44.7058 1510.97 46.0426 L1513.52 46.6097 Q1521.46 48.3111 1524.78 51.4303 Q1528.14 54.509 1528.14 60.0587 Q1528.14 66.3781 1523.12 70.0644 Q1518.14 73.7508 1509.39 73.7508 Q1505.74 73.7508 1501.77 73.0216 Q1497.84 72.3329 1493.47 70.9151 L1493.47 63.2184 Q1497.6 65.3654 1501.61 66.4591 Q1505.62 67.5124 1509.55 67.5124 Q1514.82 67.5124 1517.65 65.73 Q1520.49 63.9071 1520.49 60.6258 Q1520.49 57.5877 1518.42 55.9673 Q1516.4 54.3469 1509.47 52.8481 L1506.88 52.2405 Q1499.95 50.7821 1496.87 47.7845 Q1493.79 44.7463 1493.79 39.4801 Q1493.79 33.0797 1498.33 29.5959 Q1502.87 26.1121 1511.21 26.1121 Q1515.34 26.1121 1518.99 26.7198 Q1522.63 27.3274 1525.71 28.5427 Z" fill="#000000" fill-rule="nonzero" fill-opacity="1" /><path clip-path="url(#clip000)" d="M1540.01 27.2059 L1547.47 27.2059 L1547.47 72.576 L1540.01 72.576 L1540.01 27.2059 M1540.01 9.54393 L1547.47 9.54393 L1547.47 18.9825 L1540.01 18.9825 L1540.01 9.54393 Z" fill="#000000" fill-rule="nonzero" fill-opacity="1" /><path clip-path="url(#clip000)" d="M1570.43 14.324 L1570.43 27.2059 L1585.79 27.2059 L1585.79 32.9987 L1570.43 32.9987 L1570.43 57.6282 Q1570.43 63.1779 1571.93 64.7578 Q1573.47 66.3376 1578.13 66.3376 L1585.79 66.3376 L1585.79 72.576 L1578.13 72.576 Q1569.5 72.576 1566.22 69.3758 Q1562.94 66.1351 1562.94 57.6282 L1562.94 32.9987 L1557.47 32.9987 L1557.47 27.2059 L1562.94 27.2059 L1562.94 14.324 L1570.43 14.324 Z" fill="#000000" fill-rule="nonzero" fill-opacity="1" /><path clip-path="url(#clip000)" d="M1595.59 27.2059 L1603.04 27.2059 L1603.04 72.576 L1595.59 72.576 L1595.59 27.2059 M1595.59 9.54393 L1603.04 9.54393 L1603.04 18.9825 L1595.59 18.9825 L1595.59 9.54393 Z" fill="#000000" fill-rule="nonzero" fill-opacity="1" /><path clip-path="url(#clip000)" d="M1636.22 32.4315 Q1630.23 32.4315 1626.74 37.1306 Q1623.26 41.7891 1623.26 49.9314 Q1623.26 58.0738 1626.7 62.7728 Q1630.19 67.4314 1636.22 67.4314 Q1642.18 67.4314 1645.66 62.7323 Q1649.14 58.0333 1649.14 49.9314 Q1649.14 41.8701 1645.66 37.1711 Q1642.18 32.4315 1636.22 32.4315 M1636.22 26.1121 Q1645.94 26.1121 1651.49 32.4315 Q1657.04 38.7509 1657.04 49.9314 Q1657.04 61.0714 1651.49 67.4314 Q1645.94 73.7508 1636.22 73.7508 Q1626.46 73.7508 1620.91 67.4314 Q1615.4 61.0714 1615.4 49.9314 Q1615.4 38.7509 1620.91 32.4315 Q1626.46 26.1121 1636.22 26.1121 Z" fill="#000000" fill-rule="nonzero" fill-opacity="1" /><path clip-path="url(#clip000)" d="M1707.11 45.1919 L1707.11 72.576 L1699.66 72.576 L1699.66 45.4349 Q1699.66 38.994 1697.15 35.7938 Q1694.64 32.5936 1689.61 32.5936 Q1683.58 32.5936 1680.09 36.4419 Q1676.61 40.2903 1676.61 46.9338 L1676.61 72.576 L1669.11 72.576 L1669.11 27.2059 L1676.61 27.2059 L1676.61 34.2544 Q1679.28 30.163 1682.89 28.1376 Q1686.53 26.1121 1691.27 26.1121 Q1699.09 26.1121 1703.1 30.9732 Q1707.11 35.7938 1707.11 45.1919 Z" fill="#000000" fill-rule="nonzero" fill-opacity="1" /><path clip-path="url(#clip000)" d="M1750.9 28.5427 L1750.9 35.5912 Q1747.74 33.9709 1744.34 33.1607 Q1740.94 32.3505 1737.29 32.3505 Q1731.74 32.3505 1728.95 34.0519 Q1726.19 35.7533 1726.19 39.156 Q1726.19 41.7486 1728.18 43.2475 Q1730.16 44.7058 1736.16 46.0426 L1738.71 46.6097 Q1746.65 48.3111 1749.97 51.4303 Q1753.33 54.509 1753.33 60.0587 Q1753.33 66.3781 1748.31 70.0644 Q1743.33 73.7508 1734.58 73.7508 Q1730.93 73.7508 1726.96 73.0216 Q1723.03 72.3329 1718.66 70.9151 L1718.66 63.2184 Q1722.79 65.3654 1726.8 66.4591 Q1730.81 67.5124 1734.74 67.5124 Q1740.01 67.5124 1742.84 65.73 Q1745.68 63.9071 1745.68 60.6258 Q1745.68 57.5877 1743.61 55.9673 Q1741.59 54.3469 1734.66 52.8481 L1732.07 52.2405 Q1725.14 50.7821 1722.06 47.7845 Q1718.98 44.7463 1718.98 39.4801 Q1718.98 33.0797 1723.52 29.5959 Q1728.06 26.1121 1736.4 26.1121 Q1740.53 26.1121 1744.18 26.7198 Q1747.82 27.3274 1750.9 28.5427 Z" fill="#000000" fill-rule="nonzero" fill-opacity="1" /><circle clip-path="url(#clip002)" cx="112.494" cy="773.326" r="14.4" fill="#009af9" fill-rule="evenodd" fill-opacity="1" stroke="#000000" stroke-opacity="1" stroke-width="3.2"/>
<circle clip-path="url(#clip002)" cx="182.656" cy="773.326" r="14.4" fill="#009af9" fill-rule="evenodd" fill-opacity="1" stroke="#000000" stroke-opacity="1" stroke-width="3.2"/>
<circle clip-path="url(#clip002)" cx="252.818" cy="773.326" r="14.4" fill="#009af9" fill-rule="evenodd" fill-opacity="1" stroke="#000000" stroke-opacity="1" stroke-width="3.2"/>
<circle clip-path="url(#clip002)" cx="322.979" cy="773.326" r="14.4" fill="#009af9" fill-rule="evenodd" fill-opacity="1" stroke="#000000" stroke-opacity="1" stroke-width="3.2"/>
<circle clip-path="url(#clip002)" cx="393.141" cy="773.326" r="14.4" fill="#009af9" fill-rule="evenodd" fill-opacity="1" stroke="#000000" stroke-opacity="1" stroke-width="3.2"/>
<circle clip-path="url(#clip002)" cx="463.303" cy="773.326" r="14.4" fill="#009af9" fill-rule="evenodd" fill-opacity="1" stroke="#000000" stroke-opacity="1" stroke-width="3.2"/>
<circle clip-path="url(#clip002)" cx="533.464" cy="773.326" r="14.4" fill="#009af9" fill-rule="evenodd" fill-opacity="1" stroke="#000000" stroke-opacity="1" stroke-width="3.2"/>
<circle clip-path="url(#clip002)" cx="603.626" cy="773.326" r="14.4" fill="#009af9" fill-rule="evenodd" fill-opacity="1" stroke="#000000" stroke-opacity="1" stroke-width="3.2"/>
<circle clip-path="url(#clip002)" cx="673.788" cy="773.326" r="14.4" fill="#009af9" fill-rule="evenodd" fill-opacity="1" stroke="#000000" stroke-opacity="1" stroke-width="3.2"/>
<circle clip-path="url(#clip002)" cx="743.949" cy="773.326" r="14.4" fill="#009af9" fill-rule="evenodd" fill-opacity="1" stroke="#000000" stroke-opacity="1" stroke-width="3.2"/>
<circle clip-path="url(#clip002)" cx="814.111" cy="773.326" r="14.4" fill="#009af9" fill-rule="evenodd" fill-opacity="1" stroke="#000000" stroke-opacity="1" stroke-width="3.2"/>
<circle clip-path="url(#clip002)" cx="884.273" cy="773.326" r="14.4" fill="#009af9" fill-rule="evenodd" fill-opacity="1" stroke="#000000" stroke-opacity="1" stroke-width="3.2"/>
<circle clip-path="url(#clip002)" cx="954.434" cy="773.326" r="14.4" fill="#009af9" fill-rule="evenodd" fill-opacity="1" stroke="#000000" stroke-opacity="1" stroke-width="3.2"/>
<circle clip-path="url(#clip002)" cx="1024.6" cy="773.326" r="14.4" fill="#009af9" fill-rule="evenodd" fill-opacity="1" stroke="#000000" stroke-opacity="1" stroke-width="3.2"/>
<circle clip-path="url(#clip002)" cx="1094.76" cy="773.326" r="14.4" fill="#009af9" fill-rule="evenodd" fill-opacity="1" stroke="#000000" stroke-opacity="1" stroke-width="3.2"/>
<circle clip-path="url(#clip002)" cx="1164.92" cy="773.326" r="14.4" fill="#009af9" fill-rule="evenodd" fill-opacity="1" stroke="#000000" stroke-opacity="1" stroke-width="3.2"/>
<circle clip-path="url(#clip002)" cx="1235.08" cy="773.326" r="14.4" fill="#009af9" fill-rule="evenodd" fill-opacity="1" stroke="#000000" stroke-opacity="1" stroke-width="3.2"/>
<circle clip-path="url(#clip002)" cx="1305.24" cy="773.326" r="14.4" fill="#009af9" fill-rule="evenodd" fill-opacity="1" stroke="#000000" stroke-opacity="1" stroke-width="3.2"/>
<circle clip-path="url(#clip002)" cx="1375.4" cy="773.326" r="14.4" fill="#009af9" fill-rule="evenodd" fill-opacity="1" stroke="#000000" stroke-opacity="1" stroke-width="3.2"/>
<circle clip-path="url(#clip002)" cx="1445.57" cy="773.326" r="14.4" fill="#009af9" fill-rule="evenodd" fill-opacity="1" stroke="#000000" stroke-opacity="1" stroke-width="3.2"/>
<circle clip-path="url(#clip002)" cx="1515.73" cy="773.326" r="14.4" fill="#009af9" fill-rule="evenodd" fill-opacity="1" stroke="#000000" stroke-opacity="1" stroke-width="3.2"/>
<circle clip-path="url(#clip002)" cx="1585.89" cy="773.326" r="14.4" fill="#009af9" fill-rule="evenodd" fill-opacity="1" stroke="#000000" stroke-opacity="1" stroke-width="3.2"/>
<circle clip-path="url(#clip002)" cx="1656.05" cy="773.326" r="14.4" fill="#009af9" fill-rule="evenodd" fill-opacity="1" stroke="#000000" stroke-opacity="1" stroke-width="3.2"/>
<circle clip-path="url(#clip002)" cx="1726.21" cy="773.326" r="14.4" fill="#009af9" fill-rule="evenodd" fill-opacity="1" stroke="#000000" stroke-opacity="1" stroke-width="3.2"/>
<circle clip-path="url(#clip002)" cx="1796.37" cy="773.326" r="14.4" fill="#009af9" fill-rule="evenodd" fill-opacity="1" stroke="#000000" stroke-opacity="1" stroke-width="3.2"/>
<circle clip-path="url(#clip002)" cx="1866.54" cy="773.326" r="14.4" fill="#009af9" fill-rule="evenodd" fill-opacity="1" stroke="#000000" stroke-opacity="1" stroke-width="3.2"/>
<circle clip-path="url(#clip002)" cx="1936.7" cy="773.326" r="14.4" fill="#009af9" fill-rule="evenodd" fill-opacity="1" stroke="#000000" stroke-opacity="1" stroke-width="3.2"/>
<circle clip-path="url(#clip002)" cx="2006.86" cy="773.326" r="14.4" fill="#009af9" fill-rule="evenodd" fill-opacity="1" stroke="#000000" stroke-opacity="1" stroke-width="3.2"/>
<circle clip-path="url(#clip002)" cx="2077.02" cy="773.326" r="14.4" fill="#009af9" fill-rule="evenodd" fill-opacity="1" stroke="#000000" stroke-opacity="1" stroke-width="3.2"/>
<circle clip-path="url(#clip002)" cx="2147.18" cy="773.326" r="14.4" fill="#009af9" fill-rule="evenodd" fill-opacity="1" stroke="#000000" stroke-opacity="1" stroke-width="3.2"/>
<circle clip-path="url(#clip002)" cx="2217.34" cy="773.326" r="14.4" fill="#009af9" fill-rule="evenodd" fill-opacity="1" stroke="#000000" stroke-opacity="1" stroke-width="3.2"/>
<circle clip-path="url(#clip002)" cx="2287.51" cy="773.326" r="14.4" fill="#009af9" fill-rule="evenodd" fill-opacity="1" stroke="#000000" stroke-opacity="1" stroke-width="3.2"/>
</svg>
