<?xml version="1.0" encoding="utf-8"?>
<svg xmlns="http://www.w3.org/2000/svg" xmlns:xlink="http://www.w3.org/1999/xlink" width="600" height="400" viewBox="0 0 2400 1600">
<defs>
  <clipPath id="clip060">
    <rect x="0" y="0" width="2400" height="1600"/>
  </clipPath>
</defs>
<path clip-path="url(#clip060)" d="M0 1600 L2400 1600 L2400 0 L0 0  Z" fill="#ffffff" fill-rule="evenodd" fill-opacity="1"/>
<defs>
  <clipPath id="clip061">
    <rect x="480" y="0" width="1681" height="1600"/>
  </clipPath>
</defs>
<path clip-path="url(#clip060)" d="M249.542 1423.18 L2352.76 1423.18 L2352.76 123.472 L249.542 123.472  Z" fill="#ffffff" fill-rule="evenodd" fill-opacity="1"/>
<defs>
  <clipPath id="clip062">
    <rect x="249" y="123" width="2104" height="1301"/>
  </clipPath>
</defs>
<polyline clip-path="url(#clip062)" style="stroke:#000000; stroke-linecap:round; stroke-linejoin:round; stroke-width:2; stroke-opacity:0.1; fill:none" points="533.085,1423.18 533.085,123.472 "/>
<polyline clip-path="url(#clip062)" style="stroke:#000000; stroke-linecap:round; stroke-linejoin:round; stroke-width:2; stroke-opacity:0.1; fill:none" points="917.117,1423.18 917.117,123.472 "/>
<polyline clip-path="url(#clip062)" style="stroke:#000000; stroke-linecap:round; stroke-linejoin:round; stroke-width:2; stroke-opacity:0.1; fill:none" points="1301.15,1423.18 1301.15,123.472 "/>
<polyline clip-path="url(#clip062)" style="stroke:#000000; stroke-linecap:round; stroke-linejoin:round; stroke-width:2; stroke-opacity:0.1; fill:none" points="1685.18,1423.18 1685.18,123.472 "/>
<polyline clip-path="url(#clip062)" style="stroke:#000000; stroke-linecap:round; stroke-linejoin:round; stroke-width:2; stroke-opacity:0.1; fill:none" points="2069.21,1423.18 2069.21,123.472 "/>
<polyline clip-path="url(#clip062)" style="stroke:#000000; stroke-linecap:round; stroke-linejoin:round; stroke-width:2; stroke-opacity:0.1; fill:none" points="249.542,1423.18 2352.76,1423.18 "/>
<polyline clip-path="url(#clip062)" style="stroke:#000000; stroke-linecap:round; stroke-linejoin:round; stroke-width:2; stroke-opacity:0.1; fill:none" points="249.542,1127.79 2352.76,1127.79 "/>
<polyline clip-path="url(#clip062)" style="stroke:#000000; stroke-linecap:round; stroke-linejoin:round; stroke-width:2; stroke-opacity:0.1; fill:none" points="249.542,832.404 2352.76,832.404 "/>
<polyline clip-path="url(#clip062)" style="stroke:#000000; stroke-linecap:round; stroke-linejoin:round; stroke-width:2; stroke-opacity:0.1; fill:none" points="249.542,537.015 2352.76,537.015 "/>
<polyline clip-path="url(#clip062)" style="stroke:#000000; stroke-linecap:round; stroke-linejoin:round; stroke-width:2; stroke-opacity:0.1; fill:none" points="249.542,241.627 2352.76,241.627 "/>
<polyline clip-path="url(#clip060)" style="stroke:#000000; stroke-linecap:round; stroke-linejoin:round; stroke-width:4; stroke-opacity:1; fill:none" points="249.542,1423.18 2352.76,1423.18 "/>
<polyline clip-path="url(#clip060)" style="stroke:#000000; stroke-linecap:round; stroke-linejoin:round; stroke-width:4; stroke-opacity:1; fill:none" points="533.085,1423.18 533.085,1404.28 "/>
<polyline clip-path="url(#clip060)" style="stroke:#000000; stroke-linecap:round; stroke-linejoin:round; stroke-width:4; stroke-opacity:1; fill:none" points="917.117,1423.18 917.117,1404.28 "/>
<polyline clip-path="url(#clip060)" style="stroke:#000000; stroke-linecap:round; stroke-linejoin:round; stroke-width:4; stroke-opacity:1; fill:none" points="1301.15,1423.18 1301.15,1404.28 "/>
<polyline clip-path="url(#clip060)" style="stroke:#000000; stroke-linecap:round; stroke-linejoin:round; stroke-width:4; stroke-opacity:1; fill:none" points="1685.18,1423.18 1685.18,1404.28 "/>
<polyline clip-path="url(#clip060)" style="stroke:#000000; stroke-linecap:round; stroke-linejoin:round; stroke-width:4; stroke-opacity:1; fill:none" points="2069.21,1423.18 2069.21,1404.28 "/>
<path clip-path="url(#clip060)" d="M502.148 1468.75 L531.824 1468.75 L531.824 1472.69 L502.148 1472.69 L502.148 1468.75 Z" fill="#000000" fill-rule="nonzero" fill-opacity="1" /><path clip-path="url(#clip060)" d="M552.495 1466.44 Q549.347 1466.44 547.495 1468.59 Q545.666 1470.74 545.666 1474.49 Q545.666 1478.22 547.495 1480.39 Q549.347 1482.55 552.495 1482.55 Q555.643 1482.55 557.472 1480.39 Q559.324 1478.22 559.324 1474.49 Q559.324 1470.74 557.472 1468.59 Q555.643 1466.44 552.495 1466.44 M561.777 1451.78 L561.777 1456.04 Q560.018 1455.21 558.213 1454.77 Q556.43 1454.33 554.671 1454.33 Q550.041 1454.33 547.588 1457.45 Q545.157 1460.58 544.81 1466.9 Q546.176 1464.89 548.236 1463.82 Q550.296 1462.73 552.773 1462.73 Q557.981 1462.73 560.99 1465.9 Q564.023 1469.05 564.023 1474.49 Q564.023 1479.82 560.875 1483.03 Q557.727 1486.25 552.495 1486.25 Q546.5 1486.25 543.328 1481.67 Q540.157 1477.06 540.157 1468.33 Q540.157 1460.14 544.046 1455.28 Q547.935 1450.39 554.486 1450.39 Q556.245 1450.39 558.027 1450.74 Q559.833 1451.09 561.777 1451.78 Z" fill="#000000" fill-rule="nonzero" fill-opacity="1" /><path clip-path="url(#clip060)" d="M886.585 1468.75 L916.261 1468.75 L916.261 1472.69 L886.585 1472.69 L886.585 1468.75 Z" fill="#000000" fill-rule="nonzero" fill-opacity="1" /><path clip-path="url(#clip060)" d="M940.52 1466.95 Q943.876 1467.66 945.751 1469.93 Q947.649 1472.2 947.649 1475.53 Q947.649 1480.65 944.131 1483.45 Q940.612 1486.25 934.131 1486.25 Q931.955 1486.25 929.64 1485.81 Q927.349 1485.39 924.895 1484.54 L924.895 1480.02 Q926.839 1481.16 929.154 1481.74 Q931.469 1482.32 933.992 1482.32 Q938.39 1482.32 940.682 1480.58 Q942.997 1478.84 942.997 1475.53 Q942.997 1472.48 940.844 1470.77 Q938.714 1469.03 934.895 1469.03 L930.867 1469.03 L930.867 1465.19 L935.08 1465.19 Q938.529 1465.19 940.358 1463.82 Q942.187 1462.43 942.187 1459.84 Q942.187 1457.18 940.288 1455.77 Q938.413 1454.33 934.895 1454.33 Q932.974 1454.33 930.775 1454.75 Q928.575 1455.16 925.937 1456.04 L925.937 1451.88 Q928.599 1451.14 930.913 1450.77 Q933.251 1450.39 935.312 1450.39 Q940.636 1450.39 943.737 1452.83 Q946.839 1455.23 946.839 1459.35 Q946.839 1462.22 945.196 1464.21 Q943.552 1466.18 940.52 1466.95 Z" fill="#000000" fill-rule="nonzero" fill-opacity="1" /><path clip-path="url(#clip060)" d="M1301.15 1454.1 Q1297.54 1454.1 1295.71 1457.66 Q1293.9 1461.2 1293.9 1468.33 Q1293.9 1475.44 1295.71 1479.01 Q1297.54 1482.55 1301.15 1482.55 Q1304.78 1482.55 1306.59 1479.01 Q1308.42 1475.44 1308.42 1468.33 Q1308.42 1461.2 1306.59 1457.66 Q1304.78 1454.1 1301.15 1454.1 M1301.15 1450.39 Q1306.96 1450.39 1310.01 1455 Q1313.09 1459.58 1313.09 1468.33 Q1313.09 1477.06 1310.01 1481.67 Q1306.96 1486.25 1301.15 1486.25 Q1295.34 1486.25 1292.26 1481.67 Q1289.2 1477.06 1289.2 1468.33 Q1289.2 1459.58 1292.26 1455 Q1295.34 1450.39 1301.15 1450.39 Z" fill="#000000" fill-rule="nonzero" fill-opacity="1" /><path clip-path="url(#clip060)" d="M1689.43 1466.95 Q1692.78 1467.66 1694.66 1469.93 Q1696.56 1472.2 1696.56 1475.53 Q1696.56 1480.65 1693.04 1483.45 Q1689.52 1486.25 1683.04 1486.25 Q1680.86 1486.25 1678.55 1485.81 Q1676.26 1485.39 1673.8 1484.54 L1673.8 1480.02 Q1675.75 1481.16 1678.06 1481.74 Q1680.38 1482.32 1682.9 1482.32 Q1687.3 1482.32 1689.59 1480.58 Q1691.91 1478.84 1691.91 1475.53 Q1691.91 1472.48 1689.75 1470.77 Q1687.62 1469.03 1683.8 1469.03 L1679.78 1469.03 L1679.78 1465.19 L1683.99 1465.19 Q1687.44 1465.19 1689.27 1463.82 Q1691.1 1462.43 1691.1 1459.84 Q1691.1 1457.18 1689.2 1455.77 Q1687.32 1454.33 1683.8 1454.33 Q1681.88 1454.33 1679.68 1454.75 Q1677.48 1455.16 1674.85 1456.04 L1674.85 1451.88 Q1677.51 1451.14 1679.82 1450.77 Q1682.16 1450.39 1684.22 1450.39 Q1689.54 1450.39 1692.65 1452.83 Q1695.75 1455.23 1695.75 1459.35 Q1695.75 1462.22 1694.1 1464.21 Q1692.46 1466.18 1689.43 1466.95 Z" fill="#000000" fill-rule="nonzero" fill-opacity="1" /><path clip-path="url(#clip060)" d="M2069.62 1466.44 Q2066.47 1466.44 2064.62 1468.59 Q2062.79 1470.74 2062.79 1474.49 Q2062.79 1478.22 2064.62 1480.39 Q2066.47 1482.55 2069.62 1482.55 Q2072.77 1482.55 2074.59 1480.39 Q2076.45 1478.22 2076.45 1474.49 Q2076.45 1470.74 2074.59 1468.59 Q2072.77 1466.44 2069.62 1466.44 M2078.9 1451.78 L2078.9 1456.04 Q2077.14 1455.21 2075.34 1454.77 Q2073.55 1454.33 2071.79 1454.33 Q2067.16 1454.33 2064.71 1457.45 Q2062.28 1460.58 2061.93 1466.9 Q2063.3 1464.89 2065.36 1463.82 Q2067.42 1462.73 2069.9 1462.73 Q2075.1 1462.73 2078.11 1465.9 Q2081.15 1469.05 2081.15 1474.49 Q2081.15 1479.82 2078 1483.03 Q2074.85 1486.25 2069.62 1486.25 Q2063.62 1486.25 2060.45 1481.67 Q2057.28 1477.06 2057.28 1468.33 Q2057.28 1460.14 2061.17 1455.28 Q2065.06 1450.39 2071.61 1450.39 Q2073.37 1450.39 2075.15 1450.74 Q2076.96 1451.09 2078.9 1451.78 Z" fill="#000000" fill-rule="nonzero" fill-opacity="1" /><path clip-path="url(#clip060)" d="M979.872 1520.52 L1009.92 1520.52 L1009.92 1525.93 L986.301 1525.93 L986.301 1540 L1008.93 1540 L1008.93 1545.41 L986.301 1545.41 L986.301 1562.63 L1010.49 1562.63 L1010.49 1568.04 L979.872 1568.04 L979.872 1520.52 Z" fill="#000000" fill-rule="nonzero" fill-opacity="1" /><path clip-path="url(#clip060)" d="M1020.8 1518.52 L1026.66 1518.52 L1026.66 1568.04 L1020.8 1568.04 L1020.8 1518.52 Z" fill="#000000" fill-rule="nonzero" fill-opacity="1" /><path clip-path="url(#clip060)" d="M1069.41 1548.76 L1069.41 1551.62 L1042.48 1551.62 Q1042.86 1557.67 1046.11 1560.85 Q1049.39 1564 1055.21 1564 Q1058.58 1564 1061.73 1563.17 Q1064.92 1562.35 1068.04 1560.69 L1068.04 1566.23 Q1064.89 1567.57 1061.58 1568.27 Q1058.27 1568.97 1054.86 1568.97 Q1046.33 1568.97 1041.33 1564 Q1036.37 1559.04 1036.37 1550.57 Q1036.37 1541.82 1041.08 1536.69 Q1045.82 1531.54 1053.84 1531.54 Q1061.03 1531.54 1065.2 1536.18 Q1069.41 1540.8 1069.41 1548.76 M1063.55 1547.04 Q1063.49 1542.23 1060.84 1539.37 Q1058.23 1536.5 1053.9 1536.5 Q1049 1536.5 1046.04 1539.27 Q1043.12 1542.04 1042.67 1547.07 L1063.55 1547.04 Z" fill="#000000" fill-rule="nonzero" fill-opacity="1" /><path clip-path="url(#clip060)" d="M1106.77 1539.24 Q1108.97 1535.29 1112.02 1533.41 Q1115.08 1531.54 1119.22 1531.54 Q1124.79 1531.54 1127.81 1535.45 Q1130.83 1539.33 1130.83 1546.53 L1130.83 1568.04 L1124.95 1568.04 L1124.95 1546.72 Q1124.95 1541.59 1123.13 1539.11 Q1121.32 1536.63 1117.59 1536.63 Q1113.04 1536.63 1110.4 1539.65 Q1107.76 1542.68 1107.76 1547.9 L1107.76 1568.04 L1101.87 1568.04 L1101.87 1546.72 Q1101.87 1541.56 1100.06 1539.11 Q1098.24 1536.63 1094.45 1536.63 Q1089.97 1536.63 1087.32 1539.68 Q1084.68 1542.71 1084.68 1547.9 L1084.68 1568.04 L1078.79 1568.04 L1078.79 1532.4 L1084.68 1532.4 L1084.68 1537.93 Q1086.69 1534.66 1089.49 1533.1 Q1092.29 1531.54 1096.14 1531.54 Q1100.02 1531.54 1102.73 1533.51 Q1105.47 1535.48 1106.77 1539.24 Z" fill="#000000" fill-rule="nonzero" fill-opacity="1" /><path clip-path="url(#clip060)" d="M1173.01 1548.76 L1173.01 1551.62 L1146.08 1551.62 Q1146.46 1557.67 1149.71 1560.85 Q1152.99 1564 1158.81 1564 Q1162.19 1564 1165.34 1563.17 Q1168.52 1562.35 1171.64 1560.69 L1171.64 1566.23 Q1168.49 1567.57 1165.18 1568.27 Q1161.87 1568.97 1158.46 1568.97 Q1149.93 1568.97 1144.93 1564 Q1139.97 1559.04 1139.97 1550.57 Q1139.97 1541.82 1144.68 1536.69 Q1149.42 1531.54 1157.44 1531.54 Q1164.64 1531.54 1168.81 1536.18 Q1173.01 1540.8 1173.01 1548.76 M1167.15 1547.04 Q1167.09 1542.23 1164.45 1539.37 Q1161.84 1536.5 1157.51 1536.5 Q1152.61 1536.5 1149.65 1539.27 Q1146.72 1542.04 1146.27 1547.07 L1167.15 1547.04 Z" fill="#000000" fill-rule="nonzero" fill-opacity="1" /><path clip-path="url(#clip060)" d="M1212.25 1546.53 L1212.25 1568.04 L1206.4 1568.04 L1206.4 1546.72 Q1206.4 1541.66 1204.42 1539.14 Q1202.45 1536.63 1198.5 1536.63 Q1193.76 1536.63 1191.02 1539.65 Q1188.28 1542.68 1188.28 1547.9 L1188.28 1568.04 L1182.4 1568.04 L1182.4 1532.4 L1188.28 1532.4 L1188.28 1537.93 Q1190.39 1534.72 1193.22 1533.13 Q1196.08 1531.54 1199.81 1531.54 Q1205.95 1531.54 1209.1 1535.36 Q1212.25 1539.14 1212.25 1546.53 Z" fill="#000000" fill-rule="nonzero" fill-opacity="1" /><path clip-path="url(#clip060)" d="M1229.73 1522.27 L1229.73 1532.4 L1241.79 1532.4 L1241.79 1536.95 L1229.73 1536.95 L1229.73 1556.3 Q1229.73 1560.66 1230.9 1561.9 Q1232.11 1563.14 1235.77 1563.14 L1241.79 1563.14 L1241.79 1568.04 L1235.77 1568.04 Q1228.99 1568.04 1226.42 1565.53 Q1223.84 1562.98 1223.84 1556.3 L1223.84 1536.95 L1219.54 1536.95 L1219.54 1532.4 L1223.84 1532.4 L1223.84 1522.27 L1229.73 1522.27 Z" fill="#000000" fill-rule="nonzero" fill-opacity="1" /><path clip-path="url(#clip060)" d="M1276.9 1525.81 L1276.9 1543.66 L1284.98 1543.66 Q1289.47 1543.66 1291.92 1541.34 Q1294.37 1539.02 1294.37 1534.72 Q1294.37 1530.45 1291.92 1528.13 Q1289.47 1525.81 1284.98 1525.81 L1276.9 1525.81 M1270.47 1520.52 L1284.98 1520.52 Q1292.97 1520.52 1297.04 1524.15 Q1301.15 1527.75 1301.15 1534.72 Q1301.15 1541.75 1297.04 1545.35 Q1292.97 1548.95 1284.98 1548.95 L1276.9 1548.95 L1276.9 1568.04 L1270.47 1568.04 L1270.47 1520.52 Z" fill="#000000" fill-rule="nonzero" fill-opacity="1" /><path clip-path="url(#clip060)" d="M1321.01 1536.5 Q1316.3 1536.5 1313.56 1540.19 Q1310.82 1543.85 1310.82 1550.25 Q1310.82 1556.65 1313.53 1560.34 Q1316.27 1564 1321.01 1564 Q1325.69 1564 1328.43 1560.31 Q1331.16 1556.62 1331.16 1550.25 Q1331.16 1543.92 1328.43 1540.23 Q1325.69 1536.5 1321.01 1536.5 M1321.01 1531.54 Q1328.65 1531.54 1333.01 1536.5 Q1337.37 1541.47 1337.37 1550.25 Q1337.37 1559 1333.01 1564 Q1328.65 1568.97 1321.01 1568.97 Q1313.34 1568.97 1308.98 1564 Q1304.65 1559 1304.65 1550.25 Q1304.65 1541.47 1308.98 1536.5 Q1313.34 1531.54 1321.01 1531.54 Z" fill="#000000" fill-rule="nonzero" fill-opacity="1" /><path clip-path="url(#clip060)" d="M1369.8 1533.45 L1369.8 1538.98 Q1367.32 1537.71 1364.65 1537.07 Q1361.97 1536.44 1359.11 1536.44 Q1354.75 1536.44 1352.55 1537.77 Q1350.39 1539.11 1350.39 1541.79 Q1350.39 1543.82 1351.95 1545 Q1353.51 1546.15 1358.22 1547.2 L1360.22 1547.64 Q1366.46 1548.98 1369.07 1551.43 Q1371.71 1553.85 1371.71 1558.21 Q1371.71 1563.17 1367.77 1566.07 Q1363.85 1568.97 1356.98 1568.97 Q1354.11 1568.97 1350.99 1568.39 Q1347.91 1567.85 1344.47 1566.74 L1344.47 1560.69 Q1347.71 1562.38 1350.87 1563.24 Q1354.02 1564.07 1357.1 1564.07 Q1361.24 1564.07 1363.47 1562.66 Q1365.7 1561.23 1365.7 1558.65 Q1365.7 1556.27 1364.07 1554.99 Q1362.48 1553.72 1357.04 1552.54 L1355 1552.07 Q1349.56 1550.92 1347.14 1548.56 Q1344.72 1546.18 1344.72 1542.04 Q1344.72 1537.01 1348.29 1534.27 Q1351.85 1531.54 1358.41 1531.54 Q1361.66 1531.54 1364.52 1532.01 Q1367.38 1532.49 1369.8 1533.45 Z" fill="#000000" fill-rule="nonzero" fill-opacity="1" /><path clip-path="url(#clip060)" d="M1381.04 1532.4 L1386.9 1532.4 L1386.9 1568.04 L1381.04 1568.04 L1381.04 1532.4 M1381.04 1518.52 L1386.9 1518.52 L1386.9 1525.93 L1381.04 1525.93 L1381.04 1518.52 Z" fill="#000000" fill-rule="nonzero" fill-opacity="1" /><path clip-path="url(#clip060)" d="M1404.94 1522.27 L1404.94 1532.4 L1417 1532.4 L1417 1536.95 L1404.94 1536.95 L1404.94 1556.3 Q1404.94 1560.66 1406.12 1561.9 Q1407.33 1563.14 1410.99 1563.14 L1417 1563.14 L1417 1568.04 L1410.99 1568.04 Q1404.21 1568.04 1401.63 1565.53 Q1399.05 1562.98 1399.05 1556.3 L1399.05 1536.95 L1394.76 1536.95 L1394.76 1532.4 L1399.05 1532.4 L1399.05 1522.27 L1404.94 1522.27 Z" fill="#000000" fill-rule="nonzero" fill-opacity="1" /><path clip-path="url(#clip060)" d="M1424.71 1532.4 L1430.56 1532.4 L1430.56 1568.04 L1424.71 1568.04 L1424.71 1532.4 M1424.71 1518.52 L1430.56 1518.52 L1430.56 1525.93 L1424.71 1525.93 L1424.71 1518.52 Z" fill="#000000" fill-rule="nonzero" fill-opacity="1" /><path clip-path="url(#clip060)" d="M1456.63 1536.5 Q1451.92 1536.5 1449.18 1540.19 Q1446.45 1543.85 1446.45 1550.25 Q1446.45 1556.65 1449.15 1560.34 Q1451.89 1564 1456.63 1564 Q1461.31 1564 1464.05 1560.31 Q1466.78 1556.62 1466.78 1550.25 Q1466.78 1543.92 1464.05 1540.23 Q1461.31 1536.5 1456.63 1536.5 M1456.63 1531.54 Q1464.27 1531.54 1468.63 1536.5 Q1472.99 1541.47 1472.99 1550.25 Q1472.99 1559 1468.63 1564 Q1464.27 1568.97 1456.63 1568.97 Q1448.96 1568.97 1444.6 1564 Q1440.27 1559 1440.27 1550.25 Q1440.27 1541.47 1444.6 1536.5 Q1448.96 1531.54 1456.63 1531.54 Z" fill="#000000" fill-rule="nonzero" fill-opacity="1" /><path clip-path="url(#clip060)" d="M1512.33 1546.53 L1512.33 1568.04 L1506.47 1568.04 L1506.47 1546.72 Q1506.47 1541.66 1504.5 1539.14 Q1502.53 1536.63 1498.58 1536.63 Q1493.84 1536.63 1491.1 1539.65 Q1488.36 1542.68 1488.36 1547.9 L1488.36 1568.04 L1482.48 1568.04 L1482.48 1532.4 L1488.36 1532.4 L1488.36 1537.93 Q1490.47 1534.72 1493.3 1533.13 Q1496.16 1531.54 1499.89 1531.54 Q1506.03 1531.54 1509.18 1535.36 Q1512.33 1539.14 1512.33 1546.53 Z" fill="#000000" fill-rule="nonzero" fill-opacity="1" /><path clip-path="url(#clip060)" d="M1544.19 1518.52 L1557.69 1518.52 L1557.69 1523.07 L1550.05 1523.07 L1550.05 1572.09 L1557.69 1572.09 L1557.69 1576.64 L1544.19 1576.64 L1544.19 1518.52 Z" fill="#000000" fill-rule="nonzero" fill-opacity="1" /><path clip-path="url(#clip060)" d="M1584.2 1524.09 L1600.66 1568.04 L1594.45 1568.04 L1584.45 1541.69 L1572.17 1568.04 L1565.96 1568.04 L1581.59 1533.86 L1579.23 1527.56 Q1577.74 1523.55 1574.33 1523.55 L1571.28 1523.55 L1571.28 1518.52 L1575 1518.58 Q1582.19 1518.68 1584.2 1524.09 Z" fill="#000000" fill-rule="nonzero" fill-opacity="1" /><path clip-path="url(#clip060)" d="M1622.43 1518.52 L1622.43 1576.64 L1608.93 1576.64 L1608.93 1572.09 L1616.54 1572.09 L1616.54 1523.07 L1608.93 1523.07 L1608.93 1518.52 L1622.43 1518.52 Z" fill="#000000" fill-rule="nonzero" fill-opacity="1" /><polyline clip-path="url(#clip060)" style="stroke:#000000; stroke-linecap:round; stroke-linejoin:round; stroke-width:4; stroke-opacity:1; fill:none" points="249.542,1423.18 249.542,123.472 "/>
<polyline clip-path="url(#clip060)" style="stroke:#000000; stroke-linecap:round; stroke-linejoin:round; stroke-width:4; stroke-opacity:1; fill:none" points="249.542,1423.18 268.44,1423.18 "/>
<polyline clip-path="url(#clip060)" style="stroke:#000000; stroke-linecap:round; stroke-linejoin:round; stroke-width:4; stroke-opacity:1; fill:none" points="249.542,1127.79 268.44,1127.79 "/>
<polyline clip-path="url(#clip060)" style="stroke:#000000; stroke-linecap:round; stroke-linejoin:round; stroke-width:4; stroke-opacity:1; fill:none" points="249.542,832.404 268.44,832.404 "/>
<polyline clip-path="url(#clip060)" style="stroke:#000000; stroke-linecap:round; stroke-linejoin:round; stroke-width:4; stroke-opacity:1; fill:none" points="249.542,537.015 268.44,537.015 "/>
<polyline clip-path="url(#clip060)" style="stroke:#000000; stroke-linecap:round; stroke-linejoin:round; stroke-width:4; stroke-opacity:1; fill:none" points="249.542,241.627 268.44,241.627 "/>
<path clip-path="url(#clip060)" d="M126.205 1408.98 Q122.593 1408.98 120.765 1412.54 Q118.959 1416.08 118.959 1423.21 Q118.959 1430.32 120.765 1433.89 Q122.593 1437.43 126.205 1437.43 Q129.839 1437.43 131.644 1433.89 Q133.473 1430.32 133.473 1423.21 Q133.473 1416.08 131.644 1412.54 Q129.839 1408.98 126.205 1408.98 M126.205 1405.27 Q132.015 1405.27 135.07 1409.88 Q138.149 1414.46 138.149 1423.21 Q138.149 1431.94 135.07 1436.55 Q132.015 1441.13 126.205 1441.13 Q120.394 1441.13 117.316 1436.55 Q114.26 1431.94 114.26 1423.21 Q114.26 1414.46 117.316 1409.88 Q120.394 1405.27 126.205 1405.27 Z" fill="#000000" fill-rule="nonzero" fill-opacity="1" /><path clip-path="url(#clip060)" d="M146.366 1434.58 L151.251 1434.58 L151.251 1440.46 L146.366 1440.46 L146.366 1434.58 Z" fill="#000000" fill-rule="nonzero" fill-opacity="1" /><path clip-path="url(#clip060)" d="M171.436 1408.98 Q167.825 1408.98 165.996 1412.54 Q164.19 1416.08 164.19 1423.21 Q164.19 1430.32 165.996 1433.89 Q167.825 1437.43 171.436 1437.43 Q175.07 1437.43 176.876 1433.89 Q178.704 1430.32 178.704 1423.21 Q178.704 1416.08 176.876 1412.54 Q175.07 1408.98 171.436 1408.98 M171.436 1405.27 Q177.246 1405.27 180.301 1409.88 Q183.38 1414.46 183.38 1423.21 Q183.38 1431.94 180.301 1436.55 Q177.246 1441.13 171.436 1441.13 Q165.626 1441.13 162.547 1436.55 Q159.491 1431.94 159.491 1423.21 Q159.491 1414.46 162.547 1409.88 Q165.626 1405.27 171.436 1405.27 Z" fill="#000000" fill-rule="nonzero" fill-opacity="1" /><path clip-path="url(#clip060)" d="M201.598 1408.98 Q197.987 1408.98 196.158 1412.54 Q194.352 1416.08 194.352 1423.21 Q194.352 1430.32 196.158 1433.89 Q197.987 1437.43 201.598 1437.43 Q205.232 1437.43 207.037 1433.89 Q208.866 1430.32 208.866 1423.21 Q208.866 1416.08 207.037 1412.54 Q205.232 1408.98 201.598 1408.98 M201.598 1405.27 Q207.408 1405.27 210.463 1409.88 Q213.542 1414.46 213.542 1423.21 Q213.542 1431.94 210.463 1436.55 Q207.408 1441.13 201.598 1441.13 Q195.787 1441.13 192.709 1436.55 Q189.653 1431.94 189.653 1423.21 Q189.653 1414.46 192.709 1409.88 Q195.787 1405.27 201.598 1405.27 Z" fill="#000000" fill-rule="nonzero" fill-opacity="1" /><path clip-path="url(#clip060)" d="M127.2 1113.59 Q123.589 1113.59 121.76 1117.16 Q119.955 1120.7 119.955 1127.83 Q119.955 1134.93 121.76 1138.5 Q123.589 1142.04 127.2 1142.04 Q130.834 1142.04 132.64 1138.5 Q134.468 1134.93 134.468 1127.83 Q134.468 1120.7 132.64 1117.16 Q130.834 1113.59 127.2 1113.59 M127.2 1109.89 Q133.01 1109.89 136.066 1114.49 Q139.144 1119.08 139.144 1127.83 Q139.144 1136.55 136.066 1141.16 Q133.01 1145.74 127.2 1145.74 Q121.39 1145.74 118.311 1141.16 Q115.256 1136.55 115.256 1127.83 Q115.256 1119.08 118.311 1114.49 Q121.39 1109.89 127.2 1109.89 Z" fill="#000000" fill-rule="nonzero" fill-opacity="1" /><path clip-path="url(#clip060)" d="M147.362 1139.19 L152.246 1139.19 L152.246 1145.07 L147.362 1145.07 L147.362 1139.19 Z" fill="#000000" fill-rule="nonzero" fill-opacity="1" /><path clip-path="url(#clip060)" d="M166.459 1141.14 L182.778 1141.14 L182.778 1145.07 L160.834 1145.07 L160.834 1141.14 Q163.496 1138.38 168.079 1133.75 Q172.686 1129.1 173.866 1127.76 Q176.112 1125.23 176.991 1123.5 Q177.894 1121.74 177.894 1120.05 Q177.894 1117.29 175.95 1115.56 Q174.028 1113.82 170.927 1113.82 Q168.727 1113.82 166.274 1114.59 Q163.843 1115.35 161.065 1116.9 L161.065 1112.18 Q163.89 1111.04 166.343 1110.47 Q168.797 1109.89 170.834 1109.89 Q176.204 1109.89 179.399 1112.57 Q182.593 1115.26 182.593 1119.75 Q182.593 1121.88 181.783 1123.8 Q180.996 1125.7 178.889 1128.29 Q178.311 1128.96 175.209 1132.18 Q172.107 1135.37 166.459 1141.14 Z" fill="#000000" fill-rule="nonzero" fill-opacity="1" /><path clip-path="url(#clip060)" d="M192.639 1110.51 L210.996 1110.51 L210.996 1114.45 L196.922 1114.45 L196.922 1122.92 Q197.94 1122.57 198.959 1122.41 Q199.977 1122.22 200.996 1122.22 Q206.783 1122.22 210.162 1125.4 Q213.542 1128.57 213.542 1133.98 Q213.542 1139.56 210.07 1142.66 Q206.598 1145.74 200.278 1145.74 Q198.102 1145.74 195.834 1145.37 Q193.588 1145 191.181 1144.26 L191.181 1139.56 Q193.264 1140.7 195.487 1141.25 Q197.709 1141.81 200.186 1141.81 Q204.19 1141.81 206.528 1139.7 Q208.866 1137.59 208.866 1133.98 Q208.866 1130.37 206.528 1128.27 Q204.19 1126.16 200.186 1126.16 Q198.311 1126.16 196.436 1126.58 Q194.584 1126.99 192.639 1127.87 L192.639 1110.51 Z" fill="#000000" fill-rule="nonzero" fill-opacity="1" /><path clip-path="url(#clip060)" d="M126.205 818.202 Q122.593 818.202 120.765 821.767 Q118.959 825.309 118.959 832.438 Q118.959 839.545 120.765 843.11 Q122.593 846.651 126.205 846.651 Q129.839 846.651 131.644 843.11 Q133.473 839.545 133.473 832.438 Q133.473 825.309 131.644 821.767 Q129.839 818.202 126.205 818.202 M126.205 814.499 Q132.015 814.499 135.07 819.105 Q138.149 823.688 138.149 832.438 Q138.149 841.165 135.07 845.772 Q132.015 850.355 126.205 850.355 Q120.394 850.355 117.316 845.772 Q114.26 841.165 114.26 832.438 Q114.26 823.688 117.316 819.105 Q120.394 814.499 126.205 814.499 Z" fill="#000000" fill-rule="nonzero" fill-opacity="1" /><path clip-path="url(#clip060)" d="M146.366 843.804 L151.251 843.804 L151.251 849.684 L146.366 849.684 L146.366 843.804 Z" fill="#000000" fill-rule="nonzero" fill-opacity="1" /><path clip-path="url(#clip060)" d="M161.482 815.124 L179.839 815.124 L179.839 819.059 L165.765 819.059 L165.765 827.531 Q166.783 827.184 167.802 827.022 Q168.82 826.837 169.839 826.837 Q175.626 826.837 179.005 830.008 Q182.385 833.179 182.385 838.596 Q182.385 844.174 178.913 847.276 Q175.44 850.355 169.121 850.355 Q166.945 850.355 164.677 849.985 Q162.431 849.614 160.024 848.873 L160.024 844.174 Q162.107 845.309 164.329 845.864 Q166.552 846.42 169.028 846.42 Q173.033 846.42 175.371 844.313 Q177.709 842.207 177.709 838.596 Q177.709 834.985 175.371 832.878 Q173.033 830.772 169.028 830.772 Q167.153 830.772 165.278 831.188 Q163.427 831.605 161.482 832.485 L161.482 815.124 Z" fill="#000000" fill-rule="nonzero" fill-opacity="1" /><path clip-path="url(#clip060)" d="M201.598 818.202 Q197.987 818.202 196.158 821.767 Q194.352 825.309 194.352 832.438 Q194.352 839.545 196.158 843.11 Q197.987 846.651 201.598 846.651 Q205.232 846.651 207.037 843.11 Q208.866 839.545 208.866 832.438 Q208.866 825.309 207.037 821.767 Q205.232 818.202 201.598 818.202 M201.598 814.499 Q207.408 814.499 210.463 819.105 Q213.542 823.688 213.542 832.438 Q213.542 841.165 210.463 845.772 Q207.408 850.355 201.598 850.355 Q195.787 850.355 192.709 845.772 Q189.653 841.165 189.653 832.438 Q189.653 823.688 192.709 819.105 Q195.787 814.499 201.598 814.499 Z" fill="#000000" fill-rule="nonzero" fill-opacity="1" /><path clip-path="url(#clip060)" d="M127.2 522.814 Q123.589 522.814 121.76 526.379 Q119.955 529.921 119.955 537.05 Q119.955 544.157 121.76 547.721 Q123.589 551.263 127.2 551.263 Q130.834 551.263 132.64 547.721 Q134.468 544.157 134.468 537.05 Q134.468 529.921 132.64 526.379 Q130.834 522.814 127.2 522.814 M127.2 519.11 Q133.01 519.11 136.066 523.717 Q139.144 528.3 139.144 537.05 Q139.144 545.777 136.066 550.383 Q133.01 554.967 127.2 554.967 Q121.39 554.967 118.311 550.383 Q115.256 545.777 115.256 537.05 Q115.256 528.3 118.311 523.717 Q121.39 519.11 127.2 519.11 Z" fill="#000000" fill-rule="nonzero" fill-opacity="1" /><path clip-path="url(#clip060)" d="M147.362 548.416 L152.246 548.416 L152.246 554.295 L147.362 554.295 L147.362 548.416 Z" fill="#000000" fill-rule="nonzero" fill-opacity="1" /><path clip-path="url(#clip060)" d="M161.251 519.735 L183.473 519.735 L183.473 521.726 L170.927 554.295 L166.042 554.295 L177.848 523.671 L161.251 523.671 L161.251 519.735 Z" fill="#000000" fill-rule="nonzero" fill-opacity="1" /><path clip-path="url(#clip060)" d="M192.639 519.735 L210.996 519.735 L210.996 523.671 L196.922 523.671 L196.922 532.143 Q197.94 531.796 198.959 531.634 Q199.977 531.448 200.996 531.448 Q206.783 531.448 210.162 534.62 Q213.542 537.791 213.542 543.208 Q213.542 548.786 210.07 551.888 Q206.598 554.967 200.278 554.967 Q198.102 554.967 195.834 554.596 Q193.588 554.226 191.181 553.485 L191.181 548.786 Q193.264 549.921 195.487 550.476 Q197.709 551.032 200.186 551.032 Q204.19 551.032 206.528 548.925 Q208.866 546.819 208.866 543.208 Q208.866 539.596 206.528 537.49 Q204.19 535.384 200.186 535.384 Q198.311 535.384 196.436 535.8 Q194.584 536.217 192.639 537.097 L192.639 519.735 Z" fill="#000000" fill-rule="nonzero" fill-opacity="1" /><path clip-path="url(#clip060)" d="M117.015 254.972 L124.654 254.972 L124.654 228.607 L116.343 230.273 L116.343 226.014 L124.607 224.347 L129.283 224.347 L129.283 254.972 L136.922 254.972 L136.922 258.907 L117.015 258.907 L117.015 254.972 Z" fill="#000000" fill-rule="nonzero" fill-opacity="1" /><path clip-path="url(#clip060)" d="M146.366 253.028 L151.251 253.028 L151.251 258.907 L146.366 258.907 L146.366 253.028 Z" fill="#000000" fill-rule="nonzero" fill-opacity="1" /><path clip-path="url(#clip060)" d="M171.436 227.426 Q167.825 227.426 165.996 230.991 Q164.19 234.533 164.19 241.662 Q164.19 248.769 165.996 252.333 Q167.825 255.875 171.436 255.875 Q175.07 255.875 176.876 252.333 Q178.704 248.769 178.704 241.662 Q178.704 234.533 176.876 230.991 Q175.07 227.426 171.436 227.426 M171.436 223.722 Q177.246 223.722 180.301 228.329 Q183.38 232.912 183.38 241.662 Q183.38 250.389 180.301 254.995 Q177.246 259.579 171.436 259.579 Q165.626 259.579 162.547 254.995 Q159.491 250.389 159.491 241.662 Q159.491 232.912 162.547 228.329 Q165.626 223.722 171.436 223.722 Z" fill="#000000" fill-rule="nonzero" fill-opacity="1" /><path clip-path="url(#clip060)" d="M201.598 227.426 Q197.987 227.426 196.158 230.991 Q194.352 234.533 194.352 241.662 Q194.352 248.769 196.158 252.333 Q197.987 255.875 201.598 255.875 Q205.232 255.875 207.037 252.333 Q208.866 248.769 208.866 241.662 Q208.866 234.533 207.037 230.991 Q205.232 227.426 201.598 227.426 M201.598 223.722 Q207.408 223.722 210.463 228.329 Q213.542 232.912 213.542 241.662 Q213.542 250.389 210.463 254.995 Q207.408 259.579 201.598 259.579 Q195.787 259.579 192.709 254.995 Q189.653 250.389 189.653 241.662 Q189.653 232.912 192.709 228.329 Q195.787 223.722 201.598 223.722 Z" fill="#000000" fill-rule="nonzero" fill-opacity="1" /><path clip-path="url(#clip060)" d="M16.4842 885.012 L16.4842 878.519 L56.6518 868.525 L16.4842 858.563 L16.4842 851.338 L56.6518 841.344 L16.4842 831.381 L16.4842 824.856 L64.0042 836.792 L64.0042 844.877 L22.7544 854.903 L64.0042 865.024 L64.0042 873.108 L16.4842 885.012 Z" fill="#000000" fill-rule="nonzero" fill-opacity="1" /><path clip-path="url(#clip060)" d="M44.7161 789.909 L47.5806 789.909 L47.5806 816.836 Q53.6281 816.454 56.8109 813.207 Q59.9619 809.929 59.9619 804.104 Q59.9619 800.73 59.1344 797.579 Q58.3069 794.396 56.6518 791.277 L62.1899 791.277 Q63.5267 794.428 64.227 797.738 Q64.9272 801.049 64.9272 804.454 Q64.9272 812.984 59.9619 817.981 Q54.9967 822.947 46.5303 822.947 Q37.7774 822.947 32.6531 818.236 Q27.4968 813.494 27.4968 805.473 Q27.4968 798.28 32.1438 794.11 Q36.7589 789.909 44.7161 789.909 M42.9973 795.765 Q38.1912 795.829 35.3266 798.471 Q32.4621 801.08 32.4621 805.409 Q32.4621 810.311 35.2312 813.271 Q38.0002 816.199 43.0292 816.645 L42.9973 795.765 Z" fill="#000000" fill-rule="nonzero" fill-opacity="1" /><path clip-path="url(#clip060)" d="M28.3562 780.296 L28.3562 774.44 L64.0042 774.44 L64.0042 780.296 L28.3562 780.296 M14.479 780.296 L14.479 774.44 L21.895 774.44 L21.895 780.296 L14.479 780.296 Z" fill="#000000" fill-rule="nonzero" fill-opacity="1" /><path clip-path="url(#clip060)" d="M45.7664 738.728 Q39.4007 738.728 35.8996 741.37 Q32.3984 743.98 32.3984 748.723 Q32.3984 753.433 35.8996 756.075 Q39.4007 758.685 45.7664 758.685 Q52.1003 758.685 55.6014 756.075 Q59.1026 753.433 59.1026 748.723 Q59.1026 743.98 55.6014 741.37 Q52.1003 738.728 45.7664 738.728 M59.58 732.872 Q68.683 732.872 73.1071 736.914 Q77.5631 740.956 77.5631 749.295 Q77.5631 752.383 77.0857 755.12 Q76.6401 757.857 75.6852 760.435 L69.9879 760.435 Q71.3884 757.857 72.0568 755.343 Q72.7252 752.828 72.7252 750.218 Q72.7252 744.458 69.7015 741.593 Q66.7096 738.728 60.6303 738.728 L57.7339 738.728 Q60.885 740.543 62.4446 743.375 Q64.0042 746.208 64.0042 750.155 Q64.0042 756.711 59.0071 760.722 Q54.01 764.732 45.7664 764.732 Q37.491 764.732 32.4939 760.722 Q27.4968 756.711 27.4968 750.155 Q27.4968 746.208 29.0564 743.375 Q30.616 740.543 33.7671 738.728 L28.3562 738.728 L28.3562 732.872 L59.58 732.872 Z" fill="#000000" fill-rule="nonzero" fill-opacity="1" /><path clip-path="url(#clip060)" d="M42.4881 691.177 L64.0042 691.177 L64.0042 697.033 L42.679 697.033 Q37.6183 697.033 35.1038 699.006 Q32.5894 700.98 32.5894 704.926 Q32.5894 709.669 35.6131 712.406 Q38.6368 715.143 43.8567 715.143 L64.0042 715.143 L64.0042 721.032 L14.479 721.032 L14.479 715.143 L33.8944 715.143 Q30.6797 713.043 29.0883 710.21 Q27.4968 707.345 27.4968 703.621 Q27.4968 697.479 31.3163 694.328 Q35.1038 691.177 42.4881 691.177 Z" fill="#000000" fill-rule="nonzero" fill-opacity="1" /><path clip-path="url(#clip060)" d="M18.2347 673.703 L28.3562 673.703 L28.3562 661.64 L32.9077 661.64 L32.9077 673.703 L52.2594 673.703 Q56.6199 673.703 57.8613 672.525 Q59.1026 671.316 59.1026 667.655 L59.1026 661.64 L64.0042 661.64 L64.0042 667.655 Q64.0042 674.435 61.4897 677.013 Q58.9434 679.591 52.2594 679.591 L32.9077 679.591 L32.9077 683.888 L28.3562 683.888 L28.3562 679.591 L18.2347 679.591 L18.2347 673.703 Z" fill="#000000" fill-rule="nonzero" fill-opacity="1" /><path clip-path="url(#clip060)" d="M792.517 20.1573 L781.418 50.2555 L803.657 50.2555 L792.517 20.1573 M787.899 12.096 L797.176 12.096 L820.226 72.576 L811.719 72.576 L806.209 57.061 L778.947 57.061 L773.438 72.576 L764.809 72.576 L787.899 12.096 Z" fill="#000000" fill-rule="nonzero" fill-opacity="1" /><path clip-path="url(#clip060)" d="M866.446 45.1919 L866.446 72.576 L858.993 72.576 L858.993 45.4349 Q858.993 38.994 856.481 35.7938 Q853.97 32.5936 848.947 32.5936 Q842.911 32.5936 839.427 36.4419 Q835.943 40.2903 835.943 46.9338 L835.943 72.576 L828.449 72.576 L828.449 27.2059 L835.943 27.2059 L835.943 34.2544 Q838.617 30.163 842.222 28.1376 Q845.868 26.1121 850.607 26.1121 Q858.426 26.1121 862.436 30.9732 Q866.446 35.7938 866.446 45.1919 Z" fill="#000000" fill-rule="nonzero" fill-opacity="1" /><path clip-path="url(#clip060)" d="M888.686 14.324 L888.686 27.2059 L904.039 27.2059 L904.039 32.9987 L888.686 32.9987 L888.686 57.6282 Q888.686 63.1779 890.185 64.7578 Q891.724 66.3376 896.383 66.3376 L904.039 66.3376 L904.039 72.576 L896.383 72.576 Q887.754 72.576 884.473 69.3758 Q881.192 66.1351 881.192 57.6282 L881.192 32.9987 L875.723 32.9987 L875.723 27.2059 L881.192 27.2059 L881.192 14.324 L888.686 14.324 Z" fill="#000000" fill-rule="nonzero" fill-opacity="1" /><path clip-path="url(#clip060)" d="M952.65 48.0275 L952.65 51.6733 L918.379 51.6733 Q918.865 59.3701 922.997 63.421 Q927.169 67.4314 934.583 67.4314 Q938.877 67.4314 942.887 66.3781 Q946.938 65.3249 950.908 63.2184 L950.908 70.267 Q946.897 71.9684 942.684 72.8596 Q938.472 73.7508 934.137 73.7508 Q923.281 73.7508 916.921 67.4314 Q910.601 61.1119 910.601 50.3365 Q910.601 39.1965 916.597 32.6746 Q922.632 26.1121 932.841 26.1121 Q941.996 26.1121 947.302 32.0264 Q952.65 37.9003 952.65 48.0275 M945.196 45.84 Q945.115 39.7232 941.753 36.0774 Q938.431 32.4315 932.922 32.4315 Q926.683 32.4315 922.916 35.9558 Q919.189 39.4801 918.622 45.8805 L945.196 45.84 Z" fill="#000000" fill-rule="nonzero" fill-opacity="1" /><path clip-path="url(#clip060)" d="M1002.6 45.1919 L1002.6 72.576 L995.144 72.576 L995.144 45.4349 Q995.144 38.994 992.632 35.7938 Q990.121 32.5936 985.097 32.5936 Q979.062 32.5936 975.578 36.4419 Q972.094 40.2903 972.094 46.9338 L972.094 72.576 L964.6 72.576 L964.6 27.2059 L972.094 27.2059 L972.094 34.2544 Q974.768 30.163 978.373 28.1376 Q982.019 26.1121 986.758 26.1121 Q994.577 26.1121 998.587 30.9732 Q1002.6 35.7938 1002.6 45.1919 Z" fill="#000000" fill-rule="nonzero" fill-opacity="1" /><path clip-path="url(#clip060)" d="M1055.18 45.1919 L1055.18 72.576 L1047.72 72.576 L1047.72 45.4349 Q1047.72 38.994 1045.21 35.7938 Q1042.7 32.5936 1037.68 32.5936 Q1031.64 32.5936 1028.16 36.4419 Q1024.67 40.2903 1024.67 46.9338 L1024.67 72.576 L1017.18 72.576 L1017.18 27.2059 L1024.67 27.2059 L1024.67 34.2544 Q1027.35 30.163 1030.95 28.1376 Q1034.6 26.1121 1039.34 26.1121 Q1047.16 26.1121 1051.17 30.9732 Q1055.18 35.7938 1055.18 45.1919 Z" fill="#000000" fill-rule="nonzero" fill-opacity="1" /><path clip-path="url(#clip060)" d="M1090.66 49.7694 Q1081.63 49.7694 1078.15 51.8354 Q1074.66 53.9013 1074.66 58.8839 Q1074.66 62.8538 1077.26 65.2034 Q1079.89 67.5124 1084.39 67.5124 Q1090.58 67.5124 1094.31 63.1374 Q1098.08 58.7219 1098.08 51.4303 L1098.08 49.7694 L1090.66 49.7694 M1105.53 46.6907 L1105.53 72.576 L1098.08 72.576 L1098.08 65.6895 Q1095.53 69.8214 1091.72 71.8063 Q1087.91 73.7508 1082.4 73.7508 Q1075.43 73.7508 1071.3 69.8619 Q1067.21 65.9325 1067.21 59.3701 Q1067.21 51.7138 1072.31 47.825 Q1077.46 43.9361 1087.63 43.9361 L1098.08 43.9361 L1098.08 43.2069 Q1098.08 38.0623 1094.67 35.2672 Q1091.31 32.4315 1085.2 32.4315 Q1081.31 32.4315 1077.62 33.3632 Q1073.93 34.295 1070.53 36.1584 L1070.53 29.2718 Q1074.62 27.692 1078.47 26.9223 Q1082.32 26.1121 1085.96 26.1121 Q1095.81 26.1121 1100.67 31.2163 Q1105.53 36.3204 1105.53 46.6907 Z" fill="#000000" fill-rule="nonzero" fill-opacity="1" /><path clip-path="url(#clip060)" d="M1147.58 12.096 L1185.82 12.096 L1185.82 18.9825 L1155.76 18.9825 L1155.76 36.8875 L1184.56 36.8875 L1184.56 43.7741 L1155.76 43.7741 L1155.76 65.6895 L1186.55 65.6895 L1186.55 72.576 L1147.58 72.576 L1147.58 12.096 Z" fill="#000000" fill-rule="nonzero" fill-opacity="1" /><path clip-path="url(#clip060)" d="M1199.67 9.54393 L1207.13 9.54393 L1207.13 72.576 L1199.67 72.576 L1199.67 9.54393 Z" fill="#000000" fill-rule="nonzero" fill-opacity="1" /><path clip-path="url(#clip060)" d="M1261.53 48.0275 L1261.53 51.6733 L1227.26 51.6733 Q1227.75 59.3701 1231.88 63.421 Q1236.05 67.4314 1243.46 67.4314 Q1247.76 67.4314 1251.77 66.3781 Q1255.82 65.3249 1259.79 63.2184 L1259.79 70.267 Q1255.78 71.9684 1251.57 72.8596 Q1247.35 73.7508 1243.02 73.7508 Q1232.16 73.7508 1225.8 67.4314 Q1219.48 61.1119 1219.48 50.3365 Q1219.48 39.1965 1225.48 32.6746 Q1231.51 26.1121 1241.72 26.1121 Q1250.88 26.1121 1256.18 32.0264 Q1261.53 37.9003 1261.53 48.0275 M1254.08 45.84 Q1254 39.7232 1250.63 36.0774 Q1247.31 32.4315 1241.8 32.4315 Q1235.56 32.4315 1231.8 35.9558 Q1228.07 39.4801 1227.5 45.8805 L1254.08 45.84 Z" fill="#000000" fill-rule="nonzero" fill-opacity="1" /><path clip-path="url(#clip060)" d="M1309.09 35.9153 Q1311.88 30.8922 1315.77 28.5022 Q1319.66 26.1121 1324.93 26.1121 Q1332.02 26.1121 1335.87 31.0947 Q1339.71 36.0368 1339.71 45.1919 L1339.71 72.576 L1332.22 72.576 L1332.22 45.4349 Q1332.22 38.913 1329.91 35.7533 Q1327.6 32.5936 1322.86 32.5936 Q1317.07 32.5936 1313.71 36.4419 Q1310.34 40.2903 1310.34 46.9338 L1310.34 72.576 L1302.85 72.576 L1302.85 45.4349 Q1302.85 38.8725 1300.54 35.7533 Q1298.23 32.5936 1293.41 32.5936 Q1287.7 32.5936 1284.34 36.4824 Q1280.98 40.3308 1280.98 46.9338 L1280.98 72.576 L1273.48 72.576 L1273.48 27.2059 L1280.98 27.2059 L1280.98 34.2544 Q1283.53 30.082 1287.09 28.0971 Q1290.66 26.1121 1295.56 26.1121 Q1300.5 26.1121 1303.94 28.6237 Q1307.43 31.1352 1309.09 35.9153 Z" fill="#000000" fill-rule="nonzero" fill-opacity="1" /><path clip-path="url(#clip060)" d="M1393.39 48.0275 L1393.39 51.6733 L1359.12 51.6733 Q1359.6 59.3701 1363.74 63.421 Q1367.91 67.4314 1375.32 67.4314 Q1379.61 67.4314 1383.63 66.3781 Q1387.68 65.3249 1391.65 63.2184 L1391.65 70.267 Q1387.64 71.9684 1383.42 72.8596 Q1379.21 73.7508 1374.88 73.7508 Q1364.02 73.7508 1357.66 67.4314 Q1351.34 61.1119 1351.34 50.3365 Q1351.34 39.1965 1357.34 32.6746 Q1363.37 26.1121 1373.58 26.1121 Q1382.73 26.1121 1388.04 32.0264 Q1393.39 37.9003 1393.39 48.0275 M1385.93 45.84 Q1385.85 39.7232 1382.49 36.0774 Q1379.17 32.4315 1373.66 32.4315 Q1367.42 32.4315 1363.65 35.9558 Q1359.93 39.4801 1359.36 45.8805 L1385.93 45.84 Z" fill="#000000" fill-rule="nonzero" fill-opacity="1" /><path clip-path="url(#clip060)" d="M1443.34 45.1919 L1443.34 72.576 L1435.88 72.576 L1435.88 45.4349 Q1435.88 38.994 1433.37 35.7938 Q1430.86 32.5936 1425.84 32.5936 Q1419.8 32.5936 1416.32 36.4419 Q1412.83 40.2903 1412.83 46.9338 L1412.83 72.576 L1405.34 72.576 L1405.34 27.2059 L1412.83 27.2059 L1412.83 34.2544 Q1415.51 30.163 1419.11 28.1376 Q1422.76 26.1121 1427.5 26.1121 Q1435.31 26.1121 1439.33 30.9732 Q1443.34 35.7938 1443.34 45.1919 Z" fill="#000000" fill-rule="nonzero" fill-opacity="1" /><path clip-path="url(#clip060)" d="M1465.58 14.324 L1465.58 27.2059 L1480.93 27.2059 L1480.93 32.9987 L1465.58 32.9987 L1465.58 57.6282 Q1465.58 63.1779 1467.07 64.7578 Q1468.61 66.3376 1473.27 66.3376 L1480.93 66.3376 L1480.93 72.576 L1473.27 72.576 Q1464.64 72.576 1461.36 69.3758 Q1458.08 66.1351 1458.08 57.6282 L1458.08 32.9987 L1452.61 32.9987 L1452.61 27.2059 L1458.08 27.2059 L1458.08 14.324 L1465.58 14.324 Z" fill="#000000" fill-rule="nonzero" fill-opacity="1" /><path clip-path="url(#clip060)" d="M1512.04 12.096 L1520.3 12.096 L1533.02 63.2184 L1545.7 12.096 L1554.9 12.096 L1567.62 63.2184 L1580.3 12.096 L1588.6 12.096 L1573.41 72.576 L1563.12 72.576 L1550.36 20.0763 L1537.48 72.576 L1527.19 72.576 L1512.04 12.096 Z" fill="#000000" fill-rule="nonzero" fill-opacity="1" /><path clip-path="url(#clip060)" d="M1633.08 48.0275 L1633.08 51.6733 L1598.81 51.6733 Q1599.3 59.3701 1603.43 63.421 Q1607.6 67.4314 1615.01 67.4314 Q1619.31 67.4314 1623.32 66.3781 Q1627.37 65.3249 1631.34 63.2184 L1631.34 70.267 Q1627.33 71.9684 1623.11 72.8596 Q1618.9 73.7508 1614.57 73.7508 Q1603.71 73.7508 1597.35 67.4314 Q1591.03 61.1119 1591.03 50.3365 Q1591.03 39.1965 1597.03 32.6746 Q1603.06 26.1121 1613.27 26.1121 Q1622.43 26.1121 1627.73 32.0264 Q1633.08 37.9003 1633.08 48.0275 M1625.63 45.84 Q1625.55 39.7232 1622.18 36.0774 Q1618.86 32.4315 1613.35 32.4315 Q1607.11 32.4315 1603.35 35.9558 Q1599.62 39.4801 1599.05 45.8805 L1625.63 45.84 Z" fill="#000000" fill-rule="nonzero" fill-opacity="1" /><path clip-path="url(#clip060)" d="M1645.31 27.2059 L1652.77 27.2059 L1652.77 72.576 L1645.31 72.576 L1645.31 27.2059 M1645.31 9.54393 L1652.77 9.54393 L1652.77 18.9825 L1645.31 18.9825 L1645.31 9.54393 Z" fill="#000000" fill-rule="nonzero" fill-opacity="1" /><path clip-path="url(#clip060)" d="M1698.22 49.3643 Q1698.22 41.2625 1694.86 36.8065 Q1691.53 32.3505 1685.5 32.3505 Q1679.5 32.3505 1676.14 36.8065 Q1672.82 41.2625 1672.82 49.3643 Q1672.82 57.4256 1676.14 61.8816 Q1679.5 66.3376 1685.5 66.3376 Q1691.53 66.3376 1694.86 61.8816 Q1698.22 57.4256 1698.22 49.3643 M1705.67 66.9452 Q1705.67 78.5308 1700.53 84.1616 Q1695.38 89.8329 1684.77 89.8329 Q1680.84 89.8329 1677.36 89.2252 Q1673.87 88.6581 1670.59 87.4428 L1670.59 80.1917 Q1673.87 81.9741 1677.07 82.8248 Q1680.27 83.6755 1683.59 83.6755 Q1690.93 83.6755 1694.57 79.8271 Q1698.22 76.0193 1698.22 68.282 L1698.22 64.5957 Q1695.91 68.6061 1692.3 70.5911 Q1688.7 72.576 1683.68 72.576 Q1675.33 72.576 1670.23 66.2161 Q1665.12 59.8562 1665.12 49.3643 Q1665.12 38.832 1670.23 32.472 Q1675.33 26.1121 1683.68 26.1121 Q1688.7 26.1121 1692.3 28.0971 Q1695.91 30.082 1698.22 34.0924 L1698.22 27.2059 L1705.67 27.2059 L1705.67 66.9452 Z" fill="#000000" fill-rule="nonzero" fill-opacity="1" /><path clip-path="url(#clip060)" d="M1758.74 45.1919 L1758.74 72.576 L1751.29 72.576 L1751.29 45.4349 Q1751.29 38.994 1748.77 35.7938 Q1746.26 32.5936 1741.24 32.5936 Q1735.2 32.5936 1731.72 36.4419 Q1728.24 40.2903 1728.24 46.9338 L1728.24 72.576 L1720.74 72.576 L1720.74 9.54393 L1728.24 9.54393 L1728.24 34.2544 Q1730.91 30.163 1734.51 28.1376 Q1738.16 26.1121 1742.9 26.1121 Q1750.72 26.1121 1754.73 30.9732 Q1758.74 35.7938 1758.74 45.1919 Z" fill="#000000" fill-rule="nonzero" fill-opacity="1" /><path clip-path="url(#clip060)" d="M1780.98 14.324 L1780.98 27.2059 L1796.33 27.2059 L1796.33 32.9987 L1780.98 32.9987 L1780.98 57.6282 Q1780.98 63.1779 1782.48 64.7578 Q1784.02 66.3376 1788.68 66.3376 L1796.33 66.3376 L1796.33 72.576 L1788.68 72.576 Q1780.05 72.576 1776.77 69.3758 Q1773.48 66.1351 1773.48 57.6282 L1773.48 32.9987 L1768.02 32.9987 L1768.02 27.2059 L1773.48 27.2059 L1773.48 14.324 L1780.98 14.324 Z" fill="#000000" fill-rule="nonzero" fill-opacity="1" /><path clip-path="url(#clip060)" d="M1835.06 28.5427 L1835.06 35.5912 Q1831.9 33.9709 1828.5 33.1607 Q1825.09 32.3505 1821.45 32.3505 Q1815.9 32.3505 1813.1 34.0519 Q1810.35 35.7533 1810.35 39.156 Q1810.35 41.7486 1812.33 43.2475 Q1814.32 44.7058 1820.31 46.0426 L1822.86 46.6097 Q1830.8 48.3111 1834.13 51.4303 Q1837.49 54.509 1837.49 60.0587 Q1837.49 66.3781 1832.47 70.0644 Q1827.48 73.7508 1818.73 73.7508 Q1815.09 73.7508 1811.12 73.0216 Q1807.19 72.3329 1802.81 70.9151 L1802.81 63.2184 Q1806.94 65.3654 1810.96 66.4591 Q1814.97 67.5124 1818.9 67.5124 Q1824.16 67.5124 1827 65.73 Q1829.83 63.9071 1829.83 60.6258 Q1829.83 57.5877 1827.77 55.9673 Q1825.74 54.3469 1818.81 52.8481 L1816.22 52.2405 Q1809.29 50.7821 1806.22 47.7845 Q1803.14 44.7463 1803.14 39.4801 Q1803.14 33.0797 1807.67 29.5959 Q1812.21 26.1121 1820.56 26.1121 Q1824.69 26.1121 1828.33 26.7198 Q1831.98 27.3274 1835.06 28.5427 Z" fill="#000000" fill-rule="nonzero" fill-opacity="1" /><circle clip-path="url(#clip062)" cx="309.067" cy="241.627" r="14.4" fill="#009af9" fill-rule="evenodd" fill-opacity="1" stroke="#000000" stroke-opacity="1" stroke-width="3.2"/>
<circle clip-path="url(#clip062)" cx="373.072" cy="241.627" r="14.4" fill="#009af9" fill-rule="evenodd" fill-opacity="1" stroke="#000000" stroke-opacity="1" stroke-width="3.2"/>
<circle clip-path="url(#clip062)" cx="437.078" cy="241.627" r="14.4" fill="#009af9" fill-rule="evenodd" fill-opacity="1" stroke="#000000" stroke-opacity="1" stroke-width="3.2"/>
<circle clip-path="url(#clip062)" cx="501.083" cy="241.627" r="14.4" fill="#009af9" fill-rule="evenodd" fill-opacity="1" stroke="#000000" stroke-opacity="1" stroke-width="3.2"/>
<circle clip-path="url(#clip062)" cx="565.088" cy="241.627" r="14.4" fill="#009af9" fill-rule="evenodd" fill-opacity="1" stroke="#000000" stroke-opacity="1" stroke-width="3.2"/>
<circle clip-path="url(#clip062)" cx="629.093" cy="241.627" r="14.4" fill="#009af9" fill-rule="evenodd" fill-opacity="1" stroke="#000000" stroke-opacity="1" stroke-width="3.2"/>
<circle clip-path="url(#clip062)" cx="693.099" cy="241.627" r="14.4" fill="#009af9" fill-rule="evenodd" fill-opacity="1" stroke="#000000" stroke-opacity="1" stroke-width="3.2"/>
<circle clip-path="url(#clip062)" cx="757.104" cy="241.627" r="14.4" fill="#009af9" fill-rule="evenodd" fill-opacity="1" stroke="#000000" stroke-opacity="1" stroke-width="3.2"/>
<circle clip-path="url(#clip062)" cx="821.109" cy="241.627" r="14.4" fill="#009af9" fill-rule="evenodd" fill-opacity="1" stroke="#000000" stroke-opacity="1" stroke-width="3.2"/>
<circle clip-path="url(#clip062)" cx="885.115" cy="241.627" r="14.4" fill="#009af9" fill-rule="evenodd" fill-opacity="1" stroke="#000000" stroke-opacity="1" stroke-width="3.2"/>
<circle clip-path="url(#clip062)" cx="949.12" cy="241.627" r="14.4" fill="#009af9" fill-rule="evenodd" fill-opacity="1" stroke="#000000" stroke-opacity="1" stroke-width="3.2"/>
<circle clip-path="url(#clip062)" cx="1013.13" cy="241.627" r="14.4" fill="#009af9" fill-rule="evenodd" fill-opacity="1" stroke="#000000" stroke-opacity="1" stroke-width="3.2"/>
<circle clip-path="url(#clip062)" cx="1077.13" cy="241.627" r="14.4" fill="#009af9" fill-rule="evenodd" fill-opacity="1" stroke="#000000" stroke-opacity="1" stroke-width="3.2"/>
<circle clip-path="url(#clip062)" cx="1141.14" cy="241.627" r="14.4" fill="#009af9" fill-rule="evenodd" fill-opacity="1" stroke="#000000" stroke-opacity="1" stroke-width="3.2"/>
<circle clip-path="url(#clip062)" cx="1205.14" cy="241.627" r="14.4" fill="#009af9" fill-rule="evenodd" fill-opacity="1" stroke="#000000" stroke-opacity="1" stroke-width="3.2"/>
<circle clip-path="url(#clip062)" cx="1269.15" cy="241.627" r="14.4" fill="#009af9" fill-rule="evenodd" fill-opacity="1" stroke="#000000" stroke-opacity="1" stroke-width="3.2"/>
<circle clip-path="url(#clip062)" cx="1333.15" cy="241.627" r="14.4" fill="#009af9" fill-rule="evenodd" fill-opacity="1" stroke="#000000" stroke-opacity="1" stroke-width="3.2"/>
<circle clip-path="url(#clip062)" cx="1397.16" cy="241.627" r="14.4" fill="#009af9" fill-rule="evenodd" fill-opacity="1" stroke="#000000" stroke-opacity="1" stroke-width="3.2"/>
<circle clip-path="url(#clip062)" cx="1461.16" cy="241.627" r="14.4" fill="#009af9" fill-rule="evenodd" fill-opacity="1" stroke="#000000" stroke-opacity="1" stroke-width="3.2"/>
<circle clip-path="url(#clip062)" cx="1525.17" cy="241.627" r="14.4" fill="#009af9" fill-rule="evenodd" fill-opacity="1" stroke="#000000" stroke-opacity="1" stroke-width="3.2"/>
<circle clip-path="url(#clip062)" cx="1589.17" cy="241.627" r="14.4" fill="#009af9" fill-rule="evenodd" fill-opacity="1" stroke="#000000" stroke-opacity="1" stroke-width="3.2"/>
<circle clip-path="url(#clip062)" cx="1653.18" cy="241.627" r="14.4" fill="#009af9" fill-rule="evenodd" fill-opacity="1" stroke="#000000" stroke-opacity="1" stroke-width="3.2"/>
<circle clip-path="url(#clip062)" cx="1717.18" cy="241.627" r="14.4" fill="#009af9" fill-rule="evenodd" fill-opacity="1" stroke="#000000" stroke-opacity="1" stroke-width="3.2"/>
<circle clip-path="url(#clip062)" cx="1781.19" cy="241.627" r="14.4" fill="#009af9" fill-rule="evenodd" fill-opacity="1" stroke="#000000" stroke-opacity="1" stroke-width="3.2"/>
<circle clip-path="url(#clip062)" cx="1845.19" cy="241.627" r="14.4" fill="#009af9" fill-rule="evenodd" fill-opacity="1" stroke="#000000" stroke-opacity="1" stroke-width="3.2"/>
<circle clip-path="url(#clip062)" cx="1909.2" cy="241.627" r="14.4" fill="#009af9" fill-rule="evenodd" fill-opacity="1" stroke="#000000" stroke-opacity="1" stroke-width="3.2"/>
<circle clip-path="url(#clip062)" cx="1973.2" cy="241.627" r="14.4" fill="#009af9" fill-rule="evenodd" fill-opacity="1" stroke="#000000" stroke-opacity="1" stroke-width="3.2"/>
<circle clip-path="url(#clip062)" cx="2037.21" cy="241.627" r="14.4" fill="#009af9" fill-rule="evenodd" fill-opacity="1" stroke="#000000" stroke-opacity="1" stroke-width="3.2"/>
<circle clip-path="url(#clip062)" cx="2101.22" cy="241.627" r="14.4" fill="#009af9" fill-rule="evenodd" fill-opacity="1" stroke="#000000" stroke-opacity="1" stroke-width="3.2"/>
<circle clip-path="url(#clip062)" cx="2165.22" cy="241.627" r="14.4" fill="#009af9" fill-rule="evenodd" fill-opacity="1" stroke="#000000" stroke-opacity="1" stroke-width="3.2"/>
<circle clip-path="url(#clip062)" cx="2229.23" cy="241.627" r="14.4" fill="#009af9" fill-rule="evenodd" fill-opacity="1" stroke="#000000" stroke-opacity="1" stroke-width="3.2"/>
<circle clip-path="url(#clip062)" cx="2293.23" cy="241.627" r="14.4" fill="#009af9" fill-rule="evenodd" fill-opacity="1" stroke="#000000" stroke-opacity="1" stroke-width="3.2"/>
</svg>
