<?xml version="1.0" encoding="utf-8"?>
<svg xmlns="http://www.w3.org/2000/svg" xmlns:xlink="http://www.w3.org/1999/xlink" width="600" height="400" viewBox="0 0 2400 1600">
<defs>
  <clipPath id="clip680">
    <rect x="0" y="0" width="2400" height="1600"/>
  </clipPath>
</defs>
<path clip-path="url(#clip680)" d="M0 1600 L2400 1600 L2400 0 L0 0  Z" fill="#ffffff" fill-rule="evenodd" fill-opacity="1"/>
<defs>
  <clipPath id="clip681">
    <rect x="480" y="0" width="1681" height="1600"/>
  </clipPath>
</defs>
<path clip-path="url(#clip680)" d="M47.2441 1423.18 L2352.76 1423.18 L2352.76 123.472 L47.2441 123.472  Z" fill="#ffffff" fill-rule="evenodd" fill-opacity="1"/>
<defs>
  <clipPath id="clip682">
    <rect x="47" y="123" width="2307" height="1301"/>
  </clipPath>
</defs>
<polyline clip-path="url(#clip682)" style="stroke:#000000; stroke-linecap:round; stroke-linejoin:round; stroke-width:2; stroke-opacity:0.1; fill:none" points="358.06,1423.18 358.06,123.472 "/>
<polyline clip-path="url(#clip682)" style="stroke:#000000; stroke-linecap:round; stroke-linejoin:round; stroke-width:2; stroke-opacity:0.1; fill:none" points="779.03,1423.18 779.03,123.472 "/>
<polyline clip-path="url(#clip682)" style="stroke:#000000; stroke-linecap:round; stroke-linejoin:round; stroke-width:2; stroke-opacity:0.1; fill:none" points="1200,1423.18 1200,123.472 "/>
<polyline clip-path="url(#clip682)" style="stroke:#000000; stroke-linecap:round; stroke-linejoin:round; stroke-width:2; stroke-opacity:0.1; fill:none" points="1620.97,1423.18 1620.97,123.472 "/>
<polyline clip-path="url(#clip682)" style="stroke:#000000; stroke-linecap:round; stroke-linejoin:round; stroke-width:2; stroke-opacity:0.1; fill:none" points="2041.94,1423.18 2041.94,123.472 "/>
<polyline clip-path="url(#clip680)" style="stroke:#000000; stroke-linecap:round; stroke-linejoin:round; stroke-width:4; stroke-opacity:1; fill:none" points="47.2441,1423.18 2352.76,1423.18 "/>
<polyline clip-path="url(#clip680)" style="stroke:#000000; stroke-linecap:round; stroke-linejoin:round; stroke-width:4; stroke-opacity:1; fill:none" points="358.06,1423.18 358.06,1404.28 "/>
<polyline clip-path="url(#clip680)" style="stroke:#000000; stroke-linecap:round; stroke-linejoin:round; stroke-width:4; stroke-opacity:1; fill:none" points="779.03,1423.18 779.03,1404.28 "/>
<polyline clip-path="url(#clip680)" style="stroke:#000000; stroke-linecap:round; stroke-linejoin:round; stroke-width:4; stroke-opacity:1; fill:none" points="1200,1423.18 1200,1404.28 "/>
<polyline clip-path="url(#clip680)" style="stroke:#000000; stroke-linecap:round; stroke-linejoin:round; stroke-width:4; stroke-opacity:1; fill:none" points="1620.97,1423.18 1620.97,1404.28 "/>
<polyline clip-path="url(#clip680)" style="stroke:#000000; stroke-linecap:round; stroke-linejoin:round; stroke-width:4; stroke-opacity:1; fill:none" points="2041.94,1423.18 2041.94,1404.28 "/>
<path clip-path="url(#clip680)" d="M327.123 1468.75 L356.799 1468.75 L356.799 1472.69 L327.123 1472.69 L327.123 1468.75 Z" fill="#000000" fill-rule="nonzero" fill-opacity="1" /><path clip-path="url(#clip680)" d="M377.47 1466.44 Q374.322 1466.44 372.47 1468.59 Q370.641 1470.74 370.641 1474.49 Q370.641 1478.22 372.47 1480.39 Q374.322 1482.55 377.47 1482.55 Q380.618 1482.55 382.447 1480.39 Q384.298 1478.22 384.298 1474.49 Q384.298 1470.74 382.447 1468.59 Q380.618 1466.44 377.47 1466.44 M386.752 1451.78 L386.752 1456.04 Q384.993 1455.21 383.187 1454.77 Q381.405 1454.33 379.646 1454.33 Q375.016 1454.33 372.562 1457.45 Q370.132 1460.58 369.785 1466.9 Q371.15 1464.89 373.211 1463.82 Q375.271 1462.73 377.748 1462.73 Q382.956 1462.73 385.965 1465.9 Q388.998 1469.05 388.998 1474.49 Q388.998 1479.82 385.849 1483.03 Q382.701 1486.25 377.47 1486.25 Q371.474 1486.25 368.303 1481.67 Q365.132 1477.06 365.132 1468.33 Q365.132 1460.14 369.021 1455.28 Q372.91 1450.39 379.461 1450.39 Q381.22 1450.39 383.002 1450.74 Q384.808 1451.09 386.752 1451.78 Z" fill="#000000" fill-rule="nonzero" fill-opacity="1" /><path clip-path="url(#clip680)" d="M748.498 1468.75 L778.174 1468.75 L778.174 1472.69 L748.498 1472.69 L748.498 1468.75 Z" fill="#000000" fill-rule="nonzero" fill-opacity="1" /><path clip-path="url(#clip680)" d="M802.433 1466.95 Q805.789 1467.66 807.664 1469.93 Q809.562 1472.2 809.562 1475.53 Q809.562 1480.65 806.044 1483.45 Q802.525 1486.25 796.044 1486.25 Q793.868 1486.25 791.553 1485.81 Q789.262 1485.39 786.808 1484.54 L786.808 1480.02 Q788.752 1481.16 791.067 1481.74 Q793.382 1482.32 795.905 1482.32 Q800.303 1482.32 802.595 1480.58 Q804.91 1478.84 804.91 1475.53 Q804.91 1472.48 802.757 1470.77 Q800.627 1469.03 796.808 1469.03 L792.78 1469.03 L792.78 1465.19 L796.993 1465.19 Q800.442 1465.19 802.271 1463.82 Q804.099 1462.43 804.099 1459.84 Q804.099 1457.18 802.201 1455.77 Q800.326 1454.33 796.808 1454.33 Q794.886 1454.33 792.687 1454.75 Q790.488 1455.16 787.849 1456.04 L787.849 1451.88 Q790.512 1451.14 792.826 1450.77 Q795.164 1450.39 797.224 1450.39 Q802.548 1450.39 805.65 1452.83 Q808.752 1455.23 808.752 1459.35 Q808.752 1462.22 807.109 1464.21 Q805.465 1466.18 802.433 1466.95 Z" fill="#000000" fill-rule="nonzero" fill-opacity="1" /><path clip-path="url(#clip680)" d="M1200 1454.1 Q1196.39 1454.1 1194.56 1457.66 Q1192.75 1461.2 1192.75 1468.33 Q1192.75 1475.44 1194.56 1479.01 Q1196.39 1482.55 1200 1482.55 Q1203.63 1482.55 1205.44 1479.01 Q1207.27 1475.44 1207.27 1468.33 Q1207.27 1461.2 1205.44 1457.66 Q1203.63 1454.1 1200 1454.1 M1200 1450.39 Q1205.81 1450.39 1208.87 1455 Q1211.94 1459.58 1211.94 1468.33 Q1211.94 1477.06 1208.87 1481.67 Q1205.81 1486.25 1200 1486.25 Q1194.19 1486.25 1191.11 1481.67 Q1188.06 1477.06 1188.06 1468.33 Q1188.06 1459.58 1191.11 1455 Q1194.19 1450.39 1200 1450.39 Z" fill="#000000" fill-rule="nonzero" fill-opacity="1" /><path clip-path="url(#clip680)" d="M1625.22 1466.95 Q1628.57 1467.66 1630.45 1469.93 Q1632.35 1472.2 1632.35 1475.53 Q1632.35 1480.65 1628.83 1483.45 Q1625.31 1486.25 1618.83 1486.25 Q1616.65 1486.25 1614.34 1485.81 Q1612.05 1485.39 1609.59 1484.54 L1609.59 1480.02 Q1611.54 1481.16 1613.85 1481.74 Q1616.17 1482.32 1618.69 1482.32 Q1623.09 1482.32 1625.38 1480.58 Q1627.69 1478.84 1627.69 1475.53 Q1627.69 1472.48 1625.54 1470.77 Q1623.41 1469.03 1619.59 1469.03 L1615.56 1469.03 L1615.56 1465.19 L1619.78 1465.19 Q1623.23 1465.19 1625.06 1463.82 Q1626.88 1462.43 1626.88 1459.84 Q1626.88 1457.18 1624.99 1455.77 Q1623.11 1454.33 1619.59 1454.33 Q1617.67 1454.33 1615.47 1454.75 Q1613.27 1455.16 1610.63 1456.04 L1610.63 1451.88 Q1613.3 1451.14 1615.61 1450.77 Q1617.95 1450.39 1620.01 1450.39 Q1625.33 1450.39 1628.44 1452.83 Q1631.54 1455.23 1631.54 1459.35 Q1631.54 1462.22 1629.89 1464.21 Q1628.25 1466.18 1625.22 1466.95 Z" fill="#000000" fill-rule="nonzero" fill-opacity="1" /><path clip-path="url(#clip680)" d="M2042.34 1466.44 Q2039.2 1466.44 2037.34 1468.59 Q2035.52 1470.74 2035.52 1474.49 Q2035.52 1478.22 2037.34 1480.39 Q2039.2 1482.55 2042.34 1482.55 Q2045.49 1482.55 2047.32 1480.39 Q2049.17 1478.22 2049.17 1474.49 Q2049.17 1470.74 2047.32 1468.59 Q2045.49 1466.44 2042.34 1466.44 M2051.63 1451.78 L2051.63 1456.04 Q2049.87 1455.21 2048.06 1454.77 Q2046.28 1454.33 2044.52 1454.33 Q2039.89 1454.33 2037.44 1457.45 Q2035.01 1460.58 2034.66 1466.9 Q2036.03 1464.89 2038.09 1463.82 Q2040.15 1462.73 2042.62 1462.73 Q2047.83 1462.73 2050.84 1465.9 Q2053.87 1469.05 2053.87 1474.49 Q2053.87 1479.82 2050.72 1483.03 Q2047.58 1486.25 2042.34 1486.25 Q2036.35 1486.25 2033.18 1481.67 Q2030.01 1477.06 2030.01 1468.33 Q2030.01 1460.14 2033.9 1455.28 Q2037.78 1450.39 2044.34 1450.39 Q2046.09 1450.39 2047.88 1450.74 Q2049.68 1451.09 2051.63 1451.78 Z" fill="#000000" fill-rule="nonzero" fill-opacity="1" /><path clip-path="url(#clip680)" d="M1030.45 1525.81 L1030.45 1543.66 L1038.53 1543.66 Q1043.02 1543.66 1045.47 1541.34 Q1047.92 1539.02 1047.92 1534.72 Q1047.92 1530.45 1045.47 1528.13 Q1043.02 1525.81 1038.53 1525.81 L1030.45 1525.81 M1024.02 1520.52 L1038.53 1520.52 Q1046.52 1520.52 1050.6 1524.15 Q1054.7 1527.75 1054.7 1534.72 Q1054.7 1541.75 1050.6 1545.35 Q1046.52 1548.95 1038.53 1548.95 L1030.45 1548.95 L1030.45 1568.04 L1024.02 1568.04 L1024.02 1520.52 Z" fill="#000000" fill-rule="nonzero" fill-opacity="1" /><path clip-path="url(#clip680)" d="M1074.56 1536.5 Q1069.85 1536.5 1067.12 1540.19 Q1064.38 1543.85 1064.38 1550.25 Q1064.38 1556.65 1067.08 1560.34 Q1069.82 1564 1074.56 1564 Q1079.24 1564 1081.98 1560.31 Q1084.72 1556.62 1084.72 1550.25 Q1084.72 1543.92 1081.98 1540.23 Q1079.24 1536.5 1074.56 1536.5 M1074.56 1531.54 Q1082.2 1531.54 1086.56 1536.5 Q1090.92 1541.47 1090.92 1550.25 Q1090.92 1559 1086.56 1564 Q1082.2 1568.97 1074.56 1568.97 Q1066.89 1568.97 1062.53 1564 Q1058.2 1559 1058.2 1550.25 Q1058.2 1541.47 1062.53 1536.5 Q1066.89 1531.54 1074.56 1531.54 Z" fill="#000000" fill-rule="nonzero" fill-opacity="1" /><path clip-path="url(#clip680)" d="M1123.36 1533.45 L1123.36 1538.98 Q1120.87 1537.71 1118.2 1537.07 Q1115.53 1536.44 1112.66 1536.44 Q1108.3 1536.44 1106.11 1537.77 Q1103.94 1539.11 1103.94 1541.79 Q1103.94 1543.82 1105.5 1545 Q1107.06 1546.15 1111.77 1547.2 L1113.78 1547.64 Q1120.01 1548.98 1122.62 1551.43 Q1125.27 1553.85 1125.27 1558.21 Q1125.27 1563.17 1121.32 1566.07 Q1117.4 1568.97 1110.53 1568.97 Q1107.67 1568.97 1104.55 1568.39 Q1101.46 1567.85 1098.02 1566.74 L1098.02 1560.69 Q1101.27 1562.38 1104.42 1563.24 Q1107.57 1564.07 1110.66 1564.07 Q1114.8 1564.07 1117.02 1562.66 Q1119.25 1561.23 1119.25 1558.65 Q1119.25 1556.27 1117.63 1554.99 Q1116.04 1553.72 1110.59 1552.54 L1108.56 1552.07 Q1103.11 1550.92 1100.69 1548.56 Q1098.28 1546.18 1098.28 1542.04 Q1098.28 1537.01 1101.84 1534.27 Q1105.41 1531.54 1111.96 1531.54 Q1115.21 1531.54 1118.07 1532.01 Q1120.94 1532.49 1123.36 1533.45 Z" fill="#000000" fill-rule="nonzero" fill-opacity="1" /><path clip-path="url(#clip680)" d="M1134.59 1532.4 L1140.45 1532.4 L1140.45 1568.04 L1134.59 1568.04 L1134.59 1532.4 M1134.59 1518.52 L1140.45 1518.52 L1140.45 1525.93 L1134.59 1525.93 L1134.59 1518.52 Z" fill="#000000" fill-rule="nonzero" fill-opacity="1" /><path clip-path="url(#clip680)" d="M1158.5 1522.27 L1158.5 1532.4 L1170.56 1532.4 L1170.56 1536.95 L1158.5 1536.95 L1158.5 1556.3 Q1158.5 1560.66 1159.67 1561.9 Q1160.88 1563.14 1164.54 1563.14 L1170.56 1563.14 L1170.56 1568.04 L1164.54 1568.04 Q1157.76 1568.04 1155.19 1565.53 Q1152.61 1562.98 1152.61 1556.3 L1152.61 1536.95 L1148.31 1536.95 L1148.31 1532.4 L1152.61 1532.4 L1152.61 1522.27 L1158.5 1522.27 Z" fill="#000000" fill-rule="nonzero" fill-opacity="1" /><path clip-path="url(#clip680)" d="M1178.26 1532.4 L1184.12 1532.4 L1184.12 1568.04 L1178.26 1568.04 L1178.26 1532.4 M1178.26 1518.52 L1184.12 1518.52 L1184.12 1525.93 L1178.26 1525.93 L1178.26 1518.52 Z" fill="#000000" fill-rule="nonzero" fill-opacity="1" /><path clip-path="url(#clip680)" d="M1210.19 1536.5 Q1205.47 1536.5 1202.74 1540.19 Q1200 1543.85 1200 1550.25 Q1200 1556.65 1202.71 1560.34 Q1205.44 1564 1210.19 1564 Q1214.86 1564 1217.6 1560.31 Q1220.34 1556.62 1220.34 1550.25 Q1220.34 1543.92 1217.6 1540.23 Q1214.86 1536.5 1210.19 1536.5 M1210.19 1531.54 Q1217.82 1531.54 1222.18 1536.5 Q1226.54 1541.47 1226.54 1550.25 Q1226.54 1559 1222.18 1564 Q1217.82 1568.97 1210.19 1568.97 Q1202.51 1568.97 1198.15 1564 Q1193.83 1559 1193.83 1550.25 Q1193.83 1541.47 1198.15 1536.5 Q1202.51 1531.54 1210.19 1531.54 Z" fill="#000000" fill-rule="nonzero" fill-opacity="1" /><path clip-path="url(#clip680)" d="M1265.89 1546.53 L1265.89 1568.04 L1260.03 1568.04 L1260.03 1546.72 Q1260.03 1541.66 1258.06 1539.14 Q1256.08 1536.63 1252.14 1536.63 Q1247.39 1536.63 1244.66 1539.65 Q1241.92 1542.68 1241.92 1547.9 L1241.92 1568.04 L1236.03 1568.04 L1236.03 1532.4 L1241.92 1532.4 L1241.92 1537.93 Q1244.02 1534.72 1246.85 1533.13 Q1249.72 1531.54 1253.44 1531.54 Q1259.58 1531.54 1262.73 1535.36 Q1265.89 1539.14 1265.89 1546.53 Z" fill="#000000" fill-rule="nonzero" fill-opacity="1" /><path clip-path="url(#clip680)" d="M1297.75 1518.52 L1311.24 1518.52 L1311.24 1523.07 L1303.6 1523.07 L1303.6 1572.09 L1311.24 1572.09 L1311.24 1576.64 L1297.75 1576.64 L1297.75 1518.52 Z" fill="#000000" fill-rule="nonzero" fill-opacity="1" /><path clip-path="url(#clip680)" d="M1337.75 1524.09 L1354.21 1568.04 L1348 1568.04 L1338.01 1541.69 L1325.72 1568.04 L1319.52 1568.04 L1335.14 1533.86 L1332.79 1527.56 Q1331.29 1523.55 1327.89 1523.55 L1324.83 1523.55 L1324.83 1518.52 L1328.56 1518.58 Q1335.75 1518.68 1337.75 1524.09 Z" fill="#000000" fill-rule="nonzero" fill-opacity="1" /><path clip-path="url(#clip680)" d="M1375.98 1518.52 L1375.98 1576.64 L1362.48 1576.64 L1362.48 1572.09 L1370.09 1572.09 L1370.09 1523.07 L1362.48 1523.07 L1362.48 1518.52 L1375.98 1518.52 Z" fill="#000000" fill-rule="nonzero" fill-opacity="1" /><polyline clip-path="url(#clip680)" style="stroke:#000000; stroke-linecap:round; stroke-linejoin:round; stroke-width:4; stroke-opacity:1; fill:none" points="47.2441,1423.18 47.2441,123.472 "/>
<path clip-path="url(#clip680)" d="M838.052 12.096 L876.292 12.096 L876.292 18.9825 L846.235 18.9825 L846.235 36.8875 L875.036 36.8875 L875.036 43.7741 L846.235 43.7741 L846.235 65.6895 L877.021 65.6895 L877.021 72.576 L838.052 72.576 L838.052 12.096 Z" fill="#000000" fill-rule="nonzero" fill-opacity="1" /><path clip-path="url(#clip680)" d="M890.146 9.54393 L897.6 9.54393 L897.6 72.576 L890.146 72.576 L890.146 9.54393 Z" fill="#000000" fill-rule="nonzero" fill-opacity="1" /><path clip-path="url(#clip680)" d="M952.004 48.0275 L952.004 51.6733 L917.733 51.6733 Q918.219 59.3701 922.351 63.421 Q926.523 67.4314 933.937 67.4314 Q938.231 67.4314 942.241 66.3781 Q946.292 65.3249 950.262 63.2184 L950.262 70.267 Q946.251 71.9684 942.038 72.8596 Q937.825 73.7508 933.491 73.7508 Q922.635 73.7508 916.275 67.4314 Q909.955 61.1119 909.955 50.3365 Q909.955 39.1965 915.951 32.6746 Q921.986 26.1121 932.195 26.1121 Q941.35 26.1121 946.656 32.0264 Q952.004 37.9003 952.004 48.0275 M944.55 45.84 Q944.469 39.7232 941.107 36.0774 Q937.785 32.4315 932.276 32.4315 Q926.037 32.4315 922.27 35.9558 Q918.543 39.4801 917.976 45.8805 L944.55 45.84 Z" fill="#000000" fill-rule="nonzero" fill-opacity="1" /><path clip-path="url(#clip680)" d="M999.561 35.9153 Q1002.36 30.8922 1006.25 28.5022 Q1010.13 26.1121 1015.4 26.1121 Q1022.49 26.1121 1026.34 31.0947 Q1030.19 36.0368 1030.19 45.1919 L1030.19 72.576 L1022.69 72.576 L1022.69 45.4349 Q1022.69 38.913 1020.38 35.7533 Q1018.07 32.5936 1013.33 32.5936 Q1007.54 32.5936 1004.18 36.4419 Q1000.82 40.2903 1000.82 46.9338 L1000.82 72.576 L993.323 72.576 L993.323 45.4349 Q993.323 38.8725 991.014 35.7533 Q988.705 32.5936 983.884 32.5936 Q978.172 32.5936 974.81 36.4824 Q971.448 40.3308 971.448 46.9338 L971.448 72.576 L963.954 72.576 L963.954 27.2059 L971.448 27.2059 L971.448 34.2544 Q974 30.082 977.565 28.0971 Q981.13 26.1121 986.031 26.1121 Q990.973 26.1121 994.417 28.6237 Q997.9 31.1352 999.561 35.9153 Z" fill="#000000" fill-rule="nonzero" fill-opacity="1" /><path clip-path="url(#clip680)" d="M1083.86 48.0275 L1083.86 51.6733 L1049.59 51.6733 Q1050.08 59.3701 1054.21 63.421 Q1058.38 67.4314 1065.79 67.4314 Q1070.09 67.4314 1074.1 66.3781 Q1078.15 65.3249 1082.12 63.2184 L1082.12 70.267 Q1078.11 71.9684 1073.9 72.8596 Q1069.68 73.7508 1065.35 73.7508 Q1054.49 73.7508 1048.13 67.4314 Q1041.81 61.1119 1041.81 50.3365 Q1041.81 39.1965 1047.81 32.6746 Q1053.84 26.1121 1064.05 26.1121 Q1073.21 26.1121 1078.51 32.0264 Q1083.86 37.9003 1083.86 48.0275 M1076.41 45.84 Q1076.33 39.7232 1072.96 36.0774 Q1069.64 32.4315 1064.13 32.4315 Q1057.89 32.4315 1054.13 35.9558 Q1050.4 39.4801 1049.83 45.8805 L1076.41 45.84 Z" fill="#000000" fill-rule="nonzero" fill-opacity="1" /><path clip-path="url(#clip680)" d="M1133.81 45.1919 L1133.81 72.576 L1126.35 72.576 L1126.35 45.4349 Q1126.35 38.994 1123.84 35.7938 Q1121.33 32.5936 1116.31 32.5936 Q1110.27 32.5936 1106.79 36.4419 Q1103.3 40.2903 1103.3 46.9338 L1103.3 72.576 L1095.81 72.576 L1095.81 27.2059 L1103.3 27.2059 L1103.3 34.2544 Q1105.98 30.163 1109.58 28.1376 Q1113.23 26.1121 1117.97 26.1121 Q1125.79 26.1121 1129.8 30.9732 Q1133.81 35.7938 1133.81 45.1919 Z" fill="#000000" fill-rule="nonzero" fill-opacity="1" /><path clip-path="url(#clip680)" d="M1156.05 14.324 L1156.05 27.2059 L1171.4 27.2059 L1171.4 32.9987 L1156.05 32.9987 L1156.05 57.6282 Q1156.05 63.1779 1157.55 64.7578 Q1159.09 66.3376 1163.74 66.3376 L1171.4 66.3376 L1171.4 72.576 L1163.74 72.576 Q1155.12 72.576 1151.83 69.3758 Q1148.55 66.1351 1148.55 57.6282 L1148.55 32.9987 L1143.08 32.9987 L1143.08 27.2059 L1148.55 27.2059 L1148.55 14.324 L1156.05 14.324 Z" fill="#000000" fill-rule="nonzero" fill-opacity="1" /><path clip-path="url(#clip680)" d="M1216.08 18.8205 L1216.08 41.5461 L1226.37 41.5461 Q1232.08 41.5461 1235.2 38.5889 Q1238.32 35.6318 1238.32 30.163 Q1238.32 24.7348 1235.2 21.7777 Q1232.08 18.8205 1226.37 18.8205 L1216.08 18.8205 M1207.9 12.096 L1226.37 12.096 Q1236.54 12.096 1241.72 16.714 Q1246.95 21.2916 1246.95 30.163 Q1246.95 39.1155 1241.72 43.6931 Q1236.54 48.2706 1226.37 48.2706 L1216.08 48.2706 L1216.08 72.576 L1207.9 72.576 L1207.9 12.096 Z" fill="#000000" fill-rule="nonzero" fill-opacity="1" /><path clip-path="url(#clip680)" d="M1272.23 32.4315 Q1266.23 32.4315 1262.75 37.1306 Q1259.26 41.7891 1259.26 49.9314 Q1259.26 58.0738 1262.71 62.7728 Q1266.19 67.4314 1272.23 67.4314 Q1278.18 67.4314 1281.67 62.7323 Q1285.15 58.0333 1285.15 49.9314 Q1285.15 41.8701 1281.67 37.1711 Q1278.18 32.4315 1272.23 32.4315 M1272.23 26.1121 Q1281.95 26.1121 1287.5 32.4315 Q1293.05 38.7509 1293.05 49.9314 Q1293.05 61.0714 1287.5 67.4314 Q1281.95 73.7508 1272.23 73.7508 Q1262.46 73.7508 1256.92 67.4314 Q1251.41 61.0714 1251.41 49.9314 Q1251.41 38.7509 1256.92 32.4315 Q1262.46 26.1121 1272.23 26.1121 Z" fill="#000000" fill-rule="nonzero" fill-opacity="1" /><path clip-path="url(#clip680)" d="M1334.33 28.5427 L1334.33 35.5912 Q1331.17 33.9709 1327.77 33.1607 Q1324.36 32.3505 1320.72 32.3505 Q1315.17 32.3505 1312.37 34.0519 Q1309.62 35.7533 1309.62 39.156 Q1309.62 41.7486 1311.6 43.2475 Q1313.59 44.7058 1319.58 46.0426 L1322.13 46.6097 Q1330.07 48.3111 1333.4 51.4303 Q1336.76 54.509 1336.76 60.0587 Q1336.76 66.3781 1331.74 70.0644 Q1326.75 73.7508 1318 73.7508 Q1314.36 73.7508 1310.39 73.0216 Q1306.46 72.3329 1302.08 70.9151 L1302.08 63.2184 Q1306.21 65.3654 1310.23 66.4591 Q1314.24 67.5124 1318.16 67.5124 Q1323.43 67.5124 1326.27 65.73 Q1329.1 63.9071 1329.1 60.6258 Q1329.1 57.5877 1327.04 55.9673 Q1325.01 54.3469 1318.08 52.8481 L1315.49 52.2405 Q1308.56 50.7821 1305.49 47.7845 Q1302.41 44.7463 1302.41 39.4801 Q1302.41 33.0797 1306.94 29.5959 Q1311.48 26.1121 1319.83 26.1121 Q1323.96 26.1121 1327.6 26.7198 Q1331.25 27.3274 1334.33 28.5427 Z" fill="#000000" fill-rule="nonzero" fill-opacity="1" /><path clip-path="url(#clip680)" d="M1348.63 27.2059 L1356.08 27.2059 L1356.08 72.576 L1348.63 72.576 L1348.63 27.2059 M1348.63 9.54393 L1356.08 9.54393 L1356.08 18.9825 L1348.63 18.9825 L1348.63 9.54393 Z" fill="#000000" fill-rule="nonzero" fill-opacity="1" /><path clip-path="url(#clip680)" d="M1379.05 14.324 L1379.05 27.2059 L1394.4 27.2059 L1394.4 32.9987 L1379.05 32.9987 L1379.05 57.6282 Q1379.05 63.1779 1380.55 64.7578 Q1382.09 66.3376 1386.75 66.3376 L1394.4 66.3376 L1394.4 72.576 L1386.75 72.576 Q1378.12 72.576 1374.84 69.3758 Q1371.56 66.1351 1371.56 57.6282 L1371.56 32.9987 L1366.09 32.9987 L1366.09 27.2059 L1371.56 27.2059 L1371.56 14.324 L1379.05 14.324 Z" fill="#000000" fill-rule="nonzero" fill-opacity="1" /><path clip-path="url(#clip680)" d="M1404.21 27.2059 L1411.66 27.2059 L1411.66 72.576 L1404.21 72.576 L1404.21 27.2059 M1404.21 9.54393 L1411.66 9.54393 L1411.66 18.9825 L1404.21 18.9825 L1404.21 9.54393 Z" fill="#000000" fill-rule="nonzero" fill-opacity="1" /><path clip-path="url(#clip680)" d="M1444.84 32.4315 Q1438.84 32.4315 1435.36 37.1306 Q1431.87 41.7891 1431.87 49.9314 Q1431.87 58.0738 1435.32 62.7728 Q1438.8 67.4314 1444.84 67.4314 Q1450.79 67.4314 1454.28 62.7323 Q1457.76 58.0333 1457.76 49.9314 Q1457.76 41.8701 1454.28 37.1711 Q1450.79 32.4315 1444.84 32.4315 M1444.84 26.1121 Q1454.56 26.1121 1460.11 32.4315 Q1465.66 38.7509 1465.66 49.9314 Q1465.66 61.0714 1460.11 67.4314 Q1454.56 73.7508 1444.84 73.7508 Q1435.07 73.7508 1429.52 67.4314 Q1424.02 61.0714 1424.02 49.9314 Q1424.02 38.7509 1429.52 32.4315 Q1435.07 26.1121 1444.84 26.1121 Z" fill="#000000" fill-rule="nonzero" fill-opacity="1" /><path clip-path="url(#clip680)" d="M1515.73 45.1919 L1515.73 72.576 L1508.27 72.576 L1508.27 45.4349 Q1508.27 38.994 1505.76 35.7938 Q1503.25 32.5936 1498.23 32.5936 Q1492.19 32.5936 1488.71 36.4419 Q1485.22 40.2903 1485.22 46.9338 L1485.22 72.576 L1477.73 72.576 L1477.73 27.2059 L1485.22 27.2059 L1485.22 34.2544 Q1487.9 30.163 1491.5 28.1376 Q1495.15 26.1121 1499.89 26.1121 Q1507.71 26.1121 1511.72 30.9732 Q1515.73 35.7938 1515.73 45.1919 Z" fill="#000000" fill-rule="nonzero" fill-opacity="1" /><path clip-path="url(#clip680)" d="M1559.52 28.5427 L1559.52 35.5912 Q1556.36 33.9709 1552.96 33.1607 Q1549.55 32.3505 1545.91 32.3505 Q1540.36 32.3505 1537.56 34.0519 Q1534.81 35.7533 1534.81 39.156 Q1534.81 41.7486 1536.79 43.2475 Q1538.78 44.7058 1544.77 46.0426 L1547.32 46.6097 Q1555.26 48.3111 1558.59 51.4303 Q1561.95 54.509 1561.95 60.0587 Q1561.95 66.3781 1556.93 70.0644 Q1551.94 73.7508 1543.19 73.7508 Q1539.55 73.7508 1535.58 73.0216 Q1531.65 72.3329 1527.27 70.9151 L1527.27 63.2184 Q1531.4 65.3654 1535.41 66.4591 Q1539.43 67.5124 1543.35 67.5124 Q1548.62 67.5124 1551.46 65.73 Q1554.29 63.9071 1554.29 60.6258 Q1554.29 57.5877 1552.23 55.9673 Q1550.2 54.3469 1543.27 52.8481 L1540.68 52.2405 Q1533.75 50.7821 1530.68 47.7845 Q1527.6 44.7463 1527.6 39.4801 Q1527.6 33.0797 1532.13 29.5959 Q1536.67 26.1121 1545.02 26.1121 Q1549.15 26.1121 1552.79 26.7198 Q1556.44 27.3274 1559.52 28.5427 Z" fill="#000000" fill-rule="nonzero" fill-opacity="1" /><circle clip-path="url(#clip682)" cx="112.494" cy="773.326" r="14.4" fill="#009af9" fill-rule="evenodd" fill-opacity="1" stroke="#000000" stroke-opacity="1" stroke-width="3.2"/>
<circle clip-path="url(#clip682)" cx="182.656" cy="773.326" r="14.4" fill="#009af9" fill-rule="evenodd" fill-opacity="1" stroke="#000000" stroke-opacity="1" stroke-width="3.2"/>
<circle clip-path="url(#clip682)" cx="252.818" cy="773.326" r="14.4" fill="#009af9" fill-rule="evenodd" fill-opacity="1" stroke="#000000" stroke-opacity="1" stroke-width="3.2"/>
<circle clip-path="url(#clip682)" cx="322.979" cy="773.326" r="14.4" fill="#009af9" fill-rule="evenodd" fill-opacity="1" stroke="#000000" stroke-opacity="1" stroke-width="3.2"/>
<circle clip-path="url(#clip682)" cx="393.141" cy="773.326" r="14.4" fill="#009af9" fill-rule="evenodd" fill-opacity="1" stroke="#000000" stroke-opacity="1" stroke-width="3.2"/>
<circle clip-path="url(#clip682)" cx="463.303" cy="773.326" r="14.4" fill="#009af9" fill-rule="evenodd" fill-opacity="1" stroke="#000000" stroke-opacity="1" stroke-width="3.2"/>
<circle clip-path="url(#clip682)" cx="533.464" cy="773.326" r="14.4" fill="#009af9" fill-rule="evenodd" fill-opacity="1" stroke="#000000" stroke-opacity="1" stroke-width="3.2"/>
<circle clip-path="url(#clip682)" cx="603.626" cy="773.326" r="14.4" fill="#009af9" fill-rule="evenodd" fill-opacity="1" stroke="#000000" stroke-opacity="1" stroke-width="3.2"/>
<circle clip-path="url(#clip682)" cx="673.788" cy="773.326" r="14.4" fill="#009af9" fill-rule="evenodd" fill-opacity="1" stroke="#000000" stroke-opacity="1" stroke-width="3.2"/>
<circle clip-path="url(#clip682)" cx="743.949" cy="773.326" r="14.4" fill="#009af9" fill-rule="evenodd" fill-opacity="1" stroke="#000000" stroke-opacity="1" stroke-width="3.2"/>
<circle clip-path="url(#clip682)" cx="814.111" cy="773.326" r="14.4" fill="#009af9" fill-rule="evenodd" fill-opacity="1" stroke="#000000" stroke-opacity="1" stroke-width="3.2"/>
<circle clip-path="url(#clip682)" cx="884.273" cy="773.326" r="14.4" fill="#009af9" fill-rule="evenodd" fill-opacity="1" stroke="#000000" stroke-opacity="1" stroke-width="3.2"/>
<circle clip-path="url(#clip682)" cx="954.434" cy="773.326" r="14.4" fill="#009af9" fill-rule="evenodd" fill-opacity="1" stroke="#000000" stroke-opacity="1" stroke-width="3.2"/>
<circle clip-path="url(#clip682)" cx="1024.6" cy="773.326" r="14.4" fill="#009af9" fill-rule="evenodd" fill-opacity="1" stroke="#000000" stroke-opacity="1" stroke-width="3.2"/>
<circle clip-path="url(#clip682)" cx="1094.76" cy="773.326" r="14.4" fill="#009af9" fill-rule="evenodd" fill-opacity="1" stroke="#000000" stroke-opacity="1" stroke-width="3.2"/>
<circle clip-path="url(#clip682)" cx="1164.92" cy="773.326" r="14.4" fill="#009af9" fill-rule="evenodd" fill-opacity="1" stroke="#000000" stroke-opacity="1" stroke-width="3.2"/>
<circle clip-path="url(#clip682)" cx="1235.08" cy="773.326" r="14.4" fill="#009af9" fill-rule="evenodd" fill-opacity="1" stroke="#000000" stroke-opacity="1" stroke-width="3.2"/>
<circle clip-path="url(#clip682)" cx="1305.24" cy="773.326" r="14.4" fill="#009af9" fill-rule="evenodd" fill-opacity="1" stroke="#000000" stroke-opacity="1" stroke-width="3.2"/>
<circle clip-path="url(#clip682)" cx="1375.4" cy="773.326" r="14.4" fill="#009af9" fill-rule="evenodd" fill-opacity="1" stroke="#000000" stroke-opacity="1" stroke-width="3.2"/>
<circle clip-path="url(#clip682)" cx="1445.57" cy="773.326" r="14.4" fill="#009af9" fill-rule="evenodd" fill-opacity="1" stroke="#000000" stroke-opacity="1" stroke-width="3.2"/>
<circle clip-path="url(#clip682)" cx="1515.73" cy="773.326" r="14.4" fill="#009af9" fill-rule="evenodd" fill-opacity="1" stroke="#000000" stroke-opacity="1" stroke-width="3.2"/>
<circle clip-path="url(#clip682)" cx="1585.89" cy="773.326" r="14.4" fill="#009af9" fill-rule="evenodd" fill-opacity="1" stroke="#000000" stroke-opacity="1" stroke-width="3.2"/>
<circle clip-path="url(#clip682)" cx="1656.05" cy="773.326" r="14.4" fill="#009af9" fill-rule="evenodd" fill-opacity="1" stroke="#000000" stroke-opacity="1" stroke-width="3.2"/>
<circle clip-path="url(#clip682)" cx="1726.21" cy="773.326" r="14.4" fill="#009af9" fill-rule="evenodd" fill-opacity="1" stroke="#000000" stroke-opacity="1" stroke-width="3.2"/>
<circle clip-path="url(#clip682)" cx="1796.37" cy="773.326" r="14.4" fill="#009af9" fill-rule="evenodd" fill-opacity="1" stroke="#000000" stroke-opacity="1" stroke-width="3.2"/>
<circle clip-path="url(#clip682)" cx="1866.54" cy="773.326" r="14.4" fill="#009af9" fill-rule="evenodd" fill-opacity="1" stroke="#000000" stroke-opacity="1" stroke-width="3.2"/>
<circle clip-path="url(#clip682)" cx="1936.7" cy="773.326" r="14.4" fill="#009af9" fill-rule="evenodd" fill-opacity="1" stroke="#000000" stroke-opacity="1" stroke-width="3.2"/>
<circle clip-path="url(#clip682)" cx="2006.86" cy="773.326" r="14.4" fill="#009af9" fill-rule="evenodd" fill-opacity="1" stroke="#000000" stroke-opacity="1" stroke-width="3.2"/>
<circle clip-path="url(#clip682)" cx="2077.02" cy="773.326" r="14.4" fill="#009af9" fill-rule="evenodd" fill-opacity="1" stroke="#000000" stroke-opacity="1" stroke-width="3.2"/>
<circle clip-path="url(#clip682)" cx="2147.18" cy="773.326" r="14.4" fill="#009af9" fill-rule="evenodd" fill-opacity="1" stroke="#000000" stroke-opacity="1" stroke-width="3.2"/>
<circle clip-path="url(#clip682)" cx="2217.34" cy="773.326" r="14.4" fill="#009af9" fill-rule="evenodd" fill-opacity="1" stroke="#000000" stroke-opacity="1" stroke-width="3.2"/>
<circle clip-path="url(#clip682)" cx="2287.51" cy="773.326" r="14.4" fill="#009af9" fill-rule="evenodd" fill-opacity="1" stroke="#000000" stroke-opacity="1" stroke-width="3.2"/>
</svg>
