<?xml version="1.0" encoding="utf-8"?>
<svg xmlns="http://www.w3.org/2000/svg" xmlns:xlink="http://www.w3.org/1999/xlink" width="600" height="400" viewBox="0 0 2400 1600">
<defs>
  <clipPath id="clip240">
    <rect x="0" y="0" width="2400" height="1600"/>
  </clipPath>
</defs>
<path clip-path="url(#clip240)" d="M0 1600 L2400 1600 L2400 0 L0 0  Z" fill="#ffffff" fill-rule="evenodd" fill-opacity="1"/>
<defs>
  <clipPath id="clip241">
    <rect x="480" y="0" width="1681" height="1600"/>
  </clipPath>
</defs>
<path clip-path="url(#clip240)" d="M242.135 1423.18 L2352.76 1423.18 L2352.76 123.472 L242.135 123.472  Z" fill="#ffffff" fill-rule="evenodd" fill-opacity="1"/>
<defs>
  <clipPath id="clip242">
    <rect x="242" y="123" width="2112" height="1301"/>
  </clipPath>
</defs>
<polyline clip-path="url(#clip242)" style="stroke:#000000; stroke-linecap:round; stroke-linejoin:round; stroke-width:2; stroke-opacity:0.1; fill:none" points="467.799,1423.18 467.799,123.472 "/>
<polyline clip-path="url(#clip242)" style="stroke:#000000; stroke-linecap:round; stroke-linejoin:round; stroke-width:2; stroke-opacity:0.1; fill:none" points="744.347,1423.18 744.347,123.472 "/>
<polyline clip-path="url(#clip242)" style="stroke:#000000; stroke-linecap:round; stroke-linejoin:round; stroke-width:2; stroke-opacity:0.1; fill:none" points="1020.9,1423.18 1020.9,123.472 "/>
<polyline clip-path="url(#clip242)" style="stroke:#000000; stroke-linecap:round; stroke-linejoin:round; stroke-width:2; stroke-opacity:0.1; fill:none" points="1297.45,1423.18 1297.45,123.472 "/>
<polyline clip-path="url(#clip242)" style="stroke:#000000; stroke-linecap:round; stroke-linejoin:round; stroke-width:2; stroke-opacity:0.1; fill:none" points="1573.99,1423.18 1573.99,123.472 "/>
<polyline clip-path="url(#clip242)" style="stroke:#000000; stroke-linecap:round; stroke-linejoin:round; stroke-width:2; stroke-opacity:0.1; fill:none" points="1850.54,1423.18 1850.54,123.472 "/>
<polyline clip-path="url(#clip242)" style="stroke:#000000; stroke-linecap:round; stroke-linejoin:round; stroke-width:2; stroke-opacity:0.1; fill:none" points="2127.09,1423.18 2127.09,123.472 "/>
<polyline clip-path="url(#clip242)" style="stroke:#000000; stroke-linecap:round; stroke-linejoin:round; stroke-width:2; stroke-opacity:0.1; fill:none" points="242.135,1423.18 2352.76,1423.18 "/>
<polyline clip-path="url(#clip242)" style="stroke:#000000; stroke-linecap:round; stroke-linejoin:round; stroke-width:2; stroke-opacity:0.1; fill:none" points="242.135,1152.41 2352.76,1152.41 "/>
<polyline clip-path="url(#clip242)" style="stroke:#000000; stroke-linecap:round; stroke-linejoin:round; stroke-width:2; stroke-opacity:0.1; fill:none" points="242.135,881.635 2352.76,881.635 "/>
<polyline clip-path="url(#clip242)" style="stroke:#000000; stroke-linecap:round; stroke-linejoin:round; stroke-width:2; stroke-opacity:0.1; fill:none" points="242.135,610.863 2352.76,610.863 "/>
<polyline clip-path="url(#clip242)" style="stroke:#000000; stroke-linecap:round; stroke-linejoin:round; stroke-width:2; stroke-opacity:0.1; fill:none" points="242.135,340.09 2352.76,340.09 "/>
<polyline clip-path="url(#clip240)" style="stroke:#000000; stroke-linecap:round; stroke-linejoin:round; stroke-width:4; stroke-opacity:1; fill:none" points="242.135,1423.18 2352.76,1423.18 "/>
<polyline clip-path="url(#clip240)" style="stroke:#000000; stroke-linecap:round; stroke-linejoin:round; stroke-width:4; stroke-opacity:1; fill:none" points="467.799,1423.18 467.799,1404.28 "/>
<polyline clip-path="url(#clip240)" style="stroke:#000000; stroke-linecap:round; stroke-linejoin:round; stroke-width:4; stroke-opacity:1; fill:none" points="744.347,1423.18 744.347,1404.28 "/>
<polyline clip-path="url(#clip240)" style="stroke:#000000; stroke-linecap:round; stroke-linejoin:round; stroke-width:4; stroke-opacity:1; fill:none" points="1020.9,1423.18 1020.9,1404.28 "/>
<polyline clip-path="url(#clip240)" style="stroke:#000000; stroke-linecap:round; stroke-linejoin:round; stroke-width:4; stroke-opacity:1; fill:none" points="1297.45,1423.18 1297.45,1404.28 "/>
<polyline clip-path="url(#clip240)" style="stroke:#000000; stroke-linecap:round; stroke-linejoin:round; stroke-width:4; stroke-opacity:1; fill:none" points="1573.99,1423.18 1573.99,1404.28 "/>
<polyline clip-path="url(#clip240)" style="stroke:#000000; stroke-linecap:round; stroke-linejoin:round; stroke-width:4; stroke-opacity:1; fill:none" points="1850.54,1423.18 1850.54,1404.28 "/>
<polyline clip-path="url(#clip240)" style="stroke:#000000; stroke-linecap:round; stroke-linejoin:round; stroke-width:4; stroke-opacity:1; fill:none" points="2127.09,1423.18 2127.09,1404.28 "/>
<path clip-path="url(#clip240)" d="M422.359 1468.75 L452.035 1468.75 L452.035 1472.69 L422.359 1472.69 L422.359 1468.75 Z" fill="#000000" fill-rule="nonzero" fill-opacity="1" /><path clip-path="url(#clip240)" d="M460.947 1451.02 L483.169 1451.02 L483.169 1453.01 L470.623 1485.58 L465.738 1485.58 L477.544 1454.96 L460.947 1454.96 L460.947 1451.02 Z" fill="#000000" fill-rule="nonzero" fill-opacity="1" /><path clip-path="url(#clip240)" d="M492.335 1451.02 L510.692 1451.02 L510.692 1454.96 L496.618 1454.96 L496.618 1463.43 Q497.636 1463.08 498.655 1462.92 Q499.673 1462.73 500.692 1462.73 Q506.479 1462.73 509.859 1465.9 Q513.238 1469.08 513.238 1474.49 Q513.238 1480.07 509.766 1483.17 Q506.294 1486.25 499.974 1486.25 Q497.798 1486.25 495.53 1485.88 Q493.285 1485.51 490.877 1484.77 L490.877 1480.07 Q492.96 1481.2 495.183 1481.76 Q497.405 1482.32 499.882 1482.32 Q503.886 1482.32 506.224 1480.21 Q508.562 1478.1 508.562 1474.49 Q508.562 1470.88 506.224 1468.77 Q503.886 1466.67 499.882 1466.67 Q498.007 1466.67 496.132 1467.08 Q494.28 1467.5 492.335 1468.38 L492.335 1451.02 Z" fill="#000000" fill-rule="nonzero" fill-opacity="1" /><path clip-path="url(#clip240)" d="M698.41 1468.75 L728.086 1468.75 L728.086 1472.69 L698.41 1472.69 L698.41 1468.75 Z" fill="#000000" fill-rule="nonzero" fill-opacity="1" /><path clip-path="url(#clip240)" d="M738.225 1451.02 L756.581 1451.02 L756.581 1454.96 L742.507 1454.96 L742.507 1463.43 Q743.526 1463.08 744.544 1462.92 Q745.563 1462.73 746.581 1462.73 Q752.368 1462.73 755.748 1465.9 Q759.127 1469.08 759.127 1474.49 Q759.127 1480.07 755.655 1483.17 Q752.183 1486.25 745.864 1486.25 Q743.688 1486.25 741.419 1485.88 Q739.174 1485.51 736.766 1484.77 L736.766 1480.07 Q738.85 1481.2 741.072 1481.76 Q743.294 1482.32 745.771 1482.32 Q749.776 1482.32 752.114 1480.21 Q754.452 1478.1 754.452 1474.49 Q754.452 1470.88 752.114 1468.77 Q749.776 1466.67 745.771 1466.67 Q743.896 1466.67 742.021 1467.08 Q740.169 1467.5 738.225 1468.38 L738.225 1451.02 Z" fill="#000000" fill-rule="nonzero" fill-opacity="1" /><path clip-path="url(#clip240)" d="M778.34 1454.1 Q774.729 1454.1 772.901 1457.66 Q771.095 1461.2 771.095 1468.33 Q771.095 1475.44 772.901 1479.01 Q774.729 1482.55 778.34 1482.55 Q781.975 1482.55 783.78 1479.01 Q785.609 1475.44 785.609 1468.33 Q785.609 1461.2 783.78 1457.66 Q781.975 1454.1 778.34 1454.1 M778.34 1450.39 Q784.151 1450.39 787.206 1455 Q790.285 1459.58 790.285 1468.33 Q790.285 1477.06 787.206 1481.67 Q784.151 1486.25 778.34 1486.25 Q772.53 1486.25 769.452 1481.67 Q766.396 1477.06 766.396 1468.33 Q766.396 1459.58 769.452 1455 Q772.53 1450.39 778.34 1450.39 Z" fill="#000000" fill-rule="nonzero" fill-opacity="1" /><path clip-path="url(#clip240)" d="M975.457 1468.75 L1005.13 1468.75 L1005.13 1472.69 L975.457 1472.69 L975.457 1468.75 Z" fill="#000000" fill-rule="nonzero" fill-opacity="1" /><path clip-path="url(#clip240)" d="M1019.25 1481.64 L1035.57 1481.64 L1035.57 1485.58 L1013.63 1485.58 L1013.63 1481.64 Q1016.29 1478.89 1020.87 1474.26 Q1025.48 1469.61 1026.66 1468.27 Q1028.91 1465.74 1029.79 1464.01 Q1030.69 1462.25 1030.69 1460.56 Q1030.69 1457.8 1028.74 1456.07 Q1026.82 1454.33 1023.72 1454.33 Q1021.52 1454.33 1019.07 1455.09 Q1016.64 1455.86 1013.86 1457.41 L1013.86 1452.69 Q1016.68 1451.55 1019.14 1450.97 Q1021.59 1450.39 1023.63 1450.39 Q1029 1450.39 1032.19 1453.08 Q1035.39 1455.77 1035.39 1460.26 Q1035.39 1462.39 1034.58 1464.31 Q1033.79 1466.2 1031.68 1468.8 Q1031.1 1469.47 1028 1472.69 Q1024.9 1475.88 1019.25 1481.64 Z" fill="#000000" fill-rule="nonzero" fill-opacity="1" /><path clip-path="url(#clip240)" d="M1045.43 1451.02 L1063.79 1451.02 L1063.79 1454.96 L1049.72 1454.96 L1049.72 1463.43 Q1050.73 1463.08 1051.75 1462.92 Q1052.77 1462.73 1053.79 1462.73 Q1059.58 1462.73 1062.96 1465.9 Q1066.34 1469.08 1066.34 1474.49 Q1066.34 1480.07 1062.86 1483.17 Q1059.39 1486.25 1053.07 1486.25 Q1050.9 1486.25 1048.63 1485.88 Q1046.38 1485.51 1043.97 1484.77 L1043.97 1480.07 Q1046.06 1481.2 1048.28 1481.76 Q1050.5 1482.32 1052.98 1482.32 Q1056.98 1482.32 1059.32 1480.21 Q1061.66 1478.1 1061.66 1474.49 Q1061.66 1470.88 1059.32 1468.77 Q1056.98 1466.67 1052.98 1466.67 Q1051.1 1466.67 1049.23 1467.08 Q1047.38 1467.5 1045.43 1468.38 L1045.43 1451.02 Z" fill="#000000" fill-rule="nonzero" fill-opacity="1" /><path clip-path="url(#clip240)" d="M1297.45 1454.1 Q1293.83 1454.1 1292.01 1457.66 Q1290.2 1461.2 1290.2 1468.33 Q1290.2 1475.44 1292.01 1479.01 Q1293.83 1482.55 1297.45 1482.55 Q1301.08 1482.55 1302.89 1479.01 Q1304.71 1475.44 1304.71 1468.33 Q1304.71 1461.2 1302.89 1457.66 Q1301.08 1454.1 1297.45 1454.1 M1297.45 1450.39 Q1303.26 1450.39 1306.31 1455 Q1309.39 1459.58 1309.39 1468.33 Q1309.39 1477.06 1306.31 1481.67 Q1303.26 1486.25 1297.45 1486.25 Q1291.64 1486.25 1288.56 1481.67 Q1285.5 1477.06 1285.5 1468.33 Q1285.5 1459.58 1288.56 1455 Q1291.64 1450.39 1297.45 1450.39 Z" fill="#000000" fill-rule="nonzero" fill-opacity="1" /><path clip-path="url(#clip240)" d="M1553.27 1481.64 L1569.58 1481.64 L1569.58 1485.58 L1547.64 1485.58 L1547.64 1481.64 Q1550.3 1478.89 1554.89 1474.26 Q1559.49 1469.61 1560.67 1468.27 Q1562.92 1465.74 1563.8 1464.01 Q1564.7 1462.25 1564.7 1460.56 Q1564.7 1457.8 1562.76 1456.07 Q1560.83 1454.33 1557.73 1454.33 Q1555.53 1454.33 1553.08 1455.09 Q1550.65 1455.86 1547.87 1457.41 L1547.87 1452.69 Q1550.7 1451.55 1553.15 1450.97 Q1555.6 1450.39 1557.64 1450.39 Q1563.01 1450.39 1566.2 1453.08 Q1569.4 1455.77 1569.4 1460.26 Q1569.4 1462.39 1568.59 1464.31 Q1567.8 1466.2 1565.7 1468.8 Q1565.12 1469.47 1562.02 1472.69 Q1558.91 1475.88 1553.27 1481.64 Z" fill="#000000" fill-rule="nonzero" fill-opacity="1" /><path clip-path="url(#clip240)" d="M1579.45 1451.02 L1597.8 1451.02 L1597.8 1454.96 L1583.73 1454.96 L1583.73 1463.43 Q1584.75 1463.08 1585.76 1462.92 Q1586.78 1462.73 1587.8 1462.73 Q1593.59 1462.73 1596.97 1465.9 Q1600.35 1469.08 1600.35 1474.49 Q1600.35 1480.07 1596.88 1483.17 Q1593.4 1486.25 1587.08 1486.25 Q1584.91 1486.25 1582.64 1485.88 Q1580.39 1485.51 1577.99 1484.77 L1577.99 1480.07 Q1580.07 1481.2 1582.29 1481.76 Q1584.51 1482.32 1586.99 1482.32 Q1591 1482.32 1593.33 1480.21 Q1595.67 1478.1 1595.67 1474.49 Q1595.67 1470.88 1593.33 1468.77 Q1591 1466.67 1586.99 1466.67 Q1585.12 1466.67 1583.24 1467.08 Q1581.39 1467.5 1579.45 1468.38 L1579.45 1451.02 Z" fill="#000000" fill-rule="nonzero" fill-opacity="1" /><path clip-path="url(#clip240)" d="M1825.24 1451.02 L1843.6 1451.02 L1843.6 1454.96 L1829.52 1454.96 L1829.52 1463.43 Q1830.54 1463.08 1831.56 1462.92 Q1832.58 1462.73 1833.6 1462.73 Q1839.39 1462.73 1842.77 1465.9 Q1846.14 1469.08 1846.14 1474.49 Q1846.14 1480.07 1842.67 1483.17 Q1839.2 1486.25 1832.88 1486.25 Q1830.71 1486.25 1828.44 1485.88 Q1826.19 1485.51 1823.78 1484.77 L1823.78 1480.07 Q1825.87 1481.2 1828.09 1481.76 Q1830.31 1482.32 1832.79 1482.32 Q1836.79 1482.32 1839.13 1480.21 Q1841.47 1478.1 1841.47 1474.49 Q1841.47 1470.88 1839.13 1468.77 Q1836.79 1466.67 1832.79 1466.67 Q1830.91 1466.67 1829.04 1467.08 Q1827.19 1467.5 1825.24 1468.38 L1825.24 1451.02 Z" fill="#000000" fill-rule="nonzero" fill-opacity="1" /><path clip-path="url(#clip240)" d="M1865.36 1454.1 Q1861.75 1454.1 1859.92 1457.66 Q1858.11 1461.2 1858.11 1468.33 Q1858.11 1475.44 1859.92 1479.01 Q1861.75 1482.55 1865.36 1482.55 Q1868.99 1482.55 1870.8 1479.01 Q1872.63 1475.44 1872.63 1468.33 Q1872.63 1461.2 1870.8 1457.66 Q1868.99 1454.1 1865.36 1454.1 M1865.36 1450.39 Q1871.17 1450.39 1874.22 1455 Q1877.3 1459.58 1877.3 1468.33 Q1877.3 1477.06 1874.22 1481.67 Q1871.17 1486.25 1865.36 1486.25 Q1859.55 1486.25 1856.47 1481.67 Q1853.41 1477.06 1853.41 1468.33 Q1853.41 1459.58 1856.47 1455 Q1859.55 1450.39 1865.36 1450.39 Z" fill="#000000" fill-rule="nonzero" fill-opacity="1" /><path clip-path="url(#clip240)" d="M2100.95 1451.02 L2123.17 1451.02 L2123.17 1453.01 L2110.62 1485.58 L2105.74 1485.58 L2117.54 1454.96 L2100.95 1454.96 L2100.95 1451.02 Z" fill="#000000" fill-rule="nonzero" fill-opacity="1" /><path clip-path="url(#clip240)" d="M2132.34 1451.02 L2150.69 1451.02 L2150.69 1454.96 L2136.62 1454.96 L2136.62 1463.43 Q2137.64 1463.08 2138.65 1462.92 Q2139.67 1462.73 2140.69 1462.73 Q2146.48 1462.73 2149.86 1465.9 Q2153.24 1469.08 2153.24 1474.49 Q2153.24 1480.07 2149.77 1483.17 Q2146.29 1486.25 2139.97 1486.25 Q2137.8 1486.25 2135.53 1485.88 Q2133.28 1485.51 2130.88 1484.77 L2130.88 1480.07 Q2132.96 1481.2 2135.18 1481.76 Q2137.4 1482.32 2139.88 1482.32 Q2143.89 1482.32 2146.22 1480.21 Q2148.56 1478.1 2148.56 1474.49 Q2148.56 1470.88 2146.22 1468.77 Q2143.89 1466.67 2139.88 1466.67 Q2138.01 1466.67 2136.13 1467.08 Q2134.28 1467.5 2132.34 1468.38 L2132.34 1451.02 Z" fill="#000000" fill-rule="nonzero" fill-opacity="1" /><path clip-path="url(#clip240)" d="M1132.3 1526.86 L1123.58 1550.51 L1141.06 1550.51 L1132.3 1526.86 M1128.67 1520.52 L1135.96 1520.52 L1154.07 1568.04 L1147.39 1568.04 L1143.06 1555.85 L1121.64 1555.85 L1117.31 1568.04 L1110.53 1568.04 L1128.67 1520.52 Z" fill="#000000" fill-rule="nonzero" fill-opacity="1" /><path clip-path="url(#clip240)" d="M1190.39 1546.53 L1190.39 1568.04 L1184.53 1568.04 L1184.53 1546.72 Q1184.53 1541.66 1182.56 1539.14 Q1180.59 1536.63 1176.64 1536.63 Q1171.9 1536.63 1169.16 1539.65 Q1166.42 1542.68 1166.42 1547.9 L1166.42 1568.04 L1160.53 1568.04 L1160.53 1532.4 L1166.42 1532.4 L1166.42 1537.93 Q1168.52 1534.72 1171.36 1533.13 Q1174.22 1531.54 1177.95 1531.54 Q1184.09 1531.54 1187.24 1535.36 Q1190.39 1539.14 1190.39 1546.53 Z" fill="#000000" fill-rule="nonzero" fill-opacity="1" /><path clip-path="url(#clip240)" d="M1225.53 1549.81 Q1225.53 1543.44 1222.89 1539.94 Q1220.28 1536.44 1215.53 1536.44 Q1210.82 1536.44 1208.18 1539.94 Q1205.57 1543.44 1205.57 1549.81 Q1205.57 1556.14 1208.18 1559.64 Q1210.82 1563.14 1215.53 1563.14 Q1220.28 1563.14 1222.89 1559.64 Q1225.53 1556.14 1225.53 1549.81 M1231.39 1563.62 Q1231.39 1572.72 1227.34 1577.15 Q1223.3 1581.6 1214.96 1581.6 Q1211.87 1581.6 1209.14 1581.13 Q1206.4 1580.68 1203.82 1579.72 L1203.82 1574.03 Q1206.4 1575.43 1208.91 1576.1 Q1211.43 1576.76 1214.04 1576.76 Q1219.8 1576.76 1222.66 1573.74 Q1225.53 1570.75 1225.53 1564.67 L1225.53 1561.77 Q1223.71 1564.92 1220.88 1566.48 Q1218.05 1568.04 1214.1 1568.04 Q1207.55 1568.04 1203.54 1563.05 Q1199.52 1558.05 1199.52 1549.81 Q1199.52 1541.53 1203.54 1536.53 Q1207.55 1531.54 1214.1 1531.54 Q1218.05 1531.54 1220.88 1533.1 Q1223.71 1534.66 1225.53 1537.81 L1225.53 1532.4 L1231.39 1532.4 L1231.39 1563.62 Z" fill="#000000" fill-rule="nonzero" fill-opacity="1" /><path clip-path="url(#clip240)" d="M1243.45 1518.52 L1249.3 1518.52 L1249.3 1568.04 L1243.45 1568.04 L1243.45 1518.52 Z" fill="#000000" fill-rule="nonzero" fill-opacity="1" /><path clip-path="url(#clip240)" d="M1292.05 1548.76 L1292.05 1551.62 L1265.12 1551.62 Q1265.51 1557.67 1268.75 1560.85 Q1272.03 1564 1277.85 1564 Q1281.23 1564 1284.38 1563.17 Q1287.56 1562.35 1290.68 1560.69 L1290.68 1566.23 Q1287.53 1567.57 1284.22 1568.27 Q1280.91 1568.97 1277.5 1568.97 Q1268.97 1568.97 1263.98 1564 Q1259.01 1559.04 1259.01 1550.57 Q1259.01 1541.82 1263.72 1536.69 Q1268.47 1531.54 1276.49 1531.54 Q1283.68 1531.54 1287.85 1536.18 Q1292.05 1540.8 1292.05 1548.76 M1286.19 1547.04 Q1286.13 1542.23 1283.49 1539.37 Q1280.88 1536.5 1276.55 1536.5 Q1271.65 1536.5 1268.69 1539.27 Q1265.76 1542.04 1265.31 1547.07 L1286.19 1547.04 Z" fill="#000000" fill-rule="nonzero" fill-opacity="1" /><path clip-path="url(#clip240)" d="M1321.84 1518.52 L1335.34 1518.52 L1335.34 1523.07 L1327.7 1523.07 L1327.7 1572.09 L1335.34 1572.09 L1335.34 1576.64 L1321.84 1576.64 L1321.84 1518.52 Z" fill="#000000" fill-rule="nonzero" fill-opacity="1" /><path clip-path="url(#clip240)" d="M1371.27 1537.81 L1371.27 1518.52 L1377.13 1518.52 L1377.13 1568.04 L1371.27 1568.04 L1371.27 1562.7 Q1369.43 1565.88 1366.59 1567.44 Q1363.79 1568.97 1359.85 1568.97 Q1353.38 1568.97 1349.31 1563.81 Q1345.27 1558.65 1345.27 1550.25 Q1345.27 1541.85 1349.31 1536.69 Q1353.38 1531.54 1359.85 1531.54 Q1363.79 1531.54 1366.59 1533.1 Q1369.43 1534.62 1371.27 1537.81 M1351.32 1550.25 Q1351.32 1556.71 1353.96 1560.4 Q1356.63 1564.07 1361.28 1564.07 Q1365.92 1564.07 1368.6 1560.4 Q1371.27 1556.71 1371.27 1550.25 Q1371.27 1543.79 1368.6 1540.13 Q1365.92 1536.44 1361.28 1536.44 Q1356.63 1536.44 1353.96 1540.13 Q1351.32 1543.79 1351.32 1550.25 Z" fill="#000000" fill-rule="nonzero" fill-opacity="1" /><path clip-path="url(#clip240)" d="M1419.68 1548.76 L1419.68 1551.62 L1392.76 1551.62 Q1393.14 1557.67 1396.38 1560.85 Q1399.66 1564 1405.49 1564 Q1408.86 1564 1412.01 1563.17 Q1415.19 1562.35 1418.31 1560.69 L1418.31 1566.23 Q1415.16 1567.57 1411.85 1568.27 Q1408.54 1568.97 1405.14 1568.97 Q1396.61 1568.97 1391.61 1564 Q1386.64 1559.04 1386.64 1550.57 Q1386.64 1541.82 1391.36 1536.69 Q1396.1 1531.54 1404.12 1531.54 Q1411.31 1531.54 1415.48 1536.18 Q1419.68 1540.8 1419.68 1548.76 M1413.83 1547.04 Q1413.76 1542.23 1411.12 1539.37 Q1408.51 1536.5 1404.18 1536.5 Q1399.28 1536.5 1396.32 1539.27 Q1393.39 1542.04 1392.95 1547.07 L1413.83 1547.04 Z" fill="#000000" fill-rule="nonzero" fill-opacity="1" /><path clip-path="url(#clip240)" d="M1452.75 1549.81 Q1452.75 1543.44 1450.11 1539.94 Q1447.5 1536.44 1442.76 1536.44 Q1438.05 1536.44 1435.41 1539.94 Q1432.8 1543.44 1432.8 1549.81 Q1432.8 1556.14 1435.41 1559.64 Q1438.05 1563.14 1442.76 1563.14 Q1447.5 1563.14 1450.11 1559.64 Q1452.75 1556.14 1452.75 1549.81 M1458.61 1563.62 Q1458.61 1572.72 1454.57 1577.15 Q1450.52 1581.6 1442.19 1581.6 Q1439.1 1581.6 1436.36 1581.13 Q1433.62 1580.68 1431.05 1579.72 L1431.05 1574.03 Q1433.62 1575.43 1436.14 1576.1 Q1438.65 1576.76 1441.26 1576.76 Q1447.02 1576.76 1449.89 1573.74 Q1452.75 1570.75 1452.75 1564.67 L1452.75 1561.77 Q1450.94 1564.92 1448.11 1566.48 Q1445.27 1568.04 1441.33 1568.04 Q1434.77 1568.04 1430.76 1563.05 Q1426.75 1558.05 1426.75 1549.81 Q1426.75 1541.53 1430.76 1536.53 Q1434.77 1531.54 1441.33 1531.54 Q1445.27 1531.54 1448.11 1533.1 Q1450.94 1534.66 1452.75 1537.81 L1452.75 1532.4 L1458.61 1532.4 L1458.61 1563.62 Z" fill="#000000" fill-rule="nonzero" fill-opacity="1" /><path clip-path="url(#clip240)" d="M1484.36 1518.52 L1484.36 1576.64 L1470.86 1576.64 L1470.86 1572.09 L1478.47 1572.09 L1478.47 1523.07 L1470.86 1523.07 L1470.86 1518.52 L1484.36 1518.52 Z" fill="#000000" fill-rule="nonzero" fill-opacity="1" /><polyline clip-path="url(#clip240)" style="stroke:#000000; stroke-linecap:round; stroke-linejoin:round; stroke-width:4; stroke-opacity:1; fill:none" points="242.135,1423.18 242.135,123.472 "/>
<polyline clip-path="url(#clip240)" style="stroke:#000000; stroke-linecap:round; stroke-linejoin:round; stroke-width:4; stroke-opacity:1; fill:none" points="242.135,1423.18 261.032,1423.18 "/>
<polyline clip-path="url(#clip240)" style="stroke:#000000; stroke-linecap:round; stroke-linejoin:round; stroke-width:4; stroke-opacity:1; fill:none" points="242.135,1152.41 261.032,1152.41 "/>
<polyline clip-path="url(#clip240)" style="stroke:#000000; stroke-linecap:round; stroke-linejoin:round; stroke-width:4; stroke-opacity:1; fill:none" points="242.135,881.635 261.032,881.635 "/>
<polyline clip-path="url(#clip240)" style="stroke:#000000; stroke-linecap:round; stroke-linejoin:round; stroke-width:4; stroke-opacity:1; fill:none" points="242.135,610.863 261.032,610.863 "/>
<polyline clip-path="url(#clip240)" style="stroke:#000000; stroke-linecap:round; stroke-linejoin:round; stroke-width:4; stroke-opacity:1; fill:none" points="242.135,340.09 261.032,340.09 "/>
<path clip-path="url(#clip240)" d="M114.26 1423.63 L143.936 1423.63 L143.936 1427.57 L114.26 1427.57 L114.26 1423.63 Z" fill="#000000" fill-rule="nonzero" fill-opacity="1" /><path clip-path="url(#clip240)" d="M168.195 1421.83 Q171.552 1422.54 173.427 1424.81 Q175.325 1427.08 175.325 1430.41 Q175.325 1435.53 171.806 1438.33 Q168.288 1441.13 161.806 1441.13 Q159.63 1441.13 157.315 1440.69 Q155.024 1440.27 152.57 1439.42 L152.57 1434.9 Q154.515 1436.04 156.829 1436.62 Q159.144 1437.2 161.667 1437.2 Q166.065 1437.2 168.357 1435.46 Q170.672 1433.72 170.672 1430.41 Q170.672 1427.36 168.519 1425.65 Q166.39 1423.91 162.57 1423.91 L158.542 1423.91 L158.542 1420.07 L162.755 1420.07 Q166.204 1420.07 168.033 1418.7 Q169.862 1417.31 169.862 1414.72 Q169.862 1412.06 167.964 1410.65 Q166.089 1409.21 162.57 1409.21 Q160.649 1409.21 158.45 1409.63 Q156.251 1410.04 153.612 1410.92 L153.612 1406.76 Q156.274 1406.02 158.589 1405.65 Q160.927 1405.27 162.987 1405.27 Q168.311 1405.27 171.413 1407.71 Q174.514 1410.11 174.514 1414.23 Q174.514 1417.1 172.871 1419.09 Q171.227 1421.06 168.195 1421.83 Z" fill="#000000" fill-rule="nonzero" fill-opacity="1" /><path clip-path="url(#clip240)" d="M194.19 1408.98 Q190.579 1408.98 188.75 1412.54 Q186.945 1416.08 186.945 1423.21 Q186.945 1430.32 188.75 1433.89 Q190.579 1437.43 194.19 1437.43 Q197.825 1437.43 199.63 1433.89 Q201.459 1430.32 201.459 1423.21 Q201.459 1416.08 199.63 1412.54 Q197.825 1408.98 194.19 1408.98 M194.19 1405.27 Q200 1405.27 203.056 1409.88 Q206.135 1414.46 206.135 1423.21 Q206.135 1431.94 203.056 1436.55 Q200 1441.13 194.19 1441.13 Q188.38 1441.13 185.301 1436.55 Q182.246 1431.94 182.246 1423.21 Q182.246 1414.46 185.301 1409.88 Q188.38 1405.27 194.19 1405.27 Z" fill="#000000" fill-rule="nonzero" fill-opacity="1" /><path clip-path="url(#clip240)" d="M114.26 1152.86 L143.936 1152.86 L143.936 1156.79 L114.26 1156.79 L114.26 1152.86 Z" fill="#000000" fill-rule="nonzero" fill-opacity="1" /><path clip-path="url(#clip240)" d="M158.056 1165.75 L174.376 1165.75 L174.376 1169.69 L152.431 1169.69 L152.431 1165.75 Q155.093 1163 159.677 1158.37 Q164.283 1153.72 165.464 1152.37 Q167.709 1149.85 168.589 1148.11 Q169.491 1146.35 169.491 1144.66 Q169.491 1141.91 167.547 1140.17 Q165.626 1138.44 162.524 1138.44 Q160.325 1138.44 157.871 1139.2 Q155.44 1139.97 152.663 1141.52 L152.663 1136.79 Q155.487 1135.66 157.94 1135.08 Q160.394 1134.5 162.431 1134.5 Q167.802 1134.5 170.996 1137.19 Q174.19 1139.87 174.19 1144.36 Q174.19 1146.49 173.38 1148.41 Q172.593 1150.31 170.487 1152.91 Q169.908 1153.58 166.806 1156.79 Q163.704 1159.99 158.056 1165.75 Z" fill="#000000" fill-rule="nonzero" fill-opacity="1" /><path clip-path="url(#clip240)" d="M194.19 1138.21 Q190.579 1138.21 188.75 1141.77 Q186.945 1145.31 186.945 1152.44 Q186.945 1159.55 188.75 1163.11 Q190.579 1166.66 194.19 1166.66 Q197.825 1166.66 199.63 1163.11 Q201.459 1159.55 201.459 1152.44 Q201.459 1145.31 199.63 1141.77 Q197.825 1138.21 194.19 1138.21 M194.19 1134.5 Q200 1134.5 203.056 1139.11 Q206.135 1143.69 206.135 1152.44 Q206.135 1161.17 203.056 1165.78 Q200 1170.36 194.19 1170.36 Q188.38 1170.36 185.301 1165.78 Q182.246 1161.17 182.246 1152.44 Q182.246 1143.69 185.301 1139.11 Q188.38 1134.5 194.19 1134.5 Z" fill="#000000" fill-rule="nonzero" fill-opacity="1" /><path clip-path="url(#clip240)" d="M114.26 882.086 L143.936 882.086 L143.936 886.022 L114.26 886.022 L114.26 882.086 Z" fill="#000000" fill-rule="nonzero" fill-opacity="1" /><path clip-path="url(#clip240)" d="M154.839 894.98 L162.477 894.98 L162.477 868.614 L154.167 870.281 L154.167 866.022 L162.431 864.355 L167.107 864.355 L167.107 894.98 L174.746 894.98 L174.746 898.915 L154.839 898.915 L154.839 894.98 Z" fill="#000000" fill-rule="nonzero" fill-opacity="1" /><path clip-path="url(#clip240)" d="M194.19 867.434 Q190.579 867.434 188.75 870.998 Q186.945 874.54 186.945 881.67 Q186.945 888.776 188.75 892.341 Q190.579 895.883 194.19 895.883 Q197.825 895.883 199.63 892.341 Q201.459 888.776 201.459 881.67 Q201.459 874.54 199.63 870.998 Q197.825 867.434 194.19 867.434 M194.19 863.73 Q200 863.73 203.056 868.336 Q206.135 872.92 206.135 881.67 Q206.135 890.396 203.056 895.003 Q200 899.586 194.19 899.586 Q188.38 899.586 185.301 895.003 Q182.246 890.396 182.246 881.67 Q182.246 872.92 185.301 868.336 Q188.38 863.73 194.19 863.73 Z" fill="#000000" fill-rule="nonzero" fill-opacity="1" /><path clip-path="url(#clip240)" d="M194.19 596.661 Q190.579 596.661 188.75 600.226 Q186.945 603.768 186.945 610.897 Q186.945 618.004 188.75 621.568 Q190.579 625.11 194.19 625.11 Q197.825 625.11 199.63 621.568 Q201.459 618.004 201.459 610.897 Q201.459 603.768 199.63 600.226 Q197.825 596.661 194.19 596.661 M194.19 592.958 Q200 592.958 203.056 597.564 Q206.135 602.147 206.135 610.897 Q206.135 619.624 203.056 624.231 Q200 628.814 194.19 628.814 Q188.38 628.814 185.301 624.231 Q182.246 619.624 182.246 610.897 Q182.246 602.147 185.301 597.564 Q188.38 592.958 194.19 592.958 Z" fill="#000000" fill-rule="nonzero" fill-opacity="1" /><path clip-path="url(#clip240)" d="M154.839 353.435 L162.477 353.435 L162.477 327.069 L154.167 328.736 L154.167 324.477 L162.431 322.81 L167.107 322.81 L167.107 353.435 L174.746 353.435 L174.746 357.37 L154.839 357.37 L154.839 353.435 Z" fill="#000000" fill-rule="nonzero" fill-opacity="1" /><path clip-path="url(#clip240)" d="M194.19 325.889 Q190.579 325.889 188.75 329.454 Q186.945 332.995 186.945 340.125 Q186.945 347.231 188.75 350.796 Q190.579 354.338 194.19 354.338 Q197.825 354.338 199.63 350.796 Q201.459 347.231 201.459 340.125 Q201.459 332.995 199.63 329.454 Q197.825 325.889 194.19 325.889 M194.19 322.185 Q200 322.185 203.056 326.792 Q206.135 331.375 206.135 340.125 Q206.135 348.852 203.056 353.458 Q200 358.041 194.19 358.041 Q188.38 358.041 185.301 353.458 Q182.246 348.852 182.246 340.125 Q182.246 331.375 185.301 326.792 Q188.38 322.185 194.19 322.185 Z" fill="#000000" fill-rule="nonzero" fill-opacity="1" /><path clip-path="url(#clip240)" d="M57.2247 862.557 L44.4614 862.557 L44.4614 873.061 L39.1779 873.061 L39.1779 856.192 L59.58 856.192 Q62.2218 859.916 63.5904 864.403 Q64.9272 868.891 64.9272 873.984 Q64.9272 885.124 58.4342 891.426 Q51.9093 897.696 40.2919 897.696 Q28.6427 897.696 22.1496 891.426 Q15.6248 885.124 15.6248 873.984 Q15.6248 869.337 16.7706 865.167 Q17.9164 860.966 20.1444 857.433 L26.9876 857.433 Q23.9639 860.998 22.4361 865.008 Q20.9083 869.018 20.9083 873.443 Q20.9083 882.164 25.7781 886.556 Q30.6479 890.916 40.2919 890.916 Q49.9041 890.916 54.7739 886.556 Q59.6436 882.164 59.6436 873.443 Q59.6436 870.037 59.0707 867.363 Q58.466 864.69 57.2247 862.557 Z" fill="#000000" fill-rule="nonzero" fill-opacity="1" /><path clip-path="url(#clip240)" d="M58.3387 803.515 L64.0042 803.515 L64.0042 822.612 L58.3387 822.612 Q55.2513 816.979 49.9678 813.828 Q44.6842 810.677 38.2549 810.677 Q30.616 810.677 26.0009 814.878 Q21.3858 819.08 21.3858 825.954 Q21.3858 832.829 26.0327 837.063 Q30.6479 841.264 38.2549 841.264 Q44.6842 841.264 49.9678 838.113 Q55.2513 834.93 58.3387 829.265 L64.0042 829.265 L64.0042 848.362 L58.3387 848.362 L58.3387 838.208 Q53.9145 843.237 49.1721 845.561 Q44.4296 847.852 38.5732 847.852 Q28.4517 847.852 22.1815 841.741 Q15.9112 835.662 15.9112 825.954 Q15.9112 816.31 22.1815 810.168 Q28.4199 804.056 38.2549 804.056 Q44.4296 804.056 49.1402 806.316 Q53.8509 808.576 58.3387 813.7 L58.3387 803.515 Z" fill="#000000" fill-rule="nonzero" fill-opacity="1" /><path clip-path="url(#clip240)" d="M14.479 774.711 L14.479 761.215 L19.0304 761.215 L19.0304 768.854 L68.0464 768.854 L68.0464 761.215 L72.5979 761.215 L72.5979 774.711 L14.479 774.711 Z" fill="#000000" fill-rule="nonzero" fill-opacity="1" /><path clip-path="url(#clip240)" d="M33.7671 725.281 L14.479 725.281 L14.479 719.424 L64.0042 719.424 L64.0042 725.281 L58.657 725.281 Q61.8398 727.127 63.3994 729.96 Q64.9272 732.761 64.9272 736.707 Q64.9272 743.168 59.771 747.243 Q54.6147 751.285 46.212 751.285 Q37.8093 751.285 32.6531 747.243 Q27.4968 743.168 27.4968 736.707 Q27.4968 732.761 29.0564 729.96 Q30.5842 727.127 33.7671 725.281 M46.212 745.237 Q52.6732 745.237 56.3653 742.596 Q60.0256 739.922 60.0256 735.275 Q60.0256 730.628 56.3653 727.954 Q52.6732 725.281 46.212 725.281 Q39.7508 725.281 36.0905 727.954 Q32.3984 730.628 32.3984 735.275 Q32.3984 739.922 36.0905 742.596 Q39.7508 745.237 46.212 745.237 Z" fill="#000000" fill-rule="nonzero" fill-opacity="1" /><path clip-path="url(#clip240)" d="M41.3104 700.677 L58.7206 700.677 L58.7206 690.365 Q58.7206 685.177 56.5881 682.694 Q54.4238 680.18 49.9996 680.18 Q45.5436 680.18 43.4429 682.694 Q41.3104 685.177 41.3104 690.365 L41.3104 700.677 M21.7677 700.677 L36.0905 700.677 L36.0905 691.161 Q36.0905 686.45 34.34 684.158 Q32.5576 681.835 28.9291 681.835 Q25.3325 681.835 23.5501 684.158 Q21.7677 686.45 21.7677 691.161 L21.7677 700.677 M16.4842 707.107 L16.4842 690.683 Q16.4842 683.331 19.5397 679.352 Q22.5952 675.374 28.2289 675.374 Q32.5894 675.374 35.1675 677.411 Q37.7456 679.448 38.3822 683.394 Q39.4007 678.652 42.6472 676.042 Q45.8619 673.4 50.6998 673.4 Q57.0655 673.4 60.5348 677.729 Q64.0042 682.058 64.0042 690.047 L64.0042 707.107 L16.4842 707.107 Z" fill="#000000" fill-rule="nonzero" fill-opacity="1" /><path clip-path="url(#clip240)" d="M14.479 648.956 L72.5979 648.956 L72.5979 662.451 L68.0464 662.451 L68.0464 654.844 L19.0304 654.844 L19.0304 662.451 L14.479 662.451 L14.479 648.956 Z" fill="#000000" fill-rule="nonzero" fill-opacity="1" /><path clip-path="url(#clip240)" d="M1114.53 20.1573 L1103.43 50.2555 L1125.67 50.2555 L1114.53 20.1573 M1109.91 12.096 L1119.19 12.096 L1142.23 72.576 L1133.73 72.576 L1128.22 57.061 L1100.96 57.061 L1095.45 72.576 L1086.82 72.576 L1109.91 12.096 Z" fill="#000000" fill-rule="nonzero" fill-opacity="1" /><path clip-path="url(#clip240)" d="M1177.03 34.1734 Q1175.78 33.4443 1174.28 33.1202 Q1172.82 32.7556 1171.04 32.7556 Q1164.72 32.7556 1161.31 36.8875 Q1157.95 40.9789 1157.95 48.6757 L1157.95 72.576 L1150.46 72.576 L1150.46 27.2059 L1157.95 27.2059 L1157.95 34.2544 Q1160.3 30.1225 1164.07 28.1376 Q1167.84 26.1121 1173.22 26.1121 Q1173.99 26.1121 1174.93 26.2337 Q1175.86 26.3147 1176.99 26.5172 L1177.03 34.1734 Z" fill="#000000" fill-rule="nonzero" fill-opacity="1" /><path clip-path="url(#clip240)" d="M1209.68 34.1734 Q1208.43 33.4443 1206.93 33.1202 Q1205.47 32.7556 1203.69 32.7556 Q1197.37 32.7556 1193.96 36.8875 Q1190.6 40.9789 1190.6 48.6757 L1190.6 72.576 L1183.11 72.576 L1183.11 27.2059 L1190.6 27.2059 L1190.6 34.2544 Q1192.95 30.1225 1196.72 28.1376 Q1200.49 26.1121 1205.87 26.1121 Q1206.64 26.1121 1207.58 26.2337 Q1208.51 26.3147 1209.64 26.5172 L1209.68 34.1734 Z" fill="#000000" fill-rule="nonzero" fill-opacity="1" /><path clip-path="url(#clip240)" d="M1238.12 49.7694 Q1229.09 49.7694 1225.6 51.8354 Q1222.12 53.9013 1222.12 58.8839 Q1222.12 62.8538 1224.71 65.2034 Q1227.34 67.5124 1231.84 67.5124 Q1238.04 67.5124 1241.77 63.1374 Q1245.53 58.7219 1245.53 51.4303 L1245.53 49.7694 L1238.12 49.7694 M1252.99 46.6907 L1252.99 72.576 L1245.53 72.576 L1245.53 65.6895 Q1242.98 69.8214 1239.17 71.8063 Q1235.37 73.7508 1229.86 73.7508 Q1222.89 73.7508 1218.76 69.8619 Q1214.67 65.9325 1214.67 59.3701 Q1214.67 51.7138 1219.77 47.825 Q1224.91 43.9361 1235.08 43.9361 L1245.53 43.9361 L1245.53 43.2069 Q1245.53 38.0623 1242.13 35.2672 Q1238.77 32.4315 1232.65 32.4315 Q1228.76 32.4315 1225.08 33.3632 Q1221.39 34.295 1217.99 36.1584 L1217.99 29.2718 Q1222.08 27.692 1225.93 26.9223 Q1229.77 26.1121 1233.42 26.1121 Q1243.26 26.1121 1248.13 31.2163 Q1252.99 36.3204 1252.99 46.6907 Z" fill="#000000" fill-rule="nonzero" fill-opacity="1" /><path clip-path="url(#clip240)" d="M1287.22 76.7889 Q1284.06 84.8907 1281.06 87.3618 Q1278.06 89.8329 1273.04 89.8329 L1267.08 89.8329 L1267.08 83.5945 L1271.46 83.5945 Q1274.54 83.5945 1276.24 82.1361 Q1277.94 80.6778 1280.01 75.2496 L1281.34 71.8468 L1262.99 27.2059 L1270.89 27.2059 L1285.07 62.6918 L1299.25 27.2059 L1307.15 27.2059 L1287.22 76.7889 Z" fill="#000000" fill-rule="nonzero" fill-opacity="1" /><path clip-path="url(#clip240)" d="M1373.66 49.3643 Q1373.66 41.2625 1370.3 36.8065 Q1366.98 32.3505 1360.94 32.3505 Q1354.95 32.3505 1351.59 36.8065 Q1348.26 41.2625 1348.26 49.3643 Q1348.26 57.4256 1351.59 61.8816 Q1354.95 66.3376 1360.94 66.3376 Q1366.98 66.3376 1370.3 61.8816 Q1373.66 57.4256 1373.66 49.3643 M1381.12 66.9452 Q1381.12 78.5308 1375.97 84.1616 Q1370.83 89.8329 1360.21 89.8329 Q1356.28 89.8329 1352.8 89.2252 Q1349.32 88.6581 1346.04 87.4428 L1346.04 80.1917 Q1349.32 81.9741 1352.52 82.8248 Q1355.72 83.6755 1359.04 83.6755 Q1366.37 83.6755 1370.02 79.8271 Q1373.66 76.0193 1373.66 68.282 L1373.66 64.5957 Q1371.35 68.6061 1367.75 70.5911 Q1364.14 72.576 1359.12 72.576 Q1350.78 72.576 1345.67 66.2161 Q1340.57 59.8562 1340.57 49.3643 Q1340.57 38.832 1345.67 32.472 Q1350.78 26.1121 1359.12 26.1121 Q1364.14 26.1121 1367.75 28.0971 Q1371.35 30.082 1373.66 34.0924 L1373.66 27.2059 L1381.12 27.2059 L1381.12 66.9452 Z" fill="#000000" fill-rule="nonzero" fill-opacity="1" /><path clip-path="url(#clip240)" d="M1417.09 49.7694 Q1408.06 49.7694 1404.57 51.8354 Q1401.09 53.9013 1401.09 58.8839 Q1401.09 62.8538 1403.68 65.2034 Q1406.31 67.5124 1410.81 67.5124 Q1417.01 67.5124 1420.73 63.1374 Q1424.5 58.7219 1424.5 51.4303 L1424.5 49.7694 L1417.09 49.7694 M1431.96 46.6907 L1431.96 72.576 L1424.5 72.576 L1424.5 65.6895 Q1421.95 69.8214 1418.14 71.8063 Q1414.33 73.7508 1408.82 73.7508 Q1401.86 73.7508 1397.73 69.8619 Q1393.63 65.9325 1393.63 59.3701 Q1393.63 51.7138 1398.74 47.825 Q1403.88 43.9361 1414.05 43.9361 L1424.5 43.9361 L1424.5 43.2069 Q1424.5 38.0623 1421.1 35.2672 Q1417.74 32.4315 1411.62 32.4315 Q1407.73 32.4315 1404.04 33.3632 Q1400.36 34.295 1396.96 36.1584 L1396.96 29.2718 Q1401.05 27.692 1404.9 26.9223 Q1408.74 26.1121 1412.39 26.1121 Q1422.23 26.1121 1427.09 31.2163 Q1431.96 36.3204 1431.96 46.6907 Z" fill="#000000" fill-rule="nonzero" fill-opacity="1" /><path clip-path="url(#clip240)" d="M1447.31 27.2059 L1454.76 27.2059 L1454.76 72.576 L1447.31 72.576 L1447.31 27.2059 M1447.31 9.54393 L1454.76 9.54393 L1454.76 18.9825 L1447.31 18.9825 L1447.31 9.54393 Z" fill="#000000" fill-rule="nonzero" fill-opacity="1" /><path clip-path="url(#clip240)" d="M1508.07 45.1919 L1508.07 72.576 L1500.62 72.576 L1500.62 45.4349 Q1500.62 38.994 1498.11 35.7938 Q1495.6 32.5936 1490.57 32.5936 Q1484.54 32.5936 1481.05 36.4419 Q1477.57 40.2903 1477.57 46.9338 L1477.57 72.576 L1470.07 72.576 L1470.07 27.2059 L1477.57 27.2059 L1477.57 34.2544 Q1480.24 30.163 1483.85 28.1376 Q1487.49 26.1121 1492.23 26.1121 Q1500.05 26.1121 1504.06 30.9732 Q1508.07 35.7938 1508.07 45.1919 Z" fill="#000000" fill-rule="nonzero" fill-opacity="1" /><polyline clip-path="url(#clip242)" style="stroke:#009af9; stroke-linecap:round; stroke-linejoin:round; stroke-width:4; stroke-opacity:1; fill:none" points="2293.02,8398.95 2289.04,2806.96 2285.06,2480.92 2281.07,2290.21 2277.09,2154.9 2273.11,2049.96 2269.13,1964.23 2265.15,1891.78 2261.16,1829.04 2257.18,1773.75 2253.2,1724.34 2249.22,1679.7 2245.23,1639.02 2241.25,1601.69 2237.27,1567.23 2233.29,1535.27 2229.3,1505.51 2225.32,1477.72 2221.34,1451.69 2217.36,1427.26 2213.38,1404.31 2209.39,1382.73 2205.41,1362.43 2201.43,1343.33 2197.45,1325.38 2193.46,1308.52 2189.48,1292.72 2185.5,1277.95 2181.52,1264.19 2177.53,1251.43 2173.55,1239.65 2169.57,1228.87 2165.59,1219.09 2161.61,1210.32 2157.62,1202.59 2153.64,1195.92 2149.66,1190.36 2145.68,1185.94 2141.69,1182.73 2137.71,1180.8 2133.73,1180.21 2129.75,1181.09 2125.76,1183.53 2121.78,1187.7 2117.8,1193.77 2113.82,1201.96 2109.84,1212.55 2105.85,1225.93 2101.87,1242.55 2097.89,1263.1 2093.91,1288.51 2089.92,1320.17 2085.94,1360.3 2081.96,1412.79 2077.98,1485.34 2073.99,1597.46 2070.01,1833.46 2066.03,1894.78 2062.05,1612.15 2058.07,1487.54 2054.08,1407.55 2050.1,1349.57 2046.12,1305.12 2042.14,1270.11 2038.15,1242.28 2034.17,1220.29 2030.19,1203.32 2026.21,1190.86 2022.22,1182.62 2018.24,1178.49 2014.26,1178.5 2010.28,1182.82 2006.3,1191.8 2002.31,1206 1998.33,1226.33 1994.35,1254.17 1990.37,1291.87 1986.38,1343.57 1982.4,1417.88 1978.42,1537.54 1974.44,1816.68 1970.45,1749.57 1966.47,1511.56 1962.49,1398.02 1958.51,1325.18 1954.53,1273.76 1950.54,1236.23 1946.56,1208.98 1942.58,1190.06 1938.6,1178.43 1934.61,1173.62 1930.63,1175.55 1926.65,1184.58 1922.67,1201.52 1918.68,1227.88 1914.7,1266.4 1910.72,1322.35 1906.74,1407.6 1902.76,1559.13 1898.77,2259.16 1894.79,1580.97 1890.81,1413.96 1886.83,1321.85 1882.84,1261.55 1878.86,1220.13 1874.88,1192.11 1870.9,1174.86 1866.91,1167.13 1862.93,1168.54 1858.95,1179.5 1854.97,1201.22 1850.99,1236.29 1847,1289.96 1843.02,1374.28 1839.04,1527.6 1835.06,2382.42 1831.07,1537.09 1827.09,1374.55 1823.11,1285.5 1819.13,1228.62 1815.14,1191.42 1811.16,1168.73 1807.18,1158.21 1803.2,1159.1 1799.22,1171.78 1795.23,1198 1791.25,1241.64 1787.27,1311.56 1783.29,1432.46 1779.3,1742.87 1775.32,1600.49 1771.34,1383.71 1767.36,1279.63 1763.37,1216.45 1759.39,1176.75 1755.41,1153.93 1751.43,1145.26 1747.45,1150.03 1743.46,1169.2 1739.48,1205.82 1735.5,1267.17 1731.52,1372.77 1727.53,1609.86 1723.55,1654.56 1719.57,1382.35 1715.59,1266.81 1711.6,1199.42 1707.62,1158.5 1703.64,1136.38 1699.66,1130.11 1695.68,1139.24 1691.69,1165.5 1687.71,1213.92 1683.73,1297.47 1679.75,1460.94 1675.76,2030.51 1671.78,1419.96 1667.8,1272.4 1663.82,1192.47 1659.83,1145.09 1655.85,1119.47 1651.87,1111.64 1647.89,1120.87 1643.91,1149.13 1639.92,1202.53 1635.94,1297.91 1631.96,1504.24 1627.98,1663.92 1623.99,1340.42 1620.01,1217.44 1616.03,1148.72 1612.05,1109.41 1608.07,1091.34 1604.08,1091.9 1600.1,1111.73 1596.12,1155.25 1592.14,1234.95 1588.15,1394.57 1584.17,2004.76 1580.19,1357.84 1576.21,1209.71 1572.22,1131.11 1568.24,1086.53 1564.26,1065.4 1560.28,1064.3 1556.3,1083.72 1552.31,1128.35 1548.33,1212.11 1544.35,1387.23 1540.37,1740.55 1536.38,1298.05 1532.4,1161.69 1528.42,1088.38 1524.44,1047.81 1520.45,1030.77 1516.47,1034.67 1512.49,1061.09 1508.51,1117.18 1504.53,1225.14 1500.54,1502.47 1496.56,1420.01 1492.58,1188.77 1488.6,1084.66 1484.61,1026.8 1480.63,997.237 1476.65,990.285 1472.67,1005.52 1468.68,1047.36 1464.7,1130.02 1460.72,1308.93 1456.74,1606.03 1452.76,1199.17 1448.77,1065.6 1444.79,993.604 1440.81,954.477 1436.83,939.532 1432.84,946.734 1428.86,978.617 1424.88,1044.85 1420.9,1177.88 1416.91,1679.48 1412.93,1230.12 1408.95,1057.81 1404.97,973.405 1400.99,929.45 1397,913.917 1393.02,924.548 1389.04,965.844 1385.06,1055.03 1381.07,1270.33 1377.09,1359.68 1373.11,1069.59 1369.13,959.354 1365.14,909.472 1361.16,903.798 1357.18,952.771 1353.2,1136.28 1349.22,1152.84 1345.23,832.172 1341.25,674.749 1337.27,566.443 1333.29,484.065 1329.3,418.668 1325.32,365.797 1321.34,322.902 1317.36,288.394 1313.37,261.228 1309.39,240.699 1305.41,226.334 1301.43,217.829 1297.45,215.012 1293.46,217.829 1289.48,226.334 1285.5,240.699 1281.52,261.228 1277.53,288.394 1273.55,322.902 1269.57,365.797 1265.59,418.668 1261.6,484.065 1257.62,566.443 1253.64,674.749 1249.66,832.172 1245.68,1152.84 1241.69,1136.28 1237.71,952.771 1233.73,903.798 1229.75,909.472 1225.76,959.354 1221.78,1069.59 1217.8,1359.68 1213.82,1270.33 1209.83,1055.03 1205.85,965.844 1201.87,924.548 1197.89,913.917 1193.91,929.45 1189.92,973.405 1185.94,1057.81 1181.96,1230.12 1177.98,1679.48 1173.99,1177.88 1170.01,1044.85 1166.03,978.617 1162.05,946.734 1158.06,939.532 1154.08,954.477 1150.1,993.604 1146.12,1065.6 1142.14,1199.17 1138.15,1606.03 1134.17,1308.93 1130.19,1130.02 1126.21,1047.36 1122.22,1005.52 1118.24,990.285 1114.26,997.237 1110.28,1026.8 1106.29,1084.66 1102.31,1188.77 1098.33,1420.01 1094.35,1502.47 1090.37,1225.14 1086.38,1117.18 1082.4,1061.09 1078.42,1034.67 1074.44,1030.77 1070.45,1047.81 1066.47,1088.38 1062.49,1161.69 1058.51,1298.05 1054.52,1740.55 1050.54,1387.23 1046.56,1212.11 1042.58,1128.35 1038.6,1083.72 1034.61,1064.3 1030.63,1065.4 1026.65,1086.53 1022.67,1131.11 1018.68,1209.71 1014.7,1357.84 1010.72,2004.76 1006.74,1394.57 1002.75,1234.95 998.772,1155.25 994.79,1111.73 990.808,1091.9 986.826,1091.34 982.843,1109.41 978.861,1148.72 974.879,1217.44 970.896,1340.42 966.914,1663.92 962.932,1504.24 958.949,1297.91 954.967,1202.53 950.985,1149.13 947.003,1120.87 943.02,1111.64 939.038,1119.47 935.056,1145.09 931.073,1192.47 927.091,1272.4 923.109,1419.96 919.126,2030.51 915.144,1460.94 911.162,1297.47 907.179,1213.92 903.197,1165.5 899.215,1139.24 895.233,1130.11 891.25,1136.38 887.268,1158.5 883.286,1199.42 879.303,1266.81 875.321,1382.35 871.339,1654.56 867.356,1609.86 863.374,1372.77 859.392,1267.17 855.41,1205.82 851.427,1169.2 847.445,1150.03 843.463,1145.26 839.48,1153.93 835.498,1176.75 831.516,1216.45 827.533,1279.63 823.551,1383.71 819.569,1600.49 815.586,1742.87 811.604,1432.46 807.622,1311.56 803.64,1241.64 799.657,1198 795.675,1171.78 791.693,1159.1 787.71,1158.21 783.728,1168.73 779.746,1191.42 775.763,1228.62 771.781,1285.5 767.799,1374.55 763.817,1537.09 759.834,2382.42 755.852,1527.6 751.87,1374.28 747.887,1289.96 743.905,1236.29 739.923,1201.22 735.94,1179.5 731.958,1168.54 727.976,1167.13 723.993,1174.86 720.011,1192.11 716.029,1220.13 712.047,1261.55 708.064,1321.85 704.082,1413.96 700.1,1580.97 696.117,2259.16 692.135,1559.13 688.153,1407.6 684.17,1322.35 680.188,1266.4 676.206,1227.88 672.224,1201.52 668.241,1184.58 664.259,1175.55 660.277,1173.62 656.294,1178.43 652.312,1190.06 648.33,1208.98 644.347,1236.23 640.365,1273.76 636.383,1325.18 632.4,1398.02 628.418,1511.56 624.436,1749.57 620.454,1816.68 616.471,1537.54 612.489,1417.88 608.507,1343.57 604.524,1291.87 600.542,1254.17 596.56,1226.33 592.577,1206 588.595,1191.8 584.613,1182.82 580.631,1178.5 576.648,1178.49 572.666,1182.62 568.684,1190.86 564.701,1203.32 560.719,1220.29 556.737,1242.28 552.754,1270.11 548.772,1305.12 544.79,1349.57 540.807,1407.55 536.825,1487.54 532.843,1612.15 528.861,1894.78 524.878,1833.46 520.896,1597.46 516.914,1485.34 512.931,1412.79 508.949,1360.3 504.967,1320.17 500.984,1288.51 497.002,1263.1 493.02,1242.55 489.038,1225.93 485.055,1212.55 481.073,1201.96 477.091,1193.77 473.108,1187.7 469.126,1183.53 465.144,1181.09 461.161,1180.21 457.179,1180.8 453.197,1182.73 449.214,1185.94 445.232,1190.36 441.25,1195.92 437.268,1202.59 433.285,1210.32 429.303,1219.09 425.321,1228.87 421.338,1239.65 417.356,1251.43 413.374,1264.19 409.391,1277.95 405.409,1292.72 401.427,1308.52 397.445,1325.38 393.462,1343.33 389.48,1362.43 385.498,1382.73 381.515,1404.31 377.533,1427.26 373.551,1451.69 369.568,1477.72 365.586,1505.51 361.604,1535.27 357.621,1567.23 353.639,1601.69 349.657,1639.02 345.675,1679.7 341.692,1724.34 337.71,1773.75 333.728,1829.04 329.745,1891.78 325.763,1964.23 321.781,2049.96 317.798,2154.9 313.816,2290.21 309.834,2480.92 305.852,2806.96 301.869,8398.95 "/>
<polyline clip-path="url(#clip242)" style="stroke:#e26f46; stroke-linecap:round; stroke-linejoin:round; stroke-width:4; stroke-opacity:1; fill:none" points="2293.02,1052.52 2289.04,1052.52 2285.06,1052.52 2281.07,1052.51 2277.09,1052.5 2273.11,1052.48 2269.13,1052.43 2265.15,1052.36 2261.16,1052.24 2257.18,1052.08 2253.2,1051.85 2249.22,1051.54 2245.23,1051.13 2241.25,1050.61 2237.27,1049.96 2233.29,1049.16 2229.3,1048.18 2225.32,1047.01 2221.34,1045.63 2217.36,1044.02 2213.38,1042.15 2209.39,1040.01 2205.41,1037.59 2201.43,1034.85 2197.45,1031.81 2193.46,1028.43 2189.48,1024.73 2185.5,1020.69 2181.52,1016.31 2177.53,1011.61 2173.55,1006.58 2169.57,1001.25 2165.59,995.638 2161.61,989.759 2157.62,983.642 2153.64,977.319 2149.66,970.822 2145.68,964.189 2141.69,957.459 2137.71,950.673 2133.73,943.873 2129.75,937.105 2125.76,930.414 2121.78,923.846 2117.8,917.446 2113.82,911.261 2109.84,905.338 2105.85,899.722 2101.87,894.46 2097.89,889.595 2093.91,885.172 2089.92,881.237 2085.94,877.831 2081.96,874.998 2077.98,872.779 2073.99,871.217 2070.01,870.352 2066.03,870.223 2062.05,870.87 2058.07,872.329 2054.08,874.636 2050.1,877.824 2046.12,881.921 2042.14,886.954 2038.15,892.941 2034.17,899.892 2030.19,907.807 2026.21,916.671 2022.22,926.451 2018.24,937.086 2014.26,948.487 2010.28,960.523 2006.3,973.014 2002.31,985.722 1998.33,998.342 1994.35,1010.5 1990.37,1021.75 1986.38,1031.59 1982.4,1039.51 1978.42,1045.02 1974.44,1047.68 1970.45,1047.22 1966.47,1043.56 1962.49,1036.81 1958.51,1027.26 1954.53,1015.38 1950.54,1001.71 1946.56,986.829 1942.58,971.296 1938.6,955.626 1934.61,940.268 1930.63,925.603 1926.65,911.945 1922.67,899.55 1918.68,888.627 1914.7,879.343 1910.72,871.836 1906.74,866.218 1902.76,862.583 1898.77,861.008 1894.79,861.557 1890.81,864.278 1886.83,869.204 1882.84,876.346 1878.86,885.684 1874.88,897.155 1870.9,910.634 1866.91,925.908 1862.93,942.64 1858.95,960.332 1854.97,978.281 1850.99,995.551 1847,1010.98 1843.02,1023.27 1839.04,1031.12 1835.06,1033.56 1831.07,1030.1 1827.09,1020.95 1823.11,1006.94 1819.13,989.317 1815.14,969.463 1811.16,948.695 1807.18,928.14 1803.2,908.687 1799.22,891.009 1795.23,875.598 1791.25,862.808 1787.27,852.89 1783.29,846.025 1779.3,842.34 1775.32,841.925 1771.34,844.83 1767.36,851.07 1763.37,860.607 1759.39,873.326 1755.41,888.999 1751.43,907.223 1747.45,927.346 1743.46,948.37 1739.48,968.87 1735.5,986.987 1731.52,1000.58 1727.53,1007.63 1723.55,1006.79 1719.57,997.886 1715.59,981.99 1711.6,961.041 1707.62,937.262 1703.64,912.695 1699.66,888.98 1695.68,867.315 1691.69,848.533 1687.71,833.187 1683.73,821.638 1679.75,814.118 1675.76,810.771 1671.78,811.674 1667.8,816.841 1663.82,826.213 1659.83,839.618 1655.85,856.711 1651.87,876.876 1647.89,899.092 1643.91,921.781 1639.92,942.712 1635.94,959.103 1631.96,968.109 1627.98,967.686 1623.99,957.435 1620.01,938.792 1616.03,914.416 1612.05,887.261 1608.07,859.899 1604.08,834.257 1600.1,811.656 1596.12,792.944 1592.14,778.644 1588.15,769.069 1584.17,764.393 1580.19,764.691 1576.21,769.95 1572.22,780.046 1568.24,794.689 1564.26,813.324 1560.28,834.978 1556.3,858.065 1552.31,880.205 1548.33,898.242 1544.35,908.713 1540.37,908.901 1536.38,898.012 1532.4,877.582 1528.42,850.743 1524.44,820.988 1520.45,791.294 1516.47,763.822 1512.49,739.988 1508.51,720.661 1504.53,706.342 1500.54,697.305 1496.56,693.667 1492.58,695.427 1488.6,702.456 1484.61,714.445 1480.63,730.803 1476.65,750.495 1472.67,771.826 1468.68,792.244 1464.7,808.369 1460.72,816.528 1456.74,813.935 1452.76,799.956 1448.77,776.44 1444.79,746.805 1440.81,714.694 1436.83,683.101 1432.84,654.125 1428.86,629.091 1424.88,608.762 1420.9,593.524 1416.91,583.507 1412.93,578.639 1408.95,578.651 1404.97,583.023 1400.99,590.884 1397,600.874 1393.02,611.005 1389.04,618.645 1385.06,620.792 1381.07,614.79 1377.09,599.276 1373.11,574.766 1369.13,543.419 1365.14,508.155 1361.16,471.799 1357.18,436.613 1353.2,404.221 1349.22,375.719 1345.23,351.841 1341.25,333.109 1337.27,319.954 1333.29,312.805 1329.3,312.187 1325.32,318.823 1321.34,333.787 1317.36,358.786 1313.37,396.732 1309.39,453.145 1305.41,540.506 1301.43,698.739 1297.45,9181.18 1293.46,698.739 1289.48,540.506 1285.5,453.145 1281.52,396.732 1277.53,358.786 1273.55,333.787 1269.57,318.823 1265.59,312.187 1261.6,312.805 1257.62,319.954 1253.64,333.109 1249.66,351.841 1245.68,375.719 1241.69,404.221 1237.71,436.613 1233.73,471.799 1229.75,508.155 1225.76,543.419 1221.78,574.766 1217.8,599.276 1213.82,614.79 1209.83,620.792 1205.85,618.645 1201.87,611.005 1197.89,600.874 1193.91,590.884 1189.92,583.023 1185.94,578.651 1181.96,578.639 1177.98,583.507 1173.99,593.524 1170.01,608.762 1166.03,629.091 1162.05,654.125 1158.06,683.101 1154.08,714.694 1150.1,746.805 1146.12,776.44 1142.14,799.956 1138.15,813.935 1134.17,816.528 1130.19,808.369 1126.21,792.244 1122.22,771.826 1118.24,750.495 1114.26,730.803 1110.28,714.445 1106.29,702.456 1102.31,695.427 1098.33,693.667 1094.35,697.305 1090.37,706.342 1086.38,720.661 1082.4,739.988 1078.42,763.822 1074.44,791.294 1070.45,820.988 1066.47,850.743 1062.49,877.582 1058.51,898.012 1054.52,908.901 1050.54,908.713 1046.56,898.242 1042.58,880.205 1038.6,858.065 1034.61,834.978 1030.63,813.324 1026.65,794.689 1022.67,780.046 1018.68,769.95 1014.7,764.691 1010.72,764.393 1006.74,769.069 1002.75,778.644 998.772,792.944 994.79,811.656 990.808,834.257 986.826,859.899 982.843,887.261 978.861,914.416 974.879,938.792 970.896,957.435 966.914,967.686 962.932,968.109 958.949,959.103 954.967,942.712 950.985,921.781 947.003,899.092 943.02,876.876 939.038,856.711 935.056,839.618 931.073,826.213 927.091,816.841 923.109,811.674 919.126,810.771 915.144,814.118 911.162,821.638 907.179,833.187 903.197,848.533 899.215,867.315 895.233,888.98 891.25,912.695 887.268,937.262 883.286,961.041 879.303,981.99 875.321,997.886 871.339,1006.79 867.356,1007.63 863.374,1000.58 859.392,986.987 855.41,968.87 851.427,948.37 847.445,927.346 843.463,907.223 839.48,888.999 835.498,873.326 831.516,860.607 827.533,851.07 823.551,844.83 819.569,841.925 815.586,842.34 811.604,846.025 807.622,852.89 803.64,862.808 799.657,875.598 795.675,891.009 791.693,908.687 787.71,928.14 783.728,948.695 779.746,969.463 775.763,989.317 771.781,1006.94 767.799,1020.95 763.817,1030.1 759.834,1033.56 755.852,1031.12 751.87,1023.27 747.887,1010.98 743.905,995.551 739.923,978.281 735.94,960.332 731.958,942.64 727.976,925.908 723.993,910.634 720.011,897.155 716.029,885.684 712.047,876.346 708.064,869.204 704.082,864.278 700.1,861.557 696.117,861.008 692.135,862.583 688.153,866.218 684.17,871.836 680.188,879.343 676.206,888.627 672.224,899.55 668.241,911.945 664.259,925.603 660.277,940.268 656.294,955.626 652.312,971.296 648.33,986.829 644.347,1001.71 640.365,1015.38 636.383,1027.26 632.4,1036.81 628.418,1043.56 624.436,1047.22 620.454,1047.68 616.471,1045.02 612.489,1039.51 608.507,1031.59 604.524,1021.75 600.542,1010.5 596.56,998.342 592.577,985.722 588.595,973.014 584.613,960.523 580.631,948.487 576.648,937.086 572.666,926.451 568.684,916.671 564.701,907.807 560.719,899.892 556.737,892.941 552.754,886.954 548.772,881.921 544.79,877.824 540.807,874.636 536.825,872.329 532.843,870.87 528.861,870.223 524.878,870.352 520.896,871.217 516.914,872.779 512.931,874.998 508.949,877.831 504.967,881.237 500.984,885.172 497.002,889.595 493.02,894.46 489.038,899.722 485.055,905.338 481.073,911.261 477.091,917.446 473.108,923.846 469.126,930.414 465.144,937.105 461.161,943.873 457.179,950.673 453.197,957.459 449.214,964.189 445.232,970.822 441.25,977.319 437.268,983.642 433.285,989.759 429.303,995.638 425.321,1001.25 421.338,1006.58 417.356,1011.61 413.374,1016.31 409.391,1020.69 405.409,1024.73 401.427,1028.43 397.445,1031.81 393.462,1034.85 389.48,1037.59 385.498,1040.01 381.515,1042.15 377.533,1044.02 373.551,1045.63 369.568,1047.01 365.586,1048.18 361.604,1049.16 357.621,1049.96 353.639,1050.61 349.657,1051.13 345.675,1051.54 341.692,1051.85 337.71,1052.08 333.728,1052.24 329.745,1052.36 325.763,1052.43 321.781,1052.48 317.798,1052.5 313.816,1052.51 309.834,1052.52 305.852,1052.52 301.869,1052.52 "/>
<path clip-path="url(#clip240)" d="M1682.92 322.316 L2282.4 322.316 L2282.4 166.796 L1682.92 166.796  Z" fill="#ffffff" fill-rule="evenodd" fill-opacity="1"/>
<polyline clip-path="url(#clip240)" style="stroke:#000000; stroke-linecap:round; stroke-linejoin:round; stroke-width:4; stroke-opacity:1; fill:none" points="1682.92,322.316 2282.4,322.316 2282.4,166.796 1682.92,166.796 1682.92,322.316 "/>
<polyline clip-path="url(#clip240)" style="stroke:#009af9; stroke-linecap:round; stroke-linejoin:round; stroke-width:4; stroke-opacity:1; fill:none" points="1706.37,218.636 1847.08,218.636 "/>
<path clip-path="url(#clip240)" d="M1892.77 202.49 L1892.77 207.05 Q1890.11 205.777 1887.75 205.152 Q1885.39 204.527 1883.19 204.527 Q1879.37 204.527 1877.29 206.008 Q1875.23 207.49 1875.23 210.221 Q1875.23 212.513 1876.59 213.694 Q1877.98 214.851 1881.82 215.569 L1884.65 216.147 Q1889.88 217.143 1892.36 219.666 Q1894.86 222.166 1894.86 226.379 Q1894.86 231.402 1891.48 233.994 Q1888.12 236.587 1881.61 236.587 Q1879.16 236.587 1876.38 236.031 Q1873.63 235.476 1870.67 234.388 L1870.67 229.573 Q1873.51 231.17 1876.24 231.981 Q1878.98 232.791 1881.61 232.791 Q1885.62 232.791 1887.8 231.217 Q1889.97 229.643 1889.97 226.726 Q1889.97 224.18 1888.4 222.744 Q1886.85 221.309 1883.28 220.592 L1880.43 220.036 Q1875.2 218.995 1872.86 216.772 Q1870.53 214.55 1870.53 210.592 Q1870.53 206.008 1873.74 203.37 Q1876.98 200.731 1882.66 200.731 Q1885.09 200.731 1887.61 201.171 Q1890.13 201.61 1892.77 202.49 Z" fill="#000000" fill-rule="nonzero" fill-opacity="1" /><path clip-path="url(#clip240)" d="M1901.52 225.684 L1901.52 209.99 L1905.78 209.99 L1905.78 225.522 Q1905.78 229.203 1907.22 231.055 Q1908.65 232.883 1911.52 232.883 Q1914.97 232.883 1916.96 230.684 Q1918.98 228.485 1918.98 224.689 L1918.98 209.99 L1923.23 209.99 L1923.23 235.916 L1918.98 235.916 L1918.98 231.934 Q1917.42 234.295 1915.36 235.453 Q1913.33 236.587 1910.62 236.587 Q1906.15 236.587 1903.84 233.809 Q1901.52 231.031 1901.52 225.684 M1912.24 209.365 L1912.24 209.365 Z" fill="#000000" fill-rule="nonzero" fill-opacity="1" /><path clip-path="url(#clip240)" d="M1952.19 214.967 Q1953.79 212.096 1956.01 210.731 Q1958.23 209.365 1961.24 209.365 Q1965.29 209.365 1967.49 212.212 Q1969.69 215.036 1969.69 220.268 L1969.69 235.916 L1965.41 235.916 L1965.41 220.407 Q1965.41 216.68 1964.09 214.874 Q1962.77 213.069 1960.06 213.069 Q1956.75 213.069 1954.83 215.268 Q1952.91 217.467 1952.91 221.263 L1952.91 235.916 L1948.63 235.916 L1948.63 220.407 Q1948.63 216.657 1947.31 214.874 Q1945.99 213.069 1943.23 213.069 Q1939.97 213.069 1938.05 215.291 Q1936.13 217.49 1936.13 221.263 L1936.13 235.916 L1931.85 235.916 L1931.85 209.99 L1936.13 209.99 L1936.13 214.018 Q1937.59 211.633 1939.62 210.499 Q1941.66 209.365 1944.46 209.365 Q1947.29 209.365 1949.25 210.8 Q1951.24 212.235 1952.19 214.967 Z" fill="#000000" fill-rule="nonzero" fill-opacity="1" /><path clip-path="url(#clip240)" d="M1998.12 219.411 L1998.12 232.073 L2005.62 232.073 Q2009.39 232.073 2011.2 230.522 Q2013.03 228.948 2013.03 225.731 Q2013.03 222.49 2011.2 220.962 Q2009.39 219.411 2005.62 219.411 L1998.12 219.411 M1998.12 205.198 L1998.12 215.615 L2005.04 215.615 Q2008.47 215.615 2010.13 214.342 Q2011.82 213.045 2011.82 210.407 Q2011.82 207.791 2010.13 206.495 Q2008.47 205.198 2005.04 205.198 L1998.12 205.198 M1993.44 201.356 L2005.39 201.356 Q2010.73 201.356 2013.63 203.578 Q2016.52 205.8 2016.52 209.897 Q2016.52 213.069 2015.04 214.944 Q2013.56 216.819 2010.69 217.282 Q2014.14 218.022 2016.04 220.383 Q2017.96 222.721 2017.96 226.24 Q2017.96 230.869 2014.81 233.393 Q2011.66 235.916 2005.85 235.916 L1993.44 235.916 L1993.44 201.356 Z" fill="#000000" fill-rule="nonzero" fill-opacity="1" /><path clip-path="url(#clip240)" d="M2047.96 221.888 L2047.96 223.971 L2028.37 223.971 Q2028.65 228.369 2031.01 230.684 Q2033.4 232.976 2037.63 232.976 Q2040.09 232.976 2042.38 232.374 Q2044.69 231.772 2046.96 230.569 L2046.96 234.596 Q2044.67 235.568 2042.26 236.078 Q2039.85 236.587 2037.38 236.587 Q2031.17 236.587 2027.54 232.976 Q2023.93 229.365 2023.93 223.207 Q2023.93 216.842 2027.35 213.115 Q2030.8 209.365 2036.64 209.365 Q2041.87 209.365 2044.9 212.745 Q2047.96 216.101 2047.96 221.888 M2043.7 220.638 Q2043.65 217.143 2041.73 215.059 Q2039.83 212.976 2036.68 212.976 Q2033.12 212.976 2030.97 214.99 Q2028.84 217.004 2028.51 220.661 L2043.7 220.638 Z" fill="#000000" fill-rule="nonzero" fill-opacity="1" /><path clip-path="url(#clip240)" d="M2066.73 222.883 Q2061.57 222.883 2059.58 224.064 Q2057.59 225.244 2057.59 228.092 Q2057.59 230.36 2059.07 231.703 Q2060.57 233.022 2063.14 233.022 Q2066.68 233.022 2068.81 230.522 Q2070.97 227.999 2070.97 223.832 L2070.97 222.883 L2066.73 222.883 M2075.22 221.124 L2075.22 235.916 L2070.97 235.916 L2070.97 231.981 Q2069.51 234.342 2067.33 235.476 Q2065.16 236.587 2062.01 236.587 Q2058.03 236.587 2055.66 234.365 Q2053.33 232.119 2053.33 228.369 Q2053.33 223.994 2056.24 221.772 Q2059.18 219.55 2064.99 219.55 L2070.97 219.55 L2070.97 219.133 Q2070.97 216.194 2069.02 214.596 Q2067.1 212.976 2063.6 212.976 Q2061.38 212.976 2059.28 213.508 Q2057.17 214.041 2055.22 215.106 L2055.22 211.17 Q2057.56 210.268 2059.76 209.828 Q2061.96 209.365 2064.04 209.365 Q2069.67 209.365 2072.45 212.282 Q2075.22 215.198 2075.22 221.124 Z" fill="#000000" fill-rule="nonzero" fill-opacity="1" /><path clip-path="url(#clip240)" d="M2104.18 214.967 Q2105.78 212.096 2108 210.731 Q2110.22 209.365 2113.23 209.365 Q2117.28 209.365 2119.48 212.212 Q2121.68 215.036 2121.68 220.268 L2121.68 235.916 L2117.4 235.916 L2117.4 220.407 Q2117.4 216.68 2116.08 214.874 Q2114.76 213.069 2112.05 213.069 Q2108.74 213.069 2106.82 215.268 Q2104.9 217.467 2104.9 221.263 L2104.9 235.916 L2100.62 235.916 L2100.62 220.407 Q2100.62 216.657 2099.3 214.874 Q2097.98 213.069 2095.22 213.069 Q2091.96 213.069 2090.04 215.291 Q2088.12 217.49 2088.12 221.263 L2088.12 235.916 L2083.84 235.916 L2083.84 209.99 L2088.12 209.99 L2088.12 214.018 Q2089.58 211.633 2091.61 210.499 Q2093.65 209.365 2096.45 209.365 Q2099.28 209.365 2101.24 210.8 Q2103.23 212.235 2104.18 214.967 Z" fill="#000000" fill-rule="nonzero" fill-opacity="1" /><polyline clip-path="url(#clip240)" style="stroke:#e26f46; stroke-linecap:round; stroke-linejoin:round; stroke-width:4; stroke-opacity:1; fill:none" points="1706.37,270.476 1847.08,270.476 "/>
<path clip-path="url(#clip240)" d="M1875.2 257.038 L1875.2 283.913 L1880.85 283.913 Q1888 283.913 1891.31 280.672 Q1894.65 277.432 1894.65 270.441 Q1894.65 263.497 1891.31 260.279 Q1888 257.038 1880.85 257.038 L1875.2 257.038 M1870.53 253.196 L1880.13 253.196 Q1890.18 253.196 1894.88 257.386 Q1899.58 261.552 1899.58 270.441 Q1899.58 279.376 1894.86 283.566 Q1890.13 287.756 1880.13 287.756 L1870.53 287.756 L1870.53 253.196 Z" fill="#000000" fill-rule="nonzero" fill-opacity="1" /><path clip-path="url(#clip240)" d="M1906.85 261.83 L1911.11 261.83 L1911.11 287.756 L1906.85 287.756 L1906.85 261.83 M1906.85 251.737 L1911.11 251.737 L1911.11 257.131 L1906.85 257.131 L1906.85 251.737 Z" fill="#000000" fill-rule="nonzero" fill-opacity="1" /><path clip-path="url(#clip240)" d="M1933.14 251.737 L1933.14 255.279 L1929.07 255.279 Q1926.78 255.279 1925.87 256.205 Q1924.99 257.131 1924.99 259.538 L1924.99 261.83 L1932.01 261.83 L1932.01 265.14 L1924.99 265.14 L1924.99 287.756 L1920.71 287.756 L1920.71 265.14 L1916.64 265.14 L1916.64 261.83 L1920.71 261.83 L1920.71 260.024 Q1920.71 255.696 1922.73 253.728 Q1924.74 251.737 1929.11 251.737 L1933.14 251.737 Z" fill="#000000" fill-rule="nonzero" fill-opacity="1" /><path clip-path="url(#clip240)" d="M1949.83 251.737 L1949.83 255.279 L1945.76 255.279 Q1943.47 255.279 1942.56 256.205 Q1941.68 257.131 1941.68 259.538 L1941.68 261.83 L1948.7 261.83 L1948.7 265.14 L1941.68 265.14 L1941.68 287.756 L1937.4 287.756 L1937.4 265.14 L1933.33 265.14 L1933.33 261.83 L1937.4 261.83 L1937.4 260.024 Q1937.4 255.696 1939.42 253.728 Q1941.43 251.737 1945.8 251.737 L1949.83 251.737 Z" fill="#000000" fill-rule="nonzero" fill-opacity="1" /><path clip-path="url(#clip240)" d="M1975.57 273.728 L1975.57 275.811 L1955.99 275.811 Q1956.27 280.209 1958.63 282.524 Q1961.01 284.816 1965.25 284.816 Q1967.7 284.816 1969.99 284.214 Q1972.31 283.612 1974.58 282.409 L1974.58 286.436 Q1972.29 287.408 1969.88 287.918 Q1967.47 288.427 1964.99 288.427 Q1958.79 288.427 1955.16 284.816 Q1951.54 281.205 1951.54 275.047 Q1951.54 268.682 1954.97 264.955 Q1958.42 261.205 1964.25 261.205 Q1969.48 261.205 1972.52 264.585 Q1975.57 267.941 1975.57 273.728 M1971.31 272.478 Q1971.27 268.983 1969.35 266.899 Q1967.45 264.816 1964.3 264.816 Q1960.73 264.816 1958.58 266.83 Q1956.45 268.844 1956.13 272.501 L1971.31 272.478 Z" fill="#000000" fill-rule="nonzero" fill-opacity="1" /><path clip-path="url(#clip240)" d="M1997.59 265.811 Q1996.87 265.395 1996.01 265.21 Q1995.18 265.001 1994.16 265.001 Q1990.55 265.001 1988.6 267.362 Q1986.68 269.7 1986.68 274.098 L1986.68 287.756 L1982.4 287.756 L1982.4 261.83 L1986.68 261.83 L1986.68 265.858 Q1988.03 263.497 1990.18 262.362 Q1992.33 261.205 1995.41 261.205 Q1995.85 261.205 1996.38 261.274 Q1996.91 261.321 1997.56 261.436 L1997.59 265.811 Z" fill="#000000" fill-rule="nonzero" fill-opacity="1" /><path clip-path="url(#clip240)" d="M2023.19 273.728 L2023.19 275.811 L2003.6 275.811 Q2003.88 280.209 2006.24 282.524 Q2008.63 284.816 2012.86 284.816 Q2015.32 284.816 2017.61 284.214 Q2019.92 283.612 2022.19 282.409 L2022.19 286.436 Q2019.9 287.408 2017.49 287.918 Q2015.09 288.427 2012.61 288.427 Q2006.41 288.427 2002.77 284.816 Q1999.16 281.205 1999.16 275.047 Q1999.16 268.682 2002.59 264.955 Q2006.04 261.205 2011.87 261.205 Q2017.1 261.205 2020.13 264.585 Q2023.19 267.941 2023.19 273.728 M2018.93 272.478 Q2018.88 268.983 2016.96 266.899 Q2015.06 264.816 2011.91 264.816 Q2008.35 264.816 2006.2 266.83 Q2004.07 268.844 2003.74 272.501 L2018.93 272.478 Z" fill="#000000" fill-rule="nonzero" fill-opacity="1" /><path clip-path="url(#clip240)" d="M2051.73 272.108 L2051.73 287.756 L2047.47 287.756 L2047.47 272.247 Q2047.47 268.566 2046.03 266.737 Q2044.6 264.909 2041.73 264.909 Q2038.28 264.909 2036.29 267.108 Q2034.3 269.307 2034.3 273.103 L2034.3 287.756 L2030.02 287.756 L2030.02 261.83 L2034.3 261.83 L2034.3 265.858 Q2035.83 263.52 2037.89 262.362 Q2039.97 261.205 2042.68 261.205 Q2047.15 261.205 2049.44 263.983 Q2051.73 266.737 2051.73 272.108 Z" fill="#000000" fill-rule="nonzero" fill-opacity="1" /><path clip-path="url(#clip240)" d="M2078.88 262.825 L2078.88 266.807 Q2077.08 265.811 2075.25 265.325 Q2073.44 264.816 2071.59 264.816 Q2067.45 264.816 2065.16 267.455 Q2062.86 270.071 2062.86 274.816 Q2062.86 279.561 2065.16 282.2 Q2067.45 284.816 2071.59 284.816 Q2073.44 284.816 2075.25 284.33 Q2077.08 283.821 2078.88 282.825 L2078.88 286.76 Q2077.1 287.594 2075.18 288.01 Q2073.28 288.427 2071.13 288.427 Q2065.27 288.427 2061.82 284.746 Q2058.37 281.066 2058.37 274.816 Q2058.37 268.473 2061.85 264.839 Q2065.34 261.205 2071.41 261.205 Q2073.37 261.205 2075.25 261.622 Q2077.12 262.015 2078.88 262.825 Z" fill="#000000" fill-rule="nonzero" fill-opacity="1" /><path clip-path="url(#clip240)" d="M2108.47 273.728 L2108.47 275.811 L2088.88 275.811 Q2089.16 280.209 2091.52 282.524 Q2093.91 284.816 2098.14 284.816 Q2100.59 284.816 2102.89 284.214 Q2105.2 283.612 2107.47 282.409 L2107.47 286.436 Q2105.18 287.408 2102.77 287.918 Q2100.36 288.427 2097.89 288.427 Q2091.68 288.427 2088.05 284.816 Q2084.44 281.205 2084.44 275.047 Q2084.44 268.682 2087.86 264.955 Q2091.31 261.205 2097.15 261.205 Q2102.38 261.205 2105.41 264.585 Q2108.47 267.941 2108.47 273.728 M2104.21 272.478 Q2104.16 268.983 2102.24 266.899 Q2100.34 264.816 2097.19 264.816 Q2093.63 264.816 2091.47 266.83 Q2089.34 268.844 2089.02 272.501 L2104.21 272.478 Z" fill="#000000" fill-rule="nonzero" fill-opacity="1" /><path clip-path="url(#clip240)" d="M2135.39 271.251 L2135.39 283.913 L2142.89 283.913 Q2146.66 283.913 2148.46 282.362 Q2150.29 280.788 2150.29 277.571 Q2150.29 274.33 2148.46 272.802 Q2146.66 271.251 2142.89 271.251 L2135.39 271.251 M2135.39 257.038 L2135.39 267.455 L2142.31 267.455 Q2145.73 267.455 2147.4 266.182 Q2149.09 264.885 2149.09 262.247 Q2149.09 259.631 2147.4 258.335 Q2145.73 257.038 2142.31 257.038 L2135.39 257.038 M2130.71 253.196 L2142.65 253.196 Q2148 253.196 2150.9 255.418 Q2153.79 257.64 2153.79 261.737 Q2153.79 264.909 2152.31 266.784 Q2150.83 268.659 2147.96 269.122 Q2151.4 269.862 2153.3 272.223 Q2155.22 274.561 2155.22 278.08 Q2155.22 282.709 2152.08 285.233 Q2148.93 287.756 2143.12 287.756 L2130.71 287.756 L2130.71 253.196 Z" fill="#000000" fill-rule="nonzero" fill-opacity="1" /><path clip-path="url(#clip240)" d="M2185.22 273.728 L2185.22 275.811 L2165.64 275.811 Q2165.92 280.209 2168.28 282.524 Q2170.66 284.816 2174.9 284.816 Q2177.35 284.816 2179.65 284.214 Q2181.96 283.612 2184.23 282.409 L2184.23 286.436 Q2181.94 287.408 2179.53 287.918 Q2177.12 288.427 2174.65 288.427 Q2168.44 288.427 2164.81 284.816 Q2161.2 281.205 2161.2 275.047 Q2161.2 268.682 2164.62 264.955 Q2168.07 261.205 2173.9 261.205 Q2179.14 261.205 2182.17 264.585 Q2185.22 267.941 2185.22 273.728 M2180.96 272.478 Q2180.92 268.983 2179 266.899 Q2177.1 264.816 2173.95 264.816 Q2170.39 264.816 2168.23 266.83 Q2166.1 268.844 2165.78 272.501 L2180.96 272.478 Z" fill="#000000" fill-rule="nonzero" fill-opacity="1" /><path clip-path="url(#clip240)" d="M2204 274.723 Q2198.84 274.723 2196.84 275.904 Q2194.85 277.084 2194.85 279.932 Q2194.85 282.2 2196.34 283.543 Q2197.84 284.862 2200.41 284.862 Q2203.95 284.862 2206.08 282.362 Q2208.23 279.839 2208.23 275.672 L2208.23 274.723 L2204 274.723 M2212.49 272.964 L2212.49 287.756 L2208.23 287.756 L2208.23 283.821 Q2206.77 286.182 2204.6 287.316 Q2202.42 288.427 2199.27 288.427 Q2195.29 288.427 2192.93 286.205 Q2190.59 283.959 2190.59 280.209 Q2190.59 275.834 2193.51 273.612 Q2196.45 271.39 2202.26 271.39 L2208.23 271.39 L2208.23 270.973 Q2208.23 268.034 2206.29 266.436 Q2204.37 264.816 2200.87 264.816 Q2198.65 264.816 2196.54 265.348 Q2194.44 265.881 2192.49 266.946 L2192.49 263.01 Q2194.83 262.108 2197.03 261.668 Q2199.23 261.205 2201.31 261.205 Q2206.94 261.205 2209.71 264.122 Q2212.49 267.038 2212.49 272.964 Z" fill="#000000" fill-rule="nonzero" fill-opacity="1" /><path clip-path="url(#clip240)" d="M2241.45 266.807 Q2243.05 263.936 2245.27 262.571 Q2247.49 261.205 2250.5 261.205 Q2254.55 261.205 2256.75 264.052 Q2258.95 266.876 2258.95 272.108 L2258.95 287.756 L2254.67 287.756 L2254.67 272.247 Q2254.67 268.52 2253.35 266.714 Q2252.03 264.909 2249.32 264.909 Q2246.01 264.909 2244.09 267.108 Q2242.17 269.307 2242.17 273.103 L2242.17 287.756 L2237.89 287.756 L2237.89 272.247 Q2237.89 268.497 2236.57 266.714 Q2235.25 264.909 2232.49 264.909 Q2229.23 264.909 2227.31 267.131 Q2225.39 269.33 2225.39 273.103 L2225.39 287.756 L2221.1 287.756 L2221.1 261.83 L2225.39 261.83 L2225.39 265.858 Q2226.84 263.473 2228.88 262.339 Q2230.92 261.205 2233.72 261.205 Q2236.54 261.205 2238.51 262.64 Q2240.5 264.075 2241.45 266.807 Z" fill="#000000" fill-rule="nonzero" fill-opacity="1" /></svg>
